<?xml version="1.0" standalone="yes"?>

<svg version="1.1" viewBox="0.0 0.0 423.43044619422574 318.2230971128609" fill="none" stroke="none" stroke-linecap="square" stroke-miterlimit="10" xmlns="http://www.w3.org/2000/svg" xmlns:xlink="http://www.w3.org/1999/xlink"><clipPath id="p.0"><path d="m0 0l423.43045 0l0 318.22308l-423.43045 0l0 -318.22308z" clip-rule="nonzero"></path></clipPath><g clip-path="url(#p.0)"><path fill="#000000" fill-opacity="0.0" d="m0 0l423.43045 0l0 318.22308l-423.43045 0z" fill-rule="evenodd"></path><path fill="#f3f3f3" d="m108.69795 130.98071l0 0c0 -9.548309 7.7404404 -17.28875 17.28875 -17.28875l188.44614 0c4.585266 0 8.982727 1.8214874 12.225006 5.063759c3.2422485 3.2422714 5.063751 7.6397324 5.063751 12.224991l0 159.72171c0 9.548309 -7.740448 17.288757 -17.288757 17.288757l-188.44614 0c-9.548309 0 -17.28875 -7.740448 -17.28875 -17.288757z" fill-rule="evenodd"></path><path stroke="#000000" stroke-width="3.0" stroke-linejoin="round" stroke-linecap="butt" d="m108.69795 130.98071l0 0c0 -9.548309 7.7404404 -17.28875 17.28875 -17.28875l188.44614 0c4.585266 0 8.982727 1.8214874 12.225006 5.063759c3.2422485 3.2422714 5.063751 7.6397324 5.063751 12.224991l0 159.72171c0 9.548309 -7.740448 17.288757 -17.288757 17.288757l-188.44614 0c-9.548309 0 -17.28875 -7.740448 -17.28875 -17.288757z" fill-rule="evenodd"></path><path fill="#000000" fill-opacity="0.0" d="m212.43652 160.50656l83.68503 86.55118" fill-rule="evenodd"></path><path stroke="#434343" stroke-width="3.0" stroke-linejoin="round" stroke-linecap="butt" d="m212.43651 160.50656l75.78172 78.37717" fill-rule="evenodd"></path><path fill="#434343" stroke="#434343" stroke-width="3.0" stroke-linecap="butt" d="m295.0789 245.97939c-1.9593811 1.894516 -5.083618 1.841919 -6.9781494 -0.117492676c-1.8945007 -1.9594116 -1.841919 -5.0836334 0.117492676 -6.9781494c1.9594116 -1.8945312 5.0836487 -1.8419342 6.9781494 0.11747742c1.8945312 1.9594116 1.841919 5.0836334 -0.117492676 6.9781647z" fill-rule="nonzero"></path><path fill="#000000" fill-opacity="0.0" d="m229.23134 159.71916l-84.31496 87.33858" fill-rule="evenodd"></path><path stroke="#434343" stroke-width="3.0" stroke-linejoin="round" stroke-linecap="butt" d="m229.23134 159.71916l-76.418 79.15842" fill-rule="evenodd"></path><path fill="#434343" stroke="#434343" stroke-width="3.0" stroke-linecap="butt" d="m145.95819 245.97856c-1.9608765 -1.8929901 -2.015915 -5.0171814 -0.122909546 -6.978058c1.8929901 -1.9608765 5.0171814 -2.015915 6.978058 -0.122909546c1.9608765 1.8929901 2.015915 5.0171814 0.122909546 6.978058c-1.8929901 1.9608765 -5.017166 2.015915 -6.978058 0.122909546z" fill-rule="nonzero"></path><path fill="#000000" fill-opacity="0.0" d="m139.25722 40.50656l83.68504 86.55118" fill-rule="evenodd"></path><path stroke="#434343" stroke-width="3.0" stroke-linejoin="round" stroke-linecap="butt" d="m139.25722 40.50656l75.78172 78.377174" fill-rule="evenodd"></path><path fill="#434343" stroke="#434343" stroke-width="3.0" stroke-linecap="butt" d="m221.8996 125.97938c-1.9593964 1.8945236 -5.0836334 1.841919 -6.9781494 -0.11748505c-1.894516 -1.9594116 -1.841919 -5.0836334 0.117492676 -6.978157c1.9593964 -1.894516 5.0836334 -1.841919 6.9781494 0.11748505c1.894516 1.9594116 1.841919 5.0836334 -0.117492676 6.978157z" fill-rule="nonzero"></path><path fill="#000000" fill-opacity="0.0" d="m154.12599 39.719162l-84.31497 87.33858" fill-rule="evenodd"></path><path stroke="#434343" stroke-width="3.0" stroke-linejoin="round" stroke-linecap="butt" d="m154.12599 39.719162l-76.41801 79.15843" fill-rule="evenodd"></path><path fill="#434343" stroke="#434343" stroke-width="3.0" stroke-linecap="butt" d="m70.85284 125.97857c-1.9608765 -1.8929977 -2.0159073 -5.0171814 -0.122917175 -6.9780655c1.8929977 -1.9608765 5.0171814 -2.0159073 6.9780655 -0.122917175c1.9608765 1.8929977 2.015915 5.0171814 0.122917175 6.9780655c-1.8929977 1.9608765 -5.0171814 2.0159073 -6.9780655 0.122917175z" fill-rule="nonzero"></path><path fill="#005eb8" d="m115.70079 17.068426l0 0c0 -5.093878 4.129402 -9.223282 9.223282 -9.223282l43.033752 0c2.446167 0 4.792145 0.97173595 6.5218353 2.701437c1.7297058 1.7297001 2.7014465 4.075678 2.7014465 6.521845l0 36.89202c0 5.0938797 -4.12941 9.223282 -9.223282 9.223282l-43.033752 0c-5.0938797 0 -9.223282 -4.129402 -9.223282 -9.223282z" fill-rule="evenodd"></path><path stroke="#434343" stroke-width="2.0" stroke-linejoin="round" stroke-linecap="butt" d="m115.70079 17.068426l0 0c0 -5.093878 4.129402 -9.223282 9.223282 -9.223282l43.033752 0c2.446167 0 4.792145 0.97173595 6.5218353 2.701437c1.7297058 1.7297001 2.7014465 4.075678 2.7014465 6.521845l0 36.89202c0 5.0938797 -4.12941 9.223282 -9.223282 9.223282l-43.033752 0c-5.0938797 0 -9.223282 -4.129402 -9.223282 -9.223282z" fill-rule="evenodd"></path><path fill="#ffffff" d="m155.01126 46.28131q0.125 0.34375 0.125 0.5625q0.015625 0.203125 -0.109375 0.3125q-0.125 0.109375 -0.421875 0.140625q-0.28125 0.03125 -0.765625 0.03125q-0.484375 0 -0.78125 -0.03125q-0.28125 -0.015625 -0.4375 -0.0625q-0.140625 -0.0625 -0.21875 -0.15625q-0.0625 -0.09375 -0.125 -0.234375l-1.734375 -4.921875l-8.40625 0l-1.65625 4.859375q-0.046875 0.140625 -0.125 0.25q-0.078125 0.09375 -0.234375 0.171875q-0.140625 0.0625 -0.421875 0.09375q-0.265625 0.03125 -0.703125 0.03125q-0.453125 0 -0.75 -0.046875q-0.28125 -0.03125 -0.40625 -0.140625q-0.109375 -0.109375 -0.109375 -0.3125q0.015625 -0.21875 0.140625 -0.5625l6.78125 -18.78125q0.0625 -0.171875 0.15625 -0.28125q0.109375 -0.109375 0.296875 -0.171875q0.203125 -0.0625 0.5 -0.078125q0.3125 -0.03125 0.78125 -0.03125q0.5 0 0.828125 0.03125q0.328125 0.015625 0.53125 0.078125q0.203125 0.0625 0.3125 0.1875q0.109375 0.109375 0.171875 0.28125l6.78125 18.78125zm-8.703125 -16.578125l-0.015625 0l-3.484375 10.078125l7.03125 0l-3.53125 -10.078125z" fill-rule="nonzero"></path><path fill="#005eb8" d="m41.28609 136.28102l0 0c0 -5.093872 4.129402 -9.223282 9.223282 -9.223282l43.03375 0c2.446167 0 4.792145 0.9717407 6.521843 2.7014465c1.7297058 1.7296906 2.701439 4.0756683 2.701439 6.5218353l0 36.89203c0 5.093872 -4.129402 9.223282 -9.223282 9.223282l-43.03375 0c-5.0938797 0 -9.223282 -4.12941 -9.223282 -9.223282z" fill-rule="evenodd"></path><path stroke="#434343" stroke-width="2.0" stroke-linejoin="round" stroke-linecap="butt" d="m41.28609 136.28102l0 0c0 -5.093872 4.129402 -9.223282 9.223282 -9.223282l43.03375 0c2.446167 0 4.792145 0.9717407 6.521843 2.7014465c1.7297058 1.7296906 2.701439 4.0756683 2.701439 6.5218353l0 36.89203c0 5.093872 -4.129402 9.223282 -9.223282 9.223282l-43.03375 0c-5.0938797 0 -9.223282 -4.12941 -9.223282 -9.223282z" fill-rule="evenodd"></path><path fill="#ffffff" d="m79.338745 160.65016q0 0.953125 -0.25 1.765625q-0.234375 0.796875 -0.671875 1.4375q-0.4375 0.640625 -1.0625 1.125q-0.609375 0.484375 -1.390625 0.8125q-0.765625 0.328125 -1.65625 0.5q-0.875 0.15625 -2.015625 0.15625l-5.28125 0q-0.359375 0 -0.6875 -0.234375q-0.3125 -0.25 -0.3125 -0.859375l0 -18.03125q0 -0.609375 0.3125 -0.84375q0.328125 -0.25 0.6875 -0.25l4.59375 0q1.8125 0 2.96875 0.34375q1.15625 0.34375 1.921875 1.0q0.78125 0.65625 1.171875 1.609375q0.390625 0.953125 0.390625 2.15625q0 0.71875 -0.171875 1.375q-0.171875 0.65625 -0.515625 1.21875q-0.328125 0.546875 -0.84375 0.984375q-0.5 0.4375 -1.15625 0.71875q0.828125 0.15625 1.546875 0.578125q0.71875 0.40625 1.25 1.046875q0.546875 0.640625 0.859375 1.5q0.3125 0.859375 0.3125 1.890625zm-4.046875 -9.046875q0 -0.734375 -0.203125 -1.328125q-0.203125 -0.59375 -0.640625 -1.0q-0.4375 -0.421875 -1.140625 -0.640625q-0.703125 -0.21875 -1.859375 -0.21875l-2.78125 0l0 6.546875l3.0625 0q1.046875 0 1.6875 -0.265625q0.640625 -0.28125 1.0625 -0.734375q0.421875 -0.46875 0.609375 -1.078125q0.203125 -0.625 0.203125 -1.28125zm1.21875 9.203125q0 -0.90625 -0.296875 -1.59375q-0.28125 -0.6875 -0.84375 -1.15625q-0.546875 -0.46875 -1.390625 -0.703125q-0.828125 -0.25 -2.09375 -0.25l-3.21875 0l0 7.125l3.90625 0q0.921875 0 1.609375 -0.21875q0.6875 -0.21875 1.203125 -0.640625q0.53125 -0.4375 0.828125 -1.078125q0.296875 -0.640625 0.296875 -1.484375z" fill-rule="nonzero"></path><path fill="#6d9eeb" d="m187.55643 136.28102l0 0c0 -5.093872 4.12941 -9.223282 9.223282 -9.223282l43.033752 0c2.446167 0 4.792145 0.9717407 6.5218506 2.7014465c1.7296906 1.7296906 2.7014313 4.0756683 2.7014313 6.5218353l0 36.89203c0 5.093872 -4.1293945 9.223282 -9.223282 9.223282l-43.033752 0c-5.093872 0 -9.223282 -4.12941 -9.223282 -9.223282z" fill-rule="evenodd"></path><path stroke="#434343" stroke-width="2.0" stroke-linejoin="round" stroke-linecap="butt" d="m187.55643 136.28102l0 0c0 -5.093872 4.12941 -9.223282 9.223282 -9.223282l43.033752 0c2.446167 0 4.792145 0.9717407 6.5218506 2.7014465c1.7296906 1.7296906 2.7014313 4.0756683 2.7014313 6.5218353l0 36.89203c0 5.093872 -4.1293945 9.223282 -9.223282 9.223282l-43.033752 0c-5.093872 0 -9.223282 -4.12941 -9.223282 -9.223282z" fill-rule="evenodd"></path><path fill="#ffffff" d="m225.95284 163.58766q0 0.25 -0.015625 0.4375q-0.015625 0.1875 -0.0625 0.328125q-0.03125 0.140625 -0.09375 0.25q-0.0625 0.109375 -0.21875 0.265625q-0.15625 0.15625 -0.65625 0.484375q-0.5 0.3125 -1.25 0.625q-0.734375 0.296875 -1.703125 0.5q-0.953125 0.21875 -2.09375 0.21875q-1.96875 0 -3.5625 -0.65625q-1.578125 -0.65625 -2.703125 -1.9375q-1.109375 -1.28125 -1.71875 -3.15625q-0.59375 -1.890625 -0.59375 -4.34375q0 -2.515625 0.640625 -4.484375q0.65625 -1.96875 1.828125 -3.328125q1.171875 -1.375 2.796875 -2.09375q1.640625 -0.71875 3.625 -0.71875q0.875 0 1.703125 0.171875q0.828125 0.15625 1.53125 0.40625q0.703125 0.25 1.25 0.578125q0.546875 0.328125 0.75 0.546875q0.21875 0.203125 0.28125 0.3125q0.0625 0.109375 0.09375 0.265625q0.046875 0.140625 0.0625 0.34375q0.03125 0.203125 0.03125 0.484375q0 0.3125 -0.03125 0.53125q-0.03125 0.21875 -0.09375 0.375q-0.0625 0.140625 -0.15625 0.21875q-0.078125 0.0625 -0.203125 0.0625q-0.21875 0 -0.609375 -0.296875q-0.390625 -0.3125 -1.015625 -0.671875q-0.609375 -0.375 -1.5 -0.671875q-0.875 -0.3125 -2.109375 -0.3125q-1.34375 0 -2.453125 0.546875q-1.09375 0.53125 -1.875 1.578125q-0.78125 1.046875 -1.21875 2.5625q-0.421875 1.5 -0.421875 3.4375q0 1.921875 0.40625 3.40625q0.421875 1.46875 1.1875 2.46875q0.78125 0.984375 1.90625 1.5q1.125 0.5 2.546875 0.5q1.203125 0 2.09375 -0.296875q0.90625 -0.296875 1.53125 -0.65625q0.640625 -0.375 1.046875 -0.671875q0.40625 -0.296875 0.640625 -0.296875q0.109375 0 0.1875 0.046875q0.078125 0.046875 0.125 0.1875q0.046875 0.125 0.0625 0.359375q0.03125 0.234375 0.03125 0.59375z" fill-rule="nonzero"></path><defs><radialGradient id="p.1" gradientUnits="userSpaceOnUse" gradientTransform="matrix(6.431077657945026 0.0 0.0 6.431077657945026 0.0 0.0)" spreadMethod="pad" cx="23.2200610365119" cy="42.777138101107425" fx="23.2200610365119" fy="42.777138101107425" r="6.431077480316162"><stop offset="0.0" stop-color="#dfe9fb"></stop><stop offset="1.0" stop-color="#6e9be7"></stop></radialGradient></defs><path fill="url(#p.1)" d="m118.58986 256.65707l0 0c0 -5.093857 4.129402 -9.223267 9.223282 -9.223267l43.033752 0c2.446167 0 4.792145 0.9717407 6.5218506 2.7014313c1.7296906 1.7297058 2.7014313 4.0756836 2.7014313 6.5218353l0 36.89203c0 5.093872 -4.12941 9.223297 -9.223282 9.223297l-43.033752 0c-5.0938797 0 -9.223282 -4.129425 -9.223282 -9.223297z" fill-rule="evenodd"></path><path stroke="#434343" stroke-width="2.0" stroke-linejoin="round" stroke-linecap="butt" d="m118.58986 256.65707l0 0c0 -5.093857 4.129402 -9.223267 9.223282 -9.223267l43.033752 0c2.446167 0 4.792145 0.9717407 6.5218506 2.7014313c1.7296906 1.7297058 2.7014313 4.0756836 2.7014313 6.5218353l0 36.89203c0 5.093872 -4.12941 9.223297 -9.223282 9.223297l-43.033752 0c-5.0938797 0 -9.223282 -4.129425 -9.223282 -9.223297z" fill-rule="evenodd"></path><path fill="#ffffff" d="m157.72064 276.41684q0 2.625 -0.671875 4.59375q-0.671875 1.953125 -1.96875 3.25q-1.28125 1.28125 -3.15625 1.921875q-1.875 0.640625 -4.46875 0.640625l-4.28125 0q-0.359375 0 -0.6875 -0.234375q-0.3125 -0.25 -0.3125 -0.859375l0 -18.03125q0 -0.609375 0.3125 -0.84375q0.328125 -0.25 0.6875 -0.25l4.578125 0q2.625 0 4.4375 0.6875q1.8125 0.671875 3.03125 1.953125q1.234375 1.265625 1.859375 3.078125q0.640625 1.8125 0.640625 4.09375zm-2.828125 0.109375q0 -1.640625 -0.40625 -3.046875q-0.40625 -1.421875 -1.28125 -2.453125q-0.859375 -1.03125 -2.1875 -1.609375q-1.328125 -0.578125 -3.421875 -0.578125l-2.734375 0l0 15.734375l2.765625 0q1.9375 0 3.265625 -0.484375q1.328125 -0.484375 2.21875 -1.484375q0.890625 -1.0 1.328125 -2.5q0.453125 -1.515625 0.453125 -3.578125z" fill-rule="nonzero"></path><defs><radialGradient id="p.2" gradientUnits="userSpaceOnUse" gradientTransform="matrix(6.431077657945026 0.0 0.0 6.431077657945026 0.0 0.0)" spreadMethod="pad" cx="45.36512559584228" cy="42.777138101107425" fx="45.36512559584228" fy="42.777138101107425" r="6.431077480316162"><stop offset="0.0" stop-color="#dfe9fb"></stop><stop offset="1.0" stop-color="#6e9be7"></stop></radialGradient></defs><path fill="url(#p.2)" d="m261.0065 256.65707l0 0c0 -5.093857 4.1293945 -9.223267 9.223267 -9.223267l43.033752 0c2.446167 0 4.792145 0.9717407 6.5218506 2.7014313c1.7297058 1.7297058 2.7014465 4.0756836 2.7014465 6.5218353l0 36.89203c0 5.093872 -4.129425 9.223297 -9.223297 9.223297l-43.033752 0c-5.093872 0 -9.223267 -4.129425 -9.223267 -9.223297z" fill-rule="evenodd"></path><path stroke="#434343" stroke-width="2.0" stroke-linejoin="round" stroke-linecap="butt" d="m261.0065 256.65707l0 0c0 -5.093857 4.1293945 -9.223267 9.223267 -9.223267l43.033752 0c2.446167 0 4.792145 0.9717407 6.5218506 2.7014313c1.7297058 1.7297058 2.7014465 4.0756836 2.7014465 6.5218353l0 36.89203c0 5.093872 -4.129425 9.223297 -9.223297 9.223297l-43.033752 0c-5.093872 0 -9.223267 -4.129425 -9.223267 -9.223297z" fill-rule="evenodd"></path><path fill="#ffffff" d="m297.87164 285.7137q0 0.28125 -0.03125 0.5q-0.03125 0.203125 -0.109375 0.34375q-0.078125 0.140625 -0.1875 0.203125q-0.09375 0.0625 -0.21875 0.0625l-9.703125 0q-0.359375 0 -0.6875 -0.234375q-0.3125 -0.25 -0.3125 -0.859375l0 -18.03125q0 -0.609375 0.3125 -0.84375q0.328125 -0.25 0.6875 -0.25l9.59375 0q0.125 0 0.21875 0.0625q0.109375 0.0625 0.171875 0.203125q0.0625 0.140625 0.09375 0.359375q0.046875 0.203125 0.046875 0.515625q0 0.28125 -0.046875 0.5q-0.03125 0.203125 -0.09375 0.34375q-0.0625 0.125 -0.171875 0.1875q-0.09375 0.0625 -0.21875 0.0625l-7.90625 0l0 6.34375l6.78125 0q0.125 0 0.21875 0.078125q0.109375 0.0625 0.171875 0.1875q0.078125 0.125 0.109375 0.34375q0.03125 0.21875 0.03125 0.515625q0 0.28125 -0.03125 0.484375q-0.03125 0.203125 -0.109375 0.328125q-0.0625 0.125 -0.171875 0.1875q-0.09375 0.046875 -0.21875 0.046875l-6.78125 0l0 7.234375l8.015625 0q0.125 0 0.21875 0.0625q0.109375 0.0625 0.1875 0.203125q0.078125 0.125 0.109375 0.34375q0.03125 0.203125 0.03125 0.515625z" fill-rule="nonzero"></path><path fill="#000000" fill-opacity="0.0" d="m190.19466 77.11286l84.31496 0l0 26.740158l-84.31496 0z" fill-rule="evenodd"></path><path fill="#6aa84f" d="m200.1634 99.02223l0 -0.484375q0.765625 0.375 1.0625 0.5625q0.296875 0.1875 0.90625 0.671875l0 -9.359375l0.640625 0l0 9.359375q0.6875 -0.65625 1.953125 -1.25l0 0.484375q-0.90625 0.828125 -1.390625 1.40625q-0.46875 0.59375 -0.765625 1.21875l-0.296875 0q-0.234375 -0.546875 -0.71875 -1.15625q-0.46875 -0.609375 -1.390625 -1.453125z" fill-rule="nonzero"></path><path fill="#434343" d="m219.3875 94.03786q0 0.421875 -0.0625 0.875q-0.046875 0.453125 -0.171875 0.875q-0.125 0.421875 -0.328125 0.8125q-0.1875 0.375 -0.46875 0.65625q-0.28125 0.28125 -0.671875 0.453125q-0.375 0.15625 -0.859375 0.15625q-0.265625 0 -0.484375 -0.0625q-0.21875 -0.0625 -0.390625 -0.171875q-0.171875 -0.109375 -0.296875 -0.296875q-0.109375 -0.1875 -0.15625 -0.421875q-0.25 0.265625 -0.5 0.453125q-0.234375 0.171875 -0.46875 0.28125q-0.21875 0.109375 -0.4375 0.171875q-0.21875 0.046875 -0.421875 0.046875q-0.28125 0 -0.5 -0.046875q-0.203125 -0.0625 -0.359375 -0.15625q-0.15625 -0.109375 -0.28125 -0.265625q-0.109375 -0.15625 -0.1875 -0.34375q-0.078125 -0.1875 -0.109375 -0.40625q-0.03125 -0.234375 -0.03125 -0.515625q0 -0.265625 0.046875 -0.609375q0.046875 -0.359375 0.140625 -0.734375q0.109375 -0.375 0.28125 -0.734375q0.1875 -0.359375 0.4375 -0.640625q0.265625 -0.28125 0.625 -0.453125q0.375 -0.171875 0.859375 -0.171875q0.203125 0 0.390625 0.046875q0.1875 0.046875 0.359375 0.15625q0.171875 0.09375 0.328125 0.25q0.15625 0.140625 0.3125 0.359375l0.109375 -0.5625q0.03125 -0.09375 0.109375 -0.140625q0.09375 -0.046875 0.34375 -0.046875q0.109375 0 0.1875 0.015625q0.078125 0.015625 0.125 0.046875q0.046875 0.015625 0.0625 0.046875q0.015625 0.03125 0 0.078125l-0.5625 2.921875q-0.109375 0.546875 0.046875 0.8125q0.15625 0.265625 0.578125 0.265625q0.265625 0 0.46875 -0.125q0.21875 -0.140625 0.375 -0.359375q0.15625 -0.21875 0.265625 -0.515625q0.109375 -0.296875 0.171875 -0.625q0.078125 -0.328125 0.109375 -0.671875q0.03125 -0.34375 0.03125 -0.65625q0 -0.5625 -0.15625 -1.046875q-0.140625 -0.5 -0.515625 -0.875q-0.359375 -0.390625 -0.96875 -0.609375q-0.59375 -0.21875 -1.515625 -0.21875q-0.75 0 -1.328125 0.171875q-0.578125 0.15625 -1.03125 0.4375q-0.4375 0.28125 -0.765625 0.65625q-0.3125 0.359375 -0.53125 0.78125q-0.21875 0.40625 -0.359375 0.84375q-0.125 0.4375 -0.203125 0.84375q-0.0625 0.390625 -0.09375 0.75q-0.015625 0.359375 -0.015625 0.609375q0 0.703125 0.15625 1.296875q0.171875 0.578125 0.5625 1.0q0.40625 0.421875 1.078125 0.65625q0.671875 0.234375 1.703125 0.234375q0.453125 0 0.828125 -0.0625q0.375 -0.046875 0.65625 -0.109375q0.28125 -0.0625 0.453125 -0.109375q0.171875 -0.046875 0.234375 -0.046875q0.03125 0 0.0625 0.015625q0.03125 0.015625 0.046875 0.0625q0.015625 0.0625 0.015625 0.125q0.015625 0.078125 0.015625 0.1875q0 0.078125 -0.015625 0.140625q0 0.0625 -0.015625 0.109375q0 0.046875 -0.03125 0.078125q-0.015625 0.046875 -0.0625 0.078125q-0.03125 0.03125 -0.21875 0.09375q-0.171875 0.0625 -0.484375 0.125q-0.3125 0.0625 -0.734375 0.109375q-0.40625 0.046875 -0.890625 0.046875q-1.1875 0 -2.015625 -0.28125q-0.8125 -0.28125 -1.34375 -0.8125q-0.515625 -0.515625 -0.75 -1.234375q-0.21875 -0.734375 -0.21875 -1.640625q0 -0.328125 0.03125 -0.75q0.046875 -0.4375 0.140625 -0.921875q0.09375 -0.484375 0.265625 -0.984375q0.1875 -0.515625 0.46875 -0.984375q0.28125 -0.484375 0.6875 -0.90625q0.40625 -0.4375 0.953125 -0.75q0.546875 -0.328125 1.25 -0.515625q0.71875 -0.1875 1.609375 -0.1875q1.03125 0 1.796875 0.25q0.765625 0.25 1.25 0.71875q0.5 0.453125 0.734375 1.109375q0.25 0.65625 0.25 1.46875zm-3.6875 0.40625q-0.234375 -0.40625 -0.5 -0.625q-0.25 -0.21875 -0.578125 -0.21875q-0.265625 0 -0.484375 0.140625q-0.203125 0.125 -0.375 0.328125q-0.15625 0.203125 -0.265625 0.46875q-0.109375 0.265625 -0.1875 0.546875q-0.0625 0.265625 -0.09375 0.53125q-0.015625 0.25 -0.015625 0.4375q0 0.46875 0.15625 0.734375q0.171875 0.25 0.578125 0.25q0.15625 0 0.3125 -0.046875q0.15625 -0.0625 0.328125 -0.171875q0.1875 -0.109375 0.375 -0.296875q0.203125 -0.1875 0.453125 -0.421875l0.296875 -1.65625zm-6.828125 -3.75l0 0zm14.103424 8.046875q0 0.0625 -0.03125 0.109375q-0.015625 0.03125 -0.09375 0.046875q-0.0625 0.015625 -0.171875 0.03125q-0.09375 0.015625 -0.25 0.015625q-0.15625 0 -0.265625 -0.015625q-0.109375 -0.015625 -0.171875 -0.03125q-0.0625 -0.015625 -0.09375 -0.046875q-0.015625 -0.046875 -0.015625 -0.109375l0 -7.875q0 -0.046875 0.03125 -0.078125q0.03125 -0.046875 0.09375 -0.0625q0.0625 -0.03125 0.15625 -0.046875q0.109375 -0.015625 0.265625 -0.015625q0.15625 0 0.25 0.015625q0.109375 0.015625 0.171875 0.046875q0.078125 0.015625 0.09375 0.0625q0.03125 0.03125 0.03125 0.078125l0 7.875zm7.0611877 0.015625q0 0.046875 -0.03125 0.09375q-0.015625 0.03125 -0.078125 0.0625q-0.0625 0.015625 -0.171875 0.015625q-0.09375 0.015625 -0.234375 0.015625q-0.15625 0 -0.265625 -0.015625q-0.09375 0 -0.15625 -0.015625q-0.0625 -0.03125 -0.09375 -0.0625q-0.015625 -0.046875 -0.015625 -0.09375l0 -3.34375q0 -0.5 -0.078125 -0.796875q-0.078125 -0.296875 -0.21875 -0.5q-0.140625 -0.21875 -0.375 -0.328125q-0.234375 -0.125 -0.546875 -0.125q-0.390625 0 -0.78125 0.28125q-0.390625 0.28125 -0.828125 0.8125l0 4.0q0 0.046875 -0.03125 0.09375q-0.015625 0.03125 -0.078125 0.0625q-0.046875 0.015625 -0.15625 0.015625q-0.09375 0.015625 -0.265625 0.015625q-0.140625 0 -0.25 -0.015625q-0.09375 0 -0.15625 -0.015625q-0.0625 -0.03125 -0.09375 -0.0625q-0.015625 -0.046875 -0.015625 -0.09375l0 -5.71875q0 -0.046875 0.015625 -0.078125q0.03125 -0.046875 0.078125 -0.0625q0.0625 -0.03125 0.140625 -0.03125q0.09375 -0.015625 0.25 -0.015625q0.140625 0 0.21875 0.015625q0.09375 0 0.140625 0.03125q0.0625 0.015625 0.078125 0.0625q0.03125 0.03125 0.03125 0.078125l0 0.765625q0.484375 -0.546875 0.953125 -0.796875q0.484375 -0.25 0.96875 -0.25q0.578125 0 0.96875 0.203125q0.390625 0.1875 0.625 0.515625q0.25 0.3125 0.34375 0.75q0.109375 0.4375 0.109375 1.046875l0 3.484375zm7.346222 -2.953125q0 0.75 -0.171875 1.359375q-0.15625 0.59375 -0.46875 1.015625q-0.3125 0.40625 -0.78125 0.640625q-0.46875 0.21875 -1.0625 0.21875q-0.25 0 -0.46875 -0.0625q-0.21875 -0.046875 -0.421875 -0.15625q-0.203125 -0.109375 -0.40625 -0.265625q-0.203125 -0.171875 -0.4375 -0.390625l0 2.859375q0 0.046875 -0.03125 0.078125q-0.015625 0.046875 -0.078125 0.0625q-0.046875 0.03125 -0.15625 0.046875q-0.09375 0.015625 -0.265625 0.015625q-0.140625 0 -0.25 -0.015625q-0.09375 -0.015625 -0.15625 -0.046875q-0.0625 -0.015625 -0.09375 -0.0625q-0.015625 -0.03125 -0.015625 -0.078125l0 -7.984375q0 -0.046875 0.015625 -0.078125q0.03125 -0.046875 0.078125 -0.0625q0.0625 -0.03125 0.140625 -0.03125q0.09375 -0.015625 0.21875 -0.015625q0.140625 0 0.21875 0.015625q0.09375 0 0.140625 0.03125q0.0625 0.015625 0.078125 0.0625q0.03125 0.03125 0.03125 0.078125l0 0.765625q0.265625 -0.265625 0.5 -0.453125q0.25 -0.203125 0.484375 -0.328125q0.25 -0.140625 0.5 -0.203125q0.265625 -0.0625 0.546875 -0.0625q0.625 0 1.0625 0.25q0.4375 0.234375 0.703125 0.65625q0.28125 0.40625 0.40625 0.96875q0.140625 0.5625 0.140625 1.171875zm-1.109375 0.125q0 -0.4375 -0.078125 -0.84375q-0.0625 -0.40625 -0.21875 -0.71875q-0.15625 -0.328125 -0.4375 -0.515625q-0.265625 -0.1875 -0.671875 -0.1875q-0.203125 0 -0.40625 0.0625q-0.203125 0.046875 -0.40625 0.1875q-0.203125 0.125 -0.421875 0.34375q-0.21875 0.203125 -0.46875 0.515625l0 2.28125q0.4375 0.515625 0.8125 0.796875q0.390625 0.28125 0.828125 0.28125q0.390625 0 0.671875 -0.1875q0.28125 -0.1875 0.453125 -0.5q0.171875 -0.328125 0.25 -0.71875q0.09375 -0.390625 0.09375 -0.796875zm7.736847 2.828125q0 0.046875 -0.015625 0.09375q-0.015625 0.03125 -0.078125 0.0625q-0.0625 0.015625 -0.15625 0.015625q-0.09375 0.015625 -0.21875 0.015625q-0.140625 0 -0.234375 -0.015625q-0.09375 0 -0.15625 -0.015625q-0.046875 -0.03125 -0.078125 -0.0625q-0.015625 -0.046875 -0.015625 -0.09375l0 -0.765625q-0.484375 0.546875 -0.96875 0.796875q-0.46875 0.25 -0.953125 0.25q-0.578125 0 -0.96875 -0.1875q-0.390625 -0.203125 -0.625 -0.53125q-0.234375 -0.328125 -0.34375 -0.75q-0.109375 -0.4375 -0.109375 -1.0625l0 -3.46875q0 -0.046875 0.015625 -0.078125q0.03125 -0.046875 0.09375 -0.0625q0.0625 -0.03125 0.15625 -0.03125q0.109375 -0.015625 0.265625 -0.015625q0.15625 0 0.25 0.015625q0.109375 0 0.15625 0.03125q0.0625 0.015625 0.09375 0.0625q0.03125 0.03125 0.03125 0.078125l0 3.328125q0 0.5 0.0625 0.8125q0.078125 0.296875 0.21875 0.515625q0.15625 0.203125 0.375 0.328125q0.234375 0.109375 0.546875 0.109375q0.390625 0 0.78125 -0.28125q0.390625 -0.28125 0.828125 -0.8125l0 -4.0q0 -0.046875 0.015625 -0.078125q0.03125 -0.046875 0.09375 -0.0625q0.0625 -0.03125 0.15625 -0.03125q0.109375 -0.015625 0.265625 -0.015625q0.140625 0 0.234375 0.015625q0.109375 0 0.171875 0.03125q0.0625 0.015625 0.078125 0.0625q0.03125 0.03125 0.03125 0.078125l0 5.71875zm5.080597 -0.421875q0 0.1875 -0.03125 0.296875q-0.015625 0.109375 -0.0625 0.15625q-0.046875 0.046875 -0.15625 0.09375q-0.09375 0.046875 -0.234375 0.0625q-0.125 0.03125 -0.28125 0.046875q-0.140625 0.03125 -0.28125 0.03125q-0.453125 0 -0.765625 -0.109375q-0.3125 -0.125 -0.515625 -0.359375q-0.203125 -0.25 -0.296875 -0.609375q-0.09375 -0.359375 -0.09375 -0.859375l0 -3.34375l-0.796875 0q-0.09375 0 -0.15625 -0.09375q-0.0625 -0.109375 -0.0625 -0.328125q0 -0.125 0.015625 -0.203125q0.015625 -0.09375 0.046875 -0.140625q0.03125 -0.0625 0.0625 -0.078125q0.046875 -0.015625 0.09375 -0.015625l0.796875 0l0 -1.359375q0 -0.046875 0.015625 -0.078125q0.03125 -0.046875 0.09375 -0.078125q0.0625 -0.03125 0.15625 -0.03125q0.109375 -0.015625 0.25 -0.015625q0.15625 0 0.25 0.015625q0.109375 0 0.171875 0.03125q0.0625 0.03125 0.078125 0.078125q0.03125 0.03125 0.03125 0.078125l0 1.359375l1.46875 0q0.046875 0 0.078125 0.015625q0.046875 0.015625 0.078125 0.078125q0.03125 0.046875 0.03125 0.140625q0.015625 0.078125 0.015625 0.203125q0 0.21875 -0.0625 0.328125q-0.046875 0.09375 -0.140625 0.09375l-1.46875 0l0 3.1875q0 0.59375 0.171875 0.90625q0.171875 0.296875 0.625 0.296875q0.15625 0 0.265625 -0.03125q0.109375 -0.03125 0.203125 -0.0625q0.09375 -0.03125 0.15625 -0.0625q0.0625 -0.03125 0.109375 -0.03125q0.03125 0 0.0625 0.015625q0.03125 0.015625 0.046875 0.0625q0.015625 0.046875 0.015625 0.125q0.015625 0.078125 0.015625 0.1875z" fill-rule="nonzero"></path><path fill="#000000" fill-opacity="0.0" d="m289.04462 12.246719l134.38614 0l0 26.731228l-134.38614 0z" fill-rule="evenodd"></path><path fill="#434343" d="m304.81024 35.139217q0 0.0625 -0.03125 0.109375q-0.015625 0.046875 -0.078125 0.078125q-0.0625 0.015625 -0.171875 0.03125q-0.09375 0.015625 -0.25 0.015625q-0.140625 0 -0.25 -0.015625q-0.109375 -0.015625 -0.171875 -0.03125q-0.0625 -0.03125 -0.09375 -0.078125q-0.03125 -0.046875 -0.03125 -0.109375l0 -0.875q-0.515625 0.578125 -1.078125 0.890625q-0.5625 0.3125 -1.21875 0.3125q-0.734375 0 -1.25 -0.28125q-0.5 -0.28125 -0.828125 -0.765625q-0.3125 -0.484375 -0.46875 -1.125q-0.140625 -0.65625 -0.140625 -1.3749981q0 -0.84375 0.171875 -1.53125q0.1875 -0.6875 0.546875 -1.15625q0.359375 -0.484375 0.890625 -0.75q0.53125 -0.265625 1.234375 -0.265625q0.578125 0 1.046875 0.265625q0.484375 0.25 0.953125 0.734375l0 -3.828125q0 -0.046875 0.03125 -0.09375q0.03125 -0.046875 0.09375 -0.078125q0.078125 -0.03125 0.1875 -0.046875q0.125 -0.015625 0.296875 -0.015625q0.171875 0 0.28125 0.015625q0.125 0.015625 0.1875 0.046875q0.078125 0.03125 0.109375 0.078125q0.03125 0.046875 0.03125 0.09375l0 9.749998zm-1.21875 -4.624998q-0.484375 -0.609375 -0.953125 -0.921875q-0.453125 -0.328125 -0.953125 -0.328125q-0.453125 0 -0.78125 0.21875q-0.3125 0.21875 -0.515625 0.578125q-0.203125 0.359375 -0.296875 0.8125q-0.09375 0.453125 -0.09375 0.921875q0 0.4999981 0.078125 0.9843731q0.078125 0.46875 0.265625 0.84375q0.1875 0.359375 0.5 0.59375q0.328125 0.21875 0.796875 0.21875q0.25 0 0.46875 -0.0625q0.21875 -0.078125 0.453125 -0.21875q0.234375 -0.15625 0.484375 -0.40625q0.265625 -0.25 0.546875 -0.609375l0 -2.624998zm8.903381 1.046875q0 0.28125 -0.15625 0.40625q-0.140625 0.12499809 -0.3125 0.12499809l-4.328125 0q0 0.546875 0.109375 0.984375q0.109375 0.4375 0.359375 0.765625q0.265625 0.3125 0.671875 0.484375q0.421875 0.15625 1.015625 0.15625q0.46875 0 0.828125 -0.078125q0.359375 -0.078125 0.625 -0.171875q0.28125 -0.09375 0.453125 -0.171875q0.171875 -0.078125 0.25 -0.078125q0.0625 0 0.09375 0.03125q0.046875 0.015625 0.0625 0.078125q0.03125 0.046875 0.03125 0.140625q0.015625 0.09375 0.015625 0.21875q0 0.09375 -0.015625 0.171875q0 0.0625 -0.015625 0.125q0 0.046875 -0.03125 0.09375q-0.03125 0.046875 -0.078125 0.09375q-0.03125 0.03125 -0.234375 0.125q-0.1875 0.09375 -0.5 0.1875q-0.3125 0.078125 -0.734375 0.140625q-0.40625 0.078125 -0.875 0.078125q-0.8125 0 -1.4375 -0.21875q-0.609375 -0.234375 -1.03125 -0.671875q-0.40625 -0.453125 -0.625 -1.125q-0.203125 -0.6875 -0.203125 -1.5781231q0 -0.84375 0.21875 -1.515625q0.21875 -0.6875 0.625 -1.15625q0.421875 -0.46875 1.0 -0.71875q0.59375 -0.265625 1.3125 -0.265625q0.78125 0 1.328125 0.25q0.546875 0.25 0.890625 0.671875q0.359375 0.421875 0.515625 1.0q0.171875 0.5625 0.171875 1.203125l0 0.21875zm-1.21875 -0.359375q0.015625 -0.953125 -0.421875 -1.484375q-0.4375 -0.546875 -1.3125 -0.546875q-0.453125 0 -0.796875 0.171875q-0.328125 0.15625 -0.5625 0.4375q-0.21875 0.28125 -0.34375 0.65625q-0.125 0.359375 -0.140625 0.765625l3.578125 0zm6.4954834 -5.359375q0 0.140625 -0.015625 0.234375q-0.015625 0.078125 -0.03125 0.125q-0.015625 0.046875 -0.046875 0.078125q-0.03125 0.015625 -0.078125 0.015625q-0.046875 0 -0.125 -0.03125q-0.078125 -0.046875 -0.1875 -0.078125q-0.109375 -0.046875 -0.265625 -0.078125q-0.140625 -0.03125 -0.34375 -0.03125q-0.265625 0 -0.46875 0.09375q-0.1875 0.078125 -0.3125 0.265625q-0.109375 0.1875 -0.15625 0.484375q-0.046875 0.296875 -0.046875 0.71875l0 0.71875l1.46875 0q0.0625 0 0.09375 0.03125q0.046875 0.015625 0.078125 0.078125q0.03125 0.0625 0.046875 0.171875q0.015625 0.09375 0.015625 0.234375q0 0.25 -0.0625 0.375q-0.0625 0.109375 -0.171875 0.109375l-1.46875 0l0 5.781248q0 0.0625 -0.03125 0.109375q-0.03125 0.03125 -0.109375 0.0625q-0.0625 0.03125 -0.1875 0.046875q-0.109375 0.015625 -0.28125 0.015625q-0.171875 0 -0.296875 -0.015625q-0.109375 -0.015625 -0.1875 -0.046875q-0.0625 -0.03125 -0.09375 -0.0625q-0.03125 -0.046875 -0.03125 -0.109375l0 -5.781248l-0.9375 0q-0.109375 0 -0.171875 -0.109375q-0.0625 -0.125 -0.0625 -0.375q0 -0.140625 0.015625 -0.234375q0.015625 -0.109375 0.046875 -0.171875q0.03125 -0.0625 0.078125 -0.078125q0.046875 -0.03125 0.09375 -0.03125l0.9375 0l0 -0.671875q0 -0.6875 0.125 -1.1875q0.125 -0.5 0.390625 -0.8125q0.265625 -0.3125 0.65625 -0.453125q0.40625 -0.15625 0.953125 -0.15625q0.25 0 0.484375 0.046875q0.25 0.046875 0.375 0.109375q0.140625 0.046875 0.1875 0.09375q0.046875 0.03125 0.0625 0.109375q0.03125 0.0625 0.046875 0.171875q0.015625 0.09375 0.015625 0.234375zm5.8320923 9.312498q0 0.078125 -0.0625 0.125q-0.0625 0.046875 -0.171875 0.0625q-0.09375 0.03125 -0.296875 0.03125q-0.1875 0 -0.296875 -0.03125q-0.109375 -0.015625 -0.171875 -0.0625q-0.046875 -0.046875 -0.046875 -0.125l0 -0.65625q-0.4375 0.453125 -0.96875 0.71875q-0.53125 0.25 -1.125 0.25q-0.515625 0 -0.9375 -0.140625q-0.421875 -0.125 -0.71875 -0.375q-0.296875 -0.265625 -0.46875 -0.640625q-0.15625 -0.375 -0.15625 -0.859375q0 -0.546875 0.21875 -0.953125q0.234375 -0.421875 0.65625 -0.6874981q0.4375 -0.265625 1.046875 -0.40625q0.609375 -0.140625 1.390625 -0.140625l0.90625 0l0 -0.515625q0 -0.375 -0.09375 -0.65625q-0.078125 -0.296875 -0.265625 -0.484375q-0.171875 -0.203125 -0.453125 -0.296875q-0.28125 -0.109375 -0.703125 -0.109375q-0.4375 0 -0.796875 0.109375q-0.359375 0.109375 -0.625 0.234375q-0.265625 0.125 -0.453125 0.234375q-0.171875 0.109375 -0.265625 0.109375q-0.0625 0 -0.109375 -0.03125q-0.03125 -0.03125 -0.0625 -0.09375q-0.03125 -0.0625 -0.046875 -0.140625q-0.015625 -0.09375 -0.015625 -0.203125q0 -0.1875 0.015625 -0.296875q0.03125 -0.109375 0.125 -0.203125q0.109375 -0.09375 0.34375 -0.21875q0.25 -0.125 0.5625 -0.234375q0.3125 -0.109375 0.6875 -0.171875q0.375 -0.078125 0.75 -0.078125q0.71875 0 1.203125 0.171875q0.5 0.15625 0.8125 0.46875q0.3125 0.3125 0.453125 0.78125q0.140625 0.453125 0.140625 1.0625l0 4.453123zm-1.203125 -3.015625l-1.03125 0q-0.5 0 -0.875 0.09375q-0.359375 0.078125 -0.609375 0.25q-0.234375 0.15625 -0.359375 0.390625q-0.109375 0.21875 -0.109375 0.53125q0 0.515625 0.328125 0.8125q0.328125 0.296875 0.921875 0.296875q0.46875 0 0.875 -0.234375q0.40625 -0.25 0.859375 -0.734375l0 -1.40625zm8.895416 3.0q0 0.0625 -0.03125 0.109375q-0.015625 0.03125 -0.09375 0.0625q-0.0625 0.03125 -0.171875 0.046875q-0.09375 0.015625 -0.25 0.015625q-0.171875 0 -0.28125 -0.015625q-0.09375 -0.015625 -0.15625 -0.046875q-0.0625 -0.03125 -0.09375 -0.0625q-0.015625 -0.046875 -0.015625 -0.109375l0 -0.875q-0.5625 0.625 -1.125 0.921875q-0.546875 0.28125 -1.109375 0.28125q-0.65625 0 -1.109375 -0.21875q-0.453125 -0.21875 -0.734375 -0.59375q-0.265625 -0.390625 -0.390625 -0.890625q-0.125 -0.5 -0.125 -1.21875l0 -3.999998q0 -0.046875 0.03125 -0.09375q0.03125 -0.046875 0.09375 -0.078125q0.078125 -0.03125 0.1875 -0.03125q0.125 -0.015625 0.296875 -0.015625q0.1875 0 0.296875 0.015625q0.125 0 0.1875 0.03125q0.0625 0.03125 0.09375 0.078125q0.03125 0.046875 0.03125 0.09375l0 3.843748q0 0.578125 0.078125 0.9375q0.09375 0.34375 0.265625 0.59375q0.171875 0.234375 0.4375 0.375q0.265625 0.125 0.609375 0.125q0.453125 0 0.90625 -0.3125q0.453125 -0.328125 0.953125 -0.953125l0 -4.609373q0 -0.046875 0.03125 -0.09375q0.03125 -0.046875 0.09375 -0.078125q0.078125 -0.03125 0.1875 -0.03125q0.125 -0.015625 0.296875 -0.015625q0.171875 0 0.28125 0.015625q0.125 0 0.1875 0.03125q0.078125 0.03125 0.109375 0.078125q0.03125 0.046875 0.03125 0.09375l0 6.593748zm3.2627563 0q0 0.0625 -0.03125 0.109375q-0.03125 0.03125 -0.09375 0.0625q-0.0625 0.03125 -0.1875 0.046875q-0.109375 0.015625 -0.296875 0.015625q-0.171875 0 -0.296875 -0.015625q-0.109375 -0.015625 -0.1875 -0.046875q-0.0625 -0.03125 -0.09375 -0.0625q-0.015625 -0.046875 -0.015625 -0.109375l0 -9.781248q0 -0.0625 0.015625 -0.09375q0.03125 -0.046875 0.09375 -0.078125q0.078125 -0.03125 0.1875 -0.046875q0.125 -0.015625 0.296875 -0.015625q0.1875 0 0.296875 0.015625q0.125 0.015625 0.1875 0.046875q0.0625 0.03125 0.09375 0.078125q0.03125 0.03125 0.03125 0.09375l0 9.781248zm5.582245 -0.484375q0 0.21875 -0.03125 0.34375q-0.03125 0.125 -0.09375 0.1875q-0.046875 0.046875 -0.171875 0.109375q-0.109375 0.046875 -0.265625 0.078125q-0.140625 0.03125 -0.3125 0.046875q-0.171875 0.03125 -0.34375 0.03125q-0.515625 0 -0.875 -0.125q-0.359375 -0.140625 -0.59375 -0.421875q-0.234375 -0.28125 -0.34375 -0.6875q-0.109375 -0.421875 -0.109375 -1.0l0 -3.859373l-0.921875 0q-0.109375 0 -0.1875 -0.109375q-0.0625 -0.125 -0.0625 -0.375q0 -0.140625 0.015625 -0.234375q0.03125 -0.109375 0.0625 -0.171875q0.03125 -0.0625 0.078125 -0.078125q0.046875 -0.03125 0.09375 -0.03125l0.921875 0l0 -1.5625q0 -0.046875 0.015625 -0.09375q0.03125 -0.046875 0.09375 -0.078125q0.078125 -0.03125 0.1875 -0.046875q0.125 -0.015625 0.296875 -0.015625q0.1875 0 0.296875 0.015625q0.125 0.015625 0.1875 0.046875q0.078125 0.03125 0.09375 0.078125q0.03125 0.046875 0.03125 0.09375l0 1.5625l1.703125 0q0.046875 0 0.09375 0.03125q0.046875 0.015625 0.078125 0.078125q0.03125 0.0625 0.046875 0.171875q0.015625 0.09375 0.015625 0.234375q0 0.25 -0.0625 0.375q-0.0625 0.109375 -0.171875 0.109375l-1.703125 0l0 3.687498q0 0.671875 0.203125 1.03125q0.203125 0.34375 0.71875 0.34375q0.171875 0 0.296875 -0.03125q0.140625 -0.03125 0.234375 -0.0625q0.109375 -0.046875 0.1875 -0.078125q0.078125 -0.03125 0.125 -0.03125q0.046875 0 0.078125 0.015625q0.03125 0.015625 0.046875 0.078125q0.015625 0.046875 0.03125 0.140625q0.015625 0.078125 0.015625 0.203125zm8.941406 -1.3125q0 0.515625 -0.1875 0.90625q-0.1875 0.390625 -0.53125 0.671875q-0.34375 0.265625 -0.828125 0.40625q-0.46875 0.140625 -1.046875 0.140625q-0.34375 0 -0.671875 -0.0625q-0.3125 -0.046875 -0.578125 -0.125q-0.25 -0.09375 -0.421875 -0.1875q-0.171875 -0.09375 -0.25 -0.15625q-0.078125 -0.078125 -0.125 -0.203125q-0.03125 -0.140625 -0.03125 -0.359375q0 -0.140625 0.015625 -0.234375q0.015625 -0.109375 0.03125 -0.15625q0.03125 -0.0625 0.0625 -0.078125q0.046875 -0.03125 0.09375 -0.03125q0.078125 0 0.234375 0.09375q0.15625 0.09375 0.390625 0.21875q0.234375 0.109375 0.546875 0.21875q0.3125 0.09375 0.734375 0.09375q0.296875 0 0.546875 -0.0625q0.25 -0.0625 0.4375 -0.1875q0.1875 -0.140625 0.28125 -0.328125q0.09375 -0.203125 0.09375 -0.46875q0 -0.28125 -0.140625 -0.46875q-0.140625 -0.203125 -0.375 -0.34375q-0.234375 -0.140625 -0.53125 -0.25q-0.296875 -0.125 -0.609375 -0.25q-0.296875 -0.125 -0.59375 -0.2812481q-0.296875 -0.15625 -0.53125 -0.375q-0.234375 -0.234375 -0.390625 -0.546875q-0.140625 -0.3125 -0.140625 -0.765625q0 -0.375 0.15625 -0.734375q0.15625 -0.359375 0.453125 -0.625q0.296875 -0.265625 0.75 -0.421875q0.453125 -0.171875 1.046875 -0.171875q0.265625 0 0.53125 0.046875q0.265625 0.046875 0.46875 0.109375q0.21875 0.0625 0.359375 0.140625q0.15625 0.078125 0.234375 0.140625q0.078125 0.0625 0.09375 0.109375q0.03125 0.03125 0.046875 0.09375q0.015625 0.046875 0.015625 0.140625q0.015625 0.078125 0.015625 0.1875q0 0.125 -0.015625 0.21875q0 0.09375 -0.03125 0.15625q-0.03125 0.046875 -0.0625 0.078125q-0.03125 0.03125 -0.078125 0.03125q-0.0625 0 -0.1875 -0.078125q-0.125 -0.09375 -0.328125 -0.171875q-0.203125 -0.09375 -0.46875 -0.171875q-0.265625 -0.09375 -0.609375 -0.09375q-0.3125 0 -0.546875 0.078125q-0.234375 0.0625 -0.390625 0.203125q-0.140625 0.125 -0.21875 0.296875q-0.078125 0.171875 -0.078125 0.375q0 0.296875 0.140625 0.484375q0.15625 0.1875 0.390625 0.34375q0.234375 0.140625 0.53125 0.265625q0.3125 0.109375 0.609375 0.234375q0.3125 0.125 0.609375 0.28125q0.3125 0.15625 0.546875 0.3749981q0.234375 0.21875 0.375 0.53125q0.15625 0.296875 0.15625 0.71875zm5.0135193 1.3125q0 0.21875 -0.03125 0.34375q-0.03125 0.125 -0.09375 0.1875q-0.046875 0.046875 -0.171875 0.109375q-0.109375 0.046875 -0.265625 0.078125q-0.140625 0.03125 -0.3125 0.046875q-0.171875 0.03125 -0.34375 0.03125q-0.515625 0 -0.875 -0.125q-0.359375 -0.140625 -0.59375 -0.421875q-0.234375 -0.28125 -0.34375 -0.6875q-0.109375 -0.421875 -0.109375 -1.0l0 -3.859373l-0.921875 0q-0.109375 0 -0.1875 -0.109375q-0.0625 -0.125 -0.0625 -0.375q0 -0.140625 0.015625 -0.234375q0.03125 -0.109375 0.0625 -0.171875q0.03125 -0.0625 0.078125 -0.078125q0.046875 -0.03125 0.09375 -0.03125l0.921875 0l0 -1.5625q0 -0.046875 0.015625 -0.09375q0.03125 -0.046875 0.09375 -0.078125q0.078125 -0.03125 0.1875 -0.046875q0.125 -0.015625 0.296875 -0.015625q0.1875 0 0.296875 0.015625q0.125 0.015625 0.1875 0.046875q0.078125 0.03125 0.09375 0.078125q0.03125 0.046875 0.03125 0.09375l0 1.5625l1.703125 0q0.046875 0 0.09375 0.03125q0.046875 0.015625 0.078125 0.078125q0.03125 0.0625 0.046875 0.171875q0.015625 0.09375 0.015625 0.234375q0 0.25 -0.0625 0.375q-0.0625 0.109375 -0.171875 0.109375l-1.703125 0l0 3.687498q0 0.671875 0.203125 1.03125q0.203125 0.34375 0.71875 0.34375q0.171875 0 0.296875 -0.03125q0.140625 -0.03125 0.234375 -0.0625q0.109375 -0.046875 0.1875 -0.078125q0.078125 -0.03125 0.125 -0.03125q0.046875 0 0.078125 0.015625q0.03125 0.015625 0.046875 0.078125q0.015625 0.046875 0.03125 0.140625q0.015625 0.078125 0.015625 0.203125zm5.3311462 -5.671873q0 0.15625 -0.015625 0.265625q0 0.109375 -0.015625 0.171875q-0.015625 0.0625 -0.0625 0.109375q-0.03125 0.03125 -0.078125 0.03125q-0.0625 0 -0.15625 -0.03125q-0.078125 -0.046875 -0.1875 -0.078125q-0.109375 -0.03125 -0.234375 -0.0625q-0.125 -0.03125 -0.28125 -0.03125q-0.1875 0 -0.359375 0.078125q-0.171875 0.078125 -0.375 0.25q-0.1875 0.15625 -0.40625 0.4375q-0.21875 0.28125 -0.46875 0.6875l0 4.328123q0 0.0625 -0.03125 0.109375q-0.03125 0.03125 -0.09375 0.0625q-0.0625 0.03125 -0.1875 0.046875q-0.109375 0.015625 -0.296875 0.015625q-0.171875 0 -0.296875 -0.015625q-0.109375 -0.015625 -0.1875 -0.046875q-0.0625 -0.03125 -0.09375 -0.0625q-0.015625 -0.046875 -0.015625 -0.109375l0 -6.593748q0 -0.046875 0.015625 -0.09375q0.03125 -0.046875 0.09375 -0.078125q0.0625 -0.03125 0.15625 -0.03125q0.109375 -0.015625 0.28125 -0.015625q0.15625 0 0.265625 0.015625q0.109375 0 0.15625 0.03125q0.0625 0.03125 0.09375 0.078125q0.03125 0.046875 0.03125 0.09375l0 0.96875q0.265625 -0.40625 0.5 -0.640625q0.234375 -0.25 0.453125 -0.390625q0.21875 -0.15625 0.421875 -0.203125q0.203125 -0.0625 0.421875 -0.0625q0.09375 0 0.203125 0.015625q0.125 0.015625 0.25 0.046875q0.140625 0.015625 0.25 0.0625q0.109375 0.03125 0.15625 0.078125q0.046875 0.03125 0.046875 0.0625q0.015625 0.03125 0.03125 0.09375q0.015625 0.046875 0.015625 0.140625q0 0.09375 0 0.265625zm6.2346497 6.171873q0 0.078125 -0.0625 0.125q-0.0625 0.046875 -0.171875 0.0625q-0.09375 0.03125 -0.296875 0.03125q-0.1875 0 -0.296875 -0.03125q-0.109375 -0.015625 -0.171875 -0.0625q-0.046875 -0.046875 -0.046875 -0.125l0 -0.65625q-0.4375 0.453125 -0.96875 0.71875q-0.53125 0.25 -1.125 0.25q-0.515625 0 -0.9375 -0.140625q-0.421875 -0.125 -0.71875 -0.375q-0.296875 -0.265625 -0.46875 -0.640625q-0.15625 -0.375 -0.15625 -0.859375q0 -0.546875 0.21875 -0.953125q0.234375 -0.421875 0.65625 -0.6874981q0.4375 -0.265625 1.046875 -0.40625q0.609375 -0.140625 1.390625 -0.140625l0.90625 0l0 -0.515625q0 -0.375 -0.09375 -0.65625q-0.078125 -0.296875 -0.265625 -0.484375q-0.171875 -0.203125 -0.453125 -0.296875q-0.28125 -0.109375 -0.703125 -0.109375q-0.4375 0 -0.796875 0.109375q-0.359375 0.109375 -0.625 0.234375q-0.265625 0.125 -0.453125 0.234375q-0.171875 0.109375 -0.265625 0.109375q-0.0625 0 -0.109375 -0.03125q-0.03125 -0.03125 -0.0625 -0.09375q-0.03125 -0.0625 -0.046875 -0.140625q-0.015625 -0.09375 -0.015625 -0.203125q0 -0.1875 0.015625 -0.296875q0.03125 -0.109375 0.125 -0.203125q0.109375 -0.09375 0.34375 -0.21875q0.25 -0.125 0.5625 -0.234375q0.3125 -0.109375 0.6875 -0.171875q0.375 -0.078125 0.75 -0.078125q0.71875 0 1.203125 0.171875q0.5 0.15625 0.8125 0.46875q0.3125 0.3125 0.453125 0.78125q0.140625 0.453125 0.140625 1.0625l0 4.453123zm-1.203125 -3.015625l-1.03125 0q-0.5 0 -0.875 0.09375q-0.359375 0.078125 -0.609375 0.25q-0.234375 0.15625 -0.359375 0.390625q-0.109375 0.21875 -0.109375 0.53125q0 0.515625 0.328125 0.8125q0.328125 0.296875 0.921875 0.296875q0.46875 0 0.875 -0.234375q0.40625 -0.25 0.859375 -0.734375l0 -1.40625zm6.6766357 2.515625q0 0.21875 -0.03125 0.34375q-0.03125 0.125 -0.09375 0.1875q-0.046875 0.046875 -0.171875 0.109375q-0.109375 0.046875 -0.265625 0.078125q-0.140625 0.03125 -0.3125 0.046875q-0.171875 0.03125 -0.34375 0.03125q-0.515625 0 -0.875 -0.125q-0.359375 -0.140625 -0.59375 -0.421875q-0.234375 -0.28125 -0.34375 -0.6875q-0.109375 -0.421875 -0.109375 -1.0l0 -3.859373l-0.921875 0q-0.109375 0 -0.1875 -0.109375q-0.0625 -0.125 -0.0625 -0.375q0 -0.140625 0.015625 -0.234375q0.03125 -0.109375 0.0625 -0.171875q0.03125 -0.0625 0.078125 -0.078125q0.046875 -0.03125 0.09375 -0.03125l0.921875 0l0 -1.5625q0 -0.046875 0.015625 -0.09375q0.03125 -0.046875 0.09375 -0.078125q0.078125 -0.03125 0.1875 -0.046875q0.125 -0.015625 0.296875 -0.015625q0.1875 0 0.296875 0.015625q0.125 0.015625 0.1875 0.046875q0.078125 0.03125 0.09375 0.078125q0.03125 0.046875 0.03125 0.09375l0 1.5625l1.703125 0q0.046875 0 0.09375 0.03125q0.046875 0.015625 0.078125 0.078125q0.03125 0.0625 0.046875 0.171875q0.015625 0.09375 0.015625 0.234375q0 0.25 -0.0625 0.375q-0.0625 0.109375 -0.171875 0.109375l-1.703125 0l0 3.687498q0 0.671875 0.203125 1.03125q0.203125 0.34375 0.71875 0.34375q0.171875 0 0.296875 -0.03125q0.140625 -0.03125 0.234375 -0.0625q0.109375 -0.046875 0.1875 -0.078125q0.078125 -0.03125 0.125 -0.03125q0.046875 0 0.078125 0.015625q0.03125 0.015625 0.046875 0.078125q0.015625 0.046875 0.03125 0.140625q0.015625 0.078125 0.015625 0.203125zm7.1123962 -3.093748q0 0.28125 -0.15625 0.40625q-0.140625 0.12499809 -0.3125 0.12499809l-4.328125 0q0 0.546875 0.109375 0.984375q0.109375 0.4375 0.359375 0.765625q0.265625 0.3125 0.671875 0.484375q0.421875 0.15625 1.015625 0.15625q0.46875 0 0.828125 -0.078125q0.359375 -0.078125 0.625 -0.171875q0.28125 -0.09375 0.453125 -0.171875q0.171875 -0.078125 0.25 -0.078125q0.0625 0 0.09375 0.03125q0.046875 0.015625 0.0625 0.078125q0.03125 0.046875 0.03125 0.140625q0.015625 0.09375 0.015625 0.21875q0 0.09375 -0.015625 0.171875q0 0.0625 -0.015625 0.125q0 0.046875 -0.03125 0.09375q-0.03125 0.046875 -0.078125 0.09375q-0.03125 0.03125 -0.234375 0.125q-0.1875 0.09375 -0.5 0.1875q-0.3125 0.078125 -0.734375 0.140625q-0.40625 0.078125 -0.875 0.078125q-0.8125 0 -1.4375 -0.21875q-0.609375 -0.234375 -1.03125 -0.671875q-0.40625 -0.453125 -0.625 -1.125q-0.203125 -0.6875 -0.203125 -1.5781231q0 -0.84375 0.21875 -1.515625q0.21875 -0.6875 0.625 -1.15625q0.421875 -0.46875 1.0 -0.71875q0.59375 -0.265625 1.3125 -0.265625q0.78125 0 1.328125 0.25q0.546875 0.25 0.890625 0.671875q0.359375 0.421875 0.515625 1.0q0.171875 0.5625 0.171875 1.203125l0 0.21875zm-1.21875 -0.359375q0.015625 -0.953125 -0.421875 -1.484375q-0.4375 -0.546875 -1.3125 -0.546875q-0.453125 0 -0.796875 0.171875q-0.328125 0.15625 -0.5625 0.4375q-0.21875 0.28125 -0.34375 0.65625q-0.125 0.359375 -0.140625 0.765625l3.578125 0zm8.386108 -2.34375q0 0.25 -0.078125 0.375q-0.0625 0.109375 -0.171875 0.109375l-0.9375 0q0.25 0.25 0.34375 0.578125q0.109375 0.3125 0.109375 0.65625q0 0.578125 -0.1875 1.015625q-0.171875 0.4374981 -0.515625 0.7499981q-0.34375 0.296875 -0.8125 0.46875q-0.46875 0.15625 -1.03125 0.15625q-0.40625 0 -0.765625 -0.109375q-0.359375 -0.109375 -0.5625 -0.265625q-0.140625 0.125 -0.21875 0.296875q-0.078125 0.171875 -0.078125 0.390625q0 0.25 0.234375 0.421875q0.234375 0.171875 0.625 0.1875l1.734375 0.0625q0.484375 0.015625 0.890625 0.140625q0.421875 0.125 0.71875 0.34375q0.296875 0.21875 0.46875 0.546875q0.171875 0.328125 0.171875 0.765625q0 0.453125 -0.203125 0.859375q-0.1875 0.40625 -0.578125 0.71875q-0.390625 0.3125 -1.0 0.484375q-0.609375 0.1875 -1.4375 0.1875q-0.796875 0 -1.359375 -0.140625q-0.5625 -0.125 -0.921875 -0.359375q-0.359375 -0.234375 -0.515625 -0.5625q-0.15625 -0.328125 -0.15625 -0.703125q0 -0.25 0.046875 -0.484375q0.0625 -0.21875 0.1875 -0.421875q0.125 -0.203125 0.296875 -0.390625q0.1875 -0.1875 0.421875 -0.375q-0.359375 -0.171875 -0.53125 -0.453125q-0.171875 -0.28125 -0.171875 -0.609375q0 -0.4375 0.171875 -0.78125q0.1875 -0.359375 0.46875 -0.640625q-0.234375 -0.2656231 -0.375 -0.6093731q-0.125 -0.34375 -0.125 -0.828125q0 -0.5625 0.1875 -1.0q0.203125 -0.453125 0.53125 -0.765625q0.34375 -0.3125 0.8125 -0.46875q0.46875 -0.171875 1.03125 -0.171875q0.296875 0 0.546875 0.03125q0.265625 0.03125 0.5 0.09375l1.984375 0q0.125 0 0.1875 0.125q0.0625 0.125 0.0625 0.375zm-1.890625 1.734375q0 -0.671875 -0.375 -1.046875q-0.359375 -0.390625 -1.046875 -0.390625q-0.34375 0 -0.609375 0.125q-0.25 0.109375 -0.421875 0.328125q-0.171875 0.203125 -0.265625 0.46875q-0.078125 0.265625 -0.078125 0.5625q0 0.640625 0.359375 1.015625q0.375 0.3749981 1.046875 0.3749981q0.359375 0 0.609375 -0.10937309q0.265625 -0.109375 0.4375 -0.3125q0.1875 -0.203125 0.265625 -0.46875q0.078125 -0.265625 0.078125 -0.546875zm0.609375 5.218748q0 -0.421875 -0.34375 -0.65625q-0.34375 -0.234375 -0.9375 -0.25l-1.71875 -0.046875q-0.234375 0.171875 -0.390625 0.34375q-0.140625 0.15625 -0.234375 0.3125q-0.078125 0.15625 -0.109375 0.296875q-0.03125 0.140625 -0.03125 0.296875q0 0.484375 0.484375 0.71875q0.484375 0.25 1.34375 0.25q0.546875 0 0.90625 -0.109375q0.375 -0.109375 0.609375 -0.28125q0.234375 -0.171875 0.328125 -0.40625q0.09375 -0.21875 0.09375 -0.46875zm5.6799927 -0.484375l-0.875 2.421875q-0.046875 0.125 -0.234375 0.1875q-0.171875 0.0625 -0.546875 0.0625q-0.1875 0 -0.3125 -0.03125q-0.109375 -0.015625 -0.171875 -0.0625q-0.0625 -0.03125 -0.078125 -0.109375q0 -0.078125 0.046875 -0.171875l0.90625 -2.296875q-0.0625 -0.03125 -0.125 -0.09375q-0.046875 -0.0625 -0.078125 -0.140625l-2.34375 -6.296873q-0.0625 -0.15625 -0.0625 -0.234375q0 -0.09375 0.046875 -0.140625q0.0625 -0.0625 0.1875 -0.078125q0.140625 -0.015625 0.359375 -0.015625q0.21875 0 0.34375 0.015625q0.125 0 0.203125 0.03125q0.078125 0.03125 0.109375 0.09375q0.03125 0.046875 0.0625 0.140625l1.890625 5.296873l0.015625 0l1.8125 -5.328123q0.046875 -0.140625 0.109375 -0.171875q0.0625 -0.046875 0.1875 -0.0625q0.125 -0.015625 0.359375 -0.015625q0.203125 0 0.328125 0.015625q0.140625 0.015625 0.203125 0.078125q0.0625 0.046875 0.0625 0.140625q0 0.078125 -0.046875 0.203125l-2.359375 6.562498z" fill-rule="nonzero"></path><path fill="#005eb8" d="m261.00415 28.779673l0 0c0 -6.2373257 5.056366 -11.293676 11.293671 -11.293676l0 0c2.9952698 0 5.867859 1.189867 7.98584 3.3078423c2.117981 2.1179752 3.3078613 4.9905643 3.3078613 7.985834l0 0c0 6.2373257 -5.056366 11.293676 -11.293701 11.293676l0 0c-6.2373047 0 -11.293671 -5.0563507 -11.293671 -11.293676z" fill-rule="evenodd"></path><path stroke="#434343" stroke-width="2.0" stroke-linejoin="round" stroke-linecap="butt" d="m261.00415 28.779673l0 0c0 -6.2373257 5.056366 -11.293676 11.293671 -11.293676l0 0c2.9952698 0 5.867859 1.189867 7.98584 3.3078423c2.117981 2.1179752 3.3078613 4.9905643 3.3078613 7.985834l0 0c0 6.2373257 -5.056366 11.293676 -11.293701 11.293676l0 0c-6.2373047 0 -11.293671 -5.0563507 -11.293671 -11.293676z" fill-rule="evenodd"></path><path fill="#000000" fill-opacity="0.0" d="m289.04446 40.839893l134.38614 0l0 33.065136l-134.38614 0z" fill-rule="evenodd"></path><path fill="#434343" d="m305.29446 60.37302q0 0.796875 -0.21875 1.484375q-0.203125 0.671875 -0.625 1.171875q-0.421875 0.484375 -1.0625 0.765625q-0.625 0.2656212 -1.46875 0.2656212q-0.8125 0 -1.421875 -0.23437119q-0.59375 -0.25 -1.0 -0.703125q-0.390625 -0.46875 -0.59375 -1.125q-0.203125 -0.65625 -0.203125 -1.5q0 -0.796875 0.203125 -1.46875q0.21875 -0.6875 0.640625 -1.171875q0.421875 -0.5 1.046875 -0.765625q0.625 -0.28125 1.46875 -0.28125q0.8125 0 1.421875 0.25q0.609375 0.234375 1.0 0.703125q0.40625 0.453125 0.609375 1.125q0.203125 0.65625 0.203125 1.484375zm-1.265625 0.078125q0 -0.53125 -0.109375 -1.0q-0.09375 -0.484375 -0.328125 -0.84375q-0.21875 -0.359375 -0.609375 -0.5625q-0.390625 -0.21875 -0.96875 -0.21875q-0.53125 0 -0.921875 0.1875q-0.375 0.1875 -0.625 0.546875q-0.25 0.34375 -0.375 0.828125q-0.125 0.46875 -0.125 1.03125q0 0.546875 0.09375 1.03125q0.109375 0.46875 0.328125 0.828125q0.234375 0.34375 0.625 0.5625q0.390625 0.203125 0.96875 0.203125q0.53125 0 0.921875 -0.1875q0.390625 -0.203125 0.640625 -0.546875q0.25 -0.34375 0.359375 -0.8125q0.125 -0.484375 0.125 -1.046875zm8.541382 3.28125q0 0.0625 -0.03125 0.109375q-0.03125 0.03125 -0.09375 0.0625q-0.0625 0.03125 -0.1875 0.046875q-0.109375 0.015625 -0.28125 0.015625q-0.1875 0 -0.3125 -0.015625q-0.109375 -0.015625 -0.1875 -0.046875q-0.0625 -0.03125 -0.09375 -0.0625q-0.015625 -0.046875 -0.015625 -0.109375l0 -3.859375q0 -0.5625 -0.09375 -0.90625q-0.09375 -0.34375 -0.265625 -0.59375q-0.15625 -0.25 -0.421875 -0.375q-0.265625 -0.140625 -0.625 -0.140625q-0.453125 0 -0.90625 0.328125q-0.453125 0.328125 -0.953125 0.9375l0 4.609375q0 0.0625 -0.03125 0.109375q-0.03125 0.03125 -0.09375 0.0625q-0.0625 0.03125 -0.1875 0.046875q-0.109375 0.015625 -0.296875 0.015625q-0.171875 0 -0.296875 -0.015625q-0.109375 -0.015625 -0.1875 -0.046875q-0.0625 -0.03125 -0.09375 -0.0625q-0.015625 -0.046875 -0.015625 -0.109375l0 -6.59375q0 -0.046875 0.015625 -0.09375q0.03125 -0.046875 0.09375 -0.078125q0.0625 -0.03125 0.15625 -0.03125q0.109375 -0.015625 0.28125 -0.015625q0.15625 0 0.265625 0.015625q0.109375 0 0.15625 0.03125q0.0625 0.03125 0.09375 0.078125q0.03125 0.046875 0.03125 0.09375l0 0.875q0.546875 -0.625 1.09375 -0.90625q0.5625 -0.296875 1.125 -0.296875q0.65625 0 1.109375 0.234375q0.453125 0.21875 0.734375 0.59375q0.28125 0.375 0.390625 0.875q0.125 0.5 0.125 1.203125l0 4.015625zm7.9815063 -6.515625q0 0.71875 -0.234375 1.296875q-0.234375 0.5625 -0.671875 0.96875q-0.421875 0.390625 -1.0625 0.609375q-0.640625 0.21875 -1.515625 0.21875l-1.078125 0l0 3.421875q0 0.0625 -0.03125 0.109375q-0.03125 0.03125 -0.109375 0.0625q-0.0625 0.015625 -0.1875 0.03125q-0.109375 0.03125 -0.296875 0.03125q-0.1875 0 -0.3125 -0.03125q-0.109375 -0.015625 -0.1875 -0.03125q-0.078125 -0.03125 -0.109375 -0.0625q-0.015625 -0.046875 -0.015625 -0.109375l0 -8.75q0 -0.296875 0.140625 -0.421875q0.15625 -0.125 0.359375 -0.125l2.015625 0q0.3125 0 0.59375 0.03125q0.28125 0.03125 0.65625 0.109375q0.390625 0.078125 0.78125 0.3125q0.40625 0.234375 0.6875 0.578125q0.28125 0.328125 0.421875 0.78125q0.15625 0.4375 0.15625 0.96875zm-1.328125 0.109375q0 -0.578125 -0.21875 -0.96875q-0.203125 -0.390625 -0.53125 -0.578125q-0.3125 -0.1875 -0.65625 -0.234375q-0.34375 -0.0625 -0.65625 -0.0625l-1.171875 0l0 3.796875l1.140625 0q0.5625 0 0.9375 -0.140625q0.390625 -0.140625 0.640625 -0.40625q0.265625 -0.265625 0.390625 -0.625q0.125 -0.359375 0.125 -0.78125zm8.587067 6.40625q0 0.0625 -0.03125 0.109375q-0.015625 0.03125 -0.09375 0.0625q-0.0625 0.03125 -0.171875 0.046875q-0.09375 0.015625 -0.25 0.015625q-0.171875 0 -0.28125 -0.015625q-0.09375 -0.015625 -0.15625 -0.046875q-0.0625 -0.03125 -0.09375 -0.0625q-0.015625 -0.046875 -0.015625 -0.109375l0 -0.875q-0.5625 0.625 -1.125 0.921875q-0.546875 0.2812462 -1.109375 0.2812462q-0.65625 0 -1.109375 -0.21874619q-0.453125 -0.21875 -0.734375 -0.59375q-0.265625 -0.390625 -0.390625 -0.890625q-0.125 -0.5 -0.125 -1.21875l0 -4.0q0 -0.046875 0.03125 -0.09375q0.03125 -0.046875 0.09375 -0.078125q0.078125 -0.03125 0.1875 -0.03125q0.125 -0.015625 0.296875 -0.015625q0.1875 0 0.296875 0.015625q0.125 0 0.1875 0.03125q0.0625 0.03125 0.09375 0.078125q0.03125 0.046875 0.03125 0.09375l0 3.84375q0 0.578125 0.078125 0.9375q0.09375 0.34375 0.265625 0.59375q0.171875 0.234375 0.4375 0.375q0.265625 0.125 0.609375 0.125q0.453125 0 0.90625 -0.3125q0.453125 -0.328125 0.953125 -0.953125l0 -4.609375q0 -0.046875 0.03125 -0.09375q0.03125 -0.046875 0.09375 -0.078125q0.078125 -0.03125 0.1875 -0.03125q0.125 -0.015625 0.296875 -0.015625q0.171875 0 0.28125 0.015625q0.125 0 0.1875 0.03125q0.078125 0.03125 0.109375 0.078125q0.03125 0.046875 0.03125 0.09375l0 6.59375zm6.2002563 -1.796875q0 0.515625 -0.1875 0.90625q-0.1875 0.390625 -0.53125 0.671875q-0.34375 0.265625 -0.828125 0.40625q-0.46875 0.14062119 -1.046875 0.14062119q-0.34375 0 -0.671875 -0.062496185q-0.3125 -0.046875 -0.578125 -0.125q-0.25 -0.09375 -0.421875 -0.1875q-0.171875 -0.09375 -0.25 -0.15625q-0.078125 -0.078125 -0.125 -0.203125q-0.03125 -0.140625 -0.03125 -0.359375q0 -0.140625 0.015625 -0.234375q0.015625 -0.109375 0.03125 -0.15625q0.03125 -0.0625 0.0625 -0.078125q0.046875 -0.03125 0.09375 -0.03125q0.078125 0 0.234375 0.09375q0.15625 0.09375 0.390625 0.21875q0.234375 0.109375 0.546875 0.21875q0.3125 0.09375 0.734375 0.09375q0.296875 0 0.546875 -0.0625q0.25 -0.0625 0.4375 -0.1875q0.1875 -0.140625 0.28125 -0.328125q0.09375 -0.203125 0.09375 -0.46875q0 -0.28125 -0.140625 -0.46875q-0.140625 -0.203125 -0.375 -0.34375q-0.234375 -0.140625 -0.53125 -0.25q-0.296875 -0.125 -0.609375 -0.25q-0.296875 -0.125 -0.59375 -0.28125q-0.296875 -0.15625 -0.53125 -0.375q-0.234375 -0.234375 -0.390625 -0.546875q-0.140625 -0.3125 -0.140625 -0.765625q0 -0.375 0.15625 -0.734375q0.15625 -0.359375 0.453125 -0.625q0.296875 -0.265625 0.75 -0.421875q0.453125 -0.171875 1.046875 -0.171875q0.265625 0 0.53125 0.046875q0.265625 0.046875 0.46875 0.109375q0.21875 0.0625 0.359375 0.140625q0.15625 0.078125 0.234375 0.140625q0.078125 0.0625 0.09375 0.109375q0.03125 0.03125 0.046875 0.09375q0.015625 0.046875 0.015625 0.140625q0.015625 0.078125 0.015625 0.1875q0 0.125 -0.015625 0.21875q0 0.09375 -0.03125 0.15625q-0.03125 0.046875 -0.0625 0.078125q-0.03125 0.03125 -0.078125 0.03125q-0.0625 0 -0.1875 -0.078125q-0.125 -0.09375 -0.328125 -0.171875q-0.203125 -0.09375 -0.46875 -0.171875q-0.265625 -0.09375 -0.609375 -0.09375q-0.3125 0 -0.546875 0.078125q-0.234375 0.0625 -0.390625 0.203125q-0.140625 0.125 -0.21875 0.296875q-0.078125 0.171875 -0.078125 0.375q0 0.296875 0.140625 0.484375q0.15625 0.1875 0.390625 0.34375q0.234375 0.140625 0.53125 0.265625q0.3125 0.109375 0.609375 0.234375q0.3125 0.125 0.609375 0.28125q0.3125 0.15625 0.546875 0.375q0.234375 0.21875 0.375 0.53125q0.15625 0.296875 0.15625 0.71875zm7.263489 1.796875q0 0.0625 -0.03125 0.109375q-0.03125 0.03125 -0.09375 0.0625q-0.0625 0.03125 -0.1875 0.046875q-0.109375 0.015625 -0.28125 0.015625q-0.1875 0 -0.3125 -0.015625q-0.109375 -0.015625 -0.1875 -0.046875q-0.0625 -0.03125 -0.09375 -0.0625q-0.015625 -0.046875 -0.015625 -0.109375l0 -3.859375q0 -0.5625 -0.09375 -0.90625q-0.09375 -0.34375 -0.265625 -0.59375q-0.15625 -0.25 -0.421875 -0.375q-0.265625 -0.140625 -0.625 -0.140625q-0.453125 0 -0.90625 0.328125q-0.453125 0.328125 -0.953125 0.9375l0 4.609375q0 0.0625 -0.03125 0.109375q-0.03125 0.03125 -0.09375 0.0625q-0.0625 0.03125 -0.1875 0.046875q-0.109375 0.015625 -0.296875 0.015625q-0.171875 0 -0.296875 -0.015625q-0.109375 -0.015625 -0.1875 -0.046875q-0.0625 -0.03125 -0.09375 -0.0625q-0.015625 -0.046875 -0.015625 -0.109375l0 -9.78125q0 -0.0625 0.015625 -0.09375q0.03125 -0.046875 0.09375 -0.078125q0.078125 -0.03125 0.1875 -0.046875q0.125 -0.015625 0.296875 -0.015625q0.1875 0 0.296875 0.015625q0.125 0.015625 0.1875 0.046875q0.0625 0.03125 0.09375 0.078125q0.03125 0.03125 0.03125 0.09375l0 3.953125q0.515625 -0.546875 1.046875 -0.8125q0.53125 -0.28125 1.0625 -0.28125q0.65625 0 1.109375 0.234375q0.453125 0.21875 0.734375 0.59375q0.28125 0.375 0.390625 0.875q0.125 0.5 0.125 1.203125l0 4.015625zm9.482422 -1.796875q0 0.515625 -0.1875 0.90625q-0.1875 0.390625 -0.53125 0.671875q-0.34375 0.265625 -0.828125 0.40625q-0.46875 0.14062119 -1.046875 0.14062119q-0.34375 0 -0.671875 -0.062496185q-0.3125 -0.046875 -0.578125 -0.125q-0.25 -0.09375 -0.421875 -0.1875q-0.171875 -0.09375 -0.25 -0.15625q-0.078125 -0.078125 -0.125 -0.203125q-0.03125 -0.140625 -0.03125 -0.359375q0 -0.140625 0.015625 -0.234375q0.015625 -0.109375 0.03125 -0.15625q0.03125 -0.0625 0.0625 -0.078125q0.046875 -0.03125 0.09375 -0.03125q0.078125 0 0.234375 0.09375q0.15625 0.09375 0.390625 0.21875q0.234375 0.109375 0.546875 0.21875q0.3125 0.09375 0.734375 0.09375q0.296875 0 0.546875 -0.0625q0.25 -0.0625 0.4375 -0.1875q0.1875 -0.140625 0.28125 -0.328125q0.09375 -0.203125 0.09375 -0.46875q0 -0.28125 -0.140625 -0.46875q-0.140625 -0.203125 -0.375 -0.34375q-0.234375 -0.140625 -0.53125 -0.25q-0.296875 -0.125 -0.609375 -0.25q-0.296875 -0.125 -0.59375 -0.28125q-0.296875 -0.15625 -0.53125 -0.375q-0.234375 -0.234375 -0.390625 -0.546875q-0.140625 -0.3125 -0.140625 -0.765625q0 -0.375 0.15625 -0.734375q0.15625 -0.359375 0.453125 -0.625q0.296875 -0.265625 0.75 -0.421875q0.453125 -0.171875 1.046875 -0.171875q0.265625 0 0.53125 0.046875q0.265625 0.046875 0.46875 0.109375q0.21875 0.0625 0.359375 0.140625q0.15625 0.078125 0.234375 0.140625q0.078125 0.0625 0.09375 0.109375q0.03125 0.03125 0.046875 0.09375q0.015625 0.046875 0.015625 0.140625q0.015625 0.078125 0.015625 0.1875q0 0.125 -0.015625 0.21875q0 0.09375 -0.03125 0.15625q-0.03125 0.046875 -0.0625 0.078125q-0.03125 0.03125 -0.078125 0.03125q-0.0625 0 -0.1875 -0.078125q-0.125 -0.09375 -0.328125 -0.171875q-0.203125 -0.09375 -0.46875 -0.171875q-0.265625 -0.09375 -0.609375 -0.09375q-0.3125 0 -0.546875 0.078125q-0.234375 0.0625 -0.390625 0.203125q-0.140625 0.125 -0.21875 0.296875q-0.078125 0.171875 -0.078125 0.375q0 0.296875 0.140625 0.484375q0.15625 0.1875 0.390625 0.34375q0.234375 0.140625 0.53125 0.265625q0.3125 0.109375 0.609375 0.234375q0.3125 0.125 0.609375 0.28125q0.3125 0.15625 0.546875 0.375q0.234375 0.21875 0.375 0.53125q0.15625 0.296875 0.15625 0.71875zm5.013489 1.3125q0 0.21875 -0.03125 0.34375q-0.03125 0.125 -0.09375 0.1875q-0.046875 0.046875 -0.171875 0.109375q-0.109375 0.046875 -0.265625 0.078125q-0.140625 0.03125 -0.3125 0.046871185q-0.171875 0.03125 -0.34375 0.03125q-0.515625 0 -0.875 -0.124996185q-0.359375 -0.140625 -0.59375 -0.421875q-0.234375 -0.28125 -0.34375 -0.6875q-0.109375 -0.421875 -0.109375 -1.0l0 -3.859375l-0.921875 0q-0.109375 0 -0.1875 -0.109375q-0.0625 -0.125 -0.0625 -0.375q0 -0.140625 0.015625 -0.234375q0.03125 -0.109375 0.0625 -0.171875q0.03125 -0.0625 0.078125 -0.078125q0.046875 -0.03125 0.09375 -0.03125l0.921875 0l0 -1.5625q0 -0.046875 0.015625 -0.09375q0.03125 -0.046875 0.09375 -0.078125q0.078125 -0.03125 0.1875 -0.046875q0.125 -0.015625 0.296875 -0.015625q0.1875 0 0.296875 0.015625q0.125 0.015625 0.1875 0.046875q0.078125 0.03125 0.09375 0.078125q0.03125 0.046875 0.03125 0.09375l0 1.5625l1.703125 0q0.046875 0 0.09375 0.03125q0.046875 0.015625 0.078125 0.078125q0.03125 0.0625 0.046875 0.171875q0.015625 0.09375 0.015625 0.234375q0 0.25 -0.0625 0.375q-0.0625 0.109375 -0.171875 0.109375l-1.703125 0l0 3.6875q0 0.671875 0.203125 1.03125q0.203125 0.34375 0.71875 0.34375q0.171875 0 0.296875 -0.03125q0.140625 -0.03125 0.234375 -0.0625q0.109375 -0.046875 0.1875 -0.078125q0.078125 -0.03125 0.125 -0.03125q0.046875 0 0.078125 0.015625q0.03125 0.015625 0.046875 0.078125q0.015625 0.046875 0.03125 0.140625q0.015625 0.078125 0.015625 0.203125zm5.3311462 -5.671875q0 0.15625 -0.015625 0.265625q0 0.109375 -0.015625 0.171875q-0.015625 0.0625 -0.0625 0.109375q-0.03125 0.03125 -0.078125 0.03125q-0.0625 0 -0.15625 -0.03125q-0.078125 -0.046875 -0.1875 -0.078125q-0.109375 -0.03125 -0.234375 -0.0625q-0.125 -0.03125 -0.28125 -0.03125q-0.1875 0 -0.359375 0.078125q-0.171875 0.078125 -0.375 0.25q-0.1875 0.15625 -0.40625 0.4375q-0.21875 0.28125 -0.46875 0.6875l0 4.328125q0 0.0625 -0.03125 0.109375q-0.03125 0.03125 -0.09375 0.0625q-0.0625 0.03125 -0.1875 0.046875q-0.109375 0.015625 -0.296875 0.015625q-0.171875 0 -0.296875 -0.015625q-0.109375 -0.015625 -0.1875 -0.046875q-0.0625 -0.03125 -0.09375 -0.0625q-0.015625 -0.046875 -0.015625 -0.109375l0 -6.59375q0 -0.046875 0.015625 -0.09375q0.03125 -0.046875 0.09375 -0.078125q0.0625 -0.03125 0.15625 -0.03125q0.109375 -0.015625 0.28125 -0.015625q0.15625 0 0.265625 0.015625q0.109375 0 0.15625 0.03125q0.0625 0.03125 0.09375 0.078125q0.03125 0.046875 0.03125 0.09375l0 0.96875q0.265625 -0.40625 0.5 -0.640625q0.234375 -0.25 0.453125 -0.390625q0.21875 -0.15625 0.421875 -0.203125q0.203125 -0.0625 0.421875 -0.0625q0.09375 0 0.203125 0.015625q0.125 0.015625 0.25 0.046875q0.140625 0.015625 0.25 0.0625q0.109375 0.03125 0.15625 0.078125q0.046875 0.03125 0.046875 0.0625q0.015625 0.03125 0.03125 0.09375q0.015625 0.046875 0.015625 0.140625q0 0.09375 0 0.265625zm6.2346497 6.171875q0 0.078125 -0.0625 0.125q-0.0625 0.046875 -0.171875 0.0625q-0.09375 0.03125 -0.296875 0.03125q-0.1875 0 -0.296875 -0.03125q-0.109375 -0.015625 -0.171875 -0.0625q-0.046875 -0.046875 -0.046875 -0.125l0 -0.65625q-0.4375 0.453125 -0.96875 0.71875q-0.53125 0.24999619 -1.125 0.24999619q-0.515625 0 -0.9375 -0.14062119q-0.421875 -0.125 -0.71875 -0.375q-0.296875 -0.265625 -0.46875 -0.640625q-0.15625 -0.375 -0.15625 -0.859375q0 -0.546875 0.21875 -0.953125q0.234375 -0.421875 0.65625 -0.6875q0.4375 -0.265625 1.046875 -0.40625q0.609375 -0.140625 1.390625 -0.140625l0.90625 0l0 -0.515625q0 -0.375 -0.09375 -0.65625q-0.078125 -0.296875 -0.265625 -0.484375q-0.171875 -0.203125 -0.453125 -0.296875q-0.28125 -0.109375 -0.703125 -0.109375q-0.4375 0 -0.796875 0.109375q-0.359375 0.109375 -0.625 0.234375q-0.265625 0.125 -0.453125 0.234375q-0.171875 0.109375 -0.265625 0.109375q-0.0625 0 -0.109375 -0.03125q-0.03125 -0.03125 -0.0625 -0.09375q-0.03125 -0.0625 -0.046875 -0.140625q-0.015625 -0.09375 -0.015625 -0.203125q0 -0.1875 0.015625 -0.296875q0.03125 -0.109375 0.125 -0.203125q0.109375 -0.09375 0.34375 -0.21875q0.25 -0.125 0.5625 -0.234375q0.3125 -0.109375 0.6875 -0.171875q0.375 -0.078125 0.75 -0.078125q0.71875 0 1.203125 0.171875q0.5 0.15625 0.8125 0.46875q0.3125 0.3125 0.453125 0.78125q0.140625 0.453125 0.140625 1.0625l0 4.453125zm-1.203125 -3.015625l-1.03125 0q-0.5 0 -0.875 0.09375q-0.359375 0.078125 -0.609375 0.25q-0.234375 0.15625 -0.359375 0.390625q-0.109375 0.21875 -0.109375 0.53125q0 0.515625 0.328125 0.8125q0.328125 0.296875 0.921875 0.296875q0.46875 0 0.875 -0.234375q0.40625 -0.25 0.859375 -0.734375l0 -1.40625zm8.754791 -3.28125q0 0.25 -0.078125 0.375q-0.0625 0.109375 -0.171875 0.109375l-0.9375 0q0.25 0.25 0.34375 0.578125q0.109375 0.3125 0.109375 0.65625q0 0.578125 -0.1875 1.015625q-0.171875 0.4375 -0.515625 0.75q-0.34375 0.296875 -0.8125 0.46875q-0.46875 0.15625 -1.03125 0.15625q-0.40625 0 -0.765625 -0.109375q-0.359375 -0.109375 -0.5625 -0.265625q-0.140625 0.125 -0.21875 0.296875q-0.078125 0.171875 -0.078125 0.390625q0 0.25 0.234375 0.421875q0.234375 0.171875 0.625 0.1875l1.734375 0.0625q0.484375 0.015625 0.890625 0.140625q0.421875 0.125 0.71875 0.34375q0.296875 0.21875 0.46875 0.546875q0.171875 0.328125 0.171875 0.7656212q0 0.453125 -0.203125 0.859375q-0.1875 0.40625 -0.578125 0.71875q-0.390625 0.3125 -1.0 0.484375q-0.609375 0.1875 -1.4375 0.1875q-0.796875 0 -1.359375 -0.140625q-0.5625 -0.125 -0.921875 -0.359375q-0.359375 -0.234375 -0.515625 -0.5625q-0.15625 -0.328125 -0.15625 -0.703125q0 -0.25 0.046875 -0.484375q0.0625 -0.21875 0.1875 -0.4218712q0.125 -0.203125 0.296875 -0.390625q0.1875 -0.1875 0.421875 -0.375q-0.359375 -0.171875 -0.53125 -0.453125q-0.171875 -0.28125 -0.171875 -0.609375q0 -0.4375 0.171875 -0.78125q0.1875 -0.359375 0.46875 -0.640625q-0.234375 -0.265625 -0.375 -0.609375q-0.125 -0.34375 -0.125 -0.828125q0 -0.5625 0.1875 -1.0q0.203125 -0.453125 0.53125 -0.765625q0.34375 -0.3125 0.8125 -0.46875q0.46875 -0.171875 1.03125 -0.171875q0.296875 0 0.546875 0.03125q0.265625 0.03125 0.5 0.09375l1.984375 0q0.125 0 0.1875 0.125q0.0625 0.125 0.0625 0.375zm-1.890625 1.734375q0 -0.671875 -0.375 -1.046875q-0.359375 -0.390625 -1.046875 -0.390625q-0.34375 0 -0.609375 0.125q-0.25 0.109375 -0.421875 0.328125q-0.171875 0.203125 -0.265625 0.46875q-0.078125 0.265625 -0.078125 0.5625q0 0.640625 0.359375 1.015625q0.375 0.375 1.046875 0.375q0.359375 0 0.609375 -0.109375q0.265625 -0.109375 0.4375 -0.3125q0.1875 -0.203125 0.265625 -0.46875q0.078125 -0.265625 0.078125 -0.546875zm0.609375 5.218746q0 -0.4218712 -0.34375 -0.6562462q-0.34375 -0.234375 -0.9375 -0.25l-1.71875 -0.046875q-0.234375 0.171875 -0.390625 0.34375q-0.140625 0.15625 -0.234375 0.3124962q-0.078125 0.15625 -0.109375 0.296875q-0.03125 0.140625 -0.03125 0.296875q0 0.484375 0.484375 0.71875q0.484375 0.25 1.34375 0.25q0.546875 0 0.90625 -0.109375q0.375 -0.109375 0.609375 -0.28125q0.234375 -0.171875 0.328125 -0.40625q0.09375 -0.21875 0.09375 -0.46875zm8.304993 -4.249996q0 0.28125 -0.15625 0.40625q-0.140625 0.125 -0.3125 0.125l-4.328125 0q0 0.546875 0.109375 0.984375q0.109375 0.4375 0.359375 0.765625q0.265625 0.3125 0.671875 0.484375q0.421875 0.15625 1.015625 0.15625q0.46875 0 0.828125 -0.078125q0.359375 -0.078125 0.625 -0.171875q0.28125 -0.09375 0.453125 -0.171875q0.171875 -0.078125 0.25 -0.078125q0.0625 0 0.09375 0.03125q0.046875 0.015625 0.0625 0.078125q0.03125 0.046875 0.03125 0.140625q0.015625 0.09375 0.015625 0.21875q0 0.09375 -0.015625 0.171875q0 0.0625 -0.015625 0.125q0 0.046875 -0.03125 0.09375q-0.03125 0.046875 -0.078125 0.09375q-0.03125 0.03125 -0.234375 0.125q-0.1875 0.09375 -0.5 0.1875q-0.3125 0.078125 -0.734375 0.140625q-0.40625 0.078121185 -0.875 0.078121185q-0.8125 0 -1.4375 -0.21874619q-0.609375 -0.234375 -1.03125 -0.671875q-0.40625 -0.453125 -0.625 -1.125q-0.203125 -0.6875 -0.203125 -1.578125q0 -0.84375 0.21875 -1.515625q0.21875 -0.6875 0.625 -1.15625q0.421875 -0.46875 1.0 -0.71875q0.59375 -0.265625 1.3125 -0.265625q0.78125 0 1.328125 0.25q0.546875 0.25 0.890625 0.671875q0.359375 0.421875 0.515625 1.0q0.171875 0.5625 0.171875 1.203125l0 0.21875zm-1.21875 -0.359375q0.015625 -0.953125 -0.421875 -1.484375q-0.4375 -0.546875 -1.3125 -0.546875q-0.453125 0 -0.796875 0.171875q-0.328125 0.15625 -0.5625 0.4375q-0.21875 0.28125 -0.34375 0.65625q-0.125 0.359375 -0.140625 0.765625l3.578125 0zm8.386078 -2.34375q0 0.25 -0.078125 0.375q-0.0625 0.109375 -0.171875 0.109375l-0.9375 0q0.25 0.25 0.34375 0.578125q0.109375 0.3125 0.109375 0.65625q0 0.578125 -0.1875 1.015625q-0.171875 0.4375 -0.515625 0.75q-0.34375 0.296875 -0.8125 0.46875q-0.46875 0.15625 -1.03125 0.15625q-0.40625 0 -0.765625 -0.109375q-0.359375 -0.109375 -0.5625 -0.265625q-0.140625 0.125 -0.21875 0.296875q-0.078125 0.171875 -0.078125 0.390625q0 0.25 0.234375 0.421875q0.234375 0.171875 0.625 0.1875l1.734375 0.0625q0.484375 0.015625 0.890625 0.140625q0.421875 0.125 0.71875 0.34375q0.296875 0.21875 0.46875 0.546875q0.171875 0.328125 0.171875 0.7656212q0 0.453125 -0.203125 0.859375q-0.1875 0.40625 -0.578125 0.71875q-0.390625 0.3125 -1.0 0.484375q-0.609375 0.1875 -1.4375 0.1875q-0.796875 0 -1.359375 -0.140625q-0.5625 -0.125 -0.921875 -0.359375q-0.359375 -0.234375 -0.515625 -0.5625q-0.15625 -0.328125 -0.15625 -0.703125q0 -0.25 0.046875 -0.484375q0.0625 -0.21875 0.1875 -0.4218712q0.125 -0.203125 0.296875 -0.390625q0.1875 -0.1875 0.421875 -0.375q-0.359375 -0.171875 -0.53125 -0.453125q-0.171875 -0.28125 -0.171875 -0.609375q0 -0.4375 0.171875 -0.78125q0.1875 -0.359375 0.46875 -0.640625q-0.234375 -0.265625 -0.375 -0.609375q-0.125 -0.34375 -0.125 -0.828125q0 -0.5625 0.1875 -1.0q0.203125 -0.453125 0.53125 -0.765625q0.34375 -0.3125 0.8125 -0.46875q0.46875 -0.171875 1.03125 -0.171875q0.296875 0 0.546875 0.03125q0.265625 0.03125 0.5 0.09375l1.984375 0q0.125 0 0.1875 0.125q0.0625 0.125 0.0625 0.375zm-1.890625 1.734375q0 -0.671875 -0.375 -1.046875q-0.359375 -0.390625 -1.046875 -0.390625q-0.34375 0 -0.609375 0.125q-0.25 0.109375 -0.421875 0.328125q-0.171875 0.203125 -0.265625 0.46875q-0.078125 0.265625 -0.078125 0.5625q0 0.640625 0.359375 1.015625q0.375 0.375 1.046875 0.375q0.359375 0 0.609375 -0.109375q0.265625 -0.109375 0.4375 -0.3125q0.1875 -0.203125 0.265625 -0.46875q0.078125 -0.265625 0.078125 -0.546875zm0.609375 5.218746q0 -0.4218712 -0.34375 -0.6562462q-0.34375 -0.234375 -0.9375 -0.25l-1.71875 -0.046875q-0.234375 0.171875 -0.390625 0.34375q-0.140625 0.15625 -0.234375 0.3124962q-0.078125 0.15625 -0.109375 0.296875q-0.03125 0.140625 -0.03125 0.296875q0 0.484375 0.484375 0.71875q0.484375 0.25 1.34375 0.25q0.546875 0 0.90625 -0.109375q0.375 -0.109375 0.609375 -0.28125q0.234375 -0.171875 0.328125 -0.40625q0.09375 -0.21875 0.09375 -0.46875zm5.6799927 -0.4843712l-0.875 2.4218712q-0.046875 0.125 -0.234375 0.1875q-0.171875 0.0625 -0.546875 0.0625q-0.1875 0 -0.3125 -0.03125q-0.109375 -0.015625 -0.171875 -0.0625q-0.0625 -0.03125 -0.078125 -0.109375q0 -0.078125 0.046875 -0.171875l0.90625 -2.2968712q-0.0625 -0.03125 -0.125 -0.09375q-0.046875 -0.0625 -0.078125 -0.140625l-2.34375 -6.296875q-0.0625 -0.15625 -0.0625 -0.234375q0 -0.09375 0.046875 -0.140625q0.0625 -0.0625 0.1875 -0.078125q0.140625 -0.015625 0.359375 -0.015625q0.21875 0 0.34375 0.015625q0.125 0 0.203125 0.03125q0.078125 0.03125 0.109375 0.09375q0.03125 0.046875 0.0625 0.140625l1.890625 5.296875l0.015625 0l1.8125 -5.328125q0.046875 -0.140625 0.109375 -0.171875q0.0625 -0.046875 0.1875 -0.0625q0.125 -0.015625 0.359375 -0.015625q0.203125 0 0.328125 0.015625q0.140625 0.015625 0.203125 0.078125q0.0625 0.046875 0.0625 0.140625q0 0.078125 -0.046875 0.203125l-2.359375 6.5625z" fill-rule="nonzero"></path><path fill="#6d9eeb" d="m261.00415 57.37285l0 0c0 -6.2373238 5.056366 -11.293674 11.293671 -11.293674l0 0c2.9952698 0 5.867859 1.1898651 7.98584 3.3078384c2.117981 2.1179771 3.3078613 4.9905663 3.3078613 7.985836l0 0c0 6.2373238 -5.056366 11.293678 -11.293701 11.293678l0 0c-6.2373047 0 -11.293671 -5.0563545 -11.293671 -11.293678z" fill-rule="evenodd"></path><path stroke="#434343" stroke-width="2.0" stroke-linejoin="round" stroke-linecap="butt" d="m261.00415 57.37285l0 0c0 -6.2373238 5.056366 -11.293674 11.293671 -11.293674l0 0c2.9952698 0 5.867859 1.1898651 7.98584 3.3078384c2.117981 2.1179771 3.3078613 4.9905663 3.3078613 7.985836l0 0c0 6.2373238 -5.056366 11.293678 -11.293701 11.293678l0 0c-6.2373047 0 -11.293671 -5.0563545 -11.293671 -11.293678z" fill-rule="evenodd"></path></g></svg>

