<?xml version="1.0" standalone="yes"?>

<svg version="1.1" viewBox="0.0 0.0 835.7034120734908 475.46456692913387" fill="none" stroke="none" stroke-linecap="square" stroke-miterlimit="10" xmlns="http://www.w3.org/2000/svg" xmlns:xlink="http://www.w3.org/1999/xlink"><clipPath id="p.0"><path d="m0 0l835.7034 0l0 475.46457l-835.7034 0l0 -475.46457z" clip-rule="nonzero"></path></clipPath><g clip-path="url(#p.0)"><path fill="#000000" fill-opacity="0.0" d="m0 0l835.7034 0l0 475.46457l-835.7034 0z" fill-rule="nonzero"></path><path fill="#000000" fill-opacity="0.0" d="m655.73267 323.7917l83.685 86.55118" fill-rule="nonzero"></path><path stroke="#434343" stroke-width="3.0" stroke-linejoin="round" stroke-linecap="butt" d="m655.73267 323.7917l75.78168 78.37717" fill-rule="evenodd"></path><path fill="#434343" stroke="#434343" stroke-width="3.0" stroke-linecap="butt" d="m738.375 409.2645c-1.9594116 1.8945007 -5.083618 1.841919 -6.9781494 -0.117492676c-1.8945312 -1.9594116 -1.841919 -5.0836487 0.117492676 -6.9781494c1.9594116 -1.8945312 5.083618 -1.841919 6.9781494 0.11746216c1.8945312 1.9594116 1.841919 5.0836487 -0.117492676 6.97818z" fill-rule="nonzero"></path><path fill="#000000" fill-opacity="0.0" d="m566.60144 323.00427l-84.31497 87.33859" fill-rule="nonzero"></path><path stroke="#434343" stroke-width="3.0" stroke-linejoin="round" stroke-linecap="butt" d="m566.60144 323.00427l-76.418 79.15842" fill-rule="evenodd"></path><path fill="#434343" stroke="#434343" stroke-width="3.0" stroke-linecap="butt" d="m483.32828 409.26367c-1.9608765 -1.8930054 -2.0159302 -5.0171814 -0.122924805 -6.978058c1.8930054 -1.9608765 5.0171814 -2.0158997 6.978058 -0.122924805c1.9608765 1.8930054 2.0159302 5.0171814 0.122924805 6.978058c-1.8930054 1.9608765 -5.0171814 2.0159302 -6.978058 0.122924805z" fill-rule="nonzero"></path><path fill="#000000" fill-opacity="0.0" d="m179.64342 188.32712l-84.314964 87.33859" fill-rule="nonzero"></path><path stroke="#434343" stroke-width="3.0" stroke-linejoin="round" stroke-linecap="butt" d="m179.64342 188.32712l-76.41801 79.15842" fill-rule="evenodd"></path><path fill="#434343" stroke="#434343" stroke-width="3.0" stroke-linecap="butt" d="m96.37027 274.58652c-1.9608841 -1.8929749 -2.015915 -5.0171814 -0.122917175 -6.978058c1.8929977 -1.9608765 5.0171814 -2.0158997 6.978058 -0.122924805c1.9608841 1.8930054 2.015915 5.0171814 0.122917175 6.9780884c-1.8929977 1.9608765 -5.0171814 2.0158997 -6.978058 0.12289429z" fill-rule="nonzero"></path><path fill="#000000" fill-opacity="0.0" d="m524.77466 189.11452l83.685 86.55119" fill-rule="nonzero"></path><path stroke="#434343" stroke-width="3.0" stroke-linejoin="round" stroke-linecap="butt" d="m524.77466 189.11452l75.78168 78.37718" fill-rule="evenodd"></path><path fill="#434343" stroke="#434343" stroke-width="3.0" stroke-linecap="butt" d="m607.41705 274.58734c-1.9594116 1.8945312 -5.083679 1.841919 -6.9781494 -0.117492676c-1.8945312 -1.9594116 -1.841919 -5.083618 0.11743164 -6.9781494c1.9594116 -1.8945312 5.083679 -1.841919 6.9782104 0.117492676c1.8944702 1.9594116 1.841919 5.083618 -0.117492676 6.9781494z" fill-rule="nonzero"></path><path fill="#000000" fill-opacity="0.0" d="m435.6434 188.32712l-84.31494 87.33859" fill-rule="nonzero"></path><path stroke="#434343" stroke-width="3.0" stroke-linejoin="round" stroke-linecap="butt" d="m435.6434 188.32712l-76.418 79.15842" fill-rule="evenodd"></path><path fill="#434343" stroke="#434343" stroke-width="3.0" stroke-linecap="butt" d="m352.37027 274.58652c-1.9608765 -1.8929749 -2.0158997 -5.0171814 -0.122924805 -6.978058c1.8930054 -1.9608765 5.0171814 -2.0158997 6.978058 -0.122924805c1.9608765 1.8930054 2.0159302 5.0171814 0.122924805 6.9780884c-1.8930054 1.9608765 -5.0171814 2.0158997 -6.978058 0.12289429z" fill-rule="nonzero"></path><path fill="#000000" fill-opacity="0.0" d="m393.66928 53.114513l83.68506 86.55118" fill-rule="nonzero"></path><path stroke="#434343" stroke-width="3.0" stroke-linejoin="round" stroke-linecap="butt" d="m393.66928 53.114517l75.78171 78.37717" fill-rule="evenodd"></path><path fill="#434343" stroke="#434343" stroke-width="3.0" stroke-linecap="butt" d="m476.31168 138.58733c-1.9594116 1.894516 -5.0836487 1.841919 -6.9781494 -0.11747742c-1.8945312 -1.9594116 -1.841919 -5.0836334 0.117492676 -6.9781647c1.9593811 -1.894516 5.083618 -1.841919 6.9781494 0.117492676c1.8945007 1.9593964 1.841919 5.0836334 -0.117492676 6.9781494z" fill-rule="nonzero"></path><path fill="#000000" fill-opacity="0.0" d="m304.53806 52.327114l-84.31496 87.33858" fill-rule="nonzero"></path><path stroke="#434343" stroke-width="3.0" stroke-linejoin="round" stroke-linecap="butt" d="m304.53806 52.327114l-76.418 79.15843" fill-rule="evenodd"></path><path fill="#434343" stroke="#434343" stroke-width="3.0" stroke-linecap="butt" d="m221.26491 138.58652c-1.9608765 -1.8929901 -2.015915 -5.0171814 -0.122909546 -6.978058c1.8929901 -1.9608917 5.0171814 -2.015915 6.978058 -0.122924805c1.9608765 1.8930054 2.015915 5.0171814 0.122924805 6.978073c-1.8930054 1.9608765 -5.0171814 2.0158997 -6.978073 0.122909546z" fill-rule="nonzero"></path><path fill="#bf9000" d="m131.29396 148.88898l0 0c0 -5.093872 4.12941 -9.223282 9.223282 -9.223282l159.41171 0c2.446167 0 4.792145 0.9717407 6.5218506 2.7014313c1.7296753 1.7297058 2.701416 4.0756836 2.701416 6.5218506l0 36.892014c0 5.0938873 -4.1293945 9.223282 -9.223267 9.223282l-159.41171 0c-5.093872 0 -9.223282 -4.1293945 -9.223282 -9.223282z" fill-rule="nonzero"></path><path stroke="#434343" stroke-width="2.0" stroke-linejoin="round" stroke-linecap="butt" d="m131.29396 148.88898l0 0c0 -5.093872 4.12941 -9.223282 9.223282 -9.223282l159.41171 0c2.446167 0 4.792145 0.9717407 6.5218506 2.7014313c1.7296753 1.7297058 2.701416 4.0756836 2.701416 6.5218506l0 36.892014c0 5.0938873 -4.1293945 9.223282 -9.223267 9.223282l-159.41171 0c-5.093872 0 -9.223282 -4.1293945 -9.223282 -9.223282z" fill-rule="nonzero"></path><path fill="#ffffff" d="m156.42174 176.34248q0 0.09375 -0.046875 0.171875q-0.03125 0.0625 -0.15625 0.125q-0.125 0.046875 -0.34375 0.0625q-0.21875 0.03125 -0.578125 0.03125q-0.328125 0 -0.53125 -0.03125q-0.1875 -0.015625 -0.3125 -0.0625q-0.125 -0.0625 -0.203125 -0.15625q-0.0625 -0.109375 -0.109375 -0.25l-1.453125 -3.734375q-0.25 -0.625 -0.53125 -1.15625q-0.265625 -0.53125 -0.65625 -0.90625q-0.375 -0.390625 -0.890625 -0.609375q-0.5 -0.21875 -1.21875 -0.21875l-1.40625 0l0 6.734375q0 0.09375 -0.0625 0.171875q-0.046875 0.0625 -0.171875 0.109375q-0.109375 0.046875 -0.3125 0.078125q-0.203125 0.03125 -0.5 0.03125q-0.3125 0 -0.515625 -0.03125q-0.203125 -0.03125 -0.328125 -0.078125q-0.109375 -0.046875 -0.171875 -0.109375q-0.046875 -0.078125 -0.046875 -0.171875l0 -14.625q0 -0.484375 0.25 -0.671875q0.25 -0.1875 0.53125 -0.1875l3.359375 0q0.609375 0 1.0 0.03125q0.390625 0.03125 0.71875 0.0625q0.90625 0.15625 1.609375 0.5q0.703125 0.34375 1.171875 0.875q0.484375 0.515625 0.71875 1.203125q0.234375 0.671875 0.234375 1.484375q0 0.796875 -0.21875 1.4375q-0.203125 0.625 -0.609375 1.109375q-0.390625 0.46875 -0.953125 0.828125q-0.5625 0.359375 -1.265625 0.59375q0.390625 0.171875 0.703125 0.4375q0.328125 0.265625 0.59375 0.640625q0.28125 0.359375 0.515625 0.84375q0.25 0.46875 0.5 1.0625l1.40625 3.484375q0.171875 0.4375 0.21875 0.609375q0.0625 0.171875 0.0625 0.28125zm-3.171875 -11.09375q0 -0.9375 -0.421875 -1.578125q-0.40625 -0.640625 -1.375 -0.921875q-0.3125 -0.078125 -0.703125 -0.109375q-0.375 -0.046875 -1.0 -0.046875l-1.765625 0l0 5.328125l2.046875 0q0.828125 0 1.421875 -0.203125q0.609375 -0.203125 1.015625 -0.5625q0.40625 -0.359375 0.59375 -0.84375q0.1875 -0.5 0.1875 -1.0625zm16.361755 5.484375q0 1.34375 -0.359375 2.484375q-0.34375 1.125 -1.046875 1.9375q-0.703125 0.8125 -1.765625 1.28125q-1.046875 0.453125 -2.4375 0.453125q-1.359375 0 -2.375 -0.40625q-1.0 -0.40625 -1.671875 -1.171875q-0.65625 -0.765625 -1.0 -1.859375q-0.328125 -1.109375 -0.328125 -2.5q0 -1.34375 0.34375 -2.46875q0.359375 -1.125 1.0625 -1.9375q0.703125 -0.828125 1.75 -1.28125q1.046875 -0.453125 2.453125 -0.453125q1.359375 0 2.359375 0.40625q1.015625 0.40625 1.671875 1.171875q0.671875 0.765625 1.0 1.875q0.34375 1.09375 0.34375 2.46875zm-2.109375 0.140625q0 -0.890625 -0.171875 -1.6875q-0.171875 -0.796875 -0.546875 -1.390625q-0.375 -0.59375 -1.03125 -0.9375q-0.640625 -0.359375 -1.609375 -0.359375q-0.890625 0 -1.53125 0.328125q-0.640625 0.3125 -1.0625 0.890625q-0.40625 0.578125 -0.609375 1.375q-0.203125 0.78125 -0.203125 1.734375q0 0.890625 0.171875 1.6875q0.171875 0.796875 0.546875 1.390625q0.390625 0.59375 1.03125 0.9375q0.65625 0.34375 1.609375 0.34375q0.890625 0 1.53125 -0.3125q0.640625 -0.3125 1.0625 -0.890625q0.421875 -0.578125 0.609375 -1.359375q0.203125 -0.796875 0.203125 -1.75zm14.669128 5.46875q0 0.109375 -0.046875 0.171875q-0.046875 0.0625 -0.15625 0.125q-0.109375 0.046875 -0.28125 0.0625q-0.171875 0.03125 -0.4375 0.03125q-0.28125 0 -0.453125 -0.03125q-0.171875 -0.015625 -0.28125 -0.0625q-0.109375 -0.0625 -0.140625 -0.125q-0.03125 -0.0625 -0.03125 -0.171875l0 -1.453125q-0.9375 1.046875 -1.859375 1.53125q-0.921875 0.46875 -1.859375 0.46875q-1.09375 0 -1.84375 -0.359375q-0.75 -0.375 -1.21875 -1.0q-0.46875 -0.640625 -0.671875 -1.46875q-0.1875 -0.84375 -0.1875 -2.03125l0 -6.671875q0 -0.09375 0.03125 -0.15625q0.046875 -0.078125 0.171875 -0.125q0.125 -0.0625 0.3125 -0.078125q0.203125 -0.015625 0.484375 -0.015625q0.296875 0 0.484375 0.015625q0.203125 0.015625 0.3125 0.078125q0.125 0.046875 0.171875 0.125q0.046875 0.0625 0.046875 0.15625l0 6.40625q0 0.953125 0.140625 1.546875q0.140625 0.578125 0.421875 0.984375q0.296875 0.40625 0.734375 0.640625q0.4375 0.21875 1.03125 0.21875q0.75 0 1.5 -0.53125q0.75 -0.546875 1.59375 -1.578125l0 -7.6875q0 -0.09375 0.046875 -0.15625q0.046875 -0.078125 0.15625 -0.125q0.125 -0.0625 0.3125 -0.078125q0.203125 -0.015625 0.5 -0.015625q0.296875 0 0.484375 0.015625q0.203125 0.015625 0.3125 0.078125q0.109375 0.046875 0.15625 0.125q0.0625 0.0625 0.0625 0.15625l0 10.984375zm9.604034 -0.796875q0 0.359375 -0.046875 0.5625q-0.046875 0.203125 -0.15625 0.3125q-0.09375 0.09375 -0.296875 0.1875q-0.1875 0.078125 -0.4375 0.125q-0.25 0.0625 -0.53125 0.09375q-0.28125 0.03125 -0.5625 0.03125q-0.84375 0 -1.453125 -0.21875q-0.609375 -0.234375 -1.0 -0.6875q-0.390625 -0.453125 -0.578125 -1.15625q-0.171875 -0.703125 -0.171875 -1.65625l0 -6.421875l-1.53125 0q-0.1875 0 -0.296875 -0.1875q-0.109375 -0.203125 -0.109375 -0.640625q0 -0.234375 0.03125 -0.390625q0.03125 -0.15625 0.078125 -0.265625q0.046875 -0.109375 0.125 -0.140625q0.078125 -0.046875 0.171875 -0.046875l1.53125 0l0 -2.609375q0 -0.09375 0.03125 -0.15625q0.046875 -0.078125 0.15625 -0.125q0.125 -0.0625 0.3125 -0.078125q0.203125 -0.03125 0.5 -0.03125q0.3125 0 0.5 0.03125q0.203125 0.015625 0.3125 0.078125q0.109375 0.046875 0.15625 0.125q0.046875 0.0625 0.046875 0.15625l0 2.609375l2.8125 0q0.109375 0 0.171875 0.046875q0.078125 0.03125 0.125 0.140625q0.0625 0.109375 0.078125 0.265625q0.03125 0.15625 0.03125 0.390625q0 0.4375 -0.109375 0.640625q-0.109375 0.1875 -0.296875 0.1875l-2.8125 0l0 6.125q0 1.140625 0.328125 1.71875q0.34375 0.578125 1.203125 0.578125q0.28125 0 0.5 -0.046875q0.21875 -0.0625 0.390625 -0.125q0.171875 -0.0625 0.296875 -0.109375q0.125 -0.0625 0.21875 -0.0625q0.0625 0 0.109375 0.03125q0.0625 0.03125 0.09375 0.125q0.03125 0.078125 0.046875 0.234375q0.03125 0.140625 0.03125 0.359375zm12.1558075 -5.171875q0 0.484375 -0.25 0.6875q-0.234375 0.203125 -0.53125 0.203125l-7.203125 0q0 0.90625 0.171875 1.640625q0.1875 0.734375 0.609375 1.265625q0.4375 0.515625 1.109375 0.796875q0.6875 0.28125 1.6875 0.28125q0.78125 0 1.390625 -0.125q0.609375 -0.125 1.046875 -0.28125q0.453125 -0.171875 0.734375 -0.296875q0.28125 -0.125 0.4375 -0.125q0.078125 0 0.140625 0.046875q0.078125 0.03125 0.109375 0.125q0.046875 0.078125 0.0625 0.234375q0.015625 0.15625 0.015625 0.375q0 0.15625 -0.015625 0.28125q-0.015625 0.109375 -0.03125 0.203125q-0.015625 0.09375 -0.0625 0.171875q-0.046875 0.0625 -0.109375 0.140625q-0.0625 0.0625 -0.390625 0.21875q-0.328125 0.140625 -0.859375 0.296875q-0.515625 0.140625 -1.21875 0.25q-0.6875 0.125 -1.46875 0.125q-1.34375 0 -2.375 -0.375q-1.015625 -0.390625 -1.71875 -1.125q-0.6875 -0.75 -1.046875 -1.875q-0.34375 -1.125 -0.34375 -2.609375q0 -1.421875 0.359375 -2.546875q0.375 -1.125 1.0625 -1.90625q0.6875 -0.796875 1.65625 -1.21875q0.984375 -0.421875 2.1875 -0.421875q1.296875 0 2.203125 0.421875q0.90625 0.40625 1.484375 1.109375q0.59375 0.703125 0.875 1.65625q0.28125 0.9375 0.28125 2.015625l0 0.359375zm-2.03125 -0.59375q0.03125 -1.578125 -0.703125 -2.484375q-0.734375 -0.90625 -2.1875 -0.90625q-0.75 0 -1.3125 0.28125q-0.5625 0.28125 -0.9375 0.75q-0.375 0.453125 -0.59375 1.078125q-0.203125 0.609375 -0.21875 1.28125l5.953125 0zm11.664734 -3.703125q0 0.28125 -0.015625 0.46875q0 0.171875 -0.046875 0.28125q-0.03125 0.09375 -0.09375 0.15625q-0.046875 0.046875 -0.140625 0.046875q-0.09375 0 -0.234375 -0.046875q-0.140625 -0.0625 -0.328125 -0.109375q-0.171875 -0.0625 -0.390625 -0.109375q-0.21875 -0.046875 -0.46875 -0.046875q-0.3125 0 -0.609375 0.125q-0.28125 0.125 -0.609375 0.40625q-0.328125 0.28125 -0.6875 0.75q-0.34375 0.453125 -0.78125 1.125l0 7.21875q0 0.109375 -0.046875 0.171875q-0.046875 0.0625 -0.15625 0.125q-0.109375 0.046875 -0.3125 0.0625q-0.1875 0.03125 -0.484375 0.03125q-0.296875 0 -0.5 -0.03125q-0.1875 -0.015625 -0.3125 -0.0625q-0.109375 -0.0625 -0.15625 -0.125q-0.03125 -0.0625 -0.03125 -0.171875l0 -10.984375q0 -0.09375 0.03125 -0.15625q0.03125 -0.078125 0.140625 -0.125q0.109375 -0.0625 0.28125 -0.078125q0.171875 -0.015625 0.453125 -0.015625q0.265625 0 0.4375 0.015625q0.1875 0.015625 0.28125 0.078125q0.09375 0.046875 0.140625 0.125q0.046875 0.0625 0.046875 0.15625l0 1.609375q0.453125 -0.671875 0.84375 -1.078125q0.40625 -0.421875 0.75 -0.65625q0.359375 -0.234375 0.703125 -0.328125q0.34375 -0.09375 0.703125 -0.09375q0.15625 0 0.359375 0.03125q0.203125 0.015625 0.421875 0.0625q0.21875 0.046875 0.390625 0.109375q0.1875 0.0625 0.25 0.125q0.078125 0.046875 0.09375 0.109375q0.03125 0.046875 0.046875 0.140625q0.03125 0.078125 0.03125 0.25q0 0.15625 0 0.4375zm8.321884 13.515625q-0.046875 0.15625 -0.125 0.25q-0.078125 0.09375 -0.203125 0.140625q-0.125 0.046875 -0.296875 0.078125q-0.171875 0.03125 -0.4375 0.03125q-0.296875 0 -0.5 -0.046875q-0.203125 -0.046875 -0.3125 -0.125q-0.109375 -0.078125 -0.140625 -0.203125q-0.015625 -0.109375 0.046875 -0.265625l7.390625 -20.25q0.046875 -0.15625 0.125 -0.25q0.078125 -0.09375 0.1875 -0.140625q0.125 -0.0625 0.3125 -0.078125q0.1875 -0.015625 0.4375 -0.015625q0.3125 0 0.5 0.046875q0.203125 0.03125 0.3125 0.109375q0.109375 0.0625 0.125 0.1875q0.03125 0.125 -0.03125 0.28125l-7.390625 20.25zm24.039795 -7.375q0 1.109375 -0.40625 1.984375q-0.40625 0.859375 -1.140625 1.46875q-0.71875 0.609375 -1.703125 0.921875q-0.984375 0.296875 -2.109375 0.296875q-0.796875 0 -1.484375 -0.140625q-0.671875 -0.125 -1.203125 -0.3125q-0.53125 -0.203125 -0.890625 -0.40625q-0.359375 -0.21875 -0.5 -0.359375q-0.140625 -0.15625 -0.21875 -0.375q-0.0625 -0.234375 -0.0625 -0.609375q0 -0.265625 0.03125 -0.4375q0.03125 -0.1875 0.078125 -0.296875q0.046875 -0.109375 0.109375 -0.140625q0.078125 -0.046875 0.171875 -0.046875q0.171875 0 0.484375 0.203125q0.3125 0.203125 0.796875 0.453125q0.5 0.25 1.1875 0.46875q0.6875 0.203125 1.59375 0.203125q0.6875 0 1.25 -0.171875q0.5625 -0.1875 0.96875 -0.515625q0.421875 -0.34375 0.640625 -0.828125q0.21875 -0.5 0.21875 -1.125q0 -0.671875 -0.3125 -1.140625q-0.296875 -0.484375 -0.796875 -0.84375q-0.5 -0.359375 -1.140625 -0.65625q-0.640625 -0.296875 -1.3125 -0.609375q-0.671875 -0.3125 -1.3125 -0.6875q-0.640625 -0.375 -1.140625 -0.890625q-0.5 -0.515625 -0.8125 -1.203125q-0.3125 -0.6875 -0.3125 -1.65625q0 -0.984375 0.359375 -1.75q0.375 -0.78125 1.015625 -1.3125q0.640625 -0.53125 1.515625 -0.796875q0.890625 -0.28125 1.921875 -0.28125q0.515625 0 1.046875 0.09375q0.53125 0.09375 1.0 0.25q0.46875 0.140625 0.828125 0.34375q0.375 0.1875 0.484375 0.3125q0.125 0.109375 0.15625 0.171875q0.046875 0.0625 0.0625 0.171875q0.03125 0.09375 0.03125 0.25q0.015625 0.140625 0.015625 0.375q0 0.21875 -0.015625 0.390625q-0.015625 0.171875 -0.0625 0.296875q-0.03125 0.109375 -0.09375 0.171875q-0.0625 0.046875 -0.15625 0.046875q-0.125 0 -0.421875 -0.171875q-0.28125 -0.171875 -0.703125 -0.375q-0.40625 -0.21875 -0.984375 -0.390625q-0.5625 -0.1875 -1.265625 -0.1875q-0.65625 0 -1.15625 0.1875q-0.484375 0.171875 -0.796875 0.46875q-0.3125 0.28125 -0.484375 0.6875q-0.15625 0.40625 -0.15625 0.859375q0 0.65625 0.296875 1.140625q0.3125 0.46875 0.8125 0.84375q0.515625 0.359375 1.15625 0.671875q0.65625 0.296875 1.328125 0.609375q0.671875 0.296875 1.3125 0.671875q0.65625 0.375 1.15625 0.890625q0.515625 0.5 0.8125 1.1875q0.3125 0.6875 0.3125 1.625zm19.231339 4.125q0 0.109375 -0.0625 0.171875q-0.046875 0.0625 -0.15625 0.125q-0.109375 0.046875 -0.3125 0.0625q-0.1875 0.03125 -0.484375 0.03125q-0.296875 0 -0.5 -0.03125q-0.1875 -0.015625 -0.3125 -0.0625q-0.109375 -0.0625 -0.15625 -0.125q-0.046875 -0.0625 -0.046875 -0.171875l0 -6.671875q0 -0.6875 -0.125 -1.265625q-0.125 -0.578125 -0.390625 -0.984375q-0.265625 -0.421875 -0.6875 -0.640625q-0.40625 -0.21875 -0.96875 -0.21875q-0.703125 0 -1.40625 0.546875q-0.703125 0.53125 -1.546875 1.5625l0 7.671875q0 0.109375 -0.046875 0.171875q-0.046875 0.0625 -0.171875 0.125q-0.109375 0.046875 -0.3125 0.0625q-0.1875 0.03125 -0.46875 0.03125q-0.28125 0 -0.484375 -0.03125q-0.203125 -0.015625 -0.328125 -0.0625q-0.109375 -0.0625 -0.15625 -0.125q-0.03125 -0.0625 -0.03125 -0.171875l0 -6.671875q0 -0.6875 -0.140625 -1.265625q-0.140625 -0.578125 -0.40625 -0.984375q-0.265625 -0.421875 -0.671875 -0.640625q-0.40625 -0.21875 -0.96875 -0.21875q-0.703125 0 -1.40625 0.546875q-0.703125 0.53125 -1.546875 1.5625l0 7.671875q0 0.109375 -0.046875 0.171875q-0.046875 0.0625 -0.15625 0.125q-0.109375 0.046875 -0.3125 0.0625q-0.1875 0.03125 -0.484375 0.03125q-0.296875 0 -0.5 -0.03125q-0.1875 -0.015625 -0.3125 -0.0625q-0.109375 -0.0625 -0.15625 -0.125q-0.03125 -0.0625 -0.03125 -0.171875l0 -10.984375q0 -0.09375 0.03125 -0.15625q0.03125 -0.078125 0.140625 -0.125q0.109375 -0.0625 0.28125 -0.078125q0.171875 -0.015625 0.453125 -0.015625q0.265625 0 0.4375 0.015625q0.1875 0.015625 0.28125 0.078125q0.09375 0.046875 0.140625 0.125q0.046875 0.0625 0.046875 0.15625l0 1.453125q0.921875 -1.03125 1.796875 -1.515625q0.875 -0.484375 1.765625 -0.484375q0.6875 0 1.21875 0.15625q0.546875 0.15625 0.953125 0.453125q0.421875 0.28125 0.71875 0.6875q0.296875 0.390625 0.484375 0.875q0.5625 -0.59375 1.046875 -1.0q0.5 -0.421875 0.953125 -0.671875q0.46875 -0.265625 0.890625 -0.375q0.4375 -0.125 0.875 -0.125q1.0625 0 1.78125 0.375q0.71875 0.375 1.15625 1.0q0.453125 0.625 0.640625 1.46875q0.203125 0.828125 0.203125 1.75l0 6.9375zm12.201569 0.015625q0 0.15625 -0.09375 0.234375q-0.09375 0.0625 -0.265625 0.09375q-0.171875 0.046875 -0.5 0.046875q-0.328125 0 -0.515625 -0.046875q-0.1875 -0.03125 -0.28125 -0.09375q-0.078125 -0.078125 -0.078125 -0.234375l0 -1.09375q-0.71875 0.765625 -1.609375 1.203125q-0.875 0.421875 -1.859375 0.421875q-0.875 0 -1.578125 -0.234375q-0.703125 -0.21875 -1.203125 -0.640625q-0.484375 -0.4375 -0.765625 -1.046875q-0.265625 -0.625 -0.265625 -1.421875q0 -0.9375 0.375 -1.609375q0.375 -0.6875 1.078125 -1.140625q0.71875 -0.453125 1.734375 -0.671875q1.03125 -0.234375 2.3125 -0.234375l1.515625 0l0 -0.859375q0 -0.625 -0.140625 -1.109375q-0.125 -0.5 -0.421875 -0.8125q-0.296875 -0.328125 -0.78125 -0.484375q-0.46875 -0.171875 -1.171875 -0.171875q-0.734375 0 -1.328125 0.1875q-0.59375 0.171875 -1.046875 0.390625q-0.4375 0.203125 -0.75 0.390625q-0.296875 0.171875 -0.4375 0.171875q-0.09375 0 -0.171875 -0.046875q-0.078125 -0.0625 -0.140625 -0.15625q-0.046875 -0.09375 -0.078125 -0.25q-0.015625 -0.15625 -0.015625 -0.328125q0 -0.3125 0.046875 -0.484375q0.046875 -0.1875 0.203125 -0.34375q0.171875 -0.15625 0.5625 -0.359375q0.40625 -0.21875 0.9375 -0.390625q0.53125 -0.1875 1.140625 -0.296875q0.625 -0.125 1.265625 -0.125q1.1875 0 2.015625 0.28125q0.828125 0.265625 1.34375 0.78125q0.515625 0.515625 0.734375 1.28125q0.234375 0.765625 0.234375 1.796875l0 7.40625zm-2.0 -5.015625l-1.71875 0q-0.828125 0 -1.4375 0.140625q-0.609375 0.140625 -1.015625 0.421875q-0.40625 0.265625 -0.59375 0.65625q-0.1875 0.375 -0.1875 0.890625q0 0.84375 0.53125 1.359375q0.546875 0.5 1.53125 0.5q0.796875 0 1.46875 -0.40625q0.671875 -0.40625 1.421875 -1.234375l0 -2.328125zm12.272888 -5.265625q0 0.28125 -0.015625 0.46875q0 0.171875 -0.046875 0.28125q-0.03125 0.09375 -0.09375 0.15625q-0.046875 0.046875 -0.140625 0.046875q-0.09375 0 -0.234375 -0.046875q-0.140625 -0.0625 -0.328125 -0.109375q-0.171875 -0.0625 -0.390625 -0.109375q-0.21875 -0.046875 -0.46875 -0.046875q-0.3125 0 -0.609375 0.125q-0.28125 0.125 -0.609375 0.40625q-0.328125 0.28125 -0.6875 0.75q-0.34375 0.453125 -0.78125 1.125l0 7.21875q0 0.109375 -0.046875 0.171875q-0.046875 0.0625 -0.15625 0.125q-0.109375 0.046875 -0.3125 0.0625q-0.1875 0.03125 -0.484375 0.03125q-0.296875 0 -0.5 -0.03125q-0.1875 -0.015625 -0.3125 -0.0625q-0.109375 -0.0625 -0.15625 -0.125q-0.03125 -0.0625 -0.03125 -0.171875l0 -10.984375q0 -0.09375 0.03125 -0.15625q0.03125 -0.078125 0.140625 -0.125q0.109375 -0.0625 0.28125 -0.078125q0.171875 -0.015625 0.453125 -0.015625q0.265625 0 0.4375 0.015625q0.1875 0.015625 0.28125 0.078125q0.09375 0.046875 0.140625 0.125q0.046875 0.0625 0.046875 0.15625l0 1.609375q0.453125 -0.671875 0.84375 -1.078125q0.40625 -0.421875 0.75 -0.65625q0.359375 -0.234375 0.703125 -0.328125q0.34375 -0.09375 0.703125 -0.09375q0.15625 0 0.359375 0.03125q0.203125 0.015625 0.421875 0.0625q0.21875 0.046875 0.390625 0.109375q0.1875 0.0625 0.25 0.125q0.078125 0.046875 0.09375 0.109375q0.03125 0.046875 0.046875 0.140625q0.03125 0.078125 0.03125 0.25q0 0.15625 0 0.4375zm8.127106 9.46875q0 0.359375 -0.046875 0.5625q-0.046875 0.203125 -0.15625 0.3125q-0.09375 0.09375 -0.296875 0.1875q-0.1875 0.078125 -0.4375 0.125q-0.25 0.0625 -0.53125 0.09375q-0.28125 0.03125 -0.5625 0.03125q-0.84375 0 -1.453125 -0.21875q-0.609375 -0.234375 -1.0 -0.6875q-0.390625 -0.453125 -0.578125 -1.15625q-0.171875 -0.703125 -0.171875 -1.65625l0 -6.421875l-1.53125 0q-0.1875 0 -0.296875 -0.1875q-0.109375 -0.203125 -0.109375 -0.640625q0 -0.234375 0.03125 -0.390625q0.03125 -0.15625 0.078125 -0.265625q0.046875 -0.109375 0.125 -0.140625q0.078125 -0.046875 0.171875 -0.046875l1.53125 0l0 -2.609375q0 -0.09375 0.03125 -0.15625q0.046875 -0.078125 0.15625 -0.125q0.125 -0.0625 0.3125 -0.078125q0.203125 -0.03125 0.5 -0.03125q0.3125 0 0.5 0.03125q0.203125 0.015625 0.3125 0.078125q0.109375 0.046875 0.15625 0.125q0.046875 0.0625 0.046875 0.15625l0 2.609375l2.8125 0q0.109375 0 0.171875 0.046875q0.078125 0.03125 0.125 0.140625q0.0625 0.109375 0.078125 0.265625q0.03125 0.15625 0.03125 0.390625q0 0.4375 -0.109375 0.640625q-0.109375 0.1875 -0.296875 0.1875l-2.8125 0l0 6.125q0 1.140625 0.328125 1.71875q0.34375 0.578125 1.203125 0.578125q0.28125 0 0.5 -0.046875q0.21875 -0.0625 0.390625 -0.125q0.171875 -0.0625 0.296875 -0.109375q0.125 -0.0625 0.21875 -0.0625q0.0625 0 0.109375 0.03125q0.0625 0.03125 0.09375 0.125q0.03125 0.078125 0.046875 0.234375q0.03125 0.140625 0.03125 0.359375z" fill-rule="nonzero"></path><path fill="#666666" d="m282.11285 13.676379l0 0c0 -5.093878 4.129425 -9.223282 9.223297 -9.223282l116.797516 0c2.446167 0 4.792145 0.97173595 6.5218506 2.7014365c1.7297058 1.7297006 2.7014465 4.0756783 2.7014465 6.5218453l0 36.892017c0 5.0938797 -4.129425 9.223282 -9.223297 9.223282l-116.797516 0l0 0c-5.093872 0 -9.223297 -4.129402 -9.223297 -9.223282z" fill-rule="nonzero"></path><path stroke="#434343" stroke-width="2.0" stroke-linejoin="round" stroke-linecap="butt" d="m282.11285 13.676379l0 0c0 -5.093878 4.129425 -9.223282 9.223297 -9.223282l116.797516 0c2.446167 0 4.792145 0.97173595 6.5218506 2.7014365c1.7297058 1.7297006 2.7014465 4.0756783 2.7014465 6.5218453l0 36.892017c0 5.0938797 -4.129425 9.223282 -9.223297 9.223282l-116.797516 0l0 0c-5.093872 0 -9.223297 -4.129402 -9.223297 -9.223282z" fill-rule="nonzero"></path><path fill="#ffffff" d="m334.9849 43.43614q0 0.125 -0.046875 0.21875q-0.046875 0.09375 -0.203125 0.15625q-0.15625 0.0625 -0.4375 0.09375q-0.28125 0.03125 -0.75 0.03125q-0.40625 0 -0.671875 -0.03125q-0.25 -0.03125 -0.40625 -0.09375q-0.15625 -0.078125 -0.25 -0.203125q-0.078125 -0.125 -0.140625 -0.3125l-1.859375 -4.765625q-0.328125 -0.8125 -0.6875 -1.484375q-0.34375 -0.6875 -0.828125 -1.171875q-0.484375 -0.5 -1.140625 -0.765625q-0.65625 -0.28125 -1.578125 -0.28125l-1.796875 0l0 8.609375q0 0.125 -0.078125 0.21875q-0.0625 0.09375 -0.21875 0.15625q-0.140625 0.046875 -0.40625 0.078125q-0.25 0.046875 -0.640625 0.046875q-0.390625 0 -0.65625 -0.046875q-0.25 -0.03125 -0.40625 -0.078125q-0.15625 -0.0625 -0.21875 -0.15625q-0.0625 -0.09375 -0.0625 -0.21875l0 -18.718748q0 -0.609375 0.3125 -0.84375q0.328125 -0.25 0.6875 -0.25l4.296875 0q0.765625 0 1.265625 0.046875q0.515625 0.03125 0.921875 0.078125q1.171875 0.203125 2.0625 0.640625q0.90625 0.4375 1.515625 1.109375q0.609375 0.671875 0.90625 1.546875q0.3125 0.859375 0.3125 1.90625q0 1.015625 -0.28125 1.828125q-0.265625 0.796875 -0.78125 1.4218731q-0.515625 0.609375 -1.234375 1.0625q-0.71875 0.453125 -1.609375 0.765625q0.5 0.21875 0.90625 0.5625q0.40625 0.328125 0.75 0.796875q0.359375 0.46875 0.671875 1.078125q0.3125 0.609375 0.625 1.375l1.8125 4.453125q0.21875 0.5625 0.28125 0.796875q0.0625 0.21875 0.0625 0.34375zm-4.046875 -14.203123q0 -1.1875 -0.53125 -2.0q-0.53125 -0.828125 -1.78125 -1.1875q-0.390625 -0.109375 -0.890625 -0.15625q-0.484375 -0.046875 -1.28125 -0.046875l-2.265625 0l0 6.812498l2.625 0q1.0625 0 1.828125 -0.25q0.78125 -0.265625 1.296875 -0.7187481q0.515625 -0.46875 0.75 -1.09375q0.25 -0.625 0.25 -1.359375zm20.71875 7.031248q0 1.71875 -0.453125 3.171875q-0.453125 1.4375 -1.359375 2.484375q-0.890625 1.046875 -2.25 1.640625q-1.34375 0.578125 -3.125 0.578125q-1.734375 0 -3.03125 -0.515625q-1.28125 -0.515625 -2.140625 -1.5q-0.859375 -0.984375 -1.28125 -2.390625q-0.421875 -1.40625 -0.421875 -3.1875q0 -1.71875 0.4375 -3.15625q0.453125 -1.4531231 1.34375 -2.499998q0.90625 -1.046875 2.25 -1.625q1.34375 -0.578125 3.140625 -0.578125q1.734375 0 3.015625 0.515625q1.296875 0.515625 2.15625 1.5q0.859375 0.984375 1.28125 2.390623q0.4375 1.40625 0.4375 3.171875zm-2.71875 0.171875q0 -1.140625 -0.21875 -2.15625q-0.203125 -1.015625 -0.6875 -1.78125q-0.484375 -0.7656231 -1.3125 -1.2031231q-0.828125 -0.453125 -2.0625 -0.453125q-1.140625 0 -1.96875 0.40625q-0.8125 0.40625 -1.34375 1.1562481q-0.53125 0.734375 -0.796875 1.75q-0.25 1.015625 -0.25 2.21875q0 1.15625 0.203125 2.171875q0.21875 1.015625 0.703125 1.78125q0.5 0.75 1.328125 1.203125q0.828125 0.4375 2.0625 0.4375q1.125 0 1.953125 -0.40625q0.828125 -0.40625 1.359375 -1.140625q0.53125 -0.734375 0.78125 -1.75q0.25 -1.015625 0.25 -2.234375zm19.59375 -0.171875q0 1.71875 -0.453125 3.171875q-0.453125 1.4375 -1.359375 2.484375q-0.890625 1.046875 -2.25 1.640625q-1.34375 0.578125 -3.125 0.578125q-1.734375 0 -3.03125 -0.515625q-1.28125 -0.515625 -2.140625 -1.5q-0.859375 -0.984375 -1.28125 -2.390625q-0.421875 -1.40625 -0.421875 -3.1875q0 -1.71875 0.4375 -3.15625q0.453125 -1.4531231 1.34375 -2.499998q0.90625 -1.046875 2.25 -1.625q1.34375 -0.578125 3.140625 -0.578125q1.734375 0 3.015625 0.515625q1.296875 0.515625 2.15625 1.5q0.859375 0.984375 1.28125 2.390623q0.4375 1.40625 0.4375 3.171875zm-2.71875 0.171875q0 -1.140625 -0.21875 -2.15625q-0.203125 -1.015625 -0.6875 -1.78125q-0.484375 -0.7656231 -1.3125 -1.2031231q-0.828125 -0.453125 -2.0625 -0.453125q-1.140625 0 -1.96875 0.40625q-0.8125 0.40625 -1.34375 1.1562481q-0.53125 0.734375 -0.796875 1.75q-0.25 1.015625 -0.25 2.21875q0 1.15625 0.203125 2.171875q0.21875 1.015625 0.703125 1.78125q0.5 0.75 1.328125 1.203125q0.828125 0.4375 2.0625 0.4375q1.125 0 1.953125 -0.40625q0.828125 -0.40625 1.359375 -1.140625q0.53125 -0.734375 0.78125 -1.75q0.25 -1.015625 0.25 -2.234375zm13.828125 5.984375q0 0.453125 -0.0625 0.71875q-0.0625 0.265625 -0.1875 0.390625q-0.125 0.125 -0.375 0.234375q-0.25 0.109375 -0.578125 0.171875q-0.3125 0.078125 -0.671875 0.125q-0.359375 0.046875 -0.71875 0.046875q-1.09375 0 -1.875 -0.28125q-0.78125 -0.296875 -1.28125 -0.875q-0.5 -0.59375 -0.734375 -1.484375q-0.21875 -0.90625 -0.21875 -2.125l0 -8.218748l-1.96875 0q-0.234375 0 -0.375 -0.25q-0.140625 -0.25 -0.140625 -0.8125q0 -0.296875 0.03125 -0.5q0.046875 -0.203125 0.109375 -0.328125q0.0625 -0.140625 0.15625 -0.1875q0.109375 -0.0625 0.234375 -0.0625l1.953125 0l0 -3.34375q0 -0.109375 0.046875 -0.203125q0.0625 -0.09375 0.203125 -0.15625q0.15625 -0.078125 0.40625 -0.109375q0.25 -0.03125 0.625 -0.03125q0.390625 0 0.640625 0.03125q0.25 0.03125 0.390625 0.109375q0.140625 0.0625 0.203125 0.15625q0.0625 0.09375 0.0625 0.203125l0 3.34375l3.609375 0q0.125 0 0.21875 0.0625q0.09375 0.046875 0.15625 0.1875q0.078125 0.125 0.109375 0.328125q0.03125 0.203125 0.03125 0.5q0 0.5625 -0.140625 0.8125q-0.140625 0.25 -0.375 0.25l-3.609375 0l0 7.843748q0 1.453125 0.421875 2.203125q0.4375 0.734375 1.546875 0.734375q0.359375 0 0.640625 -0.0625q0.28125 -0.078125 0.5 -0.15625q0.21875 -0.078125 0.375 -0.140625q0.15625 -0.078125 0.28125 -0.078125q0.078125 0 0.140625 0.046875q0.078125 0.03125 0.109375 0.140625q0.046875 0.109375 0.078125 0.296875q0.03125 0.1875 0.03125 0.46875z" fill-rule="nonzero"></path><path fill="#bf9000" d="m388.4252 148.88898l0 0c0 -5.093872 4.1293945 -9.223282 9.223267 -9.223282l159.41171 0c2.446167 0 4.7921753 0.9717407 6.5218506 2.7014313c1.7296753 1.7297058 2.701416 4.0756836 2.701416 6.5218506l0 36.892014c0 5.0938873 -4.1293945 9.223282 -9.223267 9.223282l-159.41171 0c-5.093872 0 -9.223267 -4.1293945 -9.223267 -9.223282z" fill-rule="nonzero"></path><path stroke="#434343" stroke-width="2.0" stroke-linejoin="round" stroke-linecap="butt" d="m388.4252 148.88898l0 0c0 -5.093872 4.1293945 -9.223282 9.223267 -9.223282l159.41171 0c2.446167 0 4.7921753 0.9717407 6.5218506 2.7014313c1.7296753 1.7297058 2.701416 4.0756836 2.701416 6.5218506l0 36.892014c0 5.0938873 -4.1293945 9.223282 -9.223267 9.223282l-159.41171 0c-5.093872 0 -9.223267 -4.1293945 -9.223267 -9.223282z" fill-rule="nonzero"></path><path fill="#ffffff" d="m413.55298 176.34248q0 0.09375 -0.046875 0.171875q-0.03125 0.0625 -0.15625 0.125q-0.125 0.046875 -0.34375 0.0625q-0.21875 0.03125 -0.578125 0.03125q-0.328125 0 -0.53125 -0.03125q-0.1875 -0.015625 -0.3125 -0.0625q-0.125 -0.0625 -0.203125 -0.15625q-0.0625 -0.109375 -0.109375 -0.25l-1.453125 -3.734375q-0.25 -0.625 -0.53125 -1.15625q-0.265625 -0.53125 -0.65625 -0.90625q-0.375 -0.390625 -0.890625 -0.609375q-0.5 -0.21875 -1.21875 -0.21875l-1.40625 0l0 6.734375q0 0.09375 -0.0625 0.171875q-0.046875 0.0625 -0.171875 0.109375q-0.109375 0.046875 -0.3125 0.078125q-0.203125 0.03125 -0.5 0.03125q-0.3125 0 -0.515625 -0.03125q-0.203125 -0.03125 -0.328125 -0.078125q-0.109375 -0.046875 -0.171875 -0.109375q-0.046875 -0.078125 -0.046875 -0.171875l0 -14.625q0 -0.484375 0.25 -0.671875q0.25 -0.1875 0.53125 -0.1875l3.359375 0q0.609375 0 1.0 0.03125q0.390625 0.03125 0.71875 0.0625q0.90625 0.15625 1.609375 0.5q0.703125 0.34375 1.171875 0.875q0.484375 0.515625 0.71875 1.203125q0.234375 0.671875 0.234375 1.484375q0 0.796875 -0.21875 1.4375q-0.203125 0.625 -0.609375 1.109375q-0.390625 0.46875 -0.953125 0.828125q-0.5625 0.359375 -1.265625 0.59375q0.390625 0.171875 0.703125 0.4375q0.328125 0.265625 0.59375 0.640625q0.28125 0.359375 0.515625 0.84375q0.25 0.46875 0.5 1.0625l1.40625 3.484375q0.171875 0.4375 0.21875 0.609375q0.0625 0.171875 0.0625 0.28125zm-3.171875 -11.09375q0 -0.9375 -0.421875 -1.578125q-0.40625 -0.640625 -1.375 -0.921875q-0.3125 -0.078125 -0.703125 -0.109375q-0.375 -0.046875 -1.0 -0.046875l-1.765625 0l0 5.328125l2.046875 0q0.828125 0 1.421875 -0.203125q0.609375 -0.203125 1.015625 -0.5625q0.40625 -0.359375 0.59375 -0.84375q0.1875 -0.5 0.1875 -1.0625zm16.361755 5.484375q0 1.34375 -0.359375 2.484375q-0.34375 1.125 -1.046875 1.9375q-0.703125 0.8125 -1.765625 1.28125q-1.046875 0.453125 -2.4375 0.453125q-1.359375 0 -2.375 -0.40625q-1.0 -0.40625 -1.671875 -1.171875q-0.65625 -0.765625 -1.0 -1.859375q-0.328125 -1.109375 -0.328125 -2.5q0 -1.34375 0.34375 -2.46875q0.359375 -1.125 1.0625 -1.9375q0.703125 -0.828125 1.75 -1.28125q1.046875 -0.453125 2.453125 -0.453125q1.359375 0 2.359375 0.40625q1.015625 0.40625 1.671875 1.171875q0.671875 0.765625 1.0 1.875q0.34375 1.09375 0.34375 2.46875zm-2.109375 0.140625q0 -0.890625 -0.171875 -1.6875q-0.171875 -0.796875 -0.546875 -1.390625q-0.375 -0.59375 -1.03125 -0.9375q-0.640625 -0.359375 -1.609375 -0.359375q-0.890625 0 -1.53125 0.328125q-0.640625 0.3125 -1.0625 0.890625q-0.40625 0.578125 -0.609375 1.375q-0.203125 0.78125 -0.203125 1.734375q0 0.890625 0.171875 1.6875q0.171875 0.796875 0.546875 1.390625q0.390625 0.59375 1.03125 0.9375q0.65625 0.34375 1.609375 0.34375q0.890625 0 1.53125 -0.3125q0.640625 -0.3125 1.0625 -0.890625q0.421875 -0.578125 0.609375 -1.359375q0.203125 -0.796875 0.203125 -1.75zm14.669128 5.46875q0 0.109375 -0.046875 0.171875q-0.046875 0.0625 -0.15625 0.125q-0.109375 0.046875 -0.28125 0.0625q-0.171875 0.03125 -0.4375 0.03125q-0.28125 0 -0.453125 -0.03125q-0.171875 -0.015625 -0.28125 -0.0625q-0.109375 -0.0625 -0.140625 -0.125q-0.03125 -0.0625 -0.03125 -0.171875l0 -1.453125q-0.9375 1.046875 -1.859375 1.53125q-0.921875 0.46875 -1.859375 0.46875q-1.09375 0 -1.84375 -0.359375q-0.75 -0.375 -1.21875 -1.0q-0.46875 -0.640625 -0.671875 -1.46875q-0.1875 -0.84375 -0.1875 -2.03125l0 -6.671875q0 -0.09375 0.03125 -0.15625q0.046875 -0.078125 0.171875 -0.125q0.125 -0.0625 0.3125 -0.078125q0.203125 -0.015625 0.484375 -0.015625q0.296875 0 0.484375 0.015625q0.203125 0.015625 0.3125 0.078125q0.125 0.046875 0.171875 0.125q0.046875 0.0625 0.046875 0.15625l0 6.40625q0 0.953125 0.140625 1.546875q0.140625 0.578125 0.421875 0.984375q0.296875 0.40625 0.734375 0.640625q0.4375 0.21875 1.03125 0.21875q0.75 0 1.5 -0.53125q0.75 -0.546875 1.59375 -1.578125l0 -7.6875q0 -0.09375 0.046875 -0.15625q0.046875 -0.078125 0.15625 -0.125q0.125 -0.0625 0.3125 -0.078125q0.203125 -0.015625 0.5 -0.015625q0.296875 0 0.484375 0.015625q0.203125 0.015625 0.3125 0.078125q0.109375 0.046875 0.15625 0.125q0.0625 0.0625 0.0625 0.15625l0 10.984375zm9.604034 -0.796875q0 0.359375 -0.046875 0.5625q-0.046875 0.203125 -0.15625 0.3125q-0.09375 0.09375 -0.296875 0.1875q-0.1875 0.078125 -0.4375 0.125q-0.25 0.0625 -0.53125 0.09375q-0.28125 0.03125 -0.5625 0.03125q-0.84375 0 -1.453125 -0.21875q-0.609375 -0.234375 -1.0 -0.6875q-0.390625 -0.453125 -0.578125 -1.15625q-0.171875 -0.703125 -0.171875 -1.65625l0 -6.421875l-1.53125 0q-0.1875 0 -0.296875 -0.1875q-0.109375 -0.203125 -0.109375 -0.640625q0 -0.234375 0.03125 -0.390625q0.03125 -0.15625 0.078125 -0.265625q0.046875 -0.109375 0.125 -0.140625q0.078125 -0.046875 0.171875 -0.046875l1.53125 0l0 -2.609375q0 -0.09375 0.03125 -0.15625q0.046875 -0.078125 0.15625 -0.125q0.125 -0.0625 0.3125 -0.078125q0.203125 -0.03125 0.5 -0.03125q0.3125 0 0.5 0.03125q0.203125 0.015625 0.3125 0.078125q0.109375 0.046875 0.15625 0.125q0.046875 0.0625 0.046875 0.15625l0 2.609375l2.8125 0q0.109375 0 0.171875 0.046875q0.078125 0.03125 0.125 0.140625q0.0625 0.109375 0.078125 0.265625q0.03125 0.15625 0.03125 0.390625q0 0.4375 -0.109375 0.640625q-0.109375 0.1875 -0.296875 0.1875l-2.8125 0l0 6.125q0 1.140625 0.328125 1.71875q0.34375 0.578125 1.203125 0.578125q0.28125 0 0.5 -0.046875q0.21875 -0.0625 0.390625 -0.125q0.171875 -0.0625 0.296875 -0.109375q0.125 -0.0625 0.21875 -0.0625q0.0625 0 0.109375 0.03125q0.0625 0.03125 0.09375 0.125q0.03125 0.078125 0.046875 0.234375q0.03125 0.140625 0.03125 0.359375zm12.155792 -5.171875q0 0.484375 -0.25 0.6875q-0.234375 0.203125 -0.53125 0.203125l-7.203125 0q0 0.90625 0.171875 1.640625q0.1875 0.734375 0.609375 1.265625q0.4375 0.515625 1.109375 0.796875q0.6875 0.28125 1.6875 0.28125q0.78125 0 1.390625 -0.125q0.609375 -0.125 1.046875 -0.28125q0.453125 -0.171875 0.734375 -0.296875q0.28125 -0.125 0.4375 -0.125q0.078125 0 0.140625 0.046875q0.078125 0.03125 0.109375 0.125q0.046875 0.078125 0.0625 0.234375q0.015625 0.15625 0.015625 0.375q0 0.15625 -0.015625 0.28125q-0.015625 0.109375 -0.03125 0.203125q-0.015625 0.09375 -0.0625 0.171875q-0.046875 0.0625 -0.109375 0.140625q-0.0625 0.0625 -0.390625 0.21875q-0.328125 0.140625 -0.859375 0.296875q-0.515625 0.140625 -1.21875 0.25q-0.6875 0.125 -1.46875 0.125q-1.34375 0 -2.375 -0.375q-1.015625 -0.390625 -1.71875 -1.125q-0.6875 -0.75 -1.046875 -1.875q-0.34375 -1.125 -0.34375 -2.609375q0 -1.421875 0.359375 -2.546875q0.375 -1.125 1.0625 -1.90625q0.6875 -0.796875 1.65625 -1.21875q0.984375 -0.421875 2.1875 -0.421875q1.296875 0 2.203125 0.421875q0.90625 0.40625 1.484375 1.109375q0.59375 0.703125 0.875 1.65625q0.28125 0.9375 0.28125 2.015625l0 0.359375zm-2.03125 -0.59375q0.03125 -1.578125 -0.703125 -2.484375q-0.734375 -0.90625 -2.1875 -0.90625q-0.75 0 -1.3125 0.28125q-0.5625 0.28125 -0.9375 0.75q-0.375 0.453125 -0.59375 1.078125q-0.203125 0.609375 -0.21875 1.28125l5.953125 0zm11.664734 -3.703125q0 0.28125 -0.015625 0.46875q0 0.171875 -0.046875 0.28125q-0.03125 0.09375 -0.09375 0.15625q-0.046875 0.046875 -0.140625 0.046875q-0.09375 0 -0.234375 -0.046875q-0.140625 -0.0625 -0.328125 -0.109375q-0.171875 -0.0625 -0.390625 -0.109375q-0.21875 -0.046875 -0.46875 -0.046875q-0.3125 0 -0.609375 0.125q-0.28125 0.125 -0.609375 0.40625q-0.328125 0.28125 -0.6875 0.75q-0.34375 0.453125 -0.78125 1.125l0 7.21875q0 0.109375 -0.046875 0.171875q-0.046875 0.0625 -0.15625 0.125q-0.109375 0.046875 -0.3125 0.0625q-0.1875 0.03125 -0.484375 0.03125q-0.296875 0 -0.5 -0.03125q-0.1875 -0.015625 -0.3125 -0.0625q-0.109375 -0.0625 -0.15625 -0.125q-0.03125 -0.0625 -0.03125 -0.171875l0 -10.984375q0 -0.09375 0.03125 -0.15625q0.03125 -0.078125 0.140625 -0.125q0.109375 -0.0625 0.28125 -0.078125q0.171875 -0.015625 0.453125 -0.015625q0.265625 0 0.4375 0.015625q0.1875 0.015625 0.28125 0.078125q0.09375 0.046875 0.140625 0.125q0.046875 0.0625 0.046875 0.15625l0 1.609375q0.453125 -0.671875 0.84375 -1.078125q0.40625 -0.421875 0.75 -0.65625q0.359375 -0.234375 0.703125 -0.328125q0.34375 -0.09375 0.703125 -0.09375q0.15625 0 0.359375 0.03125q0.203125 0.015625 0.421875 0.0625q0.21875 0.046875 0.390625 0.109375q0.1875 0.0625 0.25 0.125q0.078125 0.046875 0.09375 0.109375q0.03125 0.046875 0.046875 0.140625q0.03125 0.078125 0.03125 0.25q0 0.15625 0 0.4375zm8.321899 13.515625q-0.046875 0.15625 -0.125 0.25q-0.078125 0.09375 -0.203125 0.140625q-0.125 0.046875 -0.296875 0.078125q-0.171875 0.03125 -0.4375 0.03125q-0.296875 0 -0.5 -0.046875q-0.203125 -0.046875 -0.3125 -0.125q-0.109375 -0.078125 -0.140625 -0.203125q-0.015625 -0.109375 0.046875 -0.265625l7.390625 -20.25q0.046875 -0.15625 0.125 -0.25q0.078125 -0.09375 0.1875 -0.140625q0.125 -0.0625 0.3125 -0.078125q0.1875 -0.015625 0.4375 -0.015625q0.3125 0 0.5 0.046875q0.203125 0.03125 0.3125 0.109375q0.109375 0.0625 0.125 0.1875q0.03125 0.125 -0.03125 0.28125l-7.390625 20.25zm24.039795 -7.375q0 1.109375 -0.40625 1.984375q-0.40625 0.859375 -1.140625 1.46875q-0.71875 0.609375 -1.703125 0.921875q-0.984375 0.296875 -2.109375 0.296875q-0.796875 0 -1.484375 -0.140625q-0.671875 -0.125 -1.203125 -0.3125q-0.53125 -0.203125 -0.890625 -0.40625q-0.359375 -0.21875 -0.5 -0.359375q-0.140625 -0.15625 -0.21875 -0.375q-0.0625 -0.234375 -0.0625 -0.609375q0 -0.265625 0.03125 -0.4375q0.03125 -0.1875 0.078125 -0.296875q0.046875 -0.109375 0.109375 -0.140625q0.078125 -0.046875 0.171875 -0.046875q0.171875 0 0.484375 0.203125q0.3125 0.203125 0.796875 0.453125q0.5 0.25 1.1875 0.46875q0.6875 0.203125 1.59375 0.203125q0.6875 0 1.25 -0.171875q0.5625 -0.1875 0.96875 -0.515625q0.421875 -0.34375 0.640625 -0.828125q0.21875 -0.5 0.21875 -1.125q0 -0.671875 -0.3125 -1.140625q-0.296875 -0.484375 -0.796875 -0.84375q-0.5 -0.359375 -1.140625 -0.65625q-0.640625 -0.296875 -1.3125 -0.609375q-0.671875 -0.3125 -1.3125 -0.6875q-0.640625 -0.375 -1.140625 -0.890625q-0.5 -0.515625 -0.8125 -1.203125q-0.3125 -0.6875 -0.3125 -1.65625q0 -0.984375 0.359375 -1.75q0.375 -0.78125 1.015625 -1.3125q0.640625 -0.53125 1.515625 -0.796875q0.890625 -0.28125 1.921875 -0.28125q0.515625 0 1.046875 0.09375q0.53125 0.09375 1.0 0.25q0.46875 0.140625 0.828125 0.34375q0.375 0.1875 0.484375 0.3125q0.125 0.109375 0.15625 0.171875q0.046875 0.0625 0.0625 0.171875q0.03125 0.09375 0.03125 0.25q0.015625 0.140625 0.015625 0.375q0 0.21875 -0.015625 0.390625q-0.015625 0.171875 -0.0625 0.296875q-0.03125 0.109375 -0.09375 0.171875q-0.0625 0.046875 -0.15625 0.046875q-0.125 0 -0.421875 -0.171875q-0.28125 -0.171875 -0.703125 -0.375q-0.40625 -0.21875 -0.984375 -0.390625q-0.5625 -0.1875 -1.265625 -0.1875q-0.65625 0 -1.15625 0.1875q-0.484375 0.171875 -0.796875 0.46875q-0.3125 0.28125 -0.484375 0.6875q-0.15625 0.40625 -0.15625 0.859375q0 0.65625 0.296875 1.140625q0.3125 0.46875 0.8125 0.84375q0.515625 0.359375 1.15625 0.671875q0.65625 0.296875 1.328125 0.609375q0.671875 0.296875 1.3125 0.671875q0.65625 0.375 1.15625 0.890625q0.515625 0.5 0.8125 1.1875q0.3125 0.6875 0.3125 1.625zm19.231323 4.125q0 0.109375 -0.0625 0.171875q-0.046875 0.0625 -0.15625 0.125q-0.109375 0.046875 -0.3125 0.0625q-0.1875 0.03125 -0.484375 0.03125q-0.296875 0 -0.5 -0.03125q-0.1875 -0.015625 -0.3125 -0.0625q-0.109375 -0.0625 -0.15625 -0.125q-0.046875 -0.0625 -0.046875 -0.171875l0 -6.671875q0 -0.6875 -0.125 -1.265625q-0.125 -0.578125 -0.390625 -0.984375q-0.265625 -0.421875 -0.6875 -0.640625q-0.40625 -0.21875 -0.96875 -0.21875q-0.703125 0 -1.40625 0.546875q-0.703125 0.53125 -1.546875 1.5625l0 7.671875q0 0.109375 -0.046875 0.171875q-0.046875 0.0625 -0.171875 0.125q-0.109375 0.046875 -0.3125 0.0625q-0.1875 0.03125 -0.46875 0.03125q-0.28125 0 -0.484375 -0.03125q-0.203125 -0.015625 -0.328125 -0.0625q-0.109375 -0.0625 -0.15625 -0.125q-0.03125 -0.0625 -0.03125 -0.171875l0 -6.671875q0 -0.6875 -0.140625 -1.265625q-0.140625 -0.578125 -0.40625 -0.984375q-0.265625 -0.421875 -0.671875 -0.640625q-0.40625 -0.21875 -0.96875 -0.21875q-0.703125 0 -1.40625 0.546875q-0.703125 0.53125 -1.546875 1.5625l0 7.671875q0 0.109375 -0.046875 0.171875q-0.046875 0.0625 -0.15625 0.125q-0.109375 0.046875 -0.3125 0.0625q-0.1875 0.03125 -0.484375 0.03125q-0.296875 0 -0.5 -0.03125q-0.1875 -0.015625 -0.3125 -0.0625q-0.109375 -0.0625 -0.15625 -0.125q-0.03125 -0.0625 -0.03125 -0.171875l0 -10.984375q0 -0.09375 0.03125 -0.15625q0.03125 -0.078125 0.140625 -0.125q0.109375 -0.0625 0.28125 -0.078125q0.171875 -0.015625 0.453125 -0.015625q0.265625 0 0.4375 0.015625q0.1875 0.015625 0.28125 0.078125q0.09375 0.046875 0.140625 0.125q0.046875 0.0625 0.046875 0.15625l0 1.453125q0.921875 -1.03125 1.796875 -1.515625q0.875 -0.484375 1.765625 -0.484375q0.6875 0 1.21875 0.15625q0.546875 0.15625 0.953125 0.453125q0.421875 0.28125 0.71875 0.6875q0.296875 0.390625 0.484375 0.875q0.5625 -0.59375 1.046875 -1.0q0.5 -0.421875 0.953125 -0.671875q0.46875 -0.265625 0.890625 -0.375q0.4375 -0.125 0.875 -0.125q1.0625 0 1.78125 0.375q0.71875 0.375 1.15625 1.0q0.453125 0.625 0.640625 1.46875q0.203125 0.828125 0.203125 1.75l0 6.9375zm12.201599 0.015625q0 0.15625 -0.09375 0.234375q-0.09375 0.0625 -0.265625 0.09375q-0.171875 0.046875 -0.5 0.046875q-0.328125 0 -0.515625 -0.046875q-0.1875 -0.03125 -0.28125 -0.09375q-0.078125 -0.078125 -0.078125 -0.234375l0 -1.09375q-0.71875 0.765625 -1.609375 1.203125q-0.875 0.421875 -1.859375 0.421875q-0.875 0 -1.578125 -0.234375q-0.703125 -0.21875 -1.203125 -0.640625q-0.484375 -0.4375 -0.765625 -1.046875q-0.265625 -0.625 -0.265625 -1.421875q0 -0.9375 0.375 -1.609375q0.375 -0.6875 1.078125 -1.140625q0.71875 -0.453125 1.734375 -0.671875q1.03125 -0.234375 2.3125 -0.234375l1.515625 0l0 -0.859375q0 -0.625 -0.140625 -1.109375q-0.125 -0.5 -0.421875 -0.8125q-0.296875 -0.328125 -0.78125 -0.484375q-0.46875 -0.171875 -1.171875 -0.171875q-0.734375 0 -1.328125 0.1875q-0.59375 0.171875 -1.046875 0.390625q-0.4375 0.203125 -0.75 0.390625q-0.296875 0.171875 -0.4375 0.171875q-0.09375 0 -0.171875 -0.046875q-0.078125 -0.0625 -0.140625 -0.15625q-0.046875 -0.09375 -0.078125 -0.25q-0.015625 -0.15625 -0.015625 -0.328125q0 -0.3125 0.046875 -0.484375q0.046875 -0.1875 0.203125 -0.34375q0.171875 -0.15625 0.5625 -0.359375q0.40625 -0.21875 0.9375 -0.390625q0.53125 -0.1875 1.140625 -0.296875q0.625 -0.125 1.265625 -0.125q1.1875 0 2.015625 0.28125q0.828125 0.265625 1.34375 0.78125q0.515625 0.515625 0.734375 1.28125q0.234375 0.765625 0.234375 1.796875l0 7.40625zm-2.0 -5.015625l-1.71875 0q-0.828125 0 -1.4375 0.140625q-0.609375 0.140625 -1.015625 0.421875q-0.40625 0.265625 -0.59375 0.65625q-0.1875 0.375 -0.1875 0.890625q0 0.84375 0.53125 1.359375q0.546875 0.5 1.53125 0.5q0.796875 0 1.46875 -0.40625q0.671875 -0.40625 1.421875 -1.234375l0 -2.328125zm12.272888 -5.265625q0 0.28125 -0.015625 0.46875q0 0.171875 -0.046875 0.28125q-0.03125 0.09375 -0.09375 0.15625q-0.046875 0.046875 -0.140625 0.046875q-0.09375 0 -0.234375 -0.046875q-0.140625 -0.0625 -0.328125 -0.109375q-0.171875 -0.0625 -0.390625 -0.109375q-0.21875 -0.046875 -0.46875 -0.046875q-0.3125 0 -0.609375 0.125q-0.28125 0.125 -0.609375 0.40625q-0.328125 0.28125 -0.6875 0.75q-0.34375 0.453125 -0.78125 1.125l0 7.21875q0 0.109375 -0.046875 0.171875q-0.046875 0.0625 -0.15625 0.125q-0.109375 0.046875 -0.3125 0.0625q-0.1875 0.03125 -0.484375 0.03125q-0.296875 0 -0.5 -0.03125q-0.1875 -0.015625 -0.3125 -0.0625q-0.109375 -0.0625 -0.15625 -0.125q-0.03125 -0.0625 -0.03125 -0.171875l0 -10.984375q0 -0.09375 0.03125 -0.15625q0.03125 -0.078125 0.140625 -0.125q0.109375 -0.0625 0.28125 -0.078125q0.171875 -0.015625 0.453125 -0.015625q0.265625 0 0.4375 0.015625q0.1875 0.015625 0.28125 0.078125q0.09375 0.046875 0.140625 0.125q0.046875 0.0625 0.046875 0.15625l0 1.609375q0.453125 -0.671875 0.84375 -1.078125q0.40625 -0.421875 0.75 -0.65625q0.359375 -0.234375 0.703125 -0.328125q0.34375 -0.09375 0.703125 -0.09375q0.15625 0 0.359375 0.03125q0.203125 0.015625 0.421875 0.0625q0.21875 0.046875 0.390625 0.109375q0.1875 0.0625 0.25 0.125q0.078125 0.046875 0.09375 0.109375q0.03125 0.046875 0.046875 0.140625q0.03125 0.078125 0.03125 0.25q0 0.15625 0 0.4375zm8.127075 9.46875q0 0.359375 -0.046875 0.5625q-0.046875 0.203125 -0.15625 0.3125q-0.09375 0.09375 -0.296875 0.1875q-0.1875 0.078125 -0.4375 0.125q-0.25 0.0625 -0.53125 0.09375q-0.28125 0.03125 -0.5625 0.03125q-0.84375 0 -1.453125 -0.21875q-0.609375 -0.234375 -1.0 -0.6875q-0.390625 -0.453125 -0.578125 -1.15625q-0.171875 -0.703125 -0.171875 -1.65625l0 -6.421875l-1.53125 0q-0.1875 0 -0.296875 -0.1875q-0.109375 -0.203125 -0.109375 -0.640625q0 -0.234375 0.03125 -0.390625q0.03125 -0.15625 0.078125 -0.265625q0.046875 -0.109375 0.125 -0.140625q0.078125 -0.046875 0.171875 -0.046875l1.53125 0l0 -2.609375q0 -0.09375 0.03125 -0.15625q0.046875 -0.078125 0.15625 -0.125q0.125 -0.0625 0.3125 -0.078125q0.203125 -0.03125 0.5 -0.03125q0.3125 0 0.5 0.03125q0.203125 0.015625 0.3125 0.078125q0.109375 0.046875 0.15625 0.125q0.046875 0.0625 0.046875 0.15625l0 2.609375l2.8125 0q0.109375 0 0.171875 0.046875q0.078125 0.03125 0.125 0.140625q0.0625 0.109375 0.078125 0.265625q0.03125 0.15625 0.03125 0.390625q0 0.4375 -0.109375 0.640625q-0.109375 0.1875 -0.296875 0.1875l-2.8125 0l0 6.125q0 1.140625 0.328125 1.71875q0.34375 0.578125 1.203125 0.578125q0.28125 0 0.5 -0.046875q0.21875 -0.0625 0.390625 -0.125q0.171875 -0.0625 0.296875 -0.109375q0.125 -0.0625 0.21875 -0.0625q0.0625 0 0.109375 0.03125q0.0625 0.03125 0.09375 0.125q0.03125 0.078125 0.046875 0.234375q0.03125 0.140625 0.03125 0.359375z" fill-rule="nonzero"></path><path fill="#005eb8" d="m262.39932 284.88898l0 0c0 -5.093872 4.1293945 -9.223267 9.223267 -9.223267l159.41171 0c2.446167 0 4.792145 0.9717102 6.5218506 2.701416c1.7297058 1.7297058 2.7014465 4.0756836 2.7014465 6.5218506l0 36.89203c0 5.093872 -4.129425 9.223267 -9.223297 9.223267l-159.41171 0c-5.093872 0 -9.223267 -4.1293945 -9.223267 -9.223267z" fill-rule="nonzero"></path><path stroke="#434343" stroke-width="2.0" stroke-linejoin="round" stroke-linecap="butt" d="m262.39932 284.88898l0 0c0 -5.093872 4.1293945 -9.223267 9.223267 -9.223267l159.41171 0c2.446167 0 4.792145 0.9717102 6.5218506 2.701416c1.7297058 1.7297058 2.7014465 4.0756836 2.7014465 6.5218506l0 36.89203c0 5.093872 -4.129425 9.223267 -9.223297 9.223267l-159.41171 0c-5.093872 0 -9.223267 -4.1293945 -9.223267 -9.223267z" fill-rule="nonzero"></path><path fill="#ffffff" d="m330.12534 304.64874q0 2.625 -0.671875 4.59375q-0.671875 1.953125 -1.96875 3.25q-1.28125 1.28125 -3.15625 1.921875q-1.875 0.640625 -4.46875 0.640625l-4.28125 0q-0.359375 0 -0.6875 -0.234375q-0.3125 -0.25 -0.3125 -0.859375l0 -18.03125q0 -0.609375 0.3125 -0.84375q0.328125 -0.25 0.6875 -0.25l4.578125 0q2.625 0 4.4375 0.6875q1.8125 0.671875 3.03125 1.953125q1.234375 1.265625 1.859375 3.078125q0.640625 1.8125 0.640625 4.09375zm-2.828125 0.109375q0 -1.640625 -0.40625 -3.046875q-0.40625 -1.421875 -1.28125 -2.453125q-0.859375 -1.03125 -2.1875 -1.609375q-1.328125 -0.578125 -3.421875 -0.578125l-2.734375 0l0 15.734375l2.765625 0q1.9375 0 3.265625 -0.484375q1.328125 -0.484375 2.21875 -1.484375q0.890625 -1.0 1.328125 -2.5q0.453125 -1.515625 0.453125 -3.578125zm18.71875 9.90625q0 0.125 -0.0625 0.21875q-0.046875 0.078125 -0.1875 0.140625q-0.140625 0.0625 -0.375 0.09375q-0.21875 0.03125 -0.546875 0.03125q-0.359375 0 -0.59375 -0.03125q-0.21875 -0.03125 -0.359375 -0.09375q-0.125 -0.0625 -0.171875 -0.140625q-0.046875 -0.09375 -0.046875 -0.21875l0 -1.859375q-1.203125 1.328125 -2.375 1.9375q-1.171875 0.609375 -2.375 0.609375q-1.40625 0 -2.375 -0.46875q-0.953125 -0.46875 -1.546875 -1.265625q-0.59375 -0.8125 -0.859375 -1.875q-0.25 -1.078125 -0.25 -2.609375l0 -8.53125q0 -0.125 0.046875 -0.203125q0.0625 -0.09375 0.21875 -0.15625q0.15625 -0.078125 0.40625 -0.09375q0.25 -0.03125 0.625 -0.03125q0.375 0 0.625 0.03125q0.25 0.015625 0.390625 0.09375q0.15625 0.0625 0.21875 0.15625q0.0625 0.078125 0.0625 0.203125l0 8.1875q0 1.234375 0.171875 1.984375q0.1875 0.734375 0.546875 1.265625q0.375 0.515625 0.9375 0.8125q0.5625 0.28125 1.3125 0.28125q0.96875 0 1.921875 -0.6875q0.96875 -0.6875 2.046875 -2.015625l0 -9.828125q0 -0.125 0.046875 -0.203125q0.0625 -0.09375 0.21875 -0.15625q0.15625 -0.078125 0.390625 -0.09375q0.25 -0.03125 0.640625 -0.03125q0.375 0 0.625 0.03125q0.25 0.015625 0.390625 0.09375q0.140625 0.0625 0.203125 0.15625q0.078125 0.078125 0.078125 0.203125l0 14.0625zm25.625 0q0 0.125 -0.0625 0.21875q-0.0625 0.078125 -0.203125 0.140625q-0.140625 0.0625 -0.390625 0.09375q-0.25 0.03125 -0.625 0.03125q-0.390625 0 -0.640625 -0.03125q-0.25 -0.03125 -0.40625 -0.09375q-0.140625 -0.0625 -0.203125 -0.140625q-0.0625 -0.09375 -0.0625 -0.21875l0 -8.546875q0 -0.890625 -0.15625 -1.625q-0.15625 -0.734375 -0.5 -1.265625q-0.34375 -0.53125 -0.875 -0.8125q-0.53125 -0.28125 -1.25 -0.28125q-0.890625 0 -1.796875 0.6875q-0.890625 0.6875 -1.96875 2.015625l0 9.828125q0 0.125 -0.0625 0.21875q-0.0625 0.078125 -0.21875 0.140625q-0.140625 0.0625 -0.390625 0.09375q-0.25 0.03125 -0.625 0.03125q-0.359375 0 -0.625 -0.03125q-0.25 -0.03125 -0.40625 -0.09375q-0.140625 -0.0625 -0.203125 -0.140625q-0.046875 -0.09375 -0.046875 -0.21875l0 -8.546875q0 -0.890625 -0.171875 -1.625q-0.171875 -0.734375 -0.515625 -1.265625q-0.34375 -0.53125 -0.875 -0.8125q-0.515625 -0.28125 -1.234375 -0.28125q-0.890625 0 -1.796875 0.6875q-0.90625 0.6875 -1.96875 2.015625l0 9.828125q0 0.125 -0.0625 0.21875q-0.0625 0.078125 -0.203125 0.140625q-0.140625 0.0625 -0.390625 0.09375q-0.25 0.03125 -0.640625 0.03125q-0.375 0 -0.625 -0.03125q-0.25 -0.03125 -0.40625 -0.09375q-0.140625 -0.0625 -0.203125 -0.140625q-0.046875 -0.09375 -0.046875 -0.21875l0 -14.0625q0 -0.125 0.046875 -0.203125q0.046875 -0.09375 0.1875 -0.15625q0.140625 -0.078125 0.359375 -0.09375q0.21875 -0.03125 0.578125 -0.03125q0.34375 0 0.5625 0.03125q0.234375 0.015625 0.359375 0.09375q0.125 0.0625 0.171875 0.15625q0.0625 0.078125 0.0625 0.203125l0 1.859375q1.1875 -1.328125 2.296875 -1.9375q1.125 -0.625 2.265625 -0.625q0.875 0 1.5625 0.203125q0.703125 0.203125 1.234375 0.578125q0.53125 0.359375 0.90625 0.875q0.375 0.5 0.625 1.125q0.703125 -0.765625 1.328125 -1.296875q0.640625 -0.53125 1.21875 -0.859375q0.59375 -0.328125 1.140625 -0.46875q0.5625 -0.15625 1.125 -0.15625q1.359375 0 2.28125 0.484375q0.921875 0.46875 1.484375 1.265625q0.578125 0.796875 0.8125 1.875q0.25 1.0625 0.25 2.25l0 8.890625zm17.640625 -7.21875q0 1.828125 -0.40625 3.296875q-0.390625 1.453125 -1.171875 2.484375q-0.765625 1.03125 -1.890625 1.578125q-1.125 0.546875 -2.578125 0.546875q-0.671875 0 -1.25 -0.140625q-0.5625 -0.125 -1.109375 -0.421875q-0.546875 -0.296875 -1.09375 -0.75q-0.546875 -0.453125 -1.15625 -1.09375l0 1.71875q0 0.125 -0.0625 0.21875q-0.0625 0.09375 -0.203125 0.15625q-0.140625 0.046875 -0.359375 0.078125q-0.203125 0.03125 -0.53125 0.03125q-0.3125 0 -0.53125 -0.03125q-0.21875 -0.03125 -0.359375 -0.078125q-0.140625 -0.0625 -0.1875 -0.15625q-0.046875 -0.09375 -0.046875 -0.21875l0 -20.875q0 -0.125 0.046875 -0.21875q0.0625 -0.09375 0.203125 -0.15625q0.15625 -0.0625 0.40625 -0.09375q0.25 -0.03125 0.625 -0.03125q0.390625 0 0.640625 0.03125q0.25 0.03125 0.390625 0.09375q0.140625 0.0625 0.203125 0.15625q0.0625 0.09375 0.0625 0.21875l0 8.421875q0.625 -0.640625 1.203125 -1.078125q0.59375 -0.4375 1.15625 -0.703125q0.5625 -0.28125 1.125 -0.40625q0.5625 -0.125 1.1875 -0.125q1.53125 0 2.609375 0.609375q1.09375 0.609375 1.765625 1.640625q0.6875 1.015625 1.0 2.390625q0.3125 1.375 0.3125 2.90625zm-2.71875 0.296875q0 -1.078125 -0.171875 -2.09375q-0.15625 -1.015625 -0.5625 -1.796875q-0.40625 -0.78125 -1.078125 -1.25q-0.671875 -0.484375 -1.671875 -0.484375q-0.5 0 -0.984375 0.140625q-0.484375 0.140625 -0.984375 0.46875q-0.5 0.328125 -1.046875 0.84375q-0.53125 0.515625 -1.140625 1.296875l0 5.609375q1.0625 1.296875 2.03125 1.984375q0.96875 0.671875 2.015625 0.671875q0.96875 0 1.65625 -0.46875q0.6875 -0.46875 1.109375 -1.234375q0.4375 -0.78125 0.625 -1.734375q0.203125 -0.96875 0.203125 -1.953125z" fill-rule="nonzero"></path><path fill="#38761d" d="m519.5306 284.88898l0 0c0 -5.093872 4.1293945 -9.223267 9.223267 -9.223267l159.41168 0c2.446167 0 4.7921753 0.9717102 6.5218506 2.701416c1.7296753 1.7297058 2.701416 4.0756836 2.701416 6.5218506l0 36.89203c0 5.093872 -4.1293945 9.223267 -9.223267 9.223267l-159.41168 0c-5.093872 0 -9.223267 -4.1293945 -9.223267 -9.223267z" fill-rule="nonzero"></path><path stroke="#434343" stroke-width="2.0" stroke-linejoin="round" stroke-linecap="butt" d="m519.5306 284.88898l0 0c0 -5.093872 4.1293945 -9.223267 9.223267 -9.223267l159.41168 0c2.446167 0 4.7921753 0.9717102 6.5218506 2.701416c1.7296753 1.7297058 2.701416 4.0756836 2.701416 6.5218506l0 36.89203c0 5.093872 -4.1293945 9.223267 -9.223267 9.223267l-159.41168 0c-5.093872 0 -9.223267 -4.1293945 -9.223267 -9.223267z" fill-rule="nonzero"></path><path fill="#ffffff" d="m583.2722 309.38312q0 1.421875 -0.53125 2.53125q-0.515625 1.109375 -1.453125 1.890625q-0.921875 0.765625 -2.1875 1.15625q-1.25 0.390625 -2.703125 0.390625q-1.015625 0 -1.890625 -0.171875q-0.859375 -0.171875 -1.546875 -0.421875q-0.671875 -0.25 -1.140625 -0.515625q-0.453125 -0.265625 -0.640625 -0.453125q-0.171875 -0.1875 -0.265625 -0.46875q-0.078125 -0.296875 -0.078125 -0.78125q0 -0.34375 0.03125 -0.5625q0.03125 -0.234375 0.09375 -0.375q0.0625 -0.140625 0.15625 -0.1875q0.09375 -0.0625 0.21875 -0.0625q0.21875 0 0.609375 0.265625q0.40625 0.265625 1.03125 0.578125q0.625 0.3125 1.5 0.59375q0.890625 0.265625 2.046875 0.265625q0.875 0 1.59375 -0.234375q0.734375 -0.234375 1.25 -0.65625q0.53125 -0.4375 0.8125 -1.0625q0.28125 -0.625 0.28125 -1.421875q0 -0.859375 -0.390625 -1.46875q-0.390625 -0.609375 -1.03125 -1.0625q-0.640625 -0.46875 -1.46875 -0.84375q-0.8125 -0.390625 -1.671875 -0.78125q-0.859375 -0.40625 -1.671875 -0.890625q-0.8125 -0.484375 -1.453125 -1.140625q-0.640625 -0.65625 -1.046875 -1.53125q-0.390625 -0.890625 -0.390625 -2.125q0 -1.265625 0.453125 -2.25q0.46875 -1.0 1.28125 -1.671875q0.828125 -0.671875 1.953125 -1.015625q1.140625 -0.359375 2.453125 -0.359375q0.671875 0 1.34375 0.125q0.6875 0.109375 1.28125 0.3125q0.609375 0.1875 1.078125 0.4375q0.46875 0.234375 0.609375 0.390625q0.15625 0.140625 0.203125 0.234375q0.046875 0.078125 0.078125 0.21875q0.03125 0.125 0.046875 0.3125q0.015625 0.1875 0.015625 0.484375q0 0.28125 -0.03125 0.5q-0.015625 0.21875 -0.0625 0.375q-0.046875 0.140625 -0.140625 0.21875q-0.078125 0.0625 -0.1875 0.0625q-0.171875 0 -0.546875 -0.21875q-0.359375 -0.21875 -0.890625 -0.484375q-0.53125 -0.28125 -1.265625 -0.5q-0.71875 -0.234375 -1.625 -0.234375q-0.84375 0 -1.46875 0.234375q-0.625 0.21875 -1.03125 0.59375q-0.40625 0.375 -0.609375 0.890625q-0.203125 0.515625 -0.203125 1.09375q0 0.84375 0.390625 1.453125q0.390625 0.609375 1.03125 1.078125q0.65625 0.46875 1.484375 0.859375q0.828125 0.390625 1.6875 0.796875q0.859375 0.390625 1.6875 0.875q0.828125 0.46875 1.46875 1.125q0.65625 0.640625 1.046875 1.53125q0.40625 0.875 0.40625 2.078125zm24.40625 5.28125q0 0.125 -0.0625 0.21875q-0.0625 0.078125 -0.203125 0.140625q-0.140625 0.0625 -0.390625 0.09375q-0.25 0.03125 -0.625 0.03125q-0.390625 0 -0.640625 -0.03125q-0.25 -0.03125 -0.40625 -0.09375q-0.140625 -0.0625 -0.203125 -0.140625q-0.0625 -0.09375 -0.0625 -0.21875l0 -8.546875q0 -0.890625 -0.15625 -1.625q-0.15625 -0.734375 -0.5 -1.265625q-0.34375 -0.53125 -0.875 -0.8125q-0.53125 -0.28125 -1.25 -0.28125q-0.890625 0 -1.796875 0.6875q-0.890625 0.6875 -1.96875 2.015625l0 9.828125q0 0.125 -0.0625 0.21875q-0.0625 0.078125 -0.21875 0.140625q-0.140625 0.0625 -0.390625 0.09375q-0.25 0.03125 -0.625 0.03125q-0.359375 0 -0.625 -0.03125q-0.25 -0.03125 -0.40625 -0.09375q-0.140625 -0.0625 -0.203125 -0.140625q-0.046875 -0.09375 -0.046875 -0.21875l0 -8.546875q0 -0.890625 -0.171875 -1.625q-0.171875 -0.734375 -0.515625 -1.265625q-0.34375 -0.53125 -0.875 -0.8125q-0.515625 -0.28125 -1.234375 -0.28125q-0.890625 0 -1.796875 0.6875q-0.90625 0.6875 -1.96875 2.015625l0 9.828125q0 0.125 -0.0625 0.21875q-0.0625 0.078125 -0.203125 0.140625q-0.140625 0.0625 -0.390625 0.09375q-0.25 0.03125 -0.640625 0.03125q-0.375 0 -0.625 -0.03125q-0.25 -0.03125 -0.40625 -0.09375q-0.140625 -0.0625 -0.203125 -0.140625q-0.046875 -0.09375 -0.046875 -0.21875l0 -14.0625q0 -0.125 0.046875 -0.203125q0.046875 -0.09375 0.1875 -0.15625q0.140625 -0.078125 0.359375 -0.09375q0.21875 -0.03125 0.578125 -0.03125q0.34375 0 0.5625 0.03125q0.234375 0.015625 0.359375 0.09375q0.125 0.0625 0.171875 0.15625q0.0625 0.078125 0.0625 0.203125l0 1.859375q1.1875 -1.328125 2.296875 -1.9375q1.125 -0.625 2.265625 -0.625q0.875 0 1.5625 0.203125q0.703125 0.203125 1.234375 0.578125q0.53125 0.359375 0.90625 0.875q0.375 0.5 0.625 1.125q0.703125 -0.765625 1.328125 -1.296875q0.640625 -0.53125 1.21875 -0.859375q0.59375 -0.328125 1.140625 -0.46875q0.5625 -0.15625 1.125 -0.15625q1.359375 0 2.28125 0.484375q0.921875 0.46875 1.484375 1.265625q0.578125 0.796875 0.8125 1.875q0.25 1.0625 0.25 2.25l0 8.890625zm15.296875 0.015625q0 0.1875 -0.125 0.28125q-0.125 0.09375 -0.34375 0.140625q-0.21875 0.046875 -0.640625 0.046875q-0.40625 0 -0.65625 -0.046875q-0.234375 -0.046875 -0.34375 -0.140625q-0.109375 -0.09375 -0.109375 -0.28125l0 -1.40625q-0.921875 0.984375 -2.0625 1.53125q-1.125 0.546875 -2.390625 0.546875q-1.109375 0 -2.015625 -0.296875q-0.890625 -0.28125 -1.53125 -0.828125q-0.625 -0.546875 -0.984375 -1.34375q-0.34375 -0.796875 -0.34375 -1.8125q0 -1.1875 0.484375 -2.0625q0.484375 -0.875 1.390625 -1.453125q0.90625 -0.578125 2.21875 -0.859375q1.3125 -0.296875 2.953125 -0.296875l1.9375 0l0 -1.09375q0 -0.8125 -0.171875 -1.4375q-0.171875 -0.625 -0.5625 -1.03125q-0.375 -0.421875 -0.984375 -0.625q-0.609375 -0.21875 -1.5 -0.21875q-0.953125 0 -1.71875 0.234375q-0.75 0.21875 -1.328125 0.5q-0.5625 0.265625 -0.953125 0.5q-0.375 0.21875 -0.5625 0.21875q-0.125 0 -0.21875 -0.0625q-0.09375 -0.0625 -0.171875 -0.1875q-0.0625 -0.125 -0.09375 -0.3125q-0.03125 -0.203125 -0.03125 -0.4375q0 -0.390625 0.046875 -0.609375q0.0625 -0.234375 0.265625 -0.4375q0.21875 -0.203125 0.734375 -0.46875q0.515625 -0.28125 1.1875 -0.5q0.671875 -0.234375 1.46875 -0.375q0.796875 -0.15625 1.609375 -0.15625q1.515625 0 2.578125 0.34375q1.0625 0.34375 1.71875 1.015625q0.65625 0.65625 0.953125 1.640625q0.296875 0.984375 0.296875 2.296875l0 9.484375zm-2.5625 -6.421875l-2.203125 0q-1.0625 0 -1.84375 0.1875q-0.78125 0.171875 -1.296875 0.53125q-0.515625 0.34375 -0.765625 0.84375q-0.234375 0.484375 -0.234375 1.125q0 1.09375 0.6875 1.75q0.703125 0.640625 1.953125 0.640625q1.015625 0 1.875 -0.515625q0.875 -0.515625 1.828125 -1.578125l0 -2.984375zm15.515625 -6.734375q0 0.34375 -0.015625 0.578125q-0.015625 0.234375 -0.0625 0.375q-0.046875 0.125 -0.125 0.203125q-0.0625 0.0625 -0.1875 0.0625q-0.125 0 -0.3125 -0.0625q-0.171875 -0.078125 -0.40625 -0.140625q-0.21875 -0.078125 -0.5 -0.140625q-0.28125 -0.0625 -0.609375 -0.0625q-0.390625 0 -0.765625 0.15625q-0.375 0.15625 -0.796875 0.515625q-0.40625 0.359375 -0.859375 0.953125q-0.453125 0.59375 -1.0 1.453125l0 9.25q0 0.125 -0.0625 0.21875q-0.0625 0.078125 -0.203125 0.140625q-0.140625 0.0625 -0.390625 0.09375q-0.25 0.03125 -0.640625 0.03125q-0.375 0 -0.625 -0.03125q-0.25 -0.03125 -0.40625 -0.09375q-0.140625 -0.0625 -0.203125 -0.140625q-0.046875 -0.09375 -0.046875 -0.21875l0 -14.0625q0 -0.125 0.046875 -0.203125q0.046875 -0.09375 0.1875 -0.15625q0.140625 -0.078125 0.359375 -0.09375q0.21875 -0.03125 0.578125 -0.03125q0.34375 0 0.5625 0.03125q0.234375 0.015625 0.359375 0.09375q0.125 0.0625 0.171875 0.15625q0.0625 0.078125 0.0625 0.203125l0 2.046875q0.578125 -0.84375 1.078125 -1.375q0.515625 -0.53125 0.96875 -0.828125q0.453125 -0.3125 0.890625 -0.421875q0.453125 -0.125 0.90625 -0.125q0.203125 0 0.453125 0.03125q0.265625 0.015625 0.546875 0.078125q0.28125 0.0625 0.5 0.140625q0.234375 0.078125 0.328125 0.15625q0.09375 0.078125 0.125 0.15625q0.03125 0.0625 0.046875 0.171875q0.03125 0.109375 0.03125 0.328125q0.015625 0.203125 0.015625 0.5625zm10.25 12.109375q0 0.453125 -0.0625 0.71875q-0.0625 0.265625 -0.1875 0.390625q-0.125 0.125 -0.375 0.234375q-0.25 0.109375 -0.578125 0.171875q-0.3125 0.078125 -0.671875 0.125q-0.359375 0.046875 -0.71875 0.046875q-1.09375 0 -1.875 -0.28125q-0.78125 -0.296875 -1.28125 -0.875q-0.5 -0.59375 -0.734375 -1.484375q-0.21875 -0.90625 -0.21875 -2.125l0 -8.21875l-1.96875 0q-0.234375 0 -0.375 -0.25q-0.140625 -0.25 -0.140625 -0.8125q0 -0.296875 0.03125 -0.5q0.046875 -0.203125 0.109375 -0.328125q0.0625 -0.140625 0.15625 -0.1875q0.109375 -0.0625 0.234375 -0.0625l1.953125 0l0 -3.34375q0 -0.109375 0.046875 -0.203125q0.0625 -0.09375 0.203125 -0.15625q0.15625 -0.078125 0.40625 -0.109375q0.25 -0.03125 0.625 -0.03125q0.390625 0 0.640625 0.03125q0.25 0.03125 0.390625 0.109375q0.140625 0.0625 0.203125 0.15625q0.0625 0.09375 0.0625 0.203125l0 3.34375l3.609375 0q0.125 0 0.21875 0.0625q0.09375 0.046875 0.15625 0.1875q0.078125 0.125 0.109375 0.328125q0.03125 0.203125 0.03125 0.5q0 0.5625 -0.140625 0.8125q-0.140625 0.25 -0.375 0.25l-3.609375 0l0 7.84375q0 1.453125 0.421875 2.203125q0.4375 0.734375 1.546875 0.734375q0.359375 0 0.640625 -0.0625q0.28125 -0.078125 0.5 -0.15625q0.21875 -0.078125 0.375 -0.140625q0.15625 -0.078125 0.28125 -0.078125q0.078125 0 0.140625 0.046875q0.078125 0.03125 0.109375 0.140625q0.046875 0.109375 0.078125 0.296875q0.03125 0.1875 0.03125 0.46875z" fill-rule="nonzero"></path><path fill="#000000" fill-opacity="0.0" d="m629.08386 22.892698l0 0c0 -2.5483875 2.065857 -4.6142654 4.614258 -4.6142654l23.905334 0c1.2237549 0 2.3974 0.48614502 3.2627563 1.3514862c0.86535645 0.8653431 1.3515015 2.0389996 1.3515015 3.2627792l0 18.456507c0 2.5483894 -2.065857 4.6142654 -4.614258 4.6142654l-23.905334 0c-2.5484009 0 -4.614258 -2.065876 -4.614258 -4.6142654z" fill-rule="nonzero"></path><path stroke="#434343" stroke-width="2.0" stroke-linejoin="round" stroke-linecap="butt" d="m629.08386 22.892698l0 0c0 -2.5483875 2.065857 -4.6142654 4.614258 -4.6142654l23.905334 0c1.2237549 0 2.3974 0.48614502 3.2627563 1.3514862c0.86535645 0.8653431 1.3515015 2.0389996 1.3515015 3.2627792l0 18.456507c0 2.5483894 -2.065857 4.6142654 -4.614258 4.6142654l-23.905334 0c-2.5484009 0 -4.614258 -2.065876 -4.614258 -4.6142654z" fill-rule="nonzero"></path><path fill="#000000" fill-opacity="0.0" d="m670.2177 7.870248l138.74017 0l0 48.503937l-138.74017 0z" fill-rule="nonzero"></path><path fill="#434343" d="m691.35834 38.52159q0 0.1875 -0.015625 0.328125q0 0.140625 -0.03125 0.25q-0.03125 0.09375 -0.078125 0.1875q-0.046875 0.078125 -0.171875 0.203125q-0.109375 0.109375 -0.484375 0.34375q-0.375 0.234375 -0.9375 0.46875q-0.546875 0.234375 -1.28125 0.390625q-0.71875 0.15625 -1.5625 0.15625q-1.484375 0 -2.671875 -0.484375q-1.1875 -0.5 -2.03125 -1.453125q-0.828125 -0.96875 -1.28125 -2.375q-0.453125 -1.421875 -0.453125 -3.265625q0 -1.875 0.484375 -3.34375q0.484375 -1.484375 1.359375 -2.515625q0.890625 -1.03125 2.109375 -1.5625q1.21875 -0.546875 2.71875 -0.546875q0.65625 0 1.265625 0.125q0.625 0.125 1.15625 0.3125q0.53125 0.1875 0.9375 0.4375q0.40625 0.25 0.5625 0.40625q0.15625 0.15625 0.203125 0.234375q0.046875 0.078125 0.078125 0.203125q0.03125 0.109375 0.046875 0.265625q0.015625 0.140625 0.015625 0.359375q0 0.234375 -0.03125 0.40625q-0.015625 0.15625 -0.0625 0.265625q-0.046875 0.109375 -0.109375 0.171875q-0.0625 0.046875 -0.15625 0.046875q-0.15625 0 -0.453125 -0.234375q-0.296875 -0.234375 -0.765625 -0.5q-0.453125 -0.28125 -1.125 -0.5q-0.65625 -0.234375 -1.578125 -0.234375q-1.015625 0 -1.84375 0.40625q-0.8125 0.40625 -1.40625 1.1875q-0.578125 0.78125 -0.90625 1.921875q-0.328125 1.125 -0.328125 2.578125q0 1.4375 0.3125 2.546875q0.3125 1.109375 0.890625 1.859375q0.578125 0.734375 1.421875 1.125q0.84375 0.375 1.921875 0.375q0.890625 0 1.5625 -0.21875q0.6875 -0.234375 1.15625 -0.5q0.46875 -0.28125 0.765625 -0.5q0.3125 -0.21875 0.5 -0.21875q0.078125 0 0.125 0.03125q0.0625 0.03125 0.09375 0.140625q0.046875 0.09375 0.0625 0.265625q0.015625 0.171875 0.015625 0.453125zm12.265625 -3.546875q0 1.296875 -0.34375 2.375q-0.34375 1.078125 -1.015625 1.875q-0.671875 0.78125 -1.6875 1.21875q-1.015625 0.4375 -2.34375 0.4375q-1.3125 0 -2.28125 -0.375q-0.953125 -0.390625 -1.609375 -1.125q-0.640625 -0.75 -0.953125 -1.796875q-0.3125 -1.0625 -0.3125 -2.390625q0 -1.296875 0.328125 -2.375q0.328125 -1.09375 1.0 -1.875q0.6875 -0.78125 1.6875 -1.21875q1.015625 -0.4375 2.359375 -0.4375q1.296875 0 2.265625 0.390625q0.96875 0.390625 1.609375 1.125q0.640625 0.734375 0.96875 1.796875q0.328125 1.046875 0.328125 2.375zm-2.046875 0.125q0 -0.84375 -0.15625 -1.609375q-0.15625 -0.765625 -0.53125 -1.328125q-0.359375 -0.578125 -0.984375 -0.90625q-0.609375 -0.34375 -1.53125 -0.34375q-0.859375 0 -1.484375 0.3125q-0.609375 0.296875 -1.015625 0.859375q-0.390625 0.546875 -0.59375 1.3125q-0.1875 0.765625 -0.1875 1.65625q0 0.875 0.15625 1.640625q0.171875 0.75 0.53125 1.328125q0.375 0.5625 0.984375 0.90625q0.625 0.328125 1.5625 0.328125q0.84375 0 1.453125 -0.296875q0.625 -0.3125 1.015625 -0.859375q0.40625 -0.5625 0.59375 -1.3125q0.1875 -0.765625 0.1875 -1.6875zm20.53125 5.265625q0 0.09375 -0.046875 0.15625q-0.046875 0.0625 -0.15625 0.125q-0.09375 0.046875 -0.28125 0.0625q-0.1875 0.03125 -0.46875 0.03125q-0.296875 0 -0.484375 -0.03125q-0.1875 -0.015625 -0.296875 -0.0625q-0.109375 -0.0625 -0.15625 -0.125q-0.046875 -0.0625 -0.046875 -0.15625l0 -6.40625q0 -0.671875 -0.125 -1.21875q-0.109375 -0.546875 -0.375 -0.9375q-0.25 -0.40625 -0.65625 -0.609375q-0.390625 -0.21875 -0.9375 -0.21875q-0.671875 0 -1.34375 0.515625q-0.671875 0.515625 -1.484375 1.5l0 7.375q0 0.09375 -0.046875 0.15625q-0.046875 0.0625 -0.15625 0.125q-0.109375 0.046875 -0.296875 0.0625q-0.1875 0.03125 -0.46875 0.03125q-0.265625 0 -0.46875 -0.03125q-0.1875 -0.015625 -0.296875 -0.0625q-0.109375 -0.0625 -0.15625 -0.125q-0.03125 -0.0625 -0.03125 -0.15625l0 -6.40625q0 -0.671875 -0.140625 -1.21875q-0.125 -0.546875 -0.390625 -0.9375q-0.25 -0.40625 -0.640625 -0.609375q-0.390625 -0.21875 -0.9375 -0.21875q-0.65625 0 -1.34375 0.515625q-0.671875 0.515625 -1.46875 1.5l0 7.375q0 0.09375 -0.046875 0.15625q-0.046875 0.0625 -0.15625 0.125q-0.109375 0.046875 -0.296875 0.0625q-0.1875 0.03125 -0.484375 0.03125q-0.28125 0 -0.46875 -0.03125q-0.1875 -0.015625 -0.296875 -0.0625q-0.109375 -0.0625 -0.15625 -0.125q-0.03125 -0.0625 -0.03125 -0.15625l0 -10.546875q0 -0.09375 0.03125 -0.15625q0.03125 -0.0625 0.140625 -0.109375q0.109375 -0.0625 0.265625 -0.078125q0.171875 -0.015625 0.4375 -0.015625q0.265625 0 0.421875 0.015625q0.171875 0.015625 0.265625 0.078125q0.09375 0.046875 0.140625 0.109375q0.046875 0.0625 0.046875 0.15625l0 1.390625q0.890625 -0.984375 1.71875 -1.453125q0.84375 -0.46875 1.703125 -0.46875q0.65625 0 1.171875 0.15625q0.515625 0.15625 0.90625 0.4375q0.40625 0.265625 0.6875 0.65625q0.28125 0.375 0.46875 0.84375q0.53125 -0.578125 1.0 -0.96875q0.484375 -0.40625 0.921875 -0.640625q0.4375 -0.25 0.84375 -0.359375q0.421875 -0.125 0.84375 -0.125q1.03125 0 1.71875 0.359375q0.6875 0.359375 1.109375 0.96875q0.4375 0.59375 0.609375 1.390625q0.1875 0.796875 0.1875 1.6875l0 6.671875zm13.234375 -5.4375q0 1.390625 -0.296875 2.5q-0.296875 1.09375 -0.890625 1.859375q-0.578125 0.765625 -1.4375 1.1875q-0.84375 0.40625 -1.953125 0.40625q-0.46875 0 -0.875 -0.09375q-0.390625 -0.09375 -0.765625 -0.28125q-0.375 -0.203125 -0.75 -0.5q-0.375 -0.3125 -0.796875 -0.734375l0 5.28125q0 0.09375 -0.046875 0.15625q-0.046875 0.078125 -0.15625 0.125q-0.109375 0.046875 -0.296875 0.0625q-0.1875 0.03125 -0.484375 0.03125q-0.28125 0 -0.46875 -0.03125q-0.1875 -0.015625 -0.296875 -0.0625q-0.109375 -0.046875 -0.15625 -0.125q-0.03125 -0.0625 -0.03125 -0.15625l0 -14.734375q0 -0.109375 0.03125 -0.171875q0.03125 -0.0625 0.140625 -0.109375q0.109375 -0.046875 0.265625 -0.0625q0.171875 -0.015625 0.40625 -0.015625q0.25 0 0.40625 0.015625q0.15625 0.015625 0.25 0.0625q0.109375 0.046875 0.15625 0.109375q0.046875 0.0625 0.046875 0.171875l0 1.421875q0.46875 -0.5 0.90625 -0.859375q0.453125 -0.359375 0.90625 -0.59375q0.453125 -0.25 0.921875 -0.375q0.484375 -0.125 1.015625 -0.125q1.140625 0 1.953125 0.453125q0.8125 0.4375 1.3125 1.21875q0.515625 0.765625 0.75 1.796875q0.234375 1.03125 0.234375 2.171875zm-2.046875 0.21875q0 -0.796875 -0.125 -1.546875q-0.109375 -0.765625 -0.421875 -1.34375q-0.296875 -0.59375 -0.796875 -0.9375q-0.5 -0.359375 -1.25 -0.359375q-0.375 0 -0.75 0.109375q-0.359375 0.109375 -0.734375 0.359375q-0.375 0.234375 -0.78125 0.625q-0.40625 0.390625 -0.859375 0.96875l0 4.1875q0.796875 0.984375 1.5 1.5q0.71875 0.515625 1.5 0.515625q0.734375 0 1.25 -0.34375q0.53125 -0.359375 0.84375 -0.9375q0.328125 -0.59375 0.46875 -1.3125q0.15625 -0.734375 0.15625 -1.484375zm14.765625 -0.171875q0 1.296875 -0.34375 2.375q-0.34375 1.078125 -1.015625 1.875q-0.671875 0.78125 -1.6875 1.21875q-1.015625 0.4375 -2.34375 0.4375q-1.3125 0 -2.28125 -0.375q-0.953125 -0.390625 -1.609375 -1.125q-0.640625 -0.75 -0.953125 -1.796875q-0.3125 -1.0625 -0.3125 -2.390625q0 -1.296875 0.328125 -2.375q0.328125 -1.09375 1.0 -1.875q0.6875 -0.78125 1.6875 -1.21875q1.015625 -0.4375 2.359375 -0.4375q1.296875 0 2.265625 0.390625q0.96875 0.390625 1.609375 1.125q0.640625 0.734375 0.96875 1.796875q0.328125 1.046875 0.328125 2.375zm-2.046875 0.125q0 -0.84375 -0.15625 -1.609375q-0.15625 -0.765625 -0.53125 -1.328125q-0.359375 -0.578125 -0.984375 -0.90625q-0.609375 -0.34375 -1.53125 -0.34375q-0.859375 0 -1.484375 0.3125q-0.609375 0.296875 -1.015625 0.859375q-0.390625 0.546875 -0.59375 1.3125q-0.1875 0.765625 -0.1875 1.65625q0 0.875 0.15625 1.640625q0.171875 0.75 0.53125 1.328125q0.375 0.5625 0.984375 0.90625q0.625 0.328125 1.5625 0.328125q0.84375 0 1.453125 -0.296875q0.625 -0.3125 1.015625 -0.859375q0.40625 -0.5625 0.59375 -1.3125q0.1875 -0.765625 0.1875 -1.6875zm13.96875 5.265625q0 0.09375 -0.046875 0.15625q-0.046875 0.0625 -0.15625 0.125q-0.09375 0.046875 -0.28125 0.0625q-0.1875 0.03125 -0.46875 0.03125q-0.296875 0 -0.484375 -0.03125q-0.1875 -0.015625 -0.296875 -0.0625q-0.109375 -0.0625 -0.15625 -0.125q-0.046875 -0.0625 -0.046875 -0.15625l0 -6.171875q0 -0.90625 -0.140625 -1.453125q-0.140625 -0.546875 -0.40625 -0.9375q-0.265625 -0.40625 -0.703125 -0.609375q-0.421875 -0.21875 -0.984375 -0.21875q-0.71875 0 -1.453125 0.515625q-0.71875 0.515625 -1.515625 1.5l0 7.375q0 0.09375 -0.046875 0.15625q-0.046875 0.0625 -0.15625 0.125q-0.109375 0.046875 -0.296875 0.0625q-0.1875 0.03125 -0.484375 0.03125q-0.28125 0 -0.46875 -0.03125q-0.1875 -0.015625 -0.296875 -0.0625q-0.109375 -0.0625 -0.15625 -0.125q-0.03125 -0.0625 -0.03125 -0.15625l0 -10.546875q0 -0.09375 0.03125 -0.15625q0.03125 -0.0625 0.140625 -0.109375q0.109375 -0.0625 0.265625 -0.078125q0.171875 -0.015625 0.4375 -0.015625q0.265625 0 0.421875 0.015625q0.171875 0.015625 0.265625 0.078125q0.09375 0.046875 0.140625 0.109375q0.046875 0.0625 0.046875 0.15625l0 1.390625q0.890625 -0.984375 1.765625 -1.453125q0.890625 -0.46875 1.796875 -0.46875q1.046875 0 1.765625 0.359375q0.71875 0.359375 1.15625 0.96875q0.453125 0.59375 0.640625 1.390625q0.203125 0.796875 0.203125 1.921875l0 6.4375zm12.53125 -5.734375q0 0.46875 -0.234375 0.65625q-0.21875 0.1875 -0.515625 0.1875l-6.921875 0q0 0.890625 0.171875 1.59375q0.1875 0.703125 0.59375 1.203125q0.40625 0.5 1.0625 0.78125q0.65625 0.265625 1.609375 0.265625q0.75 0 1.328125 -0.125q0.59375 -0.125 1.015625 -0.28125q0.4375 -0.15625 0.703125 -0.265625q0.28125 -0.125 0.421875 -0.125q0.078125 0 0.140625 0.046875q0.078125 0.03125 0.109375 0.109375q0.03125 0.078125 0.046875 0.234375q0.015625 0.140625 0.015625 0.359375q0 0.140625 -0.015625 0.265625q0 0.109375 -0.015625 0.203125q-0.015625 0.078125 -0.0625 0.15625q-0.046875 0.0625 -0.109375 0.125q-0.0625 0.0625 -0.375 0.21875q-0.3125 0.140625 -0.828125 0.28125q-0.5 0.140625 -1.171875 0.25q-0.65625 0.109375 -1.40625 0.109375q-1.296875 0 -2.28125 -0.359375q-0.96875 -0.359375 -1.640625 -1.078125q-0.671875 -0.71875 -1.015625 -1.796875q-0.328125 -1.078125 -0.328125 -2.5q0 -1.359375 0.34375 -2.4375q0.359375 -1.09375 1.015625 -1.84375q0.671875 -0.765625 1.609375 -1.171875q0.9375 -0.40625 2.09375 -0.40625q1.234375 0 2.109375 0.40625q0.875 0.390625 1.4375 1.078125q0.5625 0.671875 0.828125 1.578125q0.265625 0.90625 0.265625 1.9375l0 0.34375zm-1.953125 -0.5625q0.046875 -1.53125 -0.671875 -2.390625q-0.703125 -0.875 -2.09375 -0.875q-0.71875 0 -1.265625 0.28125q-0.53125 0.265625 -0.90625 0.71875q-0.359375 0.4375 -0.5625 1.03125q-0.1875 0.578125 -0.21875 1.234375l5.71875 0zm13.972656 6.296875q0 0.09375 -0.046875 0.15625q-0.046875 0.0625 -0.15625 0.125q-0.09375 0.046875 -0.28125 0.0625q-0.1875 0.03125 -0.46875 0.03125q-0.296875 0 -0.484375 -0.03125q-0.1875 -0.015625 -0.296875 -0.0625q-0.109375 -0.0625 -0.15625 -0.125q-0.046875 -0.0625 -0.046875 -0.15625l0 -6.171875q0 -0.90625 -0.140625 -1.453125q-0.140625 -0.546875 -0.40625 -0.9375q-0.265625 -0.40625 -0.703125 -0.609375q-0.421875 -0.21875 -0.984375 -0.21875q-0.71875 0 -1.453125 0.515625q-0.71875 0.515625 -1.515625 1.5l0 7.375q0 0.09375 -0.046875 0.15625q-0.046875 0.0625 -0.15625 0.125q-0.109375 0.046875 -0.296875 0.0625q-0.1875 0.03125 -0.484375 0.03125q-0.28125 0 -0.46875 -0.03125q-0.1875 -0.015625 -0.296875 -0.0625q-0.109375 -0.0625 -0.15625 -0.125q-0.03125 -0.0625 -0.03125 -0.15625l0 -10.546875q0 -0.09375 0.03125 -0.15625q0.03125 -0.0625 0.140625 -0.109375q0.109375 -0.0625 0.265625 -0.078125q0.171875 -0.015625 0.4375 -0.015625q0.265625 0 0.421875 0.015625q0.171875 0.015625 0.265625 0.078125q0.09375 0.046875 0.140625 0.109375q0.046875 0.0625 0.046875 0.15625l0 1.390625q0.890625 -0.984375 1.765625 -1.453125q0.890625 -0.46875 1.796875 -0.46875q1.046875 0 1.765625 0.359375q0.71875 0.359375 1.15625 0.96875q0.453125 0.59375 0.640625 1.390625q0.203125 0.796875 0.203125 1.921875l0 6.4375zm9.015625 -0.765625q0 0.328125 -0.046875 0.53125q-0.046875 0.203125 -0.140625 0.296875q-0.09375 0.09375 -0.28125 0.1875q-0.1875 0.078125 -0.4375 0.125q-0.234375 0.046875 -0.5 0.078125q-0.265625 0.046875 -0.546875 0.046875q-0.8125 0 -1.40625 -0.21875q-0.578125 -0.21875 -0.953125 -0.65625q-0.375 -0.4375 -0.546875 -1.109375q-0.171875 -0.6875 -0.171875 -1.59375l0 -6.171875l-1.46875 0q-0.1875 0 -0.296875 -0.1875q-0.09375 -0.1875 -0.09375 -0.609375q0 -0.21875 0.03125 -0.359375q0.03125 -0.15625 0.078125 -0.25q0.046875 -0.109375 0.109375 -0.140625q0.078125 -0.046875 0.171875 -0.046875l1.46875 0l0 -2.515625q0 -0.078125 0.03125 -0.140625q0.046875 -0.078125 0.15625 -0.125q0.125 -0.0625 0.3125 -0.078125q0.1875 -0.03125 0.46875 -0.03125q0.28125 0 0.46875 0.03125q0.1875 0.015625 0.296875 0.078125q0.109375 0.046875 0.15625 0.125q0.046875 0.0625 0.046875 0.140625l0 2.515625l2.703125 0q0.09375 0 0.15625 0.046875q0.078125 0.03125 0.125 0.140625q0.0625 0.09375 0.078125 0.25q0.03125 0.140625 0.03125 0.359375q0 0.421875 -0.109375 0.609375q-0.109375 0.1875 -0.28125 0.1875l-2.703125 0l0 5.890625q0 1.09375 0.3125 1.65625q0.328125 0.546875 1.15625 0.546875q0.28125 0 0.484375 -0.046875q0.21875 -0.0625 0.375 -0.109375q0.171875 -0.0625 0.28125 -0.109375q0.125 -0.0625 0.21875 -0.0625q0.046875 0 0.09375 0.03125q0.0625 0.03125 0.09375 0.109375q0.03125 0.078125 0.046875 0.21875q0.03125 0.140625 0.03125 0.359375z" fill-rule="nonzero"></path><path fill="#005eb8" d="m5.268083 284.88898l0 0c0 -5.093872 4.1294036 -9.223267 9.223282 -9.223267l159.41171 0c2.4461517 0 4.7921295 0.9717102 6.5218353 2.701416c1.7297058 1.7297058 2.7014465 4.0756836 2.7014465 6.5218506l0 36.89203c0 5.093872 -4.12941 9.223267 -9.223282 9.223267l-159.41171 0c-5.093878 0 -9.223282 -4.1293945 -9.223282 -9.223267z" fill-rule="nonzero"></path><path stroke="#434343" stroke-width="2.0" stroke-linejoin="round" stroke-linecap="butt" d="m5.268083 284.88898l0 0c0 -5.093872 4.1294036 -9.223267 9.223282 -9.223267l159.41171 0c2.4461517 0 4.7921295 0.9717102 6.5218353 2.701416c1.7297058 1.7297058 2.7014465 4.0756836 2.7014465 6.5218506l0 36.89203c0 5.093872 -4.12941 9.223267 -9.223282 9.223267l-159.41171 0c-5.093878 0 -9.223282 -4.1293945 -9.223282 -9.223267z" fill-rule="nonzero"></path><path fill="#ffffff" d="m72.994095 304.64874q0 2.625 -0.671875 4.59375q-0.671875 1.953125 -1.96875 3.25q-1.28125 1.28125 -3.15625 1.921875q-1.875 0.640625 -4.46875 0.640625l-4.28125 0q-0.359375 0 -0.6875 -0.234375q-0.3125 -0.25 -0.3125 -0.859375l0 -18.03125q0 -0.609375 0.3125 -0.84375q0.328125 -0.25 0.6875 -0.25l4.578125 0q2.625 0 4.4375 0.6875q1.8125 0.671875 3.03125 1.953125q1.234375 1.265625 1.859375 3.078125q0.640625 1.8125 0.640625 4.09375zm-2.828125 0.109375q0 -1.640625 -0.40625 -3.046875q-0.40625 -1.421875 -1.28125 -2.453125q-0.859375 -1.03125 -2.1875 -1.609375q-1.328125 -0.578125 -3.421875 -0.578125l-2.734375 0l0 15.734375l2.765625 0q1.9375 0 3.265625 -0.484375q1.328125 -0.484375 2.21875 -1.484375q0.890625 -1.0 1.328125 -2.5q0.453125 -1.515625 0.453125 -3.578125zm18.71875 9.90625q0 0.125 -0.0625 0.21875q-0.046875 0.078125 -0.1875 0.140625q-0.140625 0.0625 -0.375 0.09375q-0.21875 0.03125 -0.546875 0.03125q-0.359375 0 -0.59375 -0.03125q-0.21875 -0.03125 -0.359375 -0.09375q-0.125 -0.0625 -0.171875 -0.140625q-0.046875 -0.09375 -0.046875 -0.21875l0 -1.859375q-1.203125 1.328125 -2.375 1.9375q-1.171875 0.609375 -2.375 0.609375q-1.40625 0 -2.375 -0.46875q-0.953125 -0.46875 -1.546875 -1.265625q-0.59375 -0.8125 -0.859375 -1.875q-0.25 -1.078125 -0.25 -2.609375l0 -8.53125q0 -0.125 0.046875 -0.203125q0.0625 -0.09375 0.21875 -0.15625q0.15625 -0.078125 0.40625 -0.09375q0.25 -0.03125 0.625 -0.03125q0.375 0 0.625 0.03125q0.25 0.015625 0.390625 0.09375q0.15625 0.0625 0.21875 0.15625q0.0625 0.078125 0.0625 0.203125l0 8.1875q0 1.234375 0.171875 1.984375q0.1875 0.734375 0.546875 1.265625q0.375 0.515625 0.9375 0.8125q0.5625 0.28125 1.3125 0.28125q0.96875 0 1.921875 -0.6875q0.96875 -0.6875 2.046875 -2.015625l0 -9.828125q0 -0.125 0.046875 -0.203125q0.0625 -0.09375 0.21875 -0.15625q0.15625 -0.078125 0.390625 -0.09375q0.25 -0.03125 0.640625 -0.03125q0.375 0 0.625 0.03125q0.25 0.015625 0.390625 0.09375q0.140625 0.0625 0.203125 0.15625q0.078125 0.078125 0.078125 0.203125l0 14.0625zm25.625 0q0 0.125 -0.0625 0.21875q-0.0625 0.078125 -0.203125 0.140625q-0.140625 0.0625 -0.390625 0.09375q-0.25 0.03125 -0.625 0.03125q-0.390625 0 -0.640625 -0.03125q-0.25 -0.03125 -0.40625 -0.09375q-0.140625 -0.0625 -0.203125 -0.140625q-0.0625 -0.09375 -0.0625 -0.21875l0 -8.546875q0 -0.890625 -0.15625 -1.625q-0.15625 -0.734375 -0.5 -1.265625q-0.34375 -0.53125 -0.875 -0.8125q-0.53125 -0.28125 -1.25 -0.28125q-0.890625 0 -1.796875 0.6875q-0.890625 0.6875 -1.96875 2.015625l0 9.828125q0 0.125 -0.0625 0.21875q-0.0625 0.078125 -0.21875 0.140625q-0.140625 0.0625 -0.390625 0.09375q-0.25 0.03125 -0.625 0.03125q-0.359375 0 -0.625 -0.03125q-0.25 -0.03125 -0.40625 -0.09375q-0.140625 -0.0625 -0.203125 -0.140625q-0.046875 -0.09375 -0.046875 -0.21875l0 -8.546875q0 -0.890625 -0.171875 -1.625q-0.171875 -0.734375 -0.515625 -1.265625q-0.34375 -0.53125 -0.875 -0.8125q-0.515625 -0.28125 -1.234375 -0.28125q-0.890625 0 -1.796875 0.6875q-0.90625 0.6875 -1.96875 2.015625l0 9.828125q0 0.125 -0.0625 0.21875q-0.0625 0.078125 -0.203125 0.140625q-0.140625 0.0625 -0.390625 0.09375q-0.25 0.03125 -0.640625 0.03125q-0.375 0 -0.625 -0.03125q-0.25 -0.03125 -0.40625 -0.09375q-0.140625 -0.0625 -0.203125 -0.140625q-0.046875 -0.09375 -0.046875 -0.21875l0 -14.0625q0 -0.125 0.046875 -0.203125q0.046875 -0.09375 0.1875 -0.15625q0.140625 -0.078125 0.359375 -0.09375q0.21875 -0.03125 0.578125 -0.03125q0.34375 0 0.5625 0.03125q0.234375 0.015625 0.359375 0.09375q0.125 0.0625 0.171875 0.15625q0.0625 0.078125 0.0625 0.203125l0 1.859375q1.1875 -1.328125 2.296875 -1.9375q1.125 -0.625 2.265625 -0.625q0.875 0 1.5625 0.203125q0.703125 0.203125 1.234375 0.578125q0.53125 0.359375 0.90625 0.875q0.375 0.5 0.625 1.125q0.703125 -0.765625 1.328125 -1.296875q0.640625 -0.53125 1.21875 -0.859375q0.59375 -0.328125 1.140625 -0.46875q0.5625 -0.15625 1.125 -0.15625q1.359375 0 2.28125 0.484375q0.921875 0.46875 1.484375 1.265625q0.578125 0.796875 0.8125 1.875q0.25 1.0625 0.25 2.25l0 8.890625zm17.640625 -7.21875q0 1.828125 -0.40625 3.296875q-0.390625 1.453125 -1.171875 2.484375q-0.765625 1.03125 -1.890625 1.578125q-1.125 0.546875 -2.578125 0.546875q-0.671875 0 -1.25 -0.140625q-0.5625 -0.125 -1.109375 -0.421875q-0.546875 -0.296875 -1.09375 -0.75q-0.546875 -0.453125 -1.15625 -1.09375l0 1.71875q0 0.125 -0.0625 0.21875q-0.0625 0.09375 -0.203125 0.15625q-0.140625 0.046875 -0.359375 0.078125q-0.203125 0.03125 -0.53125 0.03125q-0.3125 0 -0.53125 -0.03125q-0.21875 -0.03125 -0.359375 -0.078125q-0.140625 -0.0625 -0.1875 -0.15625q-0.046875 -0.09375 -0.046875 -0.21875l0 -20.875q0 -0.125 0.046875 -0.21875q0.0625 -0.09375 0.203125 -0.15625q0.15625 -0.0625 0.40625 -0.09375q0.25 -0.03125 0.625 -0.03125q0.390625 0 0.640625 0.03125q0.25 0.03125 0.390625 0.09375q0.140625 0.0625 0.203125 0.15625q0.0625 0.09375 0.0625 0.21875l0 8.421875q0.625 -0.640625 1.203125 -1.078125q0.59375 -0.4375 1.15625 -0.703125q0.5625 -0.28125 1.125 -0.40625q0.5625 -0.125 1.1875 -0.125q1.53125 0 2.609375 0.609375q1.09375 0.609375 1.765625 1.640625q0.6875 1.015625 1.0 2.390625q0.3125 1.375 0.3125 2.90625zm-2.71875 0.296875q0 -1.078125 -0.171875 -2.09375q-0.15625 -1.015625 -0.5625 -1.796875q-0.40625 -0.78125 -1.078125 -1.25q-0.671875 -0.484375 -1.671875 -0.484375q-0.5 0 -0.984375 0.140625q-0.484375 0.140625 -0.984375 0.46875q-0.5 0.328125 -1.046875 0.84375q-0.53125 0.515625 -1.140625 1.296875l0 5.609375q1.0625 1.296875 2.03125 1.984375q0.96875 0.671875 2.015625 0.671875q0.96875 0 1.65625 -0.46875q0.6875 -0.46875 1.109375 -1.234375q0.4375 -0.78125 0.625 -1.734375q0.203125 -0.96875 0.203125 -1.953125z" fill-rule="nonzero"></path><path fill="#005eb8" d="m393.35733 419.56613l0 0c0 -5.093872 4.1293945 -9.223267 9.223267 -9.223267l159.41171 0c2.446167 0 4.7921143 0.9717407 6.5218506 2.7014465c1.7296753 1.7296753 2.701416 4.075653 2.701416 6.52182l0 36.89203c0 5.093872 -4.1293945 9.223297 -9.223267 9.223297l-159.41171 0c-5.093872 0 -9.223267 -4.129425 -9.223267 -9.223297z" fill-rule="nonzero"></path><path stroke="#434343" stroke-width="2.0" stroke-linejoin="round" stroke-linecap="butt" d="m393.35733 419.56613l0 0c0 -5.093872 4.1293945 -9.223267 9.223267 -9.223267l159.41171 0c2.446167 0 4.7921143 0.9717407 6.5218506 2.7014465c1.7296753 1.7296753 2.701416 4.075653 2.701416 6.52182l0 36.89203c0 5.093872 -4.1293945 9.223297 -9.223267 9.223297l-159.41171 0c-5.093872 0 -9.223267 -4.129425 -9.223267 -9.223297z" fill-rule="nonzero"></path><path fill="#ffffff" d="m461.08334 439.3259q0 2.625 -0.671875 4.59375q-0.671875 1.953125 -1.96875 3.25q-1.28125 1.28125 -3.15625 1.921875q-1.875 0.640625 -4.46875 0.640625l-4.28125 0q-0.359375 0 -0.6875 -0.234375q-0.3125 -0.25 -0.3125 -0.859375l0 -18.03125q0 -0.609375 0.3125 -0.84375q0.328125 -0.25 0.6875 -0.25l4.578125 0q2.625 0 4.4375 0.6875q1.8125 0.671875 3.03125 1.953125q1.234375 1.265625 1.859375 3.078125q0.640625 1.8125 0.640625 4.09375zm-2.828125 0.109375q0 -1.640625 -0.40625 -3.046875q-0.40625 -1.421875 -1.28125 -2.453125q-0.859375 -1.03125 -2.1875 -1.609375q-1.328125 -0.578125 -3.421875 -0.578125l-2.734375 0l0 15.734375l2.765625 0q1.9375 0 3.265625 -0.484375q1.328125 -0.484375 2.21875 -1.484375q0.890625 -1.0 1.328125 -2.5q0.453125 -1.515625 0.453125 -3.578125zm18.71875 9.90625q0 0.125 -0.0625 0.21875q-0.046875 0.078125 -0.1875 0.140625q-0.140625 0.0625 -0.375 0.09375q-0.21875 0.03125 -0.546875 0.03125q-0.359375 0 -0.59375 -0.03125q-0.21875 -0.03125 -0.359375 -0.09375q-0.125 -0.0625 -0.171875 -0.140625q-0.046875 -0.09375 -0.046875 -0.21875l0 -1.859375q-1.203125 1.328125 -2.375 1.9375q-1.171875 0.609375 -2.375 0.609375q-1.40625 0 -2.375 -0.46875q-0.953125 -0.46875 -1.546875 -1.265625q-0.59375 -0.8125 -0.859375 -1.875q-0.25 -1.078125 -0.25 -2.609375l0 -8.53125q0 -0.125 0.046875 -0.203125q0.0625 -0.09375 0.21875 -0.15625q0.15625 -0.078125 0.40625 -0.09375q0.25 -0.03125 0.625 -0.03125q0.375 0 0.625 0.03125q0.25 0.015625 0.390625 0.09375q0.15625 0.0625 0.21875 0.15625q0.0625 0.078125 0.0625 0.203125l0 8.1875q0 1.234375 0.171875 1.984375q0.1875 0.734375 0.546875 1.265625q0.375 0.515625 0.9375 0.8125q0.5625 0.28125 1.3125 0.28125q0.96875 0 1.921875 -0.6875q0.96875 -0.6875 2.046875 -2.015625l0 -9.828125q0 -0.125 0.046875 -0.203125q0.0625 -0.09375 0.21875 -0.15625q0.15625 -0.078125 0.390625 -0.09375q0.25 -0.03125 0.640625 -0.03125q0.375 0 0.625 0.03125q0.25 0.015625 0.390625 0.09375q0.140625 0.0625 0.203125 0.15625q0.078125 0.078125 0.078125 0.203125l0 14.0625zm25.625 0q0 0.125 -0.0625 0.21875q-0.0625 0.078125 -0.203125 0.140625q-0.140625 0.0625 -0.390625 0.09375q-0.25 0.03125 -0.625 0.03125q-0.390625 0 -0.640625 -0.03125q-0.25 -0.03125 -0.40625 -0.09375q-0.140625 -0.0625 -0.203125 -0.140625q-0.0625 -0.09375 -0.0625 -0.21875l0 -8.546875q0 -0.890625 -0.15625 -1.625q-0.15625 -0.734375 -0.5 -1.265625q-0.34375 -0.53125 -0.875 -0.8125q-0.53125 -0.28125 -1.25 -0.28125q-0.890625 0 -1.796875 0.6875q-0.890625 0.6875 -1.96875 2.015625l0 9.828125q0 0.125 -0.0625 0.21875q-0.0625 0.078125 -0.21875 0.140625q-0.140625 0.0625 -0.390625 0.09375q-0.25 0.03125 -0.625 0.03125q-0.359375 0 -0.625 -0.03125q-0.25 -0.03125 -0.40625 -0.09375q-0.140625 -0.0625 -0.203125 -0.140625q-0.046875 -0.09375 -0.046875 -0.21875l0 -8.546875q0 -0.890625 -0.171875 -1.625q-0.171875 -0.734375 -0.515625 -1.265625q-0.34375 -0.53125 -0.875 -0.8125q-0.515625 -0.28125 -1.234375 -0.28125q-0.890625 0 -1.796875 0.6875q-0.90625 0.6875 -1.96875 2.015625l0 9.828125q0 0.125 -0.0625 0.21875q-0.0625 0.078125 -0.203125 0.140625q-0.140625 0.0625 -0.390625 0.09375q-0.25 0.03125 -0.640625 0.03125q-0.375 0 -0.625 -0.03125q-0.25 -0.03125 -0.40625 -0.09375q-0.140625 -0.0625 -0.203125 -0.140625q-0.046875 -0.09375 -0.046875 -0.21875l0 -14.0625q0 -0.125 0.046875 -0.203125q0.046875 -0.09375 0.1875 -0.15625q0.140625 -0.078125 0.359375 -0.09375q0.21875 -0.03125 0.578125 -0.03125q0.34375 0 0.5625 0.03125q0.234375 0.015625 0.359375 0.09375q0.125 0.0625 0.171875 0.15625q0.0625 0.078125 0.0625 0.203125l0 1.859375q1.1875 -1.328125 2.296875 -1.9375q1.125 -0.625 2.265625 -0.625q0.875 0 1.5625 0.203125q0.703125 0.203125 1.234375 0.578125q0.53125 0.359375 0.90625 0.875q0.375 0.5 0.625 1.125q0.703125 -0.765625 1.328125 -1.296875q0.640625 -0.53125 1.21875 -0.859375q0.59375 -0.328125 1.140625 -0.46875q0.5625 -0.15625 1.125 -0.15625q1.359375 0 2.28125 0.484375q0.921875 0.46875 1.484375 1.265625q0.578125 0.796875 0.8125 1.875q0.25 1.0625 0.25 2.25l0 8.890625zm17.640594 -7.21875q0 1.828125 -0.40625 3.296875q-0.390625 1.453125 -1.171875 2.484375q-0.765625 1.03125 -1.890625 1.578125q-1.125 0.546875 -2.578125 0.546875q-0.671875 0 -1.25 -0.140625q-0.5625 -0.125 -1.1093445 -0.421875q-0.546875 -0.296875 -1.09375 -0.75q-0.546875 -0.453125 -1.15625 -1.09375l0 1.71875q0 0.125 -0.0625 0.21875q-0.0625 0.09375 -0.203125 0.15625q-0.140625 0.046875 -0.359375 0.078125q-0.203125 0.03125 -0.53125 0.03125q-0.3125 0 -0.53125 -0.03125q-0.21875 -0.03125 -0.359375 -0.078125q-0.140625 -0.0625 -0.1875 -0.15625q-0.046875 -0.09375 -0.046875 -0.21875l0 -20.875q0 -0.125 0.046875 -0.21875q0.0625 -0.09375 0.203125 -0.15625q0.15625 -0.0625 0.40625 -0.09375q0.25 -0.03125 0.625 -0.03125q0.390625 0 0.640625 0.03125q0.25 0.03125 0.390625 0.09375q0.140625 0.0625 0.203125 0.15625q0.0625 0.09375 0.0625 0.21875l0 8.421875q0.625 -0.640625 1.203125 -1.078125q0.59375 -0.4375 1.1562195 -0.703125q0.5625 -0.28125 1.125 -0.40625q0.5625 -0.125 1.1875 -0.125q1.53125 0 2.609375 0.609375q1.09375 0.609375 1.765625 1.640625q0.6875 1.015625 1.0 2.390625q0.3125 1.375 0.3125 2.90625zm-2.71875 0.296875q0 -1.078125 -0.171875 -2.09375q-0.15625 -1.015625 -0.5625 -1.796875q-0.40625 -0.78125 -1.078125 -1.25q-0.671875 -0.484375 -1.671875 -0.484375q-0.5 0 -0.984375 0.140625q-0.484375 0.140625 -0.984375 0.46875q-0.49996948 0.328125 -1.0468445 0.84375q-0.53125 0.515625 -1.140625 1.296875l0 5.609375q1.0625 1.296875 2.03125 1.984375q0.9687195 0.671875 2.0155945 0.671875q0.96875 0 1.65625 -0.46875q0.6875 -0.46875 1.109375 -1.234375q0.4375 -0.78125 0.625 -1.734375q0.203125 -0.96875 0.203125 -1.953125z" fill-rule="nonzero"></path><path fill="#005eb8" d="m650.4885 419.56613l0 0c0 -5.093872 4.1294556 -9.223267 9.223328 -9.223267l159.41168 0c2.446167 0 4.7921753 0.9717407 6.5218506 2.7014465c1.7296753 1.7296753 2.701416 4.075653 2.701416 6.52182l0 36.89203c0 5.093872 -4.1293945 9.223297 -9.223267 9.223297l-159.41168 0c-5.093872 0 -9.223328 -4.129425 -9.223328 -9.223297z" fill-rule="nonzero"></path><path stroke="#434343" stroke-width="2.0" stroke-linejoin="round" stroke-linecap="butt" d="m650.4885 419.56613l0 0c0 -5.093872 4.1294556 -9.223267 9.223328 -9.223267l159.41168 0c2.446167 0 4.7921753 0.9717407 6.5218506 2.7014465c1.7296753 1.7296753 2.701416 4.075653 2.701416 6.52182l0 36.89203c0 5.093872 -4.1293945 9.223297 -9.223267 9.223297l-159.41168 0c-5.093872 0 -9.223328 -4.129425 -9.223328 -9.223297z" fill-rule="nonzero"></path><path fill="#ffffff" d="m718.21454 439.3259q0 2.625 -0.671875 4.59375q-0.671875 1.953125 -1.96875 3.25q-1.28125 1.28125 -3.15625 1.921875q-1.875 0.640625 -4.46875 0.640625l-4.28125 0q-0.359375 0 -0.6875 -0.234375q-0.3125 -0.25 -0.3125 -0.859375l0 -18.03125q0 -0.609375 0.3125 -0.84375q0.328125 -0.25 0.6875 -0.25l4.578125 0q2.625 0 4.4375 0.6875q1.8125 0.671875 3.03125 1.953125q1.234375 1.265625 1.859375 3.078125q0.640625 1.8125 0.640625 4.09375zm-2.828125 0.109375q0 -1.640625 -0.40625 -3.046875q-0.40625 -1.421875 -1.28125 -2.453125q-0.859375 -1.03125 -2.1875 -1.609375q-1.328125 -0.578125 -3.421875 -0.578125l-2.734375 0l0 15.734375l2.765625 0q1.9375 0 3.265625 -0.484375q1.328125 -0.484375 2.21875 -1.484375q0.890625 -1.0 1.328125 -2.5q0.453125 -1.515625 0.453125 -3.578125zm18.71875 9.90625q0 0.125 -0.0625 0.21875q-0.046875 0.078125 -0.1875 0.140625q-0.140625 0.0625 -0.375 0.09375q-0.21875 0.03125 -0.546875 0.03125q-0.359375 0 -0.59375 -0.03125q-0.21875 -0.03125 -0.359375 -0.09375q-0.125 -0.0625 -0.171875 -0.140625q-0.046875 -0.09375 -0.046875 -0.21875l0 -1.859375q-1.203125 1.328125 -2.375 1.9375q-1.171875 0.609375 -2.375 0.609375q-1.40625 0 -2.375 -0.46875q-0.953125 -0.46875 -1.546875 -1.265625q-0.59375 -0.8125 -0.859375 -1.875q-0.25 -1.078125 -0.25 -2.609375l0 -8.53125q0 -0.125 0.046875 -0.203125q0.0625 -0.09375 0.21875 -0.15625q0.15625 -0.078125 0.40625 -0.09375q0.25 -0.03125 0.625 -0.03125q0.375 0 0.625 0.03125q0.25 0.015625 0.390625 0.09375q0.15625 0.0625 0.21875 0.15625q0.0625 0.078125 0.0625 0.203125l0 8.1875q0 1.234375 0.171875 1.984375q0.1875 0.734375 0.546875 1.265625q0.375 0.515625 0.9375 0.8125q0.5625 0.28125 1.3125 0.28125q0.96875 0 1.921875 -0.6875q0.96875 -0.6875 2.046875 -2.015625l0 -9.828125q0 -0.125 0.046875 -0.203125q0.0625 -0.09375 0.21875 -0.15625q0.15625 -0.078125 0.390625 -0.09375q0.25 -0.03125 0.640625 -0.03125q0.375 0 0.625 0.03125q0.25 0.015625 0.390625 0.09375q0.140625 0.0625 0.203125 0.15625q0.078125 0.078125 0.078125 0.203125l0 14.0625zm25.625 0q0 0.125 -0.0625 0.21875q-0.0625 0.078125 -0.203125 0.140625q-0.140625 0.0625 -0.390625 0.09375q-0.25 0.03125 -0.625 0.03125q-0.390625 0 -0.640625 -0.03125q-0.25 -0.03125 -0.40625 -0.09375q-0.140625 -0.0625 -0.203125 -0.140625q-0.0625 -0.09375 -0.0625 -0.21875l0 -8.546875q0 -0.890625 -0.15625 -1.625q-0.15625 -0.734375 -0.5 -1.265625q-0.34375 -0.53125 -0.875 -0.8125q-0.53125 -0.28125 -1.25 -0.28125q-0.890625 0 -1.796875 0.6875q-0.890625 0.6875 -1.96875 2.015625l0 9.828125q0 0.125 -0.0625 0.21875q-0.0625 0.078125 -0.21875 0.140625q-0.140625 0.0625 -0.390625 0.09375q-0.25 0.03125 -0.625 0.03125q-0.359375 0 -0.625 -0.03125q-0.25 -0.03125 -0.40625 -0.09375q-0.140625 -0.0625 -0.203125 -0.140625q-0.046875 -0.09375 -0.046875 -0.21875l0 -8.546875q0 -0.890625 -0.171875 -1.625q-0.171875 -0.734375 -0.515625 -1.265625q-0.34375 -0.53125 -0.875 -0.8125q-0.515625 -0.28125 -1.234375 -0.28125q-0.890625 0 -1.796875 0.6875q-0.90625 0.6875 -1.96875 2.015625l0 9.828125q0 0.125 -0.0625 0.21875q-0.0625 0.078125 -0.203125 0.140625q-0.140625 0.0625 -0.390625 0.09375q-0.25 0.03125 -0.640625 0.03125q-0.375 0 -0.625 -0.03125q-0.25 -0.03125 -0.40625 -0.09375q-0.140625 -0.0625 -0.203125 -0.140625q-0.046875 -0.09375 -0.046875 -0.21875l0 -14.0625q0 -0.125 0.046875 -0.203125q0.046875 -0.09375 0.1875 -0.15625q0.140625 -0.078125 0.359375 -0.09375q0.21875 -0.03125 0.578125 -0.03125q0.34375 0 0.5625 0.03125q0.234375 0.015625 0.359375 0.09375q0.125 0.0625 0.171875 0.15625q0.0625 0.078125 0.0625 0.203125l0 1.859375q1.1875 -1.328125 2.296875 -1.9375q1.125 -0.625 2.265625 -0.625q0.875 0 1.5625 0.203125q0.703125 0.203125 1.234375 0.578125q0.53125 0.359375 0.90625 0.875q0.375 0.5 0.625 1.125q0.703125 -0.765625 1.328125 -1.296875q0.640625 -0.53125 1.21875 -0.859375q0.59375 -0.328125 1.140625 -0.46875q0.5625 -0.15625 1.125 -0.15625q1.359375 0 2.28125 0.484375q0.921875 0.46875 1.484375 1.265625q0.578125 0.796875 0.8125 1.875q0.25 1.0625 0.25 2.25l0 8.890625zm17.640625 -7.21875q0 1.828125 -0.40625 3.296875q-0.390625 1.453125 -1.171875 2.484375q-0.765625 1.03125 -1.890625 1.578125q-1.125 0.546875 -2.578125 0.546875q-0.671875 0 -1.25 -0.140625q-0.5625 -0.125 -1.109375 -0.421875q-0.546875 -0.296875 -1.09375 -0.75q-0.546875 -0.453125 -1.15625 -1.09375l0 1.71875q0 0.125 -0.0625 0.21875q-0.0625 0.09375 -0.203125 0.15625q-0.140625 0.046875 -0.359375 0.078125q-0.203125 0.03125 -0.53125 0.03125q-0.3125 0 -0.53125 -0.03125q-0.21875 -0.03125 -0.359375 -0.078125q-0.140625 -0.0625 -0.1875 -0.15625q-0.046875 -0.09375 -0.046875 -0.21875l0 -20.875q0 -0.125 0.046875 -0.21875q0.0625 -0.09375 0.203125 -0.15625q0.15625 -0.0625 0.40625 -0.09375q0.25 -0.03125 0.625 -0.03125q0.390625 0 0.640625 0.03125q0.25 0.03125 0.390625 0.09375q0.140625 0.0625 0.203125 0.15625q0.0625 0.09375 0.0625 0.21875l0 8.421875q0.625 -0.640625 1.203125 -1.078125q0.59375 -0.4375 1.15625 -0.703125q0.5625 -0.28125 1.125 -0.40625q0.5625 -0.125 1.1875 -0.125q1.53125 0 2.609375 0.609375q1.09375 0.609375 1.765625 1.640625q0.6875 1.015625 1.0 2.390625q0.3125 1.375 0.3125 2.90625zm-2.71875 0.296875q0 -1.078125 -0.171875 -2.09375q-0.15625 -1.015625 -0.5625 -1.796875q-0.40625 -0.78125 -1.078125 -1.25q-0.671875 -0.484375 -1.671875 -0.484375q-0.5 0 -0.984375 0.140625q-0.484375 0.140625 -0.984375 0.46875q-0.5 0.328125 -1.046875 0.84375q-0.53125 0.515625 -1.140625 1.296875l0 5.609375q1.0625 1.296875 2.03125 1.984375q0.96875 0.671875 2.015625 0.671875q0.96875 0 1.65625 -0.46875q0.6875 -0.46875 1.109375 -1.234375q0.4375 -0.78125 0.625 -1.734375q0.203125 -0.96875 0.203125 -1.953125z" fill-rule="nonzero"></path></g></svg>

