<?xml version="1.0" standalone="yes"?>

<svg version="1.1" viewBox="0.0 0.0 235.3202099737533 239.79002624671915" fill="none" stroke="none" stroke-linecap="square" stroke-miterlimit="10" xmlns="http://www.w3.org/2000/svg" xmlns:xlink="http://www.w3.org/1999/xlink"><clipPath id="p.0"><path d="m0 0l235.3202 0l0 239.79002l-235.3202 0l0 -239.79002z" clip-rule="nonzero"></path></clipPath><g clip-path="url(#p.0)"><path fill="#000000" fill-opacity="0.0" d="m0 0l235.3202 0l0 239.79002l-235.3202 0z" fill-rule="nonzero"></path><path fill="#000000" fill-opacity="0.0" d="m122.77873 119.36617l135.2441 0l0 45.41732l-135.2441 0z" fill-rule="nonzero"></path><path fill="#cc4125" d="m133.2006 140.40108q1.34375 -1.234375 2.046875 -2.125q0.703125 -0.90625 1.046875 -1.703125l0.421875 0q0.4375 0.921875 1.125 1.78125q0.6875 0.859375 2.03125 2.0625l0 0.703125q-1.875 -0.859375 -2.875 -1.8125l0 13.671875l-0.9375 0l0 -13.671875q-0.890625 0.703125 -1.328125 0.984375q-0.4375 0.265625 -1.53125 0.8125l0 -0.703125z" fill-rule="nonzero"></path><path fill="#434343" d="m153.90268 148.76045q0 0.078125 -0.046875 0.140625q-0.03125 0.046875 -0.109375 0.078125q-0.078125 0.03125 -0.203125 0.046875q-0.125 0.03125 -0.3125 0.03125q-0.203125 0 -0.328125 -0.03125q-0.125 -0.015625 -0.21875 -0.046875q-0.078125 -0.03125 -0.125 -0.078125q-0.03125 -0.0625 -0.03125 -0.140625l0 -1.109375q-0.65625 0.71875 -1.375 1.125q-0.703125 0.390625 -1.546875 0.390625q-0.90625 0 -1.5625 -0.34375q-0.65625 -0.359375 -1.0625 -0.96875q-0.390625 -0.609375 -0.578125 -1.421875q-0.1875 -0.828125 -0.1875 -1.75q0 -1.0625 0.234375 -1.921875q0.234375 -0.875 0.6875 -1.484375q0.453125 -0.625 1.125 -0.953125q0.671875 -0.328125 1.546875 -0.328125q0.734375 0 1.34375 0.328125q0.609375 0.3125 1.203125 0.9375l0 -4.859375q0 -0.0625 0.03125 -0.125q0.03125 -0.0625 0.125 -0.09375q0.09375 -0.03125 0.234375 -0.046875q0.15625 -0.03125 0.375 -0.03125q0.234375 0 0.375 0.03125q0.15625 0.015625 0.234375 0.046875q0.078125 0.03125 0.125 0.09375q0.046875 0.0625 0.046875 0.125l0 12.359375zm-1.546875 -5.875q-0.625 -0.765625 -1.203125 -1.171875q-0.578125 -0.40625 -1.203125 -0.40625q-0.59375 0 -1.0 0.28125q-0.40625 0.28125 -0.671875 0.734375q-0.25 0.453125 -0.359375 1.03125q-0.109375 0.578125 -0.109375 1.171875q0 0.625 0.09375 1.234375q0.09375 0.59375 0.328125 1.0625q0.25 0.46875 0.640625 0.765625q0.40625 0.28125 1.015625 0.28125q0.296875 0 0.578125 -0.078125q0.28125 -0.09375 0.578125 -0.28125q0.296875 -0.203125 0.625 -0.515625q0.328125 -0.3125 0.6875 -0.765625l0 -3.34375zm11.317444 1.34375q0 0.359375 -0.1875 0.515625q-0.171875 0.15625 -0.40625 0.15625l-5.46875 0q0 0.6875 0.125 1.25q0.140625 0.546875 0.46875 0.953125q0.328125 0.390625 0.84375 0.609375q0.515625 0.21875 1.28125 0.21875q0.59375 0 1.046875 -0.09375q0.46875 -0.109375 0.796875 -0.21875q0.34375 -0.125 0.5625 -0.21875q0.21875 -0.109375 0.328125 -0.109375q0.0625 0 0.109375 0.03125q0.0625 0.03125 0.09375 0.109375q0.03125 0.0625 0.03125 0.1875q0.015625 0.109375 0.015625 0.265625q0 0.125 -0.015625 0.21875q0 0.078125 -0.015625 0.15625q-0.015625 0.0625 -0.046875 0.125q-0.03125 0.046875 -0.078125 0.109375q-0.046875 0.046875 -0.296875 0.171875q-0.25 0.109375 -0.65625 0.21875q-0.390625 0.109375 -0.921875 0.1875q-0.53125 0.09375 -1.125 0.09375q-1.015625 0 -1.796875 -0.28125q-0.78125 -0.296875 -1.3125 -0.859375q-0.515625 -0.5625 -0.796875 -1.40625q-0.265625 -0.859375 -0.265625 -2.0q0 -1.078125 0.28125 -1.921875q0.28125 -0.859375 0.796875 -1.453125q0.53125 -0.609375 1.265625 -0.921875q0.75 -0.328125 1.671875 -0.328125q0.984375 0 1.671875 0.3125q0.6875 0.3125 1.125 0.859375q0.453125 0.53125 0.65625 1.25q0.21875 0.71875 0.21875 1.53125l0 0.28125zm-1.546875 -0.453125q0.03125 -1.203125 -0.53125 -1.890625q-0.5625 -0.6875 -1.65625 -0.6875q-0.578125 0 -1.0 0.21875q-0.421875 0.203125 -0.71875 0.5625q-0.28125 0.34375 -0.4375 0.8125q-0.15625 0.46875 -0.171875 0.984375l4.515625 0zm5.2357025 4.984375q0 0.078125 -0.046875 0.125q-0.03125 0.046875 -0.125 0.09375q-0.078125 0.03125 -0.234375 0.046875q-0.140625 0.03125 -0.359375 0.03125q-0.234375 0 -0.390625 -0.03125q-0.140625 -0.015625 -0.234375 -0.046875q-0.078125 -0.046875 -0.109375 -0.09375q-0.03125 -0.046875 -0.03125 -0.125l0 -12.390625q0 -0.078125 0.03125 -0.125q0.03125 -0.0625 0.109375 -0.09375q0.09375 -0.046875 0.234375 -0.0625q0.15625 -0.015625 0.390625 -0.015625q0.21875 0 0.359375 0.015625q0.15625 0.015625 0.234375 0.0625q0.09375 0.03125 0.125 0.09375q0.046875 0.046875 0.046875 0.125l0 12.390625zm9.875214 -4.53125q0 0.359375 -0.1875 0.515625q-0.171875 0.15625 -0.40625 0.15625l-5.46875 0q0 0.6875 0.125 1.25q0.140625 0.546875 0.46875 0.953125q0.328125 0.390625 0.84375 0.609375q0.515625 0.21875 1.28125 0.21875q0.59375 0 1.046875 -0.09375q0.46875 -0.109375 0.796875 -0.21875q0.34375 -0.125 0.5625 -0.21875q0.21875 -0.109375 0.328125 -0.109375q0.0625 0 0.109375 0.03125q0.0625 0.03125 0.09375 0.109375q0.03125 0.0625 0.03125 0.1875q0.015625 0.109375 0.015625 0.265625q0 0.125 -0.015625 0.21875q0 0.078125 -0.015625 0.15625q-0.015625 0.0625 -0.046875 0.125q-0.03125 0.046875 -0.078125 0.109375q-0.046875 0.046875 -0.296875 0.171875q-0.25 0.109375 -0.65625 0.21875q-0.390625 0.109375 -0.921875 0.1875q-0.53125 0.09375 -1.125 0.09375q-1.015625 0 -1.796875 -0.28125q-0.78125 -0.296875 -1.3125 -0.859375q-0.515625 -0.5625 -0.796875 -1.40625q-0.265625 -0.859375 -0.265625 -2.0q0 -1.078125 0.28125 -1.921875q0.28125 -0.859375 0.796875 -1.453125q0.53125 -0.609375 1.265625 -0.921875q0.75 -0.328125 1.671875 -0.328125q0.984375 0 1.671875 0.3125q0.6875 0.3125 1.125 0.859375q0.453125 0.53125 0.65625 1.25q0.21875 0.71875 0.21875 1.53125l0 0.28125zm-1.546875 -0.453125q0.03125 -1.203125 -0.53125 -1.890625q-0.5625 -0.6875 -1.65625 -0.6875q-0.578125 0 -1.0 0.21875q-0.421875 0.203125 -0.71875 0.5625q-0.28125 0.34375 -0.4375 0.8125q-0.15625 0.46875 -0.171875 0.984375l4.515625 0zm8.0482025 4.375q0 0.265625 -0.046875 0.421875q-0.03125 0.15625 -0.109375 0.234375q-0.078125 0.078125 -0.234375 0.140625q-0.140625 0.0625 -0.328125 0.109375q-0.1875 0.046875 -0.40625 0.0625q-0.203125 0.03125 -0.421875 0.03125q-0.640625 0 -1.109375 -0.171875q-0.46875 -0.171875 -0.765625 -0.515625q-0.296875 -0.34375 -0.4375 -0.875q-0.125 -0.546875 -0.125 -1.265625l0 -4.875l-1.171875 0q-0.140625 0 -0.21875 -0.140625q-0.078125 -0.15625 -0.078125 -0.5q0 -0.171875 0.015625 -0.28125q0.03125 -0.125 0.0625 -0.203125q0.03125 -0.09375 0.09375 -0.125q0.0625 -0.03125 0.140625 -0.03125l1.15625 0l0 -1.984375q0 -0.0625 0.03125 -0.109375q0.03125 -0.0625 0.109375 -0.09375q0.09375 -0.046875 0.234375 -0.0625q0.15625 -0.03125 0.390625 -0.03125q0.234375 0 0.375 0.03125q0.15625 0.015625 0.234375 0.0625q0.078125 0.03125 0.109375 0.09375q0.046875 0.046875 0.046875 0.109375l0 1.984375l2.140625 0q0.078125 0 0.125 0.03125q0.0625 0.03125 0.09375 0.125q0.046875 0.078125 0.0625 0.203125q0.03125 0.109375 0.03125 0.28125q0 0.34375 -0.09375 0.5q-0.078125 0.140625 -0.21875 0.140625l-2.140625 0l0 4.65625q0 0.859375 0.25 1.296875q0.265625 0.4375 0.921875 0.4375q0.203125 0 0.375 -0.03125q0.171875 -0.046875 0.296875 -0.09375q0.125 -0.046875 0.21875 -0.078125q0.09375 -0.046875 0.171875 -0.046875q0.046875 0 0.078125 0.03125q0.046875 0.015625 0.0625 0.078125q0.03125 0.0625 0.046875 0.171875q0.03125 0.109375 0.03125 0.28125zm9.030365 -3.921875q0 0.359375 -0.1875 0.515625q-0.171875 0.15625 -0.40625 0.15625l-5.46875 0q0 0.6875 0.125 1.25q0.140625 0.546875 0.46875 0.953125q0.328125 0.390625 0.84375 0.609375q0.515625 0.21875 1.28125 0.21875q0.59375 0 1.046875 -0.09375q0.46875 -0.109375 0.796875 -0.21875q0.34375 -0.125 0.5625 -0.21875q0.21875 -0.109375 0.328125 -0.109375q0.0625 0 0.109375 0.03125q0.0625 0.03125 0.09375 0.109375q0.03125 0.0625 0.03125 0.1875q0.015625 0.109375 0.015625 0.265625q0 0.125 -0.015625 0.21875q0 0.078125 -0.015625 0.15625q-0.015625 0.0625 -0.046875 0.125q-0.03125 0.046875 -0.078125 0.109375q-0.046875 0.046875 -0.296875 0.171875q-0.25 0.109375 -0.65625 0.21875q-0.390625 0.109375 -0.921875 0.1875q-0.53125 0.09375 -1.125 0.09375q-1.015625 0 -1.796875 -0.28125q-0.78125 -0.296875 -1.3125 -0.859375q-0.515625 -0.5625 -0.796875 -1.40625q-0.265625 -0.859375 -0.265625 -2.0q0 -1.078125 0.28125 -1.921875q0.28125 -0.859375 0.796875 -1.453125q0.53125 -0.609375 1.265625 -0.921875q0.75 -0.328125 1.671875 -0.328125q0.984375 0 1.671875 0.3125q0.6875 0.3125 1.125 0.859375q0.453125 0.53125 0.65625 1.25q0.21875 0.71875 0.21875 1.53125l0 0.28125zm-1.546875 -0.453125q0.03125 -1.203125 -0.53125 -1.890625q-0.5625 -0.6875 -1.65625 -0.6875q-0.578125 0 -1.0 0.21875q-0.421875 0.203125 -0.71875 0.5625q-0.28125 0.34375 -0.4375 0.8125q-0.15625 0.46875 -0.171875 0.984375l4.515625 0z" fill-rule="nonzero"></path><path fill="#000000" fill-opacity="0.0" d="m115.821526 62.88714l0 111.874016" fill-rule="nonzero"></path><path stroke="#434343" stroke-width="3.0" stroke-linejoin="round" stroke-linecap="butt" d="m115.821526 62.88714l0 100.50402" fill-rule="evenodd"></path><path fill="#434343" stroke="#434343" stroke-width="3.0" stroke-linecap="butt" d="m115.821526 173.26115c-2.725525 0 -4.935005 -2.2094727 -4.935005 -4.9349976c0 -2.725525 2.2094803 -4.9349976 4.935005 -4.9349976c2.725525 0 4.9349976 2.2094727 4.9349976 4.9349976c0 2.725525 -2.2094727 4.9349976 -4.9349976 4.9349976z" fill-rule="nonzero"></path><path fill="#005eb8" d="m48.199474 16.771837l0 0c0 -5.093877 4.129406 -9.223281 9.223282 -9.223281l116.79753 0c2.446167 0 4.792145 0.97173595 6.5218353 2.701437c1.7297058 1.7297001 2.7014465 4.075678 2.7014465 6.521844l0 36.89202c0 5.0938797 -4.12941 9.223282 -9.223282 9.223282l-116.79753 0l0 0c-5.093876 0 -9.223282 -4.129402 -9.223282 -9.223282z" fill-rule="nonzero"></path><path stroke="#434343" stroke-width="2.0" stroke-linejoin="round" stroke-linecap="butt" d="m48.199474 16.771837l0 0c0 -5.093877 4.129406 -9.223281 9.223282 -9.223281l116.79753 0c2.446167 0 4.792145 0.97173595 6.5218353 2.701437c1.7297058 1.7297001 2.7014465 4.075678 2.7014465 6.521844l0 36.89202c0 5.0938797 -4.12941 9.223282 -9.223282 9.223282l-116.79753 0l0 0c-5.093876 0 -9.223282 -4.129402 -9.223282 -9.223282z" fill-rule="nonzero"></path><path fill="#ffffff" d="m107.57933 45.984722q0.125 0.34375 0.125 0.5625q0.015625 0.203125 -0.109375 0.3125q-0.125 0.109375 -0.421875 0.140625q-0.28125 0.03125 -0.765625 0.03125q-0.484375 0 -0.78125 -0.03125q-0.28125 -0.015625 -0.4375 -0.0625q-0.140625 -0.0625 -0.21875 -0.15625q-0.0625 -0.09375 -0.125 -0.234375l-1.734375 -4.921875l-8.40625 0l-1.65625 4.859375q-0.046875 0.140625 -0.125 0.25q-0.078125 0.09375 -0.234375 0.171875q-0.140625 0.0625 -0.421875 0.09375q-0.265625 0.03125 -0.703125 0.03125q-0.453125 0 -0.75 -0.046875q-0.28125 -0.03125 -0.40625 -0.140625q-0.109375 -0.109375 -0.109375 -0.3125q0.015625 -0.21875 0.140625 -0.5625l6.78125 -18.781248q0.0625 -0.171875 0.15625 -0.28125q0.109375 -0.109375 0.296875 -0.171875q0.203125 -0.0625 0.5 -0.078125q0.3125 -0.03125 0.78125 -0.03125q0.5 0 0.828125 0.03125q0.328125 0.015625 0.53125 0.078125q0.203125 0.0625 0.3125 0.1875q0.109375 0.109375 0.171875 0.28125l6.78125 18.781248zm-8.703125 -16.578123l-0.015625 0l-3.484375 10.078123l7.03125 0l-3.53125 -10.078123zm24.71875 9.890623q0 1.84375 -0.40625 3.3125q-0.390625 1.46875 -1.171875 2.5q-0.765625 1.015625 -1.90625 1.578125q-1.140625 0.546875 -2.609375 0.546875q-0.625 0 -1.15625 -0.125q-0.53125 -0.125 -1.046875 -0.390625q-0.5 -0.265625 -1.0 -0.671875q-0.5 -0.40625 -1.0625 -0.953125l0 7.03125q0 0.125 -0.0625 0.21875q-0.0625 0.09375 -0.203125 0.15625q-0.140625 0.0625 -0.390625 0.09375q-0.25 0.03125 -0.640625 0.03125q-0.375 0 -0.625 -0.03125q-0.25 -0.03125 -0.40625 -0.09375q-0.140625 -0.0625 -0.203125 -0.15625q-0.046875 -0.09375 -0.046875 -0.21875l0 -19.640625q0 -0.140625 0.046875 -0.21875q0.046875 -0.09375 0.1875 -0.15625q0.140625 -0.0625 0.359375 -0.078125q0.21875 -0.03125 0.53125 -0.03125q0.328125 0 0.53125 0.03125q0.21875 0.015625 0.359375 0.078125q0.140625 0.0625 0.1875 0.15625q0.0625 0.078125 0.0625 0.21875l0 1.890625q0.640625 -0.65625 1.234375 -1.140625q0.59375 -0.484375 1.1875 -0.796875q0.609375 -0.328125 1.234375 -0.4843731q0.640625 -0.171875 1.34375 -0.171875q1.53125 0 2.609375 0.5937481q1.078125 0.59375 1.75 1.625q0.6875 1.03125 1.0 2.40625q0.3125 1.359375 0.3125 2.890625zm-2.71875 0.296875q0 -1.078125 -0.171875 -2.078125q-0.15625 -1.015625 -0.5625 -1.796875q-0.390625 -0.78125 -1.0625 -1.25q-0.671875 -0.46875 -1.671875 -0.46875q-0.5 0 -0.984375 0.15625q-0.484375 0.140625 -0.984375 0.46875q-0.5 0.3125 -1.046875 0.84375q-0.546875 0.515625 -1.15625 1.28125l0 5.59375q1.0625 1.296875 2.015625 1.984375q0.953125 0.6875 2.0 0.6875q0.96875 0 1.65625 -0.46875q0.703125 -0.46875 1.125 -1.25q0.4375 -0.78125 0.640625 -1.75q0.203125 -0.96875 0.203125 -1.953125zm19.53125 -0.296875q0 1.84375 -0.40625 3.3125q-0.390625 1.46875 -1.171875 2.5q-0.765625 1.015625 -1.90625 1.578125q-1.140625 0.546875 -2.609375 0.546875q-0.625 0 -1.15625 -0.125q-0.53125 -0.125 -1.046875 -0.390625q-0.5 -0.265625 -1.0 -0.671875q-0.5 -0.40625 -1.0625 -0.953125l0 7.03125q0 0.125 -0.0625 0.21875q-0.0625 0.09375 -0.203125 0.15625q-0.140625 0.0625 -0.390625 0.09375q-0.25 0.03125 -0.640625 0.03125q-0.375 0 -0.625 -0.03125q-0.25 -0.03125 -0.40625 -0.09375q-0.140625 -0.0625 -0.203125 -0.15625q-0.046875 -0.09375 -0.046875 -0.21875l0 -19.640625q0 -0.140625 0.046875 -0.21875q0.046875 -0.09375 0.1875 -0.15625q0.140625 -0.0625 0.359375 -0.078125q0.21875 -0.03125 0.53125 -0.03125q0.328125 0 0.53125 0.03125q0.21875 0.015625 0.359375 0.078125q0.140625 0.0625 0.1875 0.15625q0.0625 0.078125 0.0625 0.21875l0 1.890625q0.640625 -0.65625 1.234375 -1.140625q0.59375 -0.484375 1.1875 -0.796875q0.609375 -0.328125 1.234375 -0.4843731q0.640625 -0.171875 1.34375 -0.171875q1.53125 0 2.609375 0.5937481q1.078125 0.59375 1.75 1.625q0.6875 1.03125 1.0 2.40625q0.3125 1.359375 0.3125 2.890625zm-2.71875 0.296875q0 -1.078125 -0.171875 -2.078125q-0.15625 -1.015625 -0.5625 -1.796875q-0.390625 -0.78125 -1.0625 -1.25q-0.671875 -0.46875 -1.671875 -0.46875q-0.5 0 -0.984375 0.15625q-0.484375 0.140625 -0.984375 0.46875q-0.5 0.3125 -1.046875 0.84375q-0.546875 0.515625 -1.15625 1.28125l0 5.59375q1.0625 1.296875 2.015625 1.984375q0.953125 0.6875 2.0 0.6875q0.96875 0 1.65625 -0.46875q0.703125 -0.46875 1.125 -1.25q0.4375 -0.78125 0.640625 -1.75q0.203125 -0.96875 0.203125 -1.953125z" fill-rule="nonzero"></path><path fill="#005eb8" d="m5.569554 183.98444l0 0c0 -5.093872 4.1294036 -9.223282 9.223282 -9.223282l202.05737 0c2.446167 0 4.792145 0.9717407 6.5218506 2.7014313c1.7297058 1.7297058 2.7014313 4.0756836 2.7014313 6.5218506l0 36.892014c0 5.0938873 -4.1293945 9.223282 -9.223282 9.223282l-202.05737 0c-5.093878 0 -9.223282 -4.1293945 -9.223282 -9.223282z" fill-rule="nonzero"></path><path stroke="#434343" stroke-width="2.0" stroke-linejoin="round" stroke-linecap="butt" d="m5.569554 183.98444l0 0c0 -5.093872 4.1294036 -9.223282 9.223282 -9.223282l202.05737 0c2.446167 0 4.792145 0.9717407 6.5218506 2.7014313c1.7297058 1.7297058 2.7014313 4.0756836 2.7014313 6.5218506l0 36.892014c0 5.0938873 -4.1293945 9.223282 -9.223282 9.223282l-202.05737 0c-5.093878 0 -9.223282 -4.1293945 -9.223282 -9.223282z" fill-rule="nonzero"></path><path fill="#ffffff" d="m59.46996 211.29108q0 0.25 -0.015625 0.4375q-0.015625 0.1875 -0.0625 0.328125q-0.03125 0.140625 -0.09375 0.25q-0.0625 0.109375 -0.21875 0.265625q-0.15625 0.15625 -0.65625 0.484375q-0.5 0.3125 -1.25 0.625q-0.734375 0.296875 -1.703125 0.5q-0.953125 0.21875 -2.09375 0.21875q-1.96875 0 -3.5625 -0.65625q-1.578125 -0.65625 -2.703125 -1.9375q-1.109375 -1.28125 -1.71875 -3.15625q-0.59375 -1.890625 -0.59375 -4.34375q0 -2.515625 0.640625 -4.484375q0.65625 -1.96875 1.828125 -3.328125q1.171875 -1.375 2.796875 -2.09375q1.640625 -0.71875 3.625 -0.71875q0.875 0 1.703125 0.171875q0.828125 0.15625 1.53125 0.40625q0.703125 0.25 1.25 0.578125q0.546875 0.328125 0.75 0.546875q0.21875 0.203125 0.28125 0.3125q0.0625 0.109375 0.09375 0.265625q0.046875 0.140625 0.0625 0.34375q0.03125 0.203125 0.03125 0.484375q0 0.3125 -0.03125 0.53125q-0.03125 0.21875 -0.09375 0.375q-0.0625 0.140625 -0.15625 0.21875q-0.078125 0.0625 -0.203125 0.0625q-0.21875 0 -0.609375 -0.296875q-0.390625 -0.3125 -1.015625 -0.671875q-0.609375 -0.375 -1.5 -0.671875q-0.875 -0.3125 -2.109375 -0.3125q-1.34375 0 -2.453125 0.546875q-1.09375 0.53125 -1.875 1.578125q-0.78125 1.046875 -1.21875 2.5625q-0.421875 1.5 -0.421875 3.4375q0 1.921875 0.40625 3.40625q0.421875 1.46875 1.1875 2.46875q0.78125 0.984375 1.90625 1.5q1.125 0.5 2.546875 0.5q1.203125 0 2.09375 -0.296875q0.90625 -0.296875 1.53125 -0.65625q0.640625 -0.375 1.046875 -0.671875q0.40625 -0.296875 0.640625 -0.296875q0.109375 0 0.1875 0.046875q0.078125 0.046875 0.125 0.1875q0.046875 0.125 0.0625 0.359375q0.03125 0.234375 0.03125 0.59375zm16.343746 -4.71875q0 1.71875 -0.453125 3.171875q-0.453125 1.4375 -1.359375 2.484375q-0.890625 1.046875 -2.25 1.640625q-1.34375 0.578125 -3.125 0.578125q-1.734375 0 -3.03125 -0.515625q-1.28125 -0.515625 -2.1406212 -1.5q-0.859375 -0.984375 -1.28125 -2.390625q-0.421875 -1.40625 -0.421875 -3.1875q0 -1.71875 0.4375 -3.15625q0.453125 -1.453125 1.34375 -2.5q0.9062462 -1.046875 2.2499962 -1.625q1.34375 -0.578125 3.140625 -0.578125q1.734375 0 3.015625 0.515625q1.296875 0.515625 2.15625 1.5q0.859375 0.984375 1.28125 2.390625q0.4375 1.40625 0.4375 3.171875zm-2.71875 0.171875q0 -1.140625 -0.21875 -2.15625q-0.203125 -1.015625 -0.6875 -1.78125q-0.484375 -0.765625 -1.3125 -1.203125q-0.828125 -0.453125 -2.0625 -0.453125q-1.140625 0 -1.96875 0.40625q-0.8125 0.40625 -1.34375 1.15625q-0.53125 0.734375 -0.796875 1.75q-0.25 1.015625 -0.25 2.21875q0 1.15625 0.203125 2.171875q0.21875 1.015625 0.703125 1.78125q0.5 0.75 1.328125 1.203125q0.828125 0.4375 2.0625 0.4375q1.125 0 1.953125 -0.40625q0.828125 -0.40625 1.359375 -1.140625q0.53125 -0.734375 0.78125 -1.75q0.25 -1.015625 0.25 -2.234375zm18.625 7.015625q0 0.125 -0.0625 0.21875q-0.0625 0.078125 -0.203125 0.140625q-0.140625 0.0625 -0.390625 0.09375q-0.25 0.03125 -0.625 0.03125q-0.390625 0 -0.640625 -0.03125q-0.25 -0.03125 -0.390625 -0.09375q-0.140625 -0.0625 -0.203125 -0.140625q-0.0625 -0.09375 -0.0625 -0.21875l0 -8.234375q0 -1.203125 -0.1875 -1.9375q-0.1875 -0.734375 -0.546875 -1.265625q-0.359375 -0.53125 -0.9375 -0.8125q-0.5625 -0.28125 -1.3125 -0.28125q-0.96875 0 -1.9375 0.6875q-0.96875 0.6875 -2.03125 2.015625l0 9.828125q0 0.125 -0.0625 0.21875q-0.0625 0.078125 -0.203125 0.140625q-0.140625 0.0625 -0.390625 0.09375q-0.25 0.03125 -0.640625 0.03125q-0.375 0 -0.625 -0.03125q-0.25 -0.03125 -0.40625 -0.09375q-0.140625 -0.0625 -0.203125 -0.140625q-0.046875 -0.09375 -0.046875 -0.21875l0 -14.0625q0 -0.125 0.046875 -0.203125q0.046875 -0.09375 0.1875 -0.15625q0.140625 -0.078125 0.359375 -0.09375q0.21875 -0.03125 0.578125 -0.03125q0.34375 0 0.5625 0.03125q0.234375 0.015625 0.359375 0.09375q0.125 0.0625 0.171875 0.15625q0.0625 0.078125 0.0625 0.203125l0 1.859375q1.1875 -1.328125 2.359375 -1.9375q1.1875 -0.625 2.390625 -0.625q1.40625 0 2.359375 0.484375q0.96875 0.46875 1.5625 1.265625q0.59375 0.796875 0.84375 1.875q0.265625 1.0625 0.265625 2.5625l0 8.578125zm12.015625 -1.03125q0 0.453125 -0.0625 0.71875q-0.0625 0.265625 -0.1875 0.390625q-0.125 0.125 -0.375 0.234375q-0.25 0.109375 -0.578125 0.171875q-0.3125 0.078125 -0.671875 0.125q-0.359375 0.046875 -0.71875 0.046875q-1.09375 0 -1.875 -0.28125q-0.78125 -0.296875 -1.28125 -0.875q-0.5 -0.59375 -0.734375 -1.484375q-0.21875 -0.90625 -0.21875 -2.125l0 -8.21875l-1.96875 0q-0.234375 0 -0.375 -0.25q-0.140625 -0.25 -0.140625 -0.8125q0 -0.296875 0.03125 -0.5q0.046875 -0.203125 0.109375 -0.328125q0.0625 -0.140625 0.15625 -0.1875q0.109375 -0.0625 0.234375 -0.0625l1.953125 0l0 -3.34375q0 -0.109375 0.046875 -0.203125q0.0625 -0.09375 0.203125 -0.15625q0.15625 -0.078125 0.40625 -0.109375q0.25 -0.03125 0.625 -0.03125q0.390625 0 0.640625 0.03125q0.25 0.03125 0.390625 0.109375q0.140625 0.0625 0.203125 0.15625q0.0625 0.09375 0.0625 0.203125l0 3.34375l3.609375 0q0.125 0 0.21875 0.0625q0.09375 0.046875 0.15625 0.1875q0.078125 0.125 0.109375 0.328125q0.03125 0.203125 0.03125 0.5q0 0.5625 -0.140625 0.8125q-0.140625 0.25 -0.375 0.25l-3.609375 0l0 7.84375q0 1.453125 0.421875 2.203125q0.4375 0.734375 1.546875 0.734375q0.359375 0 0.640625 -0.0625q0.28125 -0.078125 0.5 -0.15625q0.21875 -0.078125 0.375 -0.140625q0.15625 -0.078125 0.28125 -0.078125q0.078125 0 0.140625 0.046875q0.078125 0.03125 0.109375 0.140625q0.046875 0.109375 0.078125 0.296875q0.03125 0.1875 0.03125 0.46875zm14.0 1.046875q0 0.1875 -0.125 0.28125q-0.125 0.09375 -0.34375 0.140625q-0.21875 0.046875 -0.640625 0.046875q-0.40625 0 -0.65625 -0.046875q-0.234375 -0.046875 -0.34375 -0.140625q-0.109375 -0.09375 -0.109375 -0.28125l0 -1.40625q-0.921875 0.984375 -2.0625 1.53125q-1.125 0.546875 -2.390625 0.546875q-1.109375 0 -2.015625 -0.296875q-0.890625 -0.28125 -1.53125 -0.828125q-0.625 -0.546875 -0.984375 -1.34375q-0.34375 -0.796875 -0.34375 -1.8125q0 -1.1875 0.484375 -2.0625q0.484375 -0.875 1.390625 -1.453125q0.90625 -0.578125 2.21875 -0.859375q1.3125 -0.296875 2.953125 -0.296875l1.9375 0l0 -1.09375q0 -0.8125 -0.171875 -1.4375q-0.171875 -0.625 -0.5625 -1.03125q-0.375 -0.421875 -0.984375 -0.625q-0.609375 -0.21875 -1.5 -0.21875q-0.953125 0 -1.71875 0.234375q-0.75 0.21875 -1.328125 0.5q-0.5625 0.265625 -0.953125 0.5q-0.375 0.21875 -0.5625 0.21875q-0.125 0 -0.21875 -0.0625q-0.09375 -0.0625 -0.171875 -0.1875q-0.0625 -0.125 -0.09375 -0.3125q-0.03125 -0.203125 -0.03125 -0.4375q0 -0.390625 0.046875 -0.609375q0.0625 -0.234375 0.265625 -0.4375q0.21875 -0.203125 0.734375 -0.46875q0.515625 -0.28125 1.1875 -0.5q0.671875 -0.234375 1.46875 -0.375q0.796875 -0.15625 1.609375 -0.15625q1.515625 0 2.578125 0.34375q1.0625 0.34375 1.71875 1.015625q0.65625 0.65625 0.953125 1.640625q0.296875 0.984375 0.296875 2.296875l0 9.484375zm-2.5625 -6.421875l-2.203125 0q-1.0625 0 -1.84375 0.1875q-0.78125 0.171875 -1.296875 0.53125q-0.515625 0.34375 -0.765625 0.84375q-0.234375 0.484375 -0.234375 1.125q0 1.09375 0.6875 1.75q0.703125 0.640625 1.953125 0.640625q1.015625 0 1.875 -0.515625q0.875 -0.515625 1.828125 -1.578125l0 -2.984375zm17.40625 4.265625q0 0.265625 -0.015625 0.46875q-0.015625 0.1875 -0.0625 0.328125q-0.03125 0.125 -0.09375 0.234375q-0.046875 0.09375 -0.25 0.296875q-0.1875 0.1875 -0.65625 0.484375q-0.46875 0.28125 -1.0625 0.515625q-0.578125 0.21875 -1.265625 0.359375q-0.6875 0.140625 -1.421875 0.140625q-1.515625 0 -2.6875 -0.5q-1.171875 -0.5 -1.96875 -1.453125q-0.78125 -0.96875 -1.203125 -2.359375q-0.40625 -1.40625 -0.40625 -3.234375q0 -2.078125 0.5 -3.5625q0.515625 -1.5 1.390625 -2.453125q0.890625 -0.953125 2.078125 -1.40625q1.203125 -0.46875 2.59375 -0.46875q0.671875 0 1.296875 0.125q0.640625 0.125 1.171875 0.328125q0.53125 0.203125 0.9375 0.46875q0.421875 0.265625 0.609375 0.453125q0.1875 0.1875 0.25 0.296875q0.078125 0.109375 0.125 0.265625q0.046875 0.140625 0.0625 0.328125q0.015625 0.1875 0.015625 0.46875q0 0.609375 -0.140625 0.859375q-0.140625 0.234375 -0.34375 0.234375q-0.234375 0 -0.546875 -0.25q-0.296875 -0.265625 -0.765625 -0.578125q-0.46875 -0.3125 -1.140625 -0.5625q-0.65625 -0.265625 -1.5625 -0.265625q-1.859375 0 -2.859375 1.4375q-0.984375 1.421875 -0.984375 4.140625q0 1.359375 0.25 2.390625q0.265625 1.015625 0.765625 1.703125q0.5 0.6875 1.21875 1.03125q0.734375 0.328125 1.671875 0.328125q0.890625 0 1.5625 -0.28125q0.671875 -0.28125 1.15625 -0.609375q0.5 -0.34375 0.828125 -0.609375q0.34375 -0.28125 0.53125 -0.28125q0.109375 0 0.1875 0.0625q0.078125 0.0625 0.125 0.21875q0.0625 0.140625 0.078125 0.375q0.03125 0.21875 0.03125 0.53125zm10.73439 1.109375q0 0.453125 -0.0625 0.71875q-0.0625 0.265625 -0.1875 0.390625q-0.125 0.125 -0.375 0.234375q-0.25 0.109375 -0.578125 0.171875q-0.3125 0.078125 -0.671875 0.125q-0.359375 0.046875 -0.71875 0.046875q-1.09375 0 -1.875 -0.28125q-0.78125 -0.296875 -1.28125 -0.875q-0.5 -0.59375 -0.734375 -1.484375q-0.21875 -0.90625 -0.21875 -2.125l0 -8.21875l-1.9687653 0q-0.234375 0 -0.375 -0.25q-0.140625 -0.25 -0.140625 -0.8125q0 -0.296875 0.03125 -0.5q0.046875 -0.203125 0.109375 -0.328125q0.0625 -0.140625 0.15625 -0.1875q0.109375 -0.0625 0.234375 -0.0625l1.9531403 0l0 -3.34375q0 -0.109375 0.046875 -0.203125q0.0625 -0.09375 0.203125 -0.15625q0.15625 -0.078125 0.40625 -0.109375q0.25 -0.03125 0.625 -0.03125q0.390625 0 0.640625 0.03125q0.25 0.03125 0.390625 0.109375q0.140625 0.0625 0.203125 0.15625q0.0625 0.09375 0.0625 0.203125l0 3.34375l3.609375 0q0.125 0 0.21875 0.0625q0.09375 0.046875 0.15625 0.1875q0.078125 0.125 0.109375 0.328125q0.03125 0.203125 0.03125 0.5q0 0.5625 -0.140625 0.8125q-0.140625 0.25 -0.375 0.25l-3.609375 0l0 7.84375q0 1.453125 0.421875 2.203125q0.4375 0.734375 1.546875 0.734375q0.359375 0 0.640625 -0.0625q0.28125 -0.078125 0.5 -0.15625q0.21875 -0.078125 0.375 -0.140625q0.15625 -0.078125 0.28125 -0.078125q0.078125 0 0.140625 0.046875q0.078125 0.03125 0.109375 0.140625q0.046875 0.109375 0.078125 0.296875q0.03125 0.1875 0.03125 0.46875zm14.1875 0.25q0 0.3125 -0.03125 0.53125q-0.03125 0.203125 -0.109375 0.359375q-0.0625 0.140625 -0.171875 0.21875q-0.09375 0.0625 -0.234375 0.0625l-8.9375 0q-0.359375 0 -0.6875 -0.234375q-0.3125 -0.25 -0.3125 -0.859375l0 -18.71875q0 -0.125 0.0625 -0.21875q0.0625 -0.09375 0.21875 -0.140625q0.15625 -0.0625 0.421875 -0.09375q0.265625 -0.046875 0.640625 -0.046875q0.390625 0 0.640625 0.046875q0.265625 0.03125 0.421875 0.09375q0.15625 0.046875 0.21875 0.140625q0.0625 0.09375 0.0625 0.21875l0 17.484375l7.25 0q0.140625 0 0.234375 0.078125q0.109375 0.0625 0.171875 0.203125q0.078125 0.125 0.109375 0.34375q0.03125 0.21875 0.03125 0.53125zm5.25 0.78125q0 0.125 -0.0625 0.21875q-0.0625 0.078125 -0.203125 0.140625q-0.140625 0.0625 -0.390625 0.09375q-0.25 0.03125 -0.640625 0.03125q-0.375 0 -0.625 -0.03125q-0.25 -0.03125 -0.40625 -0.09375q-0.140625 -0.0625 -0.203125 -0.140625q-0.046875 -0.09375 -0.046875 -0.21875l0 -14.0625q0 -0.109375 0.046875 -0.203125q0.0625 -0.09375 0.203125 -0.15625q0.15625 -0.0625 0.40625 -0.09375q0.25 -0.03125 0.625 -0.03125q0.390625 0 0.640625 0.03125q0.25 0.03125 0.390625 0.09375q0.140625 0.0625 0.203125 0.15625q0.0625 0.09375 0.0625 0.203125l0 14.0625zm0.296875 -18.8125q0 0.90625 -0.34375 1.234375q-0.34375 0.328125 -1.265625 0.328125q-0.90625 0 -1.25 -0.3125q-0.328125 -0.328125 -0.328125 -1.21875q0 -0.90625 0.34375 -1.234375q0.34375 -0.328125 1.265625 -0.328125q0.90625 0 1.234375 0.328125q0.34375 0.3125 0.34375 1.203125zm13.296875 14.984375q0 1.078125 -0.40625 1.921875q-0.390625 0.84375 -1.125 1.421875q-0.734375 0.578125 -1.75 0.875q-1.015625 0.296875 -2.234375 0.296875q-0.75 0 -1.4375 -0.125q-0.671875 -0.109375 -1.21875 -0.28125q-0.53125 -0.1875 -0.90625 -0.375q-0.375 -0.203125 -0.546875 -0.359375q-0.171875 -0.15625 -0.25 -0.4375q-0.078125 -0.28125 -0.078125 -0.765625q0 -0.296875 0.03125 -0.5q0.03125 -0.203125 0.078125 -0.328125q0.046875 -0.125 0.125 -0.171875q0.09375 -0.0625 0.203125 -0.0625q0.171875 0 0.5 0.21875q0.34375 0.203125 0.828125 0.453125q0.5 0.25 1.171875 0.46875q0.671875 0.203125 1.546875 0.203125q0.65625 0 1.1875 -0.140625q0.53125 -0.140625 0.921875 -0.40625q0.390625 -0.28125 0.59375 -0.703125q0.21875 -0.421875 0.21875 -1.0q0 -0.59375 -0.3125 -1.0q-0.296875 -0.40625 -0.796875 -0.71875q-0.5 -0.3125 -1.125 -0.546875q-0.625 -0.25 -1.296875 -0.515625q-0.65625 -0.265625 -1.296875 -0.59375q-0.625 -0.34375 -1.125 -0.828125q-0.5 -0.484375 -0.8125 -1.15625q-0.296875 -0.671875 -0.296875 -1.609375q0 -0.828125 0.3125 -1.578125q0.328125 -0.765625 0.96875 -1.328125q0.640625 -0.578125 1.59375 -0.921875q0.96875 -0.34375 2.25 -0.34375q0.5625 0 1.125 0.09375q0.5625 0.09375 1.015625 0.234375q0.453125 0.140625 0.765625 0.3125q0.328125 0.15625 0.484375 0.28125q0.171875 0.125 0.21875 0.21875q0.0625 0.09375 0.078125 0.21875q0.03125 0.109375 0.046875 0.28125q0.03125 0.171875 0.03125 0.421875q0 0.265625 -0.03125 0.46875q-0.015625 0.1875 -0.078125 0.3125q-0.046875 0.125 -0.125 0.1875q-0.078125 0.046875 -0.171875 0.046875q-0.140625 0 -0.40625 -0.171875q-0.265625 -0.171875 -0.6875 -0.359375q-0.421875 -0.203125 -1.0 -0.375q-0.5625 -0.171875 -1.296875 -0.171875q-0.65625 0 -1.15625 0.15625q-0.5 0.140625 -0.828125 0.421875q-0.3125 0.265625 -0.484375 0.640625q-0.15625 0.375 -0.15625 0.8125q0 0.609375 0.3125 1.03125q0.3125 0.40625 0.8125 0.71875q0.5 0.3125 1.140625 0.5625q0.640625 0.25 1.296875 0.515625q0.671875 0.265625 1.3125 0.59375q0.65625 0.328125 1.15625 0.796875q0.5 0.46875 0.796875 1.125q0.3125 0.65625 0.3125 1.5625zm11.0 2.796875q0 0.453125 -0.0625 0.71875q-0.0625 0.265625 -0.1875 0.390625q-0.125 0.125 -0.375 0.234375q-0.25 0.109375 -0.578125 0.171875q-0.3125 0.078125 -0.671875 0.125q-0.359375 0.046875 -0.71875 0.046875q-1.09375 0 -1.875 -0.28125q-0.78125 -0.296875 -1.28125 -0.875q-0.5 -0.59375 -0.734375 -1.484375q-0.21875 -0.90625 -0.21875 -2.125l0 -8.21875l-1.96875 0q-0.234375 0 -0.375 -0.25q-0.140625 -0.25 -0.140625 -0.8125q0 -0.296875 0.03125 -0.5q0.046875 -0.203125 0.109375 -0.328125q0.0625 -0.140625 0.15625 -0.1875q0.109375 -0.0625 0.234375 -0.0625l1.953125 0l0 -3.34375q0 -0.109375 0.046875 -0.203125q0.0625 -0.09375 0.203125 -0.15625q0.15625 -0.078125 0.40625 -0.109375q0.25 -0.03125 0.625 -0.03125q0.390625 0 0.640625 0.03125q0.25 0.03125 0.390625 0.109375q0.140625 0.0625 0.203125 0.15625q0.0625 0.09375 0.0625 0.203125l0 3.34375l3.609375 0q0.125 0 0.21875 0.0625q0.09375 0.046875 0.15625 0.1875q0.078125 0.125 0.109375 0.328125q0.03125 0.203125 0.03125 0.5q0 0.5625 -0.140625 0.8125q-0.140625 0.25 -0.375 0.25l-3.609375 0l0 7.84375q0 1.453125 0.421875 2.203125q0.4375 0.734375 1.546875 0.734375q0.359375 0 0.640625 -0.0625q0.28125 -0.078125 0.5 -0.15625q0.21875 -0.078125 0.375 -0.140625q0.15625 -0.078125 0.28125 -0.078125q0.078125 0 0.140625 0.046875q0.078125 0.03125 0.109375 0.140625q0.046875 0.109375 0.078125 0.296875q0.03125 0.1875 0.03125 0.46875z" fill-rule="nonzero"></path><path fill="#000000" fill-opacity="0.0" d="m6.731742 120.48786l119.02362 0l0 80.97637l-119.02362 0z" fill-rule="nonzero"></path><path fill="#6aa84f" d="m17.153616 147.5641l0 -0.71875q1.109375 0.546875 1.546875 0.828125q0.4375 0.28125 1.3125 0.984375l0 -13.671875l0.9375 0l0 13.671875q1.0 -0.953125 2.875 -1.828125l0 0.71875q-1.34375 1.203125 -2.03125 2.0625q-0.6875 0.859375 -1.125 1.78125l-0.421875 0q-0.34375 -0.796875 -1.046875 -1.703125q-0.703125 -0.90625 -2.046875 -2.125z" fill-rule="nonzero"></path><path fill="#434343" d="m36.69944 145.90785q0 0.15625 -0.015625 0.28125q0 0.109375 -0.03125 0.1875q-0.015625 0.078125 -0.046875 0.140625q-0.03125 0.0625 -0.15625 0.171875q-0.109375 0.109375 -0.390625 0.28125q-0.28125 0.171875 -0.625 0.3125q-0.34375 0.140625 -0.765625 0.21875q-0.40625 0.078125 -0.828125 0.078125q-0.90625 0 -1.609375 -0.296875q-0.6875019 -0.296875 -1.1562519 -0.859375q-0.46875 -0.578125 -0.71875 -1.40625q-0.25 -0.828125 -0.25 -1.921875q0 -1.21875 0.296875 -2.109375q0.3125 -0.890625 0.828125 -1.453125q0.53125 -0.5625 1.2343769 -0.828125q0.71875 -0.28125 1.546875 -0.28125q0.390625 0 0.765625 0.078125q0.375 0.0625 0.6875 0.1875q0.328125 0.125 0.5625 0.28125q0.25 0.15625 0.359375 0.265625q0.125 0.109375 0.15625 0.171875q0.046875 0.0625 0.0625 0.15625q0.03125 0.09375 0.046875 0.203125q0.015625 0.109375 0.015625 0.28125q0 0.359375 -0.09375 0.5q-0.078125 0.140625 -0.203125 0.140625q-0.140625 0 -0.328125 -0.140625q-0.171875 -0.15625 -0.453125 -0.34375q-0.265625 -0.1875 -0.671875 -0.34375q-0.390625 -0.15625 -0.921875 -0.15625q-1.109375 0 -1.703125 0.859375q-0.5781269 0.84375 -0.5781269 2.453125q0 0.8125 0.140625 1.421875q0.1562519 0.609375 0.4531269 1.015625q0.296875 0.40625 0.71875 0.609375q0.4375 0.1875 1.0 0.1875q0.53125 0 0.921875 -0.15625q0.40625 -0.171875 0.6875 -0.375q0.296875 -0.203125 0.5 -0.359375q0.203125 -0.15625 0.3125 -0.15625q0.0625 0 0.109375 0.03125q0.046875 0.03125 0.078125 0.125q0.03125 0.09375 0.046875 0.234375q0.015625 0.125 0.015625 0.3125zm9.654449 -3.0q0 1.015625 -0.28125 1.875q-0.265625 0.859375 -0.796875 1.484375q-0.53125 0.625 -1.34375 0.96875q-0.796875 0.34375 -1.84375 0.34375q-1.03125 0 -1.796875 -0.296875q-0.765625 -0.3125 -1.28125 -0.890625q-0.5 -0.59375 -0.765625 -1.421875q-0.25 -0.84375 -0.25 -1.890625q0 -1.03125 0.265625 -1.875q0.265625 -0.859375 0.796875 -1.484375q0.546875 -0.625 1.34375 -0.96875q0.796875 -0.34375 1.859375 -0.34375q1.03125 0 1.796875 0.3125q0.765625 0.296875 1.265625 0.890625q0.515625 0.578125 0.765625 1.421875q0.265625 0.828125 0.265625 1.875zm-1.609375 0.109375q0 -0.6875 -0.140625 -1.28125q-0.125 -0.609375 -0.40625 -1.0625q-0.28125 -0.453125 -0.78125 -0.71875q-0.484375 -0.265625 -1.21875 -0.265625q-0.6875 0 -1.171875 0.25q-0.484375 0.234375 -0.796875 0.671875q-0.3125 0.4375 -0.46875 1.046875q-0.15625 0.59375 -0.15625 1.3125q0 0.6875 0.125 1.296875q0.125 0.59375 0.421875 1.046875q0.296875 0.453125 0.78125 0.71875q0.5 0.265625 1.21875 0.265625q0.671875 0 1.15625 -0.234375q0.5 -0.25 0.8125 -0.6875q0.328125 -0.4375 0.46875 -1.03125q0.15625 -0.609375 0.15625 -1.328125zm10.869507 4.15625q0 0.078125 -0.046875 0.125q-0.03125 0.046875 -0.109375 0.09375q-0.078125 0.03125 -0.234375 0.046875q-0.140625 0.03125 -0.375 0.03125q-0.234375 0 -0.390625 -0.03125q-0.140625 -0.015625 -0.21875 -0.046875q-0.078125 -0.046875 -0.125 -0.09375q-0.03125 -0.046875 -0.03125 -0.125l0 -4.890625q0 -0.703125 -0.109375 -1.140625q-0.109375 -0.4375 -0.328125 -0.75q-0.21875 -0.328125 -0.5625 -0.484375q-0.328125 -0.171875 -0.765625 -0.171875q-0.578125 0 -1.15625 0.40625q-0.578125 0.40625 -1.203125 1.203125l0 5.828125q0 0.078125 -0.046875 0.125q-0.03125 0.046875 -0.125 0.09375q-0.078125 0.03125 -0.234375 0.046875q-0.140625 0.03125 -0.359375 0.03125q-0.234375 0 -0.390625 -0.03125q-0.140625 -0.015625 -0.234375 -0.046875q-0.078125 -0.046875 -0.109375 -0.09375q-0.03125 -0.046875 -0.03125 -0.125l0 -8.34375q0 -0.078125 0.015625 -0.125q0.03125 -0.0625 0.109375 -0.09375q0.09375 -0.046875 0.21875 -0.0625q0.140625 -0.015625 0.34375 -0.015625q0.203125 0 0.34375 0.015625q0.140625 0.015625 0.203125 0.0625q0.078125 0.03125 0.109375 0.09375q0.03125 0.046875 0.03125 0.125l0 1.09375q0.703125 -0.78125 1.40625 -1.140625q0.703125 -0.375 1.421875 -0.375q0.828125 0 1.390625 0.28125q0.578125 0.28125 0.921875 0.765625q0.359375 0.46875 0.515625 1.109375q0.15625 0.625 0.15625 1.515625l0 5.09375zm6.958069 -0.609375q0 0.265625 -0.046875 0.421875q-0.03125 0.15625 -0.109375 0.234375q-0.078125 0.078125 -0.234375 0.140625q-0.140625 0.0625 -0.328125 0.109375q-0.1875 0.046875 -0.40625 0.0625q-0.203125 0.03125 -0.421875 0.03125q-0.640625 0 -1.109375 -0.171875q-0.46875 -0.171875 -0.765625 -0.515625q-0.296875 -0.34375 -0.4375 -0.875q-0.125 -0.546875 -0.125 -1.265625l0 -4.875l-1.171875 0q-0.140625 0 -0.21875 -0.140625q-0.078125 -0.15625 -0.078125 -0.5q0 -0.171875 0.015625 -0.28125q0.03125 -0.125 0.0625 -0.203125q0.03125 -0.09375 0.09375 -0.125q0.0625 -0.03125 0.140625 -0.03125l1.15625 0l0 -1.984375q0 -0.0625 0.03125 -0.109375q0.03125 -0.0625 0.109375 -0.09375q0.09375 -0.046875 0.234375 -0.0625q0.15625 -0.03125 0.390625 -0.03125q0.234375 0 0.375 0.03125q0.15625 0.015625 0.234375 0.0625q0.078125 0.03125 0.109375 0.09375q0.046875 0.046875 0.046875 0.109375l0 1.984375l2.140625 0q0.078125 0 0.125 0.03125q0.0625 0.03125 0.09375 0.125q0.046875 0.078125 0.0625 0.203125q0.03125 0.109375 0.03125 0.28125q0 0.34375 -0.09375 0.5q-0.078125 0.140625 -0.21875 0.140625l-2.140625 0l0 4.65625q0 0.859375 0.25 1.296875q0.265625 0.4375 0.921875 0.4375q0.203125 0 0.375 -0.03125q0.171875 -0.046875 0.296875 -0.09375q0.125 -0.046875 0.21875 -0.078125q0.09375 -0.046875 0.171875 -0.046875q0.046875 0 0.078125 0.03125q0.046875 0.015625 0.0625 0.078125q0.03125 0.0625 0.046875 0.171875q0.03125 0.109375 0.03125 0.28125zm8.186615 0.625q0 0.109375 -0.078125 0.171875q-0.0625 0.046875 -0.203125 0.078125q-0.125 0.03125 -0.375 0.03125q-0.234375 0 -0.390625 -0.03125q-0.140625 -0.03125 -0.203125 -0.078125q-0.0625 -0.0625 -0.0625 -0.171875l0 -0.84375q-0.546875 0.59375 -1.21875 0.921875q-0.671875 0.3125 -1.421875 0.3125q-0.65625 0 -1.203125 -0.171875q-0.53125 -0.171875 -0.90625 -0.484375q-0.375 -0.328125 -0.578125 -0.796875q-0.203125 -0.484375 -0.203125 -1.078125q0 -0.71875 0.28125 -1.234375q0.28125 -0.515625 0.8125 -0.859375q0.546875 -0.34375 1.328125 -0.515625q0.78125 -0.171875 1.75 -0.171875l1.15625 0l0 -0.65625q0 -0.46875 -0.109375 -0.84375q-0.09375 -0.375 -0.328125 -0.609375q-0.21875 -0.25 -0.578125 -0.375q-0.359375 -0.125 -0.890625 -0.125q-0.5625 0 -1.015625 0.140625q-0.453125 0.125 -0.796875 0.296875q-0.328125 0.15625 -0.5625 0.296875q-0.234375 0.125 -0.34375 0.125q-0.0625 0 -0.125 -0.03125q-0.0625 -0.046875 -0.109375 -0.109375q-0.03125 -0.078125 -0.046875 -0.1875q-0.015625 -0.125 -0.015625 -0.265625q0 -0.234375 0.03125 -0.359375q0.03125 -0.140625 0.15625 -0.265625q0.125 -0.125 0.421875 -0.28125q0.3125 -0.15625 0.703125 -0.296875q0.40625 -0.140625 0.875 -0.21875q0.484375 -0.09375 0.96875 -0.09375q0.890625 0 1.515625 0.203125q0.640625 0.203125 1.03125 0.609375q0.390625 0.390625 0.5625 0.96875q0.171875 0.578125 0.171875 1.359375l0 5.640625zm-1.515625 -3.8125l-1.3125 0q-0.625 0 -1.09375 0.109375q-0.453125 0.09375 -0.765625 0.3125q-0.3125 0.203125 -0.453125 0.5q-0.140625 0.28125 -0.140625 0.671875q0 0.640625 0.40625 1.03125q0.421875 0.390625 1.15625 0.390625q0.609375 0 1.125 -0.3125q0.515625 -0.3125 1.078125 -0.9375l0 -1.765625zm10.170792 2.53125q0 0.15625 -0.015625 0.28125q0 0.109375 -0.03125 0.1875q-0.015625 0.078125 -0.046875 0.140625q-0.03125 0.0625 -0.15625 0.171875q-0.109375 0.109375 -0.390625 0.28125q-0.28125 0.171875 -0.625 0.3125q-0.34375 0.140625 -0.765625 0.21875q-0.40625 0.078125 -0.828125 0.078125q-0.90625 0 -1.609375 -0.296875q-0.6875 -0.296875 -1.15625 -0.859375q-0.46875 -0.578125 -0.71875 -1.40625q-0.25 -0.828125 -0.25 -1.921875q0 -1.21875 0.296875 -2.109375q0.3125 -0.890625 0.828125 -1.453125q0.53125 -0.5625 1.234375 -0.828125q0.71875 -0.28125 1.546875 -0.28125q0.390625 0 0.765625 0.078125q0.375 0.0625 0.6875 0.1875q0.328125 0.125 0.5625 0.28125q0.25 0.15625 0.359375 0.265625q0.125 0.109375 0.15625 0.171875q0.046875 0.0625 0.0625 0.15625q0.03125 0.09375 0.046875 0.203125q0.015625 0.109375 0.015625 0.28125q0 0.359375 -0.09375 0.5q-0.078125 0.140625 -0.203125 0.140625q-0.140625 0 -0.328125 -0.140625q-0.171875 -0.15625 -0.453125 -0.34375q-0.265625 -0.1875 -0.671875 -0.34375q-0.390625 -0.15625 -0.921875 -0.15625q-1.109375 0 -1.703125 0.859375q-0.578125 0.84375 -0.578125 2.453125q0 0.8125 0.140625 1.421875q0.15625 0.609375 0.453125 1.015625q0.296875 0.40625 0.71875 0.609375q0.4375 0.1875 1.0 0.1875q0.53125 0 0.921875 -0.15625q0.40625 -0.171875 0.6875 -0.375q0.296875 -0.203125 0.5 -0.359375q0.203125 -0.15625 0.3125 -0.15625q0.0625 0 0.109375 0.03125q0.046875 0.03125 0.078125 0.125q0.03125 0.09375 0.046875 0.234375q0.015625 0.125 0.015625 0.3125zm6.2325745 0.65625q0 0.265625 -0.046875 0.421875q-0.03125 0.15625 -0.109375 0.234375q-0.078125 0.078125 -0.234375 0.140625q-0.140625 0.0625 -0.328125 0.109375q-0.1875 0.046875 -0.40625 0.0625q-0.203125 0.03125 -0.421875 0.03125q-0.640625 0 -1.109375 -0.171875q-0.46875 -0.171875 -0.765625 -0.515625q-0.296875 -0.34375 -0.4375 -0.875q-0.125 -0.546875 -0.125 -1.265625l0 -4.875l-1.171875 0q-0.140625 0 -0.21875 -0.140625q-0.078125 -0.15625 -0.078125 -0.5q0 -0.171875 0.015625 -0.28125q0.03125 -0.125 0.0625 -0.203125q0.03125 -0.09375 0.09375 -0.125q0.0625 -0.03125 0.140625 -0.03125l1.15625 0l0 -1.984375q0 -0.0625 0.03125 -0.109375q0.03125 -0.0625 0.109375 -0.09375q0.09375 -0.046875 0.234375 -0.0625q0.15625 -0.03125 0.390625 -0.03125q0.234375 0 0.375 0.03125q0.15625 0.015625 0.234375 0.0625q0.078125 0.03125 0.109375 0.09375q0.046875 0.046875 0.046875 0.109375l0 1.984375l2.140625 0q0.078125 0 0.125 0.03125q0.0625 0.03125 0.09375 0.125q0.046875 0.078125 0.0625 0.203125q0.03125 0.109375 0.03125 0.28125q0 0.34375 -0.09375 0.5q-0.078125 0.140625 -0.21875 0.140625l-2.140625 0l0 4.65625q0 0.859375 0.25 1.296875q0.265625 0.4375 0.921875 0.4375q0.203125 0 0.375 -0.03125q0.171875 -0.046875 0.296875 -0.09375q0.125 -0.046875 0.21875 -0.078125q0.09375 -0.046875 0.171875 -0.046875q0.046875 0 0.078125 0.03125q0.046875 0.015625 0.0625 0.078125q0.03125 0.0625 0.046875 0.171875q0.03125 0.109375 0.03125 0.28125zm7.13974 -1.65625q0 0.640625 -0.234375 1.140625q-0.234375 0.5 -0.671875 0.84375q-0.4375 0.34375 -1.046875 0.515625q-0.59375 0.171875 -1.3125 0.171875q-0.453125 0 -0.859375 -0.078125q-0.390625 -0.0625 -0.71875 -0.15625q-0.3125 -0.109375 -0.546875 -0.21875q-0.21875 -0.125 -0.328125 -0.21875q-0.09375 -0.09375 -0.140625 -0.25q-0.046875 -0.171875 -0.046875 -0.46875q0 -0.171875 0.015625 -0.296875q0.015625 -0.125 0.046875 -0.1875q0.03125 -0.078125 0.078125 -0.109375q0.0625 -0.03125 0.125 -0.03125q0.09375 0 0.296875 0.125q0.203125 0.125 0.484375 0.28125q0.296875 0.140625 0.6875 0.265625q0.40625 0.125 0.9375 0.125q0.375 0 0.6875 -0.078125q0.328125 -0.09375 0.5625 -0.25q0.234375 -0.171875 0.359375 -0.421875q0.125 -0.25 0.125 -0.59375q0 -0.34375 -0.1875 -0.578125q-0.1875 -0.25 -0.484375 -0.4375q-0.296875 -0.1875 -0.671875 -0.328125q-0.359375 -0.140625 -0.765625 -0.296875q-0.390625 -0.15625 -0.765625 -0.359375q-0.375 -0.203125 -0.671875 -0.484375q-0.296875 -0.296875 -0.484375 -0.6875q-0.171875 -0.40625 -0.171875 -0.953125q0 -0.5 0.1875 -0.9375q0.203125 -0.453125 0.578125 -0.796875q0.375 -0.34375 0.9375 -0.546875q0.578125 -0.203125 1.34375 -0.203125q0.328125 0 0.65625 0.0625q0.34375 0.046875 0.609375 0.140625q0.265625 0.078125 0.453125 0.171875q0.203125 0.09375 0.296875 0.171875q0.09375 0.078125 0.125 0.140625q0.03125 0.046875 0.046875 0.125q0.015625 0.0625 0.03125 0.171875q0.015625 0.09375 0.015625 0.234375q0 0.171875 -0.015625 0.28125q-0.015625 0.109375 -0.046875 0.1875q-0.03125 0.078125 -0.078125 0.109375q-0.046875 0.03125 -0.09375 0.03125q-0.09375 0 -0.25 -0.09375q-0.15625 -0.109375 -0.40625 -0.21875q-0.25 -0.125 -0.59375 -0.21875q-0.328125 -0.109375 -0.765625 -0.109375q-0.390625 0 -0.6875 0.09375q-0.296875 0.078125 -0.5 0.25q-0.1875 0.15625 -0.28125 0.390625q-0.09375 0.21875 -0.09375 0.46875q0 0.359375 0.1875 0.609375q0.1875 0.25 0.484375 0.4375q0.296875 0.1875 0.671875 0.34375q0.375 0.140625 0.765625 0.296875q0.40625 0.15625 0.78125 0.359375q0.390625 0.1875 0.6875 0.46875q0.296875 0.265625 0.46875 0.65625q0.1875 0.390625 0.1875 0.9375z" fill-rule="nonzero"></path></g></svg>

