<?xml version="1.0" standalone="yes"?>

<svg version="1.1" viewBox="0.0 0.0 505.6719160104987 338.71128608923885" fill="none" stroke="none" stroke-linecap="square" stroke-miterlimit="10" xmlns="http://www.w3.org/2000/svg" xmlns:xlink="http://www.w3.org/1999/xlink"><clipPath id="p.0"><path d="m0 0l505.6719 0l0 338.71127l-505.6719 0l0 -338.71127z" clip-rule="nonzero"></path></clipPath><g clip-path="url(#p.0)"><path fill="#000000" fill-opacity="0.0" d="m0 0l505.6719 0l0 338.71127l-505.6719 0z" fill-rule="nonzero"></path><path fill="#000000" fill-opacity="0.0" d="m263.35434 27.261066l0 0c0 -5.1379395 4.1651 -9.303061 9.30304 -9.303061l201.89783 0c2.4673157 0 4.8335876 0.9801407 6.578247 2.724802c1.7446594 1.7446632 2.724823 4.1109333 2.724823 6.5782585l0 282.96866c0 5.1379395 -4.1651306 9.30307 -9.30307 9.30307l-201.89783 0c-5.1379395 0 -9.30304 -4.1651306 -9.30304 -9.30307z" fill-rule="nonzero"></path><path stroke="#434343" stroke-width="2.0" stroke-linejoin="round" stroke-linecap="butt" d="m263.35434 27.261066l0 0c0 -5.1379395 4.1651 -9.303061 9.30304 -9.303061l201.89783 0c2.4673157 0 4.8335876 0.9801407 6.578247 2.724802c1.7446594 1.7446632 2.724823 4.1109333 2.724823 6.5782585l0 282.96866c0 5.1379395 -4.1651306 9.30307 -9.30307 9.30307l-201.89783 0c-5.1379395 0 -9.30304 -4.1651306 -9.30304 -9.30307z" fill-rule="nonzero"></path><path fill="#005eb8" d="m263.35507 27.181288l0 0c0 -5.093878 4.1293945 -9.223282 9.223267 -9.223282l202.05737 0c2.446167 0 4.792145 0.971735 6.5218506 2.701435c1.7297058 1.729702 2.7014465 4.07568 2.7014465 6.521847l0 36.892014c0 5.0938797 -4.1293945 9.223282 -9.223297 9.223282l-202.05737 0c-5.093872 0 -9.223267 -4.129402 -9.223267 -9.223282z" fill-rule="nonzero"></path><path stroke="#434343" stroke-width="2.0" stroke-linejoin="round" stroke-linecap="butt" d="m263.35507 27.181288l0 0c0 -5.093878 4.1293945 -9.223282 9.223267 -9.223282l202.05737 0c2.446167 0 4.792145 0.971735 6.5218506 2.701435c1.7297058 1.729702 2.7014465 4.07568 2.7014465 6.521847l0 36.892014c0 5.0938797 -4.1293945 9.223282 -9.223297 9.223282l-202.05737 0c-5.093872 0 -9.223267 -4.129402 -9.223267 -9.223282z" fill-rule="nonzero"></path><path fill="#ffffff" d="m313.63828 54.487923q0 0.25 -0.015625 0.4375q-0.015625 0.1875 -0.0625 0.328125q-0.03125 0.140625 -0.09375 0.25q-0.0625 0.109375 -0.21875 0.265625q-0.15625 0.15625 -0.65625 0.484375q-0.5 0.3125 -1.25 0.625q-0.734375 0.296875 -1.703125 0.5q-0.953125 0.21875 -2.09375 0.21875q-1.96875 0 -3.5625 -0.65625q-1.578125 -0.65625 -2.703125 -1.9375q-1.109375 -1.28125 -1.71875 -3.15625q-0.59375 -1.890625 -0.59375 -4.34375q0 -2.515625 0.640625 -4.484375q0.65625 -1.96875 1.828125 -3.328125q1.171875 -1.375 2.796875 -2.09375q1.640625 -0.71875 3.625 -0.71875q0.875 0 1.703125 0.171875q0.828125 0.15625 1.53125 0.40625q0.703125 0.25 1.25 0.578125q0.546875 0.328125 0.75 0.546875q0.21875 0.203125 0.28125 0.3125q0.0625 0.109375 0.09375 0.265625q0.046875 0.140625 0.0625 0.34375q0.03125 0.203125 0.03125 0.484375q0 0.3125 -0.03125 0.53125q-0.03125 0.21875 -0.09375 0.375q-0.0625 0.140625 -0.15625 0.21875q-0.078125 0.0625 -0.203125 0.0625q-0.21875 0 -0.609375 -0.296875q-0.390625 -0.3125 -1.015625 -0.671875q-0.609375 -0.375 -1.5 -0.671875q-0.875 -0.3125 -2.109375 -0.3125q-1.34375 0 -2.453125 0.546875q-1.09375 0.53125 -1.875 1.578125q-0.78125 1.046875 -1.21875 2.5625q-0.421875 1.5 -0.421875 3.4375q0 1.921875 0.40625 3.40625q0.421875 1.46875 1.1875 2.46875q0.78125 0.984375 1.90625 1.5q1.125 0.5 2.546875 0.5q1.203125 0 2.09375 -0.296875q0.90625 -0.296875 1.53125 -0.65625q0.640625 -0.375 1.046875 -0.671875q0.40625 -0.296875 0.640625 -0.296875q0.109375 0 0.1875 0.046875q0.078125 0.046875 0.125 0.1875q0.046875 0.125 0.0625 0.359375q0.03125 0.234375 0.03125 0.59375zm16.34375 -4.71875q0 1.71875 -0.453125 3.171875q-0.453125 1.4375 -1.359375 2.484375q-0.890625 1.046875 -2.25 1.640625q-1.34375 0.578125 -3.125 0.578125q-1.734375 0 -3.03125 -0.515625q-1.28125 -0.515625 -2.140625 -1.5q-0.859375 -0.984375 -1.28125 -2.390625q-0.421875 -1.40625 -0.421875 -3.1875q0 -1.71875 0.4375 -3.15625q0.453125 -1.453125 1.34375 -2.5q0.90625 -1.046875 2.25 -1.625q1.34375 -0.578125 3.140625 -0.578125q1.734375 0 3.015625 0.515625q1.296875 0.515625 2.15625 1.5q0.859375 0.984375 1.28125 2.390625q0.4375 1.40625 0.4375 3.171875zm-2.71875 0.171875q0 -1.140625 -0.21875 -2.15625q-0.203125 -1.015625 -0.6875 -1.78125q-0.484375 -0.765625 -1.3125 -1.203125q-0.828125 -0.453125 -2.0625 -0.453125q-1.140625 0 -1.96875 0.40625q-0.8125 0.40625 -1.34375 1.15625q-0.53125 0.734375 -0.796875 1.75q-0.25 1.015625 -0.25 2.21875q0 1.15625 0.203125 2.171875q0.21875 1.015625 0.703125 1.78125q0.5 0.75 1.328125 1.203125q0.828125 0.4375 2.0625 0.4375q1.125 0 1.953125 -0.40625q0.828125 -0.40625 1.359375 -1.140625q0.53125 -0.734375 0.78125 -1.75q0.25 -1.015625 0.25 -2.234375zm18.625 7.015625q0 0.125 -0.0625 0.21875q-0.0625 0.078125 -0.203125 0.140625q-0.140625 0.0625 -0.390625 0.09375q-0.25 0.03125 -0.625 0.03125q-0.390625 0 -0.640625 -0.03125q-0.25 -0.03125 -0.390625 -0.09375q-0.140625 -0.0625 -0.203125 -0.140625q-0.0625 -0.09375 -0.0625 -0.21875l0 -8.234375q0 -1.203125 -0.1875 -1.9375q-0.1875 -0.734375 -0.546875 -1.265625q-0.359375 -0.53125 -0.9375 -0.8125q-0.5625 -0.28125 -1.3125 -0.28125q-0.96875 0 -1.9375 0.6875q-0.96875 0.6875 -2.03125 2.015625l0 9.828125q0 0.125 -0.0625 0.21875q-0.0625 0.078125 -0.203125 0.140625q-0.140625 0.0625 -0.390625 0.09375q-0.25 0.03125 -0.640625 0.03125q-0.375 0 -0.625 -0.03125q-0.25 -0.03125 -0.40625 -0.09375q-0.140625 -0.0625 -0.203125 -0.140625q-0.046875 -0.09375 -0.046875 -0.21875l0 -14.0625q0 -0.125 0.046875 -0.203125q0.046875 -0.09375 0.1875 -0.15625q0.140625 -0.078125 0.359375 -0.09375q0.21875 -0.03125 0.578125 -0.03125q0.34375 0 0.5625 0.03125q0.234375 0.015625 0.359375 0.09375q0.125 0.0625 0.171875 0.15625q0.0625 0.078125 0.0625 0.203125l0 1.859375q1.1875 -1.328125 2.359375 -1.9375q1.1875 -0.625 2.390625 -0.625q1.40625 0 2.359375 0.484375q0.96875 0.46875 1.5625 1.265625q0.59375 0.796875 0.84375 1.875q0.265625 1.0625 0.265625 2.5625l0 8.578125zm12.015625 -1.03125q0 0.453125 -0.0625 0.71875q-0.0625 0.265625 -0.1875 0.390625q-0.125 0.125 -0.375 0.234375q-0.25 0.109375 -0.578125 0.171875q-0.3125 0.078125 -0.671875 0.125q-0.359375 0.046875 -0.71875 0.046875q-1.09375 0 -1.875 -0.28125q-0.78125 -0.296875 -1.28125 -0.875q-0.5 -0.59375 -0.734375 -1.484375q-0.21875 -0.90625 -0.21875 -2.125l0 -8.21875l-1.96875 0q-0.234375 0 -0.375 -0.25q-0.140625 -0.25 -0.140625 -0.8125q0 -0.296875 0.03125 -0.5q0.046875 -0.203125 0.109375 -0.328125q0.0625 -0.140625 0.15625 -0.1875q0.109375 -0.0625 0.234375 -0.0625l1.953125 0l0 -3.34375q0 -0.109375 0.046875 -0.203125q0.0625 -0.09375 0.203125 -0.15625q0.15625 -0.078125 0.40625 -0.109375q0.25 -0.03125 0.625 -0.03125q0.390625 0 0.640625 0.03125q0.25 0.03125 0.390625 0.109375q0.140625 0.0625 0.203125 0.15625q0.0625 0.09375 0.0625 0.203125l0 3.34375l3.609375 0q0.125 0 0.21875 0.0625q0.09375 0.046875 0.15625 0.1875q0.078125 0.125 0.109375 0.328125q0.03125 0.203125 0.03125 0.5q0 0.5625 -0.140625 0.8125q-0.140625 0.25 -0.375 0.25l-3.609375 0l0 7.84375q0 1.453125 0.421875 2.203125q0.4375 0.734375 1.546875 0.734375q0.359375 0 0.640625 -0.0625q0.28125 -0.078125 0.5 -0.15625q0.21875 -0.078125 0.375 -0.140625q0.15625 -0.078125 0.28125 -0.078125q0.078125 0 0.140625 0.046875q0.078125 0.03125 0.109375 0.140625q0.046875 0.109375 0.078125 0.296875q0.03125 0.1875 0.03125 0.46875zm14.0 1.046875q0 0.1875 -0.125 0.28125q-0.125 0.09375 -0.34375 0.140625q-0.21875 0.046875 -0.640625 0.046875q-0.40625 0 -0.65625 -0.046875q-0.234375 -0.046875 -0.34375 -0.140625q-0.109375 -0.09375 -0.109375 -0.28125l0 -1.40625q-0.921875 0.984375 -2.0625 1.53125q-1.125 0.546875 -2.390625 0.546875q-1.109375 0 -2.015625 -0.296875q-0.890625 -0.28125 -1.53125 -0.828125q-0.625 -0.546875 -0.984375 -1.34375q-0.34375 -0.796875 -0.34375 -1.8125q0 -1.1875 0.484375 -2.0625q0.484375 -0.875 1.390625 -1.453125q0.90625 -0.578125 2.21875 -0.859375q1.3125 -0.296875 2.953125 -0.296875l1.9375 0l0 -1.09375q0 -0.8125 -0.171875 -1.4375q-0.171875 -0.625 -0.5625 -1.03125q-0.375 -0.421875 -0.984375 -0.625q-0.609375 -0.21875 -1.5 -0.21875q-0.953125 0 -1.71875 0.234375q-0.75 0.21875 -1.328125 0.5q-0.5625 0.265625 -0.953125 0.5q-0.375 0.21875 -0.5625 0.21875q-0.125 0 -0.21875 -0.0625q-0.09375 -0.0625 -0.171875 -0.1875q-0.0625 -0.125 -0.09375 -0.3125q-0.03125 -0.203125 -0.03125 -0.4375q0 -0.390625 0.046875 -0.609375q0.0625 -0.234375 0.265625 -0.4375q0.21875 -0.203125 0.734375 -0.46875q0.515625 -0.28125 1.1875 -0.5q0.671875 -0.234375 1.46875 -0.375q0.796875 -0.15625 1.609375 -0.15625q1.515625 0 2.578125 0.34375q1.0625 0.34375 1.71875 1.015625q0.65625 0.65625 0.953125 1.640625q0.296875 0.984375 0.296875 2.296875l0 9.484375zm-2.5625 -6.421875l-2.203125 0q-1.0625 0 -1.84375 0.1875q-0.78125 0.171875 -1.296875 0.53125q-0.515625 0.34375 -0.765625 0.84375q-0.234375 0.484375 -0.234375 1.125q0 1.09375 0.6875 1.75q0.703125 0.640625 1.953125 0.640625q1.015625 0 1.875 -0.515625q0.875 -0.515625 1.828125 -1.578125l0 -2.984375zm17.40625 4.265625q0 0.265625 -0.015625 0.46875q-0.015625 0.1875 -0.0625 0.328125q-0.03125 0.125 -0.09375 0.234375q-0.046875 0.09375 -0.25 0.296875q-0.1875 0.1875 -0.65625 0.484375q-0.46875 0.28125 -1.0625 0.515625q-0.578125 0.21875 -1.265625 0.359375q-0.6875 0.140625 -1.421875 0.140625q-1.515625 0 -2.6875 -0.5q-1.171875 -0.5 -1.96875 -1.453125q-0.78125 -0.96875 -1.203125 -2.359375q-0.40625 -1.40625 -0.40625 -3.234375q0 -2.078125 0.5 -3.5625q0.515625 -1.5 1.390625 -2.453125q0.890625 -0.953125 2.078125 -1.40625q1.203125 -0.46875 2.59375 -0.46875q0.671875 0 1.296875 0.125q0.640625 0.125 1.171875 0.328125q0.53125 0.203125 0.9375 0.46875q0.421875 0.265625 0.609375 0.453125q0.1875 0.1875 0.25 0.296875q0.078125 0.109375 0.125 0.265625q0.046875 0.140625 0.0625 0.328125q0.015625 0.1875 0.015625 0.46875q0 0.609375 -0.140625 0.859375q-0.140625 0.234375 -0.34375 0.234375q-0.234375 0 -0.546875 -0.25q-0.296875 -0.265625 -0.765625 -0.578125q-0.46875 -0.3125 -1.140625 -0.5625q-0.65625 -0.265625 -1.5625 -0.265625q-1.859375 0 -2.859375 1.4375q-0.984375 1.421875 -0.984375 4.140625q0 1.359375 0.25 2.390625q0.265625 1.015625 0.765625 1.703125q0.5 0.6875 1.21875 1.03125q0.734375 0.328125 1.671875 0.328125q0.890625 0 1.5625 -0.28125q0.671875 -0.28125 1.15625 -0.609375q0.5 -0.34375 0.828125 -0.609375q0.34375 -0.28125 0.53125 -0.28125q0.109375 0 0.1875 0.0625q0.078125 0.0625 0.125 0.21875q0.0625 0.140625 0.078125 0.375q0.03125 0.21875 0.03125 0.53125zm10.7344055 1.109375q0 0.453125 -0.0625 0.71875q-0.0625 0.265625 -0.1875 0.390625q-0.125 0.125 -0.375 0.234375q-0.25 0.109375 -0.578125 0.171875q-0.3125 0.078125 -0.671875 0.125q-0.359375 0.046875 -0.71875 0.046875q-1.0937805 0 -1.8750305 -0.28125q-0.78125 -0.296875 -1.28125 -0.875q-0.5 -0.59375 -0.734375 -1.484375q-0.21875 -0.90625 -0.21875 -2.125l0 -8.21875l-1.96875 0q-0.234375 0 -0.375 -0.25q-0.140625 -0.25 -0.140625 -0.8125q0 -0.296875 0.03125 -0.5q0.046875 -0.203125 0.109375 -0.328125q0.0625 -0.140625 0.15625 -0.1875q0.109375 -0.0625 0.234375 -0.0625l1.953125 0l0 -3.34375q0 -0.109375 0.046875 -0.203125q0.0625 -0.09375 0.203125 -0.15625q0.15625 -0.078125 0.40625 -0.109375q0.25 -0.03125 0.625 -0.03125q0.390625 0 0.640625 0.03125q0.25 0.03125 0.390625 0.109375q0.140625 0.0625 0.203125 0.15625q0.0625 0.09375 0.0625 0.203125l0 3.34375l3.6094055 0q0.125 0 0.21875 0.0625q0.09375 0.046875 0.15625 0.1875q0.078125 0.125 0.109375 0.328125q0.03125 0.203125 0.03125 0.5q0 0.5625 -0.140625 0.8125q-0.140625 0.25 -0.375 0.25l-3.6094055 0l0 7.84375q0 1.453125 0.421875 2.203125q0.43753052 0.734375 1.5469055 0.734375q0.359375 0 0.640625 -0.0625q0.28125 -0.078125 0.5 -0.15625q0.21875 -0.078125 0.375 -0.140625q0.15625 -0.078125 0.28125 -0.078125q0.078125 0 0.140625 0.046875q0.078125 0.03125 0.109375 0.140625q0.046875 0.109375 0.078125 0.296875q0.03125 0.1875 0.03125 0.46875zm21.421875 0.25q0 0.3125 -0.03125 0.53125q-0.03125 0.203125 -0.109375 0.359375q-0.0625 0.140625 -0.171875 0.21875q-0.09375 0.0625 -0.234375 0.0625l-8.9375 0q-0.359375 0 -0.6875 -0.234375q-0.3125 -0.25 -0.3125 -0.859375l0 -18.71875q0 -0.125 0.0625 -0.21875q0.0625 -0.09375 0.21875 -0.140625q0.15625 -0.0625 0.421875 -0.09375q0.265625 -0.046875 0.640625 -0.046875q0.390625 0 0.640625 0.046875q0.265625 0.03125 0.421875 0.09375q0.15625 0.046875 0.21875 0.140625q0.0625 0.09375 0.0625 0.21875l0 17.484375l7.25 0q0.140625 0 0.234375 0.078125q0.109375 0.0625 0.171875 0.203125q0.078125 0.125 0.109375 0.34375q0.03125 0.21875 0.03125 0.53125zm5.25 0.78125q0 0.125 -0.0625 0.21875q-0.0625 0.078125 -0.203125 0.140625q-0.140625 0.0625 -0.390625 0.09375q-0.25 0.03125 -0.640625 0.03125q-0.375 0 -0.625 -0.03125q-0.25 -0.03125 -0.40625 -0.09375q-0.140625 -0.0625 -0.203125 -0.140625q-0.046875 -0.09375 -0.046875 -0.21875l0 -14.0625q0 -0.109375 0.046875 -0.203125q0.0625 -0.09375 0.203125 -0.15625q0.15625 -0.0625 0.40625 -0.09375q0.25 -0.03125 0.625 -0.03125q0.390625 0 0.640625 0.03125q0.25 0.03125 0.390625 0.09375q0.140625 0.0625 0.203125 0.15625q0.0625 0.09375 0.0625 0.203125l0 14.0625zm0.296875 -18.8125q0 0.90625 -0.34375 1.234375q-0.34375 0.328125 -1.265625 0.328125q-0.90625 0 -1.25 -0.3125q-0.328125 -0.328125 -0.328125 -1.21875q0 -0.90625 0.34375 -1.234375q0.34375 -0.328125 1.265625 -0.328125q0.90625 0 1.234375 0.328125q0.34375 0.3125 0.34375 1.203125zm13.296875 14.984375q0 1.078125 -0.40625 1.921875q-0.390625 0.84375 -1.125 1.421875q-0.734375 0.578125 -1.75 0.875q-1.015625 0.296875 -2.234375 0.296875q-0.75 0 -1.4375 -0.125q-0.671875 -0.109375 -1.21875 -0.28125q-0.53125 -0.1875 -0.90625 -0.375q-0.375 -0.203125 -0.546875 -0.359375q-0.171875 -0.15625 -0.25 -0.4375q-0.078125 -0.28125 -0.078125 -0.765625q0 -0.296875 0.03125 -0.5q0.03125 -0.203125 0.078125 -0.328125q0.046875 -0.125 0.125 -0.171875q0.09375 -0.0625 0.203125 -0.0625q0.171875 0 0.5 0.21875q0.34375 0.203125 0.828125 0.453125q0.5 0.25 1.171875 0.46875q0.671875 0.203125 1.546875 0.203125q0.65625 0 1.1875 -0.140625q0.53125 -0.140625 0.921875 -0.40625q0.390625 -0.28125 0.59375 -0.703125q0.21875 -0.421875 0.21875 -1.0q0 -0.59375 -0.3125 -1.0q-0.296875 -0.40625 -0.796875 -0.71875q-0.5 -0.3125 -1.125 -0.546875q-0.625 -0.25 -1.296875 -0.515625q-0.65625 -0.265625 -1.296875 -0.59375q-0.625 -0.34375 -1.125 -0.828125q-0.5 -0.484375 -0.8125 -1.15625q-0.296875 -0.671875 -0.296875 -1.609375q0 -0.828125 0.3125 -1.578125q0.328125 -0.765625 0.96875 -1.328125q0.640625 -0.578125 1.59375 -0.921875q0.96875 -0.34375 2.25 -0.34375q0.5625 0 1.125 0.09375q0.5625 0.09375 1.015625 0.234375q0.453125 0.140625 0.765625 0.3125q0.328125 0.15625 0.484375 0.28125q0.171875 0.125 0.21875 0.21875q0.0625 0.09375 0.078125 0.21875q0.03125 0.109375 0.046875 0.28125q0.03125 0.171875 0.03125 0.421875q0 0.265625 -0.03125 0.46875q-0.015625 0.1875 -0.078125 0.3125q-0.046875 0.125 -0.125 0.1875q-0.078125 0.046875 -0.171875 0.046875q-0.140625 0 -0.40625 -0.171875q-0.265625 -0.171875 -0.6875 -0.359375q-0.421875 -0.203125 -1.0 -0.375q-0.5625 -0.171875 -1.296875 -0.171875q-0.65625 0 -1.15625 0.15625q-0.5 0.140625 -0.828125 0.421875q-0.3125 0.265625 -0.484375 0.640625q-0.15625 0.375 -0.15625 0.8125q0 0.609375 0.3125 1.03125q0.3125 0.40625 0.8125 0.71875q0.5 0.3125 1.140625 0.5625q0.640625 0.25 1.296875 0.515625q0.671875 0.265625 1.3125 0.59375q0.65625 0.328125 1.15625 0.796875q0.5 0.46875 0.796875 1.125q0.3125 0.65625 0.3125 1.5625zm11.0 2.796875q0 0.453125 -0.0625 0.71875q-0.0625 0.265625 -0.1875 0.390625q-0.125 0.125 -0.375 0.234375q-0.25 0.109375 -0.578125 0.171875q-0.3125 0.078125 -0.671875 0.125q-0.359375 0.046875 -0.71875 0.046875q-1.09375 0 -1.875 -0.28125q-0.78125 -0.296875 -1.28125 -0.875q-0.5 -0.59375 -0.734375 -1.484375q-0.21875 -0.90625 -0.21875 -2.125l0 -8.21875l-1.96875 0q-0.234375 0 -0.375 -0.25q-0.140625 -0.25 -0.140625 -0.8125q0 -0.296875 0.03125 -0.5q0.046875 -0.203125 0.109375 -0.328125q0.0625 -0.140625 0.15625 -0.1875q0.109375 -0.0625 0.234375 -0.0625l1.953125 0l0 -3.34375q0 -0.109375 0.046875 -0.203125q0.0625 -0.09375 0.203125 -0.15625q0.15625 -0.078125 0.40625 -0.109375q0.25 -0.03125 0.625 -0.03125q0.390625 0 0.640625 0.03125q0.25 0.03125 0.390625 0.109375q0.140625 0.0625 0.203125 0.15625q0.0625 0.09375 0.0625 0.203125l0 3.34375l3.609375 0q0.125 0 0.21875 0.0625q0.09375 0.046875 0.15625 0.1875q0.078125 0.125 0.109375 0.328125q0.03125 0.203125 0.03125 0.5q0 0.5625 -0.140625 0.8125q-0.140625 0.25 -0.375 0.25l-3.609375 0l0 7.84375q0 1.453125 0.421875 2.203125q0.4375 0.734375 1.546875 0.734375q0.359375 0 0.640625 -0.0625q0.28125 -0.078125 0.5 -0.15625q0.21875 -0.078125 0.375 -0.140625q0.15625 -0.078125 0.28125 -0.078125q0.078125 0 0.140625 0.046875q0.078125 0.03125 0.109375 0.140625q0.046875 0.109375 0.078125 0.296875q0.03125 0.1875 0.03125 0.46875z" fill-rule="nonzero"></path><path fill="#000000" fill-opacity="0.0" d="m315.8275 108.91338l115.55905 0l0 33.41732l-115.55905 0z" fill-rule="nonzero"></path><path fill="#434343" d="m341.7203 132.2558q0 0.203125 -0.015625 0.359375q0 0.140625 -0.03125 0.25q-0.03125 0.09375 -0.078125 0.171875q-0.03125 0.0625 -0.1875 0.21875q-0.140625 0.140625 -0.5 0.359375q-0.34375 0.21875 -0.78125 0.390625q-0.4375 0.171875 -0.953125 0.265625q-0.515625 0.109375 -1.078125 0.109375q-1.125 0 -2.015625 -0.375q-0.875 -0.375 -1.46875 -1.09375q-0.59375 -0.71875 -0.90625 -1.765625q-0.296875 -1.046875 -0.296875 -2.421875q0 -1.5625 0.375 -2.671875q0.375 -1.125 1.03125 -1.84375q0.671875 -0.71875 1.5625 -1.0625q0.90625 -0.34375 1.953125 -0.34375q0.5 0 0.96875 0.09375q0.484375 0.09375 0.875 0.25q0.40625 0.15625 0.703125 0.359375q0.3125 0.1875 0.453125 0.328125q0.140625 0.140625 0.1875 0.234375q0.0625 0.078125 0.09375 0.1875q0.046875 0.109375 0.046875 0.25q0.015625 0.140625 0.015625 0.34375q0 0.46875 -0.109375 0.65625q-0.09375 0.171875 -0.25 0.171875q-0.171875 0 -0.40625 -0.1875q-0.234375 -0.203125 -0.59375 -0.4375q-0.34375 -0.234375 -0.84375 -0.421875q-0.484375 -0.203125 -1.171875 -0.203125q-1.390625 0 -2.140625 1.078125q-0.734375 1.078125 -0.734375 3.109375q0 1.015625 0.1875 1.796875q0.1875 0.765625 0.5625 1.28125q0.375 0.515625 0.921875 0.765625q0.546875 0.25 1.25 0.25q0.671875 0 1.171875 -0.203125q0.5 -0.21875 0.875 -0.46875q0.375 -0.25 0.625 -0.453125q0.25 -0.21875 0.390625 -0.21875q0.078125 0 0.140625 0.046875q0.0625 0.046875 0.09375 0.171875q0.046875 0.109375 0.0625 0.28125q0.015625 0.15625 0.015625 0.390625zm12.3828125 -3.78125q0 1.296875 -0.34375 2.375q-0.34375 1.078125 -1.015625 1.875q-0.671875 0.78125 -1.6875 1.21875q-1.015625 0.4375 -2.34375 0.4375q-1.3125 0 -2.28125 -0.375q-0.953125 -0.390625 -1.609375 -1.125q-0.640625 -0.75 -0.953125 -1.796875q-0.3125 -1.0625 -0.3125 -2.390625q0 -1.296875 0.328125 -2.375q0.328125 -1.09375 1.0 -1.875q0.6875 -0.78125 1.6875 -1.21875q1.015625 -0.4375 2.359375 -0.4375q1.296875 0 2.265625 0.390625q0.96875 0.390625 1.609375 1.125q0.640625 0.734375 0.96875 1.796875q0.328125 1.046875 0.328125 2.375zm-2.046875 0.125q0 -0.84375 -0.15625 -1.609375q-0.15625 -0.765625 -0.53125 -1.328125q-0.359375 -0.578125 -0.984375 -0.90625q-0.609375 -0.34375 -1.53125 -0.34375q-0.859375 0 -1.484375 0.3125q-0.609375 0.296875 -1.015625 0.859375q-0.390625 0.546875 -0.59375 1.3125q-0.1875 0.765625 -0.1875 1.65625q0 0.875 0.15625 1.640625q0.171875 0.75 0.53125 1.328125q0.375 0.5625 0.984375 0.90625q0.625 0.328125 1.5625 0.328125q0.84375 0 1.453125 -0.296875q0.625 -0.3125 1.015625 -0.859375q0.40625 -0.5625 0.59375 -1.3125q0.1875 -0.765625 0.1875 -1.6875zm13.96875 5.265625q0 0.09375 -0.046875 0.15625q-0.046875 0.0625 -0.15625 0.125q-0.09375 0.046875 -0.28125 0.0625q-0.1875 0.03125 -0.46875 0.03125q-0.296875 0 -0.484375 -0.03125q-0.1875 -0.015625 -0.296875 -0.0625q-0.109375 -0.0625 -0.15625 -0.125q-0.046875 -0.0625 -0.046875 -0.15625l0 -6.171875q0 -0.90625 -0.140625 -1.453125q-0.140625 -0.546875 -0.40625 -0.9375q-0.265625 -0.40625 -0.703125 -0.609375q-0.421875 -0.21875 -0.984375 -0.21875q-0.71875 0 -1.453125 0.515625q-0.71875 0.515625 -1.515625 1.5l0 7.375q0 0.09375 -0.046875 0.15625q-0.046875 0.0625 -0.15625 0.125q-0.109375 0.046875 -0.296875 0.0625q-0.1875 0.03125 -0.484375 0.03125q-0.28125 0 -0.46875 -0.03125q-0.1875 -0.015625 -0.296875 -0.0625q-0.109375 -0.0625 -0.15625 -0.125q-0.03125 -0.0625 -0.03125 -0.15625l0 -10.546875q0 -0.09375 0.03125 -0.15625q0.03125 -0.0625 0.140625 -0.109375q0.109375 -0.0625 0.265625 -0.078125q0.171875 -0.015625 0.4375 -0.015625q0.265625 0 0.421875 0.015625q0.171875 0.015625 0.265625 0.078125q0.09375 0.046875 0.140625 0.109375q0.046875 0.0625 0.046875 0.15625l0 1.390625q0.890625 -0.984375 1.765625 -1.453125q0.890625 -0.46875 1.796875 -0.46875q1.046875 0 1.765625 0.359375q0.71875 0.359375 1.15625 0.96875q0.453125 0.59375 0.640625 1.390625q0.203125 0.796875 0.203125 1.921875l0 6.4375zm9.015625 -0.765625q0 0.328125 -0.046875 0.53125q-0.046875 0.203125 -0.140625 0.296875q-0.09375 0.09375 -0.28125 0.1875q-0.1875 0.078125 -0.4375 0.125q-0.234375 0.046875 -0.5 0.078125q-0.265625 0.046875 -0.546875 0.046875q-0.8125 0 -1.40625 -0.21875q-0.578125 -0.21875 -0.953125 -0.65625q-0.375 -0.4375 -0.546875 -1.109375q-0.171875 -0.6875 -0.171875 -1.59375l0 -6.171875l-1.46875 0q-0.1875 0 -0.296875 -0.1875q-0.09375 -0.1875 -0.09375 -0.609375q0 -0.21875 0.03125 -0.359375q0.03125 -0.15625 0.078125 -0.25q0.046875 -0.109375 0.109375 -0.140625q0.078125 -0.046875 0.171875 -0.046875l1.46875 0l0 -2.515625q0 -0.078125 0.03125 -0.140625q0.046875 -0.078125 0.15625 -0.125q0.125 -0.0625 0.3125 -0.078125q0.1875 -0.03125 0.46875 -0.03125q0.28125 0 0.46875 0.03125q0.1875 0.015625 0.296875 0.078125q0.109375 0.046875 0.15625 0.125q0.046875 0.0625 0.046875 0.140625l0 2.515625l2.703125 0q0.09375 0 0.15625 0.046875q0.078125 0.03125 0.125 0.140625q0.0625 0.09375 0.078125 0.25q0.03125 0.140625 0.03125 0.359375q0 0.421875 -0.109375 0.609375q-0.109375 0.1875 -0.28125 0.1875l-2.703125 0l0 5.890625q0 1.09375 0.3125 1.65625q0.328125 0.546875 1.15625 0.546875q0.28125 0 0.484375 -0.046875q0.21875 -0.0625 0.375 -0.109375q0.171875 -0.0625 0.28125 -0.109375q0.125 -0.0625 0.21875 -0.0625q0.046875 0 0.09375 0.03125q0.0625 0.03125 0.09375 0.109375q0.03125 0.078125 0.046875 0.21875q0.03125 0.140625 0.03125 0.359375zm10.4921875 0.78125q0 0.140625 -0.09375 0.21875q-0.09375 0.0625 -0.265625 0.09375q-0.15625 0.046875 -0.46875 0.046875q-0.296875 0 -0.484375 -0.046875q-0.1875 -0.03125 -0.265625 -0.09375q-0.078125 -0.078125 -0.078125 -0.21875l0 -1.0625q-0.6875 0.75 -1.546875 1.15625q-0.84375 0.40625 -1.796875 0.40625q-0.828125 0 -1.5 -0.21875q-0.671875 -0.21875 -1.15625 -0.625q-0.46875 -0.40625 -0.734375 -1.0q-0.265625 -0.609375 -0.265625 -1.359375q0 -0.890625 0.359375 -1.546875q0.375 -0.65625 1.046875 -1.09375q0.6875 -0.4375 1.671875 -0.65625q0.984375 -0.21875 2.203125 -0.21875l1.453125 0l0 -0.8125q0 -0.609375 -0.125 -1.078125q-0.125 -0.46875 -0.421875 -0.78125q-0.28125 -0.3125 -0.734375 -0.46875q-0.453125 -0.15625 -1.125 -0.15625q-0.71875 0 -1.296875 0.171875q-0.5625 0.171875 -0.984375 0.375q-0.421875 0.203125 -0.71875 0.375q-0.28125 0.171875 -0.421875 0.171875q-0.09375 0 -0.171875 -0.046875q-0.0625 -0.046875 -0.125 -0.140625q-0.046875 -0.09375 -0.078125 -0.234375q-0.015625 -0.15625 -0.015625 -0.328125q0 -0.296875 0.03125 -0.46875q0.046875 -0.171875 0.203125 -0.3125q0.171875 -0.15625 0.546875 -0.359375q0.390625 -0.21875 0.890625 -0.375q0.515625 -0.171875 1.109375 -0.28125q0.59375 -0.125 1.203125 -0.125q1.140625 0 1.9375 0.265625q0.796875 0.25 1.28125 0.75q0.5 0.5 0.71875 1.25q0.21875 0.734375 0.21875 1.71875l0 7.109375zm-1.921875 -4.8125l-1.640625 0q-0.796875 0 -1.390625 0.140625q-0.578125 0.125 -0.96875 0.390625q-0.390625 0.265625 -0.578125 0.640625q-0.171875 0.359375 -0.171875 0.84375q0 0.8125 0.515625 1.296875q0.53125 0.484375 1.46875 0.484375q0.75 0 1.40625 -0.375q0.65625 -0.390625 1.359375 -1.1875l0 -2.234375zm13.058594 3.1875q0 0.203125 -0.015625 0.359375q0 0.140625 -0.03125 0.25q-0.03125 0.09375 -0.078125 0.171875q-0.03125 0.0625 -0.1875 0.21875q-0.140625 0.140625 -0.5 0.359375q-0.34375 0.21875 -0.78125 0.390625q-0.4375 0.171875 -0.953125 0.265625q-0.515625 0.109375 -1.078125 0.109375q-1.125 0 -2.015625 -0.375q-0.875 -0.375 -1.46875 -1.09375q-0.59375 -0.71875 -0.90625 -1.765625q-0.296875 -1.046875 -0.296875 -2.421875q0 -1.5625 0.375 -2.671875q0.375 -1.125 1.03125 -1.84375q0.671875 -0.71875 1.5625 -1.0625q0.90625 -0.34375 1.953125 -0.34375q0.5 0 0.96875 0.09375q0.484375 0.09375 0.875 0.25q0.40625 0.15625 0.703125 0.359375q0.3125 0.1875 0.453125 0.328125q0.140625 0.140625 0.1875 0.234375q0.0625 0.078125 0.09375 0.1875q0.046875 0.109375 0.046875 0.25q0.015625 0.140625 0.015625 0.34375q0 0.46875 -0.109375 0.65625q-0.09375 0.171875 -0.25 0.171875q-0.171875 0 -0.40625 -0.1875q-0.234375 -0.203125 -0.59375 -0.4375q-0.34375 -0.234375 -0.84375 -0.421875q-0.484375 -0.203125 -1.171875 -0.203125q-1.390625 0 -2.140625 1.078125q-0.734375 1.078125 -0.734375 3.109375q0 1.015625 0.1875 1.796875q0.1875 0.765625 0.5625 1.28125q0.375 0.515625 0.921875 0.765625q0.546875 0.25 1.25 0.25q0.671875 0 1.171875 -0.203125q0.5 -0.21875 0.875 -0.46875q0.375 -0.25 0.625 -0.453125q0.25 -0.21875 0.390625 -0.21875q0.078125 0 0.140625 0.046875q0.0625 0.046875 0.09375 0.171875q0.046875 0.109375 0.0625 0.28125q0.015625 0.15625 0.015625 0.390625zm8.0546875 0.84375q0 0.328125 -0.046875 0.53125q-0.046875 0.203125 -0.140625 0.296875q-0.09375 0.09375 -0.28125 0.1875q-0.1875 0.078125 -0.4375 0.125q-0.234375 0.046875 -0.5 0.078125q-0.265625 0.046875 -0.546875 0.046875q-0.8125 0 -1.40625 -0.21875q-0.578125 -0.21875 -0.953125 -0.65625q-0.375 -0.4375 -0.546875 -1.109375q-0.171875 -0.6875 -0.171875 -1.59375l0 -6.171875l-1.46875 0q-0.1875 0 -0.296875 -0.1875q-0.09375 -0.1875 -0.09375 -0.609375q0 -0.21875 0.03125 -0.359375q0.03125 -0.15625 0.078125 -0.25q0.046875 -0.109375 0.109375 -0.140625q0.078125 -0.046875 0.171875 -0.046875l1.46875 0l0 -2.515625q0 -0.078125 0.03125 -0.140625q0.046875 -0.078125 0.15625 -0.125q0.125 -0.0625 0.3125 -0.078125q0.1875 -0.03125 0.46875 -0.03125q0.28125 0 0.46875 0.03125q0.1875 0.015625 0.296875 0.078125q0.109375 0.046875 0.15625 0.125q0.046875 0.0625 0.046875 0.140625l0 2.515625l2.703125 0q0.09375 0 0.15625 0.046875q0.078125 0.03125 0.125 0.140625q0.0625 0.09375 0.078125 0.25q0.03125 0.140625 0.03125 0.359375q0 0.421875 -0.109375 0.609375q-0.109375 0.1875 -0.28125 0.1875l-2.703125 0l0 5.890625q0 1.09375 0.3125 1.65625q0.328125 0.546875 1.15625 0.546875q0.28125 0 0.484375 -0.046875q0.21875 -0.0625 0.375 -0.109375q0.171875 -0.0625 0.28125 -0.109375q0.125 -0.0625 0.21875 -0.0625q0.046875 0 0.09375 0.03125q0.0625 0.03125 0.09375 0.109375q0.03125 0.078125 0.046875 0.21875q0.03125 0.140625 0.03125 0.359375zm9.1796875 -2.109375q0 0.8125 -0.3125 1.453125q-0.296875 0.625 -0.84375 1.0625q-0.546875 0.4375 -1.3125 0.65625q-0.765625 0.21875 -1.671875 0.21875q-0.5625 0 -1.078125 -0.09375q-0.5 -0.078125 -0.90625 -0.203125q-0.40625 -0.140625 -0.6875 -0.28125q-0.28125 -0.15625 -0.421875 -0.265625q-0.125 -0.125 -0.1875 -0.328125q-0.046875 -0.21875 -0.046875 -0.578125q0 -0.234375 0.015625 -0.375q0.03125 -0.15625 0.0625 -0.25q0.03125 -0.09375 0.09375 -0.125q0.078125 -0.046875 0.15625 -0.046875q0.125 0 0.375 0.15625q0.25 0.15625 0.625 0.34375q0.375 0.1875 0.875 0.34375q0.5 0.15625 1.15625 0.15625q0.5 0 0.890625 -0.09375q0.40625 -0.109375 0.6875 -0.3125q0.296875 -0.21875 0.453125 -0.53125q0.15625 -0.3125 0.15625 -0.75q0 -0.4375 -0.234375 -0.734375q-0.21875 -0.3125 -0.59375 -0.546875q-0.375 -0.234375 -0.84375 -0.421875q-0.46875 -0.1875 -0.96875 -0.375q-0.5 -0.203125 -0.96875 -0.453125q-0.46875 -0.25 -0.84375 -0.609375q-0.375 -0.375 -0.609375 -0.875q-0.234375 -0.5 -0.234375 -1.203125q0 -0.625 0.234375 -1.1875q0.25 -0.578125 0.734375 -1.0q0.484375 -0.4375 1.203125 -0.6875q0.71875 -0.265625 1.671875 -0.265625q0.421875 0 0.84375 0.078125q0.421875 0.0625 0.765625 0.171875q0.34375 0.109375 0.578125 0.234375q0.25 0.125 0.359375 0.21875q0.125 0.09375 0.171875 0.171875q0.046875 0.0625 0.0625 0.15625q0.015625 0.078125 0.03125 0.203125q0.015625 0.125 0.015625 0.3125q0 0.203125 -0.015625 0.359375q-0.015625 0.140625 -0.0625 0.234375q-0.03125 0.09375 -0.09375 0.140625q-0.0625 0.03125 -0.125 0.03125q-0.109375 0 -0.3125 -0.125q-0.203125 -0.125 -0.515625 -0.265625q-0.3125 -0.15625 -0.75 -0.28125q-0.421875 -0.140625 -0.96875 -0.140625q-0.5 0 -0.875 0.125q-0.375 0.109375 -0.609375 0.3125q-0.234375 0.203125 -0.359375 0.484375q-0.125 0.28125 -0.125 0.609375q0 0.453125 0.234375 0.765625q0.234375 0.3125 0.609375 0.546875q0.375 0.234375 0.84375 0.421875q0.484375 0.1875 0.984375 0.390625q0.5 0.1875 0.984375 0.4375q0.484375 0.25 0.859375 0.609375q0.375 0.34375 0.609375 0.84375q0.234375 0.484375 0.234375 1.15625z" fill-rule="nonzero"></path><path fill="#000000" fill-opacity="0.0" d="m315.8275 177.9462l115.55905 0l0 33.417313l-115.55905 0z" fill-rule="nonzero"></path><path fill="#434343" d="m353.44492 202.89798q0 0.09375 -0.046875 0.171875q-0.03125 0.0625 -0.140625 0.109375q-0.09375 0.046875 -0.265625 0.0625q-0.15625 0.03125 -0.390625 0.03125q-0.25 0 -0.421875 -0.03125q-0.15625 -0.015625 -0.265625 -0.0625q-0.09375 -0.046875 -0.140625 -0.109375q-0.046875 -0.078125 -0.046875 -0.171875l0 -1.390625q-0.828125 0.90625 -1.734375 1.40625q-0.890625 0.5 -1.953125 0.5q-1.171875 0 -2.0 -0.453125q-0.8125 -0.453125 -1.328125 -1.21875q-0.5 -0.765625 -0.734375 -1.796875q-0.234375 -1.046875 -0.234375 -2.1875q0 -1.359375 0.296875 -2.453125q0.296875 -1.09375 0.859375 -1.859375q0.578125 -0.78125 1.421875 -1.203125q0.859375 -0.421875 1.96875 -0.421875q0.921875 0 1.6875 0.40625q0.78125 0.40625 1.53125 1.1875l0 -6.125q0 -0.078125 0.03125 -0.15625q0.046875 -0.078125 0.15625 -0.109375q0.125 -0.046875 0.296875 -0.078125q0.1875 -0.03125 0.46875 -0.03125q0.296875 0 0.484375 0.03125q0.1875 0.03125 0.28125 0.078125q0.109375 0.03125 0.15625 0.109375q0.0625 0.078125 0.0625 0.15625l0 15.609375zm-1.9375 -7.421875q-0.796875 -0.96875 -1.53125 -1.46875q-0.71875 -0.515625 -1.515625 -0.515625q-0.75 0 -1.265625 0.359375q-0.515625 0.34375 -0.84375 0.921875q-0.3125 0.5625 -0.46875 1.296875q-0.140625 0.71875 -0.140625 1.46875q0 0.796875 0.125 1.5625q0.125 0.765625 0.421875 1.359375q0.3125 0.59375 0.8125 0.953125q0.515625 0.34375 1.265625 0.34375q0.390625 0 0.75 -0.09375q0.359375 -0.109375 0.734375 -0.359375q0.375 -0.25 0.78125 -0.640625q0.40625 -0.390625 0.875 -0.96875l0 -4.21875zm14.515625 1.6875q0 0.46875 -0.234375 0.65625q-0.21875 0.1875 -0.515625 0.1875l-6.921875 0q0 0.890625 0.171875 1.59375q0.1875 0.703125 0.59375 1.203125q0.40625 0.5 1.0625 0.78125q0.65625 0.265625 1.609375 0.265625q0.75 0 1.328125 -0.125q0.59375 -0.125 1.015625 -0.28125q0.4375 -0.15625 0.703125 -0.265625q0.28125 -0.125 0.421875 -0.125q0.078125 0 0.140625 0.046875q0.078125 0.03125 0.109375 0.109375q0.03125 0.078125 0.046875 0.234375q0.015625 0.140625 0.015625 0.359375q0 0.140625 -0.015625 0.265625q0 0.109375 -0.015625 0.203125q-0.015625 0.078125 -0.0625 0.15625q-0.046875 0.0625 -0.109375 0.125q-0.0625 0.0625 -0.375 0.21875q-0.3125 0.140625 -0.828125 0.28125q-0.5 0.140625 -1.171875 0.25q-0.65625 0.109375 -1.40625 0.109375q-1.296875 0 -2.28125 -0.359375q-0.96875 -0.359375 -1.640625 -1.078125q-0.671875 -0.71875 -1.015625 -1.796875q-0.328125 -1.078125 -0.328125 -2.5q0 -1.359375 0.34375 -2.4375q0.359375 -1.09375 1.015625 -1.84375q0.671875 -0.765625 1.609375 -1.171875q0.9375 -0.40625 2.09375 -0.40625q1.234375 0 2.109375 0.40625q0.875 0.390625 1.4375 1.078125q0.5625 0.671875 0.828125 1.578125q0.265625 0.90625 0.265625 1.9375l0 0.34375zm-1.953125 -0.5625q0.046875 -1.53125 -0.671875 -2.390625q-0.703125 -0.875 -2.09375 -0.875q-0.71875 0 -1.265625 0.28125q-0.53125 0.265625 -0.90625 0.71875q-0.359375 0.4375 -0.5625 1.03125q-0.1875 0.578125 -0.21875 1.234375l5.71875 0zm6.8320312 6.296875q0 0.09375 -0.046875 0.15625q-0.046875 0.0625 -0.15625 0.125q-0.109375 0.046875 -0.296875 0.0625q-0.1875 0.03125 -0.484375 0.03125q-0.28125 0 -0.46875 -0.03125q-0.1875 -0.015625 -0.296875 -0.0625q-0.109375 -0.0625 -0.15625 -0.125q-0.03125 -0.0625 -0.03125 -0.15625l0 -15.65625q0 -0.09375 0.03125 -0.15625q0.046875 -0.078125 0.15625 -0.125q0.109375 -0.046875 0.296875 -0.0625q0.1875 -0.03125 0.46875 -0.03125q0.296875 0 0.484375 0.03125q0.1875 0.015625 0.296875 0.0625q0.109375 0.046875 0.15625 0.125q0.046875 0.0625 0.046875 0.15625l0 15.65625zm12.5703125 -5.734375q0 0.46875 -0.234375 0.65625q-0.21875 0.1875 -0.515625 0.1875l-6.921875 0q0 0.890625 0.171875 1.59375q0.1875 0.703125 0.59375 1.203125q0.40625 0.5 1.0625 0.78125q0.65625 0.265625 1.609375 0.265625q0.75 0 1.328125 -0.125q0.59375 -0.125 1.015625 -0.28125q0.4375 -0.15625 0.703125 -0.265625q0.28125 -0.125 0.421875 -0.125q0.078125 0 0.140625 0.046875q0.078125 0.03125 0.109375 0.109375q0.03125 0.078125 0.046875 0.234375q0.015625 0.140625 0.015625 0.359375q0 0.140625 -0.015625 0.265625q0 0.109375 -0.015625 0.203125q-0.015625 0.078125 -0.0625 0.15625q-0.046875 0.0625 -0.109375 0.125q-0.0625 0.0625 -0.375 0.21875q-0.3125 0.140625 -0.828125 0.28125q-0.5 0.140625 -1.171875 0.25q-0.65625 0.109375 -1.40625 0.109375q-1.296875 0 -2.28125 -0.359375q-0.96875 -0.359375 -1.640625 -1.078125q-0.671875 -0.71875 -1.015625 -1.796875q-0.328125 -1.078125 -0.328125 -2.5q0 -1.359375 0.34375 -2.4375q0.359375 -1.09375 1.015625 -1.84375q0.671875 -0.765625 1.609375 -1.171875q0.9375 -0.40625 2.09375 -0.40625q1.234375 0 2.109375 0.40625q0.875 0.390625 1.4375 1.078125q0.5625 0.671875 0.828125 1.578125q0.265625 0.90625 0.265625 1.9375l0 0.34375zm-1.953125 -0.5625q0.046875 -1.53125 -0.671875 -2.390625q-0.703125 -0.875 -2.09375 -0.875q-0.71875 0 -1.265625 0.28125q-0.53125 0.265625 -0.90625 0.71875q-0.359375 0.4375 -0.5625 1.03125q-0.1875 0.578125 -0.21875 1.234375l5.71875 0zm10.378906 5.53125q0 0.328125 -0.046875 0.53125q-0.046875 0.203125 -0.140625 0.296875q-0.09375 0.09375 -0.28125 0.1875q-0.1875 0.078125 -0.4375 0.125q-0.234375 0.046875 -0.5 0.078125q-0.265625 0.046875 -0.546875 0.046875q-0.8125 0 -1.40625 -0.21875q-0.578125 -0.21875 -0.953125 -0.65625q-0.375 -0.4375 -0.546875 -1.109375q-0.171875 -0.6875 -0.171875 -1.59375l0 -6.171875l-1.46875 0q-0.1875 0 -0.296875 -0.1875q-0.09375 -0.1875 -0.09375 -0.609375q0 -0.21875 0.03125 -0.359375q0.03125 -0.15625 0.078125 -0.25q0.046875 -0.109375 0.109375 -0.140625q0.078125 -0.046875 0.171875 -0.046875l1.46875 0l0 -2.515625q0 -0.078125 0.03125 -0.140625q0.046875 -0.078125 0.15625 -0.125q0.125 -0.0625 0.3125 -0.078125q0.1875 -0.03125 0.46875 -0.03125q0.28125 0 0.46875 0.03125q0.1875 0.015625 0.296875 0.078125q0.109375 0.046875 0.15625 0.125q0.046875 0.0625 0.046875 0.140625l0 2.515625l2.703125 0q0.09375 0 0.15625 0.046875q0.078125 0.03125 0.125 0.140625q0.0625 0.09375 0.078125 0.25q0.03125 0.140625 0.03125 0.359375q0 0.421875 -0.109375 0.609375q-0.109375 0.1875 -0.28125 0.1875l-2.703125 0l0 5.890625q0 1.09375 0.3125 1.65625q0.328125 0.546875 1.15625 0.546875q0.28125 0 0.484375 -0.046875q0.21875 -0.0625 0.375 -0.109375q0.171875 -0.0625 0.28125 -0.109375q0.125 -0.0625 0.21875 -0.0625q0.046875 0 0.09375 0.03125q0.0625 0.03125 0.09375 0.109375q0.03125 0.078125 0.046875 0.21875q0.03125 0.140625 0.03125 0.359375zm11.5546875 -4.96875q0 0.46875 -0.234375 0.65625q-0.21875 0.1875 -0.515625 0.1875l-6.921875 0q0 0.890625 0.171875 1.59375q0.1875 0.703125 0.59375 1.203125q0.40625 0.5 1.0625 0.78125q0.65625 0.265625 1.609375 0.265625q0.75 0 1.328125 -0.125q0.59375 -0.125 1.015625 -0.28125q0.4375 -0.15625 0.703125 -0.265625q0.28125 -0.125 0.421875 -0.125q0.078125 0 0.140625 0.046875q0.078125 0.03125 0.109375 0.109375q0.03125 0.078125 0.046875 0.234375q0.015625 0.140625 0.015625 0.359375q0 0.140625 -0.015625 0.265625q0 0.109375 -0.015625 0.203125q-0.015625 0.078125 -0.0625 0.15625q-0.046875 0.0625 -0.109375 0.125q-0.0625 0.0625 -0.375 0.21875q-0.3125 0.140625 -0.828125 0.28125q-0.5 0.140625 -1.171875 0.25q-0.65625 0.109375 -1.40625 0.109375q-1.296875 0 -2.28125 -0.359375q-0.96875 -0.359375 -1.640625 -1.078125q-0.671875 -0.71875 -1.015625 -1.796875q-0.328125 -1.078125 -0.328125 -2.5q0 -1.359375 0.34375 -2.4375q0.359375 -1.09375 1.015625 -1.84375q0.671875 -0.765625 1.609375 -1.171875q0.9375 -0.40625 2.09375 -0.40625q1.234375 0 2.109375 0.40625q0.875 0.390625 1.4375 1.078125q0.5625 0.671875 0.828125 1.578125q0.265625 0.90625 0.265625 1.9375l0 0.34375zm-1.953125 -0.5625q0.046875 -1.53125 -0.671875 -2.390625q-0.703125 -0.875 -2.09375 -0.875q-0.71875 0 -1.265625 0.28125q-0.53125 0.265625 -0.90625 0.71875q-0.359375 0.4375 -0.5625 1.03125q-0.1875 0.578125 -0.21875 1.234375l5.71875 0z" fill-rule="nonzero"></path><path fill="#000000" fill-opacity="0.0" d="m315.8275 129.83989l-200.50394 0.25196838" fill-rule="nonzero"></path><path stroke="#434343" stroke-width="3.0" stroke-linejoin="round" stroke-linecap="butt" d="m297.82755 129.86252l-182.50397 0.2293396" fill-rule="evenodd"></path><path fill="#434343" stroke="#434343" stroke-width="3.0" stroke-linecap="butt" d="m297.83374 134.8177l13.608063 -4.97229l-13.620514 -4.938095z" fill-rule="evenodd"></path><path fill="#000000" fill-opacity="0.0" d="m315.8275 198.20465l-200.50394 0.25196838" fill-rule="nonzero"></path><path stroke="#434343" stroke-width="3.0" stroke-linejoin="round" stroke-linecap="butt" d="m315.8275 198.20464l-182.50395 0.22935486" fill-rule="evenodd"></path><path fill="#434343" stroke="#434343" stroke-width="3.0" stroke-linecap="butt" d="m133.31734 193.47879l-13.608063 4.9723053l13.620514 4.938095z" fill-rule="evenodd"></path><path fill="#000000" fill-opacity="0.0" d="m3.827511 108.91338l115.55905 0l0 33.41732l-115.55905 0z" fill-rule="nonzero"></path><path fill="#434343" d="m29.720318 132.2558q0 0.203125 -0.015625 0.359375q0 0.140625 -0.03125 0.25q-0.03125 0.09375 -0.078125 0.171875q-0.03125 0.0625 -0.1875 0.21875q-0.140625 0.140625 -0.5 0.359375q-0.34375 0.21875 -0.78125 0.390625q-0.4375 0.171875 -0.953125 0.265625q-0.515625 0.109375 -1.078125 0.109375q-1.125 0 -2.015625 -0.375q-0.875 -0.375 -1.46875 -1.09375q-0.59375 -0.71875 -0.90625 -1.765625q-0.296875 -1.046875 -0.296875 -2.421875q0 -1.5625 0.375 -2.671875q0.375 -1.125 1.03125 -1.84375q0.671875 -0.71875 1.5625 -1.0625q0.90625 -0.34375 1.953125 -0.34375q0.5 0 0.96875 0.09375q0.484375 0.09375 0.875 0.25q0.40625 0.15625 0.703125 0.359375q0.3125 0.1875 0.453125 0.328125q0.140625 0.140625 0.1875 0.234375q0.0625 0.078125 0.09375 0.1875q0.046875 0.109375 0.046875 0.25q0.015625 0.140625 0.015625 0.34375q0 0.46875 -0.109375 0.65625q-0.09375 0.171875 -0.25 0.171875q-0.171875 0 -0.40625 -0.1875q-0.234375 -0.203125 -0.59375 -0.4375q-0.34375 -0.234375 -0.84375 -0.421875q-0.484375 -0.203125 -1.171875 -0.203125q-1.390625 0 -2.140625 1.078125q-0.734375 1.078125 -0.734375 3.109375q0 1.015625 0.1875 1.796875q0.1875 0.765625 0.5625 1.28125q0.375 0.515625 0.921875 0.765625q0.546875 0.25 1.25 0.25q0.671875 0 1.171875 -0.203125q0.5 -0.21875 0.875 -0.46875q0.375 -0.25 0.625 -0.453125q0.25 -0.21875 0.390625 -0.21875q0.078125 0 0.140625 0.046875q0.0625 0.046875 0.09375 0.171875q0.046875 0.109375 0.0625 0.28125q0.015625 0.15625 0.015625 0.390625zm12.3828125 -3.78125q0 1.296875 -0.34375 2.375q-0.34375 1.078125 -1.015625 1.875q-0.671875 0.78125 -1.6875 1.21875q-1.015625 0.4375 -2.34375 0.4375q-1.3125 0 -2.28125 -0.375q-0.953125 -0.390625 -1.609375 -1.125q-0.640625 -0.75 -0.953125 -1.796875q-0.3125 -1.0625 -0.3125 -2.390625q0 -1.296875 0.328125 -2.375q0.328125 -1.09375 1.0 -1.875q0.6875 -0.78125 1.6875 -1.21875q1.015625 -0.4375 2.359375 -0.4375q1.296875 0 2.265625 0.390625q0.96875 0.390625 1.609375 1.125q0.640625 0.734375 0.96875 1.796875q0.328125 1.046875 0.328125 2.375zm-2.046875 0.125q0 -0.84375 -0.15625 -1.609375q-0.15625 -0.765625 -0.53125 -1.328125q-0.359375 -0.578125 -0.984375 -0.90625q-0.609375 -0.34375 -1.53125 -0.34375q-0.859375 0 -1.484375 0.3125q-0.609375 0.296875 -1.015625 0.859375q-0.390625 0.546875 -0.59375 1.3125q-0.1875 0.765625 -0.1875 1.65625q0 0.875 0.15625 1.640625q0.171875 0.75 0.53125 1.328125q0.375 0.5625 0.984375 0.90625q0.625 0.328125 1.5625 0.328125q0.84375 0 1.453125 -0.296875q0.625 -0.3125 1.015625 -0.859375q0.40625 -0.5625 0.59375 -1.3125q0.1875 -0.765625 0.1875 -1.6875zm13.96875 5.265625q0 0.09375 -0.046875 0.15625q-0.046875 0.0625 -0.15625 0.125q-0.09375 0.046875 -0.28125 0.0625q-0.1875 0.03125 -0.46875 0.03125q-0.296875 0 -0.484375 -0.03125q-0.1875 -0.015625 -0.296875 -0.0625q-0.109375 -0.0625 -0.15625 -0.125q-0.046875 -0.0625 -0.046875 -0.15625l0 -6.171875q0 -0.90625 -0.140625 -1.453125q-0.140625 -0.546875 -0.40625 -0.9375q-0.265625 -0.40625 -0.703125 -0.609375q-0.421875 -0.21875 -0.984375 -0.21875q-0.71875 0 -1.453125 0.515625q-0.71875 0.515625 -1.515625 1.5l0 7.375q0 0.09375 -0.046875 0.15625q-0.046875 0.0625 -0.15625 0.125q-0.109375 0.046875 -0.296875 0.0625q-0.1875 0.03125 -0.484375 0.03125q-0.28125 0 -0.46875 -0.03125q-0.1875 -0.015625 -0.296875 -0.0625q-0.109375 -0.0625 -0.15625 -0.125q-0.03125 -0.0625 -0.03125 -0.15625l0 -10.546875q0 -0.09375 0.03125 -0.15625q0.03125 -0.0625 0.140625 -0.109375q0.109375 -0.0625 0.265625 -0.078125q0.171875 -0.015625 0.4375 -0.015625q0.265625 0 0.421875 0.015625q0.171875 0.015625 0.265625 0.078125q0.09375 0.046875 0.140625 0.109375q0.046875 0.0625 0.046875 0.15625l0 1.390625q0.890625 -0.984375 1.765625 -1.453125q0.890625 -0.46875 1.796875 -0.46875q1.046875 0 1.765625 0.359375q0.71875 0.359375 1.15625 0.96875q0.453125 0.59375 0.640625 1.390625q0.203125 0.796875 0.203125 1.921875l0 6.4375zm9.015625 -0.765625q0 0.328125 -0.046875 0.53125q-0.046875 0.203125 -0.140625 0.296875q-0.09375 0.09375 -0.28125 0.1875q-0.1875 0.078125 -0.4375 0.125q-0.234375 0.046875 -0.5 0.078125q-0.265625 0.046875 -0.546875 0.046875q-0.8125 0 -1.40625 -0.21875q-0.578125 -0.21875 -0.953125 -0.65625q-0.375 -0.4375 -0.546875 -1.109375q-0.171875 -0.6875 -0.171875 -1.59375l0 -6.171875l-1.46875 0q-0.1875 0 -0.296875 -0.1875q-0.09375 -0.1875 -0.09375 -0.609375q0 -0.21875 0.03125 -0.359375q0.03125 -0.15625 0.078125 -0.25q0.046875 -0.109375 0.109375 -0.140625q0.078125 -0.046875 0.171875 -0.046875l1.46875 0l0 -2.515625q0 -0.078125 0.03125 -0.140625q0.046875 -0.078125 0.15625 -0.125q0.125 -0.0625 0.3125 -0.078125q0.1875 -0.03125 0.46875 -0.03125q0.28125 0 0.46875 0.03125q0.1875 0.015625 0.296875 0.078125q0.109375 0.046875 0.15625 0.125q0.046875 0.0625 0.046875 0.140625l0 2.515625l2.703125 0q0.09375 0 0.15625 0.046875q0.078125 0.03125 0.125 0.140625q0.0625 0.09375 0.078125 0.25q0.03125 0.140625 0.03125 0.359375q0 0.421875 -0.109375 0.609375q-0.109375 0.1875 -0.28125 0.1875l-2.703125 0l0 5.890625q0 1.09375 0.3125 1.65625q0.328125 0.546875 1.15625 0.546875q0.28125 0 0.484375 -0.046875q0.21875 -0.0625 0.375 -0.109375q0.171875 -0.0625 0.28125 -0.109375q0.125 -0.0625 0.21875 -0.0625q0.046875 0 0.09375 0.03125q0.0625 0.03125 0.09375 0.109375q0.03125 0.078125 0.046875 0.21875q0.03125 0.140625 0.03125 0.359375zm10.492191 0.78125q0 0.140625 -0.09375 0.21875q-0.09375 0.0625 -0.265625 0.09375q-0.15625 0.046875 -0.46875 0.046875q-0.296875 0 -0.484375 -0.046875q-0.1875 -0.03125 -0.265625 -0.09375q-0.078125 -0.078125 -0.078125 -0.21875l0 -1.0625q-0.6875 0.75 -1.546875 1.15625q-0.84375 0.40625 -1.796875 0.40625q-0.828125 0 -1.5 -0.21875q-0.671875 -0.21875 -1.15625 -0.625q-0.46875 -0.40625 -0.734375 -1.0q-0.265625 -0.609375 -0.265625 -1.359375q0 -0.890625 0.359375 -1.546875q0.375 -0.65625 1.046875 -1.09375q0.6875 -0.4375 1.671875 -0.65625q0.984375 -0.21875 2.203125 -0.21875l1.453125 0l0 -0.8125q0 -0.609375 -0.125 -1.078125q-0.125 -0.46875 -0.421875 -0.78125q-0.28125 -0.3125 -0.734375 -0.46875q-0.453125 -0.15625 -1.125 -0.15625q-0.71875 0 -1.296875 0.171875q-0.5625 0.171875 -0.984375 0.375q-0.421875 0.203125 -0.71875 0.375q-0.28125 0.171875 -0.421875 0.171875q-0.09375 0 -0.171875 -0.046875q-0.0625 -0.046875 -0.125 -0.140625q-0.046875 -0.09375 -0.078125 -0.234375q-0.015625 -0.15625 -0.015625 -0.328125q0 -0.296875 0.03125 -0.46875q0.046875 -0.171875 0.203125 -0.3125q0.171875 -0.15625 0.546875 -0.359375q0.390625 -0.21875 0.890625 -0.375q0.515625 -0.171875 1.109375 -0.28125q0.59375 -0.125 1.203125 -0.125q1.140625 0 1.9375 0.265625q0.796875 0.25 1.28125 0.75q0.5 0.5 0.71875 1.25q0.21875 0.734375 0.21875 1.71875l0 7.109375zm-1.921875 -4.8125l-1.640625 0q-0.796875 0 -1.390625 0.140625q-0.578125 0.125 -0.96875 0.390625q-0.390625 0.265625 -0.578125 0.640625q-0.171875 0.359375 -0.171875 0.84375q0 0.8125 0.515625 1.296875q0.53125 0.484375 1.46875 0.484375q0.75 0 1.40625 -0.375q0.65625 -0.390625 1.359375 -1.1875l0 -2.234375zm13.058594 3.1875q0 0.203125 -0.015625 0.359375q0 0.140625 -0.03125 0.25q-0.03125 0.09375 -0.078125 0.171875q-0.03125 0.0625 -0.1875 0.21875q-0.140625 0.140625 -0.5 0.359375q-0.34375 0.21875 -0.78125 0.390625q-0.4375 0.171875 -0.953125 0.265625q-0.515625 0.109375 -1.078125 0.109375q-1.125 0 -2.015625 -0.375q-0.875 -0.375 -1.46875 -1.09375q-0.59375 -0.71875 -0.90625 -1.765625q-0.296875 -1.046875 -0.296875 -2.421875q0 -1.5625 0.375 -2.671875q0.375 -1.125 1.03125 -1.84375q0.671875 -0.71875 1.5625 -1.0625q0.90625 -0.34375 1.953125 -0.34375q0.5 0 0.96875 0.09375q0.484375 0.09375 0.875 0.25q0.40625 0.15625 0.703125 0.359375q0.3125 0.1875 0.453125 0.328125q0.140625 0.140625 0.1875 0.234375q0.0625 0.078125 0.09375 0.1875q0.046875 0.109375 0.046875 0.25q0.015625 0.140625 0.015625 0.34375q0 0.46875 -0.109375 0.65625q-0.09375 0.171875 -0.25 0.171875q-0.171875 0 -0.40625 -0.1875q-0.234375 -0.203125 -0.59375 -0.4375q-0.34375 -0.234375 -0.84375 -0.421875q-0.484375 -0.203125 -1.171875 -0.203125q-1.390625 0 -2.140625 1.078125q-0.734375 1.078125 -0.734375 3.109375q0 1.015625 0.1875 1.796875q0.1875 0.765625 0.5625 1.28125q0.375 0.515625 0.921875 0.765625q0.546875 0.25 1.25 0.25q0.671875 0 1.171875 -0.203125q0.5 -0.21875 0.875 -0.46875q0.375 -0.25 0.625 -0.453125q0.25 -0.21875 0.390625 -0.21875q0.078125 0 0.140625 0.046875q0.0625 0.046875 0.09375 0.171875q0.046875 0.109375 0.0625 0.28125q0.015625 0.15625 0.015625 0.390625zm8.0546875 0.84375q0 0.328125 -0.046875 0.53125q-0.046875 0.203125 -0.140625 0.296875q-0.09375 0.09375 -0.28125 0.1875q-0.1875 0.078125 -0.4375 0.125q-0.234375 0.046875 -0.5 0.078125q-0.265625 0.046875 -0.546875 0.046875q-0.8125 0 -1.40625 -0.21875q-0.578125 -0.21875 -0.953125 -0.65625q-0.375 -0.4375 -0.546875 -1.109375q-0.171875 -0.6875 -0.171875 -1.59375l0 -6.171875l-1.46875 0q-0.1875 0 -0.296875 -0.1875q-0.09375 -0.1875 -0.09375 -0.609375q0 -0.21875 0.03125 -0.359375q0.03125 -0.15625 0.078125 -0.25q0.046875 -0.109375 0.109375 -0.140625q0.078125 -0.046875 0.171875 -0.046875l1.46875 0l0 -2.515625q0 -0.078125 0.03125 -0.140625q0.046875 -0.078125 0.15625 -0.125q0.125 -0.0625 0.3125 -0.078125q0.1875 -0.03125 0.46875 -0.03125q0.28125 0 0.46875 0.03125q0.1875 0.015625 0.296875 0.078125q0.109375 0.046875 0.15625 0.125q0.046875 0.0625 0.046875 0.140625l0 2.515625l2.703125 0q0.09375 0 0.15625 0.046875q0.078125 0.03125 0.125 0.140625q0.0625 0.09375 0.078125 0.25q0.03125 0.140625 0.03125 0.359375q0 0.421875 -0.109375 0.609375q-0.109375 0.1875 -0.28125 0.1875l-2.703125 0l0 5.890625q0 1.09375 0.3125 1.65625q0.328125 0.546875 1.15625 0.546875q0.28125 0 0.484375 -0.046875q0.21875 -0.0625 0.375 -0.109375q0.171875 -0.0625 0.28125 -0.109375q0.125 -0.0625 0.21875 -0.0625q0.046875 0 0.09375 0.03125q0.0625 0.03125 0.09375 0.109375q0.03125 0.078125 0.046875 0.21875q0.03125 0.140625 0.03125 0.359375zm9.1796875 -2.109375q0 0.8125 -0.3125 1.453125q-0.296875 0.625 -0.84375 1.0625q-0.546875 0.4375 -1.3125 0.65625q-0.765625 0.21875 -1.671875 0.21875q-0.5625 0 -1.078125 -0.09375q-0.5 -0.078125 -0.90625 -0.203125q-0.40625 -0.140625 -0.6875 -0.28125q-0.28125 -0.15625 -0.421875 -0.265625q-0.125 -0.125 -0.1875 -0.328125q-0.046875 -0.21875 -0.046875 -0.578125q0 -0.234375 0.015625 -0.375q0.03125 -0.15625 0.0625 -0.25q0.03125 -0.09375 0.09375 -0.125q0.078125 -0.046875 0.15625 -0.046875q0.125 0 0.375 0.15625q0.25 0.15625 0.625 0.34375q0.375 0.1875 0.875 0.34375q0.5 0.15625 1.15625 0.15625q0.5 0 0.890625 -0.09375q0.40625 -0.109375 0.6875 -0.3125q0.296875 -0.21875 0.453125 -0.53125q0.15625 -0.3125 0.15625 -0.75q0 -0.4375 -0.234375 -0.734375q-0.21875 -0.3125 -0.59375 -0.546875q-0.375 -0.234375 -0.84375 -0.421875q-0.46875 -0.1875 -0.96875 -0.375q-0.5 -0.203125 -0.96875 -0.453125q-0.46875 -0.25 -0.84375 -0.609375q-0.375 -0.375 -0.609375 -0.875q-0.234375 -0.5 -0.234375 -1.203125q0 -0.625 0.234375 -1.1875q0.25 -0.578125 0.734375 -1.0q0.484375 -0.4375 1.203125 -0.6875q0.71875 -0.265625 1.671875 -0.265625q0.421875 0 0.84375 0.078125q0.421875 0.0625 0.765625 0.171875q0.34375 0.109375 0.578125 0.234375q0.25 0.125 0.359375 0.21875q0.125 0.09375 0.171875 0.171875q0.046875 0.0625 0.0625 0.15625q0.015625 0.078125 0.03125 0.203125q0.015625 0.125 0.015625 0.3125q0 0.203125 -0.015625 0.359375q-0.015625 0.140625 -0.0625 0.234375q-0.03125 0.09375 -0.09375 0.140625q-0.0625 0.03125 -0.125 0.03125q-0.109375 0 -0.3125 -0.125q-0.203125 -0.125 -0.515625 -0.265625q-0.3125 -0.15625 -0.75 -0.28125q-0.421875 -0.140625 -0.96875 -0.140625q-0.5 0 -0.875 0.125q-0.375 0.109375 -0.609375 0.3125q-0.234375 0.203125 -0.359375 0.484375q-0.125 0.28125 -0.125 0.609375q0 0.453125 0.234375 0.765625q0.234375 0.3125 0.609375 0.546875q0.375 0.234375 0.84375 0.421875q0.484375 0.1875 0.984375 0.390625q0.5 0.1875 0.984375 0.4375q0.484375 0.25 0.859375 0.609375q0.375 0.34375 0.609375 0.84375q0.234375 0.484375 0.234375 1.15625z" fill-rule="nonzero"></path><path fill="#000000" fill-opacity="0.0" d="m3.5676684 169.94751l115.55906 0l0 58.740158l-115.55906 0z" fill-rule="nonzero"></path><path fill="#434343" d="m41.185085 193.06071q0 0.09375 -0.046875 0.171875q-0.03125 0.0625 -0.140625 0.109375q-0.09375 0.046875 -0.265625 0.0625q-0.15625 0.03125 -0.390625 0.03125q-0.25 0 -0.421875 -0.03125q-0.15625 -0.015625 -0.265625 -0.0625q-0.09375 -0.046875 -0.140625 -0.109375q-0.046875 -0.078125 -0.046875 -0.171875l0 -1.390625q-0.828125 0.90625 -1.734375 1.40625q-0.890625 0.5 -1.953125 0.5q-1.171875 0 -2.0 -0.453125q-0.8125 -0.453125 -1.328125 -1.21875q-0.5 -0.765625 -0.734375 -1.796875q-0.234375 -1.046875 -0.234375 -2.1875q0 -1.359375 0.296875 -2.453125q0.296875 -1.09375 0.859375 -1.859375q0.578125 -0.78125 1.421875 -1.203125q0.859375 -0.421875 1.96875 -0.421875q0.921875 0 1.6875 0.40625q0.78125 0.40625 1.53125 1.1875l0 -6.125q0 -0.078125 0.03125 -0.15625q0.046875 -0.078125 0.15625 -0.109375q0.125 -0.046875 0.296875 -0.078125q0.1875 -0.03125 0.46875 -0.03125q0.296875 0 0.484375 0.03125q0.1875 0.03125 0.28125 0.078125q0.109375 0.03125 0.15625 0.109375q0.0625 0.078125 0.0625 0.15625l0 15.609375zm-1.9375 -7.421875q-0.796875 -0.96875 -1.53125 -1.46875q-0.71875 -0.515625 -1.515625 -0.515625q-0.75 0 -1.265625 0.359375q-0.515625 0.34375 -0.84375 0.921875q-0.3125 0.5625 -0.46875 1.296875q-0.140625 0.71875 -0.140625 1.46875q0 0.796875 0.125 1.5625q0.125 0.765625 0.421875 1.359375q0.3125 0.59375 0.8125 0.953125q0.515625 0.34375 1.265625 0.34375q0.390625 0 0.75 -0.09375q0.359375 -0.109375 0.734375 -0.359375q0.375 -0.25 0.78125 -0.640625q0.40625 -0.390625 0.875 -0.96875l0 -4.21875zm14.515625 1.6875q0 0.46875 -0.234375 0.65625q-0.21875 0.1875 -0.515625 0.1875l-6.921875 0q0 0.890625 0.171875 1.59375q0.1875 0.703125 0.59375 1.203125q0.40625 0.5 1.0625 0.78125q0.65625 0.265625 1.609375 0.265625q0.75 0 1.328125 -0.125q0.59375 -0.125 1.015625 -0.28125q0.4375 -0.15625 0.703125 -0.265625q0.28125 -0.125 0.421875 -0.125q0.078125 0 0.140625 0.046875q0.078125 0.03125 0.109375 0.109375q0.03125 0.078125 0.046875 0.234375q0.015625 0.140625 0.015625 0.359375q0 0.140625 -0.015625 0.265625q0 0.109375 -0.015625 0.203125q-0.015625 0.078125 -0.0625 0.15625q-0.046875 0.0625 -0.109375 0.125q-0.0625 0.0625 -0.375 0.21875q-0.3125 0.140625 -0.828125 0.28125q-0.5 0.140625 -1.171875 0.25q-0.65625 0.109375 -1.40625 0.109375q-1.296875 0 -2.28125 -0.359375q-0.96875 -0.359375 -1.640625 -1.078125q-0.671875 -0.71875 -1.015625 -1.796875q-0.328125 -1.078125 -0.328125 -2.5q0 -1.359375 0.34375 -2.4375q0.359375 -1.09375 1.015625 -1.84375q0.671875 -0.765625 1.609375 -1.171875q0.9375 -0.40625 2.09375 -0.40625q1.234375 0 2.109375 0.40625q0.875 0.390625 1.4375 1.078125q0.5625 0.671875 0.828125 1.578125q0.265625 0.90625 0.265625 1.9375l0 0.34375zm-1.953125 -0.5625q0.046875 -1.53125 -0.671875 -2.390625q-0.703125 -0.875 -2.09375 -0.875q-0.71875 0 -1.265625 0.28125q-0.53125 0.265625 -0.90625 0.71875q-0.359375 0.4375 -0.5625 1.03125q-0.1875 0.578125 -0.21875 1.234375l5.71875 0zm6.8320312 6.296875q0 0.09375 -0.046875 0.15625q-0.046875 0.0625 -0.15625 0.125q-0.109375 0.046875 -0.296875 0.0625q-0.1875 0.03125 -0.484375 0.03125q-0.28125 0 -0.46875 -0.03125q-0.1875 -0.015625 -0.296875 -0.0625q-0.109375 -0.0625 -0.15625 -0.125q-0.03125 -0.0625 -0.03125 -0.15625l0 -15.65625q0 -0.09375 0.03125 -0.15625q0.046875 -0.078125 0.15625 -0.125q0.109375 -0.046875 0.296875 -0.0625q0.1875 -0.03125 0.46875 -0.03125q0.296875 0 0.484375 0.03125q0.1875 0.015625 0.296875 0.0625q0.109375 0.046875 0.15625 0.125q0.046875 0.0625 0.046875 0.15625l0 15.65625zm12.570309 -5.734375q0 0.46875 -0.234375 0.65625q-0.21875 0.1875 -0.515625 0.1875l-6.921871 0q0 0.890625 0.171875 1.59375q0.1875 0.703125 0.5937462 1.203125q0.40625 0.5 1.0625 0.78125q0.65625 0.265625 1.609375 0.265625q0.75 0 1.328125 -0.125q0.59375 -0.125 1.015625 -0.28125q0.4375 -0.15625 0.703125 -0.265625q0.28125 -0.125 0.421875 -0.125q0.078125 0 0.140625 0.046875q0.078125 0.03125 0.109375 0.109375q0.03125 0.078125 0.046875 0.234375q0.015625 0.140625 0.015625 0.359375q0 0.140625 -0.015625 0.265625q0 0.109375 -0.015625 0.203125q-0.015625 0.078125 -0.0625 0.15625q-0.046875 0.0625 -0.109375 0.125q-0.0625 0.0625 -0.375 0.21875q-0.3125 0.140625 -0.828125 0.28125q-0.5 0.140625 -1.171875 0.25q-0.65625 0.109375 -1.40625 0.109375q-1.296875 0 -2.28125 -0.359375q-0.9687462 -0.359375 -1.6406212 -1.078125q-0.671875 -0.71875 -1.015625 -1.796875q-0.328125 -1.078125 -0.328125 -2.5q0 -1.359375 0.34375 -2.4375q0.359375 -1.09375 1.015625 -1.84375q0.671875 -0.765625 1.6093712 -1.171875q0.9375 -0.40625 2.09375 -0.40625q1.234375 0 2.109375 0.40625q0.875 0.390625 1.4375 1.078125q0.5625 0.671875 0.828125 1.578125q0.265625 0.90625 0.265625 1.9375l0 0.34375zm-1.953125 -0.5625q0.046875 -1.53125 -0.671875 -2.390625q-0.703125 -0.875 -2.09375 -0.875q-0.71875 0 -1.265625 0.28125q-0.53125 0.265625 -0.90625 0.71875q-0.3593712 0.4375 -0.5624962 1.03125q-0.1875 0.578125 -0.21875 1.234375l5.718746 0zm10.378906 5.53125q0 0.328125 -0.046875 0.53125q-0.046875 0.203125 -0.140625 0.296875q-0.09375 0.09375 -0.28125 0.1875q-0.1875 0.078125 -0.4375 0.125q-0.234375 0.046875 -0.5 0.078125q-0.265625 0.046875 -0.546875 0.046875q-0.8125 0 -1.40625 -0.21875q-0.578125 -0.21875 -0.953125 -0.65625q-0.375 -0.4375 -0.546875 -1.109375q-0.171875 -0.6875 -0.171875 -1.59375l0 -6.171875l-1.46875 0q-0.1875 0 -0.296875 -0.1875q-0.09375 -0.1875 -0.09375 -0.609375q0 -0.21875 0.03125 -0.359375q0.03125 -0.15625 0.078125 -0.25q0.046875 -0.109375 0.109375 -0.140625q0.078125 -0.046875 0.171875 -0.046875l1.46875 0l0 -2.515625q0 -0.078125 0.03125 -0.140625q0.046875 -0.078125 0.15625 -0.125q0.125 -0.0625 0.3125 -0.078125q0.1875 -0.03125 0.46875 -0.03125q0.28125 0 0.46875 0.03125q0.1875 0.015625 0.296875 0.078125q0.109375 0.046875 0.15625 0.125q0.046875 0.0625 0.046875 0.140625l0 2.515625l2.703125 0q0.09375 0 0.15625 0.046875q0.078125 0.03125 0.125 0.140625q0.0625 0.09375 0.078125 0.25q0.03125 0.140625 0.03125 0.359375q0 0.421875 -0.109375 0.609375q-0.109375 0.1875 -0.28125 0.1875l-2.703125 0l0 5.890625q0 1.09375 0.3125 1.65625q0.328125 0.546875 1.15625 0.546875q0.28125 0 0.484375 -0.046875q0.21875 -0.0625 0.375 -0.109375q0.171875 -0.0625 0.28125 -0.109375q0.125 -0.0625 0.21875 -0.0625q0.046875 0 0.09375 0.03125q0.0625 0.03125 0.09375 0.109375q0.03125 0.078125 0.046875 0.21875q0.03125 0.140625 0.03125 0.359375zm11.5546875 -4.96875q0 0.46875 -0.234375 0.65625q-0.21875 0.1875 -0.515625 0.1875l-6.921875 0q0 0.890625 0.171875 1.59375q0.1875 0.703125 0.59375 1.203125q0.40625 0.5 1.0625 0.78125q0.65625 0.265625 1.609375 0.265625q0.75 0 1.328125 -0.125q0.59375 -0.125 1.015625 -0.28125q0.4375 -0.15625 0.703125 -0.265625q0.28125 -0.125 0.421875 -0.125q0.078125 0 0.140625 0.046875q0.078125 0.03125 0.109375 0.109375q0.03125 0.078125 0.046875 0.234375q0.015625 0.140625 0.015625 0.359375q0 0.140625 -0.015625 0.265625q0 0.109375 -0.015625 0.203125q-0.015625 0.078125 -0.0625 0.15625q-0.046875 0.0625 -0.109375 0.125q-0.0625 0.0625 -0.375 0.21875q-0.3125 0.140625 -0.828125 0.28125q-0.5 0.140625 -1.171875 0.25q-0.65625 0.109375 -1.40625 0.109375q-1.296875 0 -2.28125 -0.359375q-0.96875 -0.359375 -1.640625 -1.078125q-0.671875 -0.71875 -1.015625 -1.796875q-0.328125 -1.078125 -0.328125 -2.5q0 -1.359375 0.34375 -2.4375q0.359375 -1.09375 1.015625 -1.84375q0.671875 -0.765625 1.609375 -1.171875q0.9375 -0.40625 2.09375 -0.40625q1.234375 0 2.109375 0.40625q0.875 0.390625 1.4375 1.078125q0.5625 0.671875 0.828125 1.578125q0.265625 0.90625 0.265625 1.9375l0 0.34375zm-1.953125 -0.5625q0.046875 -1.53125 -0.671875 -2.390625q-0.703125 -0.875 -2.09375 -0.875q-0.71875 0 -1.265625 0.28125q-0.53125 0.265625 -0.90625 0.71875q-0.359375 0.4375 -0.5625 1.03125q-0.1875 0.578125 -0.21875 1.234375l5.71875 0z" fill-rule="nonzero"></path><path fill="#434343" d="m31.810085 220.45134q0 0.203125 -0.015625 0.359375q0 0.140625 -0.03125 0.25q-0.03125 0.09375 -0.078125 0.171875q-0.03125 0.0625 -0.1875 0.21875q-0.140625 0.140625 -0.5 0.359375q-0.34375 0.21875 -0.78125 0.390625q-0.4375 0.171875 -0.953125 0.265625q-0.515625 0.109375 -1.078125 0.109375q-1.125 0 -2.015625 -0.375q-0.875 -0.375 -1.46875 -1.09375q-0.59375 -0.71875 -0.90625 -1.765625q-0.296875 -1.046875 -0.296875 -2.421875q0 -1.5625 0.375 -2.671875q0.375 -1.125 1.03125 -1.84375q0.671875 -0.71875 1.5625 -1.0625q0.90625 -0.34375 1.953125 -0.34375q0.5 0 0.96875 0.09375q0.484375 0.09375 0.875 0.25q0.40625 0.15625 0.703125 0.359375q0.3125 0.1875 0.453125 0.328125q0.140625 0.140625 0.1875 0.234375q0.0625 0.078125 0.09375 0.1875q0.046875 0.109375 0.046875 0.25q0.015625 0.140625 0.015625 0.34375q0 0.46875 -0.109375 0.65625q-0.09375 0.171875 -0.25 0.171875q-0.171875 0 -0.40625 -0.1875q-0.234375 -0.203125 -0.59375 -0.4375q-0.34375 -0.234375 -0.84375 -0.421875q-0.484375 -0.203125 -1.171875 -0.203125q-1.390625 0 -2.140625 1.078125q-0.734375 1.078125 -0.734375 3.109375q0 1.015625 0.1875 1.796875q0.1875 0.765625 0.5625 1.28125q0.375 0.515625 0.921875 0.765625q0.546875 0.25 1.25 0.25q0.671875 0 1.171875 -0.203125q0.5 -0.21875 0.875 -0.46875q0.375 -0.25 0.625 -0.453125q0.25 -0.21875 0.390625 -0.21875q0.078125 0 0.140625 0.046875q0.0625 0.046875 0.09375 0.171875q0.046875 0.109375 0.0625 0.28125q0.015625 0.15625 0.015625 0.390625zm10.5078125 1.625q0 0.140625 -0.09375 0.21875q-0.09375 0.0625 -0.265625 0.09375q-0.15625 0.046875 -0.46875 0.046875q-0.296875 0 -0.484375 -0.046875q-0.1875 -0.03125 -0.265625 -0.09375q-0.078125 -0.078125 -0.078125 -0.21875l0 -1.0625q-0.6875 0.75 -1.546875 1.15625q-0.84375 0.40625 -1.796875 0.40625q-0.828125 0 -1.5 -0.21875q-0.671875 -0.21875 -1.15625 -0.625q-0.46875 -0.40625 -0.734375 -1.0q-0.265625 -0.609375 -0.265625 -1.359375q0 -0.890625 0.359375 -1.546875q0.375 -0.65625 1.046875 -1.09375q0.6875 -0.4375 1.671875 -0.65625q0.984375 -0.21875 2.203125 -0.21875l1.453125 0l0 -0.8125q0 -0.609375 -0.125 -1.078125q-0.125 -0.46875 -0.421875 -0.78125q-0.28125 -0.3125 -0.734375 -0.46875q-0.453125 -0.15625 -1.125 -0.15625q-0.71875 0 -1.296875 0.171875q-0.5625 0.171875 -0.984375 0.375q-0.421875 0.203125 -0.71875 0.375q-0.28125 0.171875 -0.421875 0.171875q-0.09375 0 -0.171875 -0.046875q-0.0625 -0.046875 -0.125 -0.140625q-0.046875 -0.09375 -0.078125 -0.234375q-0.015625 -0.15625 -0.015625 -0.328125q0 -0.296875 0.03125 -0.46875q0.046875 -0.171875 0.203125 -0.3125q0.171875 -0.15625 0.546875 -0.359375q0.390625 -0.21875 0.890625 -0.375q0.515625 -0.171875 1.109375 -0.28125q0.59375 -0.125 1.203125 -0.125q1.140625 0 1.9375 0.265625q0.796875 0.25 1.28125 0.75q0.5 0.5 0.71875 1.25q0.21875 0.734375 0.21875 1.71875l0 7.109375zm-1.921875 -4.8125l-1.640625 0q-0.796875 0 -1.390625 0.140625q-0.578125 0.125 -0.96875 0.390625q-0.390625 0.265625 -0.578125 0.640625q-0.171875 0.359375 -0.171875 0.84375q0 0.8125 0.515625 1.296875q0.53125 0.484375 1.46875 0.484375q0.75 0 1.40625 -0.375q0.65625 -0.390625 1.359375 -1.1875l0 -2.234375zm7.4179688 4.796875q0 0.09375 -0.046875 0.15625q-0.046875 0.0625 -0.15625 0.125q-0.109375 0.046875 -0.296875 0.0625q-0.1875 0.03125 -0.484375 0.03125q-0.28125 0 -0.46875 -0.03125q-0.1875 -0.015625 -0.296875 -0.0625q-0.109375 -0.0625 -0.15625 -0.125q-0.03125 -0.0625 -0.03125 -0.15625l0 -15.65625q0 -0.09375 0.03125 -0.15625q0.046875 -0.078125 0.15625 -0.125q0.109375 -0.046875 0.296875 -0.0625q0.1875 -0.03125 0.46875 -0.03125q0.296875 0 0.484375 0.03125q0.1875 0.015625 0.296875 0.0625q0.109375 0.046875 0.15625 0.125q0.046875 0.0625 0.046875 0.15625l0 15.65625zm5.5078125 0q0 0.09375 -0.046875 0.15625q-0.046875 0.0625 -0.15625 0.125q-0.109375 0.046875 -0.296875 0.0625q-0.1875 0.03125 -0.484375 0.03125q-0.28125 0 -0.46875 -0.03125q-0.1875 -0.015625 -0.296875 -0.0625q-0.109375 -0.0625 -0.15625 -0.125q-0.03125 -0.0625 -0.03125 -0.15625l0 -15.65625q0 -0.09375 0.03125 -0.15625q0.046875 -0.078125 0.15625 -0.125q0.109375 -0.046875 0.296875 -0.0625q0.1875 -0.03125 0.46875 -0.03125q0.296875 0 0.484375 0.03125q0.1875 0.015625 0.296875 0.0625q0.109375 0.046875 0.15625 0.125q0.046875 0.0625 0.046875 0.15625l0 15.65625zm13.273434 -5.40625q0 1.359375 -0.296875 2.46875q-0.296875 1.09375 -0.890625 1.875q-0.578125 0.765625 -1.4218712 1.171875q-0.84375 0.40625 -1.921875 0.40625q-0.515625 0 -0.9375 -0.09375q-0.421875 -0.09375 -0.84375 -0.3125q-0.40625 -0.234375 -0.8125 -0.578125q-0.40625 -0.34375 -0.875 -0.8125l0 1.28125q0 0.09375 -0.046875 0.171875q-0.046875 0.0625 -0.15625 0.109375q-0.09375 0.046875 -0.25 0.0625q-0.15625 0.03125 -0.40625 0.03125q-0.234375 0 -0.40625 -0.03125q-0.15625 -0.015625 -0.265625 -0.0625q-0.109375 -0.046875 -0.140625 -0.109375q-0.03125 -0.078125 -0.03125 -0.171875l0 -15.65625q0 -0.09375 0.03125 -0.15625q0.046875 -0.078125 0.15625 -0.125q0.109375 -0.046875 0.296875 -0.0625q0.1875 -0.03125 0.46875 -0.03125q0.296875 0 0.484375 0.03125q0.1875 0.015625 0.296875 0.0625q0.109375 0.046875 0.15625 0.125q0.046875 0.0625 0.046875 0.15625l0 6.3125q0.46875 -0.46875 0.90625 -0.796875q0.4375 -0.328125 0.859375 -0.53125q0.421875 -0.21875 0.84375 -0.3125q0.421875 -0.09375 0.890625 -0.09375q1.140625 0 1.9531212 0.46875q0.828125 0.453125 1.328125 1.21875q0.515625 0.765625 0.75 1.796875q0.234375 1.03125 0.234375 2.1875zm-2.046875 0.21875q0 -0.8125 -0.125 -1.5625q-0.109375 -0.765625 -0.421875 -1.34375q-0.2968712 -0.59375 -0.8124962 -0.953125q-0.5 -0.359375 -1.25 -0.359375q-0.375 0 -0.734375 0.109375q-0.359375 0.09375 -0.734375 0.34375q-0.375 0.25 -0.78125 0.640625q-0.40625 0.375 -0.859375 0.96875l0 4.203125q0.796875 0.96875 1.515625 1.484375q0.734375 0.515625 1.515625 0.515625q0.71875 0 1.234375 -0.34375q0.515625 -0.359375 0.84375 -0.9375q0.3281212 -0.59375 0.4687462 -1.3125q0.140625 -0.71875 0.140625 -1.453125zm12.890625 5.203125q0 0.140625 -0.09375 0.21875q-0.09375 0.0625 -0.265625 0.09375q-0.15625 0.046875 -0.46875 0.046875q-0.296875 0 -0.484375 -0.046875q-0.1875 -0.03125 -0.265625 -0.09375q-0.078125 -0.078125 -0.078125 -0.21875l0 -1.0625q-0.6875 0.75 -1.546875 1.15625q-0.84375 0.40625 -1.796875 0.40625q-0.828125 0 -1.5 -0.21875q-0.671875 -0.21875 -1.15625 -0.625q-0.46875 -0.40625 -0.734375 -1.0q-0.265625 -0.609375 -0.265625 -1.359375q0 -0.890625 0.359375 -1.546875q0.375 -0.65625 1.046875 -1.09375q0.6875 -0.4375 1.671875 -0.65625q0.984375 -0.21875 2.203125 -0.21875l1.453125 0l0 -0.8125q0 -0.609375 -0.125 -1.078125q-0.125 -0.46875 -0.421875 -0.78125q-0.28125 -0.3125 -0.734375 -0.46875q-0.453125 -0.15625 -1.125 -0.15625q-0.71875 0 -1.296875 0.171875q-0.5625 0.171875 -0.984375 0.375q-0.421875 0.203125 -0.71875 0.375q-0.28125 0.171875 -0.421875 0.171875q-0.09375 0 -0.171875 -0.046875q-0.0625 -0.046875 -0.125 -0.140625q-0.046875 -0.09375 -0.078125 -0.234375q-0.015625 -0.15625 -0.015625 -0.328125q0 -0.296875 0.03125 -0.46875q0.046875 -0.171875 0.203125 -0.3125q0.171875 -0.15625 0.546875 -0.359375q0.390625 -0.21875 0.890625 -0.375q0.515625 -0.171875 1.109375 -0.28125q0.59375 -0.125 1.203125 -0.125q1.140625 0 1.9375 0.265625q0.796875 0.25 1.28125 0.75q0.5 0.5 0.71875 1.25q0.21875 0.734375 0.21875 1.71875l0 7.109375zm-1.921875 -4.8125l-1.640625 0q-0.796875 0 -1.390625 0.140625q-0.578125 0.125 -0.96875 0.390625q-0.390625 0.265625 -0.578125 0.640625q-0.171875 0.359375 -0.171875 0.84375q0 0.8125 0.515625 1.296875q0.53125 0.484375 1.46875 0.484375q0.75 0 1.40625 -0.375q0.65625 -0.390625 1.359375 -1.1875l0 -2.234375zm13.058594 3.1875q0 0.203125 -0.015625 0.359375q0 0.140625 -0.03125 0.25q-0.03125 0.09375 -0.078125 0.171875q-0.03125 0.0625 -0.1875 0.21875q-0.140625 0.140625 -0.5 0.359375q-0.34375 0.21875 -0.78125 0.390625q-0.4375 0.171875 -0.953125 0.265625q-0.515625 0.109375 -1.078125 0.109375q-1.125 0 -2.015625 -0.375q-0.875 -0.375 -1.46875 -1.09375q-0.59375 -0.71875 -0.90625 -1.765625q-0.296875 -1.046875 -0.296875 -2.421875q0 -1.5625 0.375 -2.671875q0.375 -1.125 1.03125 -1.84375q0.671875 -0.71875 1.5625 -1.0625q0.90625 -0.34375 1.953125 -0.34375q0.5 0 0.96875 0.09375q0.484375 0.09375 0.875 0.25q0.40625 0.15625 0.703125 0.359375q0.3125 0.1875 0.453125 0.328125q0.140625 0.140625 0.1875 0.234375q0.0625 0.078125 0.09375 0.1875q0.046875 0.109375 0.046875 0.25q0.015625 0.140625 0.015625 0.34375q0 0.46875 -0.109375 0.65625q-0.09375 0.171875 -0.25 0.171875q-0.171875 0 -0.40625 -0.1875q-0.234375 -0.203125 -0.59375 -0.4375q-0.34375 -0.234375 -0.84375 -0.421875q-0.484375 -0.203125 -1.171875 -0.203125q-1.390625 0 -2.140625 1.078125q-0.734375 1.078125 -0.734375 3.109375q0 1.015625 0.1875 1.796875q0.1875 0.765625 0.5625 1.28125q0.375 0.515625 0.921875 0.765625q0.546875 0.25 1.25 0.25q0.671875 0 1.171875 -0.203125q0.5 -0.21875 0.875 -0.46875q0.375 -0.25 0.625 -0.453125q0.25 -0.21875 0.390625 -0.21875q0.078125 0 0.140625 0.046875q0.0625 0.046875 0.09375 0.171875q0.046875 0.109375 0.0625 0.28125q0.015625 0.15625 0.015625 0.390625zm11.2265625 1.59375q0 0.09375 -0.046875 0.171875q-0.046875 0.0625 -0.15625 0.125q-0.109375 0.046875 -0.3125 0.0625q-0.203125 0.03125 -0.5 0.03125q-0.3125 0 -0.53125 -0.03125q-0.203125 -0.015625 -0.34375 -0.046875q-0.140625 -0.046875 -0.234375 -0.125q-0.078125 -0.078125 -0.140625 -0.1875l-4.453125 -5.828125l0 5.84375q0 0.09375 -0.046875 0.15625q-0.046875 0.0625 -0.15625 0.125q-0.109375 0.046875 -0.296875 0.0625q-0.1875 0.03125 -0.484375 0.03125q-0.28125 0 -0.46875 -0.03125q-0.1875 -0.015625 -0.296875 -0.0625q-0.109375 -0.0625 -0.15625 -0.125q-0.03125 -0.0625 -0.03125 -0.15625l0 -15.65625q0 -0.09375 0.03125 -0.15625q0.046875 -0.078125 0.15625 -0.125q0.109375 -0.046875 0.296875 -0.0625q0.1875 -0.03125 0.46875 -0.03125q0.296875 0 0.484375 0.03125q0.1875 0.015625 0.296875 0.0625q0.109375 0.046875 0.15625 0.125q0.046875 0.0625 0.046875 0.15625l0 9.546875l3.984375 -4.390625q0.09375 -0.109375 0.1875 -0.1875q0.109375 -0.078125 0.25 -0.125q0.15625 -0.0625 0.34375 -0.078125q0.203125 -0.015625 0.484375 -0.015625q0.296875 0 0.5 0.015625q0.203125 0.015625 0.3125 0.0625q0.125 0.03125 0.171875 0.109375q0.0625 0.0625 0.0625 0.15625q0 0.140625 -0.078125 0.28125q-0.078125 0.140625 -0.25 0.328125l-3.8125 3.828125l4.28125 5.5625q0.15625 0.203125 0.21875 0.328125q0.0625 0.125 0.0625 0.21875z" fill-rule="nonzero"></path><path fill="#000000" fill-opacity="0.0" d="m143.33145 92.56693l115.55905 0l0 33.41732l-115.55905 0z" fill-rule="nonzero"></path><path fill="#38761d" d="m177.57347 112.41434q-0.078125 0.59375 -0.09375 0.984375q0 0.390625 0.046875 0.609375q0.0625 0.21875 0.1875 0.3125q0.140625 0.078125 0.328125 0.078125q0.265625 0 0.5 -0.265625q0.234375 -0.28125 0.40625 -0.84375q0.1875 -0.578125 0.296875 -1.4375q0.109375 -0.875 0.109375 -2.078125q0 -1.328125 -0.171875 -2.375q-0.171875 -1.0625 -0.53125 -1.78125q-0.359375 -0.734375 -0.9375 -1.125q-0.578125 -0.390625 -1.40625 -0.390625q-0.640625 0 -1.234375 0.328125q-0.578125 0.3125 -1.09375 0.90625q-0.5 0.578125 -0.921875 1.390625q-0.40625 0.796875 -0.703125 1.78125q-0.28125 0.984375 -0.453125 2.125q-0.15625 1.125 -0.15625 2.359375q0 2.984375 0.890625 4.453125q0.90625 1.46875 2.546875 1.46875q0.828125 0 1.53125 -0.1875q0.71875 -0.1875 1.5 -0.578125l0 1.203125q-0.765625 0.34375 -1.53125 0.515625q-0.765625 0.1875 -1.59375 0.1875q-2.359375 0 -3.5 -1.78125q-1.140625 -1.765625 -1.15625 -5.265625q-0.015625 -1.40625 0.171875 -2.6875q0.203125 -1.28125 0.5625 -2.390625q0.375 -1.125 0.890625 -2.03125q0.53125 -0.921875 1.1875 -1.5625q0.671875 -0.640625 1.453125 -1.0q0.78125 -0.359375 1.65625 -0.359375q1.109375 0 1.921875 0.453125q0.8125 0.4375 1.34375 1.296875q0.53125 0.84375 0.78125 2.078125q0.25 1.234375 0.25 2.8125q0 1.59375 -0.203125 2.734375q-0.203125 1.140625 -0.5625 1.859375q-0.359375 0.71875 -0.875 1.0625q-0.515625 0.34375 -1.140625 0.34375q-0.734375 0 -1.09375 -0.375q-0.34375 -0.375 -0.34375 -1.0q-0.34375 0.703125 -0.765625 1.046875q-0.40625 0.328125 -0.984375 0.328125q-0.859375 0 -1.296875 -0.65625q-0.4375 -0.65625 -0.4375 -2.0625q0 -0.515625 0.0625 -1.09375q0.0625 -0.59375 0.203125 -1.171875q0.140625 -0.59375 0.375 -1.140625q0.234375 -0.546875 0.5625 -0.953125q0.34375 -0.421875 0.796875 -0.671875q0.46875 -0.25 1.0625 -0.25q0.359375 0 0.65625 0.09375q0.3125 0.078125 0.453125 0.15625l1.203125 -0.28125l-0.75 4.828125zm-0.9375 -3.3125q-0.09375 -0.109375 -0.265625 -0.1875q-0.171875 -0.09375 -0.421875 -0.09375q-0.28125 0 -0.515625 0.203125q-0.21875 0.1875 -0.390625 0.515625q-0.171875 0.3125 -0.28125 0.734375q-0.109375 0.40625 -0.203125 0.84375q-0.078125 0.4375 -0.109375 0.859375q-0.03125 0.421875 -0.03125 0.765625q0 0.890625 0.109375 1.28125q0.125 0.375 0.4375 0.375q0.109375 0 0.21875 -0.046875q0.109375 -0.046875 0.234375 -0.171875q0.125 -0.140625 0.265625 -0.375q0.15625 -0.25 0.328125 -0.640625l0.625 -4.0625zm8.351044 -3.640625l-2.796875 0l0 -1.390625l7.25 0l0 1.390625l-2.78125 0l0 9.328125l2.78125 0l0 1.40625l-7.25 0l0 -1.40625l2.796875 0l0 -9.328125zm7.3510437 1.421875l1.4375 0l0.0625 1.5q0.40625 -0.484375 0.78125 -0.796875q0.390625 -0.328125 0.75 -0.515625q0.375 -0.203125 0.75 -0.28125q0.390625 -0.078125 0.796875 -0.078125q1.4375 0 2.171875 0.859375q0.734375 0.84375 0.734375 2.546875l0 6.078125l-1.609375 0l0 -5.953125q0 -1.09375 -0.40625 -1.609375q-0.40625 -0.53125 -1.21875 -0.53125q-0.296875 0 -0.578125 0.09375q-0.28125 0.09375 -0.59375 0.3125q-0.296875 0.203125 -0.65625 0.578125q-0.359375 0.375 -0.8125 0.9375l0 6.171875l-1.609375 0l0 -9.3125zm18.210419 4.484375q0 1.25 -0.34375 2.1875q-0.34375 0.921875 -0.953125 1.53125q-0.609375 0.609375 -1.453125 0.921875q-0.828125 0.296875 -1.8125 0.296875q-0.4375 0 -0.890625 -0.046875q-0.4375 -0.046875 -0.890625 -0.15625l0 3.890625l-1.609375 0l0 -13.109375l1.4375 0l0.109375 1.5625q0.6875 -0.96875 1.46875 -1.34375q0.796875 -0.390625 1.71875 -0.390625q0.796875 0 1.390625 0.34375q0.609375 0.328125 1.015625 0.9375q0.40625 0.609375 0.609375 1.46875q0.203125 0.859375 0.203125 1.90625zm-1.640625 0.078125q0 -0.734375 -0.109375 -1.34375q-0.109375 -0.609375 -0.34375 -1.046875q-0.234375 -0.4375 -0.59375 -0.6875q-0.359375 -0.25 -0.859375 -0.25q-0.3125 0 -0.625 0.109375q-0.3125 0.09375 -0.65625 0.328125q-0.328125 0.21875 -0.703125 0.59375q-0.375 0.375 -0.8125 0.9375l0 4.515625q0.453125 0.1875 0.9375 0.296875q0.5 0.09375 0.96875 0.09375q1.3125 0 2.046875 -0.875q0.75 -0.890625 0.75 -2.671875zm11.429169 4.75l-1.4375 0l-0.0625 -1.5q-0.421875 0.484375 -0.796875 0.8125q-0.375 0.3125 -0.75 0.515625q-0.359375 0.1875 -0.734375 0.265625q-0.375 0.078125 -0.796875 0.078125q-1.4375 0 -2.171875 -0.84375q-0.734375 -0.84375 -0.734375 -2.5625l0 -6.078125l1.609375 0l0 5.953125q0 2.140625 1.625 2.140625q0.296875 0 0.578125 -0.078125q0.28125 -0.09375 0.59375 -0.3125q0.3125 -0.21875 0.65625 -0.578125q0.359375 -0.375 0.8125 -0.953125l0 -6.171875l1.609375 0l0 9.3125zm10.272919 -0.125q-0.546875 0.140625 -1.125 0.1875q-0.578125 0.0625 -1.1875 0.0625q-1.75 0 -2.625 -0.78125q-0.859375 -0.796875 -0.859375 -2.4375l0 -4.859375l-2.609375 0l0 -1.359375l2.609375 0l0 -2.5625l1.625 -0.421875l0 2.984375l4.171875 0l0 1.359375l-4.171875 0l0 4.71875q0 1.0 0.53125 1.5q0.53125 0.5 1.5625 0.5q0.453125 0 0.984375 -0.0625q0.53125 -0.078125 1.09375 -0.21875l0 1.390625z" fill-rule="nonzero"></path><path fill="#000000" fill-opacity="0.0" d="m143.33145 164.56693l115.55905 0l0 33.417328l-115.55905 0z" fill-rule="nonzero"></path><path fill="#38761d" d="m172.44482 184.41434q-0.078125 0.59375 -0.09375 0.984375q0 0.390625 0.046875 0.609375q0.0625 0.21875 0.1875 0.3125q0.140625 0.078125 0.328125 0.078125q0.265625 0 0.5 -0.265625q0.234375 -0.28125 0.40625 -0.84375q0.1875 -0.578125 0.296875 -1.4375q0.109375 -0.875 0.109375 -2.078125q0 -1.328125 -0.171875 -2.375q-0.171875 -1.0625 -0.53125 -1.78125q-0.359375 -0.734375 -0.9375 -1.125q-0.578125 -0.390625 -1.40625 -0.390625q-0.640625 0 -1.234375 0.328125q-0.578125 0.3125 -1.09375 0.90625q-0.5 0.578125 -0.921875 1.390625q-0.40625 0.796875 -0.703125 1.78125q-0.28125 0.984375 -0.453125 2.125q-0.15625 1.125 -0.15625 2.359375q0 2.984375 0.890625 4.453125q0.90625 1.46875 2.546875 1.46875q0.828125 0 1.53125 -0.1875q0.71875 -0.1875 1.5 -0.578125l0 1.203125q-0.765625 0.34375 -1.53125 0.515625q-0.765625 0.1875 -1.59375 0.1875q-2.359375 0 -3.5 -1.78125q-1.140625 -1.765625 -1.15625 -5.265625q-0.015625 -1.40625 0.171875 -2.6875q0.203125 -1.28125 0.5625 -2.390625q0.375 -1.125 0.890625 -2.03125q0.53125 -0.921875 1.1875 -1.5625q0.671875 -0.640625 1.453125 -1.0q0.78125 -0.359375 1.65625 -0.359375q1.109375 0 1.921875 0.453125q0.8125 0.4375 1.34375 1.296875q0.53125 0.84375 0.78125 2.078125q0.25 1.234375 0.25 2.8125q0 1.59375 -0.203125 2.734375q-0.203125 1.140625 -0.5625 1.859375q-0.359375 0.71875 -0.875 1.0625q-0.515625 0.34375 -1.140625 0.34375q-0.734375 0 -1.09375 -0.375q-0.34375 -0.375 -0.34375 -1.0q-0.34375 0.703125 -0.765625 1.046875q-0.40625 0.328125 -0.984375 0.328125q-0.859375 0 -1.296875 -0.65625q-0.4375 -0.65625 -0.4375 -2.0625q0 -0.515625 0.0625 -1.09375q0.0625 -0.59375 0.203125 -1.171875q0.140625 -0.59375 0.375 -1.140625q0.234375 -0.546875 0.5625 -0.953125q0.34375 -0.421875 0.796875 -0.671875q0.46875 -0.25 1.0625 -0.25q0.359375 0 0.65625 0.09375q0.3125 0.078125 0.453125 0.15625l1.203125 -0.28125l-0.75 4.828125zm-0.9375 -3.3125q-0.09375 -0.109375 -0.265625 -0.1875q-0.171875 -0.09375 -0.421875 -0.09375q-0.28125 0 -0.515625 0.203125q-0.21875 0.1875 -0.390625 0.515625q-0.171875 0.3125 -0.28125 0.734375q-0.109375 0.40625 -0.203125 0.84375q-0.078125 0.4375 -0.109375 0.859375q-0.03125 0.421875 -0.03125 0.765625q0 0.890625 0.109375 1.28125q0.125 0.375 0.4375 0.375q0.109375 0 0.21875 -0.046875q0.109375 -0.046875 0.234375 -0.171875q0.125 -0.140625 0.265625 -0.375q0.15625 -0.25 0.328125 -0.640625l0.625 -4.0625zm13.897919 0.953125q0 1.625 -0.390625 2.8125q-0.375 1.1875 -1.03125 1.96875q-0.65625 0.78125 -1.53125 1.15625q-0.875 0.375 -1.859375 0.375q-1.15625 0 -2.03125 -0.421875q-0.859375 -0.421875 -1.4375 -1.21875q-0.578125 -0.796875 -0.859375 -1.9375q-0.265625 -1.15625 -0.265625 -2.59375q0 -1.609375 0.375 -2.796875q0.390625 -1.1875 1.03125 -1.96875q0.65625 -0.78125 1.53125 -1.15625q0.875 -0.375 1.84375 -0.375q1.171875 0 2.03125 0.4375q0.875 0.421875 1.453125 1.21875q0.578125 0.78125 0.859375 1.921875q0.28125 1.140625 0.28125 2.578125zm-1.71875 0.125q0 -1.078125 -0.171875 -1.953125q-0.15625 -0.890625 -0.515625 -1.53125q-0.359375 -0.640625 -0.9375 -0.984375q-0.5625 -0.359375 -1.375 -0.359375q-0.78125 0 -1.34375 0.375q-0.546875 0.375 -0.921875 1.03125q-0.359375 0.640625 -0.53125 1.515625q-0.171875 0.859375 -0.171875 1.828125q0 1.078125 0.15625 1.96875q0.171875 0.875 0.53125 1.515625q0.359375 0.640625 0.921875 1.0q0.5625 0.34375 1.359375 0.34375q0.78125 0 1.34375 -0.375q0.578125 -0.375 0.9375 -1.015625q0.375 -0.65625 0.546875 -1.515625q0.171875 -0.859375 0.171875 -1.84375zm11.007294 6.015625l-1.4375 0l-0.0625 -1.5q-0.421875 0.484375 -0.796875 0.8125q-0.375 0.3125 -0.75 0.515625q-0.359375 0.1875 -0.734375 0.265625q-0.375 0.078125 -0.796875 0.078125q-1.4375 0 -2.171875 -0.84375q-0.734375 -0.84375 -0.734375 -2.5625l0 -6.078125l1.609375 0l0 5.953125q0 2.140625 1.625 2.140625q0.296875 0 0.578125 -0.078125q0.28125 -0.09375 0.59375 -0.3125q0.3125 -0.21875 0.65625 -0.578125q0.359375 -0.375 0.8125 -0.953125l0 -6.171875l1.609375 0l0 9.3125zm10.272919 -0.125q-0.546875 0.140625 -1.125 0.1875q-0.578125 0.0625 -1.1875 0.0625q-1.75 0 -2.625 -0.78125q-0.859375 -0.796875 -0.859375 -2.4375l0 -4.859375l-2.609375 0l0 -1.359375l2.609375 0l0 -2.5625l1.625 -0.421875l0 2.984375l4.171875 0l0 1.359375l-4.171875 0l0 4.71875q0 1.0 0.53125 1.5q0.53125 0.5 1.5625 0.5q0.453125 0 0.984375 -0.0625q0.53125 -0.078125 1.09375 -0.21875l0 1.390625zm10.710419 -4.703125q0 1.25 -0.34375 2.1875q-0.34375 0.921875 -0.953125 1.53125q-0.609375 0.609375 -1.453125 0.921875q-0.828125 0.296875 -1.8125 0.296875q-0.4375 0 -0.890625 -0.046875q-0.4375 -0.046875 -0.890625 -0.15625l0 3.890625l-1.609375 0l0 -13.109375l1.4375 0l0.109375 1.5625q0.6875 -0.96875 1.46875 -1.34375q0.796875 -0.390625 1.71875 -0.390625q0.796875 0 1.390625 0.34375q0.609375 0.328125 1.015625 0.9375q0.40625 0.609375 0.609375 1.46875q0.203125 0.859375 0.203125 1.90625zm-1.640625 0.078125q0 -0.734375 -0.109375 -1.34375q-0.109375 -0.609375 -0.34375 -1.046875q-0.234375 -0.4375 -0.59375 -0.6875q-0.359375 -0.25 -0.859375 -0.25q-0.3125 0 -0.625 0.109375q-0.3125 0.09375 -0.65625 0.328125q-0.328125 0.21875 -0.703125 0.59375q-0.375 0.375 -0.8125 0.9375l0 4.515625q0.453125 0.1875 0.9375 0.296875q0.5 0.09375 0.96875 0.09375q1.3125 0 2.046875 -0.875q0.75 -0.890625 0.75 -2.671875zm11.429169 4.75l-1.4375 0l-0.0625 -1.5q-0.421875 0.484375 -0.796875 0.8125q-0.375 0.3125 -0.75 0.515625q-0.359375 0.1875 -0.734375 0.265625q-0.375 0.078125 -0.796875 0.078125q-1.4375 0 -2.171875 -0.84375q-0.734375 -0.84375 -0.734375 -2.5625l0 -6.078125l1.609375 0l0 5.953125q0 2.140625 1.625 2.140625q0.296875 0 0.578125 -0.078125q0.28125 -0.09375 0.59375 -0.3125q0.3125 -0.21875 0.65625 -0.578125q0.359375 -0.375 0.8125 -0.953125l0 -6.171875l1.609375 0l0 9.3125zm10.272919 -0.125q-0.546875 0.140625 -1.125 0.1875q-0.578125 0.0625 -1.1875 0.0625q-1.75 0 -2.625 -0.78125q-0.859375 -0.796875 -0.859375 -2.4375l0 -4.859375l-2.609375 0l0 -1.359375l2.609375 0l0 -2.5625l1.625 -0.421875l0 2.984375l4.171875 0l0 1.359375l-4.171875 0l0 4.71875q0 1.0 0.53125 1.5q0.53125 0.5 1.5625 0.5q0.453125 0 0.984375 -0.0625q0.53125 -0.078125 1.09375 -0.21875l0 1.390625z" fill-rule="nonzero"></path><path fill="#000000" fill-opacity="0.0" d="m315.8275 254.65778l115.55905 0l0 33.417328l-115.55905 0z" fill-rule="nonzero"></path><path fill="#434343" d="m350.70663 259.67206q0 1.390625 -0.296875 2.5q-0.296875 1.09375 -0.890625 1.859375q-0.578125 0.765625 -1.4375 1.1875q-0.84375 0.40625 -1.953125 0.40625q-0.46875 0 -0.875 -0.09375q-0.390625 -0.09375 -0.765625 -0.28125q-0.375 -0.203125 -0.75 -0.5q-0.375 -0.3125 -0.796875 -0.734375l0 5.28125q0 0.09375 -0.046875 0.15625q-0.046875 0.078125 -0.15625 0.125q-0.109375 0.046875 -0.296875 0.0625q-0.1875 0.03125 -0.484375 0.03125q-0.28125 0 -0.46875 -0.03125q-0.1875 -0.015625 -0.296875 -0.0625q-0.109375 -0.046875 -0.15625 -0.125q-0.03125 -0.0625 -0.03125 -0.15625l0 -14.734375q0 -0.109375 0.03125 -0.171875q0.03125 -0.0625 0.140625 -0.109375q0.109375 -0.046875 0.265625 -0.0625q0.171875 -0.015625 0.40625 -0.015625q0.25 0 0.40625 0.015625q0.15625 0.015625 0.25 0.0625q0.109375 0.046875 0.15625 0.109375q0.046875 0.0625 0.046875 0.171875l0 1.421875q0.46875 -0.5 0.90625 -0.859375q0.453125 -0.359375 0.90625 -0.59375q0.453125 -0.25 0.921875 -0.375q0.484375 -0.125 1.015625 -0.125q1.140625 0 1.953125 0.453125q0.8125 0.4375 1.3125 1.21875q0.515625 0.765625 0.75 1.796875q0.234375 1.03125 0.234375 2.171875zm-2.046875 0.21875q0 -0.796875 -0.125 -1.546875q-0.109375 -0.765625 -0.421875 -1.34375q-0.296875 -0.59375 -0.796875 -0.9375q-0.5 -0.359375 -1.25 -0.359375q-0.375 0 -0.75 0.109375q-0.359375 0.109375 -0.734375 0.359375q-0.375 0.234375 -0.78125 0.625q-0.40625 0.390625 -0.859375 0.96875l0 4.1875q0.796875 0.984375 1.5 1.5q0.71875 0.515625 1.5 0.515625q0.734375 0 1.25 -0.34375q0.53125 -0.359375 0.84375 -0.9375q0.328125 -0.59375 0.46875 -1.3125q0.15625 -0.734375 0.15625 -1.484375zm11.109375 -4.640625q0 0.265625 -0.015625 0.4375q0 0.171875 -0.046875 0.28125q-0.03125 0.09375 -0.078125 0.15625q-0.046875 0.046875 -0.140625 0.046875q-0.09375 0 -0.234375 -0.046875q-0.140625 -0.0625 -0.3125 -0.109375q-0.15625 -0.0625 -0.375 -0.109375q-0.203125 -0.046875 -0.453125 -0.046875q-0.296875 0 -0.578125 0.125q-0.28125 0.109375 -0.59375 0.390625q-0.3125 0.265625 -0.65625 0.71875q-0.328125 0.4375 -0.734375 1.078125l0 6.9375q0 0.09375 -0.046875 0.15625q-0.046875 0.0625 -0.15625 0.125q-0.109375 0.046875 -0.296875 0.0625q-0.1875 0.03125 -0.484375 0.03125q-0.28125 0 -0.46875 -0.03125q-0.1875 -0.015625 -0.296875 -0.0625q-0.109375 -0.0625 -0.15625 -0.125q-0.03125 -0.0625 -0.03125 -0.15625l0 -10.546875q0 -0.09375 0.03125 -0.15625q0.03125 -0.0625 0.140625 -0.109375q0.109375 -0.0625 0.265625 -0.078125q0.171875 -0.015625 0.4375 -0.015625q0.265625 0 0.421875 0.015625q0.171875 0.015625 0.265625 0.078125q0.09375 0.046875 0.140625 0.109375q0.046875 0.0625 0.046875 0.15625l0 1.53125q0.421875 -0.625 0.796875 -1.015625q0.390625 -0.40625 0.734375 -0.625q0.34375 -0.234375 0.671875 -0.328125q0.328125 -0.09375 0.671875 -0.09375q0.15625 0 0.34375 0.03125q0.203125 0.015625 0.40625 0.0625q0.21875 0.046875 0.375 0.109375q0.171875 0.046875 0.234375 0.109375q0.078125 0.0625 0.09375 0.109375q0.03125 0.046875 0.046875 0.140625q0.03125 0.078125 0.03125 0.234375q0 0.15625 0 0.421875zm4.1484375 9.859375q0 0.09375 -0.046875 0.15625q-0.046875 0.0625 -0.15625 0.125q-0.109375 0.046875 -0.296875 0.0625q-0.1875 0.03125 -0.484375 0.03125q-0.28125 0 -0.46875 -0.03125q-0.1875 -0.015625 -0.296875 -0.0625q-0.109375 -0.0625 -0.15625 -0.125q-0.03125 -0.0625 -0.03125 -0.15625l0 -10.546875q0 -0.078125 0.03125 -0.140625q0.046875 -0.078125 0.15625 -0.125q0.109375 -0.046875 0.296875 -0.0625q0.1875 -0.03125 0.46875 -0.03125q0.296875 0 0.484375 0.03125q0.1875 0.015625 0.296875 0.0625q0.109375 0.046875 0.15625 0.125q0.046875 0.0625 0.046875 0.140625l0 10.546875zm0.21875 -14.109375q0 0.6875 -0.265625 0.9375q-0.25 0.234375 -0.9375 0.234375q-0.6875 0 -0.9375 -0.234375q-0.25 -0.25 -0.25 -0.90625q0 -0.6875 0.25 -0.921875q0.265625 -0.25 0.953125 -0.25q0.6875 0 0.9375 0.234375q0.25 0.234375 0.25 0.90625zm11.9921875 3.546875q0 0.046875 0 0.09375q0 0.046875 -0.015625 0.109375q-0.015625 0.0625 -0.03125 0.140625q-0.015625 0.0625 -0.046875 0.140625l-3.59375 10.015625q-0.046875 0.140625 -0.125 0.21875q-0.078125 0.078125 -0.234375 0.125q-0.140625 0.046875 -0.375 0.0625q-0.234375 0.03125 -0.59375 0.03125q-0.34375 0 -0.578125 -0.03125q-0.234375 -0.015625 -0.390625 -0.0625q-0.140625 -0.0625 -0.21875 -0.140625q-0.078125 -0.078125 -0.125 -0.203125l-3.59375 -10.015625q-0.046875 -0.140625 -0.078125 -0.234375q-0.03125 -0.109375 -0.03125 -0.15625q0 -0.0625 0 -0.09375q0 -0.09375 0.046875 -0.15625q0.046875 -0.078125 0.15625 -0.125q0.109375 -0.046875 0.28125 -0.046875q0.1875 -0.015625 0.453125 -0.015625q0.34375 0 0.546875 0.015625q0.203125 0.015625 0.3125 0.0625q0.125 0.046875 0.171875 0.125q0.046875 0.0625 0.09375 0.171875l2.984375 8.6875l0.046875 0.140625l0.03125 -0.140625l2.9375 -8.6875q0.03125 -0.109375 0.078125 -0.171875q0.0625 -0.078125 0.171875 -0.125q0.125 -0.046875 0.3125 -0.0625q0.1875 -0.015625 0.515625 -0.015625q0.265625 0 0.4375 0.015625q0.171875 0 0.265625 0.046875q0.109375 0.046875 0.140625 0.125q0.046875 0.0625 0.046875 0.15625zm10.136719 10.578125q0 0.140625 -0.09375 0.21875q-0.09375 0.0625 -0.265625 0.09375q-0.15625 0.046875 -0.46875 0.046875q-0.296875 0 -0.484375 -0.046875q-0.1875 -0.03125 -0.265625 -0.09375q-0.078125 -0.078125 -0.078125 -0.21875l0 -1.0625q-0.6875 0.75 -1.546875 1.15625q-0.84375 0.40625 -1.796875 0.40625q-0.828125 0 -1.5 -0.21875q-0.671875 -0.21875 -1.15625 -0.625q-0.46875 -0.40625 -0.734375 -1.0q-0.265625 -0.609375 -0.265625 -1.359375q0 -0.890625 0.359375 -1.546875q0.375 -0.65625 1.046875 -1.09375q0.6875 -0.4375 1.671875 -0.65625q0.984375 -0.21875 2.203125 -0.21875l1.453125 0l0 -0.8125q0 -0.609375 -0.125 -1.078125q-0.125 -0.46875 -0.421875 -0.78125q-0.28125 -0.3125 -0.734375 -0.46875q-0.453125 -0.15625 -1.125 -0.15625q-0.71875 0 -1.296875 0.171875q-0.5625 0.171875 -0.984375 0.375q-0.421875 0.203125 -0.71875 0.375q-0.28125 0.171875 -0.421875 0.171875q-0.09375 0 -0.171875 -0.046875q-0.0625 -0.046875 -0.125 -0.140625q-0.046875 -0.09375 -0.078125 -0.234375q-0.015625 -0.15625 -0.015625 -0.328125q0 -0.296875 0.03125 -0.46875q0.046875 -0.171875 0.203125 -0.3125q0.171875 -0.15625 0.546875 -0.359375q0.390625 -0.21875 0.890625 -0.375q0.515625 -0.171875 1.109375 -0.28125q0.59375 -0.125 1.203125 -0.125q1.140625 0 1.9375 0.265625q0.796875 0.25 1.28125 0.75q0.5 0.5 0.71875 1.25q0.21875 0.734375 0.21875 1.71875l0 7.109375zm-1.921875 -4.8125l-1.640625 0q-0.796875 0 -1.390625 0.140625q-0.578125 0.125 -0.96875 0.390625q-0.390625 0.265625 -0.578125 0.640625q-0.171875 0.359375 -0.171875 0.84375q0 0.8125 0.515625 1.296875q0.53125 0.484375 1.46875 0.484375q0.75 0 1.40625 -0.375q0.65625 -0.390625 1.359375 -1.1875l0 -2.234375zm10.964844 4.03125q0 0.328125 -0.046875 0.53125q-0.046875 0.203125 -0.140625 0.296875q-0.09375 0.09375 -0.28125 0.1875q-0.1875 0.078125 -0.4375 0.125q-0.234375 0.046875 -0.5 0.078125q-0.265625 0.046875 -0.546875 0.046875q-0.8125 0 -1.40625 -0.21875q-0.578125 -0.21875 -0.953125 -0.65625q-0.375 -0.4375 -0.546875 -1.109375q-0.171875 -0.6875 -0.171875 -1.59375l0 -6.171875l-1.46875 0q-0.1875 0 -0.296875 -0.1875q-0.09375 -0.1875 -0.09375 -0.609375q0 -0.21875 0.03125 -0.359375q0.03125 -0.15625 0.078125 -0.25q0.046875 -0.109375 0.109375 -0.140625q0.078125 -0.046875 0.171875 -0.046875l1.46875 0l0 -2.515625q0 -0.078125 0.03125 -0.140625q0.046875 -0.078125 0.15625 -0.125q0.125 -0.0625 0.3125 -0.078125q0.1875 -0.03125 0.46875 -0.03125q0.28125 0 0.46875 0.03125q0.1875 0.015625 0.296875 0.078125q0.109375 0.046875 0.15625 0.125q0.046875 0.0625 0.046875 0.140625l0 2.515625l2.703125 0q0.09375 0 0.15625 0.046875q0.078125 0.03125 0.125 0.140625q0.0625 0.09375 0.078125 0.25q0.03125 0.140625 0.03125 0.359375q0 0.421875 -0.109375 0.609375q-0.109375 0.1875 -0.28125 0.1875l-2.703125 0l0 5.890625q0 1.09375 0.3125 1.65625q0.328125 0.546875 1.15625 0.546875q0.28125 0 0.484375 -0.046875q0.21875 -0.0625 0.375 -0.109375q0.171875 -0.0625 0.28125 -0.109375q0.125 -0.0625 0.21875 -0.0625q0.046875 0 0.09375 0.03125q0.0625 0.03125 0.09375 0.109375q0.03125 0.078125 0.046875 0.21875q0.03125 0.140625 0.03125 0.359375zm11.5546875 -4.96875q0 0.46875 -0.234375 0.65625q-0.21875 0.1875 -0.515625 0.1875l-6.921875 0q0 0.890625 0.171875 1.59375q0.1875 0.703125 0.59375 1.203125q0.40625 0.5 1.0625 0.78125q0.65625 0.265625 1.609375 0.265625q0.75 0 1.328125 -0.125q0.59375 -0.125 1.015625 -0.28125q0.4375 -0.15625 0.703125 -0.265625q0.28125 -0.125 0.421875 -0.125q0.078125 0 0.140625 0.046875q0.078125 0.03125 0.109375 0.109375q0.03125 0.078125 0.046875 0.234375q0.015625 0.140625 0.015625 0.359375q0 0.140625 -0.015625 0.265625q0 0.109375 -0.015625 0.203125q-0.015625 0.078125 -0.0625 0.15625q-0.046875 0.0625 -0.109375 0.125q-0.0625 0.0625 -0.375 0.21875q-0.3125 0.140625 -0.828125 0.28125q-0.5 0.140625 -1.171875 0.25q-0.65625 0.109375 -1.40625 0.109375q-1.296875 0 -2.28125 -0.359375q-0.96875 -0.359375 -1.640625 -1.078125q-0.671875 -0.71875 -1.015625 -1.796875q-0.328125 -1.078125 -0.328125 -2.5q0 -1.359375 0.34375 -2.4375q0.359375 -1.09375 1.015625 -1.84375q0.671875 -0.765625 1.609375 -1.171875q0.9375 -0.40625 2.09375 -0.40625q1.234375 0 2.109375 0.40625q0.875 0.390625 1.4375 1.078125q0.5625 0.671875 0.828125 1.578125q0.265625 0.90625 0.265625 1.9375l0 0.34375zm-1.953125 -0.5625q0.046875 -1.53125 -0.671875 -2.390625q-0.703125 -0.875 -2.09375 -0.875q-0.71875 0 -1.265625 0.28125q-0.53125 0.265625 -0.90625 0.71875q-0.359375 0.4375 -0.5625 1.03125q-0.1875 0.578125 -0.21875 1.234375l5.71875 0z" fill-rule="nonzero"></path><path fill="#434343" d="m362.61484 294.10956q0 0.09375 -0.046875 0.171875q-0.03125 0.0625 -0.140625 0.109375q-0.09375 0.046875 -0.265625 0.0625q-0.15625 0.03125 -0.390625 0.03125q-0.25 0 -0.421875 -0.03125q-0.15625 -0.015625 -0.265625 -0.0625q-0.09375 -0.046875 -0.140625 -0.109375q-0.046875 -0.078125 -0.046875 -0.171875l0 -1.390625q-0.828125 0.90625 -1.734375 1.40625q-0.890625 0.5 -1.953125 0.5q-1.171875 0 -2.0 -0.453125q-0.8125 -0.453125 -1.328125 -1.21875q-0.5 -0.765625 -0.734375 -1.796875q-0.234375 -1.046875 -0.234375 -2.1875q0 -1.359375 0.296875 -2.453125q0.296875 -1.09375 0.859375 -1.859375q0.578125 -0.78125 1.421875 -1.203125q0.859375 -0.421875 1.96875 -0.421875q0.921875 0 1.6875 0.40625q0.78125 0.40625 1.53125 1.1875l0 -6.125q0 -0.078125 0.03125 -0.15625q0.046875 -0.078125 0.15625 -0.109375q0.125 -0.046875 0.296875 -0.078125q0.1875 -0.03125 0.46875 -0.03125q0.296875 0 0.484375 0.03125q0.1875 0.03125 0.28125 0.078125q0.109375 0.03125 0.15625 0.109375q0.0625 0.078125 0.0625 0.15625l0 15.609375zm-1.9375 -7.421875q-0.796875 -0.96875 -1.53125 -1.46875q-0.71875 -0.515625 -1.515625 -0.515625q-0.75 0 -1.265625 0.359375q-0.515625 0.34375 -0.84375 0.921875q-0.3125 0.5625 -0.46875 1.296875q-0.140625 0.71875 -0.140625 1.46875q0 0.796875 0.125 1.5625q0.125 0.765625 0.421875 1.359375q0.3125 0.59375 0.8125 0.953125q0.515625 0.34375 1.265625 0.34375q0.390625 0 0.75 -0.09375q0.359375 -0.109375 0.734375 -0.359375q0.375 -0.25 0.78125 -0.640625q0.40625 -0.390625 0.875 -0.96875l0 -4.21875zm13.453125 7.4375q0 0.140625 -0.09375 0.21875q-0.09375 0.0625 -0.265625 0.09375q-0.15625 0.046875 -0.46875 0.046875q-0.296875 0 -0.484375 -0.046875q-0.1875 -0.03125 -0.265625 -0.09375q-0.078125 -0.078125 -0.078125 -0.21875l0 -1.0625q-0.6875 0.75 -1.546875 1.15625q-0.84375 0.40625 -1.796875 0.40625q-0.828125 0 -1.5 -0.21875q-0.671875 -0.21875 -1.15625 -0.625q-0.46875 -0.40625 -0.734375 -1.0q-0.265625 -0.609375 -0.265625 -1.359375q0 -0.890625 0.359375 -1.546875q0.375 -0.65625 1.046875 -1.09375q0.6875 -0.4375 1.671875 -0.65625q0.984375 -0.21875 2.203125 -0.21875l1.453125 0l0 -0.8125q0 -0.609375 -0.125 -1.078125q-0.125 -0.46875 -0.421875 -0.78125q-0.28125 -0.3125 -0.734375 -0.46875q-0.453125 -0.15625 -1.125 -0.15625q-0.71875 0 -1.296875 0.171875q-0.5625 0.171875 -0.984375 0.375q-0.421875 0.203125 -0.71875 0.375q-0.28125 0.171875 -0.421875 0.171875q-0.09375 0 -0.171875 -0.046875q-0.0625 -0.046875 -0.125 -0.140625q-0.046875 -0.09375 -0.078125 -0.234375q-0.015625 -0.15625 -0.015625 -0.328125q0 -0.296875 0.03125 -0.46875q0.046875 -0.171875 0.203125 -0.3125q0.171875 -0.15625 0.546875 -0.359375q0.390625 -0.21875 0.890625 -0.375q0.515625 -0.171875 1.109375 -0.28125q0.59375 -0.125 1.203125 -0.125q1.140625 0 1.9375 0.265625q0.796875 0.25 1.28125 0.75q0.5 0.5 0.71875 1.25q0.21875 0.734375 0.21875 1.71875l0 7.109375zm-1.921875 -4.8125l-1.640625 0q-0.796875 0 -1.390625 0.140625q-0.578125 0.125 -0.96875 0.390625q-0.390625 0.265625 -0.578125 0.640625q-0.171875 0.359375 -0.171875 0.84375q0 0.8125 0.515625 1.296875q0.53125 0.484375 1.46875 0.484375q0.75 0 1.40625 -0.375q0.65625 -0.390625 1.359375 -1.1875l0 -2.234375zm10.964844 4.03125q0 0.328125 -0.046875 0.53125q-0.046875 0.203125 -0.140625 0.296875q-0.09375 0.09375 -0.28125 0.1875q-0.1875 0.078125 -0.4375 0.125q-0.234375 0.046875 -0.5 0.078125q-0.265625 0.046875 -0.546875 0.046875q-0.8125 0 -1.40625 -0.21875q-0.578125 -0.21875 -0.953125 -0.65625q-0.375 -0.4375 -0.546875 -1.109375q-0.171875 -0.6875 -0.171875 -1.59375l0 -6.171875l-1.46875 0q-0.1875 0 -0.296875 -0.1875q-0.09375 -0.1875 -0.09375 -0.609375q0 -0.21875 0.03125 -0.359375q0.03125 -0.15625 0.078125 -0.25q0.046875 -0.109375 0.109375 -0.140625q0.078125 -0.046875 0.171875 -0.046875l1.46875 0l0 -2.515625q0 -0.078125 0.03125 -0.140625q0.046875 -0.078125 0.15625 -0.125q0.125 -0.0625 0.3125 -0.078125q0.1875 -0.03125 0.46875 -0.03125q0.28125 0 0.46875 0.03125q0.1875 0.015625 0.296875 0.078125q0.109375 0.046875 0.15625 0.125q0.046875 0.0625 0.046875 0.140625l0 2.515625l2.703125 0q0.09375 0 0.15625 0.046875q0.078125 0.03125 0.125 0.140625q0.0625 0.09375 0.078125 0.25q0.03125 0.140625 0.03125 0.359375q0 0.421875 -0.109375 0.609375q-0.109375 0.1875 -0.28125 0.1875l-2.703125 0l0 5.890625q0 1.09375 0.3125 1.65625q0.328125 0.546875 1.15625 0.546875q0.28125 0 0.484375 -0.046875q0.21875 -0.0625 0.375 -0.109375q0.171875 -0.0625 0.28125 -0.109375q0.125 -0.0625 0.21875 -0.0625q0.046875 0 0.09375 0.03125q0.0625 0.03125 0.09375 0.109375q0.03125 0.078125 0.046875 0.21875q0.03125 0.140625 0.03125 0.359375zm10.4921875 0.78125q0 0.140625 -0.09375 0.21875q-0.09375 0.0625 -0.265625 0.09375q-0.15625 0.046875 -0.46875 0.046875q-0.296875 0 -0.484375 -0.046875q-0.1875 -0.03125 -0.265625 -0.09375q-0.078125 -0.078125 -0.078125 -0.21875l0 -1.0625q-0.6875 0.75 -1.546875 1.15625q-0.84375 0.40625 -1.796875 0.40625q-0.828125 0 -1.5 -0.21875q-0.671875 -0.21875 -1.15625 -0.625q-0.46875 -0.40625 -0.734375 -1.0q-0.265625 -0.609375 -0.265625 -1.359375q0 -0.890625 0.359375 -1.546875q0.375 -0.65625 1.046875 -1.09375q0.6875 -0.4375 1.671875 -0.65625q0.984375 -0.21875 2.203125 -0.21875l1.453125 0l0 -0.8125q0 -0.609375 -0.125 -1.078125q-0.125 -0.46875 -0.421875 -0.78125q-0.28125 -0.3125 -0.734375 -0.46875q-0.453125 -0.15625 -1.125 -0.15625q-0.71875 0 -1.296875 0.171875q-0.5625 0.171875 -0.984375 0.375q-0.421875 0.203125 -0.71875 0.375q-0.28125 0.171875 -0.421875 0.171875q-0.09375 0 -0.171875 -0.046875q-0.0625 -0.046875 -0.125 -0.140625q-0.046875 -0.09375 -0.078125 -0.234375q-0.015625 -0.15625 -0.015625 -0.328125q0 -0.296875 0.03125 -0.46875q0.046875 -0.171875 0.203125 -0.3125q0.171875 -0.15625 0.546875 -0.359375q0.390625 -0.21875 0.890625 -0.375q0.515625 -0.171875 1.109375 -0.28125q0.59375 -0.125 1.203125 -0.125q1.140625 0 1.9375 0.265625q0.796875 0.25 1.28125 0.75q0.5 0.5 0.71875 1.25q0.21875 0.734375 0.21875 1.71875l0 7.109375zm-1.921875 -4.8125l-1.640625 0q-0.796875 0 -1.390625 0.140625q-0.578125 0.125 -0.96875 0.390625q-0.390625 0.265625 -0.578125 0.640625q-0.171875 0.359375 -0.171875 0.84375q0 0.8125 0.515625 1.296875q0.53125 0.484375 1.46875 0.484375q0.75 0 1.40625 -0.375q0.65625 -0.390625 1.359375 -1.1875l0 -2.234375z" fill-rule="nonzero"></path></g></svg>

