<?xml version="1.0" standalone="yes"?>

<svg version="1.1" viewBox="0.0 0.0 607.8740157480315 366.43044619422574" fill="none" stroke="none" stroke-linecap="square" stroke-miterlimit="10" xmlns="http://www.w3.org/2000/svg" xmlns:xlink="http://www.w3.org/1999/xlink"><clipPath id="p.0"><path d="m0 0l607.874 0l0 366.43045l-607.874 0l0 -366.43045z" clip-rule="nonzero"></path></clipPath><g clip-path="url(#p.0)"><path fill="#000000" fill-opacity="0.0" d="m0 0l607.874 0l0 366.43045l-607.874 0z" fill-rule="nonzero"></path><path fill="#000000" fill-opacity="0.0" d="m366.70377 206.09973l127.84253 80.66144" fill-rule="nonzero"></path><path stroke="#434343" stroke-width="3.0" stroke-linejoin="round" stroke-linecap="butt" d="m366.7038 206.09973l118.22653 74.5943" fill-rule="evenodd"></path><path fill="#434343" stroke="#434343" stroke-width="3.0" stroke-linecap="butt" d="m493.2777 285.96075c-1.4543762 2.3050537 -4.5019836 2.99469 -6.8070374 1.5403137c-2.3050842 -1.4543762 -2.99469 -4.5019836 -1.5403442 -6.8070374c1.4543762 -2.3050842 4.5019836 -2.99469 6.8070374 -1.5403442c2.3050842 1.4543762 2.99469 4.5019836 1.5403442 6.807068z" fill-rule="nonzero"></path><path fill="#000000" fill-opacity="0.0" d="m321.73 199.42258l-84.31494 87.33859" fill-rule="nonzero"></path><path stroke="#434343" stroke-width="3.0" stroke-linejoin="round" stroke-linecap="butt" d="m321.73004 199.42258l-76.418015 79.15842" fill-rule="evenodd"></path><path fill="#434343" stroke="#434343" stroke-width="3.0" stroke-linecap="butt" d="m238.45688 285.68198c-1.9608765 -1.8930054 -2.015915 -5.0171814 -0.122909546 -6.978058c1.8929901 -1.9608765 5.0171814 -2.0158997 6.978058 -0.122924805c1.9608765 1.8930054 2.015915 5.0171814 0.122909546 6.978058c-1.8929901 1.960907 -5.017166 2.0159302 -6.978058 0.122924805z" fill-rule="nonzero"></path><path fill="#000000" fill-opacity="0.0" d="m227.92389 63.816273l83.68503 86.55118" fill-rule="nonzero"></path><path stroke="#434343" stroke-width="3.0" stroke-linejoin="round" stroke-linecap="butt" d="m227.92389 63.816273l75.78171 78.37718" fill-rule="evenodd"></path><path fill="#434343" stroke="#434343" stroke-width="3.0" stroke-linecap="butt" d="m310.56628 149.2891c-1.9594116 1.894516 -5.0836487 1.841919 -6.97818 -0.117492676c-1.8945007 -1.9594116 -1.841919 -5.0836334 0.117492676 -6.9781494c1.9594116 -1.8945312 5.0836487 -1.841919 6.9781494 0.11747742c1.8945312 1.9594116 1.841919 5.0836334 -0.11746216 6.9781647z" fill-rule="nonzero"></path><path fill="#000000" fill-opacity="0.0" d="m190.62466 63.422573l-84.31496 87.33858" fill-rule="nonzero"></path><path stroke="#434343" stroke-width="3.0" stroke-linejoin="round" stroke-linecap="butt" d="m190.62466 63.422573l-76.41799 79.15843" fill-rule="evenodd"></path><path fill="#434343" stroke="#434343" stroke-width="3.0" stroke-linecap="butt" d="m107.351524 149.68198c-1.9608765 -1.8929901 -2.0159073 -5.0171814 -0.122917175 -6.978058c1.8929977 -1.9608765 5.0171814 -2.015915 6.9780655 -0.122909546c1.9608765 1.8929901 2.0159073 5.017166 0.122917175 6.978058c-1.8929977 1.9608765 -5.0171814 2.015915 -6.9780655 0.122909546z" fill-rule="nonzero"></path><path fill="#005eb8" d="m17.380577 159.98444l0 0c0 -5.093872 4.129404 -9.223282 9.223282 -9.223282l159.41171 0c2.446167 0 4.792145 0.9717407 6.5218506 2.7014313c1.7296906 1.7297058 2.7014313 4.0756836 2.7014313 6.5218506l0 36.892014c0 5.0938873 -4.12941 9.223282 -9.223282 9.223282l-159.41171 0c-5.093878 0 -9.223282 -4.1293945 -9.223282 -9.223282z" fill-rule="nonzero"></path><path stroke="#434343" stroke-width="2.0" stroke-linejoin="round" stroke-linecap="butt" d="m17.380577 159.98444l0 0c0 -5.093872 4.129404 -9.223282 9.223282 -9.223282l159.41171 0c2.446167 0 4.792145 0.9717407 6.5218506 2.7014313c1.7296906 1.7297058 2.7014313 4.0756836 2.7014313 6.5218506l0 36.892014c0 5.0938873 -4.12941 9.223282 -9.223282 9.223282l-159.41171 0c-5.093878 0 -9.223282 -4.1293945 -9.223282 -9.223282z" fill-rule="nonzero"></path><path fill="#ffffff" d="m78.08315 187.29108q0 0.25 -0.015625 0.4375q-0.015625 0.1875 -0.0625 0.328125q-0.03125 0.140625 -0.09375 0.25q-0.0625 0.109375 -0.21875 0.265625q-0.15625 0.15625 -0.65625 0.484375q-0.5 0.3125 -1.25 0.625q-0.734375 0.296875 -1.703125 0.5q-0.953125 0.21875 -2.09375 0.21875q-1.96875 0 -3.5625 -0.65625q-1.578125 -0.65625 -2.703125 -1.9375q-1.109375 -1.28125 -1.71875 -3.15625q-0.59375 -1.890625 -0.59375 -4.34375q0 -2.515625 0.640625 -4.484375q0.65625 -1.96875 1.828125 -3.328125q1.171875 -1.375 2.796875 -2.09375q1.640625 -0.71875 3.625 -0.71875q0.875 0 1.703125 0.171875q0.828125 0.15625 1.53125 0.40625q0.703125 0.25 1.25 0.578125q0.546875 0.328125 0.75 0.546875q0.21875 0.203125 0.28125 0.3125q0.0625 0.109375 0.09375 0.265625q0.046875 0.140625 0.0625 0.34375q0.03125 0.203125 0.03125 0.484375q0 0.3125 -0.03125 0.53125q-0.03125 0.21875 -0.09375 0.375q-0.0625 0.140625 -0.15625 0.21875q-0.078125 0.0625 -0.203125 0.0625q-0.21875 0 -0.609375 -0.296875q-0.390625 -0.3125 -1.015625 -0.671875q-0.609375 -0.375 -1.5 -0.671875q-0.875 -0.3125 -2.109375 -0.3125q-1.34375 0 -2.453125 0.546875q-1.09375 0.53125 -1.875 1.578125q-0.78125 1.046875 -1.21875 2.5625q-0.421875 1.5 -0.421875 3.4375q0 1.921875 0.40625 3.40625q0.421875 1.46875 1.1875 2.46875q0.78125 0.984375 1.90625 1.5q1.125 0.5 2.546875 0.5q1.203125 0 2.09375 -0.296875q0.90625 -0.296875 1.53125 -0.65625q0.640625 -0.375 1.046875 -0.671875q0.40625 -0.296875 0.640625 -0.296875q0.109375 0 0.1875 0.046875q0.078125 0.046875 0.125 0.1875q0.046875 0.125 0.0625 0.359375q0.03125 0.234375 0.03125 0.59375zm15.375 2.46875q0 0.125 -0.0625 0.21875q-0.0625 0.078125 -0.203125 0.140625q-0.140625 0.0625 -0.390625 0.09375q-0.25 0.03125 -0.625 0.03125q-0.390625 0 -0.640625 -0.03125q-0.25 -0.03125 -0.390625 -0.09375q-0.140625 -0.0625 -0.203125 -0.140625q-0.0625 -0.09375 -0.0625 -0.21875l0 -8.234375q0 -1.203125 -0.1875 -1.9375q-0.1875 -0.734375 -0.546875 -1.265625q-0.359375 -0.53125 -0.9375 -0.8125q-0.5625 -0.28125 -1.3125 -0.28125q-0.96875 0 -1.9375 0.6875q-0.96875 0.6875 -2.03125 2.015625l0 9.828125q0 0.125 -0.0625 0.21875q-0.0625 0.078125 -0.203125 0.140625q-0.140625 0.0625 -0.390625 0.09375q-0.25 0.03125 -0.640625 0.03125q-0.375 0 -0.625 -0.03125q-0.25 -0.03125 -0.40625 -0.09375q-0.140625 -0.0625 -0.203125 -0.140625q-0.046875 -0.09375 -0.046875 -0.21875l0 -20.875q0 -0.125 0.046875 -0.21875q0.0625 -0.09375 0.203125 -0.15625q0.15625 -0.0625 0.40625 -0.09375q0.25 -0.03125 0.625 -0.03125q0.390625 0 0.640625 0.03125q0.25 0.03125 0.390625 0.09375q0.140625 0.0625 0.203125 0.15625q0.0625 0.09375 0.0625 0.21875l0 8.421875q1.109375 -1.171875 2.234375 -1.734375q1.125 -0.578125 2.265625 -0.578125q1.40625 0 2.359375 0.484375q0.96875 0.46875 1.5625 1.265625q0.59375 0.796875 0.84375 1.875q0.265625 1.0625 0.265625 2.578125l0 8.5625zm7.28125 0q0 0.125 -0.0625 0.21875q-0.0625 0.078125 -0.203125 0.140625q-0.140625 0.0625 -0.390625 0.09375q-0.25 0.03125 -0.640625 0.03125q-0.375 0 -0.625 -0.03125q-0.25 -0.03125 -0.40625 -0.09375q-0.140625 -0.0625 -0.203125 -0.140625q-0.046875 -0.09375 -0.046875 -0.21875l0 -14.0625q0 -0.109375 0.046875 -0.203125q0.0625 -0.09375 0.203125 -0.15625q0.15625 -0.0625 0.40625 -0.09375q0.25 -0.03125 0.625 -0.03125q0.390625 0 0.640625 0.03125q0.25 0.03125 0.390625 0.09375q0.140625 0.0625 0.203125 0.15625q0.0625 0.09375 0.0625 0.203125l0 14.0625zm0.296875 -18.8125q0 0.90625 -0.34375 1.234375q-0.34375 0.328125 -1.265625 0.328125q-0.90625 0 -1.25 -0.3125q-0.328125 -0.328125 -0.328125 -1.21875q0 -0.90625 0.34375 -1.234375q0.34375 -0.328125 1.265625 -0.328125q0.90625 0 1.234375 0.328125q0.34375 0.3125 0.34375 1.203125zm7.046875 18.8125q0 0.125 -0.0625 0.21875q-0.0625 0.078125 -0.203125 0.140625q-0.140625 0.0625 -0.390625 0.09375q-0.25 0.03125 -0.640625 0.03125q-0.375 0 -0.625 -0.03125q-0.25 -0.03125 -0.40625 -0.09375q-0.140625 -0.0625 -0.203125 -0.140625q-0.046875 -0.09375 -0.046875 -0.21875l0 -20.875q0 -0.125 0.046875 -0.21875q0.0625 -0.09375 0.203125 -0.15625q0.15625 -0.0625 0.40625 -0.09375q0.25 -0.03125 0.625 -0.03125q0.390625 0 0.640625 0.03125q0.25 0.03125 0.390625 0.09375q0.140625 0.0625 0.203125 0.15625q0.0625 0.09375 0.0625 0.21875l0 20.875zm16.8125 0q0 0.125 -0.0625 0.21875q-0.046875 0.09375 -0.1875 0.15625q-0.125 0.046875 -0.34375 0.078125q-0.21875 0.03125 -0.53125 0.03125q-0.328125 0 -0.546875 -0.03125q-0.21875 -0.03125 -0.359375 -0.078125q-0.140625 -0.0625 -0.203125 -0.15625q-0.0625 -0.09375 -0.0625 -0.21875l0 -1.859375q-1.109375 1.203125 -2.3125 1.875q-1.1875 0.671875 -2.609375 0.671875q-1.546875 0 -2.640625 -0.59375q-1.09375 -0.609375 -1.78125 -1.625q-0.671875 -1.03125 -0.984375 -2.40625q-0.3125 -1.390625 -0.3125 -2.921875q0 -1.8125 0.390625 -3.265625q0.390625 -1.46875 1.15625 -2.5q0.765625 -1.03125 1.890625 -1.578125q1.140625 -0.5625 2.625 -0.5625q1.234375 0 2.25 0.546875q1.03125 0.53125 2.03125 1.578125l0 -8.171875q0 -0.109375 0.046875 -0.203125q0.0625 -0.109375 0.21875 -0.15625q0.15625 -0.0625 0.390625 -0.09375q0.25 -0.046875 0.625 -0.046875q0.390625 0 0.640625 0.046875q0.25 0.03125 0.390625 0.09375q0.140625 0.046875 0.203125 0.15625q0.078125 0.09375 0.078125 0.203125l0 20.8125zm-2.59375 -9.890625q-1.046875 -1.296875 -2.03125 -1.96875q-0.96875 -0.6875 -2.03125 -0.6875q-0.984375 0 -1.671875 0.46875q-0.6875 0.46875 -1.125 1.234375q-0.421875 0.765625 -0.625 1.734375q-0.1875 0.96875 -0.1875 1.96875q0 1.0625 0.15625 2.078125q0.171875 1.015625 0.578125 1.8125q0.40625 0.78125 1.078125 1.265625q0.671875 0.46875 1.6875 0.46875q0.515625 0 0.984375 -0.140625q0.484375 -0.140625 0.984375 -0.46875q0.5 -0.328125 1.046875 -0.84375q0.546875 -0.53125 1.15625 -1.296875l0 -5.625zm26.687492 9.21875q0 0.296875 -0.046875 0.5q-0.046875 0.203125 -0.125 0.328125q-0.078125 0.125 -0.1875 0.1875q-0.09375 0.046875 -0.203125 0.046875l-10.5625 0q-0.109375 0 -0.203125 -0.046875q-0.09375 -0.0625 -0.1875 -0.1875q-0.078125 -0.125 -0.125 -0.328125q-0.046875 -0.203125 -0.046875 -0.5q0 -0.28125 0.046875 -0.484375q0.046875 -0.203125 0.109375 -0.328125q0.078125 -0.140625 0.171875 -0.203125q0.109375 -0.078125 0.234375 -0.078125l4.21875 0l0 -15.375l-3.90625 2.328125q-0.296875 0.15625 -0.484375 0.1875q-0.171875 0.03125 -0.28125 -0.0625q-0.109375 -0.109375 -0.15625 -0.34375q-0.03125 -0.234375 -0.03125 -0.59375q0 -0.265625 0.015625 -0.453125q0.03125 -0.1875 0.078125 -0.3125q0.046875 -0.125 0.125 -0.21875q0.09375 -0.09375 0.234375 -0.1875l4.65625 -2.984375q0.0625 -0.046875 0.15625 -0.078125q0.09375 -0.03125 0.234375 -0.0625q0.140625 -0.03125 0.328125 -0.03125q0.1875 -0.015625 0.46875 -0.015625q0.375 0 0.625 0.03125q0.25 0.03125 0.390625 0.09375q0.140625 0.046875 0.1875 0.140625q0.046875 0.078125 0.046875 0.171875l0 17.765625l3.65625 0q0.125 0 0.234375 0.078125q0.109375 0.0625 0.171875 0.203125q0.078125 0.125 0.109375 0.328125q0.046875 0.203125 0.046875 0.484375z" fill-rule="nonzero"></path><path fill="#005eb8" d="m168.19948 24.771837l0 0c0 -5.093878 4.1293945 -9.223281 9.223282 -9.223281l116.797516 0c2.446167 0 4.792145 0.97173595 6.5218506 2.701436c1.7297058 1.729702 2.7014465 4.07568 2.7014465 6.521845l0 36.89202c0 5.0938797 -4.1293945 9.223282 -9.223297 9.223282l-116.797516 0l0 0c-5.0938873 0 -9.223282 -4.129402 -9.223282 -9.223282z" fill-rule="nonzero"></path><path stroke="#434343" stroke-width="2.0" stroke-linejoin="round" stroke-linecap="butt" d="m168.19948 24.771837l0 0c0 -5.093878 4.1293945 -9.223281 9.223282 -9.223281l116.797516 0c2.446167 0 4.792145 0.97173595 6.5218506 2.701436c1.7297058 1.729702 2.7014465 4.07568 2.7014465 6.521845l0 36.89202c0 5.0938797 -4.1293945 9.223282 -9.223297 9.223282l-116.797516 0l0 0c-5.0938873 0 -9.223282 -4.129402 -9.223282 -9.223282z" fill-rule="nonzero"></path><path fill="#ffffff" d="m221.07152 54.531597q0 0.125 -0.046875 0.21875q-0.046875 0.09375 -0.203125 0.15625q-0.15625 0.0625 -0.4375 0.09375q-0.28125 0.03125 -0.75 0.03125q-0.40625 0 -0.671875 -0.03125q-0.25 -0.03125 -0.40625 -0.09375q-0.15625 -0.078125 -0.25 -0.203125q-0.078125 -0.125 -0.140625 -0.3125l-1.859375 -4.765625q-0.328125 -0.8125 -0.6875 -1.484375q-0.34375 -0.6875 -0.828125 -1.171875q-0.484375 -0.5 -1.140625 -0.765625q-0.65625 -0.28125 -1.578125 -0.28125l-1.796875 0l0 8.609375q0 0.125 -0.078125 0.21875q-0.0625 0.09375 -0.21875 0.15625q-0.140625 0.046875 -0.40625 0.078125q-0.25 0.046875 -0.640625 0.046875q-0.390625 0 -0.65625 -0.046875q-0.25 -0.03125 -0.40625 -0.078125q-0.15625 -0.0625 -0.21875 -0.15625q-0.0625 -0.09375 -0.0625 -0.21875l0 -18.71875q0 -0.609375 0.3125 -0.84375q0.328125 -0.25 0.6875 -0.25l4.296875 0q0.765625 0 1.265625 0.046875q0.515625 0.03125 0.921875 0.078125q1.171875 0.203125 2.0625 0.640625q0.90625 0.4375 1.515625 1.109375q0.609375 0.671875 0.90625 1.546875q0.3125 0.859375 0.3125 1.90625q0 1.015625 -0.28125 1.828125q-0.265625 0.796875 -0.78125 1.421875q-0.515625 0.609375 -1.234375 1.0625q-0.71875 0.453125 -1.609375 0.765625q0.5 0.21875 0.90625 0.5625q0.40625 0.328125 0.75 0.796875q0.359375 0.46875 0.671875 1.078125q0.3125 0.609375 0.625 1.375l1.8125 4.453125q0.21875 0.5625 0.28125 0.796875q0.0625 0.21875 0.0625 0.34375zm-4.046875 -14.203125q0 -1.1875 -0.53125 -2.0q-0.53125 -0.828125 -1.78125 -1.1875q-0.390625 -0.109375 -0.890625 -0.15625q-0.484375 -0.046875 -1.28125 -0.046875l-2.265625 0l0 6.8125l2.625 0q1.0625 0 1.828125 -0.25q0.78125 -0.265625 1.296875 -0.71875q0.515625 -0.46875 0.75 -1.09375q0.25 -0.625 0.25 -1.359375zm20.71875 7.03125q0 1.71875 -0.453125 3.171875q-0.453125 1.4375 -1.359375 2.484375q-0.890625 1.046875 -2.25 1.640625q-1.34375 0.578125 -3.125 0.578125q-1.734375 0 -3.03125 -0.515625q-1.28125 -0.515625 -2.140625 -1.5q-0.859375 -0.984375 -1.28125 -2.390625q-0.421875 -1.40625 -0.421875 -3.1875q0 -1.71875 0.4375 -3.15625q0.453125 -1.453125 1.34375 -2.5q0.90625 -1.046875 2.25 -1.625q1.34375 -0.578125 3.140625 -0.578125q1.734375 0 3.015625 0.515625q1.296875 0.515625 2.15625 1.5q0.859375 0.984375 1.28125 2.390625q0.4375 1.40625 0.4375 3.171875zm-2.71875 0.171875q0 -1.140625 -0.21875 -2.15625q-0.203125 -1.015625 -0.6875 -1.78125q-0.484375 -0.765625 -1.3125 -1.203125q-0.828125 -0.453125 -2.0625 -0.453125q-1.140625 0 -1.96875 0.40625q-0.8125 0.40625 -1.34375 1.15625q-0.53125 0.734375 -0.796875 1.75q-0.25 1.015625 -0.25 2.21875q0 1.15625 0.203125 2.171875q0.21875 1.015625 0.703125 1.78125q0.5 0.75 1.328125 1.203125q0.828125 0.4375 2.0625 0.4375q1.125 0 1.953125 -0.40625q0.828125 -0.40625 1.359375 -1.140625q0.53125 -0.734375 0.78125 -1.75q0.25 -1.015625 0.25 -2.234375zm19.59375 -0.171875q0 1.71875 -0.453125 3.171875q-0.453125 1.4375 -1.359375 2.484375q-0.890625 1.046875 -2.25 1.640625q-1.34375 0.578125 -3.125 0.578125q-1.734375 0 -3.03125 -0.515625q-1.28125 -0.515625 -2.140625 -1.5q-0.859375 -0.984375 -1.28125 -2.390625q-0.421875 -1.40625 -0.421875 -3.1875q0 -1.71875 0.4375 -3.15625q0.453125 -1.453125 1.34375 -2.5q0.90625 -1.046875 2.25 -1.625q1.34375 -0.578125 3.140625 -0.578125q1.734375 0 3.015625 0.515625q1.296875 0.515625 2.15625 1.5q0.859375 0.984375 1.28125 2.390625q0.4375 1.40625 0.4375 3.171875zm-2.71875 0.171875q0 -1.140625 -0.21875 -2.15625q-0.203125 -1.015625 -0.6875 -1.78125q-0.484375 -0.765625 -1.3125 -1.203125q-0.828125 -0.453125 -2.0625 -0.453125q-1.140625 0 -1.96875 0.40625q-0.8125 0.40625 -1.34375 1.15625q-0.53125 0.734375 -0.796875 1.75q-0.25 1.015625 -0.25 2.21875q0 1.15625 0.203125 2.171875q0.21875 1.015625 0.703125 1.78125q0.5 0.75 1.328125 1.203125q0.828125 0.4375 2.0625 0.4375q1.125 0 1.953125 -0.40625q0.828125 -0.40625 1.359375 -1.140625q0.53125 -0.734375 0.78125 -1.75q0.25 -1.015625 0.25 -2.234375zm13.82814 5.984375q0 0.453125 -0.0625 0.71875q-0.0625 0.265625 -0.1875 0.390625q-0.125 0.125 -0.375 0.234375q-0.25 0.109375 -0.578125 0.171875q-0.3125 0.078125 -0.671875 0.125q-0.359375 0.046875 -0.71875 0.046875q-1.09375 0 -1.875 -0.28125q-0.78125 -0.296875 -1.28125 -0.875q-0.5 -0.59375 -0.734375 -1.484375q-0.21875 -0.90625 -0.21875 -2.125l0 -8.21875l-1.96875 0q-0.234375 0 -0.375 -0.25q-0.140625 -0.25 -0.140625 -0.8125q0 -0.296875 0.03125 -0.5q0.046875 -0.203125 0.109375 -0.328125q0.0625 -0.140625 0.15625 -0.1875q0.109375 -0.0625 0.234375 -0.0625l1.953125 0l0 -3.34375q0 -0.109375 0.046875 -0.203125q0.0625 -0.09375 0.203125 -0.15625q0.15625 -0.078125 0.40625 -0.109375q0.25 -0.03125 0.625 -0.03125q0.390625 0 0.640625 0.03125q0.25 0.03125 0.390625 0.109375q0.140625 0.0625 0.203125 0.15625q0.0625 0.09375 0.0625 0.203125l0 3.34375l3.609375 0q0.125 0 0.21875 0.0625q0.09375 0.046875 0.15625 0.1875q0.078125 0.125 0.109375 0.328125q0.03125 0.203125 0.03125 0.5q0 0.5625 -0.140625 0.8125q-0.140625 0.25 -0.375 0.25l-3.609375 0l0 7.84375q0 1.453125 0.421875 2.203125q0.4375 0.734375 1.546875 0.734375q0.359375 0 0.640625 -0.0625q0.28125 -0.078125 0.5 -0.15625q0.21875 -0.078125 0.375 -0.140625q0.15625 -0.078125 0.28125 -0.078125q0.078125 0 0.140625 0.046875q0.078125 0.03125 0.109375 0.140625q0.046875 0.109375 0.078125 0.296875q0.03125 0.1875 0.03125 0.46875z" fill-rule="nonzero"></path><path fill="#005eb8" d="m274.5118 159.98444l0 0c0 -5.093872 4.1293945 -9.223282 9.223297 -9.223282l159.41168 0c2.446167 0 4.792145 0.9717407 6.5218506 2.7014313c1.7297058 1.7297058 2.7014465 4.0756836 2.7014465 6.5218506l0 36.892014c0 5.0938873 -4.129425 9.223282 -9.223297 9.223282l-159.41168 0c-5.0939026 0 -9.223297 -4.1293945 -9.223297 -9.223282z" fill-rule="nonzero"></path><path stroke="#434343" stroke-width="2.0" stroke-linejoin="round" stroke-linecap="butt" d="m274.5118 159.98444l0 0c0 -5.093872 4.1293945 -9.223282 9.223297 -9.223282l159.41168 0c2.446167 0 4.792145 0.9717407 6.5218506 2.7014313c1.7297058 1.7297058 2.7014465 4.0756836 2.7014465 6.5218506l0 36.892014c0 5.0938873 -4.129425 9.223282 -9.223297 9.223282l-159.41168 0c-5.0939026 0 -9.223297 -4.1293945 -9.223297 -9.223282z" fill-rule="nonzero"></path><path fill="#ffffff" d="m335.2144 187.29108q0 0.25 -0.015625 0.4375q-0.015625 0.1875 -0.0625 0.328125q-0.03125 0.140625 -0.09375 0.25q-0.0625 0.109375 -0.21875 0.265625q-0.15625 0.15625 -0.65625 0.484375q-0.5 0.3125 -1.25 0.625q-0.734375 0.296875 -1.703125 0.5q-0.953125 0.21875 -2.09375 0.21875q-1.96875 0 -3.5625 -0.65625q-1.578125 -0.65625 -2.703125 -1.9375q-1.109375 -1.28125 -1.71875 -3.15625q-0.59375 -1.890625 -0.59375 -4.34375q0 -2.515625 0.640625 -4.484375q0.65625 -1.96875 1.828125 -3.328125q1.171875 -1.375 2.796875 -2.09375q1.640625 -0.71875 3.625 -0.71875q0.875 0 1.703125 0.171875q0.828125 0.15625 1.53125 0.40625q0.703125 0.25 1.25 0.578125q0.546875 0.328125 0.75 0.546875q0.21875 0.203125 0.28125 0.3125q0.0625 0.109375 0.09375 0.265625q0.046875 0.140625 0.0625 0.34375q0.03125 0.203125 0.03125 0.484375q0 0.3125 -0.03125 0.53125q-0.03125 0.21875 -0.09375 0.375q-0.0625 0.140625 -0.15625 0.21875q-0.078125 0.0625 -0.203125 0.0625q-0.21875 0 -0.609375 -0.296875q-0.390625 -0.3125 -1.015625 -0.671875q-0.609375 -0.375 -1.5 -0.671875q-0.875 -0.3125 -2.109375 -0.3125q-1.34375 0 -2.453125 0.546875q-1.09375 0.53125 -1.875 1.578125q-0.78125 1.046875 -1.21875 2.5625q-0.421875 1.5 -0.421875 3.4375q0 1.921875 0.40625 3.40625q0.421875 1.46875 1.1875 2.46875q0.78125 0.984375 1.90625 1.5q1.125 0.5 2.546875 0.5q1.203125 0 2.09375 -0.296875q0.90625 -0.296875 1.53125 -0.65625q0.640625 -0.375 1.046875 -0.671875q0.40625 -0.296875 0.640625 -0.296875q0.109375 0 0.1875 0.046875q0.078125 0.046875 0.125 0.1875q0.046875 0.125 0.0625 0.359375q0.03125 0.234375 0.03125 0.59375zm15.375 2.46875q0 0.125 -0.0625 0.21875q-0.0625 0.078125 -0.203125 0.140625q-0.140625 0.0625 -0.390625 0.09375q-0.25 0.03125 -0.625 0.03125q-0.390625 0 -0.640625 -0.03125q-0.25 -0.03125 -0.390625 -0.09375q-0.140625 -0.0625 -0.203125 -0.140625q-0.0625 -0.09375 -0.0625 -0.21875l0 -8.234375q0 -1.203125 -0.1875 -1.9375q-0.1875 -0.734375 -0.546875 -1.265625q-0.359375 -0.53125 -0.9375 -0.8125q-0.5625 -0.28125 -1.3125 -0.28125q-0.96875 0 -1.9375 0.6875q-0.96875 0.6875 -2.03125 2.015625l0 9.828125q0 0.125 -0.0625 0.21875q-0.0625 0.078125 -0.203125 0.140625q-0.140625 0.0625 -0.390625 0.09375q-0.25 0.03125 -0.640625 0.03125q-0.375 0 -0.625 -0.03125q-0.25 -0.03125 -0.40625 -0.09375q-0.140625 -0.0625 -0.203125 -0.140625q-0.046875 -0.09375 -0.046875 -0.21875l0 -20.875q0 -0.125 0.046875 -0.21875q0.0625 -0.09375 0.203125 -0.15625q0.15625 -0.0625 0.40625 -0.09375q0.25 -0.03125 0.625 -0.03125q0.390625 0 0.640625 0.03125q0.25 0.03125 0.390625 0.09375q0.140625 0.0625 0.203125 0.15625q0.0625 0.09375 0.0625 0.21875l0 8.421875q1.109375 -1.171875 2.234375 -1.734375q1.125 -0.578125 2.265625 -0.578125q1.40625 0 2.359375 0.484375q0.96875 0.46875 1.5625 1.265625q0.59375 0.796875 0.84375 1.875q0.265625 1.0625 0.265625 2.578125l0 8.5625zm7.28125 0q0 0.125 -0.0625 0.21875q-0.0625 0.078125 -0.203125 0.140625q-0.140625 0.0625 -0.390625 0.09375q-0.25 0.03125 -0.640625 0.03125q-0.375 0 -0.625 -0.03125q-0.25 -0.03125 -0.40625 -0.09375q-0.140625 -0.0625 -0.203125 -0.140625q-0.046875 -0.09375 -0.046875 -0.21875l0 -14.0625q0 -0.109375 0.046875 -0.203125q0.0625 -0.09375 0.203125 -0.15625q0.15625 -0.0625 0.40625 -0.09375q0.25 -0.03125 0.625 -0.03125q0.390625 0 0.640625 0.03125q0.25 0.03125 0.390625 0.09375q0.140625 0.0625 0.203125 0.15625q0.0625 0.09375 0.0625 0.203125l0 14.0625zm0.296875 -18.8125q0 0.90625 -0.34375 1.234375q-0.34375 0.328125 -1.265625 0.328125q-0.90625 0 -1.25 -0.3125q-0.328125 -0.328125 -0.328125 -1.21875q0 -0.90625 0.34375 -1.234375q0.34375 -0.328125 1.265625 -0.328125q0.90625 0 1.234375 0.328125q0.34375 0.3125 0.34375 1.203125zm7.046875 18.8125q0 0.125 -0.0625 0.21875q-0.0625 0.078125 -0.203125 0.140625q-0.140625 0.0625 -0.390625 0.09375q-0.25 0.03125 -0.640625 0.03125q-0.375 0 -0.625 -0.03125q-0.25 -0.03125 -0.40625 -0.09375q-0.140625 -0.0625 -0.203125 -0.140625q-0.046875 -0.09375 -0.046875 -0.21875l0 -20.875q0 -0.125 0.046875 -0.21875q0.0625 -0.09375 0.203125 -0.15625q0.15625 -0.0625 0.40625 -0.09375q0.25 -0.03125 0.625 -0.03125q0.390625 0 0.640625 0.03125q0.25 0.03125 0.390625 0.09375q0.140625 0.0625 0.203125 0.15625q0.0625 0.09375 0.0625 0.21875l0 20.875zm16.8125 0q0 0.125 -0.0625 0.21875q-0.046875 0.09375 -0.1875 0.15625q-0.125 0.046875 -0.34375 0.078125q-0.21875 0.03125 -0.53125 0.03125q-0.328125 0 -0.546875 -0.03125q-0.21875 -0.03125 -0.359375 -0.078125q-0.140625 -0.0625 -0.203125 -0.15625q-0.0625 -0.09375 -0.0625 -0.21875l0 -1.859375q-1.109375 1.203125 -2.3125 1.875q-1.1875 0.671875 -2.609375 0.671875q-1.546875 0 -2.640625 -0.59375q-1.09375 -0.609375 -1.78125 -1.625q-0.671875 -1.03125 -0.984375 -2.40625q-0.3125 -1.390625 -0.3125 -2.921875q0 -1.8125 0.390625 -3.265625q0.390625 -1.46875 1.15625 -2.5q0.765625 -1.03125 1.890625 -1.578125q1.140625 -0.5625 2.625 -0.5625q1.234375 0 2.25 0.546875q1.03125 0.53125 2.03125 1.578125l0 -8.171875q0 -0.109375 0.046875 -0.203125q0.0625 -0.109375 0.21875 -0.15625q0.15625 -0.0625 0.390625 -0.09375q0.25 -0.046875 0.625 -0.046875q0.390625 0 0.640625 0.046875q0.25 0.03125 0.390625 0.09375q0.140625 0.046875 0.203125 0.15625q0.078125 0.09375 0.078125 0.203125l0 20.8125zm-2.59375 -9.890625q-1.046875 -1.296875 -2.03125 -1.96875q-0.96875 -0.6875 -2.03125 -0.6875q-0.984375 0 -1.671875 0.46875q-0.6875 0.46875 -1.125 1.234375q-0.421875 0.765625 -0.625 1.734375q-0.1875 0.96875 -0.1875 1.96875q0 1.0625 0.15625 2.078125q0.171875 1.015625 0.578125 1.8125q0.40625 0.78125 1.078125 1.265625q0.671875 0.46875 1.6875 0.46875q0.515625 0 0.984375 -0.140625q0.484375 -0.140625 0.984375 -0.46875q0.5 -0.328125 1.046875 -0.84375q0.546875 -0.53125 1.15625 -1.296875l0 -5.625zm26.640625 9.125q0 0.28125 -0.046875 0.5q-0.03125 0.21875 -0.109375 0.375q-0.0625 0.140625 -0.1875 0.21875q-0.109375 0.0625 -0.25 0.0625l-11.171875 0q-0.21875 0 -0.390625 -0.046875q-0.15625 -0.0625 -0.28125 -0.1875q-0.109375 -0.125 -0.171875 -0.359375q-0.046875 -0.234375 -0.046875 -0.578125q0 -0.3125 0.015625 -0.546875q0.03125 -0.234375 0.109375 -0.40625q0.078125 -0.1875 0.1875 -0.359375q0.125 -0.1875 0.3125 -0.390625l3.921875 -4.15625q1.359375 -1.4375 2.171875 -2.578125q0.828125 -1.140625 1.265625 -2.078125q0.453125 -0.9375 0.59375 -1.703125q0.140625 -0.765625 0.140625 -1.4375q0 -0.671875 -0.21875 -1.265625q-0.21875 -0.609375 -0.640625 -1.0625q-0.40625 -0.453125 -1.03125 -0.71875q-0.625 -0.265625 -1.4375 -0.265625q-0.953125 0 -1.71875 0.265625q-0.75 0.265625 -1.328125 0.578125q-0.5625 0.3125 -0.953125 0.578125q-0.375 0.265625 -0.5625 0.265625q-0.109375 0 -0.203125 -0.0625q-0.078125 -0.0625 -0.140625 -0.203125q-0.046875 -0.140625 -0.078125 -0.375q-0.03125 -0.234375 -0.03125 -0.5625q0 -0.234375 0.015625 -0.40625q0.015625 -0.171875 0.046875 -0.296875q0.046875 -0.125 0.109375 -0.234375q0.0625 -0.109375 0.25 -0.265625q0.1875 -0.171875 0.640625 -0.453125q0.46875 -0.28125 1.15625 -0.546875q0.703125 -0.28125 1.53125 -0.46875q0.84375 -0.1875 1.765625 -0.1875q1.46875 0 2.5625 0.421875q1.109375 0.40625 1.828125 1.125q0.734375 0.71875 1.09375 1.671875q0.359375 0.953125 0.359375 2.03125q0 0.96875 -0.171875 1.9375q-0.171875 0.953125 -0.734375 2.078125q-0.546875 1.109375 -1.59375 2.484375q-1.046875 1.359375 -2.78125 3.140625l-3.203125 3.34375l8.796875 0q0.125 0 0.234375 0.078125q0.125 0.0625 0.203125 0.203125q0.09375 0.140625 0.125 0.359375q0.046875 0.203125 0.046875 0.484375z" fill-rule="nonzero"></path><path fill="#005eb8" d="m148.48593 295.98444l0 0c0 -5.093872 4.12941 -9.223267 9.223282 -9.223267l159.4117 0c2.446167 0 4.792145 0.9717102 6.5218506 2.701416c1.7297058 1.7297058 2.7014465 4.0756836 2.7014465 6.5218506l0 36.89203c0 5.093872 -4.129425 9.223267 -9.223297 9.223267l-159.4117 0c-5.093872 0 -9.223282 -4.1293945 -9.223282 -9.223267z" fill-rule="nonzero"></path><path stroke="#434343" stroke-width="2.0" stroke-linejoin="round" stroke-linecap="butt" d="m148.48593 295.98444l0 0c0 -5.093872 4.12941 -9.223267 9.223282 -9.223267l159.4117 0c2.446167 0 4.792145 0.9717102 6.5218506 2.701416c1.7297058 1.7297058 2.7014465 4.0756836 2.7014465 6.5218506l0 36.89203c0 5.093872 -4.129425 9.223267 -9.223297 9.223267l-159.4117 0c-5.093872 0 -9.223282 -4.1293945 -9.223282 -9.223267z" fill-rule="nonzero"></path><path fill="#ffffff" d="m196.1807 323.29108q0 0.25 -0.015625 0.4375q-0.015625 0.1875 -0.0625 0.328125q-0.03125 0.140625 -0.09375 0.25q-0.0625 0.109375 -0.21875 0.265625q-0.15625 0.15625 -0.65625 0.484375q-0.5 0.3125 -1.25 0.625q-0.734375 0.296875 -1.703125 0.5q-0.953125 0.21875 -2.09375 0.21875q-1.96875 0 -3.5625 -0.65625q-1.578125 -0.65625 -2.703125 -1.9375q-1.109375 -1.28125 -1.71875 -3.15625q-0.59375 -1.890625 -0.59375 -4.34375q0 -2.515625 0.640625 -4.484375q0.65625 -1.96875 1.828125 -3.328125q1.171875 -1.375 2.796875 -2.09375q1.640625 -0.71875 3.625 -0.71875q0.875 0 1.703125 0.171875q0.828125 0.15625 1.53125 0.40625q0.703125 0.25 1.25 0.578125q0.546875 0.328125 0.75 0.546875q0.21875 0.203125 0.28125 0.3125q0.0625 0.109375 0.09375 0.265625q0.046875 0.140625 0.0625 0.34375q0.03125 0.203125 0.03125 0.484375q0 0.3125 -0.03125 0.53125q-0.03125 0.21875 -0.09375 0.375q-0.0625 0.140625 -0.15625 0.21875q-0.078125 0.0625 -0.203125 0.0625q-0.21875 0 -0.609375 -0.296875q-0.390625 -0.3125 -1.015625 -0.671875q-0.609375 -0.375 -1.5 -0.671875q-0.875 -0.3125 -2.109375 -0.3125q-1.34375 0 -2.453125 0.546875q-1.09375 0.53125 -1.875 1.578125q-0.78125 1.046875 -1.21875 2.5625q-0.421875 1.5 -0.421875 3.4375q0 1.921875 0.40625 3.40625q0.421875 1.46875 1.1875 2.46875q0.78125 0.984375 1.90625 1.5q1.125 0.5 2.546875 0.5q1.203125 0 2.09375 -0.296875q0.90625 -0.296875 1.53125 -0.65625q0.640625 -0.375 1.046875 -0.671875q0.40625 -0.296875 0.640625 -0.296875q0.109375 0 0.1875 0.046875q0.078125 0.046875 0.125 0.1875q0.046875 0.125 0.0625 0.359375q0.03125 0.234375 0.03125 0.59375zm15.375 2.46875q0 0.125 -0.0625 0.21875q-0.0625 0.078125 -0.203125 0.140625q-0.140625 0.0625 -0.390625 0.09375q-0.25 0.03125 -0.625 0.03125q-0.390625 0 -0.640625 -0.03125q-0.25 -0.03125 -0.390625 -0.09375q-0.140625 -0.0625 -0.203125 -0.140625q-0.0625 -0.09375 -0.0625 -0.21875l0 -8.234375q0 -1.203125 -0.1875 -1.9375q-0.1875 -0.734375 -0.546875 -1.265625q-0.359375 -0.53125 -0.9375 -0.8125q-0.5625 -0.28125 -1.3125 -0.28125q-0.96875 0 -1.9375 0.6875q-0.96875 0.6875 -2.03125 2.015625l0 9.828125q0 0.125 -0.0625 0.21875q-0.0625 0.078125 -0.203125 0.140625q-0.140625 0.0625 -0.390625 0.09375q-0.25 0.03125 -0.640625 0.03125q-0.375 0 -0.625 -0.03125q-0.25 -0.03125 -0.40625 -0.09375q-0.140625 -0.0625 -0.203125 -0.140625q-0.046875 -0.09375 -0.046875 -0.21875l0 -20.875q0 -0.125 0.046875 -0.21875q0.0625 -0.09375 0.203125 -0.15625q0.15625 -0.0625 0.40625 -0.09375q0.25 -0.03125 0.625 -0.03125q0.390625 0 0.640625 0.03125q0.25 0.03125 0.390625 0.09375q0.140625 0.0625 0.203125 0.15625q0.0625 0.09375 0.0625 0.21875l0 8.421875q1.109375 -1.171875 2.234375 -1.734375q1.125 -0.578125 2.265625 -0.578125q1.40625 0 2.359375 0.484375q0.96875 0.46875 1.5625 1.265625q0.59375 0.796875 0.84375 1.875q0.265625 1.0625 0.265625 2.578125l0 8.5625zm7.28125 0q0 0.125 -0.0625 0.21875q-0.0625 0.078125 -0.203125 0.140625q-0.140625 0.0625 -0.390625 0.09375q-0.25 0.03125 -0.640625 0.03125q-0.375 0 -0.625 -0.03125q-0.25 -0.03125 -0.40625 -0.09375q-0.140625 -0.0625 -0.203125 -0.140625q-0.046875 -0.09375 -0.046875 -0.21875l0 -14.0625q0 -0.109375 0.046875 -0.203125q0.0625 -0.09375 0.203125 -0.15625q0.15625 -0.0625 0.40625 -0.09375q0.25 -0.03125 0.625 -0.03125q0.390625 0 0.640625 0.03125q0.25 0.03125 0.390625 0.09375q0.140625 0.0625 0.203125 0.15625q0.0625 0.09375 0.0625 0.203125l0 14.0625zm0.296875 -18.8125q0 0.90625 -0.34375 1.234375q-0.34375 0.328125 -1.265625 0.328125q-0.90625 0 -1.25 -0.3125q-0.328125 -0.328125 -0.328125 -1.21875q0 -0.90625 0.34375 -1.234375q0.34375 -0.328125 1.265625 -0.328125q0.90625 0 1.234375 0.328125q0.34375 0.3125 0.34375 1.203125zm7.046875 18.8125q0 0.125 -0.0625 0.21875q-0.0625 0.078125 -0.203125 0.140625q-0.140625 0.0625 -0.390625 0.09375q-0.25 0.03125 -0.640625 0.03125q-0.375 0 -0.625 -0.03125q-0.25 -0.03125 -0.40625 -0.09375q-0.140625 -0.0625 -0.203125 -0.140625q-0.046875 -0.09375 -0.046875 -0.21875l0 -20.875q0 -0.125 0.046875 -0.21875q0.0625 -0.09375 0.203125 -0.15625q0.15625 -0.0625 0.40625 -0.09375q0.25 -0.03125 0.625 -0.03125q0.390625 0 0.640625 0.03125q0.25 0.03125 0.390625 0.09375q0.140625 0.0625 0.203125 0.15625q0.0625 0.09375 0.0625 0.21875l0 20.875zm16.8125 0q0 0.125 -0.0625 0.21875q-0.046875 0.09375 -0.1875 0.15625q-0.125 0.046875 -0.34375 0.078125q-0.21875 0.03125 -0.53125 0.03125q-0.328125 0 -0.546875 -0.03125q-0.21875 -0.03125 -0.359375 -0.078125q-0.140625 -0.0625 -0.203125 -0.15625q-0.0625 -0.09375 -0.0625 -0.21875l0 -1.859375q-1.109375 1.203125 -2.3125 1.875q-1.1875 0.671875 -2.609375 0.671875q-1.546875 0 -2.640625 -0.59375q-1.09375 -0.609375 -1.78125 -1.625q-0.671875 -1.03125 -0.984375 -2.40625q-0.3125 -1.390625 -0.3125 -2.921875q0 -1.8125 0.390625 -3.265625q0.390625 -1.46875 1.15625 -2.5q0.765625 -1.03125 1.890625 -1.578125q1.140625 -0.5625 2.625 -0.5625q1.234375 0 2.25 0.546875q1.03125 0.53125 2.03125 1.578125l0 -8.171875q0 -0.109375 0.046875 -0.203125q0.0625 -0.109375 0.21875 -0.15625q0.15625 -0.0625 0.390625 -0.09375q0.25 -0.046875 0.625 -0.046875q0.390625 0 0.640625 0.046875q0.25 0.03125 0.390625 0.09375q0.140625 0.046875 0.203125 0.15625q0.078125 0.09375 0.078125 0.203125l0 20.8125zm-2.59375 -9.890625q-1.046875 -1.296875 -2.03125 -1.96875q-0.96875 -0.6875 -2.03125 -0.6875q-0.984375 0 -1.671875 0.46875q-0.6875 0.46875 -1.125 1.234375q-0.421875 0.765625 -0.625 1.734375q-0.1875 0.96875 -0.1875 1.96875q0 1.0625 0.15625 2.078125q0.171875 1.015625 0.578125 1.8125q0.40625 0.78125 1.078125 1.265625q0.671875 0.46875 1.6875 0.46875q0.515625 0 0.984375 -0.140625q0.484375 -0.140625 0.984375 -0.46875q0.5 -0.328125 1.046875 -0.84375q0.546875 -0.53125 1.15625 -1.296875l0 -5.625zm26.640625 9.125q0 0.28125 -0.046875 0.5q-0.03125 0.21875 -0.109375 0.375q-0.0625 0.140625 -0.1875 0.21875q-0.109375 0.0625 -0.25 0.0625l-11.171875 0q-0.21875 0 -0.390625 -0.046875q-0.15625 -0.0625 -0.28125 -0.1875q-0.109375 -0.125 -0.171875 -0.359375q-0.046875 -0.234375 -0.046875 -0.578125q0 -0.3125 0.015625 -0.546875q0.03125 -0.234375 0.109375 -0.40625q0.078125 -0.1875 0.1875 -0.359375q0.125 -0.1875 0.3125 -0.390625l3.921875 -4.15625q1.359375 -1.4375 2.171875 -2.578125q0.828125 -1.140625 1.265625 -2.078125q0.453125 -0.9375 0.59375 -1.703125q0.140625 -0.765625 0.140625 -1.4375q0 -0.671875 -0.21875 -1.265625q-0.21875 -0.609375 -0.640625 -1.0625q-0.40625 -0.453125 -1.03125 -0.71875q-0.625 -0.265625 -1.4375 -0.265625q-0.953125 0 -1.71875 0.265625q-0.75 0.265625 -1.328125 0.578125q-0.5625 0.3125 -0.953125 0.578125q-0.375 0.265625 -0.5625 0.265625q-0.109375 0 -0.203125 -0.0625q-0.078125 -0.0625 -0.140625 -0.203125q-0.046875 -0.140625 -0.078125 -0.375q-0.03125 -0.234375 -0.03125 -0.5625q0 -0.234375 0.015625 -0.40625q0.015625 -0.171875 0.046875 -0.296875q0.046875 -0.125 0.109375 -0.234375q0.0625 -0.109375 0.25 -0.265625q0.1875 -0.171875 0.640625 -0.453125q0.46875 -0.28125 1.15625 -0.546875q0.703125 -0.28125 1.53125 -0.46875q0.84375 -0.1875 1.765625 -0.1875q1.46875 0 2.5625 0.421875q1.109375 0.40625 1.828125 1.125q0.734375 0.71875 1.09375 1.671875q0.359375 0.953125 0.359375 2.03125q0 0.96875 -0.171875 1.9375q-0.171875 0.953125 -0.734375 2.078125q-0.546875 1.109375 -1.59375 2.484375q-1.046875 1.359375 -2.78125 3.140625l-3.203125 3.34375l8.796875 0q0.125 0 0.234375 0.078125q0.125 0.0625 0.203125 0.203125q0.09375 0.140625 0.125 0.359375q0.046875 0.203125 0.046875 0.484375zm10.5 -6.734375q0 0.609375 -0.140625 0.84375q-0.140625 0.234375 -0.40625 0.234375l-6.53125 0q-0.28125 0 -0.421875 -0.234375q-0.140625 -0.25 -0.140625 -0.84375q0 -0.59375 0.140625 -0.828125q0.140625 -0.234375 0.421875 -0.234375l6.53125 0q0.125 0 0.21875 0.046875q0.109375 0.046875 0.171875 0.1875q0.078125 0.125 0.109375 0.328125q0.046875 0.203125 0.046875 0.5zm15.5625 6.828125q0 0.296875 -0.046875 0.5q-0.046875 0.203125 -0.125 0.328125q-0.078125 0.125 -0.1875 0.1875q-0.09375 0.046875 -0.203125 0.046875l-10.5625 0q-0.109375 0 -0.203125 -0.046875q-0.09375 -0.0625 -0.1875 -0.1875q-0.078125 -0.125 -0.125 -0.328125q-0.046875 -0.203125 -0.046875 -0.5q0 -0.28125 0.046875 -0.484375q0.046875 -0.203125 0.109375 -0.328125q0.078125 -0.140625 0.171875 -0.203125q0.109375 -0.078125 0.234375 -0.078125l4.21875 0l0 -15.375l-3.90625 2.328125q-0.296875 0.15625 -0.484375 0.1875q-0.171875 0.03125 -0.28125 -0.0625q-0.109375 -0.109375 -0.15625 -0.34375q-0.03125 -0.234375 -0.03125 -0.59375q0 -0.265625 0.015625 -0.453125q0.03125 -0.1875 0.078125 -0.3125q0.046875 -0.125 0.125 -0.21875q0.09375 -0.09375 0.234375 -0.1875l4.65625 -2.984375q0.0625 -0.046875 0.15625 -0.078125q0.09375 -0.03125 0.234375 -0.0625q0.140625 -0.03125 0.328125 -0.03125q0.1875 -0.015625 0.46875 -0.015625q0.375 0 0.625 0.03125q0.25 0.03125 0.390625 0.09375q0.140625 0.046875 0.1875 0.140625q0.046875 0.078125 0.046875 0.171875l0 17.765625l3.65625 0q0.125 0 0.234375 0.078125q0.109375 0.0625 0.171875 0.203125q0.078125 0.125 0.109375 0.328125q0.046875 0.203125 0.046875 0.484375z" fill-rule="nonzero"></path><path fill="#005eb8" d="m405.61716 295.98444l0 0c0 -5.093872 4.129425 -9.223267 9.223297 -9.223267l159.41168 0c2.446167 0 4.7921753 0.9717102 6.5218506 2.701416c1.7297363 1.7297058 2.701416 4.0756836 2.701416 6.5218506l0 36.89203c0 5.093872 -4.1293945 9.223267 -9.223267 9.223267l-159.41168 0c-5.093872 0 -9.223297 -4.1293945 -9.223297 -9.223267z" fill-rule="nonzero"></path><path stroke="#434343" stroke-width="2.0" stroke-linejoin="round" stroke-linecap="butt" d="m405.61716 295.98444l0 0c0 -5.093872 4.129425 -9.223267 9.223297 -9.223267l159.41168 0c2.446167 0 4.7921753 0.9717102 6.5218506 2.701416c1.7297363 1.7297058 2.701416 4.0756836 2.701416 6.5218506l0 36.89203c0 5.093872 -4.1293945 9.223267 -9.223267 9.223267l-159.41168 0c-5.093872 0 -9.223297 -4.1293945 -9.223297 -9.223267z" fill-rule="nonzero"></path><path fill="#ffffff" d="m453.31192 323.29108q0 0.25 -0.015625 0.4375q-0.015625 0.1875 -0.0625 0.328125q-0.03125 0.140625 -0.09375 0.25q-0.0625 0.109375 -0.21875 0.265625q-0.15625 0.15625 -0.65625 0.484375q-0.5 0.3125 -1.25 0.625q-0.734375 0.296875 -1.703125 0.5q-0.953125 0.21875 -2.09375 0.21875q-1.96875 0 -3.5625 -0.65625q-1.578125 -0.65625 -2.703125 -1.9375q-1.109375 -1.28125 -1.71875 -3.15625q-0.59375 -1.890625 -0.59375 -4.34375q0 -2.515625 0.640625 -4.484375q0.65625 -1.96875 1.828125 -3.328125q1.171875 -1.375 2.796875 -2.09375q1.640625 -0.71875 3.625 -0.71875q0.875 0 1.703125 0.171875q0.828125 0.15625 1.53125 0.40625q0.703125 0.25 1.25 0.578125q0.546875 0.328125 0.75 0.546875q0.21875 0.203125 0.28125 0.3125q0.0625 0.109375 0.09375 0.265625q0.046875 0.140625 0.0625 0.34375q0.03125 0.203125 0.03125 0.484375q0 0.3125 -0.03125 0.53125q-0.03125 0.21875 -0.09375 0.375q-0.0625 0.140625 -0.15625 0.21875q-0.078125 0.0625 -0.203125 0.0625q-0.21875 0 -0.609375 -0.296875q-0.390625 -0.3125 -1.015625 -0.671875q-0.609375 -0.375 -1.5 -0.671875q-0.875 -0.3125 -2.109375 -0.3125q-1.34375 0 -2.453125 0.546875q-1.09375 0.53125 -1.875 1.578125q-0.78125 1.046875 -1.21875 2.5625q-0.421875 1.5 -0.421875 3.4375q0 1.921875 0.40625 3.40625q0.421875 1.46875 1.1875 2.46875q0.78125 0.984375 1.90625 1.5q1.125 0.5 2.546875 0.5q1.203125 0 2.09375 -0.296875q0.90625 -0.296875 1.53125 -0.65625q0.640625 -0.375 1.046875 -0.671875q0.40625 -0.296875 0.640625 -0.296875q0.109375 0 0.1875 0.046875q0.078125 0.046875 0.125 0.1875q0.046875 0.125 0.0625 0.359375q0.03125 0.234375 0.03125 0.59375zm15.375 2.46875q0 0.125 -0.0625 0.21875q-0.0625 0.078125 -0.203125 0.140625q-0.140625 0.0625 -0.390625 0.09375q-0.25 0.03125 -0.625 0.03125q-0.390625 0 -0.640625 -0.03125q-0.25 -0.03125 -0.390625 -0.09375q-0.140625 -0.0625 -0.203125 -0.140625q-0.0625 -0.09375 -0.0625 -0.21875l0 -8.234375q0 -1.203125 -0.1875 -1.9375q-0.1875 -0.734375 -0.546875 -1.265625q-0.359375 -0.53125 -0.9375 -0.8125q-0.5625 -0.28125 -1.3125 -0.28125q-0.96875 0 -1.9375 0.6875q-0.96875 0.6875 -2.03125 2.015625l0 9.828125q0 0.125 -0.0625 0.21875q-0.0625 0.078125 -0.203125 0.140625q-0.140625 0.0625 -0.390625 0.09375q-0.25 0.03125 -0.640625 0.03125q-0.375 0 -0.625 -0.03125q-0.25 -0.03125 -0.40625 -0.09375q-0.140625 -0.0625 -0.203125 -0.140625q-0.046875 -0.09375 -0.046875 -0.21875l0 -20.875q0 -0.125 0.046875 -0.21875q0.0625 -0.09375 0.203125 -0.15625q0.15625 -0.0625 0.40625 -0.09375q0.25 -0.03125 0.625 -0.03125q0.390625 0 0.640625 0.03125q0.25 0.03125 0.390625 0.09375q0.140625 0.0625 0.203125 0.15625q0.0625 0.09375 0.0625 0.21875l0 8.421875q1.109375 -1.171875 2.234375 -1.734375q1.125 -0.578125 2.265625 -0.578125q1.40625 0 2.359375 0.484375q0.96875 0.46875 1.5625 1.265625q0.59375 0.796875 0.84375 1.875q0.265625 1.0625 0.265625 2.578125l0 8.5625zm7.28125 0q0 0.125 -0.0625 0.21875q-0.0625 0.078125 -0.203125 0.140625q-0.140625 0.0625 -0.390625 0.09375q-0.25 0.03125 -0.640625 0.03125q-0.375 0 -0.625 -0.03125q-0.25 -0.03125 -0.40625 -0.09375q-0.140625 -0.0625 -0.203125 -0.140625q-0.046875 -0.09375 -0.046875 -0.21875l0 -14.0625q0 -0.109375 0.046875 -0.203125q0.0625 -0.09375 0.203125 -0.15625q0.15625 -0.0625 0.40625 -0.09375q0.25 -0.03125 0.625 -0.03125q0.390625 0 0.640625 0.03125q0.25 0.03125 0.390625 0.09375q0.140625 0.0625 0.203125 0.15625q0.0625 0.09375 0.0625 0.203125l0 14.0625zm0.296875 -18.8125q0 0.90625 -0.34375 1.234375q-0.34375 0.328125 -1.265625 0.328125q-0.90625 0 -1.25 -0.3125q-0.328125 -0.328125 -0.328125 -1.21875q0 -0.90625 0.34375 -1.234375q0.34375 -0.328125 1.265625 -0.328125q0.90625 0 1.234375 0.328125q0.34375 0.3125 0.34375 1.203125zm7.046875 18.8125q0 0.125 -0.0625 0.21875q-0.0625 0.078125 -0.203125 0.140625q-0.140625 0.0625 -0.390625 0.09375q-0.25 0.03125 -0.640625 0.03125q-0.375 0 -0.625 -0.03125q-0.25 -0.03125 -0.40625 -0.09375q-0.140625 -0.0625 -0.203125 -0.140625q-0.046875 -0.09375 -0.046875 -0.21875l0 -20.875q0 -0.125 0.046875 -0.21875q0.0625 -0.09375 0.203125 -0.15625q0.15625 -0.0625 0.40625 -0.09375q0.25 -0.03125 0.625 -0.03125q0.390625 0 0.640625 0.03125q0.25 0.03125 0.390625 0.09375q0.140625 0.0625 0.203125 0.15625q0.0625 0.09375 0.0625 0.21875l0 20.875zm16.8125 0q0 0.125 -0.0625 0.21875q-0.046875 0.09375 -0.1875 0.15625q-0.125 0.046875 -0.34375 0.078125q-0.21875 0.03125 -0.53125 0.03125q-0.328125 0 -0.546875 -0.03125q-0.21875 -0.03125 -0.359375 -0.078125q-0.140625 -0.0625 -0.203125 -0.15625q-0.0625 -0.09375 -0.0625 -0.21875l0 -1.859375q-1.109375 1.203125 -2.3125 1.875q-1.1875 0.671875 -2.609375 0.671875q-1.546875 0 -2.640625 -0.59375q-1.09375 -0.609375 -1.78125 -1.625q-0.671875 -1.03125 -0.984375 -2.40625q-0.3125 -1.390625 -0.3125 -2.921875q0 -1.8125 0.390625 -3.265625q0.390625 -1.46875 1.15625 -2.5q0.765625 -1.03125 1.890625 -1.578125q1.140625 -0.5625 2.625 -0.5625q1.234375 0 2.25 0.546875q1.03125 0.53125 2.03125 1.578125l0 -8.171875q0 -0.109375 0.046875 -0.203125q0.0625 -0.109375 0.21875 -0.15625q0.15625 -0.0625 0.390625 -0.09375q0.25 -0.046875 0.625 -0.046875q0.390625 0 0.640625 0.046875q0.25 0.03125 0.390625 0.09375q0.140625 0.046875 0.203125 0.15625q0.078125 0.09375 0.078125 0.203125l0 20.8125zm-2.59375 -9.890625q-1.046875 -1.296875 -2.03125 -1.96875q-0.96875 -0.6875 -2.03125 -0.6875q-0.984375 0 -1.671875 0.46875q-0.6875 0.46875 -1.125 1.234375q-0.421875 0.765625 -0.625 1.734375q-0.1875 0.96875 -0.1875 1.96875q0 1.0625 0.15625 2.078125q0.171875 1.015625 0.578125 1.8125q0.40625 0.78125 1.078125 1.265625q0.671875 0.46875 1.6875 0.46875q0.515625 0 0.984375 -0.140625q0.484375 -0.140625 0.984375 -0.46875q0.5 -0.328125 1.046875 -0.84375q0.546875 -0.53125 1.15625 -1.296875l0 -5.625zm26.640656 9.125q0 0.28125 -0.046875 0.5q-0.03125 0.21875 -0.109375 0.375q-0.0625 0.140625 -0.1875 0.21875q-0.109375 0.0625 -0.25 0.0625l-11.171875 0q-0.21875 0 -0.390625 -0.046875q-0.15628052 -0.0625 -0.28128052 -0.1875q-0.109375 -0.125 -0.171875 -0.359375q-0.046875 -0.234375 -0.046875 -0.578125q0 -0.3125 0.015625 -0.546875q0.03125 -0.234375 0.109375 -0.40625q0.078125 -0.1875 0.1875 -0.359375q0.125 -0.1875 0.31253052 -0.390625l3.921875 -4.15625q1.359375 -1.4375 2.171875 -2.578125q0.828125 -1.140625 1.265625 -2.078125q0.453125 -0.9375 0.59375 -1.703125q0.140625 -0.765625 0.140625 -1.4375q0 -0.671875 -0.21875 -1.265625q-0.21875 -0.609375 -0.640625 -1.0625q-0.40625 -0.453125 -1.03125 -0.71875q-0.625 -0.265625 -1.4375 -0.265625q-0.953125 0 -1.71875 0.265625q-0.75 0.265625 -1.328125 0.578125q-0.5625 0.3125 -0.953125 0.578125q-0.375 0.265625 -0.5625 0.265625q-0.109375 0 -0.203125 -0.0625q-0.078125 -0.0625 -0.14065552 -0.203125q-0.046875 -0.140625 -0.078125 -0.375q-0.03125 -0.234375 -0.03125 -0.5625q0 -0.234375 0.015625 -0.40625q0.015625 -0.171875 0.046875 -0.296875q0.046875 -0.125 0.10940552 -0.234375q0.0625 -0.109375 0.25 -0.265625q0.1875 -0.171875 0.640625 -0.453125q0.46875 -0.28125 1.15625 -0.546875q0.703125 -0.28125 1.53125 -0.46875q0.84375 -0.1875 1.765625 -0.1875q1.46875 0 2.5625 0.421875q1.109375 0.40625 1.828125 1.125q0.734375 0.71875 1.09375 1.671875q0.359375 0.953125 0.359375 2.03125q0 0.96875 -0.171875 1.9375q-0.171875 0.953125 -0.734375 2.078125q-0.546875 1.109375 -1.59375 2.484375q-1.046875 1.359375 -2.78125 3.140625l-3.203125 3.34375l8.796875 0q0.125 0 0.234375 0.078125q0.125 0.0625 0.203125 0.203125q0.09375 0.140625 0.125 0.359375q0.046875 0.203125 0.046875 0.484375zm10.5 -6.734375q0 0.609375 -0.140625 0.84375q-0.140625 0.234375 -0.40625 0.234375l-6.53125 0q-0.28125 0 -0.421875 -0.234375q-0.140625 -0.25 -0.140625 -0.84375q0 -0.59375 0.140625 -0.828125q0.140625 -0.234375 0.421875 -0.234375l6.53125 0q0.125 0 0.21875 0.046875q0.109375 0.046875 0.171875 0.1875q0.078125 0.125 0.109375 0.328125q0.046875 0.203125 0.046875 0.5zm15.515564 6.734375q0 0.28125 -0.046875 0.5q-0.03125 0.21875 -0.109375 0.375q-0.0625 0.140625 -0.1875 0.21875q-0.109375 0.0625 -0.25 0.0625l-11.171875 0q-0.21875 0 -0.390625 -0.046875q-0.15625 -0.0625 -0.28125 -0.1875q-0.109375 -0.125 -0.171875 -0.359375q-0.046875 -0.234375 -0.046875 -0.578125q0 -0.3125 0.015625 -0.546875q0.03125 -0.234375 0.109375 -0.40625q0.078125 -0.1875 0.1875 -0.359375q0.125 -0.1875 0.3125 -0.390625l3.921875 -4.15625q1.359375 -1.4375 2.171875 -2.578125q0.828125 -1.140625 1.265625 -2.078125q0.453125 -0.9375 0.59375 -1.703125q0.140625 -0.765625 0.140625 -1.4375q0 -0.671875 -0.21875 -1.265625q-0.21875 -0.609375 -0.640625 -1.0625q-0.40625 -0.453125 -1.03125 -0.71875q-0.625 -0.265625 -1.4375 -0.265625q-0.953125 0 -1.71875 0.265625q-0.75 0.265625 -1.328125 0.578125q-0.5625 0.3125 -0.953125 0.578125q-0.375 0.265625 -0.5625 0.265625q-0.109375 0 -0.203125 -0.0625q-0.078125 -0.0625 -0.140625 -0.203125q-0.046875 -0.140625 -0.078125 -0.375q-0.03125 -0.234375 -0.03125 -0.5625q0 -0.234375 0.015625 -0.40625q0.015625 -0.171875 0.046875 -0.296875q0.046875 -0.125 0.109375 -0.234375q0.0625 -0.109375 0.25 -0.265625q0.1875 -0.171875 0.640625 -0.453125q0.46875 -0.28125 1.15625 -0.546875q0.703125 -0.28125 1.53125 -0.46875q0.84375 -0.1875 1.765625 -0.1875q1.46875 0 2.5625 0.421875q1.109375 0.40625 1.828125 1.125q0.734375 0.71875 1.09375 1.671875q0.359375 0.953125 0.359375 2.03125q0 0.96875 -0.171875 1.9375q-0.171875 0.953125 -0.734375 2.078125q-0.546875 1.109375 -1.59375 2.484375q-1.046875 1.359375 -2.78125 3.140625l-3.203125 3.34375l8.796875 0q0.125 0 0.234375 0.078125q0.125 0.0625 0.203125 0.203125q0.09375 0.140625 0.125 0.359375q0.046875 0.203125 0.046875 0.484375z" fill-rule="nonzero"></path><path fill="#000000" fill-opacity="0.0" d="m420.56155 28.035402l0 0c0 -2.5483894 2.065857 -4.6142654 4.614258 -4.6142654l23.905334 0c1.2237854 0 2.3974304 0.4861431 3.2627563 1.3514862c0.86535645 0.8653431 1.3515015 2.0389996 1.3515015 3.2627792l0 18.456507c0 2.5483894 -2.0658875 4.6142654 -4.614258 4.6142654l-23.905334 0c-2.5484009 0 -4.614258 -2.065876 -4.614258 -4.6142654z" fill-rule="nonzero"></path><path stroke="#434343" stroke-width="2.0" stroke-linejoin="round" stroke-linecap="butt" d="m420.56155 28.035402l0 0c0 -2.5483894 2.065857 -4.6142654 4.614258 -4.6142654l23.905334 0c1.2237854 0 2.3974304 0.4861431 3.2627563 1.3514862c0.86535645 0.8653431 1.3515015 2.0389996 1.3515015 3.2627792l0 18.456507c0 2.5483894 -2.0658875 4.6142654 -4.614258 4.6142654l-23.905334 0c-2.5484009 0 -4.614258 -2.065876 -4.614258 -4.6142654z" fill-rule="nonzero"></path><path fill="#000000" fill-opacity="0.0" d="m461.6954 13.012951l138.74014 0l0 48.503937l-138.74014 0z" fill-rule="nonzero"></path><path fill="#434343" d="m482.83603 43.664295q0 0.1875 -0.015625 0.328125q0 0.140625 -0.03125 0.25q-0.03125 0.09375 -0.078125 0.1875q-0.046875 0.078125 -0.171875 0.203125q-0.109375 0.109375 -0.484375 0.34375q-0.375 0.234375 -0.9375 0.46875q-0.546875 0.234375 -1.28125 0.390625q-0.71875 0.15625 -1.5625 0.15625q-1.484375 0 -2.671875 -0.484375q-1.1875 -0.5 -2.03125 -1.453125q-0.828125 -0.96875 -1.28125 -2.375q-0.453125 -1.421875 -0.453125 -3.265625q0 -1.875 0.484375 -3.34375q0.484375 -1.484375 1.359375 -2.515625q0.890625 -1.03125 2.109375 -1.5625q1.21875 -0.546875 2.71875 -0.546875q0.65625 0 1.265625 0.125q0.625 0.125 1.15625 0.3125q0.53125 0.1875 0.9375 0.4375q0.40625 0.25 0.5625 0.40625q0.15625 0.15625 0.203125 0.234375q0.046875 0.078125 0.078125 0.203125q0.03125 0.109375 0.046875 0.265625q0.015625 0.140625 0.015625 0.359375q0 0.234375 -0.03125 0.40625q-0.015625 0.15625 -0.0625 0.265625q-0.046875 0.109375 -0.109375 0.171875q-0.0625 0.046875 -0.15625 0.046875q-0.15625 0 -0.453125 -0.234375q-0.296875 -0.234375 -0.765625 -0.5q-0.453125 -0.28125 -1.125 -0.5q-0.65625 -0.234375 -1.578125 -0.234375q-1.015625 0 -1.84375 0.40625q-0.8125 0.40625 -1.40625 1.1875q-0.578125 0.78125 -0.90625 1.921875q-0.328125 1.125 -0.328125 2.578125q0 1.4375 0.3125 2.546875q0.3125 1.109375 0.890625 1.859375q0.578125 0.734375 1.421875 1.125q0.84375 0.375 1.921875 0.375q0.890625 0 1.5625 -0.21875q0.6875 -0.234375 1.15625 -0.5q0.46875 -0.28125 0.765625 -0.5q0.3125 -0.21875 0.5 -0.21875q0.078125 0 0.125 0.03125q0.0625 0.03125 0.09375 0.140625q0.046875 0.09375 0.0625 0.265625q0.015625 0.171875 0.015625 0.453125zm12.265625 -3.546875q0 1.296875 -0.34375 2.375q-0.34375 1.078125 -1.015625 1.875q-0.671875 0.78125 -1.6875 1.21875q-1.015625 0.4375 -2.34375 0.4375q-1.3125 0 -2.28125 -0.375q-0.953125 -0.390625 -1.609375 -1.125q-0.640625 -0.75 -0.953125 -1.796875q-0.3125 -1.0625 -0.3125 -2.390625q0 -1.296875 0.328125 -2.375q0.328125 -1.09375 1.0 -1.875q0.6875 -0.78125 1.6875 -1.21875q1.015625 -0.4375 2.359375 -0.4375q1.296875 0 2.265625 0.390625q0.96875 0.390625 1.609375 1.125q0.640625 0.734375 0.96875 1.796875q0.328125 1.046875 0.328125 2.375zm-2.046875 0.125q0 -0.84375 -0.15625 -1.609375q-0.15625 -0.765625 -0.53125 -1.328125q-0.359375 -0.578125 -0.984375 -0.90625q-0.609375 -0.34375 -1.53125 -0.34375q-0.859375 0 -1.484375 0.3125q-0.609375 0.296875 -1.015625 0.859375q-0.390625 0.546875 -0.59375 1.3125q-0.1875 0.765625 -0.1875 1.65625q0 0.875 0.15625 1.640625q0.171875 0.75 0.53125 1.328125q0.375 0.5625 0.984375 0.90625q0.625 0.328125 1.5625 0.328125q0.84375 0 1.453125 -0.296875q0.625 -0.3125 1.015625 -0.859375q0.40625 -0.5625 0.59375 -1.3125q0.1875 -0.765625 0.1875 -1.6875zm20.53122 5.265625q0 0.09375 -0.046875 0.15625q-0.046875 0.0625 -0.15625 0.125q-0.09375 0.046875 -0.28125 0.0625q-0.1875 0.03125 -0.46875 0.03125q-0.296875 0 -0.484375 -0.03125q-0.18746948 -0.015625 -0.29684448 -0.0625q-0.109375 -0.0625 -0.15625 -0.125q-0.046875 -0.0625 -0.046875 -0.15625l0 -6.40625q0 -0.671875 -0.125 -1.21875q-0.109375 -0.546875 -0.375 -0.9375q-0.25 -0.40625 -0.65625 -0.609375q-0.390625 -0.21875 -0.9375 -0.21875q-0.671875 0 -1.34375 0.515625q-0.671875 0.515625 -1.484375 1.5l0 7.375q0 0.09375 -0.046875 0.15625q-0.046875 0.0625 -0.15625 0.125q-0.109375 0.046875 -0.296875 0.0625q-0.1875 0.03125 -0.46875 0.03125q-0.265625 0 -0.46875 -0.03125q-0.1875 -0.015625 -0.296875 -0.0625q-0.109375 -0.0625 -0.15625 -0.125q-0.03125 -0.0625 -0.03125 -0.15625l0 -6.40625q0 -0.671875 -0.140625 -1.21875q-0.125 -0.546875 -0.390625 -0.9375q-0.25 -0.40625 -0.640625 -0.609375q-0.390625 -0.21875 -0.9375 -0.21875q-0.65625 0 -1.34375 0.515625q-0.671875 0.515625 -1.46875 1.5l0 7.375q0 0.09375 -0.046875 0.15625q-0.046875 0.0625 -0.15625 0.125q-0.109375 0.046875 -0.296875 0.0625q-0.1875 0.03125 -0.484375 0.03125q-0.28125 0 -0.46875 -0.03125q-0.1875 -0.015625 -0.296875 -0.0625q-0.109375 -0.0625 -0.15625 -0.125q-0.03125 -0.0625 -0.03125 -0.15625l0 -10.546875q0 -0.09375 0.03125 -0.15625q0.03125 -0.0625 0.140625 -0.109375q0.109375 -0.0625 0.265625 -0.078125q0.171875 -0.015625 0.4375 -0.015625q0.265625 0 0.421875 0.015625q0.171875 0.015625 0.265625 0.078125q0.09375 0.046875 0.140625 0.109375q0.046875 0.0625 0.046875 0.15625l0 1.390625q0.890625 -0.984375 1.71875 -1.453125q0.84375 -0.46875 1.703125 -0.46875q0.65625 0 1.171875 0.15625q0.515625 0.15625 0.90625 0.4375q0.40625 0.265625 0.6875 0.65625q0.28125 0.375 0.46875 0.84375q0.53125 -0.578125 1.0 -0.96875q0.484375 -0.40625 0.921875 -0.640625q0.4375 -0.25 0.84375 -0.359375q0.421875 -0.125 0.84375 -0.125q1.03125 0 1.71875 0.359375q0.6874695 0.359375 1.1093445 0.96875q0.4375 0.59375 0.609375 1.390625q0.1875 0.796875 0.1875 1.6875l0 6.671875zm13.234375 -5.4375q0 1.390625 -0.296875 2.5q-0.296875 1.09375 -0.890625 1.859375q-0.578125 0.765625 -1.4375 1.1875q-0.84375 0.40625 -1.953125 0.40625q-0.46875 0 -0.875 -0.09375q-0.390625 -0.09375 -0.765625 -0.28125q-0.375 -0.203125 -0.75 -0.5q-0.375 -0.3125 -0.796875 -0.734375l0 5.28125q0 0.09375 -0.046875 0.15625q-0.046875 0.078125 -0.15625 0.125q-0.109375 0.046875 -0.296875 0.0625q-0.1875 0.03125 -0.484375 0.03125q-0.28125 0 -0.46875 -0.03125q-0.1875 -0.015625 -0.296875 -0.0625q-0.109375 -0.046875 -0.15625 -0.125q-0.03125 -0.0625 -0.03125 -0.15625l0 -14.734375q0 -0.109375 0.03125 -0.171875q0.03125 -0.0625 0.140625 -0.109375q0.109375 -0.046875 0.265625 -0.0625q0.171875 -0.015625 0.40625 -0.015625q0.25 0 0.40625 0.015625q0.15625 0.015625 0.25 0.0625q0.109375 0.046875 0.15625 0.109375q0.046875 0.0625 0.046875 0.171875l0 1.421875q0.46875 -0.5 0.90625 -0.859375q0.453125 -0.359375 0.90625 -0.59375q0.453125 -0.25 0.921875 -0.375q0.484375 -0.125 1.015625 -0.125q1.140625 0 1.953125 0.453125q0.8125 0.4375 1.3125 1.21875q0.515625 0.765625 0.75 1.796875q0.234375 1.03125 0.234375 2.171875zm-2.046875 0.21875q0 -0.796875 -0.125 -1.546875q-0.109375 -0.765625 -0.421875 -1.34375q-0.296875 -0.59375 -0.796875 -0.9375q-0.5 -0.359375 -1.25 -0.359375q-0.375 0 -0.75 0.109375q-0.359375 0.109375 -0.734375 0.359375q-0.375 0.234375 -0.78125 0.625q-0.40625 0.390625 -0.859375 0.96875l0 4.1875q0.796875 0.984375 1.5 1.5q0.71875 0.515625 1.5 0.515625q0.734375 0 1.25 -0.34375q0.53125 -0.359375 0.84375 -0.9375q0.328125 -0.59375 0.46875 -1.3125q0.15625 -0.734375 0.15625 -1.484375zm14.765625 -0.171875q0 1.296875 -0.34375 2.375q-0.34375 1.078125 -1.015625 1.875q-0.671875 0.78125 -1.6875 1.21875q-1.015625 0.4375 -2.34375 0.4375q-1.3125 0 -2.28125 -0.375q-0.953125 -0.390625 -1.609375 -1.125q-0.640625 -0.75 -0.953125 -1.796875q-0.3125 -1.0625 -0.3125 -2.390625q0 -1.296875 0.328125 -2.375q0.328125 -1.09375 1.0 -1.875q0.6875 -0.78125 1.6875 -1.21875q1.015625 -0.4375 2.359375 -0.4375q1.296875 0 2.265625 0.390625q0.96875 0.390625 1.609375 1.125q0.640625 0.734375 0.96875 1.796875q0.328125 1.046875 0.328125 2.375zm-2.046875 0.125q0 -0.84375 -0.15625 -1.609375q-0.15625 -0.765625 -0.53125 -1.328125q-0.359375 -0.578125 -0.984375 -0.90625q-0.609375 -0.34375 -1.53125 -0.34375q-0.859375 0 -1.484375 0.3125q-0.609375 0.296875 -1.015625 0.859375q-0.390625 0.546875 -0.59375 1.3125q-0.1875 0.765625 -0.1875 1.65625q0 0.875 0.15625 1.640625q0.171875 0.75 0.53125 1.328125q0.375 0.5625 0.984375 0.90625q0.625 0.328125 1.5625 0.328125q0.84375 0 1.453125 -0.296875q0.625 -0.3125 1.015625 -0.859375q0.40625 -0.5625 0.59375 -1.3125q0.1875 -0.765625 0.1875 -1.6875zm13.96875 5.265625q0 0.09375 -0.046875 0.15625q-0.046875 0.0625 -0.15625 0.125q-0.09375 0.046875 -0.28125 0.0625q-0.1875 0.03125 -0.46875 0.03125q-0.296875 0 -0.484375 -0.03125q-0.1875 -0.015625 -0.296875 -0.0625q-0.109375 -0.0625 -0.15625 -0.125q-0.046875 -0.0625 -0.046875 -0.15625l0 -6.171875q0 -0.90625 -0.140625 -1.453125q-0.140625 -0.546875 -0.40625 -0.9375q-0.265625 -0.40625 -0.703125 -0.609375q-0.421875 -0.21875 -0.984375 -0.21875q-0.71875 0 -1.453125 0.515625q-0.71875 0.515625 -1.515625 1.5l0 7.375q0 0.09375 -0.046875 0.15625q-0.046875 0.0625 -0.15625 0.125q-0.109375 0.046875 -0.296875 0.0625q-0.1875 0.03125 -0.484375 0.03125q-0.28125 0 -0.46875 -0.03125q-0.1875 -0.015625 -0.296875 -0.0625q-0.109375 -0.0625 -0.15625 -0.125q-0.03125 -0.0625 -0.03125 -0.15625l0 -10.546875q0 -0.09375 0.03125 -0.15625q0.03125 -0.0625 0.140625 -0.109375q0.109375 -0.0625 0.265625 -0.078125q0.171875 -0.015625 0.4375 -0.015625q0.265625 0 0.421875 0.015625q0.171875 0.015625 0.265625 0.078125q0.09375 0.046875 0.140625 0.109375q0.046875 0.0625 0.046875 0.15625l0 1.390625q0.890625 -0.984375 1.765625 -1.453125q0.890625 -0.46875 1.796875 -0.46875q1.046875 0 1.765625 0.359375q0.71875 0.359375 1.15625 0.96875q0.453125 0.59375 0.640625 1.390625q0.203125 0.796875 0.203125 1.921875l0 6.4375zm12.53125 -5.734375q0 0.46875 -0.234375 0.65625q-0.21875 0.1875 -0.515625 0.1875l-6.921875 0q0 0.890625 0.171875 1.59375q0.1875 0.703125 0.59375 1.203125q0.40625 0.5 1.0625 0.78125q0.65625 0.265625 1.609375 0.265625q0.75 0 1.328125 -0.125q0.59375 -0.125 1.015625 -0.28125q0.4375 -0.15625 0.703125 -0.265625q0.28125 -0.125 0.421875 -0.125q0.078125 0 0.140625 0.046875q0.078125 0.03125 0.109375 0.109375q0.03125 0.078125 0.046875 0.234375q0.015625 0.140625 0.015625 0.359375q0 0.140625 -0.015625 0.265625q0 0.109375 -0.015625 0.203125q-0.015625 0.078125 -0.0625 0.15625q-0.046875 0.0625 -0.109375 0.125q-0.0625 0.0625 -0.375 0.21875q-0.3125 0.140625 -0.828125 0.28125q-0.5 0.140625 -1.171875 0.25q-0.65625 0.109375 -1.40625 0.109375q-1.296875 0 -2.28125 -0.359375q-0.96875 -0.359375 -1.640625 -1.078125q-0.671875 -0.71875 -1.015625 -1.796875q-0.328125 -1.078125 -0.328125 -2.5q0 -1.359375 0.34375 -2.4375q0.359375 -1.09375 1.015625 -1.84375q0.671875 -0.765625 1.609375 -1.171875q0.9375 -0.40625 2.09375 -0.40625q1.234375 0 2.109375 0.40625q0.875 0.390625 1.4375 1.078125q0.5625 0.671875 0.828125 1.578125q0.265625 0.90625 0.265625 1.9375l0 0.34375zm-1.953125 -0.5625q0.046875 -1.53125 -0.671875 -2.390625q-0.703125 -0.875 -2.09375 -0.875q-0.71875 0 -1.265625 0.28125q-0.53125 0.265625 -0.90625 0.71875q-0.359375 0.4375 -0.5625 1.03125q-0.1875 0.578125 -0.21875 1.234375l5.71875 0zm13.972656 6.296875q0 0.09375 -0.046875 0.15625q-0.046875 0.0625 -0.15625 0.125q-0.09375 0.046875 -0.28125 0.0625q-0.1875 0.03125 -0.46875 0.03125q-0.296875 0 -0.484375 -0.03125q-0.1875 -0.015625 -0.296875 -0.0625q-0.109375 -0.0625 -0.15625 -0.125q-0.046875 -0.0625 -0.046875 -0.15625l0 -6.171875q0 -0.90625 -0.140625 -1.453125q-0.140625 -0.546875 -0.40625 -0.9375q-0.265625 -0.40625 -0.703125 -0.609375q-0.421875 -0.21875 -0.984375 -0.21875q-0.71875 0 -1.453125 0.515625q-0.71875 0.515625 -1.515625 1.5l0 7.375q0 0.09375 -0.046875 0.15625q-0.046875 0.0625 -0.15625 0.125q-0.109375 0.046875 -0.296875 0.0625q-0.1875 0.03125 -0.484375 0.03125q-0.28125 0 -0.46875 -0.03125q-0.1875 -0.015625 -0.296875 -0.0625q-0.109375 -0.0625 -0.15625 -0.125q-0.03125 -0.0625 -0.03125 -0.15625l0 -10.546875q0 -0.09375 0.03125 -0.15625q0.03125 -0.0625 0.140625 -0.109375q0.109375 -0.0625 0.265625 -0.078125q0.171875 -0.015625 0.4375 -0.015625q0.265625 0 0.421875 0.015625q0.171875 0.015625 0.265625 0.078125q0.09375 0.046875 0.140625 0.109375q0.046875 0.0625 0.046875 0.15625l0 1.390625q0.890625 -0.984375 1.765625 -1.453125q0.890625 -0.46875 1.796875 -0.46875q1.046875 0 1.765625 0.359375q0.71875 0.359375 1.15625 0.96875q0.453125 0.59375 0.640625 1.390625q0.203125 0.796875 0.203125 1.921875l0 6.4375zm9.015625 -0.765625q0 0.328125 -0.046875 0.53125q-0.046875 0.203125 -0.140625 0.296875q-0.09375 0.09375 -0.28125 0.1875q-0.1875 0.078125 -0.4375 0.125q-0.234375 0.046875 -0.5 0.078125q-0.265625 0.046875 -0.546875 0.046875q-0.8125 0 -1.40625 -0.21875q-0.578125 -0.21875 -0.953125 -0.65625q-0.375 -0.4375 -0.546875 -1.109375q-0.171875 -0.6875 -0.171875 -1.59375l0 -6.171875l-1.46875 0q-0.1875 0 -0.296875 -0.1875q-0.09375 -0.1875 -0.09375 -0.609375q0 -0.21875 0.03125 -0.359375q0.03125 -0.15625 0.078125 -0.25q0.046875 -0.109375 0.109375 -0.140625q0.078125 -0.046875 0.171875 -0.046875l1.46875 0l0 -2.515625q0 -0.078125 0.03125 -0.140625q0.046875 -0.078125 0.15625 -0.125q0.125 -0.0625 0.3125 -0.078125q0.1875 -0.03125 0.46875 -0.03125q0.28125 0 0.46875 0.03125q0.1875 0.015625 0.296875 0.078125q0.109375 0.046875 0.15625 0.125q0.046875 0.0625 0.046875 0.140625l0 2.515625l2.703125 0q0.09375 0 0.15625 0.046875q0.078125 0.03125 0.125 0.140625q0.0625 0.09375 0.078125 0.25q0.03125 0.140625 0.03125 0.359375q0 0.421875 -0.109375 0.609375q-0.109375 0.1875 -0.28125 0.1875l-2.703125 0l0 5.890625q0 1.09375 0.3125 1.65625q0.328125 0.546875 1.15625 0.546875q0.28125 0 0.484375 -0.046875q0.21875 -0.0625 0.375 -0.109375q0.171875 -0.0625 0.28125 -0.109375q0.125 -0.0625 0.21875 -0.0625q0.046875 0 0.09375 0.03125q0.0625 0.03125 0.09375 0.109375q0.03125 0.078125 0.046875 0.21875q0.03125 0.140625 0.03125 0.359375z" fill-rule="nonzero"></path><path fill="#ffffff" d="m269.73227 48.254593l51.996063 0l0 37.180054l-25.998016 9.295013l-25.998047 -9.295013z" fill-rule="nonzero"></path><path stroke="#000000" stroke-width="1.0" stroke-linejoin="round" stroke-linecap="butt" d="m269.73227 48.254593l51.996063 0l0 37.180054l-25.998016 9.295013l-25.998047 -9.295013z" fill-rule="nonzero"></path><path fill="#ffffff" d="m166.29134 182.79002l51.996063 0l0 37.180054l-25.998032 9.295013l-25.998032 -9.295013z" fill-rule="nonzero"></path><path stroke="#000000" stroke-width="1.0" stroke-linejoin="round" stroke-linecap="butt" d="m166.29134 182.79002l51.996063 0l0 37.180054l-25.998032 9.295013l-25.998032 -9.295013z" fill-rule="nonzero"></path><path fill="#ffffff" d="m420.56168 187.07086l51.996063 0l0 37.180054l-25.998016 9.295013l-25.998047 -9.295013z" fill-rule="nonzero"></path><path stroke="#000000" stroke-width="1.0" stroke-linejoin="round" stroke-linecap="butt" d="m420.56168 187.07086l51.996063 0l0 37.180054l-25.998016 9.295013l-25.998047 -9.295013z" fill-rule="nonzero"></path><path fill="#000000" fill-opacity="0.0" d="m420.56168 64.20998l31.80841 0l0 20.386353l-15.904205 5.096588l-15.904205 -5.096588z" fill-rule="nonzero"></path><path stroke="#000000" stroke-width="1.0" stroke-linejoin="round" stroke-linecap="butt" d="m420.56168 64.20998l31.80841 0l0 20.386353l-15.904205 5.096588l-15.904205 -5.096588z" fill-rule="nonzero"></path><path fill="#000000" fill-opacity="0.0" d="m465.97626 52.699303l138.74017 0l0 48.503937l-138.74017 0z" fill-rule="nonzero"></path><path fill="#434343" d="m479.0075 85.17877q0 0.09375 -0.046875 0.171875q-0.046875 0.0625 -0.171875 0.109375q-0.109375 0.046875 -0.3125 0.078125q-0.1875 0.03125 -0.46875 0.03125q-0.28125 0 -0.484375 -0.03125q-0.203125 -0.03125 -0.328125 -0.078125q-0.109375 -0.046875 -0.15625 -0.109375q-0.046875 -0.078125 -0.046875 -0.171875l0 -14.546875q0 -0.09375 0.046875 -0.15625q0.0625 -0.078125 0.1875 -0.109375q0.125 -0.046875 0.3125 -0.078125q0.1875 -0.03125 0.46875 -0.03125q0.28125 0 0.46875 0.03125q0.203125 0.03125 0.3125 0.078125q0.125 0.03125 0.171875 0.109375q0.046875 0.0625 0.046875 0.15625l0 14.546875zm12.890625 0.015625q0 0.09375 -0.046875 0.15625q-0.046875 0.0625 -0.15625 0.125q-0.09375 0.046875 -0.28125 0.0625q-0.1875 0.03125 -0.46875 0.03125q-0.296875 0 -0.484375 -0.03125q-0.1875 -0.015625 -0.296875 -0.0625q-0.109375 -0.0625 -0.15625 -0.125q-0.046875 -0.0625 -0.046875 -0.15625l0 -6.171875q0 -0.90625 -0.140625 -1.453125q-0.140625 -0.546875 -0.40625 -0.9375q-0.265625 -0.40625 -0.703125 -0.609375q-0.421875 -0.21875 -0.984375 -0.21875q-0.71875 0 -1.453125 0.515625q-0.71875 0.515625 -1.515625 1.5l0 7.375q0 0.09375 -0.046875 0.15625q-0.046875 0.0625 -0.15625 0.125q-0.109375 0.046875 -0.296875 0.0625q-0.1875 0.03125 -0.484375 0.03125q-0.28125 0 -0.46875 -0.03125q-0.1875 -0.015625 -0.296875 -0.0625q-0.109375 -0.0625 -0.15625 -0.125q-0.03125 -0.0625 -0.03125 -0.15625l0 -10.546875q0 -0.09375 0.03125 -0.15625q0.03125 -0.0625 0.140625 -0.109375q0.109375 -0.0625 0.265625 -0.078125q0.171875 -0.015625 0.4375 -0.015625q0.265625 0 0.421875 0.015625q0.171875 0.015625 0.265625 0.078125q0.09375 0.046875 0.140625 0.109375q0.046875 0.0625 0.046875 0.15625l0 1.390625q0.890625 -0.984375 1.765625 -1.453125q0.890625 -0.46875 1.796875 -0.46875q1.046875 0 1.765625 0.359375q0.71875 0.359375 1.15625 0.96875q0.453125 0.59375 0.640625 1.390625q0.203125 0.796875 0.203125 1.921875l0 6.4375zm5.6875 0.46875q0 1.171875 -0.1875 1.890625q-0.171875 0.734375 -0.546875 1.21875q-0.375 0.5 -0.96875 0.75q-0.578125 0.25 -1.40625 0.25q-0.375 0 -0.640625 -0.046875q-0.265625 -0.046875 -0.40625 -0.109375q-0.140625 -0.0625 -0.1875 -0.140625q-0.0625 -0.0625 -0.078125 -0.171875q-0.03125 -0.09375 -0.03125 -0.203125q0 -0.109375 0 -0.25q0 -0.21875 0.015625 -0.375q0.015625 -0.140625 0.0625 -0.234375q0.03125 -0.09375 0.09375 -0.140625q0.046875 -0.046875 0.125 -0.046875q0.078125 0 0.28125 0.03125q0.203125 0.03125 0.46875 0.03125q0.390625 0 0.65625 -0.125q0.28125 -0.109375 0.453125 -0.375q0.1875 -0.265625 0.265625 -0.6875q0.078125 -0.421875 0.078125 -1.265625l0 -11.015625q0 -0.078125 0.046875 -0.140625q0.046875 -0.078125 0.15625 -0.125q0.125 -0.046875 0.3125 -0.0625q0.1875 -0.03125 0.46875 -0.03125q0.28125 0 0.46875 0.03125q0.1875 0.015625 0.296875 0.0625q0.109375 0.046875 0.15625 0.125q0.046875 0.0625 0.046875 0.140625l0 11.015625zm0.21875 -14.578125q0 0.6875 -0.265625 0.9375q-0.25 0.234375 -0.9375 0.234375q-0.6875 0 -0.9375 -0.234375q-0.234375 -0.25 -0.234375 -0.90625q0 -0.6875 0.25 -0.921875q0.25 -0.25 0.9375 -0.25q0.703125 0 0.9375 0.234375q0.25 0.234375 0.25 0.90625zm12.3671875 8.375q0 0.46875 -0.234375 0.65625q-0.21875 0.1875 -0.515625 0.1875l-6.921875 0q0 0.890625 0.171875 1.59375q0.1875 0.703125 0.59375 1.203125q0.40625 0.5 1.0625 0.78125q0.65625 0.265625 1.609375 0.265625q0.75 0 1.328125 -0.125q0.59375 -0.125 1.015625 -0.28125q0.4375 -0.15625 0.703125 -0.265625q0.28125 -0.125 0.421875 -0.125q0.078125 0 0.140625 0.046875q0.078125 0.03125 0.109375 0.109375q0.03125 0.078125 0.046875 0.234375q0.015625 0.140625 0.015625 0.359375q0 0.140625 -0.015625 0.265625q0 0.109375 -0.015625 0.203125q-0.015625 0.078125 -0.0625 0.15625q-0.046875 0.0625 -0.109375 0.125q-0.0625 0.0625 -0.375 0.21875q-0.3125 0.140625 -0.828125 0.28125q-0.5 0.140625 -1.171875 0.25q-0.65625 0.109375 -1.40625 0.109375q-1.296875 0 -2.28125 -0.359375q-0.96875 -0.359375 -1.640625 -1.078125q-0.671875 -0.71875 -1.015625 -1.796875q-0.328125 -1.078125 -0.328125 -2.5q0 -1.359375 0.34375 -2.4375q0.359375 -1.09375 1.015625 -1.84375q0.671875 -0.765625 1.609375 -1.171875q0.9375 -0.40625 2.09375 -0.40625q1.234375 0 2.109375 0.40625q0.875 0.390625 1.4375 1.078125q0.5625 0.671875 0.828125 1.578125q0.265625 0.90625 0.265625 1.9375l0 0.34375zm-1.953125 -0.5625q0.046875 -1.53125 -0.671875 -2.390625q-0.703125 -0.875 -2.09375 -0.875q-0.71875 0 -1.265625 0.28125q-0.53125 0.265625 -0.90625 0.71875q-0.359375 0.4375 -0.5625 1.03125q-0.1875 0.578125 -0.21875 1.234375l5.71875 0zm12.472656 4.6875q0 0.203125 -0.015625 0.359375q0 0.140625 -0.03125 0.25q-0.03125 0.09375 -0.078125 0.171875q-0.03125 0.0625 -0.1875 0.21875q-0.140625 0.140625 -0.5 0.359375q-0.34375 0.21875 -0.78125 0.390625q-0.4375 0.171875 -0.953125 0.265625q-0.515625 0.109375 -1.078125 0.109375q-1.125 0 -2.015625 -0.375q-0.875 -0.375 -1.46875 -1.09375q-0.59375 -0.71875 -0.90625 -1.765625q-0.296875 -1.046875 -0.296875 -2.421875q0 -1.5625 0.375 -2.671875q0.375 -1.125 1.03125 -1.84375q0.671875 -0.71875 1.5625 -1.0625q0.90625 -0.34375 1.953125 -0.34375q0.5 0 0.96875 0.09375q0.484375 0.09375 0.875 0.25q0.40625 0.15625 0.703125 0.359375q0.3125 0.1875 0.453125 0.328125q0.140625 0.140625 0.1875 0.234375q0.0625 0.078125 0.09375 0.1875q0.046875 0.109375 0.046875 0.25q0.015625 0.140625 0.015625 0.34375q0 0.46875 -0.109375 0.65625q-0.09375 0.171875 -0.25 0.171875q-0.171875 0 -0.40625 -0.1875q-0.234375 -0.203125 -0.59375 -0.4375q-0.34375 -0.234375 -0.84375 -0.421875q-0.484375 -0.203125 -1.171875 -0.203125q-1.390625 0 -2.140625 1.078125q-0.734375 1.078125 -0.734375 3.109375q0 1.015625 0.1875 1.796875q0.1875 0.765625 0.5625 1.28125q0.375 0.515625 0.921875 0.765625q0.546875 0.25 1.25 0.25q0.671875 0 1.171875 -0.203125q0.5 -0.21875 0.875 -0.46875q0.375 -0.25 0.625 -0.453125q0.25 -0.21875 0.390625 -0.21875q0.078125 0 0.140625 0.046875q0.0625 0.046875 0.09375 0.171875q0.046875 0.109375 0.0625 0.28125q0.015625 0.15625 0.015625 0.390625zm8.0546875 0.84375q0 0.328125 -0.046875 0.53125q-0.046875 0.203125 -0.140625 0.296875q-0.09375 0.09375 -0.28125 0.1875q-0.1875 0.078125 -0.4375 0.125q-0.234375 0.046875 -0.5 0.078125q-0.265625 0.046875 -0.546875 0.046875q-0.8125 0 -1.40625 -0.21875q-0.578125 -0.21875 -0.953125 -0.65625q-0.375 -0.4375 -0.546875 -1.109375q-0.171875 -0.6875 -0.171875 -1.59375l0 -6.171875l-1.46875 0q-0.1875 0 -0.296875 -0.1875q-0.09375 -0.1875 -0.09375 -0.609375q0 -0.21875 0.03125 -0.359375q0.03125 -0.15625 0.078125 -0.25q0.046875 -0.109375 0.109375 -0.140625q0.078125 -0.046875 0.171875 -0.046875l1.46875 0l0 -2.515625q0 -0.078125 0.03125 -0.140625q0.046875 -0.078125 0.15625 -0.125q0.125 -0.0625 0.3125 -0.078125q0.1875 -0.03125 0.46875 -0.03125q0.28125 0 0.46875 0.03125q0.1875 0.015625 0.296875 0.078125q0.109375 0.046875 0.15625 0.125q0.046875 0.0625 0.046875 0.140625l0 2.515625l2.703125 0q0.09375 0 0.15625 0.046875q0.078125 0.03125 0.125 0.140625q0.0625 0.09375 0.078125 0.25q0.03125 0.140625 0.03125 0.359375q0 0.421875 -0.109375 0.609375q-0.109375 0.1875 -0.28125 0.1875l-2.703125 0l0 5.890625q0 1.09375 0.3125 1.65625q0.328125 0.546875 1.15625 0.546875q0.28125 0 0.484375 -0.046875q0.21875 -0.0625 0.375 -0.109375q0.171875 -0.0625 0.28125 -0.109375q0.125 -0.0625 0.21875 -0.0625q0.046875 0 0.09375 0.03125q0.0625 0.03125 0.09375 0.109375q0.03125 0.078125 0.046875 0.21875q0.03125 0.140625 0.03125 0.359375zm12.3671875 -4.625q0 1.296875 -0.34375 2.375q-0.34375 1.078125 -1.015625 1.875q-0.671875 0.78125 -1.6875 1.21875q-1.015625 0.4375 -2.34375 0.4375q-1.3125 0 -2.28125 -0.375q-0.953125 -0.390625 -1.609375 -1.125q-0.640625 -0.75 -0.953125 -1.796875q-0.3125 -1.0625 -0.3125 -2.390625q0 -1.296875 0.328125 -2.375q0.328125 -1.09375 1.0 -1.875q0.6875 -0.78125 1.6875 -1.21875q1.015625 -0.4375 2.359375 -0.4375q1.296875 0 2.265625 0.390625q0.96875 0.390625 1.609375 1.125q0.640625 0.734375 0.96875 1.796875q0.328125 1.046875 0.328125 2.375zm-2.046875 0.125q0 -0.84375 -0.15625 -1.609375q-0.15625 -0.765625 -0.53125 -1.328125q-0.359375 -0.578125 -0.984375 -0.90625q-0.609375 -0.34375 -1.53125 -0.34375q-0.859375 0 -1.484375 0.3125q-0.609375 0.296875 -1.015625 0.859375q-0.390625 0.546875 -0.59375 1.3125q-0.1875 0.765625 -0.1875 1.65625q0 0.875 0.15625 1.640625q0.171875 0.75 0.53125 1.328125q0.375 0.5625 0.984375 0.90625q0.625 0.328125 1.5625 0.328125q0.84375 0 1.453125 -0.296875q0.625 -0.3125 1.015625 -0.859375q0.40625 -0.5625 0.59375 -1.3125q0.1875 -0.765625 0.1875 -1.6875zm11.046875 -4.59375q0 0.265625 -0.015625 0.4375q0 0.171875 -0.046875 0.28125q-0.03125 0.09375 -0.078125 0.15625q-0.046875 0.046875 -0.140625 0.046875q-0.09375 0 -0.234375 -0.046875q-0.140625 -0.0625 -0.3125 -0.109375q-0.15625 -0.0625 -0.375 -0.109375q-0.203125 -0.046875 -0.453125 -0.046875q-0.296875 0 -0.578125 0.125q-0.28125 0.109375 -0.59375 0.390625q-0.3125 0.265625 -0.65625 0.71875q-0.328125 0.4375 -0.734375 1.078125l0 6.9375q0 0.09375 -0.046875 0.15625q-0.046875 0.0625 -0.15625 0.125q-0.109375 0.046875 -0.296875 0.0625q-0.1875 0.03125 -0.484375 0.03125q-0.28125 0 -0.46875 -0.03125q-0.1875 -0.015625 -0.296875 -0.0625q-0.109375 -0.0625 -0.15625 -0.125q-0.03125 -0.0625 -0.03125 -0.15625l0 -10.546875q0 -0.09375 0.03125 -0.15625q0.03125 -0.0625 0.140625 -0.109375q0.109375 -0.0625 0.265625 -0.078125q0.171875 -0.015625 0.4375 -0.015625q0.265625 0 0.421875 0.015625q0.171875 0.015625 0.265625 0.078125q0.09375 0.046875 0.140625 0.109375q0.046875 0.0625 0.046875 0.15625l0 1.53125q0.421875 -0.625 0.796875 -1.015625q0.390625 -0.40625 0.734375 -0.625q0.34375 -0.234375 0.671875 -0.328125q0.328125 -0.09375 0.671875 -0.09375q0.15625 0 0.34375 0.03125q0.203125 0.015625 0.40625 0.0625q0.21875 0.046875 0.375 0.109375q0.171875 0.046875 0.234375 0.109375q0.078125 0.0625 0.09375 0.109375q0.03125 0.046875 0.046875 0.140625q0.03125 0.078125 0.03125 0.234375q0 0.15625 0 0.421875z" fill-rule="nonzero"></path><path fill="#ffffff" d="m300.8294 319.95538l51.996063 0l0 37.180054l-25.998047 9.295013l-25.998016 -9.295013z" fill-rule="nonzero"></path><path stroke="#000000" stroke-width="1.0" stroke-linejoin="round" stroke-linecap="butt" d="m300.8294 319.95538l51.996063 0l0 37.180054l-25.998047 9.295013l-25.998016 -9.295013z" fill-rule="nonzero"></path><path fill="#ffffff" d="m552.7192 319.95538l51.996033 0l0 37.180054l-25.998047 9.295013l-25.997986 -9.295013z" fill-rule="nonzero"></path><path stroke="#000000" stroke-width="1.0" stroke-linejoin="round" stroke-linecap="butt" d="m552.7192 319.95538l51.996033 0l0 37.180054l-25.998047 9.295013l-25.997986 -9.295013z" fill-rule="nonzero"></path><path fill="#000000" fill-opacity="0.0" d="m295.73032 94.72966l150.83466 92.34645" fill-rule="nonzero"></path><path stroke="#434343" stroke-width="3.0" stroke-linejoin="round" stroke-linecap="butt" stroke-dasharray="12.0,9.0,3.0,9.0" d="m295.73032 94.72966l141.13766 86.40964" fill-rule="evenodd"></path><path fill="#434343" stroke="#434343" stroke-width="3.0" stroke-linecap="butt" d="m445.28568 186.2929c-1.4231262 2.3244781 -4.461151 3.0551605 -6.7856445 1.6320343c-2.324463 -1.4231262 -3.0551453 -4.4611664 -1.632019 -6.7856445c1.4231262 -2.3244781 4.461151 -3.0551605 6.7856445 -1.6320343c2.324463 1.4231262 3.0551453 4.4611664 1.632019 6.7856445z" fill-rule="nonzero"></path><path fill="#000000" fill-opacity="0.0" d="m295.73032 94.72966l-103.433075 88.06299" fill-rule="nonzero"></path><path stroke="#434343" stroke-width="3.0" stroke-linejoin="round" stroke-linecap="butt" stroke-dasharray="12.0,9.0,3.0,9.0" d="m295.73032 94.72966l-94.77582 80.6922" fill-rule="evenodd"></path><path fill="#434343" stroke="#434343" stroke-width="3.0" stroke-linecap="butt" d="m193.43936 181.82025c-1.766861 -2.0752563 -1.5168762 -5.189911 0.5583801 -6.956772c2.075241 -1.7668762 5.1898956 -1.5168762 6.956772 0.55836487c1.766861 2.0752563 1.5168762 5.189911 -0.5583801 6.956772c-2.075241 1.7668762 -5.1898956 1.5168762 -6.956772 -0.55836487z" fill-rule="nonzero"></path><path fill="#000000" fill-opacity="0.0" d="m446.55972 233.54593l-119.74805 86.4252" fill-rule="nonzero"></path><path stroke="#434343" stroke-width="3.0" stroke-linejoin="round" stroke-linecap="butt" stroke-dasharray="12.0,9.0,3.0,9.0" d="m446.55972 233.54593l-110.52844 79.77118" fill-rule="evenodd"></path><path fill="#434343" stroke="#434343" stroke-width="3.0" stroke-linecap="butt" d="m328.02798 319.0933c-1.5950317 -2.2100525 -1.0964966 -5.2946777 1.1135559 -6.88974c2.2100525 -1.5950317 5.2946777 -1.0964966 6.88974 1.1135559c1.5950317 2.2100525 1.0964966 5.2946777 -1.1135559 6.88974c-2.2100525 1.5950317 -5.2946777 1.0964966 -6.88974 -1.1135559z" fill-rule="nonzero"></path><path fill="#000000" fill-opacity="0.0" d="m446.55972 233.54593l132.15744 86.4252" fill-rule="nonzero"></path><path stroke="#434343" stroke-width="3.0" stroke-linejoin="round" stroke-linecap="butt" stroke-dasharray="12.0,9.0,3.0,9.0" d="m446.55972 233.54593l122.64157 80.20224" fill-rule="evenodd"></path><path fill="#434343" stroke="#434343" stroke-width="3.0" stroke-linecap="butt" d="m577.4618 319.15015c-1.4916992 2.281067 -4.550171 2.9209595 -6.831238 1.4292603c-2.281067 -1.4917297 -2.9209595 -4.550171 -1.4291992 -6.831238c1.4916992 -2.281067 4.55011 -2.9209595 6.8311768 -1.4292297c2.281067 1.4916992 2.9209595 4.5501404 1.4292603 6.8312073z" fill-rule="nonzero"></path></g></svg>

