<?xml version="1.0" standalone="yes"?>

<svg version="1.1" viewBox="0.0 0.0 607.8740157480315 366.43044619422574" fill="none" stroke="none" stroke-linecap="square" stroke-miterlimit="10" xmlns="http://www.w3.org/2000/svg" xmlns:xlink="http://www.w3.org/1999/xlink"><clipPath id="p.0"><path d="m0 0l607.874 0l0 366.43045l-607.874 0l0 -366.43045z" clip-rule="nonzero"></path></clipPath><g clip-path="url(#p.0)"><path fill="#000000" fill-opacity="0.0" d="m0 0l607.874 0l0 366.43045l-607.874 0z" fill-rule="evenodd"></path><path fill="#000000" fill-opacity="0.0" d="m410.86127 200.20998l83.68503 86.55119" fill-rule="evenodd"></path><path stroke="#434343" stroke-width="3.0" stroke-linejoin="round" stroke-linecap="butt" d="m410.86127 200.20998l75.78171 78.37718" fill-rule="evenodd"></path><path fill="#434343" stroke="#434343" stroke-width="3.0" stroke-linecap="butt" d="m493.50363 285.6828c-1.9593811 1.8945007 -5.083618 1.841919 -6.9781494 -0.117492676c-1.8945007 -1.9594116 -1.841919 -5.0836487 0.117492676 -6.9781494c1.9594116 -1.8945312 5.0836487 -1.841919 6.9781494 0.11746216c1.8945312 1.9594116 1.841919 5.0836487 -0.117492676 6.97818z" fill-rule="nonzero"></path><path fill="#000000" fill-opacity="0.0" d="m321.73 199.42258l-84.31494 87.33859" fill-rule="evenodd"></path><path stroke="#434343" stroke-width="3.0" stroke-linejoin="round" stroke-linecap="butt" d="m321.73004 199.42258l-76.418015 79.15842" fill-rule="evenodd"></path><path fill="#434343" stroke="#434343" stroke-width="3.0" stroke-linecap="butt" d="m238.45688 285.68198c-1.9608765 -1.8930054 -2.015915 -5.0171814 -0.122909546 -6.978058c1.8929901 -1.9608765 5.0171814 -2.0158997 6.978058 -0.122924805c1.9608765 1.8930054 2.015915 5.0171814 0.122909546 6.978058c-1.8929901 1.960907 -5.017166 2.0159302 -6.978058 0.122924805z" fill-rule="nonzero"></path><path fill="#000000" fill-opacity="0.0" d="m279.75592 64.20998l83.68503 86.55118" fill-rule="evenodd"></path><path stroke="#434343" stroke-width="3.0" stroke-linejoin="round" stroke-linecap="butt" d="m279.75592 64.20998l75.78168 78.37717" fill-rule="evenodd"></path><path fill="#434343" stroke="#434343" stroke-width="3.0" stroke-linecap="butt" d="m362.3983 149.68279c-1.9594116 1.8945312 -5.083618 1.841919 -6.9781494 -0.11747742c-1.8945312 -1.9594116 -1.841919 -5.0836334 0.117492676 -6.9781647c1.9594116 -1.894516 5.083618 -1.841919 6.9781494 0.117492676c1.8945312 1.9594116 1.841919 5.0836334 -0.117492676 6.9781494z" fill-rule="nonzero"></path><path fill="#000000" fill-opacity="0.0" d="m190.62466 63.422573l-84.31496 87.33858" fill-rule="evenodd"></path><path stroke="#434343" stroke-width="3.0" stroke-linejoin="round" stroke-linecap="butt" d="m190.62466 63.422573l-76.41799 79.15843" fill-rule="evenodd"></path><path fill="#434343" stroke="#434343" stroke-width="3.0" stroke-linecap="butt" d="m107.351524 149.68198c-1.9608765 -1.8929901 -2.0159073 -5.0171814 -0.122917175 -6.978058c1.8929977 -1.9608765 5.0171814 -2.015915 6.9780655 -0.122909546c1.9608765 1.8929901 2.0159073 5.017166 0.122917175 6.978058c-1.8929977 1.9608765 -5.0171814 2.015915 -6.9780655 0.122909546z" fill-rule="nonzero"></path><path fill="#005eb8" d="m17.380577 159.98444l0 0c0 -5.093872 4.129404 -9.223282 9.223282 -9.223282l159.41171 0c2.446167 0 4.792145 0.9717407 6.5218506 2.7014313c1.7296906 1.7297058 2.7014313 4.0756836 2.7014313 6.5218506l0 36.892014c0 5.0938873 -4.12941 9.223282 -9.223282 9.223282l-159.41171 0c-5.093878 0 -9.223282 -4.1293945 -9.223282 -9.223282z" fill-rule="evenodd"></path><path stroke="#434343" stroke-width="2.0" stroke-linejoin="round" stroke-linecap="butt" d="m17.380577 159.98444l0 0c0 -5.093872 4.129404 -9.223282 9.223282 -9.223282l159.41171 0c2.446167 0 4.792145 0.9717407 6.5218506 2.7014313c1.7296906 1.7297058 2.7014313 4.0756836 2.7014313 6.5218506l0 36.892014c0 5.0938873 -4.12941 9.223282 -9.223282 9.223282l-159.41171 0c-5.093878 0 -9.223282 -4.1293945 -9.223282 -9.223282z" fill-rule="evenodd"></path><path fill="#ffffff" d="m78.08315 187.29108q0 0.25 -0.015625 0.4375q-0.015625 0.1875 -0.0625 0.328125q-0.03125 0.140625 -0.09375 0.25q-0.0625 0.109375 -0.21875 0.265625q-0.15625 0.15625 -0.65625 0.484375q-0.5 0.3125 -1.25 0.625q-0.734375 0.296875 -1.703125 0.5q-0.953125 0.21875 -2.09375 0.21875q-1.96875 0 -3.5625 -0.65625q-1.578125 -0.65625 -2.703125 -1.9375q-1.109375 -1.28125 -1.71875 -3.15625q-0.59375 -1.890625 -0.59375 -4.34375q0 -2.515625 0.640625 -4.484375q0.65625 -1.96875 1.828125 -3.328125q1.171875 -1.375 2.796875 -2.09375q1.640625 -0.71875 3.625 -0.71875q0.875 0 1.703125 0.171875q0.828125 0.15625 1.53125 0.40625q0.703125 0.25 1.25 0.578125q0.546875 0.328125 0.75 0.546875q0.21875 0.203125 0.28125 0.3125q0.0625 0.109375 0.09375 0.265625q0.046875 0.140625 0.0625 0.34375q0.03125 0.203125 0.03125 0.484375q0 0.3125 -0.03125 0.53125q-0.03125 0.21875 -0.09375 0.375q-0.0625 0.140625 -0.15625 0.21875q-0.078125 0.0625 -0.203125 0.0625q-0.21875 0 -0.609375 -0.296875q-0.390625 -0.3125 -1.015625 -0.671875q-0.609375 -0.375 -1.5 -0.671875q-0.875 -0.3125 -2.109375 -0.3125q-1.34375 0 -2.453125 0.546875q-1.09375 0.53125 -1.875 1.578125q-0.78125 1.046875 -1.21875 2.5625q-0.421875 1.5 -0.421875 3.4375q0 1.921875 0.40625 3.40625q0.421875 1.46875 1.1875 2.46875q0.78125 0.984375 1.90625 1.5q1.125 0.5 2.546875 0.5q1.203125 0 2.09375 -0.296875q0.90625 -0.296875 1.53125 -0.65625q0.640625 -0.375 1.046875 -0.671875q0.40625 -0.296875 0.640625 -0.296875q0.109375 0 0.1875 0.046875q0.078125 0.046875 0.125 0.1875q0.046875 0.125 0.0625 0.359375q0.03125 0.234375 0.03125 0.59375zm15.375 2.46875q0 0.125 -0.0625 0.21875q-0.0625 0.078125 -0.203125 0.140625q-0.140625 0.0625 -0.390625 0.09375q-0.25 0.03125 -0.625 0.03125q-0.390625 0 -0.640625 -0.03125q-0.25 -0.03125 -0.390625 -0.09375q-0.140625 -0.0625 -0.203125 -0.140625q-0.0625 -0.09375 -0.0625 -0.21875l0 -8.234375q0 -1.203125 -0.1875 -1.9375q-0.1875 -0.734375 -0.546875 -1.265625q-0.359375 -0.53125 -0.9375 -0.8125q-0.5625 -0.28125 -1.3125 -0.28125q-0.96875 0 -1.9375 0.6875q-0.96875 0.6875 -2.03125 2.015625l0 9.828125q0 0.125 -0.0625 0.21875q-0.0625 0.078125 -0.203125 0.140625q-0.140625 0.0625 -0.390625 0.09375q-0.25 0.03125 -0.640625 0.03125q-0.375 0 -0.625 -0.03125q-0.25 -0.03125 -0.40625 -0.09375q-0.140625 -0.0625 -0.203125 -0.140625q-0.046875 -0.09375 -0.046875 -0.21875l0 -20.875q0 -0.125 0.046875 -0.21875q0.0625 -0.09375 0.203125 -0.15625q0.15625 -0.0625 0.40625 -0.09375q0.25 -0.03125 0.625 -0.03125q0.390625 0 0.640625 0.03125q0.25 0.03125 0.390625 0.09375q0.140625 0.0625 0.203125 0.15625q0.0625 0.09375 0.0625 0.21875l0 8.421875q1.109375 -1.171875 2.234375 -1.734375q1.125 -0.578125 2.265625 -0.578125q1.40625 0 2.359375 0.484375q0.96875 0.46875 1.5625 1.265625q0.59375 0.796875 0.84375 1.875q0.265625 1.0625 0.265625 2.578125l0 8.5625zm7.28125 0q0 0.125 -0.0625 0.21875q-0.0625 0.078125 -0.203125 0.140625q-0.140625 0.0625 -0.390625 0.09375q-0.25 0.03125 -0.640625 0.03125q-0.375 0 -0.625 -0.03125q-0.25 -0.03125 -0.40625 -0.09375q-0.140625 -0.0625 -0.203125 -0.140625q-0.046875 -0.09375 -0.046875 -0.21875l0 -14.0625q0 -0.109375 0.046875 -0.203125q0.0625 -0.09375 0.203125 -0.15625q0.15625 -0.0625 0.40625 -0.09375q0.25 -0.03125 0.625 -0.03125q0.390625 0 0.640625 0.03125q0.25 0.03125 0.390625 0.09375q0.140625 0.0625 0.203125 0.15625q0.0625 0.09375 0.0625 0.203125l0 14.0625zm0.296875 -18.8125q0 0.90625 -0.34375 1.234375q-0.34375 0.328125 -1.265625 0.328125q-0.90625 0 -1.25 -0.3125q-0.328125 -0.328125 -0.328125 -1.21875q0 -0.90625 0.34375 -1.234375q0.34375 -0.328125 1.265625 -0.328125q0.90625 0 1.234375 0.328125q0.34375 0.3125 0.34375 1.203125zm7.046875 18.8125q0 0.125 -0.0625 0.21875q-0.0625 0.078125 -0.203125 0.140625q-0.140625 0.0625 -0.390625 0.09375q-0.25 0.03125 -0.640625 0.03125q-0.375 0 -0.625 -0.03125q-0.25 -0.03125 -0.40625 -0.09375q-0.140625 -0.0625 -0.203125 -0.140625q-0.046875 -0.09375 -0.046875 -0.21875l0 -20.875q0 -0.125 0.046875 -0.21875q0.0625 -0.09375 0.203125 -0.15625q0.15625 -0.0625 0.40625 -0.09375q0.25 -0.03125 0.625 -0.03125q0.390625 0 0.640625 0.03125q0.25 0.03125 0.390625 0.09375q0.140625 0.0625 0.203125 0.15625q0.0625 0.09375 0.0625 0.21875l0 20.875zm16.8125 0q0 0.125 -0.0625 0.21875q-0.046875 0.09375 -0.1875 0.15625q-0.125 0.046875 -0.34375 0.078125q-0.21875 0.03125 -0.53125 0.03125q-0.328125 0 -0.546875 -0.03125q-0.21875 -0.03125 -0.359375 -0.078125q-0.140625 -0.0625 -0.203125 -0.15625q-0.0625 -0.09375 -0.0625 -0.21875l0 -1.859375q-1.109375 1.203125 -2.3125 1.875q-1.1875 0.671875 -2.609375 0.671875q-1.546875 0 -2.640625 -0.59375q-1.09375 -0.609375 -1.78125 -1.625q-0.671875 -1.03125 -0.984375 -2.40625q-0.3125 -1.390625 -0.3125 -2.921875q0 -1.8125 0.390625 -3.265625q0.390625 -1.46875 1.15625 -2.5q0.765625 -1.03125 1.890625 -1.578125q1.140625 -0.5625 2.625 -0.5625q1.234375 0 2.25 0.546875q1.03125 0.53125 2.03125 1.578125l0 -8.171875q0 -0.109375 0.046875 -0.203125q0.0625 -0.109375 0.21875 -0.15625q0.15625 -0.0625 0.390625 -0.09375q0.25 -0.046875 0.625 -0.046875q0.390625 0 0.640625 0.046875q0.25 0.03125 0.390625 0.09375q0.140625 0.046875 0.203125 0.15625q0.078125 0.09375 0.078125 0.203125l0 20.8125zm-2.59375 -9.890625q-1.046875 -1.296875 -2.03125 -1.96875q-0.96875 -0.6875 -2.03125 -0.6875q-0.984375 0 -1.671875 0.46875q-0.6875 0.46875 -1.125 1.234375q-0.421875 0.765625 -0.625 1.734375q-0.1875 0.96875 -0.1875 1.96875q0 1.0625 0.15625 2.078125q0.171875 1.015625 0.578125 1.8125q0.40625 0.78125 1.078125 1.265625q0.671875 0.46875 1.6875 0.46875q0.515625 0 0.984375 -0.140625q0.484375 -0.140625 0.984375 -0.46875q0.5 -0.328125 1.046875 -0.84375q0.546875 -0.53125 1.15625 -1.296875l0 -5.625zm26.687492 9.21875q0 0.296875 -0.046875 0.5q-0.046875 0.203125 -0.125 0.328125q-0.078125 0.125 -0.1875 0.1875q-0.09375 0.046875 -0.203125 0.046875l-10.5625 0q-0.109375 0 -0.203125 -0.046875q-0.09375 -0.0625 -0.1875 -0.1875q-0.078125 -0.125 -0.125 -0.328125q-0.046875 -0.203125 -0.046875 -0.5q0 -0.28125 0.046875 -0.484375q0.046875 -0.203125 0.109375 -0.328125q0.078125 -0.140625 0.171875 -0.203125q0.109375 -0.078125 0.234375 -0.078125l4.21875 0l0 -15.375l-3.90625 2.328125q-0.296875 0.15625 -0.484375 0.1875q-0.171875 0.03125 -0.28125 -0.0625q-0.109375 -0.109375 -0.15625 -0.34375q-0.03125 -0.234375 -0.03125 -0.59375q0 -0.265625 0.015625 -0.453125q0.03125 -0.1875 0.078125 -0.3125q0.046875 -0.125 0.125 -0.21875q0.09375 -0.09375 0.234375 -0.1875l4.65625 -2.984375q0.0625 -0.046875 0.15625 -0.078125q0.09375 -0.03125 0.234375 -0.0625q0.140625 -0.03125 0.328125 -0.03125q0.1875 -0.015625 0.46875 -0.015625q0.375 0 0.625 0.03125q0.25 0.03125 0.390625 0.09375q0.140625 0.046875 0.1875 0.140625q0.046875 0.078125 0.046875 0.171875l0 17.765625l3.65625 0q0.125 0 0.234375 0.078125q0.109375 0.0625 0.171875 0.203125q0.078125 0.125 0.109375 0.328125q0.046875 0.203125 0.046875 0.484375z" fill-rule="nonzero"></path><path fill="#005eb8" d="m168.19948 24.771837l0 0c0 -5.093878 4.1293945 -9.223281 9.223282 -9.223281l116.797516 0c2.446167 0 4.792145 0.97173595 6.5218506 2.701436c1.7297058 1.729702 2.7014465 4.07568 2.7014465 6.521845l0 36.89202c0 5.0938797 -4.1293945 9.223282 -9.223297 9.223282l-116.797516 0l0 0c-5.0938873 0 -9.223282 -4.129402 -9.223282 -9.223282z" fill-rule="evenodd"></path><path stroke="#434343" stroke-width="2.0" stroke-linejoin="round" stroke-linecap="butt" d="m168.19948 24.771837l0 0c0 -5.093878 4.1293945 -9.223281 9.223282 -9.223281l116.797516 0c2.446167 0 4.792145 0.97173595 6.5218506 2.701436c1.7297058 1.729702 2.7014465 4.07568 2.7014465 6.521845l0 36.89202c0 5.0938797 -4.1293945 9.223282 -9.223297 9.223282l-116.797516 0l0 0c-5.0938873 0 -9.223282 -4.129402 -9.223282 -9.223282z" fill-rule="evenodd"></path><path fill="#ffffff" d="m221.07152 54.531597q0 0.125 -0.046875 0.21875q-0.046875 0.09375 -0.203125 0.15625q-0.15625 0.0625 -0.4375 0.09375q-0.28125 0.03125 -0.75 0.03125q-0.40625 0 -0.671875 -0.03125q-0.25 -0.03125 -0.40625 -0.09375q-0.15625 -0.078125 -0.25 -0.203125q-0.078125 -0.125 -0.140625 -0.3125l-1.859375 -4.765625q-0.328125 -0.8125 -0.6875 -1.484375q-0.34375 -0.6875 -0.828125 -1.171875q-0.484375 -0.5 -1.140625 -0.765625q-0.65625 -0.28125 -1.578125 -0.28125l-1.796875 0l0 8.609375q0 0.125 -0.078125 0.21875q-0.0625 0.09375 -0.21875 0.15625q-0.140625 0.046875 -0.40625 0.078125q-0.25 0.046875 -0.640625 0.046875q-0.390625 0 -0.65625 -0.046875q-0.25 -0.03125 -0.40625 -0.078125q-0.15625 -0.0625 -0.21875 -0.15625q-0.0625 -0.09375 -0.0625 -0.21875l0 -18.71875q0 -0.609375 0.3125 -0.84375q0.328125 -0.25 0.6875 -0.25l4.296875 0q0.765625 0 1.265625 0.046875q0.515625 0.03125 0.921875 0.078125q1.171875 0.203125 2.0625 0.640625q0.90625 0.4375 1.515625 1.109375q0.609375 0.671875 0.90625 1.546875q0.3125 0.859375 0.3125 1.90625q0 1.015625 -0.28125 1.828125q-0.265625 0.796875 -0.78125 1.421875q-0.515625 0.609375 -1.234375 1.0625q-0.71875 0.453125 -1.609375 0.765625q0.5 0.21875 0.90625 0.5625q0.40625 0.328125 0.75 0.796875q0.359375 0.46875 0.671875 1.078125q0.3125 0.609375 0.625 1.375l1.8125 4.453125q0.21875 0.5625 0.28125 0.796875q0.0625 0.21875 0.0625 0.34375zm-4.046875 -14.203125q0 -1.1875 -0.53125 -2.0q-0.53125 -0.828125 -1.78125 -1.1875q-0.390625 -0.109375 -0.890625 -0.15625q-0.484375 -0.046875 -1.28125 -0.046875l-2.265625 0l0 6.8125l2.625 0q1.0625 0 1.828125 -0.25q0.78125 -0.265625 1.296875 -0.71875q0.515625 -0.46875 0.75 -1.09375q0.25 -0.625 0.25 -1.359375zm20.71875 7.03125q0 1.71875 -0.453125 3.171875q-0.453125 1.4375 -1.359375 2.484375q-0.890625 1.046875 -2.25 1.640625q-1.34375 0.578125 -3.125 0.578125q-1.734375 0 -3.03125 -0.515625q-1.28125 -0.515625 -2.140625 -1.5q-0.859375 -0.984375 -1.28125 -2.390625q-0.421875 -1.40625 -0.421875 -3.1875q0 -1.71875 0.4375 -3.15625q0.453125 -1.453125 1.34375 -2.5q0.90625 -1.046875 2.25 -1.625q1.34375 -0.578125 3.140625 -0.578125q1.734375 0 3.015625 0.515625q1.296875 0.515625 2.15625 1.5q0.859375 0.984375 1.28125 2.390625q0.4375 1.40625 0.4375 3.171875zm-2.71875 0.171875q0 -1.140625 -0.21875 -2.15625q-0.203125 -1.015625 -0.6875 -1.78125q-0.484375 -0.765625 -1.3125 -1.203125q-0.828125 -0.453125 -2.0625 -0.453125q-1.140625 0 -1.96875 0.40625q-0.8125 0.40625 -1.34375 1.15625q-0.53125 0.734375 -0.796875 1.75q-0.25 1.015625 -0.25 2.21875q0 1.15625 0.203125 2.171875q0.21875 1.015625 0.703125 1.78125q0.5 0.75 1.328125 1.203125q0.828125 0.4375 2.0625 0.4375q1.125 0 1.953125 -0.40625q0.828125 -0.40625 1.359375 -1.140625q0.53125 -0.734375 0.78125 -1.75q0.25 -1.015625 0.25 -2.234375zm19.59375 -0.171875q0 1.71875 -0.453125 3.171875q-0.453125 1.4375 -1.359375 2.484375q-0.890625 1.046875 -2.25 1.640625q-1.34375 0.578125 -3.125 0.578125q-1.734375 0 -3.03125 -0.515625q-1.28125 -0.515625 -2.140625 -1.5q-0.859375 -0.984375 -1.28125 -2.390625q-0.421875 -1.40625 -0.421875 -3.1875q0 -1.71875 0.4375 -3.15625q0.453125 -1.453125 1.34375 -2.5q0.90625 -1.046875 2.25 -1.625q1.34375 -0.578125 3.140625 -0.578125q1.734375 0 3.015625 0.515625q1.296875 0.515625 2.15625 1.5q0.859375 0.984375 1.28125 2.390625q0.4375 1.40625 0.4375 3.171875zm-2.71875 0.171875q0 -1.140625 -0.21875 -2.15625q-0.203125 -1.015625 -0.6875 -1.78125q-0.484375 -0.765625 -1.3125 -1.203125q-0.828125 -0.453125 -2.0625 -0.453125q-1.140625 0 -1.96875 0.40625q-0.8125 0.40625 -1.34375 1.15625q-0.53125 0.734375 -0.796875 1.75q-0.25 1.015625 -0.25 2.21875q0 1.15625 0.203125 2.171875q0.21875 1.015625 0.703125 1.78125q0.5 0.75 1.328125 1.203125q0.828125 0.4375 2.0625 0.4375q1.125 0 1.953125 -0.40625q0.828125 -0.40625 1.359375 -1.140625q0.53125 -0.734375 0.78125 -1.75q0.25 -1.015625 0.25 -2.234375zm13.82814 5.984375q0 0.453125 -0.0625 0.71875q-0.0625 0.265625 -0.1875 0.390625q-0.125 0.125 -0.375 0.234375q-0.25 0.109375 -0.578125 0.171875q-0.3125 0.078125 -0.671875 0.125q-0.359375 0.046875 -0.71875 0.046875q-1.09375 0 -1.875 -0.28125q-0.78125 -0.296875 -1.28125 -0.875q-0.5 -0.59375 -0.734375 -1.484375q-0.21875 -0.90625 -0.21875 -2.125l0 -8.21875l-1.96875 0q-0.234375 0 -0.375 -0.25q-0.140625 -0.25 -0.140625 -0.8125q0 -0.296875 0.03125 -0.5q0.046875 -0.203125 0.109375 -0.328125q0.0625 -0.140625 0.15625 -0.1875q0.109375 -0.0625 0.234375 -0.0625l1.953125 0l0 -3.34375q0 -0.109375 0.046875 -0.203125q0.0625 -0.09375 0.203125 -0.15625q0.15625 -0.078125 0.40625 -0.109375q0.25 -0.03125 0.625 -0.03125q0.390625 0 0.640625 0.03125q0.25 0.03125 0.390625 0.109375q0.140625 0.0625 0.203125 0.15625q0.0625 0.09375 0.0625 0.203125l0 3.34375l3.609375 0q0.125 0 0.21875 0.0625q0.09375 0.046875 0.15625 0.1875q0.078125 0.125 0.109375 0.328125q0.03125 0.203125 0.03125 0.5q0 0.5625 -0.140625 0.8125q-0.140625 0.25 -0.375 0.25l-3.609375 0l0 7.84375q0 1.453125 0.421875 2.203125q0.4375 0.734375 1.546875 0.734375q0.359375 0 0.640625 -0.0625q0.28125 -0.078125 0.5 -0.15625q0.21875 -0.078125 0.375 -0.140625q0.15625 -0.078125 0.28125 -0.078125q0.078125 0 0.140625 0.046875q0.078125 0.03125 0.109375 0.140625q0.046875 0.109375 0.078125 0.296875q0.03125 0.1875 0.03125 0.46875z" fill-rule="nonzero"></path><path fill="#000000" fill-opacity="0.0" d="m461.17847 5.28084l144.22046 0l0 48.503937l-144.22046 0z" fill-rule="evenodd"></path><path fill="#434343" d="m488.67847 37.00834q0 0.09375 -0.046875 0.171875q-0.046875 0.0625 -0.171875 0.109375q-0.109375 0.046875 -0.296875 0.078125q-0.171875 0.03125 -0.46875 0.03125q-0.265625 0 -0.46875 -0.03125q-0.1875 -0.03125 -0.296875 -0.078125q-0.109375 -0.046875 -0.15625 -0.109375q-0.046875 -0.078125 -0.046875 -0.171875l0 -13.203123l-0.015625 0l-5.40625 13.265623q-0.03125 0.078125 -0.109375 0.140625q-0.0625 0.0625 -0.1875 0.109375q-0.109375 0.03125 -0.28125 0.046875q-0.171875 0.03125 -0.40625 0.03125q-0.25 0 -0.421875 -0.03125q-0.171875 -0.015625 -0.296875 -0.0625q-0.109375 -0.046875 -0.1875 -0.09375q-0.0625 -0.0625 -0.078125 -0.140625l-5.171875 -13.265623l-0.015625 0l0 13.203123q0 0.09375 -0.046875 0.171875q-0.046875 0.0625 -0.171875 0.109375q-0.109375 0.046875 -0.296875 0.078125q-0.1875 0.03125 -0.46875 0.03125q-0.28125 0 -0.46875 -0.03125q-0.1875 -0.03125 -0.3125 -0.078125q-0.109375 -0.046875 -0.15625 -0.109375q-0.03125 -0.078125 -0.03125 -0.171875l0 -13.937498q0 -0.5 0.25 -0.703125q0.265625 -0.21875 0.578125 -0.21875l1.21875 0q0.375 0 0.65625 0.078125q0.28125 0.0625 0.484375 0.21875q0.21875 0.15625 0.359375 0.390625q0.140625 0.234375 0.25 0.546875l4.390625 10.984373l0.0625 0l4.578125 -10.953123q0.125 -0.34375 0.265625 -0.59375q0.15625 -0.25 0.34375 -0.390625q0.1875 -0.140625 0.40625 -0.203125q0.21875 -0.078125 0.515625 -0.078125l1.28125 0q0.171875 0 0.328125 0.0625q0.15625 0.046875 0.265625 0.15625q0.109375 0.109375 0.171875 0.28125q0.078125 0.171875 0.078125 0.421875l0 13.937498zm13.628906 -5.374998q0 1.2968731 -0.34375 2.374998q-0.34375 1.078125 -1.015625 1.875q-0.671875 0.78125 -1.6875 1.21875q-1.015625 0.4375 -2.34375 0.4375q-1.3125 0 -2.28125 -0.375q-0.953125 -0.390625 -1.609375 -1.125q-0.640625 -0.75 -0.953125 -1.796875q-0.3125 -1.0625 -0.3125 -2.390623q0 -1.296875 0.328125 -2.375q0.328125 -1.09375 1.0 -1.875q0.6875 -0.78125 1.6875 -1.21875q1.015625 -0.4375 2.359375 -0.4375q1.296875 0 2.265625 0.390625q0.96875 0.390625 1.609375 1.125q0.640625 0.734375 0.96875 1.796875q0.328125 1.046875 0.328125 2.375zm-2.046875 0.125q0 -0.84375 -0.15625 -1.609375q-0.15625 -0.765625 -0.53125 -1.328125q-0.359375 -0.578125 -0.984375 -0.90625q-0.609375 -0.34375 -1.53125 -0.34375q-0.859375 0 -1.484375 0.3125q-0.609375 0.296875 -1.015625 0.859375q-0.390625 0.546875 -0.59375 1.3125q-0.1875 0.765625 -0.1875 1.65625q0 0.8749981 0.15625 1.6406231q0.171875 0.75 0.53125 1.328125q0.375 0.5625 0.984375 0.90625q0.625 0.328125 1.5625 0.328125q0.84375 0 1.453125 -0.296875q0.625 -0.3125 1.015625 -0.859375q0.40625 -0.5625 0.59375 -1.3125q0.1875 -0.765625 0.1875 -1.6874981zm13.921875 5.265623q0 0.09375 -0.046875 0.171875q-0.03125 0.0625 -0.140625 0.109375q-0.09375 0.046875 -0.265625 0.0625q-0.15625 0.03125 -0.390625 0.03125q-0.25 0 -0.421875 -0.03125q-0.15625 -0.015625 -0.265625 -0.0625q-0.09375 -0.046875 -0.140625 -0.109375q-0.046875 -0.078125 -0.046875 -0.171875l0 -1.390625q-0.828125 0.90625 -1.734375 1.40625q-0.890625 0.5 -1.953125 0.5q-1.171875 0 -2.0 -0.453125q-0.8125 -0.453125 -1.328125 -1.21875q-0.5 -0.765625 -0.734375 -1.796875q-0.234375 -1.046875 -0.234375 -2.187498q0 -1.359375 0.296875 -2.453125q0.296875 -1.09375 0.859375 -1.859375q0.578125 -0.78125 1.421875 -1.203125q0.859375 -0.421875 1.96875 -0.421875q0.921875 0 1.6875 0.40625q0.78125 0.40625 1.53125 1.1875l0 -6.125q0 -0.078125 0.03125 -0.15625q0.046875 -0.078125 0.15625 -0.109375q0.125 -0.046875 0.296875 -0.078125q0.1875 -0.03125 0.46875 -0.03125q0.296875 0 0.484375 0.03125q0.1875 0.03125 0.28125 0.078125q0.109375 0.03125 0.15625 0.109375q0.0625 0.078125 0.0625 0.15625l0 15.609373zm-1.9375 -7.421873q-0.796875 -0.96875 -1.53125 -1.46875q-0.71875 -0.515625 -1.515625 -0.515625q-0.75 0 -1.265625 0.359375q-0.515625 0.34375 -0.84375 0.921875q-0.3125 0.5625 -0.46875 1.296875q-0.140625 0.71875 -0.140625 1.46875q0 0.7968731 0.125 1.5624981q0.125 0.765625 0.421875 1.359375q0.3125 0.59375 0.8125 0.953125q0.515625 0.34375 1.265625 0.34375q0.390625 0 0.75 -0.09375q0.359375 -0.109375 0.734375 -0.359375q0.375 -0.25 0.78125 -0.640625q0.40625 -0.390625 0.875 -0.96875l0 -4.218748zm14.546875 7.421873q0 0.09375 -0.046875 0.15625q-0.03125 0.0625 -0.140625 0.125q-0.109375 0.046875 -0.28125 0.0625q-0.15625 0.03125 -0.40625 0.03125q-0.265625 0 -0.4375 -0.03125q-0.171875 -0.015625 -0.28125 -0.0625q-0.09375 -0.0625 -0.125 -0.125q-0.03125 -0.0625 -0.03125 -0.15625l0 -1.390625q-0.90625 1.0 -1.796875 1.453125q-0.875 0.453125 -1.765625 0.453125q-1.0625 0 -1.78125 -0.34375q-0.71875 -0.359375 -1.171875 -0.953125q-0.4375 -0.609375 -0.640625 -1.40625q-0.1875 -0.8125 -0.1875 -1.953125l0 -6.406248q0 -0.09375 0.03125 -0.15625q0.046875 -0.0625 0.15625 -0.109375q0.125 -0.0625 0.3125 -0.078125q0.1875 -0.015625 0.46875 -0.015625q0.28125 0 0.46875 0.015625q0.1875 0.015625 0.296875 0.078125q0.125 0.046875 0.171875 0.109375q0.046875 0.0625 0.046875 0.15625l0 6.140623q0 0.921875 0.125 1.484375q0.140625 0.5625 0.40625 0.953125q0.28125 0.390625 0.703125 0.609375q0.421875 0.21875 0.984375 0.21875q0.734375 0 1.453125 -0.515625q0.71875 -0.515625 1.53125 -1.515625l0 -7.374998q0 -0.09375 0.03125 -0.15625q0.046875 -0.0625 0.15625 -0.109375q0.125 -0.0625 0.296875 -0.078125q0.1875 -0.015625 0.484375 -0.015625q0.28125 0 0.46875 0.015625q0.1875 0.015625 0.28125 0.078125q0.109375 0.046875 0.15625 0.109375q0.0625 0.0625 0.0625 0.15625l0 10.546873zm5.515625 0q0 0.09375 -0.046875 0.15625q-0.046875 0.0625 -0.15625 0.125q-0.109375 0.046875 -0.296875 0.0625q-0.1875 0.03125 -0.484375 0.03125q-0.28125 0 -0.46875 -0.03125q-0.1875 -0.015625 -0.296875 -0.0625q-0.109375 -0.0625 -0.15625 -0.125q-0.03125 -0.0625 -0.03125 -0.15625l0 -15.656248q0 -0.09375 0.03125 -0.15625q0.046875 -0.078125 0.15625 -0.125q0.109375 -0.046875 0.296875 -0.0625q0.1875 -0.03125 0.46875 -0.03125q0.296875 0 0.484375 0.03125q0.1875 0.015625 0.296875 0.0625q0.109375 0.046875 0.15625 0.125q0.046875 0.0625 0.046875 0.15625l0 15.656248zm12.5703125 -5.734373q0 0.46875 -0.234375 0.65625q-0.21875 0.1874981 -0.515625 0.1874981l-6.921875 0q0 0.890625 0.171875 1.59375q0.1875 0.703125 0.59375 1.203125q0.40625 0.5 1.0625 0.78125q0.65625 0.265625 1.609375 0.265625q0.75 0 1.328125 -0.125q0.59375 -0.125 1.015625 -0.28125q0.4375 -0.15625 0.703125 -0.265625q0.28125 -0.125 0.421875 -0.125q0.078125 0 0.140625 0.046875q0.078125 0.03125 0.109375 0.109375q0.03125 0.078125 0.046875 0.234375q0.015625 0.140625 0.015625 0.359375q0 0.140625 -0.015625 0.265625q0 0.109375 -0.015625 0.203125q-0.015625 0.078125 -0.0625 0.15625q-0.046875 0.0625 -0.109375 0.125q-0.0625 0.0625 -0.375 0.21875q-0.3125 0.140625 -0.828125 0.28125q-0.5 0.140625 -1.171875 0.25q-0.65625 0.109375 -1.40625 0.109375q-1.296875 0 -2.28125 -0.359375q-0.96875 -0.359375 -1.640625 -1.078125q-0.671875 -0.71875 -1.015625 -1.796875q-0.328125 -1.078125 -0.328125 -2.499998q0 -1.359375 0.34375 -2.4375q0.359375 -1.09375 1.015625 -1.84375q0.671875 -0.765625 1.609375 -1.171875q0.9375 -0.40625 2.09375 -0.40625q1.234375 0 2.109375 0.40625q0.875 0.390625 1.4375 1.078125q0.5625 0.671875 0.828125 1.578125q0.265625 0.90625 0.265625 1.9375l0 0.34375zm-1.953125 -0.5625q0.046875 -1.53125 -0.671875 -2.390625q-0.703125 -0.875 -2.09375 -0.875q-0.71875 0 -1.265625 0.28125q-0.53125 0.265625 -0.90625 0.71875q-0.359375 0.4375 -0.5625 1.03125q-0.1875 0.578125 -0.21875 1.234375l5.71875 0zm21.898438 5.874998q0.09375 0.265625 0.09375 0.421875q0.015625 0.15625 -0.078125 0.25q-0.09375 0.078125 -0.3125 0.09375q-0.21875 0.03125 -0.578125 0.03125q-0.375 0 -0.59375 -0.03125q-0.203125 -0.015625 -0.328125 -0.046875q-0.109375 -0.046875 -0.15625 -0.109375q-0.046875 -0.078125 -0.09375 -0.1875l-1.3125 -3.6875l-6.296875 0l-1.25 3.640625q-0.03125 0.109375 -0.09375 0.1875q-0.046875 0.078125 -0.171875 0.140625q-0.109375 0.046875 -0.3125 0.0625q-0.203125 0.03125 -0.53125 0.03125q-0.34375 0 -0.5625 -0.03125q-0.203125 -0.03125 -0.296875 -0.109375q-0.09375 -0.09375 -0.09375 -0.25q0.015625 -0.15625 0.109375 -0.421875l5.09375 -14.078123q0.046875 -0.125 0.109375 -0.203125q0.078125 -0.09375 0.21875 -0.140625q0.15625 -0.046875 0.375 -0.0625q0.234375 -0.015625 0.59375 -0.015625q0.375 0 0.609375 0.015625q0.25 0.015625 0.40625 0.0625q0.15625 0.046875 0.234375 0.140625q0.078125 0.078125 0.125 0.21875l5.09375 14.078123zm-6.53125 -12.437498l-0.015625 0l-2.609375 7.5625l5.28125 0l-2.65625 -7.5625z" fill-rule="nonzero"></path><path fill="#005eb8" d="m420.04462 29.532808l0 0c0 -9.149662 7.417267 -16.566929 16.566925 -16.566929l0 0c4.3938293 0 8.607697 1.7454395 11.7146 4.8523407c3.106903 3.106903 4.8523254 7.3207645 4.8523254 11.714588l0 0c0 9.149664 -7.417267 16.56693 -16.566925 16.56693l0 0c-9.149658 0 -16.566925 -7.417267 -16.566925 -16.56693z" fill-rule="evenodd"></path><path stroke="#434343" stroke-width="2.0" stroke-linejoin="round" stroke-linecap="butt" d="m420.04462 29.532808l0 0c0 -9.149662 7.417267 -16.566929 16.566925 -16.566929l0 0c4.3938293 0 8.607697 1.7454395 11.7146 4.8523407c3.106903 3.106903 4.8523254 7.3207645 4.8523254 11.714588l0 0c0 9.149664 -7.417267 16.56693 -16.566925 16.56693l0 0c-9.149658 0 -16.566925 -7.417267 -16.566925 -16.56693z" fill-rule="evenodd"></path><path fill="#38761d" d="m274.5118 159.98444l0 0c0 -5.093872 4.1293945 -9.223282 9.223297 -9.223282l159.41168 0c2.446167 0 4.792145 0.9717407 6.5218506 2.7014313c1.7297058 1.7297058 2.7014465 4.0756836 2.7014465 6.5218506l0 36.892014c0 5.0938873 -4.129425 9.223282 -9.223297 9.223282l-159.41168 0c-5.0939026 0 -9.223297 -4.1293945 -9.223297 -9.223282z" fill-rule="evenodd"></path><path stroke="#434343" stroke-width="2.0" stroke-linejoin="round" stroke-linecap="butt" d="m274.5118 159.98444l0 0c0 -5.093872 4.1293945 -9.223282 9.223297 -9.223282l159.41168 0c2.446167 0 4.792145 0.9717407 6.5218506 2.7014313c1.7297058 1.7297058 2.7014465 4.0756836 2.7014465 6.5218506l0 36.892014c0 5.0938873 -4.129425 9.223282 -9.223297 9.223282l-159.41168 0c-5.0939026 0 -9.223297 -4.1293945 -9.223297 -9.223282z" fill-rule="evenodd"></path><path fill="#ffffff" d="m335.2144 187.29108q0 0.25 -0.015625 0.4375q-0.015625 0.1875 -0.0625 0.328125q-0.03125 0.140625 -0.09375 0.25q-0.0625 0.109375 -0.21875 0.265625q-0.15625 0.15625 -0.65625 0.484375q-0.5 0.3125 -1.25 0.625q-0.734375 0.296875 -1.703125 0.5q-0.953125 0.21875 -2.09375 0.21875q-1.96875 0 -3.5625 -0.65625q-1.578125 -0.65625 -2.703125 -1.9375q-1.109375 -1.28125 -1.71875 -3.15625q-0.59375 -1.890625 -0.59375 -4.34375q0 -2.515625 0.640625 -4.484375q0.65625 -1.96875 1.828125 -3.328125q1.171875 -1.375 2.796875 -2.09375q1.640625 -0.71875 3.625 -0.71875q0.875 0 1.703125 0.171875q0.828125 0.15625 1.53125 0.40625q0.703125 0.25 1.25 0.578125q0.546875 0.328125 0.75 0.546875q0.21875 0.203125 0.28125 0.3125q0.0625 0.109375 0.09375 0.265625q0.046875 0.140625 0.0625 0.34375q0.03125 0.203125 0.03125 0.484375q0 0.3125 -0.03125 0.53125q-0.03125 0.21875 -0.09375 0.375q-0.0625 0.140625 -0.15625 0.21875q-0.078125 0.0625 -0.203125 0.0625q-0.21875 0 -0.609375 -0.296875q-0.390625 -0.3125 -1.015625 -0.671875q-0.609375 -0.375 -1.5 -0.671875q-0.875 -0.3125 -2.109375 -0.3125q-1.34375 0 -2.453125 0.546875q-1.09375 0.53125 -1.875 1.578125q-0.78125 1.046875 -1.21875 2.5625q-0.421875 1.5 -0.421875 3.4375q0 1.921875 0.40625 3.40625q0.421875 1.46875 1.1875 2.46875q0.78125 0.984375 1.90625 1.5q1.125 0.5 2.546875 0.5q1.203125 0 2.09375 -0.296875q0.90625 -0.296875 1.53125 -0.65625q0.640625 -0.375 1.046875 -0.671875q0.40625 -0.296875 0.640625 -0.296875q0.109375 0 0.1875 0.046875q0.078125 0.046875 0.125 0.1875q0.046875 0.125 0.0625 0.359375q0.03125 0.234375 0.03125 0.59375zm15.375 2.46875q0 0.125 -0.0625 0.21875q-0.0625 0.078125 -0.203125 0.140625q-0.140625 0.0625 -0.390625 0.09375q-0.25 0.03125 -0.625 0.03125q-0.390625 0 -0.640625 -0.03125q-0.25 -0.03125 -0.390625 -0.09375q-0.140625 -0.0625 -0.203125 -0.140625q-0.0625 -0.09375 -0.0625 -0.21875l0 -8.234375q0 -1.203125 -0.1875 -1.9375q-0.1875 -0.734375 -0.546875 -1.265625q-0.359375 -0.53125 -0.9375 -0.8125q-0.5625 -0.28125 -1.3125 -0.28125q-0.96875 0 -1.9375 0.6875q-0.96875 0.6875 -2.03125 2.015625l0 9.828125q0 0.125 -0.0625 0.21875q-0.0625 0.078125 -0.203125 0.140625q-0.140625 0.0625 -0.390625 0.09375q-0.25 0.03125 -0.640625 0.03125q-0.375 0 -0.625 -0.03125q-0.25 -0.03125 -0.40625 -0.09375q-0.140625 -0.0625 -0.203125 -0.140625q-0.046875 -0.09375 -0.046875 -0.21875l0 -20.875q0 -0.125 0.046875 -0.21875q0.0625 -0.09375 0.203125 -0.15625q0.15625 -0.0625 0.40625 -0.09375q0.25 -0.03125 0.625 -0.03125q0.390625 0 0.640625 0.03125q0.25 0.03125 0.390625 0.09375q0.140625 0.0625 0.203125 0.15625q0.0625 0.09375 0.0625 0.21875l0 8.421875q1.109375 -1.171875 2.234375 -1.734375q1.125 -0.578125 2.265625 -0.578125q1.40625 0 2.359375 0.484375q0.96875 0.46875 1.5625 1.265625q0.59375 0.796875 0.84375 1.875q0.265625 1.0625 0.265625 2.578125l0 8.5625zm7.28125 0q0 0.125 -0.0625 0.21875q-0.0625 0.078125 -0.203125 0.140625q-0.140625 0.0625 -0.390625 0.09375q-0.25 0.03125 -0.640625 0.03125q-0.375 0 -0.625 -0.03125q-0.25 -0.03125 -0.40625 -0.09375q-0.140625 -0.0625 -0.203125 -0.140625q-0.046875 -0.09375 -0.046875 -0.21875l0 -14.0625q0 -0.109375 0.046875 -0.203125q0.0625 -0.09375 0.203125 -0.15625q0.15625 -0.0625 0.40625 -0.09375q0.25 -0.03125 0.625 -0.03125q0.390625 0 0.640625 0.03125q0.25 0.03125 0.390625 0.09375q0.140625 0.0625 0.203125 0.15625q0.0625 0.09375 0.0625 0.203125l0 14.0625zm0.296875 -18.8125q0 0.90625 -0.34375 1.234375q-0.34375 0.328125 -1.265625 0.328125q-0.90625 0 -1.25 -0.3125q-0.328125 -0.328125 -0.328125 -1.21875q0 -0.90625 0.34375 -1.234375q0.34375 -0.328125 1.265625 -0.328125q0.90625 0 1.234375 0.328125q0.34375 0.3125 0.34375 1.203125zm7.046875 18.8125q0 0.125 -0.0625 0.21875q-0.0625 0.078125 -0.203125 0.140625q-0.140625 0.0625 -0.390625 0.09375q-0.25 0.03125 -0.640625 0.03125q-0.375 0 -0.625 -0.03125q-0.25 -0.03125 -0.40625 -0.09375q-0.140625 -0.0625 -0.203125 -0.140625q-0.046875 -0.09375 -0.046875 -0.21875l0 -20.875q0 -0.125 0.046875 -0.21875q0.0625 -0.09375 0.203125 -0.15625q0.15625 -0.0625 0.40625 -0.09375q0.25 -0.03125 0.625 -0.03125q0.390625 0 0.640625 0.03125q0.25 0.03125 0.390625 0.09375q0.140625 0.0625 0.203125 0.15625q0.0625 0.09375 0.0625 0.21875l0 20.875zm16.8125 0q0 0.125 -0.0625 0.21875q-0.046875 0.09375 -0.1875 0.15625q-0.125 0.046875 -0.34375 0.078125q-0.21875 0.03125 -0.53125 0.03125q-0.328125 0 -0.546875 -0.03125q-0.21875 -0.03125 -0.359375 -0.078125q-0.140625 -0.0625 -0.203125 -0.15625q-0.0625 -0.09375 -0.0625 -0.21875l0 -1.859375q-1.109375 1.203125 -2.3125 1.875q-1.1875 0.671875 -2.609375 0.671875q-1.546875 0 -2.640625 -0.59375q-1.09375 -0.609375 -1.78125 -1.625q-0.671875 -1.03125 -0.984375 -2.40625q-0.3125 -1.390625 -0.3125 -2.921875q0 -1.8125 0.390625 -3.265625q0.390625 -1.46875 1.15625 -2.5q0.765625 -1.03125 1.890625 -1.578125q1.140625 -0.5625 2.625 -0.5625q1.234375 0 2.25 0.546875q1.03125 0.53125 2.03125 1.578125l0 -8.171875q0 -0.109375 0.046875 -0.203125q0.0625 -0.109375 0.21875 -0.15625q0.15625 -0.0625 0.390625 -0.09375q0.25 -0.046875 0.625 -0.046875q0.390625 0 0.640625 0.046875q0.25 0.03125 0.390625 0.09375q0.140625 0.046875 0.203125 0.15625q0.078125 0.09375 0.078125 0.203125l0 20.8125zm-2.59375 -9.890625q-1.046875 -1.296875 -2.03125 -1.96875q-0.96875 -0.6875 -2.03125 -0.6875q-0.984375 0 -1.671875 0.46875q-0.6875 0.46875 -1.125 1.234375q-0.421875 0.765625 -0.625 1.734375q-0.1875 0.96875 -0.1875 1.96875q0 1.0625 0.15625 2.078125q0.171875 1.015625 0.578125 1.8125q0.40625 0.78125 1.078125 1.265625q0.671875 0.46875 1.6875 0.46875q0.515625 0 0.984375 -0.140625q0.484375 -0.140625 0.984375 -0.46875q0.5 -0.328125 1.046875 -0.84375q0.546875 -0.53125 1.15625 -1.296875l0 -5.625zm26.640625 9.125q0 0.28125 -0.046875 0.5q-0.03125 0.21875 -0.109375 0.375q-0.0625 0.140625 -0.1875 0.21875q-0.109375 0.0625 -0.25 0.0625l-11.171875 0q-0.21875 0 -0.390625 -0.046875q-0.15625 -0.0625 -0.28125 -0.1875q-0.109375 -0.125 -0.171875 -0.359375q-0.046875 -0.234375 -0.046875 -0.578125q0 -0.3125 0.015625 -0.546875q0.03125 -0.234375 0.109375 -0.40625q0.078125 -0.1875 0.1875 -0.359375q0.125 -0.1875 0.3125 -0.390625l3.921875 -4.15625q1.359375 -1.4375 2.171875 -2.578125q0.828125 -1.140625 1.265625 -2.078125q0.453125 -0.9375 0.59375 -1.703125q0.140625 -0.765625 0.140625 -1.4375q0 -0.671875 -0.21875 -1.265625q-0.21875 -0.609375 -0.640625 -1.0625q-0.40625 -0.453125 -1.03125 -0.71875q-0.625 -0.265625 -1.4375 -0.265625q-0.953125 0 -1.71875 0.265625q-0.75 0.265625 -1.328125 0.578125q-0.5625 0.3125 -0.953125 0.578125q-0.375 0.265625 -0.5625 0.265625q-0.109375 0 -0.203125 -0.0625q-0.078125 -0.0625 -0.140625 -0.203125q-0.046875 -0.140625 -0.078125 -0.375q-0.03125 -0.234375 -0.03125 -0.5625q0 -0.234375 0.015625 -0.40625q0.015625 -0.171875 0.046875 -0.296875q0.046875 -0.125 0.109375 -0.234375q0.0625 -0.109375 0.25 -0.265625q0.1875 -0.171875 0.640625 -0.453125q0.46875 -0.28125 1.15625 -0.546875q0.703125 -0.28125 1.53125 -0.46875q0.84375 -0.1875 1.765625 -0.1875q1.46875 0 2.5625 0.421875q1.109375 0.40625 1.828125 1.125q0.734375 0.71875 1.09375 1.671875q0.359375 0.953125 0.359375 2.03125q0 0.96875 -0.171875 1.9375q-0.171875 0.953125 -0.734375 2.078125q-0.546875 1.109375 -1.59375 2.484375q-1.046875 1.359375 -2.78125 3.140625l-3.203125 3.34375l8.796875 0q0.125 0 0.234375 0.078125q0.125 0.0625 0.203125 0.203125q0.09375 0.140625 0.125 0.359375q0.046875 0.203125 0.046875 0.484375z" fill-rule="nonzero"></path><path fill="#000000" fill-opacity="0.0" d="m461.17847 45.280838l144.22046 0l0 48.503937l-144.22046 0z" fill-rule="evenodd"></path><path fill="#434343" d="m488.67847 77.00834q0 0.09375 -0.046875 0.171875q-0.046875 0.0625 -0.171875 0.109375q-0.109375 0.046875 -0.296875 0.078125q-0.171875 0.03125 -0.46875 0.03125q-0.265625 0 -0.46875 -0.03125q-0.1875 -0.03125 -0.296875 -0.078125q-0.109375 -0.046875 -0.15625 -0.109375q-0.046875 -0.078125 -0.046875 -0.171875l0 -13.203125l-0.015625 0l-5.40625 13.265625q-0.03125 0.078125 -0.109375 0.140625q-0.0625 0.0625 -0.1875 0.109375q-0.109375 0.03125 -0.28125 0.046875q-0.171875 0.03125 -0.40625 0.03125q-0.25 0 -0.421875 -0.03125q-0.171875 -0.015625 -0.296875 -0.0625q-0.109375 -0.046875 -0.1875 -0.09375q-0.0625 -0.0625 -0.078125 -0.140625l-5.171875 -13.265625l-0.015625 0l0 13.203125q0 0.09375 -0.046875 0.171875q-0.046875 0.0625 -0.171875 0.109375q-0.109375 0.046875 -0.296875 0.078125q-0.1875 0.03125 -0.46875 0.03125q-0.28125 0 -0.46875 -0.03125q-0.1875 -0.03125 -0.3125 -0.078125q-0.109375 -0.046875 -0.15625 -0.109375q-0.03125 -0.078125 -0.03125 -0.171875l0 -13.9375q0 -0.5 0.25 -0.703125q0.265625 -0.21875 0.578125 -0.21875l1.21875 0q0.375 0 0.65625 0.078125q0.28125 0.0625 0.484375 0.21875q0.21875 0.15625 0.359375 0.390625q0.140625 0.234375 0.25 0.546875l4.390625 10.984375l0.0625 0l4.578125 -10.953125q0.125 -0.34375 0.265625 -0.59375q0.15625 -0.25 0.34375 -0.390625q0.1875 -0.140625 0.40625 -0.203125q0.21875 -0.078125 0.515625 -0.078125l1.28125 0q0.171875 0 0.328125 0.0625q0.15625 0.046875 0.265625 0.15625q0.109375 0.109375 0.171875 0.28125q0.078125 0.171875 0.078125 0.421875l0 13.9375zm13.628906 -5.375q0 1.296875 -0.34375 2.375q-0.34375 1.078125 -1.015625 1.875q-0.671875 0.78125 -1.6875 1.21875q-1.015625 0.4375 -2.34375 0.4375q-1.3125 0 -2.28125 -0.375q-0.953125 -0.390625 -1.609375 -1.125q-0.640625 -0.75 -0.953125 -1.796875q-0.3125 -1.0625 -0.3125 -2.390625q0 -1.296875 0.328125 -2.375q0.328125 -1.09375 1.0 -1.875q0.6875 -0.78125 1.6875 -1.21875q1.015625 -0.4375 2.359375 -0.4375q1.296875 0 2.265625 0.390625q0.96875 0.390625 1.609375 1.125q0.640625 0.734375 0.96875 1.796875q0.328125 1.046875 0.328125 2.375zm-2.046875 0.125q0 -0.84375 -0.15625 -1.609375q-0.15625 -0.765625 -0.53125 -1.328125q-0.359375 -0.578125 -0.984375 -0.90625q-0.609375 -0.34375 -1.53125 -0.34375q-0.859375 0 -1.484375 0.3125q-0.609375 0.296875 -1.015625 0.859375q-0.390625 0.546875 -0.59375 1.3125q-0.1875 0.765625 -0.1875 1.65625q0 0.875 0.15625 1.640625q0.171875 0.75 0.53125 1.328125q0.375 0.5625 0.984375 0.90625q0.625 0.328125 1.5625 0.328125q0.84375 0 1.453125 -0.296875q0.625 -0.3125 1.015625 -0.859375q0.40625 -0.5625 0.59375 -1.3125q0.1875 -0.765625 0.1875 -1.6875zm13.921875 5.265625q0 0.09375 -0.046875 0.171875q-0.03125 0.0625 -0.140625 0.109375q-0.09375 0.046875 -0.265625 0.0625q-0.15625 0.03125 -0.390625 0.03125q-0.25 0 -0.421875 -0.03125q-0.15625 -0.015625 -0.265625 -0.0625q-0.09375 -0.046875 -0.140625 -0.109375q-0.046875 -0.078125 -0.046875 -0.171875l0 -1.390625q-0.828125 0.90625 -1.734375 1.40625q-0.890625 0.5 -1.953125 0.5q-1.171875 0 -2.0 -0.453125q-0.8125 -0.453125 -1.328125 -1.21875q-0.5 -0.765625 -0.734375 -1.796875q-0.234375 -1.046875 -0.234375 -2.1875q0 -1.359375 0.296875 -2.453125q0.296875 -1.09375 0.859375 -1.859375q0.578125 -0.78125 1.421875 -1.203125q0.859375 -0.421875 1.96875 -0.421875q0.921875 0 1.6875 0.40625q0.78125 0.40625 1.53125 1.1875l0 -6.125q0 -0.078125 0.03125 -0.15625q0.046875 -0.078125 0.15625 -0.109375q0.125 -0.046875 0.296875 -0.078125q0.1875 -0.03125 0.46875 -0.03125q0.296875 0 0.484375 0.03125q0.1875 0.03125 0.28125 0.078125q0.109375 0.03125 0.15625 0.109375q0.0625 0.078125 0.0625 0.15625l0 15.609375zm-1.9375 -7.421875q-0.796875 -0.96875 -1.53125 -1.46875q-0.71875 -0.515625 -1.515625 -0.515625q-0.75 0 -1.265625 0.359375q-0.515625 0.34375 -0.84375 0.921875q-0.3125 0.5625 -0.46875 1.296875q-0.140625 0.71875 -0.140625 1.46875q0 0.796875 0.125 1.5625q0.125 0.765625 0.421875 1.359375q0.3125 0.59375 0.8125 0.953125q0.515625 0.34375 1.265625 0.34375q0.390625 0 0.75 -0.09375q0.359375 -0.109375 0.734375 -0.359375q0.375 -0.25 0.78125 -0.640625q0.40625 -0.390625 0.875 -0.96875l0 -4.21875zm14.546875 7.421875q0 0.09375 -0.046875 0.15625q-0.03125 0.0625 -0.140625 0.125q-0.109375 0.046875 -0.28125 0.0625q-0.15625 0.03125 -0.40625 0.03125q-0.265625 0 -0.4375 -0.03125q-0.171875 -0.015625 -0.28125 -0.0625q-0.09375 -0.0625 -0.125 -0.125q-0.03125 -0.0625 -0.03125 -0.15625l0 -1.390625q-0.90625 1.0 -1.796875 1.453125q-0.875 0.453125 -1.765625 0.453125q-1.0625 0 -1.78125 -0.34375q-0.71875 -0.359375 -1.171875 -0.953125q-0.4375 -0.609375 -0.640625 -1.40625q-0.1875 -0.8125 -0.1875 -1.953125l0 -6.40625q0 -0.09375 0.03125 -0.15625q0.046875 -0.0625 0.15625 -0.109375q0.125 -0.0625 0.3125 -0.078125q0.1875 -0.015625 0.46875 -0.015625q0.28125 0 0.46875 0.015625q0.1875 0.015625 0.296875 0.078125q0.125 0.046875 0.171875 0.109375q0.046875 0.0625 0.046875 0.15625l0 6.140625q0 0.921875 0.125 1.484375q0.140625 0.5625 0.40625 0.953125q0.28125 0.390625 0.703125 0.609375q0.421875 0.21875 0.984375 0.21875q0.734375 0 1.453125 -0.515625q0.71875 -0.515625 1.53125 -1.515625l0 -7.375q0 -0.09375 0.03125 -0.15625q0.046875 -0.0625 0.15625 -0.109375q0.125 -0.0625 0.296875 -0.078125q0.1875 -0.015625 0.484375 -0.015625q0.28125 0 0.46875 0.015625q0.1875 0.015625 0.28125 0.078125q0.109375 0.046875 0.15625 0.109375q0.0625 0.0625 0.0625 0.15625l0 10.546875zm5.515625 0q0 0.09375 -0.046875 0.15625q-0.046875 0.0625 -0.15625 0.125q-0.109375 0.046875 -0.296875 0.0625q-0.1875 0.03125 -0.484375 0.03125q-0.28125 0 -0.46875 -0.03125q-0.1875 -0.015625 -0.296875 -0.0625q-0.109375 -0.0625 -0.15625 -0.125q-0.03125 -0.0625 -0.03125 -0.15625l0 -15.65625q0 -0.09375 0.03125 -0.15625q0.046875 -0.078125 0.15625 -0.125q0.109375 -0.046875 0.296875 -0.0625q0.1875 -0.03125 0.46875 -0.03125q0.296875 0 0.484375 0.03125q0.1875 0.015625 0.296875 0.0625q0.109375 0.046875 0.15625 0.125q0.046875 0.0625 0.046875 0.15625l0 15.65625zm12.5703125 -5.734375q0 0.46875 -0.234375 0.65625q-0.21875 0.1875 -0.515625 0.1875l-6.921875 0q0 0.890625 0.171875 1.59375q0.1875 0.703125 0.59375 1.203125q0.40625 0.5 1.0625 0.78125q0.65625 0.265625 1.609375 0.265625q0.75 0 1.328125 -0.125q0.59375 -0.125 1.015625 -0.28125q0.4375 -0.15625 0.703125 -0.265625q0.28125 -0.125 0.421875 -0.125q0.078125 0 0.140625 0.046875q0.078125 0.03125 0.109375 0.109375q0.03125 0.078125 0.046875 0.234375q0.015625 0.140625 0.015625 0.359375q0 0.140625 -0.015625 0.265625q0 0.109375 -0.015625 0.203125q-0.015625 0.078125 -0.0625 0.15625q-0.046875 0.0625 -0.109375 0.125q-0.0625 0.0625 -0.375 0.21875q-0.3125 0.140625 -0.828125 0.28125q-0.5 0.140625 -1.171875 0.25q-0.65625 0.109375 -1.40625 0.109375q-1.296875 0 -2.28125 -0.359375q-0.96875 -0.359375 -1.640625 -1.078125q-0.671875 -0.71875 -1.015625 -1.796875q-0.328125 -1.078125 -0.328125 -2.5q0 -1.359375 0.34375 -2.4375q0.359375 -1.09375 1.015625 -1.84375q0.671875 -0.765625 1.609375 -1.171875q0.9375 -0.40625 2.09375 -0.40625q1.234375 0 2.109375 0.40625q0.875 0.390625 1.4375 1.078125q0.5625 0.671875 0.828125 1.578125q0.265625 0.90625 0.265625 1.9375l0 0.34375zm-1.953125 -0.5625q0.046875 -1.53125 -0.671875 -2.390625q-0.703125 -0.875 -2.09375 -0.875q-0.71875 0 -1.265625 0.28125q-0.53125 0.265625 -0.90625 0.71875q-0.359375 0.4375 -0.5625 1.03125q-0.1875 0.578125 -0.21875 1.234375l5.71875 0zm20.539062 2.25q0 0.703125 -0.1875 1.3125q-0.171875 0.609375 -0.5 1.09375q-0.328125 0.46875 -0.796875 0.84375q-0.46875 0.359375 -1.046875 0.609375q-0.578125 0.234375 -1.25 0.359375q-0.65625 0.125 -1.5 0.125l-3.96875 0q-0.265625 0 -0.515625 -0.171875q-0.234375 -0.1875 -0.234375 -0.65625l0 -13.515625q0 -0.453125 0.234375 -0.640625q0.25 -0.1875 0.515625 -0.1875l3.453125 0q1.359375 0 2.21875 0.265625q0.875 0.25 1.453125 0.75q0.578125 0.484375 0.859375 1.203125q0.296875 0.71875 0.296875 1.625q0 0.53125 -0.125 1.03125q-0.125 0.484375 -0.375 0.90625q-0.25 0.40625 -0.640625 0.734375q-0.375 0.328125 -0.875 0.546875q0.625 0.109375 1.15625 0.421875q0.546875 0.3125 0.953125 0.796875q0.40625 0.484375 0.640625 1.125q0.234375 0.640625 0.234375 1.421875zm-3.03125 -6.796875q0 -0.546875 -0.15625 -0.984375q-0.15625 -0.453125 -0.484375 -0.765625q-0.328125 -0.3125 -0.859375 -0.46875q-0.515625 -0.171875 -1.390625 -0.171875l-2.078125 0l0 4.921875l2.296875 0q0.78125 0 1.25 -0.203125q0.484375 -0.21875 0.796875 -0.5625q0.328125 -0.34375 0.46875 -0.796875q0.15625 -0.46875 0.15625 -0.96875zm0.90625 6.90625q0 -0.671875 -0.21875 -1.1875q-0.21875 -0.515625 -0.640625 -0.859375q-0.40625 -0.359375 -1.03125 -0.546875q-0.625 -0.1875 -1.578125 -0.1875l-2.40625 0l0 5.34375l2.921875 0q0.6875 0 1.203125 -0.15625q0.515625 -0.171875 0.90625 -0.484375q0.40625 -0.328125 0.625 -0.796875q0.21875 -0.484375 0.21875 -1.125z" fill-rule="nonzero"></path><path fill="#38761d" d="m420.04462 69.53281l0 0c0 -9.149662 7.417267 -16.566929 16.566925 -16.566929l0 0c4.3938293 0 8.607697 1.7454414 11.7146 4.8523445c3.106903 3.1068993 4.8523254 7.3207626 4.8523254 11.714584l0 0c0 9.149666 -7.417267 16.566933 -16.566925 16.566933l0 0c-9.149658 0 -16.566925 -7.417267 -16.566925 -16.566933z" fill-rule="evenodd"></path><path stroke="#434343" stroke-width="2.0" stroke-linejoin="round" stroke-linecap="butt" d="m420.04462 69.53281l0 0c0 -9.149662 7.417267 -16.566929 16.566925 -16.566929l0 0c4.3938293 0 8.607697 1.7454414 11.7146 4.8523445c3.106903 3.1068993 4.8523254 7.3207626 4.8523254 11.714584l0 0c0 9.149666 -7.417267 16.566933 -16.566925 16.566933l0 0c-9.149658 0 -16.566925 -7.417267 -16.566925 -16.566933z" fill-rule="evenodd"></path><path fill="#38761d" d="m148.48593 295.98444l0 0c0 -5.093872 4.12941 -9.223267 9.223282 -9.223267l159.4117 0c2.446167 0 4.792145 0.9717102 6.5218506 2.701416c1.7297058 1.7297058 2.7014465 4.0756836 2.7014465 6.5218506l0 36.89203c0 5.093872 -4.129425 9.223267 -9.223297 9.223267l-159.4117 0c-5.093872 0 -9.223282 -4.1293945 -9.223282 -9.223267z" fill-rule="evenodd"></path><path stroke="#434343" stroke-width="2.0" stroke-linejoin="round" stroke-linecap="butt" d="m148.48593 295.98444l0 0c0 -5.093872 4.12941 -9.223267 9.223282 -9.223267l159.4117 0c2.446167 0 4.792145 0.9717102 6.5218506 2.701416c1.7297058 1.7297058 2.7014465 4.0756836 2.7014465 6.5218506l0 36.89203c0 5.093872 -4.129425 9.223267 -9.223297 9.223267l-159.4117 0c-5.093872 0 -9.223282 -4.1293945 -9.223282 -9.223267z" fill-rule="evenodd"></path><path fill="#ffffff" d="m196.1807 323.29108q0 0.25 -0.015625 0.4375q-0.015625 0.1875 -0.0625 0.328125q-0.03125 0.140625 -0.09375 0.25q-0.0625 0.109375 -0.21875 0.265625q-0.15625 0.15625 -0.65625 0.484375q-0.5 0.3125 -1.25 0.625q-0.734375 0.296875 -1.703125 0.5q-0.953125 0.21875 -2.09375 0.21875q-1.96875 0 -3.5625 -0.65625q-1.578125 -0.65625 -2.703125 -1.9375q-1.109375 -1.28125 -1.71875 -3.15625q-0.59375 -1.890625 -0.59375 -4.34375q0 -2.515625 0.640625 -4.484375q0.65625 -1.96875 1.828125 -3.328125q1.171875 -1.375 2.796875 -2.09375q1.640625 -0.71875 3.625 -0.71875q0.875 0 1.703125 0.171875q0.828125 0.15625 1.53125 0.40625q0.703125 0.25 1.25 0.578125q0.546875 0.328125 0.75 0.546875q0.21875 0.203125 0.28125 0.3125q0.0625 0.109375 0.09375 0.265625q0.046875 0.140625 0.0625 0.34375q0.03125 0.203125 0.03125 0.484375q0 0.3125 -0.03125 0.53125q-0.03125 0.21875 -0.09375 0.375q-0.0625 0.140625 -0.15625 0.21875q-0.078125 0.0625 -0.203125 0.0625q-0.21875 0 -0.609375 -0.296875q-0.390625 -0.3125 -1.015625 -0.671875q-0.609375 -0.375 -1.5 -0.671875q-0.875 -0.3125 -2.109375 -0.3125q-1.34375 0 -2.453125 0.546875q-1.09375 0.53125 -1.875 1.578125q-0.78125 1.046875 -1.21875 2.5625q-0.421875 1.5 -0.421875 3.4375q0 1.921875 0.40625 3.40625q0.421875 1.46875 1.1875 2.46875q0.78125 0.984375 1.90625 1.5q1.125 0.5 2.546875 0.5q1.203125 0 2.09375 -0.296875q0.90625 -0.296875 1.53125 -0.65625q0.640625 -0.375 1.046875 -0.671875q0.40625 -0.296875 0.640625 -0.296875q0.109375 0 0.1875 0.046875q0.078125 0.046875 0.125 0.1875q0.046875 0.125 0.0625 0.359375q0.03125 0.234375 0.03125 0.59375zm15.375 2.46875q0 0.125 -0.0625 0.21875q-0.0625 0.078125 -0.203125 0.140625q-0.140625 0.0625 -0.390625 0.09375q-0.25 0.03125 -0.625 0.03125q-0.390625 0 -0.640625 -0.03125q-0.25 -0.03125 -0.390625 -0.09375q-0.140625 -0.0625 -0.203125 -0.140625q-0.0625 -0.09375 -0.0625 -0.21875l0 -8.234375q0 -1.203125 -0.1875 -1.9375q-0.1875 -0.734375 -0.546875 -1.265625q-0.359375 -0.53125 -0.9375 -0.8125q-0.5625 -0.28125 -1.3125 -0.28125q-0.96875 0 -1.9375 0.6875q-0.96875 0.6875 -2.03125 2.015625l0 9.828125q0 0.125 -0.0625 0.21875q-0.0625 0.078125 -0.203125 0.140625q-0.140625 0.0625 -0.390625 0.09375q-0.25 0.03125 -0.640625 0.03125q-0.375 0 -0.625 -0.03125q-0.25 -0.03125 -0.40625 -0.09375q-0.140625 -0.0625 -0.203125 -0.140625q-0.046875 -0.09375 -0.046875 -0.21875l0 -20.875q0 -0.125 0.046875 -0.21875q0.0625 -0.09375 0.203125 -0.15625q0.15625 -0.0625 0.40625 -0.09375q0.25 -0.03125 0.625 -0.03125q0.390625 0 0.640625 0.03125q0.25 0.03125 0.390625 0.09375q0.140625 0.0625 0.203125 0.15625q0.0625 0.09375 0.0625 0.21875l0 8.421875q1.109375 -1.171875 2.234375 -1.734375q1.125 -0.578125 2.265625 -0.578125q1.40625 0 2.359375 0.484375q0.96875 0.46875 1.5625 1.265625q0.59375 0.796875 0.84375 1.875q0.265625 1.0625 0.265625 2.578125l0 8.5625zm7.28125 0q0 0.125 -0.0625 0.21875q-0.0625 0.078125 -0.203125 0.140625q-0.140625 0.0625 -0.390625 0.09375q-0.25 0.03125 -0.640625 0.03125q-0.375 0 -0.625 -0.03125q-0.25 -0.03125 -0.40625 -0.09375q-0.140625 -0.0625 -0.203125 -0.140625q-0.046875 -0.09375 -0.046875 -0.21875l0 -14.0625q0 -0.109375 0.046875 -0.203125q0.0625 -0.09375 0.203125 -0.15625q0.15625 -0.0625 0.40625 -0.09375q0.25 -0.03125 0.625 -0.03125q0.390625 0 0.640625 0.03125q0.25 0.03125 0.390625 0.09375q0.140625 0.0625 0.203125 0.15625q0.0625 0.09375 0.0625 0.203125l0 14.0625zm0.296875 -18.8125q0 0.90625 -0.34375 1.234375q-0.34375 0.328125 -1.265625 0.328125q-0.90625 0 -1.25 -0.3125q-0.328125 -0.328125 -0.328125 -1.21875q0 -0.90625 0.34375 -1.234375q0.34375 -0.328125 1.265625 -0.328125q0.90625 0 1.234375 0.328125q0.34375 0.3125 0.34375 1.203125zm7.046875 18.8125q0 0.125 -0.0625 0.21875q-0.0625 0.078125 -0.203125 0.140625q-0.140625 0.0625 -0.390625 0.09375q-0.25 0.03125 -0.640625 0.03125q-0.375 0 -0.625 -0.03125q-0.25 -0.03125 -0.40625 -0.09375q-0.140625 -0.0625 -0.203125 -0.140625q-0.046875 -0.09375 -0.046875 -0.21875l0 -20.875q0 -0.125 0.046875 -0.21875q0.0625 -0.09375 0.203125 -0.15625q0.15625 -0.0625 0.40625 -0.09375q0.25 -0.03125 0.625 -0.03125q0.390625 0 0.640625 0.03125q0.25 0.03125 0.390625 0.09375q0.140625 0.0625 0.203125 0.15625q0.0625 0.09375 0.0625 0.21875l0 20.875zm16.8125 0q0 0.125 -0.0625 0.21875q-0.046875 0.09375 -0.1875 0.15625q-0.125 0.046875 -0.34375 0.078125q-0.21875 0.03125 -0.53125 0.03125q-0.328125 0 -0.546875 -0.03125q-0.21875 -0.03125 -0.359375 -0.078125q-0.140625 -0.0625 -0.203125 -0.15625q-0.0625 -0.09375 -0.0625 -0.21875l0 -1.859375q-1.109375 1.203125 -2.3125 1.875q-1.1875 0.671875 -2.609375 0.671875q-1.546875 0 -2.640625 -0.59375q-1.09375 -0.609375 -1.78125 -1.625q-0.671875 -1.03125 -0.984375 -2.40625q-0.3125 -1.390625 -0.3125 -2.921875q0 -1.8125 0.390625 -3.265625q0.390625 -1.46875 1.15625 -2.5q0.765625 -1.03125 1.890625 -1.578125q1.140625 -0.5625 2.625 -0.5625q1.234375 0 2.25 0.546875q1.03125 0.53125 2.03125 1.578125l0 -8.171875q0 -0.109375 0.046875 -0.203125q0.0625 -0.109375 0.21875 -0.15625q0.15625 -0.0625 0.390625 -0.09375q0.25 -0.046875 0.625 -0.046875q0.390625 0 0.640625 0.046875q0.25 0.03125 0.390625 0.09375q0.140625 0.046875 0.203125 0.15625q0.078125 0.09375 0.078125 0.203125l0 20.8125zm-2.59375 -9.890625q-1.046875 -1.296875 -2.03125 -1.96875q-0.96875 -0.6875 -2.03125 -0.6875q-0.984375 0 -1.671875 0.46875q-0.6875 0.46875 -1.125 1.234375q-0.421875 0.765625 -0.625 1.734375q-0.1875 0.96875 -0.1875 1.96875q0 1.0625 0.15625 2.078125q0.171875 1.015625 0.578125 1.8125q0.40625 0.78125 1.078125 1.265625q0.671875 0.46875 1.6875 0.46875q0.515625 0 0.984375 -0.140625q0.484375 -0.140625 0.984375 -0.46875q0.5 -0.328125 1.046875 -0.84375q0.546875 -0.53125 1.15625 -1.296875l0 -5.625zm26.640625 9.125q0 0.28125 -0.046875 0.5q-0.03125 0.21875 -0.109375 0.375q-0.0625 0.140625 -0.1875 0.21875q-0.109375 0.0625 -0.25 0.0625l-11.171875 0q-0.21875 0 -0.390625 -0.046875q-0.15625 -0.0625 -0.28125 -0.1875q-0.109375 -0.125 -0.171875 -0.359375q-0.046875 -0.234375 -0.046875 -0.578125q0 -0.3125 0.015625 -0.546875q0.03125 -0.234375 0.109375 -0.40625q0.078125 -0.1875 0.1875 -0.359375q0.125 -0.1875 0.3125 -0.390625l3.921875 -4.15625q1.359375 -1.4375 2.171875 -2.578125q0.828125 -1.140625 1.265625 -2.078125q0.453125 -0.9375 0.59375 -1.703125q0.140625 -0.765625 0.140625 -1.4375q0 -0.671875 -0.21875 -1.265625q-0.21875 -0.609375 -0.640625 -1.0625q-0.40625 -0.453125 -1.03125 -0.71875q-0.625 -0.265625 -1.4375 -0.265625q-0.953125 0 -1.71875 0.265625q-0.75 0.265625 -1.328125 0.578125q-0.5625 0.3125 -0.953125 0.578125q-0.375 0.265625 -0.5625 0.265625q-0.109375 0 -0.203125 -0.0625q-0.078125 -0.0625 -0.140625 -0.203125q-0.046875 -0.140625 -0.078125 -0.375q-0.03125 -0.234375 -0.03125 -0.5625q0 -0.234375 0.015625 -0.40625q0.015625 -0.171875 0.046875 -0.296875q0.046875 -0.125 0.109375 -0.234375q0.0625 -0.109375 0.25 -0.265625q0.1875 -0.171875 0.640625 -0.453125q0.46875 -0.28125 1.15625 -0.546875q0.703125 -0.28125 1.53125 -0.46875q0.84375 -0.1875 1.765625 -0.1875q1.46875 0 2.5625 0.421875q1.109375 0.40625 1.828125 1.125q0.734375 0.71875 1.09375 1.671875q0.359375 0.953125 0.359375 2.03125q0 0.96875 -0.171875 1.9375q-0.171875 0.953125 -0.734375 2.078125q-0.546875 1.109375 -1.59375 2.484375q-1.046875 1.359375 -2.78125 3.140625l-3.203125 3.34375l8.796875 0q0.125 0 0.234375 0.078125q0.125 0.0625 0.203125 0.203125q0.09375 0.140625 0.125 0.359375q0.046875 0.203125 0.046875 0.484375zm10.5 -6.734375q0 0.609375 -0.140625 0.84375q-0.140625 0.234375 -0.40625 0.234375l-6.53125 0q-0.28125 0 -0.421875 -0.234375q-0.140625 -0.25 -0.140625 -0.84375q0 -0.59375 0.140625 -0.828125q0.140625 -0.234375 0.421875 -0.234375l6.53125 0q0.125 0 0.21875 0.046875q0.109375 0.046875 0.171875 0.1875q0.078125 0.125 0.109375 0.328125q0.046875 0.203125 0.046875 0.5zm15.5625 6.828125q0 0.296875 -0.046875 0.5q-0.046875 0.203125 -0.125 0.328125q-0.078125 0.125 -0.1875 0.1875q-0.09375 0.046875 -0.203125 0.046875l-10.5625 0q-0.109375 0 -0.203125 -0.046875q-0.09375 -0.0625 -0.1875 -0.1875q-0.078125 -0.125 -0.125 -0.328125q-0.046875 -0.203125 -0.046875 -0.5q0 -0.28125 0.046875 -0.484375q0.046875 -0.203125 0.109375 -0.328125q0.078125 -0.140625 0.171875 -0.203125q0.109375 -0.078125 0.234375 -0.078125l4.21875 0l0 -15.375l-3.90625 2.328125q-0.296875 0.15625 -0.484375 0.1875q-0.171875 0.03125 -0.28125 -0.0625q-0.109375 -0.109375 -0.15625 -0.34375q-0.03125 -0.234375 -0.03125 -0.59375q0 -0.265625 0.015625 -0.453125q0.03125 -0.1875 0.078125 -0.3125q0.046875 -0.125 0.125 -0.21875q0.09375 -0.09375 0.234375 -0.1875l4.65625 -2.984375q0.0625 -0.046875 0.15625 -0.078125q0.09375 -0.03125 0.234375 -0.0625q0.140625 -0.03125 0.328125 -0.03125q0.1875 -0.015625 0.46875 -0.015625q0.375 0 0.625 0.03125q0.25 0.03125 0.390625 0.09375q0.140625 0.046875 0.1875 0.140625q0.046875 0.078125 0.046875 0.171875l0 17.765625l3.65625 0q0.125 0 0.234375 0.078125q0.109375 0.0625 0.171875 0.203125q0.078125 0.125 0.109375 0.328125q0.046875 0.203125 0.046875 0.484375z" fill-rule="nonzero"></path><path fill="#005eb8" d="m405.61716 295.98444l0 0c0 -5.093872 4.129425 -9.223267 9.223297 -9.223267l159.41168 0c2.446167 0 4.7921753 0.9717102 6.5218506 2.701416c1.7297363 1.7297058 2.701416 4.0756836 2.701416 6.5218506l0 36.89203c0 5.093872 -4.1293945 9.223267 -9.223267 9.223267l-159.41168 0c-5.093872 0 -9.223297 -4.1293945 -9.223297 -9.223267z" fill-rule="evenodd"></path><path stroke="#434343" stroke-width="2.0" stroke-linejoin="round" stroke-linecap="butt" d="m405.61716 295.98444l0 0c0 -5.093872 4.129425 -9.223267 9.223297 -9.223267l159.41168 0c2.446167 0 4.7921753 0.9717102 6.5218506 2.701416c1.7297363 1.7297058 2.701416 4.0756836 2.701416 6.5218506l0 36.89203c0 5.093872 -4.1293945 9.223267 -9.223267 9.223267l-159.41168 0c-5.093872 0 -9.223297 -4.1293945 -9.223297 -9.223267z" fill-rule="evenodd"></path><path fill="#ffffff" d="m453.31192 323.29108q0 0.25 -0.015625 0.4375q-0.015625 0.1875 -0.0625 0.328125q-0.03125 0.140625 -0.09375 0.25q-0.0625 0.109375 -0.21875 0.265625q-0.15625 0.15625 -0.65625 0.484375q-0.5 0.3125 -1.25 0.625q-0.734375 0.296875 -1.703125 0.5q-0.953125 0.21875 -2.09375 0.21875q-1.96875 0 -3.5625 -0.65625q-1.578125 -0.65625 -2.703125 -1.9375q-1.109375 -1.28125 -1.71875 -3.15625q-0.59375 -1.890625 -0.59375 -4.34375q0 -2.515625 0.640625 -4.484375q0.65625 -1.96875 1.828125 -3.328125q1.171875 -1.375 2.796875 -2.09375q1.640625 -0.71875 3.625 -0.71875q0.875 0 1.703125 0.171875q0.828125 0.15625 1.53125 0.40625q0.703125 0.25 1.25 0.578125q0.546875 0.328125 0.75 0.546875q0.21875 0.203125 0.28125 0.3125q0.0625 0.109375 0.09375 0.265625q0.046875 0.140625 0.0625 0.34375q0.03125 0.203125 0.03125 0.484375q0 0.3125 -0.03125 0.53125q-0.03125 0.21875 -0.09375 0.375q-0.0625 0.140625 -0.15625 0.21875q-0.078125 0.0625 -0.203125 0.0625q-0.21875 0 -0.609375 -0.296875q-0.390625 -0.3125 -1.015625 -0.671875q-0.609375 -0.375 -1.5 -0.671875q-0.875 -0.3125 -2.109375 -0.3125q-1.34375 0 -2.453125 0.546875q-1.09375 0.53125 -1.875 1.578125q-0.78125 1.046875 -1.21875 2.5625q-0.421875 1.5 -0.421875 3.4375q0 1.921875 0.40625 3.40625q0.421875 1.46875 1.1875 2.46875q0.78125 0.984375 1.90625 1.5q1.125 0.5 2.546875 0.5q1.203125 0 2.09375 -0.296875q0.90625 -0.296875 1.53125 -0.65625q0.640625 -0.375 1.046875 -0.671875q0.40625 -0.296875 0.640625 -0.296875q0.109375 0 0.1875 0.046875q0.078125 0.046875 0.125 0.1875q0.046875 0.125 0.0625 0.359375q0.03125 0.234375 0.03125 0.59375zm15.375 2.46875q0 0.125 -0.0625 0.21875q-0.0625 0.078125 -0.203125 0.140625q-0.140625 0.0625 -0.390625 0.09375q-0.25 0.03125 -0.625 0.03125q-0.390625 0 -0.640625 -0.03125q-0.25 -0.03125 -0.390625 -0.09375q-0.140625 -0.0625 -0.203125 -0.140625q-0.0625 -0.09375 -0.0625 -0.21875l0 -8.234375q0 -1.203125 -0.1875 -1.9375q-0.1875 -0.734375 -0.546875 -1.265625q-0.359375 -0.53125 -0.9375 -0.8125q-0.5625 -0.28125 -1.3125 -0.28125q-0.96875 0 -1.9375 0.6875q-0.96875 0.6875 -2.03125 2.015625l0 9.828125q0 0.125 -0.0625 0.21875q-0.0625 0.078125 -0.203125 0.140625q-0.140625 0.0625 -0.390625 0.09375q-0.25 0.03125 -0.640625 0.03125q-0.375 0 -0.625 -0.03125q-0.25 -0.03125 -0.40625 -0.09375q-0.140625 -0.0625 -0.203125 -0.140625q-0.046875 -0.09375 -0.046875 -0.21875l0 -20.875q0 -0.125 0.046875 -0.21875q0.0625 -0.09375 0.203125 -0.15625q0.15625 -0.0625 0.40625 -0.09375q0.25 -0.03125 0.625 -0.03125q0.390625 0 0.640625 0.03125q0.25 0.03125 0.390625 0.09375q0.140625 0.0625 0.203125 0.15625q0.0625 0.09375 0.0625 0.21875l0 8.421875q1.109375 -1.171875 2.234375 -1.734375q1.125 -0.578125 2.265625 -0.578125q1.40625 0 2.359375 0.484375q0.96875 0.46875 1.5625 1.265625q0.59375 0.796875 0.84375 1.875q0.265625 1.0625 0.265625 2.578125l0 8.5625zm7.28125 0q0 0.125 -0.0625 0.21875q-0.0625 0.078125 -0.203125 0.140625q-0.140625 0.0625 -0.390625 0.09375q-0.25 0.03125 -0.640625 0.03125q-0.375 0 -0.625 -0.03125q-0.25 -0.03125 -0.40625 -0.09375q-0.140625 -0.0625 -0.203125 -0.140625q-0.046875 -0.09375 -0.046875 -0.21875l0 -14.0625q0 -0.109375 0.046875 -0.203125q0.0625 -0.09375 0.203125 -0.15625q0.15625 -0.0625 0.40625 -0.09375q0.25 -0.03125 0.625 -0.03125q0.390625 0 0.640625 0.03125q0.25 0.03125 0.390625 0.09375q0.140625 0.0625 0.203125 0.15625q0.0625 0.09375 0.0625 0.203125l0 14.0625zm0.296875 -18.8125q0 0.90625 -0.34375 1.234375q-0.34375 0.328125 -1.265625 0.328125q-0.90625 0 -1.25 -0.3125q-0.328125 -0.328125 -0.328125 -1.21875q0 -0.90625 0.34375 -1.234375q0.34375 -0.328125 1.265625 -0.328125q0.90625 0 1.234375 0.328125q0.34375 0.3125 0.34375 1.203125zm7.046875 18.8125q0 0.125 -0.0625 0.21875q-0.0625 0.078125 -0.203125 0.140625q-0.140625 0.0625 -0.390625 0.09375q-0.25 0.03125 -0.640625 0.03125q-0.375 0 -0.625 -0.03125q-0.25 -0.03125 -0.40625 -0.09375q-0.140625 -0.0625 -0.203125 -0.140625q-0.046875 -0.09375 -0.046875 -0.21875l0 -20.875q0 -0.125 0.046875 -0.21875q0.0625 -0.09375 0.203125 -0.15625q0.15625 -0.0625 0.40625 -0.09375q0.25 -0.03125 0.625 -0.03125q0.390625 0 0.640625 0.03125q0.25 0.03125 0.390625 0.09375q0.140625 0.0625 0.203125 0.15625q0.0625 0.09375 0.0625 0.21875l0 20.875zm16.8125 0q0 0.125 -0.0625 0.21875q-0.046875 0.09375 -0.1875 0.15625q-0.125 0.046875 -0.34375 0.078125q-0.21875 0.03125 -0.53125 0.03125q-0.328125 0 -0.546875 -0.03125q-0.21875 -0.03125 -0.359375 -0.078125q-0.140625 -0.0625 -0.203125 -0.15625q-0.0625 -0.09375 -0.0625 -0.21875l0 -1.859375q-1.109375 1.203125 -2.3125 1.875q-1.1875 0.671875 -2.609375 0.671875q-1.546875 0 -2.640625 -0.59375q-1.09375 -0.609375 -1.78125 -1.625q-0.671875 -1.03125 -0.984375 -2.40625q-0.3125 -1.390625 -0.3125 -2.921875q0 -1.8125 0.390625 -3.265625q0.390625 -1.46875 1.15625 -2.5q0.765625 -1.03125 1.890625 -1.578125q1.140625 -0.5625 2.625 -0.5625q1.234375 0 2.25 0.546875q1.03125 0.53125 2.03125 1.578125l0 -8.171875q0 -0.109375 0.046875 -0.203125q0.0625 -0.109375 0.21875 -0.15625q0.15625 -0.0625 0.390625 -0.09375q0.25 -0.046875 0.625 -0.046875q0.390625 0 0.640625 0.046875q0.25 0.03125 0.390625 0.09375q0.140625 0.046875 0.203125 0.15625q0.078125 0.09375 0.078125 0.203125l0 20.8125zm-2.59375 -9.890625q-1.046875 -1.296875 -2.03125 -1.96875q-0.96875 -0.6875 -2.03125 -0.6875q-0.984375 0 -1.671875 0.46875q-0.6875 0.46875 -1.125 1.234375q-0.421875 0.765625 -0.625 1.734375q-0.1875 0.96875 -0.1875 1.96875q0 1.0625 0.15625 2.078125q0.171875 1.015625 0.578125 1.8125q0.40625 0.78125 1.078125 1.265625q0.671875 0.46875 1.6875 0.46875q0.515625 0 0.984375 -0.140625q0.484375 -0.140625 0.984375 -0.46875q0.5 -0.328125 1.046875 -0.84375q0.546875 -0.53125 1.15625 -1.296875l0 -5.625zm26.640656 9.125q0 0.28125 -0.046875 0.5q-0.03125 0.21875 -0.109375 0.375q-0.0625 0.140625 -0.1875 0.21875q-0.109375 0.0625 -0.25 0.0625l-11.171875 0q-0.21875 0 -0.390625 -0.046875q-0.15628052 -0.0625 -0.28128052 -0.1875q-0.109375 -0.125 -0.171875 -0.359375q-0.046875 -0.234375 -0.046875 -0.578125q0 -0.3125 0.015625 -0.546875q0.03125 -0.234375 0.109375 -0.40625q0.078125 -0.1875 0.1875 -0.359375q0.125 -0.1875 0.31253052 -0.390625l3.921875 -4.15625q1.359375 -1.4375 2.171875 -2.578125q0.828125 -1.140625 1.265625 -2.078125q0.453125 -0.9375 0.59375 -1.703125q0.140625 -0.765625 0.140625 -1.4375q0 -0.671875 -0.21875 -1.265625q-0.21875 -0.609375 -0.640625 -1.0625q-0.40625 -0.453125 -1.03125 -0.71875q-0.625 -0.265625 -1.4375 -0.265625q-0.953125 0 -1.71875 0.265625q-0.75 0.265625 -1.328125 0.578125q-0.5625 0.3125 -0.953125 0.578125q-0.375 0.265625 -0.5625 0.265625q-0.109375 0 -0.203125 -0.0625q-0.078125 -0.0625 -0.14065552 -0.203125q-0.046875 -0.140625 -0.078125 -0.375q-0.03125 -0.234375 -0.03125 -0.5625q0 -0.234375 0.015625 -0.40625q0.015625 -0.171875 0.046875 -0.296875q0.046875 -0.125 0.10940552 -0.234375q0.0625 -0.109375 0.25 -0.265625q0.1875 -0.171875 0.640625 -0.453125q0.46875 -0.28125 1.15625 -0.546875q0.703125 -0.28125 1.53125 -0.46875q0.84375 -0.1875 1.765625 -0.1875q1.46875 0 2.5625 0.421875q1.109375 0.40625 1.828125 1.125q0.734375 0.71875 1.09375 1.671875q0.359375 0.953125 0.359375 2.03125q0 0.96875 -0.171875 1.9375q-0.171875 0.953125 -0.734375 2.078125q-0.546875 1.109375 -1.59375 2.484375q-1.046875 1.359375 -2.78125 3.140625l-3.203125 3.34375l8.796875 0q0.125 0 0.234375 0.078125q0.125 0.0625 0.203125 0.203125q0.09375 0.140625 0.125 0.359375q0.046875 0.203125 0.046875 0.484375zm10.5 -6.734375q0 0.609375 -0.140625 0.84375q-0.140625 0.234375 -0.40625 0.234375l-6.53125 0q-0.28125 0 -0.421875 -0.234375q-0.140625 -0.25 -0.140625 -0.84375q0 -0.59375 0.140625 -0.828125q0.140625 -0.234375 0.421875 -0.234375l6.53125 0q0.125 0 0.21875 0.046875q0.109375 0.046875 0.171875 0.1875q0.078125 0.125 0.109375 0.328125q0.046875 0.203125 0.046875 0.5zm15.515564 6.734375q0 0.28125 -0.046875 0.5q-0.03125 0.21875 -0.109375 0.375q-0.0625 0.140625 -0.1875 0.21875q-0.109375 0.0625 -0.25 0.0625l-11.171875 0q-0.21875 0 -0.390625 -0.046875q-0.15625 -0.0625 -0.28125 -0.1875q-0.109375 -0.125 -0.171875 -0.359375q-0.046875 -0.234375 -0.046875 -0.578125q0 -0.3125 0.015625 -0.546875q0.03125 -0.234375 0.109375 -0.40625q0.078125 -0.1875 0.1875 -0.359375q0.125 -0.1875 0.3125 -0.390625l3.921875 -4.15625q1.359375 -1.4375 2.171875 -2.578125q0.828125 -1.140625 1.265625 -2.078125q0.453125 -0.9375 0.59375 -1.703125q0.140625 -0.765625 0.140625 -1.4375q0 -0.671875 -0.21875 -1.265625q-0.21875 -0.609375 -0.640625 -1.0625q-0.40625 -0.453125 -1.03125 -0.71875q-0.625 -0.265625 -1.4375 -0.265625q-0.953125 0 -1.71875 0.265625q-0.75 0.265625 -1.328125 0.578125q-0.5625 0.3125 -0.953125 0.578125q-0.375 0.265625 -0.5625 0.265625q-0.109375 0 -0.203125 -0.0625q-0.078125 -0.0625 -0.140625 -0.203125q-0.046875 -0.140625 -0.078125 -0.375q-0.03125 -0.234375 -0.03125 -0.5625q0 -0.234375 0.015625 -0.40625q0.015625 -0.171875 0.046875 -0.296875q0.046875 -0.125 0.109375 -0.234375q0.0625 -0.109375 0.25 -0.265625q0.1875 -0.171875 0.640625 -0.453125q0.46875 -0.28125 1.15625 -0.546875q0.703125 -0.28125 1.53125 -0.46875q0.84375 -0.1875 1.765625 -0.1875q1.46875 0 2.5625 0.421875q1.109375 0.40625 1.828125 1.125q0.734375 0.71875 1.09375 1.671875q0.359375 0.953125 0.359375 2.03125q0 0.96875 -0.171875 1.9375q-0.171875 0.953125 -0.734375 2.078125q-0.546875 1.109375 -1.59375 2.484375q-1.046875 1.359375 -2.78125 3.140625l-3.203125 3.34375l8.796875 0q0.125 0 0.234375 0.078125q0.125 0.0625 0.203125 0.203125q0.09375 0.140625 0.125 0.359375q0.046875 0.203125 0.046875 0.484375z" fill-rule="nonzero"></path><path fill="#ffffff" d="m253.57349 176.32545l51.996063 0l0 37.180054l-25.998016 9.295013l-25.998047 -9.295013z" fill-rule="evenodd"></path><path stroke="#000000" stroke-width="1.0" stroke-linejoin="round" stroke-linecap="butt" d="m253.57349 176.32545l51.996063 0l0 37.180054l-25.998016 9.295013l-25.998047 -9.295013z" fill-rule="evenodd"></path><path fill="#ffffff" d="m288.0105 53.78478l51.996063 0l0 37.18005l-25.998016 9.295013l-25.998047 -9.295013z" fill-rule="evenodd"></path><path stroke="#000000" stroke-width="1.0" stroke-linejoin="round" stroke-linecap="butt" d="m288.0105 53.78478l51.996063 0l0 37.18005l-25.998016 9.295013l-25.998047 -9.295013z" fill-rule="evenodd"></path><path fill="#ffffff" d="m244.98425 165.67455l0 -61.102364c0 -8.401688 6.810913 -15.212601 15.212585 -15.212601l10.86615 0l0 -4.3464584l8.692932 8.692917l-8.692932 8.692909l0 -4.3464584l-10.86615 0l0 0c-3.600708 0 -6.5196686 2.9189682 -6.5196686 6.5196915l0 61.102364z" fill-rule="evenodd"></path><path stroke="#000000" stroke-width="1.0" stroke-linejoin="round" stroke-linecap="butt" d="m244.98425 165.67455l0 -61.102364c0 -8.401688 6.810913 -15.212601 15.212585 -15.212601l10.86615 0l0 -4.3464584l8.692932 8.692917l-8.692932 8.692909l0 -4.3464584l-10.86615 0l0 0c-3.600708 0 -6.5196686 2.9189682 -6.5196686 6.5196915l0 61.102364z" fill-rule="evenodd"></path><path fill="#000000" fill-opacity="0.0" d="m420.64435 109.53281l31.80841 0l0 20.386353l-15.904205 5.096588l-15.904205 -5.096588z" fill-rule="evenodd"></path><path stroke="#000000" stroke-width="1.0" stroke-linejoin="round" stroke-linecap="butt" d="m420.64435 109.53281l31.80841 0l0 20.386353l-15.904205 5.096588l-15.904205 -5.096588z" fill-rule="evenodd"></path><path fill="#000000" fill-opacity="0.0" d="m466.05893 98.02214l138.74014 0l0 48.503937l-138.74014 0z" fill-rule="evenodd"></path><path fill="#434343" d="m493.55893 116.0016q0 0.09375 -0.046875 0.171875q-0.046875 0.0625 -0.171875 0.109375q-0.109375 0.046875 -0.296875 0.078125q-0.171875 0.03125 -0.46875 0.03125q-0.265625 0 -0.46875 -0.03125q-0.1875 -0.03125 -0.296875 -0.078125q-0.109375 -0.046875 -0.15625 -0.109375q-0.046875 -0.078125 -0.046875 -0.171875l0 -13.203125l-0.015625 0l-5.40625 13.265625q-0.03125 0.078125 -0.109375 0.140625q-0.0625 0.0625 -0.1875 0.109375q-0.109375 0.03125 -0.28125 0.046875q-0.171875 0.03125 -0.40625 0.03125q-0.25 0 -0.421875 -0.03125q-0.171875 -0.015625 -0.296875 -0.0625q-0.109375 -0.046875 -0.1875 -0.09375q-0.0625 -0.0625 -0.078125 -0.140625l-5.171875 -13.265625l-0.015625 0l0 13.203125q0 0.09375 -0.046875 0.171875q-0.046875 0.0625 -0.171875 0.109375q-0.109375 0.046875 -0.296875 0.078125q-0.1875 0.03125 -0.46875 0.03125q-0.28125 0 -0.46875 -0.03125q-0.1875 -0.03125 -0.3125 -0.078125q-0.109375 -0.046875 -0.15625 -0.109375q-0.03125 -0.078125 -0.03125 -0.171875l0 -13.9375q0 -0.5 0.25 -0.703125q0.265625 -0.21875 0.578125 -0.21875l1.21875 0q0.375 0 0.65625 0.078125q0.28125 0.0625 0.484375 0.21875q0.21875 0.15625 0.359375 0.390625q0.140625 0.234375 0.25 0.546875l4.390625 10.984375l0.0625 0l4.578125 -10.953125q0.125 -0.34375 0.265625 -0.59375q0.15625 -0.25 0.34375 -0.390625q0.1875 -0.140625 0.40625 -0.203125q0.21875 -0.078125 0.515625 -0.078125l1.28125 0q0.171875 0 0.328125 0.0625q0.15625 0.046875 0.265625 0.15625q0.109375 0.109375 0.171875 0.28125q0.078125 0.171875 0.078125 0.421875l0 13.9375zm13.628906 -5.375q0 1.296875 -0.34375 2.375q-0.34375 1.078125 -1.015625 1.875q-0.671875 0.78125 -1.6875 1.21875q-1.015625 0.4375 -2.34375 0.4375q-1.3125 0 -2.28125 -0.375q-0.953125 -0.390625 -1.609375 -1.125q-0.640625 -0.75 -0.953125 -1.796875q-0.3125 -1.0625 -0.3125 -2.390625q0 -1.296875 0.328125 -2.375q0.328125 -1.09375 1.0 -1.875q0.6875 -0.78125 1.6875 -1.21875q1.015625 -0.4375 2.359375 -0.4375q1.296875 0 2.265625 0.390625q0.96875 0.390625 1.609375 1.125q0.640625 0.734375 0.96875 1.796875q0.328125 1.046875 0.328125 2.375zm-2.046875 0.125q0 -0.84375 -0.15625 -1.609375q-0.15625 -0.765625 -0.53125 -1.328125q-0.359375 -0.578125 -0.984375 -0.90625q-0.609375 -0.34375 -1.53125 -0.34375q-0.859375 0 -1.484375 0.3125q-0.609375 0.296875 -1.015625 0.859375q-0.390625 0.546875 -0.59375 1.3125q-0.1875 0.765625 -0.1875 1.65625q0 0.875 0.15625 1.640625q0.171875 0.75 0.53125 1.328125q0.375 0.5625 0.984375 0.90625q0.625 0.328125 1.5625 0.328125q0.84375 0 1.453125 -0.296875q0.625 -0.3125 1.015625 -0.859375q0.40625 -0.5625 0.59375 -1.3125q0.1875 -0.765625 0.1875 -1.6875zm13.9218445 5.265625q0 0.09375 -0.046875 0.171875q-0.03125 0.0625 -0.140625 0.109375q-0.09375 0.046875 -0.265625 0.0625q-0.15625 0.03125 -0.390625 0.03125q-0.25 0 -0.421875 -0.03125q-0.15625 -0.015625 -0.265625 -0.0625q-0.09375 -0.046875 -0.140625 -0.109375q-0.046875 -0.078125 -0.046875 -0.171875l0 -1.390625q-0.828125 0.90625 -1.734375 1.40625q-0.890625 0.5 -1.953125 0.5q-1.171875 0 -1.9999695 -0.453125q-0.8125 -0.453125 -1.328125 -1.21875q-0.5 -0.765625 -0.734375 -1.796875q-0.234375 -1.046875 -0.234375 -2.1875q0 -1.359375 0.296875 -2.453125q0.296875 -1.09375 0.859375 -1.859375q0.578125 -0.78125 1.421875 -1.203125q0.8593445 -0.421875 1.9687195 -0.421875q0.921875 0 1.6875 0.40625q0.78125 0.40625 1.53125 1.1875l0 -6.125q0 -0.078125 0.03125 -0.15625q0.046875 -0.078125 0.15625 -0.109375q0.125 -0.046875 0.296875 -0.078125q0.1875 -0.03125 0.46875 -0.03125q0.296875 0 0.484375 0.03125q0.1875 0.03125 0.28125 0.078125q0.109375 0.03125 0.15625 0.109375q0.0625 0.078125 0.0625 0.15625l0 15.609375zm-1.9375 -7.421875q-0.796875 -0.96875 -1.53125 -1.46875q-0.71875 -0.515625 -1.515625 -0.515625q-0.75 0 -1.265625 0.359375q-0.515625 0.34375 -0.8437195 0.921875q-0.3125 0.5625 -0.46875 1.296875q-0.140625 0.71875 -0.140625 1.46875q0 0.796875 0.125 1.5625q0.125 0.765625 0.421875 1.359375q0.31246948 0.59375 0.8124695 0.953125q0.515625 0.34375 1.265625 0.34375q0.390625 0 0.75 -0.09375q0.359375 -0.109375 0.734375 -0.359375q0.375 -0.25 0.78125 -0.640625q0.40625 -0.390625 0.875 -0.96875l0 -4.21875zm14.546875 7.421875q0 0.09375 -0.046875 0.15625q-0.03125 0.0625 -0.140625 0.125q-0.109375 0.046875 -0.28125 0.0625q-0.15625 0.03125 -0.40625 0.03125q-0.265625 0 -0.4375 -0.03125q-0.171875 -0.015625 -0.28125 -0.0625q-0.09375 -0.0625 -0.125 -0.125q-0.03125 -0.0625 -0.03125 -0.15625l0 -1.390625q-0.90625 1.0 -1.796875 1.453125q-0.875 0.453125 -1.765625 0.453125q-1.0625 0 -1.78125 -0.34375q-0.71875 -0.359375 -1.171875 -0.953125q-0.4375 -0.609375 -0.640625 -1.40625q-0.1875 -0.8125 -0.1875 -1.953125l0 -6.40625q0 -0.09375 0.03125 -0.15625q0.046875 -0.0625 0.15625 -0.109375q0.125 -0.0625 0.3125 -0.078125q0.1875 -0.015625 0.46875 -0.015625q0.28125 0 0.46875 0.015625q0.1875 0.015625 0.296875 0.078125q0.125 0.046875 0.171875 0.109375q0.046875 0.0625 0.046875 0.15625l0 6.140625q0 0.921875 0.125 1.484375q0.140625 0.5625 0.40625 0.953125q0.28125 0.390625 0.703125 0.609375q0.421875 0.21875 0.984375 0.21875q0.734375 0 1.453125 -0.515625q0.71875 -0.515625 1.53125 -1.515625l0 -7.375q0 -0.09375 0.03125 -0.15625q0.046875 -0.0625 0.15625 -0.109375q0.125 -0.0625 0.296875 -0.078125q0.1875 -0.015625 0.484375 -0.015625q0.28125 0 0.46875 0.015625q0.1875 0.015625 0.28125 0.078125q0.109375 0.046875 0.15625 0.109375q0.0625 0.0625 0.0625 0.15625l0 10.546875zm5.515625 0q0 0.09375 -0.046875 0.15625q-0.046875 0.0625 -0.15625 0.125q-0.109375 0.046875 -0.296875 0.0625q-0.1875 0.03125 -0.484375 0.03125q-0.28125 0 -0.46875 -0.03125q-0.1875 -0.015625 -0.296875 -0.0625q-0.109375 -0.0625 -0.15625 -0.125q-0.03125 -0.0625 -0.03125 -0.15625l0 -15.65625q0 -0.09375 0.03125 -0.15625q0.046875 -0.078125 0.15625 -0.125q0.109375 -0.046875 0.296875 -0.0625q0.1875 -0.03125 0.46875 -0.03125q0.296875 0 0.484375 0.03125q0.1875 0.015625 0.296875 0.0625q0.109375 0.046875 0.15625 0.125q0.046875 0.0625 0.046875 0.15625l0 15.65625zm12.5703125 -5.734375q0 0.46875 -0.234375 0.65625q-0.21875 0.1875 -0.515625 0.1875l-6.921875 0q0 0.890625 0.171875 1.59375q0.1875 0.703125 0.59375 1.203125q0.40625 0.5 1.0625 0.78125q0.65625 0.265625 1.609375 0.265625q0.75 0 1.328125 -0.125q0.59375 -0.125 1.015625 -0.28125q0.4375 -0.15625 0.703125 -0.265625q0.28125 -0.125 0.421875 -0.125q0.078125 0 0.140625 0.046875q0.078125 0.03125 0.109375 0.109375q0.03125 0.078125 0.046875 0.234375q0.015625 0.140625 0.015625 0.359375q0 0.140625 -0.015625 0.265625q0 0.109375 -0.015625 0.203125q-0.015625 0.078125 -0.0625 0.15625q-0.046875 0.0625 -0.109375 0.125q-0.0625 0.0625 -0.375 0.21875q-0.3125 0.140625 -0.828125 0.28125q-0.5 0.140625 -1.171875 0.25q-0.65625 0.109375 -1.40625 0.109375q-1.296875 0 -2.28125 -0.359375q-0.96875 -0.359375 -1.640625 -1.078125q-0.671875 -0.71875 -1.015625 -1.796875q-0.328125 -1.078125 -0.328125 -2.5q0 -1.359375 0.34375 -2.4375q0.359375 -1.09375 1.015625 -1.84375q0.671875 -0.765625 1.609375 -1.171875q0.9375 -0.40625 2.09375 -0.40625q1.234375 0 2.109375 0.40625q0.875 0.390625 1.4375 1.078125q0.5625 0.671875 0.828125 1.578125q0.265625 0.90625 0.265625 1.9375l0 0.34375zm-1.953125 -0.5625q0.046875 -1.53125 -0.671875 -2.390625q-0.703125 -0.875 -2.09375 -0.875q-0.71875 0 -1.265625 0.28125q-0.53125 0.265625 -0.90625 0.71875q-0.359375 0.4375 -0.5625 1.03125q-0.1875 0.578125 -0.21875 1.234375l5.71875 0z" fill-rule="nonzero"></path><path fill="#434343" d="m479.09018 145.0016q0 0.09375 -0.046875 0.171875q-0.046875 0.0625 -0.171875 0.109375q-0.109375 0.046875 -0.3125 0.078125q-0.1875 0.03125 -0.46875 0.03125q-0.28125 0 -0.484375 -0.03125q-0.203125 -0.03125 -0.328125 -0.078125q-0.109375 -0.046875 -0.15625 -0.109375q-0.046875 -0.078125 -0.046875 -0.171875l0 -14.546875q0 -0.09375 0.046875 -0.15625q0.0625 -0.078125 0.1875 -0.109375q0.125 -0.046875 0.3125 -0.078125q0.1875 -0.03125 0.46875 -0.03125q0.28125 0 0.46875 0.03125q0.203125 0.03125 0.3125 0.078125q0.125 0.03125 0.171875 0.109375q0.046875 0.0625 0.046875 0.15625l0 14.546875zm12.890625 0.015625q0 0.09375 -0.046875 0.15625q-0.046875 0.0625 -0.15625 0.125q-0.09375 0.046875 -0.28125 0.0625q-0.1875 0.03125 -0.46875 0.03125q-0.296875 0 -0.484375 -0.03125q-0.1875 -0.015625 -0.296875 -0.0625q-0.109375 -0.0625 -0.15625 -0.125q-0.046875 -0.0625 -0.046875 -0.15625l0 -6.171875q0 -0.90625 -0.140625 -1.453125q-0.140625 -0.546875 -0.40625 -0.9375q-0.265625 -0.40625 -0.703125 -0.609375q-0.421875 -0.21875 -0.984375 -0.21875q-0.71875 0 -1.453125 0.515625q-0.71875 0.515625 -1.515625 1.5l0 7.375q0 0.09375 -0.046875 0.15625q-0.046875 0.0625 -0.15625 0.125q-0.109375 0.046875 -0.296875 0.0625q-0.1875 0.03125 -0.484375 0.03125q-0.28125 0 -0.46875 -0.03125q-0.1875 -0.015625 -0.296875 -0.0625q-0.109375 -0.0625 -0.15625 -0.125q-0.03125 -0.0625 -0.03125 -0.15625l0 -10.546875q0 -0.09375 0.03125 -0.15625q0.03125 -0.0625 0.140625 -0.109375q0.109375 -0.0625 0.265625 -0.078125q0.171875 -0.015625 0.4375 -0.015625q0.265625 0 0.421875 0.015625q0.171875 0.015625 0.265625 0.078125q0.09375 0.046875 0.140625 0.109375q0.046875 0.0625 0.046875 0.15625l0 1.390625q0.890625 -0.984375 1.765625 -1.453125q0.890625 -0.46875 1.796875 -0.46875q1.046875 0 1.765625 0.359375q0.71875 0.359375 1.15625 0.96875q0.453125 0.59375 0.640625 1.390625q0.203125 0.796875 0.203125 1.921875l0 6.4375zm5.6875 0.46875q0 1.171875 -0.1875 1.890625q-0.171875 0.734375 -0.546875 1.21875q-0.375 0.5 -0.96875 0.75q-0.578125 0.25 -1.40625 0.25q-0.375 0 -0.640625 -0.046875q-0.265625 -0.046875 -0.40625 -0.109375q-0.140625 -0.0625 -0.1875 -0.140625q-0.0625 -0.0625 -0.078125 -0.171875q-0.03125 -0.09375 -0.03125 -0.203125q0 -0.109375 0 -0.25q0 -0.21875 0.015625 -0.375q0.015625 -0.140625 0.0625 -0.234375q0.03125 -0.09375 0.09375 -0.140625q0.046875 -0.046875 0.125 -0.046875q0.078125 0 0.28125 0.03125q0.203125 0.03125 0.46875 0.03125q0.390625 0 0.65625 -0.125q0.28125 -0.109375 0.453125 -0.375q0.1875 -0.265625 0.265625 -0.6875q0.078125 -0.421875 0.078125 -1.265625l0 -11.015625q0 -0.078125 0.046875 -0.140625q0.046875 -0.078125 0.15625 -0.125q0.125 -0.046875 0.3125 -0.0625q0.1875 -0.03125 0.46875 -0.03125q0.28125 0 0.46875 0.03125q0.1875 0.015625 0.296875 0.0625q0.109375 0.046875 0.15625 0.125q0.046875 0.0625 0.046875 0.140625l0 11.015625zm0.21875 -14.578125q0 0.6875 -0.265625 0.9375q-0.25 0.234375 -0.9375 0.234375q-0.6875 0 -0.9375 -0.234375q-0.234375 -0.25 -0.234375 -0.90625q0 -0.6875 0.25 -0.921875q0.25 -0.25 0.9375 -0.25q0.703125 0 0.9375 0.234375q0.25 0.234375 0.25 0.90625zm12.3671875 8.375q0 0.46875 -0.234375 0.65625q-0.21875 0.1875 -0.515625 0.1875l-6.921875 0q0 0.890625 0.171875 1.59375q0.1875 0.703125 0.59375 1.203125q0.40625 0.5 1.0625 0.78125q0.65625 0.265625 1.609375 0.265625q0.75 0 1.328125 -0.125q0.59375 -0.125 1.015625 -0.28125q0.4375 -0.15625 0.703125 -0.265625q0.28125 -0.125 0.421875 -0.125q0.078125 0 0.140625 0.046875q0.078125 0.03125 0.109375 0.109375q0.03125 0.078125 0.046875 0.234375q0.015625 0.140625 0.015625 0.359375q0 0.140625 -0.015625 0.265625q0 0.109375 -0.015625 0.203125q-0.015625 0.078125 -0.0625 0.15625q-0.046875 0.0625 -0.109375 0.125q-0.0625 0.0625 -0.375 0.21875q-0.3125 0.140625 -0.828125 0.28125q-0.5 0.140625 -1.171875 0.25q-0.65625 0.109375 -1.40625 0.109375q-1.296875 0 -2.28125 -0.359375q-0.96875 -0.359375 -1.640625 -1.078125q-0.671875 -0.71875 -1.015625 -1.796875q-0.328125 -1.078125 -0.328125 -2.5q0 -1.359375 0.34375 -2.4375q0.359375 -1.09375 1.015625 -1.84375q0.671875 -0.765625 1.609375 -1.171875q0.9375 -0.40625 2.09375 -0.40625q1.234375 0 2.109375 0.40625q0.875 0.390625 1.4375 1.078125q0.5625 0.671875 0.828125 1.578125q0.265625 0.90625 0.265625 1.9375l0 0.34375zm-1.953125 -0.5625q0.046875 -1.53125 -0.671875 -2.390625q-0.703125 -0.875 -2.09375 -0.875q-0.71875 0 -1.265625 0.28125q-0.53125 0.265625 -0.90625 0.71875q-0.359375 0.4375 -0.5625 1.03125q-0.1875 0.578125 -0.21875 1.234375l5.71875 0zm12.472626 4.6875q0 0.203125 -0.015625 0.359375q0 0.140625 -0.03125 0.25q-0.03125 0.09375 -0.078125 0.171875q-0.03125 0.0625 -0.1875 0.21875q-0.140625 0.140625 -0.5 0.359375q-0.34375 0.21875 -0.78125 0.390625q-0.4375 0.171875 -0.953125 0.265625q-0.515625 0.109375 -1.078125 0.109375q-1.125 0 -2.015625 -0.375q-0.875 -0.375 -1.46875 -1.09375q-0.59375 -0.71875 -0.90625 -1.765625q-0.296875 -1.046875 -0.296875 -2.421875q0 -1.5625 0.375 -2.671875q0.375 -1.125 1.03125 -1.84375q0.671875 -0.71875 1.5625 -1.0625q0.90625 -0.34375 1.953125 -0.34375q0.5 0 0.96875 0.09375q0.484375 0.09375 0.875 0.25q0.40625 0.15625 0.703125 0.359375q0.3125 0.1875 0.453125 0.328125q0.140625 0.140625 0.1875 0.234375q0.0625 0.078125 0.09375 0.1875q0.046875 0.109375 0.046875 0.25q0.015625 0.140625 0.015625 0.34375q0 0.46875 -0.109375 0.65625q-0.09375 0.171875 -0.25 0.171875q-0.171875 0 -0.40625 -0.1875q-0.234375 -0.203125 -0.59375 -0.4375q-0.34375 -0.234375 -0.84375 -0.421875q-0.484375 -0.203125 -1.171875 -0.203125q-1.390625 0 -2.140625 1.078125q-0.734375 1.078125 -0.734375 3.109375q0 1.015625 0.1875 1.796875q0.1875 0.765625 0.5625 1.28125q0.375 0.515625 0.921875 0.765625q0.546875 0.25 1.25 0.25q0.671875 0 1.171875 -0.203125q0.5 -0.21875 0.875 -0.46875q0.375 -0.25 0.625 -0.453125q0.25 -0.21875 0.390625 -0.21875q0.078125 0 0.140625 0.046875q0.0625 0.046875 0.09375 0.171875q0.046875 0.109375 0.0625 0.28125q0.015625 0.15625 0.015625 0.390625zm8.0546875 0.84375q0 0.328125 -0.046875 0.53125q-0.046875 0.203125 -0.140625 0.296875q-0.09375 0.09375 -0.28125 0.1875q-0.1875 0.078125 -0.4375 0.125q-0.234375 0.046875 -0.5 0.078125q-0.265625 0.046875 -0.546875 0.046875q-0.8125 0 -1.40625 -0.21875q-0.578125 -0.21875 -0.953125 -0.65625q-0.375 -0.4375 -0.546875 -1.109375q-0.171875 -0.6875 -0.171875 -1.59375l0 -6.171875l-1.46875 0q-0.1875 0 -0.296875 -0.1875q-0.09375 -0.1875 -0.09375 -0.609375q0 -0.21875 0.03125 -0.359375q0.03125 -0.15625 0.078125 -0.25q0.046875 -0.109375 0.109375 -0.140625q0.078125 -0.046875 0.171875 -0.046875l1.46875 0l0 -2.515625q0 -0.078125 0.03125 -0.140625q0.046875 -0.078125 0.15625 -0.125q0.125 -0.0625 0.3125 -0.078125q0.1875 -0.03125 0.46875 -0.03125q0.28125 0 0.46875 0.03125q0.1875 0.015625 0.296875 0.078125q0.109375 0.046875 0.15625 0.125q0.046875 0.0625 0.046875 0.140625l0 2.515625l2.703125 0q0.09375 0 0.15625 0.046875q0.078125 0.03125 0.125 0.140625q0.0625 0.09375 0.078125 0.25q0.03125 0.140625 0.03125 0.359375q0 0.421875 -0.109375 0.609375q-0.109375 0.1875 -0.28125 0.1875l-2.703125 0l0 5.890625q0 1.09375 0.3125 1.65625q0.328125 0.546875 1.15625 0.546875q0.28125 0 0.484375 -0.046875q0.21875 -0.0625 0.375 -0.109375q0.171875 -0.0625 0.28125 -0.109375q0.125 -0.0625 0.21875 -0.0625q0.046875 0 0.09375 0.03125q0.0625 0.03125 0.09375 0.109375q0.03125 0.078125 0.046875 0.21875q0.03125 0.140625 0.03125 0.359375zm12.3671875 -4.625q0 1.296875 -0.34375 2.375q-0.34375 1.078125 -1.015625 1.875q-0.671875 0.78125 -1.6875 1.21875q-1.015625 0.4375 -2.34375 0.4375q-1.3125 0 -2.28125 -0.375q-0.953125 -0.390625 -1.609375 -1.125q-0.640625 -0.75 -0.953125 -1.796875q-0.3125 -1.0625 -0.3125 -2.390625q0 -1.296875 0.328125 -2.375q0.328125 -1.09375 1.0 -1.875q0.6875 -0.78125 1.6875 -1.21875q1.015625 -0.4375 2.359375 -0.4375q1.296875 0 2.265625 0.390625q0.96875 0.390625 1.609375 1.125q0.640625 0.734375 0.96875 1.796875q0.328125 1.046875 0.328125 2.375zm-2.046875 0.125q0 -0.84375 -0.15625 -1.609375q-0.15625 -0.765625 -0.53125 -1.328125q-0.359375 -0.578125 -0.984375 -0.90625q-0.609375 -0.34375 -1.53125 -0.34375q-0.859375 0 -1.484375 0.3125q-0.609375 0.296875 -1.015625 0.859375q-0.390625 0.546875 -0.59375 1.3125q-0.1875 0.765625 -0.1875 1.65625q0 0.875 0.15625 1.640625q0.171875 0.75 0.53125 1.328125q0.375 0.5625 0.984375 0.90625q0.625 0.328125 1.5625 0.328125q0.84375 0 1.453125 -0.296875q0.625 -0.3125 1.015625 -0.859375q0.40625 -0.5625 0.59375 -1.3125q0.1875 -0.765625 0.1875 -1.6875zm11.046875 -4.59375q0 0.265625 -0.015625 0.4375q0 0.171875 -0.046875 0.28125q-0.03125 0.09375 -0.078125 0.15625q-0.046875 0.046875 -0.140625 0.046875q-0.09375 0 -0.234375 -0.046875q-0.140625 -0.0625 -0.3125 -0.109375q-0.15625 -0.0625 -0.375 -0.109375q-0.203125 -0.046875 -0.453125 -0.046875q-0.296875 0 -0.578125 0.125q-0.28125 0.109375 -0.59375 0.390625q-0.3125 0.265625 -0.65625 0.71875q-0.328125 0.4375 -0.734375 1.078125l0 6.9375q0 0.09375 -0.046875 0.15625q-0.046875 0.0625 -0.15625 0.125q-0.109375 0.046875 -0.296875 0.0625q-0.1875 0.03125 -0.484375 0.03125q-0.28125 0 -0.46875 -0.03125q-0.1875 -0.015625 -0.296875 -0.0625q-0.109375 -0.0625 -0.15625 -0.125q-0.03125 -0.0625 -0.03125 -0.15625l0 -10.546875q0 -0.09375 0.03125 -0.15625q0.03125 -0.0625 0.140625 -0.109375q0.109375 -0.0625 0.265625 -0.078125q0.171875 -0.015625 0.4375 -0.015625q0.265625 0 0.421875 0.015625q0.171875 0.015625 0.265625 0.078125q0.09375 0.046875 0.140625 0.109375q0.046875 0.0625 0.046875 0.15625l0 1.53125q0.421875 -0.625 0.796875 -1.015625q0.390625 -0.40625 0.734375 -0.625q0.34375 -0.234375 0.671875 -0.328125q0.328125 -0.09375 0.671875 -0.09375q0.15625 0 0.34375 0.03125q0.203125 0.015625 0.40625 0.0625q0.21875 0.046875 0.375 0.109375q0.171875 0.046875 0.234375 0.109375q0.078125 0.0625 0.09375 0.109375q0.03125 0.046875 0.046875 0.140625q0.03125 0.078125 0.03125 0.234375q0 0.15625 0 0.421875z" fill-rule="nonzero"></path><path fill="#000000" fill-opacity="0.0" d="m249.50919 99.12336l60.125977 0l0 52.44094l-60.125977 0z" fill-rule="evenodd"></path><path fill="#000000" d="m259.3998 119.64336l0 -8.59375l1.71875 0l2.03125 6.078125q0.28125 0.859375 0.40625 1.28125q0.140625 -0.46875 0.453125 -1.375l2.0625 -5.984375l1.53125 0l0 8.59375l-1.09375 0l0 -7.1875l-2.5 7.1875l-1.03125 0l-2.484375 -7.3125l0 7.3125l-1.09375 0zm14.152344 -2.0l1.09375 0.125q-0.25 0.953125 -0.953125 1.484375q-0.703125 0.53125 -1.78125 0.53125q-1.359375 0 -2.171875 -0.84375q-0.796875 -0.84375 -0.796875 -2.359375q0 -1.5625 0.8125 -2.421875q0.8125 -0.875 2.09375 -0.875q1.25 0 2.03125 0.84375q0.796875 0.84375 0.796875 2.390625q0 0.09375 0 0.28125l-4.640625 0q0.0625 1.03125 0.578125 1.578125q0.515625 0.53125 1.296875 0.53125q0.578125 0 0.984375 -0.296875q0.421875 -0.3125 0.65625 -0.96875zm-3.453125 -1.703125l3.46875 0q-0.0625 -0.796875 -0.390625 -1.1875q-0.515625 -0.609375 -1.3125 -0.609375q-0.734375 0 -1.234375 0.484375q-0.484375 0.484375 -0.53125 1.3125zm5.861328 3.703125l0 -6.21875l0.953125 0l0 0.9375q0.359375 -0.65625 0.65625 -0.859375q0.3125 -0.21875 0.6875 -0.21875q0.53125 0 1.078125 0.328125l-0.359375 0.984375q-0.390625 -0.234375 -0.765625 -0.234375q-0.359375 0 -0.640625 0.21875q-0.265625 0.203125 -0.375 0.578125q-0.1875 0.5625 -0.1875 1.21875l0 3.265625l-1.046875 0zm3.8085938 0.515625l1.03125 0.15625q0.0625 0.46875 0.359375 0.6875q0.390625 0.296875 1.0625 0.296875q0.734375 0 1.125 -0.296875q0.40625 -0.296875 0.546875 -0.8125q0.09375 -0.328125 0.078125 -1.359375q-0.6875 0.8125 -1.71875 0.8125q-1.28125 0 -1.984375 -0.921875q-0.703125 -0.9375 -0.703125 -2.21875q0 -0.890625 0.3125 -1.640625q0.328125 -0.765625 0.9375 -1.171875q0.609375 -0.40625 1.4375 -0.40625q1.109375 0 1.828125 0.890625l0 -0.75l0.96875 0l0 5.375q0 1.453125 -0.296875 2.0625q-0.296875 0.609375 -0.9375 0.953125q-0.640625 0.359375 -1.578125 0.359375q-1.109375 0 -1.796875 -0.5q-0.6875 -0.5 -0.671875 -1.515625zm0.875 -3.734375q0 1.21875 0.484375 1.78125q0.484375 0.5625 1.21875 0.5625q0.734375 0 1.21875 -0.5625q0.5 -0.5625 0.5 -1.75q0 -1.140625 -0.515625 -1.71875q-0.5 -0.578125 -1.21875 -0.578125q-0.703125 0 -1.203125 0.578125q-0.484375 0.5625 -0.484375 1.6875zm10.251953 1.21875l1.09375 0.125q-0.25 0.953125 -0.953125 1.484375q-0.703125 0.53125 -1.78125 0.53125q-1.359375 0 -2.171875 -0.84375q-0.796875 -0.84375 -0.796875 -2.359375q0 -1.5625 0.8125 -2.421875q0.8125 -0.875 2.09375 -0.875q1.25 0 2.03125 0.84375q0.796875 0.84375 0.796875 2.390625q0 0.09375 0 0.28125l-4.640625 0q0.0625 1.03125 0.578125 1.578125q0.515625 0.53125 1.296875 0.53125q0.578125 0 0.984375 -0.296875q0.421875 -0.3125 0.65625 -0.96875zm-3.453125 -1.703125l3.46875 0q-0.0625 -0.796875 -0.390625 -1.1875q-0.515625 -0.609375 -1.3125 -0.609375q-0.734375 0 -1.234375 0.484375q-0.484375 0.484375 -0.53125 1.3125z" fill-rule="nonzero"></path><path fill="#000000" d="m259.30606 126.26836l0 -1.21875l1.0625 0l0 1.21875l-1.0625 0zm0 7.375l0 -6.21875l1.0625 0l0 6.21875l-1.0625 0zm2.6660156 0l0 -6.21875l0.9375 0l0 0.875q0.6875 -1.015625 1.984375 -1.015625q0.5625 0 1.03125 0.203125q0.484375 0.203125 0.71875 0.53125q0.234375 0.328125 0.328125 0.765625q0.046875 0.296875 0.046875 1.03125l0 3.828125l-1.046875 0l0 -3.78125q0 -0.65625 -0.125 -0.96875q-0.125 -0.3125 -0.4375 -0.5q-0.3125 -0.203125 -0.734375 -0.203125q-0.671875 0 -1.171875 0.4375q-0.484375 0.421875 -0.484375 1.609375l0 3.40625l-1.046875 0zm8.970703 -0.9375l0.15625 0.921875q-0.453125 0.09375 -0.796875 0.09375q-0.578125 0 -0.890625 -0.171875q-0.3125 -0.1875 -0.453125 -0.484375q-0.125 -0.296875 -0.125 -1.25l0 -3.578125l-0.765625 0l0 -0.8125l0.765625 0l0 -1.546875l1.046875 -0.625l0 2.171875l1.0625 0l0 0.8125l-1.0625 0l0 3.640625q0 0.453125 0.046875 0.578125q0.0625 0.125 0.1875 0.203125q0.125 0.078125 0.359375 0.078125q0.1875 0 0.46875 -0.03125zm0.6464844 -2.171875q0 -1.734375 0.953125 -2.5625q0.796875 -0.6875 1.953125 -0.6875q1.28125 0 2.09375 0.84375q0.828125 0.828125 0.828125 2.3125q0 1.203125 -0.359375 1.890625q-0.359375 0.6875 -1.0625 1.078125q-0.6875 0.375 -1.5 0.375q-1.296875 0 -2.109375 -0.828125q-0.796875 -0.84375 -0.796875 -2.421875zm1.078125 0q0 1.1875 0.515625 1.78125q0.53125 0.59375 1.3125 0.59375q0.796875 0 1.3125 -0.59375q0.515625 -0.59375 0.515625 -1.8125q0 -1.15625 -0.53125 -1.75q-0.515625 -0.59375 -1.296875 -0.59375q-0.78125 0 -1.3125 0.59375q-0.515625 0.578125 -0.515625 1.78125z" fill-rule="nonzero"></path><path fill="#000000" d="m259.29044 147.64336l0 -6.21875l0.953125 0l0 0.9375q0.359375 -0.65625 0.65625 -0.859375q0.3125 -0.21875 0.6875 -0.21875q0.53125 0 1.078125 0.328125l-0.359375 0.984375q-0.390625 -0.234375 -0.765625 -0.234375q-0.359375 0 -0.640625 0.21875q-0.265625 0.203125 -0.375 0.578125q-0.1875 0.5625 -0.1875 1.21875l0 3.265625l-1.046875 0zm3.6210938 -3.109375q0 -1.734375 0.953125 -2.5625q0.796875 -0.6875 1.953125 -0.6875q1.28125 0 2.09375 0.84375q0.828125 0.828125 0.828125 2.3125q0 1.203125 -0.359375 1.890625q-0.359375 0.6875 -1.0625 1.078125q-0.6875 0.375 -1.5 0.375q-1.296875 0 -2.109375 -0.828125q-0.796875 -0.84375 -0.796875 -2.421875zm1.078125 0q0 1.1875 0.515625 1.78125q0.53125 0.59375 1.3125 0.59375q0.796875 0 1.3125 -0.59375q0.515625 -0.59375 0.515625 -1.8125q0 -1.15625 -0.53125 -1.75q-0.515625 -0.59375 -1.296875 -0.59375q-0.78125 0 -1.3125 0.59375q-0.515625 0.578125 -0.515625 1.78125zm5.595703 0q0 -1.734375 0.953125 -2.5625q0.796875 -0.6875 1.953125 -0.6875q1.28125 0 2.09375 0.84375q0.828125 0.828125 0.828125 2.3125q0 1.203125 -0.359375 1.890625q-0.359375 0.6875 -1.0625 1.078125q-0.6875 0.375 -1.5 0.375q-1.296875 0 -2.109375 -0.828125q-0.796875 -0.84375 -0.796875 -2.421875zm1.078125 0q0 1.1875 0.515625 1.78125q0.53125 0.59375 1.3125 0.59375q0.796875 0 1.3125 -0.59375q0.515625 -0.59375 0.515625 -1.8125q0 -1.15625 -0.53125 -1.75q-0.515625 -0.59375 -1.296875 -0.59375q-0.78125 0 -1.3125 0.59375q-0.515625 0.578125 -0.515625 1.78125zm8.283203 2.171875l0.15625 0.921875q-0.453125 0.09375 -0.796875 0.09375q-0.578125 0 -0.890625 -0.171875q-0.3125 -0.1875 -0.453125 -0.484375q-0.125 -0.296875 -0.125 -1.25l0 -3.578125l-0.765625 0l0 -0.8125l0.765625 0l0 -1.546875l1.046875 -0.625l0 2.171875l1.0625 0l0 0.8125l-1.0625 0l0 3.640625q0 0.453125 0.046875 0.578125q0.0625 0.125 0.1875 0.203125q0.125 0.078125 0.359375 0.078125q0.1875 0 0.46875 -0.03125z" fill-rule="nonzero"></path></g></svg>

