<?xml version="1.0" standalone="yes"?>

<svg version="1.1" viewBox="0.0 0.0 835.7034120734908 475.46456692913387" fill="none" stroke="none" stroke-linecap="square" stroke-miterlimit="10" xmlns="http://www.w3.org/2000/svg" xmlns:xlink="http://www.w3.org/1999/xlink"><clipPath id="p.0"><path d="m0 0l835.7034 0l0 475.46457l-835.7034 0l0 -475.46457z" clip-rule="nonzero"></path></clipPath><g clip-path="url(#p.0)"><path fill="#000000" fill-opacity="0.0" d="m0 0l835.7034 0l0 475.46457l-835.7034 0z" fill-rule="evenodd"></path><path fill="#666666" d="m33.73491 175.94264l0 0c0 -14.481461 11.73954 -26.220993 26.220997 -26.220993l104.880844 0l0 0c6.954239 0 13.623657 2.762558 18.541046 7.679947c4.917389 4.917389 7.679947 11.586807 7.679947 18.541046l0 112.75487c0 14.481445 -11.739532 26.220978 -26.220993 26.220978l-104.880844 0c-14.481457 0 -26.220997 -11.739532 -26.220997 -26.220978z" fill-rule="evenodd"></path><path stroke="#434343" stroke-width="2.0" stroke-linejoin="round" stroke-linecap="butt" d="m33.73491 175.94264l0 0c0 -14.481461 11.73954 -26.220993 26.220997 -26.220993l104.880844 0l0 0c6.954239 0 13.623657 2.762558 18.541046 7.679947c4.917389 4.917389 7.679947 11.586807 7.679947 18.541046l0 112.75487c0 14.481445 -11.739532 26.220978 -26.220993 26.220978l-104.880844 0c-14.481457 0 -26.220997 -11.739532 -26.220997 -26.220978z" fill-rule="evenodd"></path><path fill="#ffffff" d="m104.15414 196.1684q0.125 0.34375 0.125 0.5625q0.015625 0.203125 -0.109375 0.3125q-0.125 0.109375 -0.421875 0.140625q-0.28125 0.03125 -0.765625 0.03125q-0.484375 0 -0.78125 -0.03125q-0.28125 -0.015625 -0.4375 -0.0625q-0.140625 -0.0625 -0.21875 -0.15625q-0.0625 -0.09375 -0.125 -0.234375l-1.734375 -4.921875l-8.40625 0l-1.65625 4.859375q-0.046875 0.140625 -0.125 0.25q-0.078125 0.09375 -0.234375 0.171875q-0.140625 0.0625 -0.421875 0.09375q-0.265625 0.03125 -0.703125 0.03125q-0.453125 0 -0.75 -0.046875q-0.28125 -0.03125 -0.40625 -0.140625q-0.109375 -0.109375 -0.109375 -0.3125q0.015625 -0.21875 0.140625 -0.5625l6.78125 -18.78125q0.0625 -0.171875 0.15625 -0.28125q0.109375 -0.109375 0.296875 -0.171875q0.203125 -0.0625 0.5 -0.078125q0.3125 -0.03125 0.78125 -0.03125q0.5 0 0.828125 0.03125q0.328125 0.015625 0.53125 0.078125q0.203125 0.0625 0.3125 0.1875q0.109375 0.109375 0.171875 0.28125l6.78125 18.78125zm-8.703125 -16.578125l-0.015625 0l-3.484375 10.078125l7.03125 0l-3.53125 -10.078125zm24.718758 9.890625q0 1.84375 -0.40625 3.3125q-0.390625 1.46875 -1.171875 2.5q-0.765625 1.015625 -1.90625 1.578125q-1.140625 0.546875 -2.609375 0.546875q-0.625 0 -1.15625 -0.125q-0.53125 -0.125 -1.046875 -0.390625q-0.5 -0.265625 -1.0 -0.671875q-0.5 -0.40625 -1.0625 -0.953125l0 7.03125q0 0.125 -0.0625 0.21875q-0.0625 0.09375 -0.203125 0.15625q-0.140625 0.0625 -0.390625 0.09375q-0.25 0.03125 -0.640625 0.03125q-0.375 0 -0.625 -0.03125q-0.25 -0.03125 -0.40625 -0.09375q-0.140625 -0.0625 -0.203125 -0.15625q-0.046875 -0.09375 -0.046875 -0.21875l0 -19.640625q0 -0.140625 0.046875 -0.21875q0.046875 -0.09375 0.1875 -0.15625q0.140625 -0.0625 0.359375 -0.078125q0.21875 -0.03125 0.53125 -0.03125q0.328125 0 0.53125 0.03125q0.21875 0.015625 0.359375 0.078125q0.140625 0.0625 0.1875 0.15625q0.0625 0.078125 0.0625 0.21875l0 1.890625q0.640625 -0.65625 1.234375 -1.140625q0.59375 -0.484375 1.1875 -0.796875q0.609375 -0.328125 1.234375 -0.484375q0.640625 -0.171875 1.34375 -0.171875q1.53125 0 2.609375 0.59375q1.078125 0.59375 1.75 1.625q0.6875 1.03125 1.0 2.40625q0.3125 1.359375 0.3125 2.890625zm-2.71875 0.296875q0 -1.078125 -0.171875 -2.078125q-0.15625 -1.015625 -0.5625 -1.796875q-0.390625 -0.78125 -1.0625 -1.25q-0.671875 -0.46875 -1.671875 -0.46875q-0.5 0 -0.984375 0.15625q-0.484375 0.140625 -0.984375 0.46875q-0.5 0.3125 -1.046875 0.84375q-0.546875 0.515625 -1.15625 1.28125l0 5.59375q1.0625 1.296875 2.015625 1.984375q0.953125 0.6875 2.0 0.6875q0.96875 0 1.65625 -0.46875q0.703125 -0.46875 1.125 -1.25q0.4375 -0.78125 0.640625 -1.75q0.203125 -0.96875 0.203125 -1.953125zm19.53125 -0.296875q0 1.84375 -0.40625 3.3125q-0.390625 1.46875 -1.171875 2.5q-0.765625 1.015625 -1.90625 1.578125q-1.140625 0.546875 -2.609375 0.546875q-0.625 0 -1.15625 -0.125q-0.53125 -0.125 -1.046875 -0.390625q-0.5 -0.265625 -1.0 -0.671875q-0.5 -0.40625 -1.0625 -0.953125l0 7.03125q0 0.125 -0.0625 0.21875q-0.0625 0.09375 -0.203125 0.15625q-0.140625 0.0625 -0.390625 0.09375q-0.25 0.03125 -0.640625 0.03125q-0.375 0 -0.625 -0.03125q-0.25 -0.03125 -0.40625 -0.09375q-0.140625 -0.0625 -0.203125 -0.15625q-0.046875 -0.09375 -0.046875 -0.21875l0 -19.640625q0 -0.140625 0.046875 -0.21875q0.046875 -0.09375 0.1875 -0.15625q0.140625 -0.0625 0.359375 -0.078125q0.21875 -0.03125 0.53125 -0.03125q0.328125 0 0.53125 0.03125q0.21875 0.015625 0.359375 0.078125q0.140625 0.0625 0.1875 0.15625q0.0625 0.078125 0.0625 0.21875l0 1.890625q0.640625 -0.65625 1.234375 -1.140625q0.59375 -0.484375 1.1875 -0.796875q0.609375 -0.328125 1.234375 -0.484375q0.640625 -0.171875 1.34375 -0.171875q1.53125 0 2.609375 0.59375q1.078125 0.59375 1.75 1.625q0.6875 1.03125 1.0 2.40625q0.3125 1.359375 0.3125 2.890625zm-2.71875 0.296875q0 -1.078125 -0.171875 -2.078125q-0.15625 -1.015625 -0.5625 -1.796875q-0.390625 -0.78125 -1.0625 -1.25q-0.671875 -0.46875 -1.671875 -0.46875q-0.5 0 -0.984375 0.15625q-0.484375 0.140625 -0.984375 0.46875q-0.5 0.3125 -1.046875 0.84375q-0.546875 0.515625 -1.15625 1.28125l0 5.59375q1.0625 1.296875 2.015625 1.984375q0.953125 0.6875 2.0 0.6875q0.96875 0 1.65625 -0.46875q0.703125 -0.46875 1.125 -1.25q0.4375 -0.78125 0.640625 -1.75q0.203125 -0.96875 0.203125 -1.953125z" fill-rule="nonzero"></path><path fill="#cfe2f3" d="m57.140194 284.87744l40.881886 0l0 -33.280716l-6.656296 -6.656296l-34.22559 0z" fill-rule="evenodd"></path><path fill="#a5b4c2" d="m91.36578 244.94043l1.3312607 5.3250427l5.325035 1.331253z" fill-rule="evenodd"></path><path fill="#000000" fill-opacity="0.0" d="m91.36578 244.94043l1.3312607 5.3250427l5.325035 1.331253l-6.656296 -6.656296l-34.22559 0l0 39.93701l40.881886 0l0 -33.280716" fill-rule="evenodd"></path><path stroke="#000000" stroke-width="1.0" stroke-linejoin="round" stroke-linecap="butt" d="m91.36578 244.94043l1.3312607 5.3250427l5.325035 1.331253l-6.656296 -6.656296l-34.22559 0l0 39.93701l40.881886 0l0 -33.280716" fill-rule="evenodd"></path><path fill="#cfe2f3" d="m122.41115 284.87744l40.881897 0l0 -33.280716l-6.656311 -6.656296l-34.225586 0z" fill-rule="evenodd"></path><path fill="#a5b4c2" d="m156.63673 244.94043l1.3312683 5.3250427l5.3250427 1.331253z" fill-rule="evenodd"></path><path fill="#000000" fill-opacity="0.0" d="m156.63673 244.94043l1.3312683 5.3250427l5.3250427 1.331253l-6.656311 -6.656296l-34.225586 0l0 39.93701l40.881897 0l0 -33.280716" fill-rule="evenodd"></path><path stroke="#000000" stroke-width="1.0" stroke-linejoin="round" stroke-linecap="butt" d="m156.63673 244.94043l1.3312683 5.3250427l5.3250427 1.331253l-6.656311 -6.656296l-34.225586 0l0 39.93701l40.881897 0l0 -33.280716" fill-rule="evenodd"></path><path fill="#666666" d="m328.4882 175.94263l0 0c0 -14.481445 11.739532 -26.220993 26.221008 -26.220993l104.88083 0l0 0c6.954254 0 13.623657 2.762558 18.541046 7.679947c4.917389 4.917404 7.679962 11.586807 7.679962 18.541046l0 109.63675c0 14.481445 -11.739563 26.221008 -26.221008 26.221008l-104.88083 0c-14.481476 0 -26.221008 -11.739563 -26.221008 -26.221008z" fill-rule="evenodd"></path><path stroke="#434343" stroke-width="2.0" stroke-linejoin="round" stroke-linecap="butt" d="m328.4882 175.94263l0 0c0 -14.481445 11.739532 -26.220993 26.221008 -26.220993l104.88083 0l0 0c6.954254 0 13.623657 2.762558 18.541046 7.679947c4.917389 4.917404 7.679962 11.586807 7.679962 18.541046l0 109.63675c0 14.481445 -11.739563 26.221008 -26.221008 26.221008l-104.88083 0c-14.481476 0 -26.221008 -11.739563 -26.221008 -26.221008z" fill-rule="evenodd"></path><path fill="#ffffff" d="m398.9074 196.16838q0.125 0.34375 0.125 0.5625q0.015625 0.203125 -0.109375 0.3125q-0.125 0.109375 -0.421875 0.140625q-0.28125 0.03125 -0.765625 0.03125q-0.484375 0 -0.78125 -0.03125q-0.28125 -0.015625 -0.4375 -0.0625q-0.140625 -0.0625 -0.21875 -0.15625q-0.0625 -0.09375 -0.125 -0.234375l-1.734375 -4.921875l-8.40625 0l-1.65625 4.859375q-0.046875 0.140625 -0.125 0.25q-0.078125 0.09375 -0.234375 0.171875q-0.140625 0.0625 -0.421875 0.09375q-0.265625 0.03125 -0.703125 0.03125q-0.453125 0 -0.75 -0.046875q-0.28125 -0.03125 -0.40625 -0.140625q-0.109375 -0.109375 -0.109375 -0.3125q0.015625 -0.21875 0.140625 -0.5625l6.78125 -18.78125q0.0625 -0.171875 0.15625 -0.28125q0.109375 -0.109375 0.296875 -0.171875q0.203125 -0.0625 0.5 -0.078125q0.3125 -0.03125 0.78125 -0.03125q0.5 0 0.828125 0.03125q0.328125 0.015625 0.53125 0.078125q0.203125 0.0625 0.3125 0.1875q0.109375 0.109375 0.171875 0.28125l6.78125 18.78125zm-8.703125 -16.578125l-0.015625 0l-3.484375 10.078125l7.03125 0l-3.53125 -10.078125zm24.71875 9.890625q0 1.84375 -0.40625 3.3125q-0.390625 1.46875 -1.171875 2.5q-0.765625 1.015625 -1.90625 1.578125q-1.140625 0.546875 -2.609375 0.546875q-0.625 0 -1.15625 -0.125q-0.53125 -0.125 -1.046875 -0.390625q-0.5 -0.265625 -1.0 -0.671875q-0.5 -0.40625 -1.0625 -0.953125l0 7.03125q0 0.125 -0.0625 0.21875q-0.0625 0.09375 -0.203125 0.15625q-0.140625 0.0625 -0.390625 0.09375q-0.25 0.03125 -0.640625 0.03125q-0.375 0 -0.625 -0.03125q-0.25 -0.03125 -0.40625 -0.09375q-0.140625 -0.0625 -0.203125 -0.15625q-0.046875 -0.09375 -0.046875 -0.21875l0 -19.640625q0 -0.140625 0.046875 -0.21875q0.046875 -0.09375 0.1875 -0.15625q0.140625 -0.0625 0.359375 -0.078125q0.21875 -0.03125 0.53125 -0.03125q0.328125 0 0.53125 0.03125q0.21875 0.015625 0.359375 0.078125q0.140625 0.0625 0.1875 0.15625q0.0625 0.078125 0.0625 0.21875l0 1.890625q0.640625 -0.65625 1.234375 -1.140625q0.59375 -0.484375 1.1875 -0.796875q0.609375 -0.328125 1.234375 -0.484375q0.640625 -0.171875 1.34375 -0.171875q1.53125 0 2.609375 0.59375q1.078125 0.59375 1.75 1.625q0.6875 1.03125 1.0 2.40625q0.3125 1.359375 0.3125 2.890625zm-2.71875 0.296875q0 -1.078125 -0.171875 -2.078125q-0.15625 -1.015625 -0.5625 -1.796875q-0.390625 -0.78125 -1.0625 -1.25q-0.671875 -0.46875 -1.671875 -0.46875q-0.5 0 -0.984375 0.15625q-0.484375 0.140625 -0.984375 0.46875q-0.5 0.3125 -1.046875 0.84375q-0.546875 0.515625 -1.15625 1.28125l0 5.59375q1.0625 1.296875 2.015625 1.984375q0.953125 0.6875 2.0 0.6875q0.96875 0 1.65625 -0.46875q0.703125 -0.46875 1.125 -1.25q0.4375 -0.78125 0.640625 -1.75q0.203125 -0.96875 0.203125 -1.953125zm19.53125 -0.296875q0 1.84375 -0.40625 3.3125q-0.390625 1.46875 -1.171875 2.5q-0.765625 1.015625 -1.90625 1.578125q-1.140625 0.546875 -2.609375 0.546875q-0.625 0 -1.15625 -0.125q-0.53125 -0.125 -1.046875 -0.390625q-0.5 -0.265625 -1.0 -0.671875q-0.5 -0.40625 -1.0625 -0.953125l0 7.03125q0 0.125 -0.0625 0.21875q-0.0625 0.09375 -0.203125 0.15625q-0.140625 0.0625 -0.390625 0.09375q-0.25 0.03125 -0.640625 0.03125q-0.375 0 -0.625 -0.03125q-0.25 -0.03125 -0.40625 -0.09375q-0.140625 -0.0625 -0.203125 -0.15625q-0.046875 -0.09375 -0.046875 -0.21875l0 -19.640625q0 -0.140625 0.046875 -0.21875q0.046875 -0.09375 0.1875 -0.15625q0.140625 -0.0625 0.359375 -0.078125q0.21875 -0.03125 0.53125 -0.03125q0.328125 0 0.53125 0.03125q0.21875 0.015625 0.359375 0.078125q0.140625 0.0625 0.1875 0.15625q0.0625 0.078125 0.0625 0.21875l0 1.890625q0.640625 -0.65625 1.234375 -1.140625q0.59375 -0.484375 1.1875 -0.796875q0.609375 -0.328125 1.234375 -0.484375q0.640625 -0.171875 1.34375 -0.171875q1.53125 0 2.609375 0.59375q1.078125 0.59375 1.75 1.625q0.6875 1.03125 1.0 2.40625q0.3125 1.359375 0.3125 2.890625zm-2.71875 0.296875q0 -1.078125 -0.171875 -2.078125q-0.15625 -1.015625 -0.5625 -1.796875q-0.390625 -0.78125 -1.0625 -1.25q-0.671875 -0.46875 -1.671875 -0.46875q-0.5 0 -0.984375 0.15625q-0.484375 0.140625 -0.984375 0.46875q-0.5 0.3125 -1.046875 0.84375q-0.546875 0.515625 -1.15625 1.28125l0 5.59375q1.0625 1.296875 2.015625 1.984375q0.953125 0.6875 2.0 0.6875q0.96875 0 1.65625 -0.46875q0.703125 -0.46875 1.125 -1.25q0.4375 -0.78125 0.640625 -1.75q0.203125 -0.96875 0.203125 -1.953125z" fill-rule="nonzero"></path><path fill="#cfe2f3" d="m362.66922 290.7293l40.881897 0l0 -32.650787l-6.5303345 -6.530304l-34.351562 0z" fill-rule="evenodd"></path><path fill="#a5b4c2" d="m397.02078 251.54822l1.3060608 5.224243l5.2242737 1.3060608z" fill-rule="evenodd"></path><path fill="#000000" fill-opacity="0.0" d="m397.02078 251.54822l1.3060608 5.224243l5.2242737 1.3060608l-6.5303345 -6.530304l-34.351562 0l0 39.18109l40.881897 0l0 -32.650787" fill-rule="evenodd"></path><path stroke="#000000" stroke-width="1.0" stroke-linejoin="round" stroke-linecap="butt" d="m397.02078 251.54822l1.3060608 5.224243l5.2242737 1.3060608l-6.5303345 -6.530304l-34.351562 0l0 39.18109l40.881897 0l0 -32.650787" fill-rule="evenodd"></path><path fill="#cfe2f3" d="m427.9402 290.7293l40.881866 0l0 -32.650787l-6.530304 -6.530304l-34.351562 0z" fill-rule="evenodd"></path><path fill="#a5b4c2" d="m462.29175 251.54822l1.3060608 5.224243l5.224243 1.3060608z" fill-rule="evenodd"></path><path fill="#000000" fill-opacity="0.0" d="m462.29175 251.54822l1.3060608 5.224243l5.224243 1.3060608l-6.530304 -6.530304l-34.351562 0l0 39.18109l40.881866 0l0 -32.650787" fill-rule="evenodd"></path><path stroke="#000000" stroke-width="1.0" stroke-linejoin="round" stroke-linecap="butt" d="m462.29175 251.54822l1.3060608 5.224243l5.224243 1.3060608l-6.530304 -6.530304l-34.351562 0l0 39.18109l40.881866 0l0 -32.650787" fill-rule="evenodd"></path><path fill="#666666" d="m645.09973 174.36255l0 0c0 -13.60881 11.0321045 -24.640915 24.64093 -24.640915l98.56067 0l0 0c6.5352173 0 12.802673 2.5960846 17.423767 7.217148c4.6210938 4.6210785 7.217163 10.88858 7.217163 17.423767l0 112.796906c0 13.608795 -11.0321045 24.64093 -24.64093 24.64093l-98.56067 0c-13.608826 0 -24.64093 -11.032135 -24.64093 -24.64093z" fill-rule="evenodd"></path><path stroke="#434343" stroke-width="2.0" stroke-linejoin="round" stroke-linecap="butt" d="m645.09973 174.36255l0 0c0 -13.60881 11.0321045 -24.640915 24.64093 -24.640915l98.56067 0l0 0c6.5352173 0 12.802673 2.5960846 17.423767 7.217148c4.6210938 4.6210785 7.217163 10.88858 7.217163 17.423767l0 112.796906c0 13.608795 -11.0321045 24.64093 -24.64093 24.64093l-98.56067 0c-13.608826 0 -24.64093 -11.032135 -24.64093 -24.64093z" fill-rule="evenodd"></path><path fill="#ffffff" d="m710.7788 195.70558q0.125 0.34375 0.125 0.5625q0.015625 0.203125 -0.109375 0.3125q-0.125 0.109375 -0.421875 0.140625q-0.28125 0.03125 -0.765625 0.03125q-0.484375 0 -0.78125 -0.03125q-0.28125 -0.015625 -0.4375 -0.0625q-0.140625 -0.0625 -0.21875 -0.15625q-0.0625 -0.09375 -0.125 -0.234375l-1.734375 -4.921875l-8.40625 0l-1.65625 4.859375q-0.046875 0.140625 -0.125 0.25q-0.078125 0.09375 -0.234375 0.171875q-0.140625 0.0625 -0.421875 0.09375q-0.265625 0.03125 -0.703125 0.03125q-0.453125 0 -0.75 -0.046875q-0.28125 -0.03125 -0.40625 -0.140625q-0.109375 -0.109375 -0.109375 -0.3125q0.015625 -0.21875 0.140625 -0.5625l6.78125 -18.78125q0.0625 -0.171875 0.15625 -0.28125q0.109375 -0.109375 0.296875 -0.171875q0.203125 -0.0625 0.5 -0.078125q0.3125 -0.03125 0.78125 -0.03125q0.5 0 0.828125 0.03125q0.328125 0.015625 0.53125 0.078125q0.203125 0.0625 0.3125 0.1875q0.109375 0.109375 0.171875 0.28125l6.78125 18.78125zm-8.703125 -16.578125l-0.015625 0l-3.484375 10.078125l7.03125 0l-3.53125 -10.078125zm24.71875 9.890625q0 1.84375 -0.40625 3.3125q-0.390625 1.46875 -1.171875 2.5q-0.765625 1.015625 -1.90625 1.578125q-1.140625 0.546875 -2.609375 0.546875q-0.625 0 -1.15625 -0.125q-0.53125 -0.125 -1.046875 -0.390625q-0.5 -0.265625 -1.0 -0.671875q-0.5 -0.40625 -1.0625 -0.953125l0 7.03125q0 0.125 -0.0625 0.21875q-0.0625 0.09375 -0.203125 0.15625q-0.140625 0.0625 -0.390625 0.09375q-0.25 0.03125 -0.640625 0.03125q-0.375 0 -0.625 -0.03125q-0.25 -0.03125 -0.40625 -0.09375q-0.140625 -0.0625 -0.203125 -0.15625q-0.046875 -0.09375 -0.046875 -0.21875l0 -19.640625q0 -0.140625 0.046875 -0.21875q0.046875 -0.09375 0.1875 -0.15625q0.140625 -0.0625 0.359375 -0.078125q0.21875 -0.03125 0.53125 -0.03125q0.328125 0 0.53125 0.03125q0.21875 0.015625 0.359375 0.078125q0.140625 0.0625 0.1875 0.15625q0.0625 0.078125 0.0625 0.21875l0 1.890625q0.640625 -0.65625 1.234375 -1.140625q0.59375 -0.484375 1.1875 -0.796875q0.609375 -0.328125 1.234375 -0.484375q0.640625 -0.171875 1.34375 -0.171875q1.53125 0 2.609375 0.59375q1.078125 0.59375 1.75 1.625q0.6875 1.03125 1.0 2.40625q0.3125 1.359375 0.3125 2.890625zm-2.71875 0.296875q0 -1.078125 -0.171875 -2.078125q-0.15625 -1.015625 -0.5625 -1.796875q-0.390625 -0.78125 -1.0625 -1.25q-0.671875 -0.46875 -1.671875 -0.46875q-0.5 0 -0.984375 0.15625q-0.484375 0.140625 -0.984375 0.46875q-0.5 0.3125 -1.046875 0.84375q-0.546875 0.515625 -1.15625 1.28125l0 5.59375q1.0625 1.296875 2.015625 1.984375q0.953125 0.6875 2.0 0.6875q0.96875 0 1.65625 -0.46875q0.703125 -0.46875 1.125 -1.25q0.4375 -0.78125 0.640625 -1.75q0.203125 -0.96875 0.203125 -1.953125zm19.53125 -0.296875q0 1.84375 -0.40625 3.3125q-0.390625 1.46875 -1.171875 2.5q-0.765625 1.015625 -1.90625 1.578125q-1.140625 0.546875 -2.609375 0.546875q-0.625 0 -1.15625 -0.125q-0.53125 -0.125 -1.046875 -0.390625q-0.5 -0.265625 -1.0 -0.671875q-0.5 -0.40625 -1.0625 -0.953125l0 7.03125q0 0.125 -0.0625 0.21875q-0.0625 0.09375 -0.203125 0.15625q-0.140625 0.0625 -0.390625 0.09375q-0.25 0.03125 -0.640625 0.03125q-0.375 0 -0.625 -0.03125q-0.25 -0.03125 -0.40625 -0.09375q-0.140625 -0.0625 -0.203125 -0.15625q-0.046875 -0.09375 -0.046875 -0.21875l0 -19.640625q0 -0.140625 0.046875 -0.21875q0.046875 -0.09375 0.1875 -0.15625q0.140625 -0.0625 0.359375 -0.078125q0.21875 -0.03125 0.53125 -0.03125q0.328125 0 0.53125 0.03125q0.21875 0.015625 0.359375 0.078125q0.140625 0.0625 0.1875 0.15625q0.0625 0.078125 0.0625 0.21875l0 1.890625q0.640625 -0.65625 1.234375 -1.140625q0.59375 -0.484375 1.1875 -0.796875q0.609375 -0.328125 1.234375 -0.484375q0.640625 -0.171875 1.34375 -0.171875q1.53125 0 2.609375 0.59375q1.078125 0.59375 1.75 1.625q0.6875 1.03125 1.0 2.40625q0.3125 1.359375 0.3125 2.890625zm-2.71875 0.296875q0 -1.078125 -0.171875 -2.078125q-0.15625 -1.015625 -0.5625 -1.796875q-0.390625 -0.78125 -1.0625 -1.25q-0.671875 -0.46875 -1.671875 -0.46875q-0.5 0 -0.984375 0.15625q-0.484375 0.140625 -0.984375 0.46875q-0.5 0.3125 -1.046875 0.84375q-0.546875 0.515625 -1.15625 1.28125l0 5.59375q1.0625 1.296875 2.015625 1.984375q0.953125 0.6875 2.0 0.6875q0.96875 0 1.65625 -0.46875q0.703125 -0.46875 1.125 -1.25q0.4375 -0.78125 0.640625 -1.75q0.203125 -0.96875 0.203125 -1.953125z" fill-rule="nonzero"></path><path fill="#cfe2f3" d="m699.80963 284.49777l38.42517 0l0 -32.776764l-6.404297 -6.4043274l-32.020874 0z" fill-rule="evenodd"></path><path fill="#a5b4c2" d="m731.8305 245.31668l1.2808228 5.123459l5.123474 1.2808685z" fill-rule="evenodd"></path><path fill="#000000" fill-opacity="0.0" d="m731.8305 245.31668l1.2808228 5.123459l5.123474 1.2808685l-6.404297 -6.4043274l-32.020874 0l0 39.18109l38.42517 0l0 -32.776764" fill-rule="evenodd"></path><path stroke="#000000" stroke-width="1.0" stroke-linejoin="round" stroke-linecap="butt" d="m731.8305 245.31668l1.2808228 5.123459l5.123474 1.2808685l-6.404297 -6.4043274l-32.020874 0l0 39.18109l38.42517 0l0 -32.776764" fill-rule="evenodd"></path><path fill="#ffffff" d="m203.50394 208.13124l75.590546 0l0 -14.472443l28.944885 28.94487l-28.944885 28.944885l0 -14.472443l-75.590546 0z" fill-rule="evenodd"></path><path stroke="#000000" stroke-width="1.0" stroke-linejoin="round" stroke-linecap="butt" d="m203.50394 208.13124l75.590546 0l0 -14.472443l28.944885 28.94487l-28.944885 28.944885l0 -14.472443l-75.590546 0z" fill-rule="evenodd"></path><path fill="#000000" d="m217.42581 229.52367l0 -12.0l-4.46875 0l0 -1.59375l10.765625 0l0 1.59375l-4.5 0l0 12.0l-1.796875 0zm7.333481 -4.375l1.6875 -0.140625q0.125 1.015625 0.5625 1.671875q0.4375 0.65625 1.359375 1.0625q0.9375 0.40625 2.09375 0.40625q1.03125 0 1.8125 -0.3125q0.796875 -0.3125 1.1875 -0.84375q0.390625 -0.53125 0.390625 -1.15625q0 -0.640625 -0.375 -1.109375q-0.375 -0.484375 -1.234375 -0.8125q-0.546875 -0.21875 -2.421875 -0.65625q-1.875 -0.453125 -2.625 -0.859375q-0.96875 -0.515625 -1.453125 -1.265625q-0.46875 -0.75 -0.46875 -1.6875q0 -1.03125 0.578125 -1.921875q0.59375 -0.90625 1.703125 -1.359375q1.125 -0.46875 2.5 -0.46875q1.515625 0 2.671875 0.484375q1.15625 0.484375 1.765625 1.4375q0.625 0.9375 0.671875 2.140625l-1.71875 0.125q-0.140625 -1.28125 -0.953125 -1.9375q-0.796875 -0.671875 -2.359375 -0.671875q-1.625 0 -2.375 0.609375q-0.75 0.59375 -0.75 1.4375q0 0.734375 0.53125 1.203125q0.515625 0.46875 2.703125 0.96875q2.203125 0.5 3.015625 0.875q1.1875 0.546875 1.75 1.390625q0.578125 0.828125 0.578125 1.921875q0 1.09375 -0.625 2.0625q-0.625 0.953125 -1.796875 1.484375q-1.15625 0.53125 -2.609375 0.53125q-1.84375 0 -3.09375 -0.53125q-1.25 -0.546875 -1.96875 -1.625q-0.703125 -1.078125 -0.734375 -2.453125zm22.756073 -0.390625l1.796875 0.453125q-0.5625 2.21875 -2.03125 3.390625q-1.46875 1.15625 -3.59375 1.15625q-2.203125 0 -3.578125 -0.890625q-1.375 -0.90625 -2.09375 -2.59375q-0.71875 -1.703125 -0.71875 -3.65625q0 -2.125 0.796875 -3.703125q0.8125 -1.578125 2.3125 -2.390625q1.5 -0.828125 3.296875 -0.828125q2.046875 0 3.4375 1.046875q1.390625 1.03125 1.9375 2.90625l-1.765625 0.421875q-0.46875 -1.484375 -1.375 -2.15625q-0.90625 -0.6875 -2.265625 -0.6875q-1.5625 0 -2.625 0.75q-1.046875 0.75 -1.484375 2.03125q-0.421875 1.265625 -0.421875 2.609375q0 1.734375 0.5 3.03125q0.515625 1.28125 1.578125 1.921875q1.078125 0.640625 2.3125 0.640625q1.515625 0 2.5625 -0.859375q1.046875 -0.875 1.421875 -2.59375z" fill-rule="nonzero"></path><path fill="#000000" fill-opacity="0.0" d="m79.03674 329.83728l52.283463 0l0 41.82675l-52.283463 0z" fill-rule="evenodd"></path><path fill="#000000" d="m89.75549 356.75726l0 -1.90625l1.90625 0l0 1.90625l-1.90625 0zm8.370804 -1.5l0.234375 1.484375q-0.703125 0.140625 -1.265625 0.140625q-0.90625 0 -1.40625 -0.28125q-0.5 -0.296875 -0.703125 -0.75q-0.203125 -0.46875 -0.203125 -1.984375l0 -5.65625l-1.234375 0l0 -1.3125l1.234375 0l0 -2.4375l1.65625 -1.0l0 3.4375l1.6875 0l0 1.3125l-1.6875 0l0 5.75q0 0.71875 0.078125 0.921875q0.09375 0.203125 0.296875 0.328125q0.203125 0.125 0.578125 0.125q0.265625 0 0.734375 -0.078125zm0.85517883 -1.4375l1.65625 -0.265625q0.140625 1.0 0.765625 1.53125q0.640625 0.515625 1.78125 0.515625q1.15625 0 1.703125 -0.46875q0.5625 -0.46875 0.5625 -1.09375q0 -0.5625 -0.484375 -0.890625q-0.34375 -0.21875 -1.703125 -0.5625q-1.84375 -0.46875 -2.5625 -0.796875q-0.703125 -0.34375 -1.078125 -0.9375q-0.359375 -0.609375 -0.359375 -1.328125q0 -0.65625 0.296875 -1.21875q0.3125 -0.5625 0.828125 -0.9375q0.390625 -0.28125 1.0625 -0.484375q0.671875 -0.203125 1.4375 -0.203125q1.171875 0 2.046875 0.34375q0.875 0.328125 1.28125 0.90625q0.421875 0.5625 0.578125 1.515625l-1.625 0.21875q-0.109375 -0.75 -0.65625 -1.171875q-0.53125 -0.4375 -1.5 -0.4375q-1.15625 0 -1.640625 0.390625q-0.484375 0.375 -0.484375 0.875q0 0.328125 0.203125 0.59375q0.203125 0.265625 0.640625 0.4375q0.25 0.09375 1.46875 0.4375q1.765625 0.46875 2.46875 0.765625q0.703125 0.296875 1.09375 0.875q0.40625 0.578125 0.40625 1.4375q0 0.828125 -0.484375 1.578125q-0.484375 0.734375 -1.40625 1.140625q-0.921875 0.390625 -2.078125 0.390625q-1.921875 0 -2.9375 -0.796875q-1.0 -0.796875 -1.28125 -2.359375z" fill-rule="nonzero"></path><path fill="#000000" fill-opacity="0.0" d="m375.65616 329.83728l52.283478 0l0 41.82675l-52.283478 0z" fill-rule="evenodd"></path><path fill="#000000" d="m386.3749 356.75726l0 -1.90625l1.90625 0l0 1.90625l-1.90625 0zm4.714569 -11.65625l0 -1.9375l1.65625 0l0 1.9375l-1.65625 0zm-2.125 15.484375l0.3125 -1.421875q0.5 0.125 0.796875 0.125q0.515625 0 0.765625 -0.34375q0.25 -0.328125 0.25 -1.6875l0 -10.359375l1.65625 0l0 10.390625q0 1.828125 -0.46875 2.546875q-0.59375 0.921875 -2.0 0.921875q-0.671875 0 -1.3125 -0.171875zm5.597931 -6.765625l1.65625 -0.265625q0.140625 1.0 0.765625 1.53125q0.640625 0.515625 1.78125 0.515625q1.15625 0 1.703125 -0.46875q0.5625 -0.46875 0.5625 -1.09375q0 -0.5625 -0.484375 -0.890625q-0.34375 -0.21875 -1.703125 -0.5625q-1.84375 -0.46875 -2.5625 -0.796875q-0.703125 -0.34375 -1.078125 -0.9375q-0.359375 -0.609375 -0.359375 -1.328125q0 -0.65625 0.296875 -1.21875q0.3125 -0.5625 0.828125 -0.9375q0.390625 -0.28125 1.0625 -0.484375q0.671875 -0.203125 1.4375 -0.203125q1.171875 0 2.046875 0.34375q0.875 0.328125 1.28125 0.90625q0.421875 0.5625 0.578125 1.515625l-1.625 0.21875q-0.109375 -0.75 -0.65625 -1.171875q-0.53125 -0.4375 -1.5 -0.4375q-1.15625 0 -1.640625 0.390625q-0.484375 0.375 -0.484375 0.875q0 0.328125 0.203125 0.59375q0.203125 0.265625 0.640625 0.4375q0.25 0.09375 1.46875 0.4375q1.765625 0.46875 2.46875 0.765625q0.703125 0.296875 1.09375 0.875q0.40625 0.578125 0.40625 1.4375q0 0.828125 -0.484375 1.578125q-0.484375 0.734375 -1.40625 1.140625q-0.921875 0.390625 -2.078125 0.390625q-1.921875 0 -2.9375 -0.796875q-1.0 -0.796875 -1.28125 -2.359375z" fill-rule="nonzero"></path><path fill="#000000" fill-opacity="0.0" d="m676.4803 329.83728l132.47247 0l0 41.82675l-132.47247 0z" fill-rule="evenodd"></path><path fill="#000000" d="m688.27716 356.75726l-1.546875 0l0 -13.59375l1.65625 0l0 4.84375q1.0625 -1.328125 2.703125 -1.328125q0.90625 0 1.71875 0.375q0.8125 0.359375 1.328125 1.03125q0.53125 0.65625 0.828125 1.59375q0.296875 0.9375 0.296875 2.0q0 2.53125 -1.25 3.921875q-1.25 1.375 -3.0 1.375q-1.75 0 -2.734375 -1.453125l0 1.234375zm-0.015625 -5.0q0 1.765625 0.46875 2.5625q0.796875 1.28125 2.140625 1.28125q1.09375 0 1.890625 -0.9375q0.796875 -0.953125 0.796875 -2.84375q0 -1.921875 -0.765625 -2.84375q-0.765625 -0.921875 -1.84375 -0.921875q-1.09375 0 -1.890625 0.953125q-0.796875 0.953125 -0.796875 2.75zm15.297607 5.0l0 -1.453125q-1.140625 1.671875 -3.125 1.671875q-0.859375 0 -1.625 -0.328125q-0.75 -0.34375 -1.125 -0.84375q-0.359375 -0.5 -0.515625 -1.234375q-0.09375 -0.5 -0.09375 -1.5625l0 -6.109375l1.671875 0l0 5.46875q0 1.3125 0.09375 1.765625q0.15625 0.65625 0.671875 1.03125q0.515625 0.375 1.265625 0.375q0.75 0 1.40625 -0.375q0.65625 -0.390625 0.921875 -1.046875q0.28125 -0.671875 0.28125 -1.9375l0 -5.28125l1.671875 0l0 9.859375l-1.5 0zm3.9226074 0l0 -9.859375l1.5 0l0 1.40625q1.09375 -1.625 3.140625 -1.625q0.890625 0 1.640625 0.328125q0.75 0.3125 1.109375 0.84375q0.375 0.515625 0.53125 1.21875q0.09375 0.46875 0.09375 1.625l0 6.0625l-1.671875 0l0 -6.0q0 -1.015625 -0.203125 -1.515625q-0.1875 -0.515625 -0.6875 -0.8125q-0.5 -0.296875 -1.171875 -0.296875q-1.0625 0 -1.84375 0.671875q-0.765625 0.671875 -0.765625 2.578125l0 5.375l-1.671875 0zm16.766357 0l0 -1.25q-0.9375 1.46875 -2.75 1.46875q-1.171875 0 -2.171875 -0.640625q-0.984375 -0.65625 -1.53125 -1.8125q-0.53125 -1.171875 -0.53125 -2.6875q0 -1.46875 0.484375 -2.671875q0.5 -1.203125 1.46875 -1.84375q0.984375 -0.640625 2.203125 -0.640625q0.890625 0 1.578125 0.375q0.703125 0.375 1.140625 0.984375l0 -4.875l1.65625 0l0 13.59375l-1.546875 0zm-5.28125 -4.921875q0 1.890625 0.796875 2.828125q0.8125 0.9375 1.890625 0.9375q1.09375 0 1.859375 -0.890625q0.765625 -0.890625 0.765625 -2.734375q0 -2.015625 -0.78125 -2.953125q-0.78125 -0.953125 -1.921875 -0.953125q-1.109375 0 -1.859375 0.90625q-0.75 0.90625 -0.75 2.859375zm9.235046 4.921875l0 -13.59375l1.671875 0l0 13.59375l-1.671875 0zm10.926086 -3.171875l1.71875 0.21875q-0.40625 1.5 -1.515625 2.34375q-1.09375 0.828125 -2.8125 0.828125q-2.15625 0 -3.421875 -1.328125q-1.265625 -1.328125 -1.265625 -3.734375q0 -2.484375 1.265625 -3.859375q1.28125 -1.375 3.328125 -1.375q1.984375 0 3.234375 1.34375q1.25 1.34375 1.25 3.796875q0 0.140625 -0.015625 0.4375l-7.34375 0q0.09375 1.625 0.921875 2.484375q0.828125 0.859375 2.0625 0.859375q0.90625 0 1.546875 -0.46875q0.65625 -0.484375 1.046875 -1.546875zm-5.484375 -2.703125l5.5 0q-0.109375 -1.234375 -0.625 -1.859375q-0.796875 -0.96875 -2.078125 -0.96875q-1.140625 0 -1.9375 0.78125q-0.78125 0.765625 -0.859375 2.046875zm9.578857 5.875l0 -1.90625l1.90625 0l0 1.90625l-1.90625 0zm4.7145386 0l0 -9.859375l1.5 0l0 1.390625q0.453125 -0.71875 1.21875 -1.15625q0.78125 -0.453125 1.765625 -0.453125q1.09375 0 1.796875 0.453125q0.703125 0.453125 0.984375 1.28125q1.171875 -1.734375 3.046875 -1.734375q1.46875 0 2.25 0.8125q0.796875 0.8125 0.796875 2.5l0 6.765625l-1.671875 0l0 -6.203125q0 -1.0 -0.15625 -1.4375q-0.15625 -0.453125 -0.59375 -0.71875q-0.421875 -0.265625 -1.0 -0.265625q-1.03125 0 -1.71875 0.6875q-0.6875 0.6875 -0.6875 2.21875l0 5.71875l-1.671875 0l0 -6.40625q0 -1.109375 -0.40625 -1.65625q-0.40625 -0.5625 -1.34375 -0.5625q-0.703125 0 -1.3125 0.375q-0.59375 0.359375 -0.859375 1.078125q-0.265625 0.71875 -0.265625 2.0625l0 5.109375l-1.671875 0zm15.5564575 -11.6875l0 -1.90625l1.671875 0l0 1.90625l-1.671875 0zm0 11.6875l0 -9.859375l1.671875 0l0 9.859375l-1.671875 0zm4.1291504 0l0 -9.859375l1.5 0l0 1.40625q1.09375 -1.625 3.140625 -1.625q0.890625 0 1.640625 0.328125q0.75 0.3125 1.109375 0.84375q0.375 0.515625 0.53125 1.21875q0.09375 0.46875 0.09375 1.625l0 6.0625l-1.671875 0l0 -6.0q0 -1.015625 -0.203125 -1.515625q-0.1875 -0.515625 -0.6875 -0.8125q-0.5 -0.296875 -1.171875 -0.296875q-1.0625 0 -1.84375 0.671875q-0.765625 0.671875 -0.765625 2.578125l0 5.375l-1.671875 0zm10.844482 0l0 -1.90625l1.90625 0l0 1.90625l-1.90625 0zm4.7145386 -11.65625l0 -1.9375l1.65625 0l0 1.9375l-1.65625 0zm-2.125 15.484375l0.3125 -1.421875q0.5 0.125 0.796875 0.125q0.515625 0 0.765625 -0.34375q0.25 -0.328125 0.25 -1.6875l0 -10.359375l1.65625 0l0 10.390625q0 1.828125 -0.46875 2.546875q-0.59375 0.921875 -2.0 0.921875q-0.671875 0 -1.3125 -0.171875zm5.5979614 -6.765625l1.65625 -0.265625q0.140625 1.0 0.765625 1.53125q0.640625 0.515625 1.78125 0.515625q1.15625 0 1.703125 -0.46875q0.5625 -0.46875 0.5625 -1.09375q0 -0.5625 -0.484375 -0.890625q-0.34375 -0.21875 -1.703125 -0.5625q-1.84375 -0.46875 -2.5625 -0.796875q-0.703125 -0.34375 -1.078125 -0.9375q-0.359375 -0.609375 -0.359375 -1.328125q0 -0.65625 0.296875 -1.21875q0.3125 -0.5625 0.828125 -0.9375q0.390625 -0.28125 1.0625 -0.484375q0.671875 -0.203125 1.4375 -0.203125q1.171875 0 2.046875 0.34375q0.875 0.328125 1.28125 0.90625q0.421875 0.5625 0.578125 1.515625l-1.625 0.21875q-0.109375 -0.75 -0.65625 -1.171875q-0.53125 -0.4375 -1.5 -0.4375q-1.15625 0 -1.640625 0.390625q-0.484375 0.375 -0.484375 0.875q0 0.328125 0.203125 0.59375q0.203125 0.265625 0.640625 0.4375q0.25 0.09375 1.46875 0.4375q1.765625 0.46875 2.46875 0.765625q0.703125 0.296875 1.09375 0.875q0.40625 0.578125 0.40625 1.4375q0 0.828125 -0.484375 1.578125q-0.484375 0.734375 -1.40625 1.140625q-0.921875 0.390625 -2.078125 0.390625q-1.921875 0 -2.9375 -0.796875q-1.0 -0.796875 -1.28125 -2.359375z" fill-rule="nonzero"></path><path fill="#ffffff" d="m516.35956 208.13124l83.77954 0l0 -14.472443l28.944885 28.94487l-28.944885 28.944885l0 -14.472443l-83.77954 0z" fill-rule="evenodd"></path><path stroke="#000000" stroke-width="1.0" stroke-linejoin="round" stroke-linecap="butt" d="m516.35956 208.13124l83.77954 0l0 -14.472443l28.944885 28.94487l-28.944885 28.944885l0 -14.472443l-83.77954 0z" fill-rule="evenodd"></path><path fill="#000000" d="m526.7502 229.52367l0 -13.59375l5.109375 0q1.546875 0 2.484375 0.40625q0.953125 0.40625 1.484375 1.265625q0.53125 0.859375 0.53125 1.796875q0 0.875 -0.46875 1.65625q-0.46875 0.765625 -1.4375 1.234375q1.234375 0.359375 1.890625 1.234375q0.671875 0.875 0.671875 2.0625q0 0.953125 -0.40625 1.78125q-0.390625 0.8125 -0.984375 1.265625q-0.59375 0.4375 -1.5 0.671875q-0.890625 0.21875 -2.1875 0.21875l-5.1875 0zm1.796875 -7.890625l2.9375 0q1.203125 0 1.71875 -0.15625q0.6875 -0.203125 1.03125 -0.671875q0.359375 -0.46875 0.359375 -1.1875q0 -0.671875 -0.328125 -1.1875q-0.328125 -0.515625 -0.9375 -0.703125q-0.59375 -0.203125 -2.0625 -0.203125l-2.71875 0l0 4.109375zm0 6.28125l3.390625 0q0.875 0 1.21875 -0.0625q0.625 -0.109375 1.046875 -0.359375q0.421875 -0.265625 0.6875 -0.765625q0.265625 -0.5 0.265625 -1.140625q0 -0.765625 -0.390625 -1.328125q-0.390625 -0.5625 -1.078125 -0.78125q-0.6875 -0.234375 -1.984375 -0.234375l-3.15625 0l0 4.671875zm16.959229 1.609375l0 -1.453125q-1.140625 1.671875 -3.125 1.671875q-0.859375 0 -1.625 -0.328125q-0.75 -0.34375 -1.125 -0.84375q-0.359375 -0.5 -0.515625 -1.234375q-0.09375 -0.5 -0.09375 -1.5625l0 -6.109375l1.671875 0l0 5.46875q0 1.3125 0.09375 1.765625q0.15625 0.65625 0.671875 1.03125q0.515625 0.375 1.265625 0.375q0.75 0 1.40625 -0.375q0.65625 -0.390625 0.921875 -1.046875q0.28125 -0.671875 0.28125 -1.9375l0 -5.28125l1.671875 0l0 9.859375l-1.5 0zm3.9226074 0l0 -9.859375l1.5 0l0 1.40625q1.09375 -1.625 3.140625 -1.625q0.890625 0 1.640625 0.328125q0.75 0.3125 1.109375 0.84375q0.375 0.515625 0.53125 1.21875q0.09375 0.46875 0.09375 1.625l0 6.0625l-1.671875 0l0 -6.0q0 -1.015625 -0.203125 -1.515625q-0.1875 -0.515625 -0.6875 -0.8125q-0.5 -0.296875 -1.171875 -0.296875q-1.0625 0 -1.84375 0.671875q-0.765625 0.671875 -0.765625 2.578125l0 5.375l-1.671875 0zm16.766296 0l0 -1.25q-0.9375 1.46875 -2.75 1.46875q-1.171875 0 -2.171875 -0.640625q-0.984375 -0.65625 -1.53125 -1.8125q-0.53125 -1.171875 -0.53125 -2.6875q0 -1.46875 0.484375 -2.671875q0.5 -1.203125 1.46875 -1.84375q0.984375 -0.640625 2.203125 -0.640625q0.890625 0 1.578125 0.375q0.703125 0.375 1.140625 0.984375l0 -4.875l1.65625 0l0 13.59375l-1.546875 0zm-5.28125 -4.921875q0 1.890625 0.796875 2.828125q0.8125 0.9375 1.890625 0.9375q1.09375 0 1.859375 -0.890625q0.765625 -0.890625 0.765625 -2.734375q0 -2.015625 -0.78125 -2.953125q-0.78125 -0.953125 -1.921875 -0.953125q-1.109375 0 -1.859375 0.90625q-0.75 0.90625 -0.75 2.859375zm9.235107 4.921875l0 -13.59375l1.671875 0l0 13.59375l-1.671875 0zm4.1917114 -11.6875l0 -1.90625l1.671875 0l0 1.90625l-1.671875 0zm0 11.6875l0 -9.859375l1.671875 0l0 9.859375l-1.671875 0zm4.1292114 0l0 -9.859375l1.5 0l0 1.40625q1.09375 -1.625 3.140625 -1.625q0.890625 0 1.640625 0.328125q0.75 0.3125 1.109375 0.84375q0.375 0.515625 0.53125 1.21875q0.09375 0.46875 0.09375 1.625l0 6.0625l-1.671875 0l0 -6.0q0 -1.015625 -0.203125 -1.515625q-0.1875 -0.515625 -0.6875 -0.8125q-0.5 -0.296875 -1.171875 -0.296875q-1.0625 0 -1.84375 0.671875q-0.765625 0.671875 -0.765625 2.578125l0 5.375l-1.671875 0zm10.078796 0.8125l1.609375 0.25q0.109375 0.75 0.578125 1.09375q0.609375 0.453125 1.6875 0.453125q1.171875 0 1.796875 -0.46875q0.625 -0.453125 0.859375 -1.28125q0.125 -0.515625 0.109375 -2.15625q-1.09375 1.296875 -2.71875 1.296875q-2.03125 0 -3.15625 -1.46875q-1.109375 -1.46875 -1.109375 -3.515625q0 -1.40625 0.515625 -2.59375q0.515625 -1.203125 1.484375 -1.84375q0.96875 -0.65625 2.265625 -0.65625q1.75 0 2.875 1.40625l0 -1.1875l1.546875 0l0 8.515625q0 2.3125 -0.46875 3.265625q-0.46875 0.96875 -1.484375 1.515625q-1.015625 0.5625 -2.5 0.5625q-1.765625 0 -2.859375 -0.796875q-1.078125 -0.796875 -1.03125 -2.390625zm1.375 -5.921875q0 1.953125 0.765625 2.84375q0.78125 0.890625 1.9375 0.890625q1.140625 0 1.921875 -0.890625q0.78125 -0.890625 0.78125 -2.78125q0 -1.8125 -0.8125 -2.71875q-0.796875 -0.921875 -1.921875 -0.921875q-1.109375 0 -1.890625 0.90625q-0.78125 0.890625 -0.78125 2.671875z" fill-rule="nonzero"></path></g></svg>

