<?xml version="1.0" standalone="yes"?>

<svg version="1.1" viewBox="0.0 0.0 294.68503937007875 310.09448818897636" fill="none" stroke="none" stroke-linecap="square" stroke-miterlimit="10" xmlns="http://www.w3.org/2000/svg" xmlns:xlink="http://www.w3.org/1999/xlink"><clipPath id="p.0"><path d="m0 0l294.68503 0l0 310.09448l-294.68503 0l0 -310.09448z" clip-rule="nonzero"></path></clipPath><g clip-path="url(#p.0)"><path fill="#000000" fill-opacity="0.0" d="m0 0l294.68503 0l0 310.09448l-294.68503 0z" fill-rule="nonzero"></path><path fill="#000000" fill-opacity="0.0" d="m176.93521 160.20998l83.68503 86.55118" fill-rule="nonzero"></path><path stroke="#434343" stroke-width="3.0" stroke-linejoin="round" stroke-linecap="butt" d="m176.9352 160.20998l75.78172 78.37717" fill-rule="evenodd"></path><path fill="#434343" stroke="#434343" stroke-width="3.0" stroke-linecap="butt" d="m259.57758 245.68279c-1.9593811 1.8945312 -5.083618 1.841919 -6.9781494 -0.11747742c-1.894516 -1.9594116 -1.841919 -5.0836334 0.117492676 -6.9781647c1.9594116 -1.894516 5.0836487 -1.841919 6.9781494 0.117492676c1.8945312 1.9594116 1.841919 5.0836334 -0.117492676 6.9781494z" fill-rule="nonzero"></path><path fill="#000000" fill-opacity="0.0" d="m193.73003 159.42258l-84.314964 87.33858" fill-rule="nonzero"></path><path stroke="#434343" stroke-width="3.0" stroke-linejoin="round" stroke-linecap="butt" d="m193.73003 159.42258l-76.418 79.15842" fill-rule="evenodd"></path><path fill="#434343" stroke="#434343" stroke-width="3.0" stroke-linecap="butt" d="m110.45689 245.68198c-1.9608841 -1.8929901 -2.015915 -5.0171814 -0.122917175 -6.978058c1.8929901 -1.9608765 5.017174 -2.015915 6.978058 -0.122909546c1.9608841 1.8929901 2.015915 5.017166 0.122917175 6.978058c-1.8929977 1.9608765 -5.0171814 2.015915 -6.978058 0.122909546z" fill-rule="nonzero"></path><path fill="#000000" fill-opacity="0.0" d="m103.755905 40.209972l83.68504 86.55118" fill-rule="nonzero"></path><path stroke="#434343" stroke-width="3.0" stroke-linejoin="round" stroke-linecap="butt" d="m103.755905 40.209972l75.78172 78.37718" fill-rule="evenodd"></path><path fill="#434343" stroke="#434343" stroke-width="3.0" stroke-linecap="butt" d="m186.39828 125.68279c-1.9593964 1.894516 -5.0836334 1.841919 -6.9781494 -0.11748505c-1.894516 -1.9594116 -1.841919 -5.0836334 0.117492676 -6.978157c1.9593964 -1.8945236 5.0836334 -1.841919 6.9781494 0.11748505c1.894516 1.959404 1.841919 5.0836334 -0.117492676 6.978157z" fill-rule="nonzero"></path><path fill="#000000" fill-opacity="0.0" d="m118.62467 39.422573l-84.31496 87.33858" fill-rule="nonzero"></path><path stroke="#434343" stroke-width="3.0" stroke-linejoin="round" stroke-linecap="butt" d="m118.62467 39.422573l-76.418 79.15843" fill-rule="evenodd"></path><path fill="#434343" stroke="#434343" stroke-width="3.0" stroke-linecap="butt" d="m35.35153 125.68198c-1.9608841 -1.8929901 -2.015915 -5.0171814 -0.122917175 -6.978058c1.8929939 -1.9608841 5.0171814 -2.015915 6.9780617 -0.122917175c1.9608803 1.8929977 2.015911 5.0171814 0.12291336 6.978058c-1.8929939 1.9608841 -5.0171776 2.015915 -6.978058 0.122917175z" fill-rule="nonzero"></path><path fill="#38761d" d="m80.19948 16.771837l0 0c0 -5.093877 4.129402 -9.223281 9.223282 -9.223281l43.033752 0c2.446167 0 4.792145 0.97173595 6.5218353 2.701437c1.7297058 1.7297001 2.7014465 4.075678 2.7014465 6.521844l0 36.89202c0 5.0938797 -4.12941 9.223282 -9.223282 9.223282l-43.033752 0c-5.0938797 0 -9.223282 -4.129402 -9.223282 -9.223282z" fill-rule="nonzero"></path><path stroke="#434343" stroke-width="2.0" stroke-linejoin="round" stroke-linecap="butt" d="m80.19948 16.771837l0 0c0 -5.093877 4.129402 -9.223281 9.223282 -9.223281l43.033752 0c2.446167 0 4.792145 0.97173595 6.5218353 2.701437c1.7297058 1.7297001 2.7014465 4.075678 2.7014465 6.521844l0 36.89202c0 5.0938797 -4.12941 9.223282 -9.223282 9.223282l-43.033752 0c-5.0938797 0 -9.223282 -4.129402 -9.223282 -9.223282z" fill-rule="nonzero"></path><path fill="#ffffff" d="m119.50994 45.984722q0.125 0.34375 0.125 0.5625q0.015625 0.203125 -0.109375 0.3125q-0.125 0.109375 -0.421875 0.140625q-0.28125 0.03125 -0.765625 0.03125q-0.484375 0 -0.78125 -0.03125q-0.28125 -0.015625 -0.4375 -0.0625q-0.140625 -0.0625 -0.21875 -0.15625q-0.0625 -0.09375 -0.125 -0.234375l-1.734375 -4.921875l-8.40625 0l-1.65625 4.859375q-0.046875 0.140625 -0.125 0.25q-0.078125 0.09375 -0.234375 0.171875q-0.140625 0.0625 -0.421875 0.09375q-0.265625 0.03125 -0.703125 0.03125q-0.453125 0 -0.75 -0.046875q-0.28125 -0.03125 -0.40625 -0.140625q-0.109375 -0.109375 -0.109375 -0.3125q0.015625 -0.21875 0.140625 -0.5625l6.78125 -18.781248q0.0625 -0.171875 0.15625 -0.28125q0.109375 -0.109375 0.296875 -0.171875q0.203125 -0.0625 0.5 -0.078125q0.3125 -0.03125 0.78125 -0.03125q0.5 0 0.828125 0.03125q0.328125 0.015625 0.53125 0.078125q0.203125 0.0625 0.3125 0.1875q0.109375 0.109375 0.171875 0.28125l6.78125 18.781248zm-8.703125 -16.578123l-0.015625 0l-3.484375 10.078123l7.03125 0l-3.53125 -10.078123z" fill-rule="nonzero"></path><path fill="#38761d" d="m5.7847767 135.98444l0 0c0 -5.093872 4.129404 -9.223282 9.223282 -9.223282l43.033752 0c2.446167 0 4.792145 0.9717331 6.521843 2.7014313c1.7297058 1.7297058 2.701439 4.0756836 2.701439 6.5218506l0 36.892014c0 5.0938873 -4.129402 9.223282 -9.223282 9.223282l-43.033752 0c-5.093878 0 -9.223282 -4.1293945 -9.223282 -9.223282z" fill-rule="nonzero"></path><path stroke="#434343" stroke-width="2.0" stroke-linejoin="round" stroke-linecap="butt" d="m5.7847767 135.98444l0 0c0 -5.093872 4.129404 -9.223282 9.223282 -9.223282l43.033752 0c2.446167 0 4.792145 0.9717331 6.521843 2.7014313c1.7297058 1.7297058 2.701439 4.0756836 2.701439 6.5218506l0 36.892014c0 5.0938873 -4.129402 9.223282 -9.223282 9.223282l-43.033752 0c-5.093878 0 -9.223282 -4.1293945 -9.223282 -9.223282z" fill-rule="nonzero"></path><path fill="#ffffff" d="m43.837433 160.35358q0 0.953125 -0.25 1.765625q-0.234375 0.796875 -0.671875 1.4375q-0.4375 0.640625 -1.0625 1.125q-0.609375 0.484375 -1.390625 0.8125q-0.765625 0.328125 -1.65625 0.5q-0.875 0.15625 -2.015625 0.15625l-5.28125 0q-0.359375 0 -0.6875 -0.234375q-0.3125 -0.25 -0.3125 -0.859375l0 -18.03125q0 -0.609375 0.3125 -0.84375q0.328125 -0.25 0.6875 -0.25l4.59375 0q1.8125 0 2.96875 0.34375q1.15625 0.34375 1.921875 1.0q0.78125 0.65625 1.171875 1.609375q0.390625 0.953125 0.390625 2.15625q0 0.71875 -0.171875 1.375q-0.171875 0.65625 -0.515625 1.21875q-0.328125 0.546875 -0.84375 0.984375q-0.5 0.4375 -1.15625 0.71875q0.828125 0.15625 1.546875 0.578125q0.71875 0.40625 1.25 1.046875q0.546875 0.640625 0.859375 1.5q0.3125 0.859375 0.3125 1.890625zm-4.046875 -9.046875q0 -0.734375 -0.203125 -1.328125q-0.203125 -0.59375 -0.640625 -1.0q-0.4375 -0.421875 -1.140625 -0.640625q-0.703125 -0.21875 -1.859375 -0.21875l-2.78125 0l0 6.546875l3.0625 0q1.046875 0 1.6875 -0.265625q0.640625 -0.28125 1.0625 -0.734375q0.421875 -0.46875 0.609375 -1.078125q0.203125 -0.625 0.203125 -1.28125zm1.21875 9.203125q0 -0.90625 -0.296875 -1.59375q-0.28125 -0.6875 -0.84375 -1.15625q-0.546875 -0.46875 -1.390625 -0.703125q-0.828125 -0.25 -2.09375 -0.25l-3.21875 0l0 7.125l3.90625 0q0.921875 0 1.609375 -0.21875q0.6875 -0.21875 1.203125 -0.640625q0.53125 -0.4375 0.828125 -1.078125q0.296875 -0.640625 0.296875 -1.484375z" fill-rule="nonzero"></path><path fill="#005eb8" d="m152.05511 135.98444l0 0c0 -5.093872 4.12941 -9.223282 9.223282 -9.223282l43.033752 0c2.446167 0 4.792145 0.9717331 6.5218506 2.7014313c1.7296906 1.7297058 2.7014313 4.0756836 2.7014313 6.5218506l0 36.892014c0 5.0938873 -4.1293945 9.223282 -9.223282 9.223282l-43.033752 0c-5.093872 0 -9.223282 -4.1293945 -9.223282 -9.223282z" fill-rule="nonzero"></path><path stroke="#434343" stroke-width="2.0" stroke-linejoin="round" stroke-linecap="butt" d="m152.05511 135.98444l0 0c0 -5.093872 4.12941 -9.223282 9.223282 -9.223282l43.033752 0c2.446167 0 4.792145 0.9717331 6.5218506 2.7014313c1.7296906 1.7297058 2.7014313 4.0756836 2.7014313 6.5218506l0 36.892014c0 5.0938873 -4.1293945 9.223282 -9.223282 9.223282l-43.033752 0c-5.093872 0 -9.223282 -4.1293945 -9.223282 -9.223282z" fill-rule="nonzero"></path><path fill="#ffffff" d="m190.45152 163.29108q0 0.25 -0.015625 0.4375q-0.015625 0.1875 -0.0625 0.328125q-0.03125 0.140625 -0.09375 0.25q-0.0625 0.109375 -0.21875 0.265625q-0.15625 0.15625 -0.65625 0.484375q-0.5 0.3125 -1.25 0.625q-0.734375 0.296875 -1.703125 0.5q-0.953125 0.21875 -2.09375 0.21875q-1.96875 0 -3.5625 -0.65625q-1.578125 -0.65625 -2.703125 -1.9375q-1.109375 -1.28125 -1.71875 -3.15625q-0.59375 -1.890625 -0.59375 -4.34375q0 -2.515625 0.640625 -4.484375q0.65625 -1.96875 1.828125 -3.328125q1.171875 -1.375 2.796875 -2.09375q1.640625 -0.71875 3.625 -0.71875q0.875 0 1.703125 0.171875q0.828125 0.15625 1.53125 0.40625q0.703125 0.25 1.25 0.578125q0.546875 0.328125 0.75 0.546875q0.21875 0.203125 0.28125 0.3125q0.0625 0.109375 0.09375 0.265625q0.046875 0.140625 0.0625 0.34375q0.03125 0.203125 0.03125 0.484375q0 0.3125 -0.03125 0.53125q-0.03125 0.21875 -0.09375 0.375q-0.0625 0.140625 -0.15625 0.21875q-0.078125 0.0625 -0.203125 0.0625q-0.21875 0 -0.609375 -0.296875q-0.390625 -0.3125 -1.015625 -0.671875q-0.609375 -0.375 -1.5 -0.671875q-0.875 -0.3125 -2.109375 -0.3125q-1.34375 0 -2.453125 0.546875q-1.09375 0.53125 -1.875 1.578125q-0.78125 1.046875 -1.21875 2.5625q-0.421875 1.5 -0.421875 3.4375q0 1.921875 0.40625 3.40625q0.421875 1.46875 1.1875 2.46875q0.78125 0.984375 1.90625 1.5q1.125 0.5 2.546875 0.5q1.203125 0 2.09375 -0.296875q0.90625 -0.296875 1.53125 -0.65625q0.640625 -0.375 1.046875 -0.671875q0.40625 -0.296875 0.640625 -0.296875q0.109375 0 0.1875 0.046875q0.078125 0.046875 0.125 0.1875q0.046875 0.125 0.0625 0.359375q0.03125 0.234375 0.03125 0.59375z" fill-rule="nonzero"></path><path fill="#005eb8" d="m83.08855 256.3605l0 0c0 -5.0938873 4.129402 -9.223282 9.223282 -9.223282l43.033752 0c2.446167 0 4.792145 0.97172546 6.5218506 2.7014313c1.7296906 1.7297058 2.7014313 4.0756836 2.7014313 6.5218506l0 36.89203c0 5.093872 -4.12941 9.223267 -9.223282 9.223267l-43.033752 0c-5.0938797 0 -9.223282 -4.1293945 -9.223282 -9.223267z" fill-rule="nonzero"></path><path stroke="#434343" stroke-width="2.0" stroke-linejoin="round" stroke-linecap="butt" d="m83.08855 256.3605l0 0c0 -5.0938873 4.129402 -9.223282 9.223282 -9.223282l43.033752 0c2.446167 0 4.792145 0.97172546 6.5218506 2.7014313c1.7296906 1.7297058 2.7014313 4.0756836 2.7014313 6.5218506l0 36.89203c0 5.093872 -4.12941 9.223267 -9.223282 9.223267l-43.033752 0c-5.0938797 0 -9.223282 -4.1293945 -9.223282 -9.223267z" fill-rule="nonzero"></path><path fill="#ffffff" d="m122.21933 276.12027q0 2.625 -0.671875 4.59375q-0.671875 1.953125 -1.96875 3.25q-1.28125 1.28125 -3.15625 1.921875q-1.875 0.640625 -4.46875 0.640625l-4.28125 0q-0.359375 0 -0.6875 -0.234375q-0.3125 -0.25 -0.3125 -0.859375l0 -18.03125q0 -0.609375 0.3125 -0.84375q0.328125 -0.25 0.6875 -0.25l4.578125 0q2.625 0 4.4375 0.6875q1.8125 0.671875 3.03125 1.953125q1.234375 1.265625 1.859375 3.078125q0.640625 1.8125 0.640625 4.09375zm-2.828125 0.109375q0 -1.640625 -0.40625 -3.046875q-0.40625 -1.421875 -1.28125 -2.453125q-0.859375 -1.03125 -2.1875 -1.609375q-1.328125 -0.578125 -3.421875 -0.578125l-2.734375 0l0 15.734375l2.765625 0q1.9375 0 3.265625 -0.484375q1.328125 -0.484375 2.21875 -1.484375q0.890625 -1.0 1.328125 -2.5q0.453125 -1.515625 0.453125 -3.578125z" fill-rule="nonzero"></path><path fill="#005eb8" d="m225.50517 256.3605l0 0c0 -5.0938873 4.12941 -9.223282 9.223282 -9.223282l43.033752 0c2.446167 0 4.792145 0.97172546 6.5218506 2.7014313c1.7297058 1.7297058 2.7014465 4.0756836 2.7014465 6.5218506l0 36.89203c0 5.093872 -4.129425 9.223267 -9.223297 9.223267l-43.033752 0c-5.093872 0 -9.223282 -4.1293945 -9.223282 -9.223267z" fill-rule="nonzero"></path><path stroke="#434343" stroke-width="2.0" stroke-linejoin="round" stroke-linecap="butt" d="m225.50517 256.3605l0 0c0 -5.0938873 4.12941 -9.223282 9.223282 -9.223282l43.033752 0c2.446167 0 4.792145 0.97172546 6.5218506 2.7014313c1.7297058 1.7297058 2.7014465 4.0756836 2.7014465 6.5218506l0 36.89203c0 5.093872 -4.129425 9.223267 -9.223297 9.223267l-43.033752 0c-5.093872 0 -9.223282 -4.1293945 -9.223282 -9.223267z" fill-rule="nonzero"></path><path fill="#ffffff" d="m262.37033 285.41714q0 0.28125 -0.03125 0.5q-0.03125 0.203125 -0.109375 0.34375q-0.078125 0.140625 -0.1875 0.203125q-0.09375 0.0625 -0.21875 0.0625l-9.703125 0q-0.359375 0 -0.6875 -0.234375q-0.3125 -0.25 -0.3125 -0.859375l0 -18.03125q0 -0.609375 0.3125 -0.84375q0.328125 -0.25 0.6875 -0.25l9.59375 0q0.125 0 0.21875 0.0625q0.109375 0.0625 0.171875 0.203125q0.0625 0.140625 0.09375 0.359375q0.046875 0.203125 0.046875 0.515625q0 0.28125 -0.046875 0.5q-0.03125 0.203125 -0.09375 0.34375q-0.0625 0.125 -0.171875 0.1875q-0.09375 0.0625 -0.21875 0.0625l-7.90625 0l0 6.34375l6.78125 0q0.125 0 0.21875 0.078125q0.109375 0.0625 0.171875 0.1875q0.078125 0.125 0.109375 0.34375q0.03125 0.21875 0.03125 0.515625q0 0.28125 -0.03125 0.484375q-0.03125 0.203125 -0.109375 0.328125q-0.0625 0.125 -0.171875 0.1875q-0.09375 0.046875 -0.21875 0.046875l-6.78125 0l0 7.234375l8.015625 0q0.125 0 0.21875 0.0625q0.109375 0.0625 0.1875 0.203125q0.078125 0.125 0.109375 0.34375q0.03125 0.203125 0.03125 0.515625z" fill-rule="nonzero"></path></g></svg>

