<?xml version="1.0" standalone="yes"?>

<svg version="1.1" viewBox="0.0 0.0 546.5853018372703 540.1968503937007" fill="none" stroke="none" stroke-linecap="square" stroke-miterlimit="10" xmlns="http://www.w3.org/2000/svg" xmlns:xlink="http://www.w3.org/1999/xlink"><clipPath id="p.0"><path d="m0 0l546.5853 0l0 540.19684l-546.5853 0l0 -540.19684z" clip-rule="nonzero"></path></clipPath><g clip-path="url(#p.0)"><path fill="#000000" fill-opacity="0.0" d="m0 0l546.5853 0l0 540.19684l-546.5853 0z" fill-rule="nonzero"></path><path fill="#0b5394" d="m7.5603676 270.09952l0 0c0 -146.75989 118.9724 -265.73227 265.7323 -265.73227l0 0c70.47656 0 138.06662 27.996716 187.9011 77.831184c49.834473 49.834465 77.83121 117.42452 77.83121 187.9011l0 0c0 146.75989 -118.97241 265.73227 -265.7323 265.73227l0 0c-146.7599 0 -265.7323 -118.97238 -265.7323 -265.73227z" fill-rule="nonzero"></path><path fill="#9fc5e8" d="m91.16792 327.29282l0 0c0 -100.58542 81.54059 -182.12599 182.12599 -182.12599l0 0c48.302795 0 94.62726 19.188217 128.7825 53.34346c34.155273 34.15526 53.343475 80.479706 53.343475 128.78253l0 0c0 100.58539 -81.54059 182.12598 -182.12598 182.12598l0 0c-100.5854 0 -182.12599 -81.54059 -182.12599 -182.12598z" fill-rule="nonzero"></path><path fill="#ffffff" d="m178.81993 388.1259l0 0c0 -52.17569 42.296753 -94.47244 94.47243 -94.47244l0 0c25.055664 0 49.085083 9.953308 66.802124 27.67035c17.71701 17.71701 27.670319 41.74646 27.670319 66.80209l0 0c0 52.17569 -42.296753 94.47244 -94.47244 94.47244l0 0c-52.175674 0 -94.47243 -42.296753 -94.47243 -94.47244z" fill-rule="nonzero"></path><path fill="#000000" fill-opacity="0.0" d="m120.45801 52.729107l305.66928 0l0 72.09448l-305.66928 0z" fill-rule="nonzero"></path><path fill="#ffffff" d="m166.93327 73.59135q0 0.59375 -0.0625 1.03125q-0.0625 0.4375 -0.203125 0.703125q-0.140625 0.265625 -0.34375 0.390625q-0.203125 0.125 -0.453125 0.125l-11.375 0l0 35.0625q0 0.25 -0.125 0.4375q-0.125 0.1875 -0.4375 0.296875q-0.3125 0.109375 -0.828125 0.1875q-0.515625 0.078125 -1.296875 0.078125q-0.75 0 -1.28125 -0.078125q-0.53125 -0.078125 -0.84375 -0.1875q-0.3125 -0.109375 -0.4375 -0.296875q-0.125 -0.1875 -0.125 -0.4375l0 -35.0625l-11.375 0q-0.25 0 -0.453125 -0.125q-0.203125 -0.125 -0.328125 -0.390625q-0.125 -0.265625 -0.203125 -0.703125q-0.078125 -0.4375 -0.078125 -1.03125q0 -0.59375 0.078125 -1.046875q0.078125 -0.453125 0.203125 -0.734375q0.125 -0.28125 0.328125 -0.40625q0.203125 -0.125 0.453125 -0.125l28.125 0q0.25 0 0.453125 0.125q0.203125 0.125 0.34375 0.40625q0.140625 0.28125 0.203125 0.734375q0.0625 0.453125 0.0625 1.046875zm18.0625 38.125l-3.75 10.34375q-0.1875 0.5 -0.953125 0.765625q-0.765625 0.265625 -2.328125 0.265625q-0.8125 0 -1.3125 -0.078125q-0.5 -0.078125 -0.765625 -0.265625q-0.265625 -0.1875 -0.296875 -0.5q-0.03125 -0.3125 0.15625 -0.75l3.875 -9.78125q-0.28125 -0.125 -0.53125 -0.40625q-0.25 -0.28125 -0.34375 -0.59375l-10.03125 -26.875q-0.25 -0.65625 -0.25 -1.03125q0 -0.375 0.25 -0.59375q0.25 -0.21875 0.8125 -0.296875q0.5625 -0.078125 1.5 -0.078125q0.9375 0 1.46875 0.046875q0.53125 0.046875 0.84375 0.171875q0.3125 0.125 0.453125 0.359375q0.140625 0.234375 0.296875 0.640625l8.03125 22.5625l0.09375 0l7.75 -22.6875q0.1875 -0.59375 0.453125 -0.765625q0.265625 -0.171875 0.796875 -0.25q0.53125 -0.078125 1.53125 -0.078125q0.875 0 1.4375 0.078125q0.5625 0.078125 0.828125 0.296875q0.265625 0.21875 0.265625 0.59375q0 0.375 -0.1875 0.9375l-10.09375 27.96875zm42.03125 -15.28125q0 3.6875 -0.796875 6.625q-0.796875 2.9375 -2.34375 4.984375q-1.546875 2.046875 -3.828125 3.15625q-2.28125 1.109375 -5.21875 1.109375q-1.25 0 -2.3125 -0.25q-1.0625 -0.25 -2.078125 -0.78125q-1.015625 -0.53125 -2.015625 -1.34375q-1.0 -0.8125 -2.125 -1.90625l0 14.0625q0 0.25 -0.125 0.4375q-0.125 0.1875 -0.40625 0.3125q-0.28125 0.125 -0.78125 0.1875q-0.5 0.0625 -1.28125 0.0625q-0.75 0 -1.25 -0.0625q-0.5 -0.0625 -0.796875 -0.1875q-0.296875 -0.125 -0.40625 -0.3125q-0.109375 -0.1875 -0.109375 -0.4375l0 -39.28125q0 -0.28125 0.09375 -0.453125q0.09375 -0.171875 0.375 -0.296875q0.28125 -0.125 0.71875 -0.171875q0.4375 -0.046875 1.0625 -0.046875q0.65625 0 1.078125 0.046875q0.421875 0.046875 0.703125 0.171875q0.28125 0.125 0.390625 0.296875q0.109375 0.171875 0.109375 0.453125l0 3.78125q1.28125 -1.3125 2.46875 -2.28125q1.1875 -0.96875 2.390625 -1.609375q1.203125 -0.640625 2.46875 -0.96875q1.265625 -0.328125 2.671875 -0.328125q3.0625 0 5.21875 1.1875q2.15625 1.1875 3.515625 3.25q1.359375 2.0625 1.984375 4.796875q0.625 2.734375 0.625 5.796875zm-5.4375 0.59375q0 -2.15625 -0.328125 -4.171875q-0.328125 -2.015625 -1.125 -3.578125q-0.796875 -1.5625 -2.140625 -2.5q-1.34375 -0.9375 -3.34375 -0.9375q-1.0 0 -1.96875 0.296875q-0.96875 0.296875 -1.96875 0.9375q-1.0 0.640625 -2.09375 1.6875q-1.09375 1.046875 -2.3125 2.578125l0 11.1875q2.125 2.59375 4.03125 3.96875q1.90625 1.375 4.0 1.375q1.9375 0 3.328125 -0.9375q1.390625 -0.9375 2.25 -2.5q0.859375 -1.5625 1.265625 -3.5q0.40625 -1.9375 0.40625 -3.90625zm37.187485 -1.375q0 1.21875 -0.609375 1.734375q-0.609375 0.515625 -1.390625 0.515625l-18.437485 0q0 2.34375 0.46875 4.21875q0.46875 1.875 1.5625 3.21875q1.09375 1.34375 2.84375 2.0625q1.75 0.71875 4.28125 0.71875q2.0 0 3.5625 -0.328125q1.5625 -0.328125 2.703125 -0.734375q1.140625 -0.40625 1.875 -0.734375q0.73435974 -0.328125 1.1093597 -0.328125q0.21875 0 0.390625 0.109375q0.171875 0.109375 0.265625 0.328125q0.09375 0.21875 0.140625 0.609375q0.046875 0.390625 0.046875 0.953125q0 0.40625 -0.03125 0.703125q-0.03125 0.296875 -0.078125 0.53125q-0.046875 0.234375 -0.15625 0.421875q-0.109375 0.1875 -0.28125 0.359375q-0.171875 0.171875 -1.015625 0.5625q-0.84373474 0.390625 -2.1874847 0.765625q-1.34375 0.375 -3.109375 0.671875q-1.765625 0.296875 -3.765625 0.296875q-3.46875 0 -6.078125 -0.96875q-2.609375 -0.96875 -4.390625 -2.875q-1.78125 -1.90625 -2.6875 -4.78125q-0.90625 -2.875 -0.90625 -6.6875q0 -3.625 0.9375 -6.515625q0.9375 -2.890625 2.703125 -4.90625q1.765625 -2.015625 4.265625 -3.09375q2.5 -1.078125 5.59375 -1.078125q3.3125 0 5.640625 1.0625q2.328125 1.0625 3.828125 2.859375q1.4999847 1.796875 2.2031097 4.21875q0.703125 2.421875 0.703125 5.171875l0 0.9375zm-5.1874847 -1.53125q0.09375 -4.0625 -1.796875 -6.375q-1.890625 -2.3125 -5.609375 -2.3125q-1.90625 0 -3.34375 0.71875q-1.4375 0.71875 -2.40625 1.90625q-0.96875 1.1875 -1.5 2.765625q-0.53125 1.578125 -0.59375 3.296875l15.25 0zm35.343735 6.25q0 2.84375 -1.046875 5.0625q-1.046875 2.21875 -2.90625 3.765625q-1.859375 1.546875 -4.375 2.328125q-2.515625 0.78125 -5.421875 0.78125q-2.03125 0 -3.765625 -0.34375q-1.734375 -0.34375 -3.09375 -0.84375q-1.359375 -0.5 -2.28125 -1.03125q-0.921875 -0.53125 -1.28125 -0.90625q-0.359375 -0.375 -0.53125 -0.953125q-0.171875 -0.578125 -0.171875 -1.546875q0 -0.6875 0.0625 -1.140625q0.0625 -0.453125 0.1875 -0.734375q0.125 -0.28125 0.3125 -0.390625q0.1875 -0.109375 0.4375 -0.109375q0.4375 0 1.234375 0.53125q0.796875 0.53125 2.046875 1.15625q1.25 0.625 3.015625 1.171875q1.765625 0.546875 4.078125 0.546875q1.75 0 3.203125 -0.46875q1.453125 -0.46875 2.5 -1.328125q1.046875 -0.859375 1.609375 -2.109375q0.5625 -1.25 0.5625 -2.84375q0 -1.71875 -0.78125 -2.9375q-0.78125 -1.21875 -2.0625 -2.140625q-1.28125 -0.921875 -2.921875 -1.6875q-1.640625 -0.765625 -3.359375 -1.5625q-1.71875 -0.796875 -3.34375 -1.765625q-1.625 -0.96875 -2.90625 -2.28125q-1.28125 -1.3125 -2.078125 -3.078125q-0.796875 -1.765625 -0.796875 -4.234375q0 -2.53125 0.921875 -4.515625q0.921875 -1.984375 2.5625 -3.328125q1.640625 -1.34375 3.90625 -2.046875q2.265625 -0.703125 4.890625 -0.703125q1.34375 0 2.703125 0.234375q1.359375 0.234375 2.5625 0.625q1.203125 0.390625 2.140625 0.875q0.9375 0.484375 1.234375 0.78125q0.296875 0.296875 0.390625 0.46875q0.09375 0.171875 0.15625 0.4375q0.0625 0.265625 0.09375 0.640625q0.03125 0.375 0.03125 0.96875q0 0.5625 -0.046875 1.0q-0.046875 0.4375 -0.140625 0.734375q-0.09375 0.296875 -0.265625 0.4375q-0.171875 0.140625 -0.390625 0.140625q-0.34375 0 -1.078125 -0.4375q-0.734375 -0.4375 -1.796875 -0.984375q-1.0625 -0.546875 -2.515625 -1.0q-1.453125 -0.453125 -3.265625 -0.453125q-1.6875 0 -2.9375 0.453125q-1.25 0.453125 -2.0625 1.203125q-0.8125 0.75 -1.21875 1.78125q-0.40625 1.03125 -0.40625 2.1875q0 1.6875 0.78125 2.90625q0.78125 1.21875 2.078125 2.15625q1.296875 0.9375 2.953125 1.71875q1.65625 0.78125 3.375 1.578125q1.71875 0.796875 3.375 1.75q1.65625 0.953125 2.953125 2.25q1.296875 1.296875 2.09375 3.0625q0.796875 1.765625 0.796875 4.171875zm27.3125 6.28125q0 0.53125 -0.03125 0.921875q-0.03125 0.390625 -0.109375 0.65625q-0.078125 0.265625 -0.1875 0.46875q-0.109375 0.203125 -0.5 0.59375q-0.390625 0.390625 -1.328125 0.96875q-0.9375 0.578125 -2.109375 1.03125q-1.171875 0.453125 -2.546875 0.734375q-1.375 0.28125 -2.84375 0.28125q-3.03125 0 -5.375 -1.0q-2.34375 -1.0 -3.921875 -2.921875q-1.578125 -1.921875 -2.40625 -4.71875q-0.828125 -2.796875 -0.828125 -6.453125q0 -4.15625 1.015625 -7.140625q1.015625 -2.984375 2.78125 -4.890625q1.765625 -1.90625 4.15625 -2.828125q2.390625 -0.921875 5.171875 -0.921875q1.34375 0 2.609375 0.25q1.265625 0.25 2.328125 0.65625q1.0625 0.40625 1.890625 0.9375q0.828125 0.53125 1.203125 0.90625q0.375 0.375 0.515625 0.59375q0.140625 0.21875 0.234375 0.515625q0.09375 0.296875 0.125 0.671875q0.03125 0.375 0.03125 0.9375q0 1.21875 -0.28125 1.703125q-0.28125 0.484375 -0.6875 0.484375q-0.46875 0 -1.078125 -0.515625q-0.609375 -0.515625 -1.546875 -1.140625q-0.9375 -0.625 -2.265625 -1.140625q-1.328125 -0.515625 -3.140625 -0.515625q-3.71875 0 -5.703125 2.859375q-1.984375 2.859375 -1.984375 8.296875q0 2.71875 0.515625 4.765625q0.515625 2.046875 1.515625 3.421875q1.0 1.375 2.453125 2.046875q1.453125 0.671875 3.328125 0.671875q1.78125 0 3.125 -0.5625q1.34375 -0.5625 2.328125 -1.234375q0.984375 -0.671875 1.65625 -1.21875q0.671875 -0.546875 1.046875 -0.546875q0.21875 0 0.375 0.125q0.15625 0.125 0.265625 0.421875q0.109375 0.296875 0.15625 0.75q0.046875 0.453125 0.046875 1.078125zm23.28125 -22.0q0 0.6875 -0.03125 1.15625q-0.03125 0.46875 -0.125 0.734375q-0.09375 0.265625 -0.234375 0.40625q-0.140625 0.140625 -0.390625 0.140625q-0.25 0 -0.609375 -0.140625q-0.359375 -0.140625 -0.8125 -0.28125q-0.453125 -0.140625 -1.015625 -0.265625q-0.5625 -0.125 -1.21875 -0.125q-0.78125 0 -1.53125 0.3125q-0.75 0.3125 -1.578125 1.03125q-0.828125 0.71875 -1.734375 1.90625q-0.90625 1.1875 -2.0 2.90625l0 18.5q0 0.25 -0.125 0.421875q-0.125 0.171875 -0.40625 0.296875q-0.28125 0.125 -0.78125 0.1875q-0.5 0.0625 -1.28125 0.0625q-0.75 0 -1.25 -0.0625q-0.5 -0.0625 -0.796875 -0.1875q-0.296875 -0.125 -0.40625 -0.296875q-0.109375 -0.171875 -0.109375 -0.421875l0 -28.125q0 -0.25 0.09375 -0.421875q0.09375 -0.171875 0.375 -0.3125q0.28125 -0.140625 0.71875 -0.1875q0.4375 -0.046875 1.15625 -0.046875q0.6875 0 1.140625 0.046875q0.453125 0.046875 0.703125 0.1875q0.25 0.140625 0.359375 0.3125q0.109375 0.171875 0.109375 0.421875l0 4.09375q1.15625 -1.6875 2.171875 -2.75q1.015625 -1.0625 1.921875 -1.671875q0.90625 -0.609375 1.796875 -0.84375q0.890625 -0.234375 1.796875 -0.234375q0.40625 0 0.921875 0.046875q0.515625 0.046875 1.078125 0.171875q0.5625 0.125 1.015625 0.28125q0.453125 0.15625 0.640625 0.3125q0.1875 0.15625 0.25 0.296875q0.0625 0.140625 0.109375 0.359375q0.046875 0.21875 0.0625 0.640625q0.015625 0.421875 0.015625 1.140625zm11.03125 26.28125q0 0.25 -0.125 0.421875q-0.125 0.171875 -0.40625 0.296875q-0.28125 0.125 -0.78125 0.1875q-0.5 0.0625 -1.28125 0.0625q-0.75 0 -1.25 -0.0625q-0.5 -0.0625 -0.796875 -0.1875q-0.296875 -0.125 -0.40625 -0.296875q-0.109375 -0.171875 -0.109375 -0.421875l0 -28.125q0 -0.21875 0.109375 -0.40625q0.109375 -0.1875 0.40625 -0.3125q0.296875 -0.125 0.796875 -0.1875q0.5 -0.0625 1.25 -0.0625q0.78125 0 1.28125 0.0625q0.5 0.0625 0.78125 0.1875q0.28125 0.125 0.40625 0.3125q0.125 0.1875 0.125 0.40625l0 28.125zm0.59375 -37.625q0 1.8125 -0.6875 2.46875q-0.6875 0.65625 -2.53125 0.65625q-1.8125 0 -2.484375 -0.640625q-0.671875 -0.640625 -0.671875 -2.421875q0 -1.8125 0.6875 -2.46875q0.6875 -0.65625 2.53125 -0.65625q1.8125 0 2.484375 0.640625q0.671875 0.640625 0.671875 2.421875zm34.81253 23.125q0 3.6875 -0.796875 6.625q-0.796875 2.9375 -2.34375 4.984375q-1.546875 2.046875 -3.828125 3.15625q-2.28125 1.109375 -5.2187805 1.109375q-1.25 0 -2.3125 -0.25q-1.0625 -0.25 -2.078125 -0.78125q-1.015625 -0.53125 -2.015625 -1.34375q-1.0 -0.8125 -2.125 -1.90625l0 14.0625q0 0.25 -0.125 0.4375q-0.125 0.1875 -0.40625 0.3125q-0.28125 0.125 -0.78125 0.1875q-0.5 0.0625 -1.28125 0.0625q-0.75 0 -1.25 -0.0625q-0.5 -0.0625 -0.796875 -0.1875q-0.296875 -0.125 -0.40625 -0.3125q-0.109375 -0.1875 -0.109375 -0.4375l0 -39.28125q0 -0.28125 0.09375 -0.453125q0.09375 -0.171875 0.375 -0.296875q0.28125 -0.125 0.71875 -0.171875q0.4375 -0.046875 1.0625 -0.046875q0.65625 0 1.078125 0.046875q0.421875 0.046875 0.703125 0.171875q0.28125 0.125 0.390625 0.296875q0.109375 0.171875 0.109375 0.453125l0 3.78125q1.28125 -1.3125 2.46875 -2.28125q1.1875 -0.96875 2.390625 -1.609375q1.203125 -0.640625 2.46875 -0.96875q1.265625 -0.328125 2.671875 -0.328125q3.0625305 0 5.2187805 1.1875q2.15625 1.1875 3.515625 3.25q1.359375 2.0625 1.984375 4.796875q0.625 2.734375 0.625 5.796875zm-5.4375 0.59375q0 -2.15625 -0.328125 -4.171875q-0.328125 -2.015625 -1.125 -3.578125q-0.796875 -1.5625 -2.140625 -2.5q-1.3437805 -0.9375 -3.3437805 -0.9375q-1.0 0 -1.96875 0.296875q-0.96875 0.296875 -1.96875 0.9375q-1.0 0.640625 -2.09375 1.6875q-1.09375 1.046875 -2.3125 2.578125l0 11.1875q2.125 2.59375 4.03125 3.96875q1.90625 1.375 4.0 1.375q1.9375 0 3.3281555 -0.9375q1.390625 -0.9375 2.25 -2.5q0.859375 -1.5625 1.265625 -3.5q0.40625 -1.9375 0.40625 -3.90625zm27.8125 11.84375q0 0.90625 -0.125 1.4375q-0.125 0.53125 -0.375 0.78125q-0.25 0.25 -0.75 0.46875q-0.5 0.21875 -1.140625 0.359375q-0.640625 0.140625 -1.359375 0.234375q-0.71875 0.09375 -1.4375 0.09375q-2.1875 0 -3.75 -0.578125q-1.5625 -0.578125 -2.5625 -1.75q-1.0 -1.171875 -1.453125 -2.96875q-0.453125 -1.796875 -0.453125 -4.234375l0 -16.4375l-3.9375 0q-0.46875 0 -0.75 -0.5q-0.28125 -0.5 -0.28125 -1.625q0 -0.59375 0.078125 -1.0q0.078125 -0.40625 0.203125 -0.671875q0.125 -0.265625 0.328125 -0.375q0.203125 -0.109375 0.453125 -0.109375l3.90625 0l0 -6.6875q0 -0.21875 0.109375 -0.40625q0.109375 -0.1875 0.40625 -0.328125q0.296875 -0.140625 0.796875 -0.203125q0.5 -0.0625 1.25 -0.0625q0.78125 0 1.28125 0.0625q0.5 0.0625 0.78125 0.203125q0.28125 0.140625 0.40625 0.328125q0.125 0.1875 0.125 0.40625l0 6.6875l7.21875 0q0.25 0 0.4375 0.109375q0.1875 0.109375 0.328125 0.375q0.140625 0.265625 0.203125 0.671875q0.0625 0.40625 0.0625 1.0q0 1.125 -0.28125 1.625q-0.28125 0.5 -0.75 0.5l-7.21875 0l0 15.6875q0 2.90625 0.859375 4.390625q0.859375 1.484375 3.078125 1.484375q0.71875 0 1.28125 -0.140625q0.5625 -0.140625 1.0 -0.296875q0.4375 -0.15625 0.75 -0.296875q0.3125 -0.140625 0.5625 -0.140625q0.15625 0 0.296875 0.078125q0.140625 0.078125 0.21875 0.296875q0.078125 0.21875 0.140625 0.59375q0.0625 0.375 0.0625 0.9375z" fill-rule="nonzero"></path><path fill="#000000" fill-opacity="0.0" d="m134.14305 193.20563l278.2992 0l0 72.09448l-278.2992 0z" fill-rule="nonzero"></path><path fill="#000000" d="m205.96454 249.97412q0 0.5625 -0.0625 0.984375q-0.0625 0.421875 -0.21875 0.703125q-0.15625 0.28125 -0.359375 0.40625q-0.203125 0.125 -0.453125 0.125l-19.40625 0q-0.71875 0 -1.359375 -0.484375q-0.640625 -0.484375 -0.640625 -1.703125l0 -36.0625q0 -1.21875 0.640625 -1.703125q0.640625 -0.484375 1.359375 -0.484375l19.1875 0q0.25 0 0.453125 0.125q0.203125 0.125 0.328125 0.40625q0.125 0.28125 0.203125 0.703125q0.078125 0.421875 0.078125 1.046875q0 0.5625 -0.078125 0.984375q-0.078125 0.421875 -0.203125 0.6875q-0.125 0.265625 -0.328125 0.390625q-0.203125 0.125 -0.453125 0.125l-15.8125 0l0 12.6875l13.5625 0q0.25 0 0.453125 0.140625q0.203125 0.140625 0.34375 0.390625q0.140625 0.25 0.203125 0.6875q0.0625 0.4375 0.0625 1.03125q0 0.5625 -0.0625 0.96875q-0.0625 0.40625 -0.203125 0.65625q-0.140625 0.25 -0.34375 0.359375q-0.203125 0.109375 -0.453125 0.109375l-13.5625 0l0 14.46875l16.03125 0q0.25 0 0.453125 0.125q0.203125 0.125 0.359375 0.390625q0.15625 0.265625 0.21875 0.6875q0.0625 0.421875 0.0625 1.046875zm30.46875 -9.125q0 2.84375 -1.046875 5.0625q-1.046875 2.21875 -2.90625 3.765625q-1.859375 1.546875 -4.375 2.328125q-2.515625 0.78125 -5.421875 0.78125q-2.03125 0 -3.765625 -0.34375q-1.734375 -0.34375 -3.09375 -0.84375q-1.359375 -0.5 -2.28125 -1.03125q-0.921875 -0.53125 -1.28125 -0.90625q-0.359375 -0.375 -0.53125 -0.953125q-0.171875 -0.578125 -0.171875 -1.546875q0 -0.6875 0.0625 -1.140625q0.0625 -0.453125 0.1875 -0.734375q0.125 -0.28125 0.3125 -0.390625q0.1875 -0.109375 0.4375 -0.109375q0.4375 0 1.234375 0.53125q0.796875 0.53125 2.046875 1.15625q1.25 0.625 3.015625 1.171875q1.765625 0.546875 4.078125 0.546875q1.75 0 3.203125 -0.46875q1.453125 -0.46875 2.5 -1.328125q1.046875 -0.859375 1.609375 -2.109375q0.5625 -1.25 0.5625 -2.84375q0 -1.71875 -0.78125 -2.9375q-0.78125 -1.21875 -2.0625 -2.140625q-1.28125 -0.921875 -2.921875 -1.6875q-1.640625 -0.765625 -3.359375 -1.5625q-1.71875 -0.796875 -3.34375 -1.765625q-1.625 -0.96875 -2.90625 -2.28125q-1.28125 -1.3125 -2.078125 -3.078125q-0.796875 -1.765625 -0.796875 -4.234375q0 -2.53125 0.921875 -4.515625q0.921875 -1.984375 2.5625 -3.328125q1.640625 -1.34375 3.90625 -2.046875q2.265625 -0.703125 4.890625 -0.703125q1.34375 0 2.703125 0.234375q1.359375 0.234375 2.5625 0.625q1.203125 0.390625 2.140625 0.875q0.9375 0.484375 1.234375 0.78125q0.296875 0.296875 0.390625 0.46875q0.09375 0.171875 0.15625 0.4375q0.0625 0.265625 0.09375 0.640625q0.03125 0.375 0.03125 0.96875q0 0.5625 -0.046875 1.0q-0.046875 0.4375 -0.140625 0.734375q-0.09375 0.296875 -0.265625 0.4375q-0.171875 0.140625 -0.390625 0.140625q-0.34375 0 -1.078125 -0.4375q-0.734375 -0.4375 -1.796875 -0.984375q-1.0625 -0.546875 -2.515625 -1.0q-1.453125 -0.453125 -3.265625 -0.453125q-1.6875 0 -2.9375 0.453125q-1.25 0.453125 -2.0625 1.203125q-0.8125 0.75 -1.21875 1.78125q-0.40625 1.03125 -0.40625 2.1875q0 1.6875 0.78125 2.90625q0.78125 1.21875 2.078125 2.15625q1.296875 0.9375 2.953125 1.71875q1.65625 0.78125 3.375 1.578125q1.71875 0.796875 3.375 1.75q1.65625 0.953125 2.953125 2.25q1.296875 1.296875 2.09375 3.0625q0.796875 1.765625 0.796875 4.171875zm31.1875 9.03125q0 0.5625 -0.078125 1.0q-0.078125 0.4375 -0.21875 0.734375q-0.140625 0.296875 -0.375 0.4375q-0.234375 0.140625 -0.515625 0.140625l-22.34375 0q-0.4375 0 -0.765625 -0.109375q-0.328125 -0.109375 -0.5625 -0.359375q-0.234375 -0.25 -0.34375 -0.71875q-0.109375 -0.46875 -0.109375 -1.15625q0 -0.625 0.046875 -1.09375q0.046875 -0.46875 0.203125 -0.828125q0.15625 -0.359375 0.390625 -0.71875q0.234375 -0.359375 0.609375 -0.765625l7.84375 -8.3125q2.71875 -2.875 4.359375 -5.15625q1.640625 -2.28125 2.53125 -4.15625q0.890625 -1.875 1.171875 -3.40625q0.28125 -1.53125 0.28125 -2.875q0 -1.34375 -0.4375 -2.546875q-0.4375 -1.203125 -1.265625 -2.109375q-0.828125 -0.90625 -2.078125 -1.4375q-1.25 -0.53125 -2.875 -0.53125q-1.90625 0 -3.421875 0.53125q-1.515625 0.53125 -2.65625 1.15625q-1.140625 0.625 -1.90625 1.15625q-0.765625 0.53125 -1.140625 0.53125q-0.21875 0 -0.390625 -0.125q-0.171875 -0.125 -0.28125 -0.40625q-0.109375 -0.28125 -0.171875 -0.75q-0.0625 -0.46875 -0.0625 -1.125q0 -0.46875 0.03125 -0.8125q0.03125 -0.34375 0.109375 -0.59375q0.078125 -0.25 0.203125 -0.46875q0.125 -0.21875 0.5 -0.546875q0.375 -0.328125 1.296875 -0.890625q0.921875 -0.5625 2.3125 -1.109375q1.390625 -0.546875 3.0625 -0.921875q1.671875 -0.375 3.515625 -0.375q2.9375 0 5.140625 0.828125q2.203125 0.828125 3.65625 2.265625q1.453125 1.4375 2.171875 3.34375q0.71875 1.90625 0.71875 4.0625q0 1.9375 -0.34375 3.859375q-0.34375 1.921875 -1.453125 4.15625q-1.109375 2.234375 -3.203125 4.96875q-2.09375 2.734375 -5.5625 6.296875l-6.40625 6.6875l17.59375 0q0.25 0 0.484375 0.140625q0.234375 0.140625 0.40625 0.421875q0.171875 0.28125 0.25 0.703125q0.078125 0.421875 0.078125 0.984375zm33.78125 -18.0q0 4.65625 -0.734375 8.5q-0.734375 3.84375 -2.4375 6.609375q-1.703125 2.765625 -4.453125 4.28125q-2.75 1.515625 -6.78125 1.515625q-3.8125 0 -6.421875 -1.359375q-2.609375 -1.359375 -4.203125 -4.0q-1.59375 -2.640625 -2.265625 -6.5q-0.671875 -3.859375 -0.671875 -8.859375q0 -4.625 0.75 -8.484375q0.75 -3.859375 2.4375 -6.625q1.6875 -2.765625 4.4375 -4.28125q2.75 -1.515625 6.75 -1.515625q3.84375 0 6.453125 1.359375q2.609375 1.359375 4.203125 4.0q1.59375 2.640625 2.265625 6.5q0.671875 3.859375 0.671875 8.859375zm-5.5 0.375q0 -3.03125 -0.21875 -5.4375q-0.21875 -2.40625 -0.640625 -4.25q-0.421875 -1.84375 -1.09375 -3.171875q-0.671875 -1.328125 -1.609375 -2.1875q-0.9375 -0.859375 -2.140625 -1.25q-1.203125 -0.390625 -2.703125 -0.390625q-2.65625 0 -4.3125 1.25q-1.65625 1.25 -2.609375 3.4375q-0.953125 2.1875 -1.296875 5.125q-0.34375 2.9375 -0.34375 6.3125q0 4.53125 0.46875 7.703125q0.46875 3.171875 1.484375 5.171875q1.015625 2.0 2.59375 2.90625q1.578125 0.90625 3.828125 0.90625q1.75 0 3.078125 -0.5625q1.328125 -0.5625 2.28125 -1.609375q0.953125 -1.046875 1.578125 -2.515625q0.625 -1.46875 1.0 -3.25q0.375 -1.78125 0.515625 -3.859375q0.140625 -2.078125 0.140625 -4.328125zm36.6875 17.8125q0 0.59375 -0.09375 1.0q-0.09375 0.40625 -0.25 0.65625q-0.15625 0.25 -0.359375 0.359375q-0.203125 0.109375 -0.421875 0.109375l-21.125 0q-0.21875 0 -0.40625 -0.109375q-0.1875 -0.109375 -0.359375 -0.359375q-0.171875 -0.25 -0.265625 -0.65625q-0.09375 -0.40625 -0.09375 -1.0q0 -0.5625 0.09375 -0.96875q0.09375 -0.40625 0.234375 -0.671875q0.140625 -0.265625 0.34375 -0.40625q0.203125 -0.140625 0.453125 -0.140625l8.4375 0l0 -30.75l-7.8125 4.65625q-0.59375 0.3125 -0.953125 0.375q-0.359375 0.0625 -0.578125 -0.140625q-0.21875 -0.203125 -0.296875 -0.671875q-0.078125 -0.46875 -0.078125 -1.1875q0 -0.53125 0.046875 -0.90625q0.046875 -0.375 0.140625 -0.625q0.09375 -0.25 0.265625 -0.4375q0.171875 -0.1875 0.453125 -0.375l9.3125 -5.96875q0.125 -0.09375 0.3125 -0.15625q0.1875 -0.0625 0.46875 -0.125q0.28125 -0.0625 0.65625 -0.078125q0.375 -0.015625 0.9375 -0.015625q0.75 0 1.25 0.0625q0.5 0.0625 0.78125 0.171875q0.28125 0.109375 0.375 0.28125q0.09375 0.171875 0.09375 0.359375l0 35.53125l7.3125 0q0.25 0 0.46875 0.140625q0.21875 0.140625 0.359375 0.40625q0.140625 0.265625 0.21875 0.671875q0.078125 0.40625 0.078125 0.96875zm32.15625 -10.875q0 3.25 -1.09375 5.78125q-1.09375 2.53125 -3.09375 4.265625q-2.0 1.734375 -4.765625 2.640625q-2.765625 0.90625 -6.140625 0.90625q-1.875 0 -3.5625 -0.265625q-1.6875 -0.265625 -3.0 -0.65625q-1.3125 -0.390625 -2.15625 -0.765625q-0.84375 -0.375 -1.078125 -0.59375q-0.234375 -0.21875 -0.328125 -0.40625q-0.09375 -0.1875 -0.171875 -0.453125q-0.078125 -0.265625 -0.109375 -0.671875q-0.03125 -0.40625 -0.03125 -0.96875q0 -0.53125 0.046875 -0.953125q0.046875 -0.421875 0.171875 -0.6875q0.125 -0.265625 0.296875 -0.390625q0.171875 -0.125 0.390625 -0.125q0.3125 0 0.96875 0.390625q0.65625 0.390625 1.765625 0.84375q1.109375 0.453125 2.75 0.859375q1.640625 0.40625 3.890625 0.40625q2.09375 0 3.84375 -0.5q1.75 -0.5 3.015625 -1.5625q1.265625 -1.0625 1.984375 -2.671875q0.71875 -1.609375 0.71875 -3.921875q0 -1.9375 -0.609375 -3.421875q-0.609375 -1.484375 -1.875 -2.46875q-1.265625 -0.984375 -3.203125 -1.46875q-1.9375 -0.484375 -4.625 -0.484375q-1.90625 0 -3.28125 0.1875q-1.375 0.1875 -2.5625 0.1875q-0.875 0 -1.25 -0.40625q-0.375 -0.40625 -0.375 -1.5625l0 -16.46875q0 -1.03125 0.484375 -1.53125q0.484375 -0.5 1.390625 -0.5l17.90625 0q0.25 0 0.484375 0.140625q0.234375 0.140625 0.390625 0.421875q0.15625 0.28125 0.234375 0.71875q0.078125 0.4375 0.078125 1.03125q0 1.125 -0.3125 1.75q-0.3125 0.625 -0.875 0.625l-15.09375 0l0 11.34375q1.09375 -0.15625 2.234375 -0.1875q1.140625 -0.03125 2.640625 -0.03125q3.46875 0 6.0625 0.828125q2.59375 0.828125 4.328125 2.34375q1.734375 1.515625 2.625 3.671875q0.890625 2.15625 0.890625 4.78125z" fill-rule="nonzero"></path><path fill="#000000" fill-opacity="0.0" d="m134.14305 352.07846l278.2992 0l0 72.09448l-278.2992 0z" fill-rule="nonzero"></path><path fill="#000000" d="m254.62079 408.84695q0 0.5625 -0.0625 0.984375q-0.0625 0.421875 -0.21875 0.703125q-0.15625 0.28125 -0.359375 0.40625q-0.203125 0.125 -0.453125 0.125l-19.40625 0q-0.71875 0 -1.359375 -0.484375q-0.640625 -0.484375 -0.640625 -1.703125l0 -36.0625q0 -1.21875 0.640625 -1.703125q0.640625 -0.484375 1.359375 -0.484375l19.1875 0q0.25 0 0.453125 0.125q0.203125 0.125 0.328125 0.40625q0.125 0.28125 0.203125 0.703125q0.078125 0.421875 0.078125 1.046875q0 0.5625 -0.078125 0.984375q-0.078125 0.421875 -0.203125 0.6875q-0.125 0.265625 -0.328125 0.390625q-0.203125 0.125 -0.453125 0.125l-15.8125 0l0 12.6875l13.5625 0q0.25 0 0.453125 0.140625q0.203125 0.140625 0.34375 0.390625q0.140625 0.25 0.203125 0.6875q0.0625 0.4375 0.0625 1.03125q0 0.5625 -0.0625 0.96875q-0.0625 0.40625 -0.203125 0.65625q-0.140625 0.25 -0.34375 0.359375q-0.203125 0.109375 -0.453125 0.109375l-13.5625 0l0 14.46875l16.03125 0q0.25 0 0.453125 0.125q0.203125 0.125 0.359375 0.390625q0.15625 0.265625 0.21875 0.6875q0.0625 0.421875 0.0625 1.046875zm30.46875 -9.125q0 2.84375 -1.046875 5.0625q-1.046875 2.21875 -2.90625 3.765625q-1.859375 1.546875 -4.375 2.328125q-2.515625 0.78125 -5.421875 0.78125q-2.03125 0 -3.765625 -0.34375q-1.734375 -0.34375 -3.09375 -0.84375q-1.359375 -0.5 -2.28125 -1.03125q-0.921875 -0.53125 -1.28125 -0.90625q-0.359375 -0.375 -0.53125 -0.953125q-0.171875 -0.578125 -0.171875 -1.546875q0 -0.6875 0.0625 -1.140625q0.0625 -0.453125 0.1875 -0.734375q0.125 -0.28125 0.3125 -0.390625q0.1875 -0.109375 0.4375 -0.109375q0.4375 0 1.234375 0.53125q0.796875 0.53125 2.046875 1.15625q1.25 0.625 3.015625 1.171875q1.765625 0.546875 4.078125 0.546875q1.75 0 3.203125 -0.46875q1.453125 -0.46875 2.5 -1.328125q1.046875 -0.859375 1.609375 -2.109375q0.5625 -1.25 0.5625 -2.84375q0 -1.71875 -0.78125 -2.9375q-0.78125 -1.21875 -2.0625 -2.140625q-1.28125 -0.921875 -2.921875 -1.6875q-1.640625 -0.765625 -3.359375 -1.5625q-1.71875 -0.796875 -3.34375 -1.765625q-1.625 -0.96875 -2.90625 -2.28125q-1.28125 -1.3125 -2.078125 -3.078125q-0.796875 -1.765625 -0.796875 -4.234375q0 -2.53125 0.921875 -4.515625q0.921875 -1.984375 2.5625 -3.328125q1.640625 -1.34375 3.90625 -2.046875q2.265625 -0.703125 4.890625 -0.703125q1.34375 0 2.703125 0.234375q1.359375 0.234375 2.5625 0.625q1.203125 0.390625 2.140625 0.875q0.9375 0.484375 1.234375 0.78125q0.296875 0.296875 0.390625 0.46875q0.09375 0.171875 0.15625 0.4375q0.0625 0.265625 0.09375 0.640625q0.03125 0.375 0.03125 0.96875q0 0.5625 -0.046875 1.0q-0.046875 0.4375 -0.140625 0.734375q-0.09375 0.296875 -0.265625 0.4375q-0.171875 0.140625 -0.390625 0.140625q-0.34375 0 -1.078125 -0.4375q-0.734375 -0.4375 -1.796875 -0.984375q-1.0625 -0.546875 -2.515625 -1.0q-1.453125 -0.453125 -3.265625 -0.453125q-1.6875 0 -2.9375 0.453125q-1.25 0.453125 -2.0625 1.203125q-0.8125 0.75 -1.21875 1.78125q-0.40625 1.03125 -0.40625 2.1875q0 1.6875 0.78125 2.90625q0.78125 1.21875 2.078125 2.15625q1.296875 0.9375 2.953125 1.71875q1.65625 0.78125 3.375 1.578125q1.71875 0.796875 3.375 1.75q1.65625 0.953125 2.953125 2.25q1.296875 1.296875 2.09375 3.0625q0.796875 1.765625 0.796875 4.171875zm31.0 -1.65625q0 3.25 -1.09375 5.78125q-1.09375 2.53125 -3.09375 4.265625q-2.0 1.734375 -4.765625 2.640625q-2.765625 0.90625 -6.140625 0.90625q-1.875 0 -3.5625 -0.265625q-1.6875 -0.265625 -3.0 -0.65625q-1.3125 -0.390625 -2.15625 -0.765625q-0.84375 -0.375 -1.078125 -0.59375q-0.234375 -0.21875 -0.328125 -0.40625q-0.09375 -0.1875 -0.171875 -0.453125q-0.078125 -0.265625 -0.109375 -0.671875q-0.03125 -0.40625 -0.03125 -0.96875q0 -0.53125 0.046875 -0.953125q0.046875 -0.421875 0.171875 -0.6875q0.125 -0.265625 0.296875 -0.390625q0.171875 -0.125 0.390625 -0.125q0.3125 0 0.96875 0.390625q0.65625 0.390625 1.765625 0.84375q1.109375 0.453125 2.75 0.859375q1.640625 0.40625 3.890625 0.40625q2.09375 0 3.84375 -0.5q1.75 -0.5 3.015625 -1.5625q1.265625 -1.0625 1.984375 -2.671875q0.71875 -1.609375 0.71875 -3.921875q0 -1.9375 -0.609375 -3.421875q-0.609375 -1.484375 -1.875 -2.46875q-1.265625 -0.984375 -3.203125 -1.46875q-1.9375 -0.484375 -4.625 -0.484375q-1.90625 0 -3.28125 0.1875q-1.375 0.1875 -2.5625 0.1875q-0.875 0 -1.25 -0.40625q-0.375 -0.40625 -0.375 -1.5625l0 -16.46875q0 -1.03125 0.484375 -1.53125q0.484375 -0.5 1.390625 -0.5l17.90625 0q0.25 0 0.484375 0.140625q0.234375 0.140625 0.390625 0.421875q0.15625 0.28125 0.234375 0.71875q0.078125 0.4375 0.078125 1.03125q0 1.125 -0.3125 1.75q-0.3125 0.625 -0.875 0.625l-15.09375 0l0 11.34375q1.09375 -0.15625 2.234375 -0.1875q1.140625 -0.03125 2.640625 -0.03125q3.46875 0 6.0625 0.828125q2.59375 0.828125 4.328125 2.34375q1.734375 1.515625 2.625 3.671875q0.890625 2.15625 0.890625 4.78125z" fill-rule="nonzero"></path></g></svg>

