<?xml version="1.0" standalone="yes"?>

<svg version="1.1" viewBox="0.0 0.0 505.6771653543307 231.9763779527559" fill="none" stroke="none" stroke-linecap="square" stroke-miterlimit="10" xmlns="http://www.w3.org/2000/svg" xmlns:xlink="http://www.w3.org/1999/xlink"><clipPath id="p.0"><path d="m0 0l505.67715 0l0 231.97638l-505.67715 0l0 -231.97638z" clip-rule="nonzero"></path></clipPath><g clip-path="url(#p.0)"><path fill="#000000" fill-opacity="0.0" d="m0 0l505.67715 0l0 231.97638l-505.67715 0z" fill-rule="nonzero"></path><path fill="#000000" fill-opacity="0.0" d="m125.67454 67.073494l0 57.5748" fill-rule="nonzero"></path><path stroke="#434343" stroke-width="3.0" stroke-linejoin="round" stroke-linecap="butt" d="m125.67454 67.073494l0 46.204803" fill-rule="evenodd"></path><path fill="#434343" stroke="#434343" stroke-width="3.0" stroke-linecap="butt" d="m125.67454 123.14829c-2.725525 0 -4.9349976 -2.2094727 -4.9349976 -4.9349976c0 -2.725525 2.2094727 -4.9349976 4.9349976 -4.9349976c2.7255325 0 4.935005 2.2094727 4.935005 4.9349976c0 2.725525 -2.2094727 4.9349976 -4.935005 4.9349976z" fill-rule="nonzero"></path><path fill="#005eb8" d="m15.422572 133.88208l0 0c0 -5.0938873 4.129403 -9.2232895 9.223281 -9.2232895l202.05737 0c2.446167 0 4.792145 0.9717407 6.5218353 2.701439c1.7297058 1.7297058 2.7014465 4.0756836 2.7014465 6.5218506l0 36.892014c0 5.093872 -4.12941 9.223282 -9.223282 9.223282l-202.05737 0c-5.093878 0 -9.223281 -4.12941 -9.223281 -9.223282z" fill-rule="nonzero"></path><path stroke="#434343" stroke-width="2.0" stroke-linejoin="round" stroke-linecap="butt" d="m15.422572 133.88208l0 0c0 -5.0938873 4.129403 -9.2232895 9.223281 -9.2232895l202.05737 0c2.446167 0 4.792145 0.9717407 6.5218353 2.701439c1.7297058 1.7297058 2.7014465 4.0756836 2.7014465 6.5218506l0 36.892014c0 5.093872 -4.12941 9.223282 -9.223282 9.223282l-202.05737 0c-5.093878 0 -9.223281 -4.12941 -9.223281 -9.223282z" fill-rule="nonzero"></path><path fill="#ffffff" d="m63.8386 162.9387q0 0.28125 -0.03125 0.5q-0.03125 0.203125 -0.109375 0.34375q-0.078125 0.140625 -0.1875 0.203125q-0.09375 0.0625 -0.21875 0.0625l-9.703125 0q-0.359375 0 -0.6875 -0.234375q-0.3125 -0.25 -0.3125 -0.859375l0 -18.03125q0 -0.609375 0.3125 -0.84375q0.328125 -0.25 0.6875 -0.25l9.59375 0q0.125 0 0.21875 0.0625q0.109375 0.0625 0.171875 0.203125q0.0625 0.140625 0.09375 0.359375q0.046875 0.203125 0.046875 0.515625q0 0.28125 -0.046875 0.5q-0.03125 0.203125 -0.09375 0.34375q-0.0625 0.125 -0.171875 0.1875q-0.09375 0.0625 -0.21875 0.0625l-7.90625 0l0 6.34375l6.78125 0q0.125 0 0.21875 0.078125q0.109375 0.0625 0.171875 0.1875q0.078125 0.125 0.109375 0.34375q0.03125 0.21875 0.03125 0.515625q0 0.28125 -0.03125 0.484375q-0.03125 0.203125 -0.109375 0.328125q-0.0625 0.125 -0.171875 0.1875q-0.09375 0.046875 -0.21875 0.046875l-6.78125 0l0 7.234375l8.015625 0q0.125 0 0.21875 0.0625q0.109375 0.0625 0.1875 0.203125q0.078125 0.125 0.109375 0.34375q0.03125 0.203125 0.03125 0.515625zm16.125 0.71875q0 0.125 -0.0625 0.21875q-0.046875 0.09375 -0.1875 0.15625q-0.125 0.046875 -0.34375 0.078125q-0.21875 0.03125 -0.53125 0.03125q-0.328125 0 -0.546875 -0.03125q-0.21875 -0.03125 -0.359375 -0.078125q-0.140625 -0.0625 -0.203125 -0.15625q-0.0625 -0.09375 -0.0625 -0.21875l0 -1.859375q-1.109375 1.203125 -2.3125 1.875q-1.1875 0.671875 -2.609375 0.671875q-1.546875 0 -2.640625 -0.59375q-1.09375 -0.609375 -1.78125 -1.625q-0.671875 -1.03125 -0.984375 -2.40625q-0.3125 -1.390625 -0.3125 -2.921875q0 -1.8125 0.390625 -3.265625q0.390625 -1.46875 1.15625 -2.5q0.765625 -1.03125 1.890625 -1.578125q1.140625 -0.5625 2.625 -0.5625q1.234375 0 2.25 0.546875q1.03125 0.53125 2.03125 1.578125l0 -8.171875q0 -0.109375 0.046875 -0.203125q0.0625 -0.109375 0.21875 -0.15625q0.15625 -0.0625 0.390625 -0.09375q0.25 -0.046875 0.625 -0.046875q0.390625 0 0.640625 0.046875q0.25 0.03125 0.390625 0.09375q0.140625 0.046875 0.203125 0.15625q0.078125 0.09375 0.078125 0.203125l0 20.8125zm-2.59375 -9.890625q-1.046875 -1.296875 -2.03125 -1.96875q-0.96875 -0.6875 -2.03125 -0.6875q-0.984375 0 -1.671875 0.46875q-0.6875 0.46875 -1.125 1.234375q-0.421875 0.765625 -0.625 1.734375q-0.1875 0.96875 -0.1875 1.96875q0 1.0625 0.15625 2.078125q0.171875 1.015625 0.578125 1.8125q0.40625 0.78125 1.078125 1.265625q0.671875 0.46875 1.6875 0.46875q0.515625 0 0.984375 -0.140625q0.484375 -0.140625 0.984375 -0.46875q0.5 -0.328125 1.046875 -0.84375q0.546875 -0.53125 1.15625 -1.296875l0 -5.625zm9.9375 9.890625q0 0.125 -0.0625 0.21875q-0.0625 0.078125 -0.203125 0.140625q-0.140625 0.0625 -0.390625 0.09375q-0.25 0.03125 -0.640625 0.03125q-0.375 0 -0.625 -0.03125q-0.25 -0.03125 -0.40625 -0.09375q-0.140625 -0.0625 -0.203125 -0.140625q-0.046875 -0.09375 -0.046875 -0.21875l0 -14.0625q0 -0.109375 0.046875 -0.203125q0.0625 -0.09375 0.203125 -0.15625q0.15625 -0.0625 0.40625 -0.09375q0.25 -0.03125 0.625 -0.03125q0.390625 0 0.640625 0.03125q0.25 0.03125 0.390625 0.09375q0.140625 0.0625 0.203125 0.15625q0.0625 0.09375 0.0625 0.203125l0 14.0625zm0.296875 -18.8125q0 0.90625 -0.34375 1.234375q-0.34375 0.328125 -1.265625 0.328125q-0.90625 0 -1.25 -0.3125q-0.328125 -0.328125 -0.328125 -1.21875q0 -0.90625 0.34375 -1.234375q0.34375 -0.328125 1.265625 -0.328125q0.90625 0 1.234375 0.328125q0.34375 0.3125 0.34375 1.203125zm11.78125 17.78125q0 0.453125 -0.0625 0.71875q-0.0625 0.265625 -0.1875 0.390625q-0.125 0.125 -0.375 0.234375q-0.25 0.109375 -0.578125 0.171875q-0.3125 0.078125 -0.671875 0.125q-0.359375 0.046875 -0.71875 0.046875q-1.09375 0 -1.875 -0.28125q-0.78125 -0.296875 -1.28125 -0.875q-0.5 -0.59375 -0.734375 -1.484375q-0.21875 -0.90625 -0.21875 -2.125l0 -8.21875l-1.96875 0q-0.234375 0 -0.375 -0.25q-0.140625 -0.25 -0.140625 -0.8125q0 -0.296875 0.03125 -0.5q0.046875 -0.203125 0.109375 -0.328125q0.0625 -0.140625 0.15625 -0.1875q0.109375 -0.0625 0.234375 -0.0625l1.953125 0l0 -3.34375q0 -0.109375 0.046875 -0.203125q0.0625 -0.09375 0.203125 -0.15625q0.15625 -0.078125 0.40625 -0.109375q0.25 -0.03125 0.625 -0.03125q0.390625 0 0.640625 0.03125q0.25 0.03125 0.390625 0.109375q0.140625 0.0625 0.203125 0.15625q0.0625 0.09375 0.0625 0.203125l0 3.34375l3.609375 0q0.125 0 0.21875 0.0625q0.09375 0.046875 0.15625 0.1875q0.078125 0.125 0.109375 0.328125q0.03125 0.203125 0.03125 0.5q0 0.5625 -0.140625 0.8125q-0.140625 0.25 -0.375 0.25l-3.609375 0l0 7.84375q0 1.453125 0.421875 2.203125q0.4375 0.734375 1.546875 0.734375q0.359375 0 0.640625 -0.0625q0.28125 -0.078125 0.5 -0.15625q0.21875 -0.078125 0.375 -0.140625q0.15625 -0.078125 0.28125 -0.078125q0.078125 0 0.140625 0.046875q0.078125 0.03125 0.109375 0.140625q0.046875 0.109375 0.078125 0.296875q0.03125 0.1875 0.03125 0.46875zm17.203125 -1.4375q0 0.25 -0.015625 0.4375q-0.015625 0.1875 -0.0625 0.328125q-0.03125 0.140625 -0.09375 0.25q-0.0625 0.109375 -0.21875 0.265625q-0.15625 0.15625 -0.65625 0.484375q-0.5 0.3125 -1.25 0.625q-0.734375 0.296875 -1.703125 0.5q-0.953125 0.21875 -2.09375 0.21875q-1.96875 0 -3.5625 -0.65625q-1.578125 -0.65625 -2.703125 -1.9375q-1.109375 -1.28125 -1.71875 -3.15625q-0.59375 -1.890625 -0.59375 -4.34375q0 -2.515625 0.640625 -4.484375q0.65625 -1.96875 1.828125 -3.328125q1.171875 -1.375 2.796875 -2.09375q1.640625 -0.71875 3.625 -0.71875q0.875 0 1.703125 0.171875q0.828125 0.15625 1.53125 0.40625q0.703125 0.25 1.25 0.578125q0.546875 0.328125 0.75 0.546875q0.21875 0.203125 0.28125 0.3125q0.0625 0.109375 0.09375 0.265625q0.046875 0.140625 0.0625 0.34375q0.03125 0.203125 0.03125 0.484375q0 0.3125 -0.03125 0.53125q-0.03125 0.21875 -0.09375 0.375q-0.0625 0.140625 -0.15625 0.21875q-0.078125 0.0625 -0.203125 0.0625q-0.21875 0 -0.609375 -0.296875q-0.390625 -0.3125 -1.015625 -0.671875q-0.609375 -0.375 -1.5 -0.671875q-0.875 -0.3125 -2.109375 -0.3125q-1.34375 0 -2.453125 0.546875q-1.09375 0.53125 -1.875 1.578125q-0.78125 1.046875 -1.21875 2.5625q-0.421875 1.5 -0.421875 3.4375q0 1.921875 0.40625 3.40625q0.421875 1.46875 1.1875 2.46875q0.78125 0.984375 1.90625 1.5q1.125 0.5 2.546875 0.5q1.203125 0 2.09375 -0.296875q0.90625 -0.296875 1.53125 -0.65625q0.640625 -0.375 1.046875 -0.671875q0.40625 -0.296875 0.640625 -0.296875q0.109375 0 0.1875 0.046875q0.078125 0.046875 0.125 0.1875q0.046875 0.125 0.0625 0.359375q0.03125 0.234375 0.03125 0.59375zm16.343758 -4.71875q0 1.71875 -0.453125 3.171875q-0.453125 1.4375 -1.359375 2.484375q-0.890625 1.046875 -2.25 1.640625q-1.3437576 0.578125 -3.1250076 0.578125q-1.734375 0 -3.03125 -0.515625q-1.28125 -0.515625 -2.140625 -1.5q-0.859375 -0.984375 -1.28125 -2.390625q-0.421875 -1.40625 -0.421875 -3.1875q0 -1.71875 0.4375 -3.15625q0.453125 -1.453125 1.34375 -2.5q0.90625 -1.046875 2.25 -1.625q1.34375 -0.578125 3.140625 -0.578125q1.734375 0 3.0156326 0.515625q1.296875 0.515625 2.15625 1.5q0.859375 0.984375 1.28125 2.390625q0.4375 1.40625 0.4375 3.171875zm-2.71875 0.171875q0 -1.140625 -0.21875 -2.15625q-0.203125 -1.015625 -0.6875 -1.78125q-0.484375 -0.765625 -1.3125076 -1.203125q-0.828125 -0.453125 -2.0625 -0.453125q-1.140625 0 -1.96875 0.40625q-0.8125 0.40625 -1.34375 1.15625q-0.53125 0.734375 -0.796875 1.75q-0.25 1.015625 -0.25 2.21875q0 1.15625 0.203125 2.171875q0.21875 1.015625 0.703125 1.78125q0.5 0.75 1.328125 1.203125q0.828125 0.4375 2.0625 0.4375q1.125 0 1.953125 -0.40625q0.8281326 -0.40625 1.3593826 -1.140625q0.53125 -0.734375 0.78125 -1.75q0.25 -1.015625 0.25 -2.234375zm18.625 7.015625q0 0.125 -0.0625 0.21875q-0.0625 0.078125 -0.203125 0.140625q-0.140625 0.0625 -0.390625 0.09375q-0.25 0.03125 -0.625 0.03125q-0.390625 0 -0.640625 -0.03125q-0.25 -0.03125 -0.390625 -0.09375q-0.140625 -0.0625 -0.203125 -0.140625q-0.0625 -0.09375 -0.0625 -0.21875l0 -8.234375q0 -1.203125 -0.1875 -1.9375q-0.1875 -0.734375 -0.546875 -1.265625q-0.359375 -0.53125 -0.9375 -0.8125q-0.5625 -0.28125 -1.3125 -0.28125q-0.96875 0 -1.9375 0.6875q-0.96875 0.6875 -2.03125 2.015625l0 9.828125q0 0.125 -0.0625 0.21875q-0.0625 0.078125 -0.203125 0.140625q-0.140625 0.0625 -0.390625 0.09375q-0.25 0.03125 -0.640625 0.03125q-0.375 0 -0.625 -0.03125q-0.25 -0.03125 -0.40625 -0.09375q-0.140625 -0.0625 -0.203125 -0.140625q-0.046875 -0.09375 -0.046875 -0.21875l0 -14.0625q0 -0.125 0.046875 -0.203125q0.046875 -0.09375 0.1875 -0.15625q0.140625 -0.078125 0.359375 -0.09375q0.21875 -0.03125 0.578125 -0.03125q0.34375 0 0.5625 0.03125q0.234375 0.015625 0.359375 0.09375q0.125 0.0625 0.171875 0.15625q0.0625 0.078125 0.0625 0.203125l0 1.859375q1.1875 -1.328125 2.359375 -1.9375q1.1875 -0.625 2.390625 -0.625q1.40625 0 2.359375 0.484375q0.96875 0.46875 1.5625 1.265625q0.59375 0.796875 0.84375 1.875q0.265625 1.0625 0.265625 2.5625l0 8.578125zm12.015625 -1.03125q0 0.453125 -0.0625 0.71875q-0.0625 0.265625 -0.1875 0.390625q-0.125 0.125 -0.375 0.234375q-0.25 0.109375 -0.578125 0.171875q-0.3125 0.078125 -0.671875 0.125q-0.359375 0.046875 -0.71875 0.046875q-1.09375 0 -1.875 -0.28125q-0.78125 -0.296875 -1.28125 -0.875q-0.5 -0.59375 -0.734375 -1.484375q-0.21875 -0.90625 -0.21875 -2.125l0 -8.21875l-1.96875 0q-0.234375 0 -0.375 -0.25q-0.140625 -0.25 -0.140625 -0.8125q0 -0.296875 0.03125 -0.5q0.046875 -0.203125 0.109375 -0.328125q0.0625 -0.140625 0.15625 -0.1875q0.109375 -0.0625 0.234375 -0.0625l1.953125 0l0 -3.34375q0 -0.109375 0.046875 -0.203125q0.0625 -0.09375 0.203125 -0.15625q0.15625 -0.078125 0.40625 -0.109375q0.25 -0.03125 0.625 -0.03125q0.390625 0 0.640625 0.03125q0.25 0.03125 0.390625 0.109375q0.140625 0.0625 0.203125 0.15625q0.0625 0.09375 0.0625 0.203125l0 3.34375l3.609375 0q0.125 0 0.21875 0.0625q0.09375 0.046875 0.15625 0.1875q0.078125 0.125 0.109375 0.328125q0.03125 0.203125 0.03125 0.5q0 0.5625 -0.140625 0.8125q-0.140625 0.25 -0.375 0.25l-3.609375 0l0 7.84375q0 1.453125 0.421875 2.203125q0.4375 0.734375 1.546875 0.734375q0.359375 0 0.640625 -0.0625q0.28125 -0.078125 0.5 -0.15625q0.21875 -0.078125 0.375 -0.140625q0.15625 -0.078125 0.28125 -0.078125q0.078125 0 0.140625 0.046875q0.078125 0.03125 0.109375 0.140625q0.046875 0.109375 0.078125 0.296875q0.03125 0.1875 0.03125 0.46875zm14.0 1.046875q0 0.1875 -0.125 0.28125q-0.125 0.09375 -0.34375 0.140625q-0.21875 0.046875 -0.640625 0.046875q-0.40625 0 -0.65625 -0.046875q-0.234375 -0.046875 -0.34375 -0.140625q-0.109375 -0.09375 -0.109375 -0.28125l0 -1.40625q-0.921875 0.984375 -2.0625 1.53125q-1.125 0.546875 -2.390625 0.546875q-1.109375 0 -2.015625 -0.296875q-0.890625 -0.28125 -1.53125 -0.828125q-0.625 -0.546875 -0.984375 -1.34375q-0.34375 -0.796875 -0.34375 -1.8125q0 -1.1875 0.484375 -2.0625q0.484375 -0.875 1.390625 -1.453125q0.90625 -0.578125 2.21875 -0.859375q1.3125 -0.296875 2.953125 -0.296875l1.9375 0l0 -1.09375q0 -0.8125 -0.171875 -1.4375q-0.171875 -0.625 -0.5625 -1.03125q-0.375 -0.421875 -0.984375 -0.625q-0.609375 -0.21875 -1.5 -0.21875q-0.953125 0 -1.71875 0.234375q-0.75 0.21875 -1.328125 0.5q-0.5625 0.265625 -0.953125 0.5q-0.375 0.21875 -0.5625 0.21875q-0.125 0 -0.21875 -0.0625q-0.09375 -0.0625 -0.171875 -0.1875q-0.0625 -0.125 -0.09375 -0.3125q-0.03125 -0.203125 -0.03125 -0.4375q0 -0.390625 0.046875 -0.609375q0.0625 -0.234375 0.265625 -0.4375q0.21875 -0.203125 0.734375 -0.46875q0.515625 -0.28125 1.1875 -0.5q0.671875 -0.234375 1.46875 -0.375q0.796875 -0.15625 1.609375 -0.15625q1.515625 0 2.578125 0.34375q1.0625 0.34375 1.71875 1.015625q0.65625 0.65625 0.953125 1.640625q0.296875 0.984375 0.296875 2.296875l0 9.484375zm-2.5625 -6.421875l-2.203125 0q-1.0625 0 -1.84375 0.1875q-0.78125 0.171875 -1.296875 0.53125q-0.515625 0.34375 -0.765625 0.84375q-0.234375 0.484375 -0.234375 1.125q0 1.09375 0.6875 1.75q0.703125 0.640625 1.953125 0.640625q1.015625 0 1.875 -0.515625q0.875 -0.515625 1.828125 -1.578125l0 -2.984375zm17.40625 4.265625q0 0.265625 -0.015625 0.46875q-0.015625 0.1875 -0.0625 0.328125q-0.03125 0.125 -0.09375 0.234375q-0.046875 0.09375 -0.25 0.296875q-0.1875 0.1875 -0.65625 0.484375q-0.46875 0.28125 -1.0625 0.515625q-0.578125 0.21875 -1.265625 0.359375q-0.6875 0.140625 -1.421875 0.140625q-1.515625 0 -2.6875 -0.5q-1.171875 -0.5 -1.96875 -1.453125q-0.78125 -0.96875 -1.203125 -2.359375q-0.40625 -1.40625 -0.40625 -3.234375q0 -2.078125 0.5 -3.5625q0.515625 -1.5 1.390625 -2.453125q0.890625 -0.953125 2.078125 -1.40625q1.203125 -0.46875 2.59375 -0.46875q0.671875 0 1.296875 0.125q0.640625 0.125 1.171875 0.328125q0.53125 0.203125 0.9375 0.46875q0.421875 0.265625 0.609375 0.453125q0.1875 0.1875 0.25 0.296875q0.078125 0.109375 0.125 0.265625q0.046875 0.140625 0.0625 0.328125q0.015625 0.1875 0.015625 0.46875q0 0.609375 -0.140625 0.859375q-0.140625 0.234375 -0.34375 0.234375q-0.234375 0 -0.546875 -0.25q-0.296875 -0.265625 -0.765625 -0.578125q-0.46875 -0.3125 -1.140625 -0.5625q-0.65625 -0.265625 -1.5625 -0.265625q-1.859375 0 -2.859375 1.4375q-0.984375 1.421875 -0.984375 4.140625q0 1.359375 0.25 2.390625q0.265625 1.015625 0.765625 1.703125q0.5 0.6875 1.21875 1.03125q0.734375 0.328125 1.671875 0.328125q0.890625 0 1.5625 -0.28125q0.671875 -0.28125 1.15625 -0.609375q0.5 -0.34375 0.828125 -0.609375q0.34375 -0.28125 0.53125 -0.28125q0.109375 0 0.1875 0.0625q0.078125 0.0625 0.125 0.21875q0.0625 0.140625 0.078125 0.375q0.03125 0.21875 0.03125 0.53125zm10.734375 1.109375q0 0.453125 -0.0625 0.71875q-0.0625 0.265625 -0.1875 0.390625q-0.125 0.125 -0.375 0.234375q-0.25 0.109375 -0.578125 0.171875q-0.3125 0.078125 -0.671875 0.125q-0.359375 0.046875 -0.71875 0.046875q-1.09375 0 -1.875 -0.28125q-0.78125 -0.296875 -1.28125 -0.875q-0.5 -0.59375 -0.734375 -1.484375q-0.21875 -0.90625 -0.21875 -2.125l0 -8.21875l-1.96875 0q-0.234375 0 -0.375 -0.25q-0.140625 -0.25 -0.140625 -0.8125q0 -0.296875 0.03125 -0.5q0.046875 -0.203125 0.109375 -0.328125q0.0625 -0.140625 0.15625 -0.1875q0.109375 -0.0625 0.234375 -0.0625l1.953125 0l0 -3.34375q0 -0.109375 0.046875 -0.203125q0.0625 -0.09375 0.203125 -0.15625q0.15625 -0.078125 0.40625 -0.109375q0.25 -0.03125 0.625 -0.03125q0.390625 0 0.640625 0.03125q0.25 0.03125 0.390625 0.109375q0.140625 0.0625 0.203125 0.15625q0.0625 0.09375 0.0625 0.203125l0 3.34375l3.609375 0q0.125 0 0.21875 0.0625q0.09375 0.046875 0.15625 0.1875q0.078125 0.125 0.109375 0.328125q0.03125 0.203125 0.03125 0.5q0 0.5625 -0.140625 0.8125q-0.140625 0.25 -0.375 0.25l-3.609375 0l0 7.84375q0 1.453125 0.421875 2.203125q0.4375 0.734375 1.546875 0.734375q0.359375 0 0.640625 -0.0625q0.28125 -0.078125 0.5 -0.15625q0.21875 -0.078125 0.375 -0.140625q0.15625 -0.078125 0.28125 -0.078125q0.078125 0 0.140625 0.046875q0.078125 0.03125 0.109375 0.140625q0.046875 0.109375 0.078125 0.296875q0.03125 0.1875 0.03125 0.46875z" fill-rule="nonzero"></path><path fill="#005eb8" d="m58.052494 20.958189l0 0c0 -5.093877 4.129402 -9.223281 9.223278 -9.223281l116.79753 0c2.446167 0 4.792145 0.97173595 6.5218506 2.701437c1.7297058 1.729701 2.7014313 4.075679 2.7014313 6.521844l0 36.89202c0 5.0938797 -4.1293945 9.223286 -9.223282 9.223286l-116.79753 0l0 0c-5.093876 0 -9.223278 -4.129406 -9.223278 -9.223286z" fill-rule="nonzero"></path><path stroke="#434343" stroke-width="2.0" stroke-linejoin="round" stroke-linecap="butt" d="m58.052494 20.958189l0 0c0 -5.093877 4.129402 -9.223281 9.223278 -9.223281l116.79753 0c2.446167 0 4.792145 0.97173595 6.5218506 2.701437c1.7297058 1.729701 2.7014313 4.075679 2.7014313 6.521844l0 36.89202c0 5.0938797 -4.1293945 9.223286 -9.223282 9.223286l-116.79753 0l0 0c-5.093876 0 -9.223278 -4.129406 -9.223278 -9.223286z" fill-rule="nonzero"></path><path fill="#ffffff" d="m117.43235 50.171074q0.125 0.34375 0.125 0.5625q0.015625 0.203125 -0.109375 0.3125q-0.125 0.109375 -0.421875 0.140625q-0.28125 0.03125 -0.765625 0.03125q-0.484375 0 -0.78125 -0.03125q-0.28125 -0.015625 -0.4375 -0.0625q-0.140625 -0.0625 -0.21875 -0.15625q-0.0625 -0.09375 -0.125 -0.234375l-1.734375 -4.921875l-8.40625 0l-1.65625 4.859375q-0.046875 0.140625 -0.125 0.25q-0.078125 0.09375 -0.234375 0.171875q-0.140625 0.0625 -0.421875 0.09375q-0.265625 0.03125 -0.703125 0.03125q-0.453125 0 -0.75 -0.046875q-0.28125 -0.03125 -0.40625 -0.140625q-0.109375 -0.109375 -0.109375 -0.3125q0.015625 -0.21875 0.140625 -0.5625l6.78125 -18.781248q0.0625 -0.171875 0.15625 -0.28125q0.109375 -0.109375 0.296875 -0.171875q0.203125 -0.0625 0.5 -0.078125q0.3125 -0.03125 0.78125 -0.03125q0.5 0 0.828125 0.03125q0.328125 0.015625 0.53125 0.078125q0.203125 0.0625 0.3125 0.1875q0.109375 0.109375 0.171875 0.28125l6.78125 18.781248zm-8.703125 -16.578125l-0.015625 0l-3.484375 10.078125l7.03125 0l-3.53125 -10.078125zm24.718758 9.890625q0 1.84375 -0.40625 3.3125q-0.390625 1.46875 -1.171875 2.5q-0.765625 1.015625 -1.90625 1.578125q-1.140625 0.546875 -2.6093826 0.546875q-0.625 0 -1.15625 -0.125q-0.53125 -0.125 -1.046875 -0.390625q-0.5 -0.265625 -1.0 -0.671875q-0.5 -0.40625 -1.0625 -0.953125l0 7.03125q0 0.125 -0.0625 0.21875q-0.0625 0.09375 -0.203125 0.15625q-0.140625 0.0625 -0.390625 0.09375q-0.25 0.03125 -0.640625 0.03125q-0.375 0 -0.625 -0.03125q-0.25 -0.03125 -0.40625 -0.09375q-0.140625 -0.0625 -0.203125 -0.15625q-0.046875 -0.09375 -0.046875 -0.21875l0 -19.640625q0 -0.140625 0.046875 -0.21875q0.046875 -0.09375 0.1875 -0.15625q0.140625 -0.0625 0.359375 -0.078125q0.21875 -0.03125 0.53125 -0.03125q0.328125 0 0.53125 0.03125q0.21875 0.015625 0.359375 0.078125q0.140625 0.0625 0.1875 0.15625q0.0625 0.078125 0.0625 0.21875l0 1.890625q0.640625 -0.65625 1.234375 -1.140625q0.59375 -0.484375 1.1875 -0.796875q0.609375 -0.328125 1.234375 -0.484375q0.640625 -0.171875 1.34375 -0.171875q1.5312576 0 2.6093826 0.59375q1.078125 0.59375 1.75 1.625q0.6875 1.03125 1.0 2.40625q0.3125 1.359375 0.3125 2.890625zm-2.71875 0.296875q0 -1.078125 -0.171875 -2.078125q-0.15625 -1.015625 -0.5625 -1.796875q-0.390625 -0.78125 -1.0625 -1.25q-0.671875 -0.46875 -1.6718826 -0.46875q-0.5 0 -0.984375 0.15625q-0.484375 0.140625 -0.984375 0.46875q-0.5 0.3125 -1.046875 0.84375q-0.546875 0.515625 -1.15625 1.28125l0 5.59375q1.0625 1.296875 2.015625 1.984375q0.953125 0.6875 2.0 0.6875q0.9687576 0 1.6562576 -0.46875q0.703125 -0.46875 1.125 -1.25q0.4375 -0.78125 0.640625 -1.75q0.203125 -0.96875 0.203125 -1.953125zm19.53125 -0.296875q0 1.84375 -0.40625 3.3125q-0.390625 1.46875 -1.171875 2.5q-0.765625 1.015625 -1.90625 1.578125q-1.140625 0.546875 -2.609375 0.546875q-0.625 0 -1.15625 -0.125q-0.53125 -0.125 -1.046875 -0.390625q-0.5 -0.265625 -1.0 -0.671875q-0.5 -0.40625 -1.0625 -0.953125l0 7.03125q0 0.125 -0.0625 0.21875q-0.0625 0.09375 -0.203125 0.15625q-0.140625 0.0625 -0.390625 0.09375q-0.25 0.03125 -0.640625 0.03125q-0.375 0 -0.625 -0.03125q-0.25 -0.03125 -0.40625 -0.09375q-0.140625 -0.0625 -0.203125 -0.15625q-0.046875 -0.09375 -0.046875 -0.21875l0 -19.640625q0 -0.140625 0.046875 -0.21875q0.046875 -0.09375 0.1875 -0.15625q0.140625 -0.0625 0.359375 -0.078125q0.21875 -0.03125 0.53125 -0.03125q0.328125 0 0.53125 0.03125q0.21875 0.015625 0.359375 0.078125q0.140625 0.0625 0.1875 0.15625q0.0625 0.078125 0.0625 0.21875l0 1.890625q0.640625 -0.65625 1.234375 -1.140625q0.59375 -0.484375 1.1875 -0.796875q0.609375 -0.328125 1.234375 -0.484375q0.640625 -0.171875 1.34375 -0.171875q1.53125 0 2.609375 0.59375q1.078125 0.59375 1.75 1.625q0.6875 1.03125 1.0 2.40625q0.3125 1.359375 0.3125 2.890625zm-2.71875 0.296875q0 -1.078125 -0.171875 -2.078125q-0.15625 -1.015625 -0.5625 -1.796875q-0.390625 -0.78125 -1.0625 -1.25q-0.671875 -0.46875 -1.671875 -0.46875q-0.5 0 -0.984375 0.15625q-0.484375 0.140625 -0.984375 0.46875q-0.5 0.3125 -1.046875 0.84375q-0.546875 0.515625 -1.15625 1.28125l0 5.59375q1.0625 1.296875 2.015625 1.984375q0.953125 0.6875 2.0 0.6875q0.96875 0 1.65625 -0.46875q0.703125 -0.46875 1.125 -1.25q0.4375 -0.78125 0.640625 -1.75q0.203125 -0.96875 0.203125 -1.953125z" fill-rule="nonzero"></path><path fill="#000000" fill-opacity="0.0" d="m364.95013 43.53281l144.22046 0l0 48.503933l-144.22046 0z" fill-rule="nonzero"></path><path fill="#434343" d="m387.32513 74.85406q0.09375 0.265625 0.09375 0.421875q0.015625 0.15625 -0.078125 0.25q-0.09375 0.078125 -0.3125 0.09375q-0.21875 0.03125 -0.578125 0.03125q-0.375 0 -0.59375 -0.03125q-0.203125 -0.015625 -0.328125 -0.046875q-0.109375 -0.046875 -0.15625 -0.109375q-0.046875 -0.078125 -0.09375 -0.1875l-1.3125 -3.6875l-6.296875 0l-1.25 3.640625q-0.03125 0.109375 -0.09375 0.1875q-0.046875 0.078125 -0.171875 0.140625q-0.109375 0.046875 -0.3125 0.0625q-0.203125 0.03125 -0.53125 0.03125q-0.34375 0 -0.5625 -0.03125q-0.203125 -0.03125 -0.296875 -0.109375q-0.09375 -0.09375 -0.09375 -0.25q0.015625 -0.15625 0.109375 -0.421875l5.09375 -14.078121q0.046875 -0.125 0.109375 -0.203125q0.078125 -0.09375 0.21875 -0.140625q0.15625 -0.046875 0.375 -0.0625q0.234375 -0.015625 0.59375 -0.015625q0.375 0 0.609375 0.015625q0.25 0.015625 0.40625 0.0625q0.15625 0.046875 0.234375 0.140625q0.078125 0.078125 0.125 0.21875l5.09375 14.078121zm-6.53125 -12.437496l-0.015625 0l-2.609375 7.562496l5.28125 0l-2.65625 -7.562496zm18.542969 7.421871q0 1.390625 -0.296875 2.5q-0.296875 1.09375 -0.890625 1.859375q-0.578125 0.765625 -1.4375 1.1875q-0.84375 0.40625 -1.953125 0.40625q-0.46875 0 -0.875 -0.09375q-0.390625 -0.09375 -0.765625 -0.28125q-0.375 -0.203125 -0.75 -0.5q-0.375 -0.3125 -0.796875 -0.734375l0 5.28125q0 0.09375 -0.046875 0.15625q-0.046875 0.078125 -0.15625 0.125q-0.109375 0.046875 -0.296875 0.0625q-0.1875 0.03125 -0.484375 0.03125q-0.28125 0 -0.46875 -0.03125q-0.1875 -0.015625 -0.296875 -0.0625q-0.109375 -0.046875 -0.15625 -0.125q-0.03125 -0.0625 -0.03125 -0.15625l0 -14.734375q0 -0.109375 0.03125 -0.171875q0.03125 -0.0625 0.140625 -0.109375q0.109375 -0.046875 0.265625 -0.0625q0.171875 -0.015625 0.40625 -0.015625q0.25 0 0.40625 0.015625q0.15625 0.015625 0.25 0.0625q0.109375 0.046875 0.15625 0.109375q0.046875 0.0625 0.046875 0.171875l0 1.421875q0.46875 -0.5 0.90625 -0.859375q0.453125 -0.359375 0.90625 -0.59375q0.453125 -0.25 0.921875 -0.375q0.484375 -0.125 1.015625 -0.125q1.140625 0 1.953125 0.453125q0.8125 0.4375 1.3125 1.21875q0.515625 0.765625 0.75 1.796875q0.234375 1.03125 0.234375 2.171875zm-2.046875 0.21875q0 -0.796875 -0.125 -1.546875q-0.109375 -0.765625 -0.421875 -1.34375q-0.296875 -0.59375 -0.796875 -0.9375q-0.5 -0.359375 -1.25 -0.359375q-0.375 0 -0.75 0.109375q-0.359375 0.109375 -0.734375 0.359375q-0.375 0.234375 -0.78125 0.625q-0.40625 0.390625 -0.859375 0.96875l0 4.1875q0.796875 0.984375 1.5 1.5q0.71875 0.515625 1.5 0.515625q0.734375 0 1.25 -0.34375q0.53125 -0.359375 0.84375 -0.9375q0.328125 -0.59375 0.46875 -1.3125q0.15625 -0.734375 0.15625 -1.484375zm14.65625 -0.21875q0 1.390625 -0.296875 2.5q-0.296875 1.09375 -0.890625 1.859375q-0.578125 0.765625 -1.4375 1.1875q-0.84375 0.40625 -1.953125 0.40625q-0.46875 0 -0.875 -0.09375q-0.390625 -0.09375 -0.765625 -0.28125q-0.375 -0.203125 -0.75 -0.5q-0.375 -0.3125 -0.796875 -0.734375l0 5.28125q0 0.09375 -0.046875 0.15625q-0.046875 0.078125 -0.15625 0.125q-0.109375 0.046875 -0.296875 0.0625q-0.1875 0.03125 -0.484375 0.03125q-0.28125 0 -0.46875 -0.03125q-0.1875 -0.015625 -0.296875 -0.0625q-0.109375 -0.046875 -0.15625 -0.125q-0.03125 -0.0625 -0.03125 -0.15625l0 -14.734375q0 -0.109375 0.03125 -0.171875q0.03125 -0.0625 0.140625 -0.109375q0.109375 -0.046875 0.265625 -0.0625q0.171875 -0.015625 0.40625 -0.015625q0.25 0 0.40625 0.015625q0.15625 0.015625 0.25 0.0625q0.109375 0.046875 0.15625 0.109375q0.046875 0.0625 0.046875 0.171875l0 1.421875q0.46875 -0.5 0.90625 -0.859375q0.453125 -0.359375 0.90625 -0.59375q0.453125 -0.25 0.921875 -0.375q0.484375 -0.125 1.015625 -0.125q1.140625 0 1.953125 0.453125q0.8125 0.4375 1.3125 1.21875q0.515625 0.765625 0.75 1.796875q0.234375 1.03125 0.234375 2.171875zm-2.046875 0.21875q0 -0.796875 -0.125 -1.546875q-0.109375 -0.765625 -0.421875 -1.34375q-0.296875 -0.59375 -0.796875 -0.9375q-0.5 -0.359375 -1.25 -0.359375q-0.375 0 -0.75 0.109375q-0.359375 0.109375 -0.734375 0.359375q-0.375 0.234375 -0.78125 0.625q-0.40625 0.390625 -0.859375 0.96875l0 4.1875q0.796875 0.984375 1.5 1.5q0.71875 0.515625 1.5 0.515625q0.734375 0 1.25 -0.34375q0.53125 -0.359375 0.84375 -0.9375q0.328125 -0.59375 0.46875 -1.3125q0.15625 -0.734375 0.15625 -1.484375zm21.65625 5.203125q0 0.09375 -0.046875 0.171875q-0.046875 0.0625 -0.171875 0.109375q-0.109375 0.046875 -0.296875 0.078125q-0.171875 0.03125 -0.46875 0.03125q-0.265625 0 -0.46875 -0.03125q-0.1875 -0.03125 -0.296875 -0.078125q-0.109375 -0.046875 -0.15625 -0.109375q-0.046875 -0.078125 -0.046875 -0.171875l0 -13.203121l-0.015625 0l-5.40625 13.265621q-0.03125 0.078125 -0.109375 0.140625q-0.0625 0.0625 -0.1875 0.109375q-0.109375 0.03125 -0.28125 0.046875q-0.171875 0.03125 -0.40625 0.03125q-0.25 0 -0.421875 -0.03125q-0.171875 -0.015625 -0.296875 -0.0625q-0.109375 -0.046875 -0.1875 -0.09375q-0.0625 -0.0625 -0.078125 -0.140625l-5.171875 -13.265621l-0.015625 0l0 13.203121q0 0.09375 -0.046875 0.171875q-0.046875 0.0625 -0.171875 0.109375q-0.109375 0.046875 -0.296875 0.078125q-0.1875 0.03125 -0.46875 0.03125q-0.28125 0 -0.46875 -0.03125q-0.1875 -0.03125 -0.3125 -0.078125q-0.109375 -0.046875 -0.15625 -0.109375q-0.03125 -0.078125 -0.03125 -0.171875l0 -13.937496q0 -0.5 0.25 -0.703125q0.265625 -0.21875 0.578125 -0.21875l1.21875 0q0.375 0 0.65625 0.078125q0.28125 0.0625 0.484375 0.21875q0.21875 0.15625 0.359375 0.390625q0.140625 0.234375 0.25 0.546875l4.390625 10.984371l0.0625 0l4.578125 -10.953121q0.125 -0.34375 0.265625 -0.59375q0.15625 -0.25 0.34375 -0.390625q0.1875 -0.140625 0.40625 -0.203125q0.21875 -0.078125 0.515625 -0.078125l1.28125 0q0.171875 0 0.328125 0.0625q0.15625 0.046875 0.265625 0.15625q0.109375 0.109375 0.171875 0.28125q0.078125 0.171875 0.078125 0.421875l0 13.937496zm13.628906 -5.375q0 1.296875 -0.34375 2.375q-0.34375 1.078125 -1.015625 1.875q-0.671875 0.78125 -1.6875 1.21875q-1.015625 0.4375 -2.34375 0.4375q-1.3125 0 -2.28125 -0.375q-0.953125 -0.390625 -1.609375 -1.125q-0.640625 -0.75 -0.953125 -1.796875q-0.3125 -1.0625 -0.3125 -2.390625q0 -1.296875 0.328125 -2.375q0.328125 -1.09375 1.0 -1.875q0.6875 -0.78125 1.6875 -1.21875q1.015625 -0.4375 2.359375 -0.4375q1.296875 0 2.265625 0.390625q0.96875 0.390625 1.609375 1.125q0.640625 0.734375 0.96875 1.796875q0.328125 1.046875 0.328125 2.375zm-2.046875 0.125q0 -0.84375 -0.15625 -1.609375q-0.15625 -0.765625 -0.53125 -1.328125q-0.359375 -0.578125 -0.984375 -0.90625q-0.609375 -0.34375 -1.53125 -0.34375q-0.859375 0 -1.484375 0.3125q-0.609375 0.296875 -1.015625 0.859375q-0.390625 0.546875 -0.59375 1.3125q-0.1875 0.765625 -0.1875 1.65625q0 0.875 0.15625 1.640625q0.171875 0.75 0.53125 1.328125q0.375 0.5625 0.984375 0.90625q0.625 0.328125 1.5625 0.328125q0.84375 0 1.453125 -0.296875q0.625 -0.3125 1.015625 -0.859375q0.40625 -0.5625 0.59375 -1.3125q0.1875 -0.765625 0.1875 -1.6875zm13.921875 5.265625q0 0.09375 -0.046875 0.171875q-0.03125 0.0625 -0.140625 0.109375q-0.09375 0.046875 -0.265625 0.0625q-0.15625 0.03125 -0.390625 0.03125q-0.25 0 -0.421875 -0.03125q-0.15625 -0.015625 -0.265625 -0.0625q-0.09375 -0.046875 -0.140625 -0.109375q-0.046875 -0.078125 -0.046875 -0.171875l0 -1.390625q-0.828125 0.90625 -1.734375 1.40625q-0.890625 0.5 -1.953125 0.5q-1.171875 0 -2.0 -0.453125q-0.8125 -0.453125 -1.328125 -1.21875q-0.5 -0.765625 -0.734375 -1.796875q-0.234375 -1.046875 -0.234375 -2.1875q0 -1.359375 0.296875 -2.453125q0.296875 -1.09375 0.859375 -1.859375q0.578125 -0.78125 1.421875 -1.203125q0.859375 -0.421875 1.96875 -0.421875q0.921875 0 1.6875 0.40625q0.78125 0.40625 1.53125 1.1875l0 -6.124996q0 -0.078125 0.03125 -0.15625q0.046875 -0.078125 0.15625 -0.109375q0.125 -0.046875 0.296875 -0.078125q0.1875 -0.03125 0.46875 -0.03125q0.296875 0 0.484375 0.03125q0.1875 0.03125 0.28125 0.078125q0.109375 0.03125 0.15625 0.109375q0.0625 0.078125 0.0625 0.15625l0 15.609371zm-1.9375 -7.421875q-0.796875 -0.96875 -1.53125 -1.46875q-0.71875 -0.515625 -1.515625 -0.515625q-0.75 0 -1.265625 0.359375q-0.515625 0.34375 -0.84375 0.921875q-0.3125 0.5625 -0.46875 1.296875q-0.140625 0.71875 -0.140625 1.46875q0 0.796875 0.125 1.5625q0.125 0.765625 0.421875 1.359375q0.3125 0.59375 0.8125 0.953125q0.515625 0.34375 1.265625 0.34375q0.390625 0 0.75 -0.09375q0.359375 -0.109375 0.734375 -0.359375q0.375 -0.25 0.78125 -0.640625q0.40625 -0.390625 0.875 -0.96875l0 -4.21875zm14.546875 7.421875q0 0.09375 -0.046875 0.15625q-0.03125 0.0625 -0.140625 0.125q-0.109375 0.046875 -0.28125 0.0625q-0.15625 0.03125 -0.40625 0.03125q-0.265625 0 -0.4375 -0.03125q-0.171875 -0.015625 -0.28125 -0.0625q-0.09375 -0.0625 -0.125 -0.125q-0.03125 -0.0625 -0.03125 -0.15625l0 -1.390625q-0.90625 1.0 -1.796875 1.453125q-0.875 0.453125 -1.765625 0.453125q-1.0625 0 -1.78125 -0.34375q-0.71875 -0.359375 -1.171875 -0.953125q-0.4375 -0.609375 -0.640625 -1.40625q-0.1875 -0.8125 -0.1875 -1.953125l0 -6.40625q0 -0.09375 0.03125 -0.15625q0.046875 -0.0625 0.15625 -0.109375q0.125 -0.0625 0.3125 -0.078125q0.1875 -0.015625 0.46875 -0.015625q0.28125 0 0.46875 0.015625q0.1875 0.015625 0.296875 0.078125q0.125 0.046875 0.171875 0.109375q0.046875 0.0625 0.046875 0.15625l0 6.140625q0 0.921875 0.125 1.484375q0.140625 0.5625 0.40625 0.953125q0.28125 0.390625 0.703125 0.609375q0.421875 0.21875 0.984375 0.21875q0.734375 0 1.453125 -0.515625q0.71875 -0.515625 1.53125 -1.515625l0 -7.375q0 -0.09375 0.03125 -0.15625q0.046875 -0.0625 0.15625 -0.109375q0.125 -0.0625 0.296875 -0.078125q0.1875 -0.015625 0.484375 -0.015625q0.28125 0 0.46875 0.015625q0.1875 0.015625 0.28125 0.078125q0.109375 0.046875 0.15625 0.109375q0.0625 0.0625 0.0625 0.15625l0 10.546875zm5.515625 0q0 0.09375 -0.046875 0.15625q-0.046875 0.0625 -0.15625 0.125q-0.109375 0.046875 -0.296875 0.0625q-0.1875 0.03125 -0.484375 0.03125q-0.28125 0 -0.46875 -0.03125q-0.1875 -0.015625 -0.296875 -0.0625q-0.109375 -0.0625 -0.15625 -0.125q-0.03125 -0.0625 -0.03125 -0.15625l0 -15.656246q0 -0.09375 0.03125 -0.15625q0.046875 -0.078125 0.15625 -0.125q0.109375 -0.046875 0.296875 -0.0625q0.1875 -0.03125 0.46875 -0.03125q0.296875 0 0.484375 0.03125q0.1875 0.015625 0.296875 0.0625q0.109375 0.046875 0.15625 0.125q0.046875 0.0625 0.046875 0.15625l0 15.656246zm12.5703125 -5.734375q0 0.46875 -0.234375 0.65625q-0.21875 0.1875 -0.515625 0.1875l-6.921875 0q0 0.890625 0.171875 1.59375q0.1875 0.703125 0.59375 1.203125q0.40625 0.5 1.0625 0.78125q0.65625 0.265625 1.609375 0.265625q0.75 0 1.328125 -0.125q0.59375 -0.125 1.015625 -0.28125q0.4375 -0.15625 0.703125 -0.265625q0.28125 -0.125 0.421875 -0.125q0.078125 0 0.140625 0.046875q0.078125 0.03125 0.109375 0.109375q0.03125 0.078125 0.046875 0.234375q0.015625 0.140625 0.015625 0.359375q0 0.140625 -0.015625 0.265625q0 0.109375 -0.015625 0.203125q-0.015625 0.078125 -0.0625 0.15625q-0.046875 0.0625 -0.109375 0.125q-0.0625 0.0625 -0.375 0.21875q-0.3125 0.140625 -0.828125 0.28125q-0.5 0.140625 -1.171875 0.25q-0.65625 0.109375 -1.40625 0.109375q-1.296875 0 -2.28125 -0.359375q-0.96875 -0.359375 -1.640625 -1.078125q-0.671875 -0.71875 -1.015625 -1.796875q-0.328125 -1.078125 -0.328125 -2.5q0 -1.359375 0.34375 -2.4375q0.359375 -1.09375 1.015625 -1.84375q0.671875 -0.765625 1.609375 -1.171875q0.9375 -0.40625 2.09375 -0.40625q1.234375 0 2.109375 0.40625q0.875 0.390625 1.4375 1.078125q0.5625 0.671875 0.828125 1.578125q0.265625 0.90625 0.265625 1.9375l0 0.34375zm-1.953125 -0.5625q0.046875 -1.53125 -0.671875 -2.390625q-0.703125 -0.875 -2.09375 -0.875q-0.71875 0 -1.265625 0.28125q-0.53125 0.265625 -0.90625 0.71875q-0.359375 0.4375 -0.5625 1.03125q-0.1875 0.578125 -0.21875 1.234375l5.71875 0z" fill-rule="nonzero"></path><path fill="#005eb8" d="m323.81628 67.784775l0 0c0 -9.149662 7.417267 -16.566929 16.566925 -16.566929l0 0c4.3938293 0 8.607666 1.7454414 11.714569 4.8523445c3.106903 3.1068993 4.852356 7.3207626 4.852356 11.714584l0 0c0 9.149666 -7.417267 16.566933 -16.566925 16.566933l0 0c-9.149658 0 -16.566925 -7.417267 -16.566925 -16.566933z" fill-rule="nonzero"></path><path stroke="#434343" stroke-width="2.0" stroke-linejoin="round" stroke-linecap="butt" d="m323.81628 67.784775l0 0c0 -9.149662 7.417267 -16.566929 16.566925 -16.566929l0 0c4.3938293 0 8.607666 1.7454414 11.714569 4.8523445c3.106903 3.1068993 4.852356 7.3207626 4.852356 11.714584l0 0c0 9.149666 -7.417267 16.566933 -16.566925 16.566933l0 0c-9.149658 0 -16.566925 -7.417267 -16.566925 -16.566933z" fill-rule="nonzero"></path><path fill="#000000" fill-opacity="0.0" d="m323.81628 114.70749l0 0c0 -2.5483856 2.065857 -4.6142654 4.614258 -4.6142654l23.905334 0c1.2237549 0 2.3974304 0.48614502 3.2627563 1.3514862c0.86535645 0.8653412 1.3515015 2.0390015 1.3515015 3.2627792l0 18.456512c0 2.5483856 -2.0658875 4.614258 -4.614258 4.614258l-23.905334 0c-2.5484009 0 -4.614258 -2.0658722 -4.614258 -4.614258z" fill-rule="nonzero"></path><path stroke="#434343" stroke-width="2.0" stroke-linejoin="round" stroke-linecap="butt" d="m323.81628 114.70749l0 0c0 -2.5483856 2.065857 -4.6142654 4.614258 -4.6142654l23.905334 0c1.2237549 0 2.3974304 0.48614502 3.2627563 1.3514862c0.86535645 0.8653412 1.3515015 2.0390015 1.3515015 3.2627792l0 18.456512c0 2.5483856 -2.0658875 4.614258 -4.614258 4.614258l-23.905334 0c-2.5484009 0 -4.614258 -2.0658722 -4.614258 -4.614258z" fill-rule="nonzero"></path><path fill="#000000" fill-opacity="0.0" d="m364.95013 99.68378l158.99213 0l0 48.503937l-158.99213 0z" fill-rule="nonzero"></path><path fill="#434343" d="m386.09076 130.33511q0 0.1875 -0.015625 0.328125q0 0.140625 -0.03125 0.25q-0.03125 0.09375 -0.078125 0.1875q-0.046875 0.078125 -0.171875 0.203125q-0.109375 0.109375 -0.484375 0.34375q-0.375 0.234375 -0.9375 0.46875q-0.546875 0.234375 -1.28125 0.390625q-0.71875 0.15625 -1.5625 0.15625q-1.484375 0 -2.671875 -0.484375q-1.1875 -0.5 -2.03125 -1.453125q-0.828125 -0.96875 -1.28125 -2.375q-0.453125 -1.4218674 -0.453125 -3.2656174q0 -1.875 0.484375 -3.34375q0.484375 -1.484375 1.359375 -2.515625q0.890625 -1.03125 2.109375 -1.5625q1.21875 -0.546875 2.71875 -0.546875q0.65625 0 1.265625 0.125q0.625 0.125 1.15625 0.3125q0.53125 0.1875 0.9375 0.4375q0.40625 0.25 0.5625 0.40625q0.15625 0.15625 0.203125 0.234375q0.046875 0.078125 0.078125 0.203125q0.03125 0.109375 0.046875 0.265625q0.015625 0.140625 0.015625 0.359375q0 0.234375 -0.03125 0.40625q-0.015625 0.15625 -0.0625 0.265625q-0.046875 0.109375 -0.109375 0.171875q-0.0625 0.046875 -0.15625 0.046875q-0.15625 0 -0.453125 -0.234375q-0.296875 -0.234375 -0.765625 -0.5q-0.453125 -0.28125 -1.125 -0.5q-0.65625 -0.234375 -1.578125 -0.234375q-1.015625 0 -1.84375 0.40625q-0.8125 0.40625 -1.40625 1.1875q-0.578125 0.78125 -0.90625 1.921875q-0.328125 1.125 -0.328125 2.578125q0 1.4375 0.3125 2.546875q0.3125 1.1093674 0.890625 1.8593674q0.578125 0.734375 1.421875 1.125q0.84375 0.375 1.921875 0.375q0.890625 0 1.5625 -0.21875q0.6875 -0.234375 1.15625 -0.5q0.46875 -0.28125 0.765625 -0.5q0.3125 -0.21875 0.5 -0.21875q0.078125 0 0.125 0.03125q0.0625 0.03125 0.09375 0.140625q0.046875 0.09375 0.0625 0.265625q0.015625 0.171875 0.015625 0.453125zm12.265625 -3.5468674q0 1.2968674 -0.34375 2.3749924q-0.34375 1.078125 -1.015625 1.875q-0.671875 0.78125 -1.6875 1.21875q-1.015625 0.4375 -2.34375 0.4375q-1.3125 0 -2.28125 -0.375q-0.953125 -0.390625 -1.609375 -1.125q-0.640625 -0.75 -0.953125 -1.796875q-0.3125 -1.0625 -0.3125 -2.3906174q0 -1.296875 0.328125 -2.375q0.328125 -1.09375 1.0 -1.875q0.6875 -0.78125 1.6875 -1.21875q1.015625 -0.4375 2.359375 -0.4375q1.296875 0 2.265625 0.390625q0.96875 0.390625 1.609375 1.125q0.640625 0.734375 0.96875 1.796875q0.328125 1.046875 0.328125 2.375zm-2.046875 0.125q0 -0.84375 -0.15625 -1.609375q-0.15625 -0.765625 -0.53125 -1.328125q-0.359375 -0.578125 -0.984375 -0.90625q-0.609375 -0.34375 -1.53125 -0.34375q-0.859375 0 -1.484375 0.3125q-0.609375 0.296875 -1.015625 0.859375q-0.390625 0.546875 -0.59375 1.3125q-0.1875 0.765625 -0.1875 1.65625q0 0.875 0.15625 1.6406174q0.171875 0.75 0.53125 1.328125q0.375 0.5625 0.984375 0.90625q0.625 0.328125 1.5625 0.328125q0.84375 0 1.453125 -0.296875q0.625 -0.3125 1.015625 -0.859375q0.40625 -0.5625 0.59375 -1.3125q0.1875 -0.7656174 0.1875 -1.6874924zm20.53125 5.2656174q0 0.09375 -0.046875 0.15625q-0.046875 0.0625 -0.15625 0.125q-0.09375 0.046875 -0.28125 0.0625q-0.1875 0.03125 -0.46875 0.03125q-0.296875 0 -0.484375 -0.03125q-0.1875 -0.015625 -0.296875 -0.0625q-0.109375 -0.0625 -0.15625 -0.125q-0.046875 -0.0625 -0.046875 -0.15625l0 -6.4062424q0 -0.671875 -0.125 -1.21875q-0.109375 -0.546875 -0.375 -0.9375q-0.25 -0.40625 -0.65625 -0.609375q-0.390625 -0.21875 -0.9375 -0.21875q-0.671875 0 -1.34375 0.515625q-0.671875 0.515625 -1.484375 1.5l0 7.3749924q0 0.09375 -0.046875 0.15625q-0.046875 0.0625 -0.15625 0.125q-0.109375 0.046875 -0.296875 0.0625q-0.1875 0.03125 -0.46875 0.03125q-0.265625 0 -0.46875 -0.03125q-0.1875 -0.015625 -0.296875 -0.0625q-0.109375 -0.0625 -0.15625 -0.125q-0.03125 -0.0625 -0.03125 -0.15625l0 -6.4062424q0 -0.671875 -0.140625 -1.21875q-0.125 -0.546875 -0.390625 -0.9375q-0.25 -0.40625 -0.640625 -0.609375q-0.390625 -0.21875 -0.9375 -0.21875q-0.65625 0 -1.34375 0.515625q-0.671875 0.515625 -1.46875 1.5l0 7.3749924q0 0.09375 -0.046875 0.15625q-0.046875 0.0625 -0.15625 0.125q-0.109375 0.046875 -0.296875 0.0625q-0.1875 0.03125 -0.484375 0.03125q-0.28125 0 -0.46875 -0.03125q-0.1875 -0.015625 -0.296875 -0.0625q-0.109375 -0.0625 -0.15625 -0.125q-0.03125 -0.0625 -0.03125 -0.15625l0 -10.546867q0 -0.09375 0.03125 -0.15625q0.03125 -0.0625 0.140625 -0.109375q0.109375 -0.0625 0.265625 -0.078125q0.171875 -0.015625 0.4375 -0.015625q0.265625 0 0.421875 0.015625q0.171875 0.015625 0.265625 0.078125q0.09375 0.046875 0.140625 0.109375q0.046875 0.0625 0.046875 0.15625l0 1.390625q0.890625 -0.984375 1.71875 -1.453125q0.84375 -0.46875 1.703125 -0.46875q0.65625 0 1.171875 0.15625q0.515625 0.15625 0.90625 0.4375q0.40625 0.265625 0.6875 0.65625q0.28125 0.375 0.46875 0.84375q0.53125 -0.578125 1.0 -0.96875q0.484375 -0.40625 0.921875 -0.640625q0.4375 -0.25 0.84375 -0.359375q0.421875 -0.125 0.84375 -0.125q1.03125 0 1.71875 0.359375q0.6875 0.359375 1.109375 0.96875q0.4375 0.59375 0.609375 1.390625q0.1875 0.796875 0.1875 1.6875l0 6.6718674zm13.234375 -5.4374924q0 1.3906174 -0.296875 2.4999924q-0.296875 1.09375 -0.890625 1.859375q-0.578125 0.765625 -1.4375 1.1875q-0.84375 0.40625 -1.953125 0.40625q-0.46875 0 -0.875 -0.09375q-0.390625 -0.09375 -0.765625 -0.28125q-0.375 -0.203125 -0.75 -0.5q-0.375 -0.3125 -0.796875 -0.734375l0 5.28125q0 0.09375 -0.046875 0.15625q-0.046875 0.078125 -0.15625 0.125q-0.109375 0.046875 -0.296875 0.0625q-0.1875 0.03125 -0.484375 0.03125q-0.28125 0 -0.46875 -0.03125q-0.1875 -0.015625 -0.296875 -0.0625q-0.109375 -0.046875 -0.15625 -0.125q-0.03125 -0.0625 -0.03125 -0.15625l0 -14.734367q0 -0.109375 0.03125 -0.171875q0.03125 -0.0625 0.140625 -0.109375q0.109375 -0.046875 0.265625 -0.0625q0.171875 -0.015625 0.40625 -0.015625q0.25 0 0.40625 0.015625q0.15625 0.015625 0.25 0.0625q0.109375 0.046875 0.15625 0.109375q0.046875 0.0625 0.046875 0.171875l0 1.421875q0.46875 -0.5 0.90625 -0.859375q0.453125 -0.359375 0.90625 -0.59375q0.453125 -0.25 0.921875 -0.375q0.484375 -0.125 1.015625 -0.125q1.140625 0 1.953125 0.453125q0.8125 0.4375 1.3125 1.21875q0.515625 0.765625 0.75 1.796875q0.234375 1.03125 0.234375 2.171875zm-2.046875 0.21875q0 -0.796875 -0.125 -1.546875q-0.109375 -0.765625 -0.421875 -1.34375q-0.296875 -0.59375 -0.796875 -0.9375q-0.5 -0.359375 -1.25 -0.359375q-0.375 0 -0.75 0.109375q-0.359375 0.109375 -0.734375 0.359375q-0.375 0.234375 -0.78125 0.625q-0.40625 0.390625 -0.859375 0.96875l0 4.1874924q0.796875 0.984375 1.5 1.5q0.71875 0.515625 1.5 0.515625q0.734375 0 1.25 -0.34375q0.53125 -0.359375 0.84375 -0.9375q0.328125 -0.59375 0.46875 -1.3125q0.15625 -0.7343674 0.15625 -1.4843674zm14.765625 -0.171875q0 1.2968674 -0.34375 2.3749924q-0.34375 1.078125 -1.015625 1.875q-0.671875 0.78125 -1.6875 1.21875q-1.015625 0.4375 -2.34375 0.4375q-1.3125 0 -2.28125 -0.375q-0.953125 -0.390625 -1.609375 -1.125q-0.640625 -0.75 -0.953125 -1.796875q-0.3125 -1.0625 -0.3125 -2.3906174q0 -1.296875 0.328125 -2.375q0.328125 -1.09375 1.0 -1.875q0.6875 -0.78125 1.6875 -1.21875q1.015625 -0.4375 2.359375 -0.4375q1.296875 0 2.265625 0.390625q0.96875 0.390625 1.609375 1.125q0.640625 0.734375 0.96875 1.796875q0.328125 1.046875 0.328125 2.375zm-2.046875 0.125q0 -0.84375 -0.15625 -1.609375q-0.15625 -0.765625 -0.53125 -1.328125q-0.359375 -0.578125 -0.984375 -0.90625q-0.609375 -0.34375 -1.53125 -0.34375q-0.859375 0 -1.484375 0.3125q-0.609375 0.296875 -1.015625 0.859375q-0.390625 0.546875 -0.59375 1.3125q-0.1875 0.765625 -0.1875 1.65625q0 0.875 0.15625 1.6406174q0.171875 0.75 0.53125 1.328125q0.375 0.5625 0.984375 0.90625q0.625 0.328125 1.5625 0.328125q0.84375 0 1.453125 -0.296875q0.625 -0.3125 1.015625 -0.859375q0.40625 -0.5625 0.59375 -1.3125q0.1875 -0.7656174 0.1875 -1.6874924zm13.96875 5.2656174q0 0.09375 -0.046875 0.15625q-0.046875 0.0625 -0.15625 0.125q-0.09375 0.046875 -0.28125 0.0625q-0.1875 0.03125 -0.46875 0.03125q-0.296875 0 -0.484375 -0.03125q-0.1875 -0.015625 -0.296875 -0.0625q-0.109375 -0.0625 -0.15625 -0.125q-0.046875 -0.0625 -0.046875 -0.15625l0 -6.1718674q0 -0.90625 -0.140625 -1.453125q-0.140625 -0.546875 -0.40625 -0.9375q-0.265625 -0.40625 -0.703125 -0.609375q-0.421875 -0.21875 -0.984375 -0.21875q-0.71875 0 -1.453125 0.515625q-0.71875 0.515625 -1.515625 1.5l0 7.3749924q0 0.09375 -0.046875 0.15625q-0.046875 0.0625 -0.15625 0.125q-0.109375 0.046875 -0.296875 0.0625q-0.1875 0.03125 -0.484375 0.03125q-0.28125 0 -0.46875 -0.03125q-0.1875 -0.015625 -0.296875 -0.0625q-0.109375 -0.0625 -0.15625 -0.125q-0.03125 -0.0625 -0.03125 -0.15625l0 -10.546867q0 -0.09375 0.03125 -0.15625q0.03125 -0.0625 0.140625 -0.109375q0.109375 -0.0625 0.265625 -0.078125q0.171875 -0.015625 0.4375 -0.015625q0.265625 0 0.421875 0.015625q0.171875 0.015625 0.265625 0.078125q0.09375 0.046875 0.140625 0.109375q0.046875 0.0625 0.046875 0.15625l0 1.390625q0.890625 -0.984375 1.765625 -1.453125q0.890625 -0.46875 1.796875 -0.46875q1.046875 0 1.765625 0.359375q0.71875 0.359375 1.15625 0.96875q0.453125 0.59375 0.640625 1.390625q0.203125 0.796875 0.203125 1.921875l0 6.4374924zm12.53125 -5.7343674q0 0.46875 -0.234375 0.65625q-0.21875 0.1875 -0.515625 0.1875l-6.921875 0q0 0.8906174 0.171875 1.5937424q0.1875 0.703125 0.59375 1.203125q0.40625 0.5 1.0625 0.78125q0.65625 0.265625 1.609375 0.265625q0.75 0 1.328125 -0.125q0.59375 -0.125 1.015625 -0.28125q0.4375 -0.15625 0.703125 -0.265625q0.28125 -0.125 0.421875 -0.125q0.078125 0 0.140625 0.046875q0.078125 0.03125 0.109375 0.109375q0.03125 0.078125 0.046875 0.234375q0.015625 0.140625 0.015625 0.359375q0 0.140625 -0.015625 0.265625q0 0.109375 -0.015625 0.203125q-0.015625 0.078125 -0.0625 0.15625q-0.046875 0.0625 -0.109375 0.125q-0.0625 0.0625 -0.375 0.21875q-0.3125 0.140625 -0.828125 0.28125q-0.5 0.140625 -1.171875 0.25q-0.65625 0.109375 -1.40625 0.109375q-1.296875 0 -2.28125 -0.359375q-0.96875 -0.359375 -1.640625 -1.078125q-0.671875 -0.71875 -1.015625 -1.796875q-0.328125 -1.078125 -0.328125 -2.4999924q0 -1.359375 0.34375 -2.4375q0.359375 -1.09375 1.015625 -1.84375q0.671875 -0.765625 1.609375 -1.171875q0.9375 -0.40625 2.09375 -0.40625q1.234375 0 2.109375 0.40625q0.875 0.390625 1.4375 1.078125q0.5625 0.671875 0.828125 1.578125q0.265625 0.90625 0.265625 1.9375l0 0.34375zm-1.953125 -0.5625q0.046875 -1.53125 -0.671875 -2.390625q-0.703125 -0.875 -2.09375 -0.875q-0.71875 0 -1.265625 0.28125q-0.53125 0.265625 -0.90625 0.71875q-0.359375 0.4375 -0.5625 1.03125q-0.1875 0.578125 -0.21875 1.234375l5.71875 0zm13.972656 6.2968674q0 0.09375 -0.046875 0.15625q-0.046875 0.0625 -0.15625 0.125q-0.09375 0.046875 -0.28125 0.0625q-0.1875 0.03125 -0.46875 0.03125q-0.296875 0 -0.484375 -0.03125q-0.1875 -0.015625 -0.296875 -0.0625q-0.109375 -0.0625 -0.15625 -0.125q-0.046875 -0.0625 -0.046875 -0.15625l0 -6.1718674q0 -0.90625 -0.140625 -1.453125q-0.140625 -0.546875 -0.40625 -0.9375q-0.265625 -0.40625 -0.703125 -0.609375q-0.421875 -0.21875 -0.984375 -0.21875q-0.71875 0 -1.453125 0.515625q-0.71875 0.515625 -1.515625 1.5l0 7.3749924q0 0.09375 -0.046875 0.15625q-0.046875 0.0625 -0.15625 0.125q-0.109375 0.046875 -0.296875 0.0625q-0.1875 0.03125 -0.484375 0.03125q-0.28125 0 -0.46875 -0.03125q-0.1875 -0.015625 -0.296875 -0.0625q-0.109375 -0.0625 -0.15625 -0.125q-0.03125 -0.0625 -0.03125 -0.15625l0 -10.546867q0 -0.09375 0.03125 -0.15625q0.03125 -0.0625 0.140625 -0.109375q0.109375 -0.0625 0.265625 -0.078125q0.171875 -0.015625 0.4375 -0.015625q0.265625 0 0.421875 0.015625q0.171875 0.015625 0.265625 0.078125q0.09375 0.046875 0.140625 0.109375q0.046875 0.0625 0.046875 0.15625l0 1.390625q0.890625 -0.984375 1.765625 -1.453125q0.890625 -0.46875 1.796875 -0.46875q1.046875 0 1.765625 0.359375q0.71875 0.359375 1.15625 0.96875q0.453125 0.59375 0.640625 1.390625q0.203125 0.796875 0.203125 1.921875l0 6.4374924zm9.015625 -0.765625q0 0.328125 -0.046875 0.53125q-0.046875 0.203125 -0.140625 0.296875q-0.09375 0.09375 -0.28125 0.1875q-0.1875 0.078125 -0.4375 0.125q-0.234375 0.046875 -0.5 0.078125q-0.265625 0.046875 -0.546875 0.046875q-0.8125 0 -1.40625 -0.21875q-0.578125 -0.21875 -0.953125 -0.65625q-0.375 -0.4375 -0.546875 -1.109375q-0.171875 -0.6875 -0.171875 -1.59375l0 -6.1718674l-1.46875 0q-0.1875 0 -0.296875 -0.1875q-0.09375 -0.1875 -0.09375 -0.609375q0 -0.21875 0.03125 -0.359375q0.03125 -0.15625 0.078125 -0.25q0.046875 -0.109375 0.109375 -0.140625q0.078125 -0.046875 0.171875 -0.046875l1.46875 0l0 -2.515625q0 -0.078125 0.03125 -0.140625q0.046875 -0.078125 0.15625 -0.125q0.125 -0.0625 0.3125 -0.078125q0.1875 -0.03125 0.46875 -0.03125q0.28125 0 0.46875 0.03125q0.1875 0.015625 0.296875 0.078125q0.109375 0.046875 0.15625 0.125q0.046875 0.0625 0.046875 0.140625l0 2.515625l2.703125 0q0.09375 0 0.15625 0.046875q0.078125 0.03125 0.125 0.140625q0.0625 0.09375 0.078125 0.25q0.03125 0.140625 0.03125 0.359375q0 0.421875 -0.109375 0.609375q-0.109375 0.1875 -0.28125 0.1875l-2.703125 0l0 5.8906174q0 1.09375 0.3125 1.65625q0.328125 0.546875 1.15625 0.546875q0.28125 0 0.484375 -0.046875q0.21875 -0.0625 0.375 -0.109375q0.171875 -0.0625 0.28125 -0.109375q0.125 -0.0625 0.21875 -0.0625q0.046875 0 0.09375 0.03125q0.0625 0.03125 0.09375 0.109375q0.03125 0.078125 0.046875 0.21875q0.03125 0.140625 0.03125 0.359375z" fill-rule="nonzero"></path><path fill="#000000" fill-opacity="0.0" d="m85.88976 185.90027l177.73227 0l0 35.590546l-177.73227 0z" fill-rule="nonzero"></path><path fill="#434343" d="m102.31164 198.11554q0 0.15625 -0.015625 0.28125q0 0.109375 -0.03125 0.1875q-0.015625 0.078125 -0.046875 0.140625q-0.03125 0.0625 -0.15625 0.171875q-0.109375 0.109375 -0.390625 0.28125q-0.28125 0.171875 -0.625 0.3125q-0.34375 0.140625 -0.765625 0.21875q-0.40625 0.078125 -0.828125 0.078125q-0.90625 0 -1.609375 -0.296875q-0.6875 -0.296875 -1.15625 -0.859375q-0.46875 -0.578125 -0.71875 -1.40625q-0.25 -0.828125 -0.25 -1.921875q0 -1.21875 0.296875 -2.109375q0.3125 -0.890625 0.828125 -1.453125q0.53125 -0.5625 1.234375 -0.828125q0.71875 -0.28125 1.546875 -0.28125q0.390625 0 0.765625 0.078125q0.375 0.0625 0.6875 0.1875q0.328125 0.125 0.5625 0.28125q0.25 0.15625 0.359375 0.265625q0.125 0.109375 0.15625 0.171875q0.046875 0.0625 0.0625 0.15625q0.03125 0.09375 0.046875 0.203125q0.015625 0.109375 0.015625 0.28125q0 0.359375 -0.09375 0.5q-0.078125 0.140625 -0.203125 0.140625q-0.140625 0 -0.328125 -0.140625q-0.171875 -0.15625 -0.453125 -0.34375q-0.265625 -0.1875 -0.671875 -0.34375q-0.390625 -0.15625 -0.921875 -0.15625q-1.109375 0 -1.703125 0.859375q-0.578125 0.84375 -0.578125 2.453125q0 0.8125 0.140625 1.421875q0.15625 0.609375 0.453125 1.015625q0.296875 0.40625 0.71875 0.609375q0.4375 0.1875 1.0 0.1875q0.53125 0 0.921875 -0.15625q0.40625 -0.171875 0.6875 -0.375q0.296875 -0.203125 0.5 -0.359375q0.203125 -0.15625 0.3125 -0.15625q0.0625 0 0.109375 0.03125q0.046875 0.03125 0.078125 0.125q0.03125 0.09375 0.046875 0.234375q0.015625 0.125 0.015625 0.3125zm9.654449 -3.0q0 1.015625 -0.28125 1.875q-0.265625 0.859375 -0.796875 1.484375q-0.53125 0.625 -1.34375 0.96875q-0.796875 0.34375 -1.84375 0.34375q-1.03125 0 -1.796875 -0.296875q-0.765625 -0.3125 -1.28125 -0.890625q-0.5 -0.59375 -0.765625 -1.421875q-0.25 -0.84375 -0.25 -1.890625q0 -1.03125 0.265625 -1.875q0.265625 -0.859375 0.796875 -1.484375q0.546875 -0.625 1.34375 -0.96875q0.796875 -0.34375 1.859375 -0.34375q1.03125 0 1.796875 0.3125q0.765625 0.296875 1.265625 0.890625q0.515625 0.578125 0.765625 1.421875q0.265625 0.828125 0.265625 1.875zm-1.609375 0.109375q0 -0.6875 -0.140625 -1.28125q-0.125 -0.609375 -0.40625 -1.0625q-0.28125 -0.453125 -0.78125 -0.71875q-0.484375 -0.265625 -1.21875 -0.265625q-0.6875 0 -1.171875 0.25q-0.484375 0.234375 -0.796875 0.671875q-0.3125 0.4375 -0.46875 1.046875q-0.15625 0.59375 -0.15625 1.3125q0 0.6875 0.125 1.296875q0.125 0.59375 0.421875 1.046875q0.296875 0.453125 0.78125 0.71875q0.5 0.265625 1.21875 0.265625q0.671875 0 1.15625 -0.234375q0.5 -0.25 0.8125 -0.6875q0.328125 -0.4375 0.46875 -1.03125q0.15625 -0.609375 0.15625 -1.328125zm10.869507 4.15625q0 0.078125 -0.046875 0.125q-0.03125 0.046875 -0.109375 0.09375q-0.078125 0.03125 -0.234375 0.046875q-0.140625 0.03125 -0.375 0.03125q-0.234375 0 -0.390625 -0.03125q-0.140625 -0.015625 -0.21875 -0.046875q-0.078125 -0.046875 -0.125 -0.09375q-0.03125 -0.046875 -0.03125 -0.125l0 -4.890625q0 -0.703125 -0.109375 -1.140625q-0.109375 -0.4375 -0.328125 -0.75q-0.21875 -0.328125 -0.5625 -0.484375q-0.328125 -0.171875 -0.765625 -0.171875q-0.578125 0 -1.15625 0.40625q-0.578125 0.40625 -1.203125 1.203125l0 5.828125q0 0.078125 -0.046875 0.125q-0.03125 0.046875 -0.125 0.09375q-0.078125 0.03125 -0.234375 0.046875q-0.140625 0.03125 -0.359375 0.03125q-0.234375 0 -0.390625 -0.03125q-0.140625 -0.015625 -0.234375 -0.046875q-0.078125 -0.046875 -0.109375 -0.09375q-0.03125 -0.046875 -0.03125 -0.125l0 -8.34375q0 -0.078125 0.015625 -0.125q0.03125 -0.0625 0.109375 -0.09375q0.09375 -0.046875 0.21875 -0.0625q0.140625 -0.015625 0.34375 -0.015625q0.203125 0 0.34375 0.015625q0.140625 0.015625 0.203125 0.0625q0.078125 0.03125 0.109375 0.09375q0.03125 0.046875 0.03125 0.125l0 1.09375q0.703125 -0.78125 1.40625 -1.140625q0.703125 -0.375 1.421875 -0.375q0.828125 0 1.390625 0.28125q0.578125 0.28125 0.921875 0.765625q0.359375 0.46875 0.515625 1.109375q0.15625 0.625 0.15625 1.515625l0 5.09375zm6.9580765 -0.609375q0 0.265625 -0.046875 0.421875q-0.03125 0.15625 -0.109375 0.234375q-0.07813263 0.078125 -0.23438263 0.140625q-0.140625 0.0625 -0.328125 0.109375q-0.1875 0.046875 -0.40625 0.0625q-0.203125 0.03125 -0.421875 0.03125q-0.640625 0 -1.109375 -0.171875q-0.46875 -0.171875 -0.765625 -0.515625q-0.296875 -0.34375 -0.4375 -0.875q-0.125 -0.546875 -0.125 -1.265625l0 -4.875l-1.171875 0q-0.140625 0 -0.21875 -0.140625q-0.078125 -0.15625 -0.078125 -0.5q0 -0.171875 0.015625 -0.28125q0.03125 -0.125 0.0625 -0.203125q0.03125 -0.09375 0.09375 -0.125q0.0625 -0.03125 0.140625 -0.03125l1.15625 0l0 -1.984375q0 -0.0625 0.03125 -0.109375q0.03125 -0.0625 0.109375 -0.09375q0.09375 -0.046875 0.234375 -0.0625q0.15625 -0.03125 0.390625 -0.03125q0.234375 0 0.375 0.03125q0.15625 0.015625 0.234375 0.0625q0.078125 0.03125 0.109375 0.09375q0.046875 0.046875 0.046875 0.109375l0 1.984375l2.140625 0q0.078125 0 0.125 0.03125q0.06250763 0.03125 0.09375763 0.125q0.046875 0.078125 0.0625 0.203125q0.03125 0.109375 0.03125 0.28125q0 0.34375 -0.09375 0.5q-0.078125 0.140625 -0.21875763 0.140625l-2.140625 0l0 4.65625q0 0.859375 0.25 1.296875q0.265625 0.4375 0.921875 0.4375q0.203125 0 0.375 -0.03125q0.171875 -0.046875 0.296875 -0.09375q0.125 -0.046875 0.21875 -0.078125q0.09375 -0.046875 0.171875 -0.046875q0.04688263 0 0.07813263 0.03125q0.046875 0.015625 0.0625 0.078125q0.03125 0.0625 0.046875 0.171875q0.03125 0.109375 0.03125 0.28125zm8.186615 0.625q0 0.109375 -0.078125 0.171875q-0.0625 0.046875 -0.203125 0.078125q-0.125 0.03125 -0.375 0.03125q-0.234375 0 -0.390625 -0.03125q-0.140625 -0.03125 -0.203125 -0.078125q-0.0625 -0.0625 -0.0625 -0.171875l0 -0.84375q-0.546875 0.59375 -1.21875 0.921875q-0.671875 0.3125 -1.421875 0.3125q-0.65625 0 -1.203125 -0.171875q-0.53125 -0.171875 -0.90625 -0.484375q-0.375 -0.328125 -0.578125 -0.796875q-0.203125 -0.484375 -0.203125 -1.078125q0 -0.71875 0.28125 -1.234375q0.28125 -0.515625 0.8125 -0.859375q0.546875 -0.34375 1.328125 -0.515625q0.78125 -0.171875 1.75 -0.171875l1.15625 0l0 -0.65625q0 -0.46875 -0.109375 -0.84375q-0.09375 -0.375 -0.328125 -0.609375q-0.21875 -0.25 -0.578125 -0.375q-0.359375 -0.125 -0.890625 -0.125q-0.5625 0 -1.015625 0.140625q-0.453125 0.125 -0.796875 0.296875q-0.328125 0.15625 -0.5625 0.296875q-0.234375 0.125 -0.34375 0.125q-0.0625 0 -0.125 -0.03125q-0.0625 -0.046875 -0.109375 -0.109375q-0.03125 -0.078125 -0.046875 -0.1875q-0.015625 -0.125 -0.015625 -0.265625q0 -0.234375 0.03125 -0.359375q0.03125 -0.140625 0.15625 -0.265625q0.125 -0.125 0.421875 -0.28125q0.3125 -0.15625 0.703125 -0.296875q0.40625 -0.140625 0.875 -0.21875q0.484375 -0.09375 0.96875 -0.09375q0.890625 0 1.515625 0.203125q0.640625 0.203125 1.03125 0.609375q0.390625 0.390625 0.5625 0.96875q0.171875 0.578125 0.171875 1.359375l0 5.640625zm-1.515625 -3.8125l-1.3125 0q-0.625 0 -1.09375 0.109375q-0.453125 0.09375 -0.765625 0.3125q-0.3125 0.203125 -0.453125 0.5q-0.140625 0.28125 -0.140625 0.671875q0 0.640625 0.40625 1.03125q0.421875 0.390625 1.15625 0.390625q0.609375 0 1.125 -0.3125q0.515625 -0.3125 1.078125 -0.9375l0 -1.765625zm10.170792 2.53125q0 0.15625 -0.015625 0.28125q0 0.109375 -0.03125 0.1875q-0.015625 0.078125 -0.046875 0.140625q-0.03125 0.0625 -0.15625 0.171875q-0.109375 0.109375 -0.390625 0.28125q-0.28125 0.171875 -0.625 0.3125q-0.34375 0.140625 -0.765625 0.21875q-0.40625 0.078125 -0.828125 0.078125q-0.90625 0 -1.609375 -0.296875q-0.6875 -0.296875 -1.15625 -0.859375q-0.46875 -0.578125 -0.71875 -1.40625q-0.25 -0.828125 -0.25 -1.921875q0 -1.21875 0.296875 -2.109375q0.3125 -0.890625 0.828125 -1.453125q0.53125 -0.5625 1.234375 -0.828125q0.71875 -0.28125 1.546875 -0.28125q0.390625 0 0.765625 0.078125q0.375 0.0625 0.6875 0.1875q0.328125 0.125 0.5625 0.28125q0.25 0.15625 0.359375 0.265625q0.125 0.109375 0.15625 0.171875q0.046875 0.0625 0.0625 0.15625q0.03125 0.09375 0.046875 0.203125q0.015625 0.109375 0.015625 0.28125q0 0.359375 -0.09375 0.5q-0.078125 0.140625 -0.203125 0.140625q-0.140625 0 -0.328125 -0.140625q-0.171875 -0.15625 -0.453125 -0.34375q-0.265625 -0.1875 -0.671875 -0.34375q-0.390625 -0.15625 -0.921875 -0.15625q-1.109375 0 -1.703125 0.859375q-0.578125 0.84375 -0.578125 2.453125q0 0.8125 0.140625 1.421875q0.15625 0.609375 0.453125 1.015625q0.296875 0.40625 0.71875 0.609375q0.4375 0.1875 1.0 0.1875q0.53125 0 0.921875 -0.15625q0.40625 -0.171875 0.6875 -0.375q0.296875 -0.203125 0.5 -0.359375q0.203125 -0.15625 0.3125 -0.15625q0.0625 0 0.109375 0.03125q0.046875 0.03125 0.078125 0.125q0.03125 0.09375 0.046875 0.234375q0.015625 0.125 0.015625 0.3125zm6.2325745 0.65625q0 0.265625 -0.046875 0.421875q-0.03125 0.15625 -0.109375 0.234375q-0.078125 0.078125 -0.234375 0.140625q-0.140625 0.0625 -0.328125 0.109375q-0.1875 0.046875 -0.40625 0.0625q-0.203125 0.03125 -0.421875 0.03125q-0.640625 0 -1.109375 -0.171875q-0.46875 -0.171875 -0.765625 -0.515625q-0.296875 -0.34375 -0.4375 -0.875q-0.125 -0.546875 -0.125 -1.265625l0 -4.875l-1.171875 0q-0.140625 0 -0.21875 -0.140625q-0.078125 -0.15625 -0.078125 -0.5q0 -0.171875 0.015625 -0.28125q0.03125 -0.125 0.0625 -0.203125q0.03125 -0.09375 0.09375 -0.125q0.0625 -0.03125 0.140625 -0.03125l1.15625 0l0 -1.984375q0 -0.0625 0.03125 -0.109375q0.03125 -0.0625 0.109375 -0.09375q0.09375 -0.046875 0.234375 -0.0625q0.15625 -0.03125 0.390625 -0.03125q0.234375 0 0.375 0.03125q0.15625 0.015625 0.234375 0.0625q0.078125 0.03125 0.109375 0.09375q0.046875 0.046875 0.046875 0.109375l0 1.984375l2.140625 0q0.078125 0 0.125 0.03125q0.0625 0.03125 0.09375 0.125q0.046875 0.078125 0.0625 0.203125q0.03125 0.109375 0.03125 0.28125q0 0.34375 -0.09375 0.5q-0.078125 0.140625 -0.21875 0.140625l-2.140625 0l0 4.65625q0 0.859375 0.25 1.296875q0.265625 0.4375 0.921875 0.4375q0.203125 0 0.375 -0.03125q0.171875 -0.046875 0.296875 -0.09375q0.125 -0.046875 0.21875 -0.078125q0.09375 -0.046875 0.171875 -0.046875q0.046875 0 0.078125 0.03125q0.046875 0.015625 0.0625 0.078125q0.03125 0.0625 0.046875 0.171875q0.03125 0.109375 0.03125 0.28125z" fill-rule="nonzero"></path><path fill="#434343" d="m102.31164 220.11554q0 0.15625 -0.015625 0.28125q0 0.109375 -0.03125 0.1875q-0.015625 0.078125 -0.046875 0.140625q-0.03125 0.0625 -0.15625 0.171875q-0.109375 0.109375 -0.390625 0.28125q-0.28125 0.171875 -0.625 0.3125q-0.34375 0.140625 -0.765625 0.21875q-0.40625 0.078125 -0.828125 0.078125q-0.90625 0 -1.609375 -0.296875q-0.6875 -0.296875 -1.15625 -0.859375q-0.46875 -0.578125 -0.71875 -1.40625q-0.25 -0.828125 -0.25 -1.921875q0 -1.21875 0.296875 -2.109375q0.3125 -0.890625 0.828125 -1.453125q0.53125 -0.5625 1.234375 -0.828125q0.71875 -0.28125 1.546875 -0.28125q0.390625 0 0.765625 0.078125q0.375 0.0625 0.6875 0.1875q0.328125 0.125 0.5625 0.28125q0.25 0.15625 0.359375 0.265625q0.125 0.109375 0.15625 0.171875q0.046875 0.0625 0.0625 0.15625q0.03125 0.09375 0.046875 0.203125q0.015625 0.109375 0.015625 0.28125q0 0.359375 -0.09375 0.5q-0.078125 0.140625 -0.203125 0.140625q-0.140625 0 -0.328125 -0.140625q-0.171875 -0.15625 -0.453125 -0.34375q-0.265625 -0.1875 -0.671875 -0.34375q-0.390625 -0.15625 -0.921875 -0.15625q-1.109375 0 -1.703125 0.859375q-0.578125 0.84375 -0.578125 2.453125q0 0.8125 0.140625 1.421875q0.15625 0.609375 0.453125 1.015625q0.296875 0.40625 0.71875 0.609375q0.4375 0.1875 1.0 0.1875q0.53125 0 0.921875 -0.15625q0.40625 -0.171875 0.6875 -0.375q0.296875 -0.203125 0.5 -0.359375q0.203125 -0.15625 0.3125 -0.15625q0.0625 0 0.109375 0.03125q0.046875 0.03125 0.078125 0.125q0.03125 0.09375 0.046875 0.234375q0.015625 0.125 0.015625 0.3125zm9.654449 -3.0q0 1.015625 -0.28125 1.875q-0.265625 0.859375 -0.796875 1.484375q-0.53125 0.625 -1.34375 0.96875q-0.796875 0.34375 -1.84375 0.34375q-1.03125 0 -1.796875 -0.296875q-0.765625 -0.3125 -1.28125 -0.890625q-0.5 -0.59375 -0.765625 -1.421875q-0.25 -0.84375 -0.25 -1.890625q0 -1.03125 0.265625 -1.875q0.265625 -0.859375 0.796875 -1.484375q0.546875 -0.625 1.34375 -0.96875q0.796875 -0.34375 1.859375 -0.34375q1.03125 0 1.796875 0.3125q0.765625 0.296875 1.265625 0.890625q0.515625 0.578125 0.765625 1.421875q0.265625 0.828125 0.265625 1.875zm-1.609375 0.109375q0 -0.6875 -0.140625 -1.28125q-0.125 -0.609375 -0.40625 -1.0625q-0.28125 -0.453125 -0.78125 -0.71875q-0.484375 -0.265625 -1.21875 -0.265625q-0.6875 0 -1.171875 0.25q-0.484375 0.234375 -0.796875 0.671875q-0.3125 0.4375 -0.46875 1.046875q-0.15625 0.59375 -0.15625 1.3125q0 0.6875 0.125 1.296875q0.125 0.59375 0.421875 1.046875q0.296875 0.453125 0.78125 0.71875q0.5 0.265625 1.21875 0.265625q0.671875 0 1.15625 -0.234375q0.5 -0.25 0.8125 -0.6875q0.328125 -0.4375 0.46875 -1.03125q0.15625 -0.609375 0.15625 -1.328125zm10.869507 4.15625q0 0.078125 -0.046875 0.125q-0.03125 0.046875 -0.109375 0.09375q-0.078125 0.03125 -0.234375 0.046875q-0.140625 0.03125 -0.375 0.03125q-0.234375 0 -0.390625 -0.03125q-0.140625 -0.015625 -0.21875 -0.046875q-0.078125 -0.046875 -0.125 -0.09375q-0.03125 -0.046875 -0.03125 -0.125l0 -4.890625q0 -0.703125 -0.109375 -1.140625q-0.109375 -0.4375 -0.328125 -0.75q-0.21875 -0.328125 -0.5625 -0.484375q-0.328125 -0.171875 -0.765625 -0.171875q-0.578125 0 -1.15625 0.40625q-0.578125 0.40625 -1.203125 1.203125l0 5.828125q0 0.078125 -0.046875 0.125q-0.03125 0.046875 -0.125 0.09375q-0.078125 0.03125 -0.234375 0.046875q-0.140625 0.03125 -0.359375 0.03125q-0.234375 0 -0.390625 -0.03125q-0.140625 -0.015625 -0.234375 -0.046875q-0.078125 -0.046875 -0.109375 -0.09375q-0.03125 -0.046875 -0.03125 -0.125l0 -8.34375q0 -0.078125 0.015625 -0.125q0.03125 -0.0625 0.109375 -0.09375q0.09375 -0.046875 0.21875 -0.0625q0.140625 -0.015625 0.34375 -0.015625q0.203125 0 0.34375 0.015625q0.140625 0.015625 0.203125 0.0625q0.078125 0.03125 0.109375 0.09375q0.03125 0.046875 0.03125 0.125l0 1.09375q0.703125 -0.78125 1.40625 -1.140625q0.703125 -0.375 1.421875 -0.375q0.828125 0 1.390625 0.28125q0.578125 0.28125 0.921875 0.765625q0.359375 0.46875 0.515625 1.109375q0.15625 0.625 0.15625 1.515625l0 5.09375zm6.9580765 -0.609375q0 0.265625 -0.046875 0.421875q-0.03125 0.15625 -0.109375 0.234375q-0.07813263 0.078125 -0.23438263 0.140625q-0.140625 0.0625 -0.328125 0.109375q-0.1875 0.046875 -0.40625 0.0625q-0.203125 0.03125 -0.421875 0.03125q-0.640625 0 -1.109375 -0.171875q-0.46875 -0.171875 -0.765625 -0.515625q-0.296875 -0.34375 -0.4375 -0.875q-0.125 -0.546875 -0.125 -1.265625l0 -4.875l-1.171875 0q-0.140625 0 -0.21875 -0.140625q-0.078125 -0.15625 -0.078125 -0.5q0 -0.171875 0.015625 -0.28125q0.03125 -0.125 0.0625 -0.203125q0.03125 -0.09375 0.09375 -0.125q0.0625 -0.03125 0.140625 -0.03125l1.15625 0l0 -1.984375q0 -0.0625 0.03125 -0.109375q0.03125 -0.0625 0.109375 -0.09375q0.09375 -0.046875 0.234375 -0.0625q0.15625 -0.03125 0.390625 -0.03125q0.234375 0 0.375 0.03125q0.15625 0.015625 0.234375 0.0625q0.078125 0.03125 0.109375 0.09375q0.046875 0.046875 0.046875 0.109375l0 1.984375l2.140625 0q0.078125 0 0.125 0.03125q0.06250763 0.03125 0.09375763 0.125q0.046875 0.078125 0.0625 0.203125q0.03125 0.109375 0.03125 0.28125q0 0.34375 -0.09375 0.5q-0.078125 0.140625 -0.21875763 0.140625l-2.140625 0l0 4.65625q0 0.859375 0.25 1.296875q0.265625 0.4375 0.921875 0.4375q0.203125 0 0.375 -0.03125q0.171875 -0.046875 0.296875 -0.09375q0.125 -0.046875 0.21875 -0.078125q0.09375 -0.046875 0.171875 -0.046875q0.04688263 0 0.07813263 0.03125q0.046875 0.015625 0.0625 0.078125q0.03125 0.0625 0.046875 0.171875q0.03125 0.109375 0.03125 0.28125zm8.186615 0.625q0 0.109375 -0.078125 0.171875q-0.0625 0.046875 -0.203125 0.078125q-0.125 0.03125 -0.375 0.03125q-0.234375 0 -0.390625 -0.03125q-0.140625 -0.03125 -0.203125 -0.078125q-0.0625 -0.0625 -0.0625 -0.171875l0 -0.84375q-0.546875 0.59375 -1.21875 0.921875q-0.671875 0.3125 -1.421875 0.3125q-0.65625 0 -1.203125 -0.171875q-0.53125 -0.171875 -0.90625 -0.484375q-0.375 -0.328125 -0.578125 -0.796875q-0.203125 -0.484375 -0.203125 -1.078125q0 -0.71875 0.28125 -1.234375q0.28125 -0.515625 0.8125 -0.859375q0.546875 -0.34375 1.328125 -0.515625q0.78125 -0.171875 1.75 -0.171875l1.15625 0l0 -0.65625q0 -0.46875 -0.109375 -0.84375q-0.09375 -0.375 -0.328125 -0.609375q-0.21875 -0.25 -0.578125 -0.375q-0.359375 -0.125 -0.890625 -0.125q-0.5625 0 -1.015625 0.140625q-0.453125 0.125 -0.796875 0.296875q-0.328125 0.15625 -0.5625 0.296875q-0.234375 0.125 -0.34375 0.125q-0.0625 0 -0.125 -0.03125q-0.0625 -0.046875 -0.109375 -0.109375q-0.03125 -0.078125 -0.046875 -0.1875q-0.015625 -0.125 -0.015625 -0.265625q0 -0.234375 0.03125 -0.359375q0.03125 -0.140625 0.15625 -0.265625q0.125 -0.125 0.421875 -0.28125q0.3125 -0.15625 0.703125 -0.296875q0.40625 -0.140625 0.875 -0.21875q0.484375 -0.09375 0.96875 -0.09375q0.890625 0 1.515625 0.203125q0.640625 0.203125 1.03125 0.609375q0.390625 0.390625 0.5625 0.96875q0.171875 0.578125 0.171875 1.359375l0 5.640625zm-1.515625 -3.8125l-1.3125 0q-0.625 0 -1.09375 0.109375q-0.453125 0.09375 -0.765625 0.3125q-0.3125 0.203125 -0.453125 0.5q-0.140625 0.28125 -0.140625 0.671875q0 0.640625 0.40625 1.03125q0.421875 0.390625 1.15625 0.390625q0.609375 0 1.125 -0.3125q0.515625 -0.3125 1.078125 -0.9375l0 -1.765625zm10.170792 2.53125q0 0.15625 -0.015625 0.28125q0 0.109375 -0.03125 0.1875q-0.015625 0.078125 -0.046875 0.140625q-0.03125 0.0625 -0.15625 0.171875q-0.109375 0.109375 -0.390625 0.28125q-0.28125 0.171875 -0.625 0.3125q-0.34375 0.140625 -0.765625 0.21875q-0.40625 0.078125 -0.828125 0.078125q-0.90625 0 -1.609375 -0.296875q-0.6875 -0.296875 -1.15625 -0.859375q-0.46875 -0.578125 -0.71875 -1.40625q-0.25 -0.828125 -0.25 -1.921875q0 -1.21875 0.296875 -2.109375q0.3125 -0.890625 0.828125 -1.453125q0.53125 -0.5625 1.234375 -0.828125q0.71875 -0.28125 1.546875 -0.28125q0.390625 0 0.765625 0.078125q0.375 0.0625 0.6875 0.1875q0.328125 0.125 0.5625 0.28125q0.25 0.15625 0.359375 0.265625q0.125 0.109375 0.15625 0.171875q0.046875 0.0625 0.0625 0.15625q0.03125 0.09375 0.046875 0.203125q0.015625 0.109375 0.015625 0.28125q0 0.359375 -0.09375 0.5q-0.078125 0.140625 -0.203125 0.140625q-0.140625 0 -0.328125 -0.140625q-0.171875 -0.15625 -0.453125 -0.34375q-0.265625 -0.1875 -0.671875 -0.34375q-0.390625 -0.15625 -0.921875 -0.15625q-1.109375 0 -1.703125 0.859375q-0.578125 0.84375 -0.578125 2.453125q0 0.8125 0.140625 1.421875q0.15625 0.609375 0.453125 1.015625q0.296875 0.40625 0.71875 0.609375q0.4375 0.1875 1.0 0.1875q0.53125 0 0.921875 -0.15625q0.40625 -0.171875 0.6875 -0.375q0.296875 -0.203125 0.5 -0.359375q0.203125 -0.15625 0.3125 -0.15625q0.0625 0 0.109375 0.03125q0.046875 0.03125 0.078125 0.125q0.03125 0.09375 0.046875 0.234375q0.015625 0.125 0.015625 0.3125zm6.2325745 0.65625q0 0.265625 -0.046875 0.421875q-0.03125 0.15625 -0.109375 0.234375q-0.078125 0.078125 -0.234375 0.140625q-0.140625 0.0625 -0.328125 0.109375q-0.1875 0.046875 -0.40625 0.0625q-0.203125 0.03125 -0.421875 0.03125q-0.640625 0 -1.109375 -0.171875q-0.46875 -0.171875 -0.765625 -0.515625q-0.296875 -0.34375 -0.4375 -0.875q-0.125 -0.546875 -0.125 -1.265625l0 -4.875l-1.171875 0q-0.140625 0 -0.21875 -0.140625q-0.078125 -0.15625 -0.078125 -0.5q0 -0.171875 0.015625 -0.28125q0.03125 -0.125 0.0625 -0.203125q0.03125 -0.09375 0.09375 -0.125q0.0625 -0.03125 0.140625 -0.03125l1.15625 0l0 -1.984375q0 -0.0625 0.03125 -0.109375q0.03125 -0.0625 0.109375 -0.09375q0.09375 -0.046875 0.234375 -0.0625q0.15625 -0.03125 0.390625 -0.03125q0.234375 0 0.375 0.03125q0.15625 0.015625 0.234375 0.0625q0.078125 0.03125 0.109375 0.09375q0.046875 0.046875 0.046875 0.109375l0 1.984375l2.140625 0q0.078125 0 0.125 0.03125q0.0625 0.03125 0.09375 0.125q0.046875 0.078125 0.0625 0.203125q0.03125 0.109375 0.03125 0.28125q0 0.34375 -0.09375 0.5q-0.078125 0.140625 -0.21875 0.140625l-2.140625 0l0 4.65625q0 0.859375 0.25 1.296875q0.265625 0.4375 0.921875 0.4375q0.203125 0 0.375 -0.03125q0.171875 -0.046875 0.296875 -0.09375q0.125 -0.046875 0.21875 -0.078125q0.09375 -0.046875 0.171875 -0.046875q0.046875 0 0.078125 0.03125q0.046875 0.015625 0.0625 0.078125q0.03125 0.0625 0.046875 0.171875q0.03125 0.109375 0.03125 0.28125zm7.13974 -1.65625q0 0.640625 -0.234375 1.140625q-0.234375 0.5 -0.671875 0.84375q-0.4375 0.34375 -1.046875 0.515625q-0.59375 0.171875 -1.3125 0.171875q-0.453125 0 -0.859375 -0.078125q-0.390625 -0.0625 -0.71875 -0.15625q-0.3125 -0.109375 -0.546875 -0.21875q-0.21875 -0.125 -0.328125 -0.21875q-0.09375 -0.09375 -0.140625 -0.25q-0.046875 -0.171875 -0.046875 -0.46875q0 -0.171875 0.015625 -0.296875q0.015625 -0.125 0.046875 -0.1875q0.03125 -0.078125 0.078125 -0.109375q0.0625 -0.03125 0.125 -0.03125q0.09375 0 0.296875 0.125q0.203125 0.125 0.484375 0.28125q0.296875 0.140625 0.6875 0.265625q0.40625 0.125 0.9375 0.125q0.375 0 0.6875 -0.078125q0.328125 -0.09375 0.5625 -0.25q0.234375 -0.171875 0.359375 -0.421875q0.125 -0.25 0.125 -0.59375q0 -0.34375 -0.1875 -0.578125q-0.1875 -0.25 -0.484375 -0.4375q-0.296875 -0.1875 -0.671875 -0.328125q-0.359375 -0.140625 -0.765625 -0.296875q-0.390625 -0.15625 -0.765625 -0.359375q-0.375 -0.203125 -0.671875 -0.484375q-0.296875 -0.296875 -0.484375 -0.6875q-0.171875 -0.40625 -0.171875 -0.953125q0 -0.5 0.1875 -0.9375q0.203125 -0.453125 0.578125 -0.796875q0.375 -0.34375 0.9375 -0.546875q0.578125 -0.203125 1.34375 -0.203125q0.328125 0 0.65625 0.0625q0.34375 0.046875 0.609375 0.140625q0.265625 0.078125 0.453125 0.171875q0.203125 0.09375 0.296875 0.171875q0.09375 0.078125 0.125 0.140625q0.03125 0.046875 0.046875 0.125q0.015625 0.0625 0.03125 0.171875q0.015625 0.09375 0.015625 0.234375q0 0.171875 -0.015625 0.28125q-0.015625 0.109375 -0.046875 0.1875q-0.03125 0.078125 -0.078125 0.109375q-0.046875 0.03125 -0.09375 0.03125q-0.09375 0 -0.25 -0.09375q-0.15625 -0.109375 -0.40625 -0.21875q-0.25 -0.125 -0.59375 -0.21875q-0.328125 -0.109375 -0.765625 -0.109375q-0.390625 0 -0.6875 0.09375q-0.296875 0.078125 -0.5 0.25q-0.1875 0.15625 -0.28125 0.390625q-0.09375 0.21875 -0.09375 0.46875q0 0.359375 0.1875 0.609375q0.1875 0.25 0.484375 0.4375q0.296875 0.1875 0.671875 0.34375q0.375 0.140625 0.765625 0.296875q0.40625 0.15625 0.78125 0.359375q0.390625 0.1875 0.6875 0.46875q0.296875 0.265625 0.46875 0.65625q0.1875 0.390625 0.1875 0.9375z" fill-rule="nonzero"></path></g></svg>

